M48
; DRILL file {KiCad 7.0.5.1-1-g8f565ef7f0-dirty-deb11} date Wed Aug  9 17:10:44 2023
; FORMAT={-:-/ absolute / metric / decimal}
; #@! TF.CreationDate,2023-08-09T17:10:44+00:00
; #@! TF.GenerationSoftware,Kicad,Pcbnew,7.0.5.1-1-g8f565ef7f0-dirty-deb11
; #@! TF.FileFunction,Plated,1,2,PTH
FMAT,2
METRIC
; #@! TA.AperFunction,Plated,PTH,ViaDrill
T1C0.400
; #@! TA.AperFunction,Plated,PTH,ComponentDrill
T2C0.750
; #@! TA.AperFunction,Plated,PTH,ComponentDrill
T3C0.800
; #@! TA.AperFunction,Plated,PTH,ComponentDrill
T4C0.900
; #@! TA.AperFunction,Plated,PTH,ComponentDrill
T5C1.000
; #@! TA.AperFunction,Plated,PTH,ComponentDrill
T6C1.001
; #@! TA.AperFunction,Plated,PTH,ComponentDrill
T7C1.100
; #@! TA.AperFunction,Plated,PTH,ComponentDrill
T8C1.250
; #@! TA.AperFunction,Plated,PTH,ComponentDrill
T9C1.400
%
G90
G05
T1
X124.71Y-106.7
X134.91Y-94.3
X136.21Y-91.2
X140.21Y-86.3
X140.31Y-91.2
X144.51Y-101.5
X145.11Y-104.0
X145.71Y-98.4
X148.71Y-100.7
X149.61Y-107.8
X152.11Y-96.9
X154.61Y-108.9
X154.96Y-97.75
T2
X126.01Y-103.3
X127.28Y-102.03
X127.28Y-104.57
X154.22Y-105.05
X155.49Y-106.32
X156.76Y-105.05
T3
X127.31Y-91.053
X127.31Y-93.553
X161.05Y-135.0
X162.0Y-140.2
X162.0Y-142.7
X162.71Y-103.9
X162.71Y-106.4
X166.05Y-135.0
T4
X150.51Y-90.435
X150.51Y-92.975
X155.11Y-90.425
X155.11Y-92.965
T5
X134.51Y-55.0
X134.51Y-57.54
X139.08Y-105.8
X139.08Y-111.35
X141.6Y-116.81
X141.62Y-105.8
X141.62Y-111.35
X144.14Y-116.81
X144.16Y-105.8
X144.16Y-111.35
X146.7Y-105.8
X146.7Y-111.35
T6
X122.5Y-135.0
X122.5Y-137.54
X127.76Y-134.98
X127.76Y-142.6
X131.01Y-135.0
X131.01Y-142.62
X155.5Y-135.0
X155.5Y-142.62
T7
X120.01Y-76.446
X120.01Y-79.404
X120.71Y-91.32
X120.71Y-101.48
X125.01Y-76.446
X125.01Y-79.404
X130.01Y-76.446
X130.01Y-79.404
X155.51Y-76.55
X155.51Y-79.154
X160.51Y-76.55
X160.51Y-79.154
X165.51Y-76.55
X165.51Y-79.154
T9
X122.31Y-114.5
X122.31Y-130.73
X128.66Y-114.5
X128.66Y-130.73
X135.01Y-114.5
X135.01Y-130.73
X150.575Y-114.5
X150.575Y-130.73
X156.925Y-114.5
X156.925Y-130.73
X163.275Y-114.5
X163.275Y-130.73
T5
X138.575Y-137.825G85X137.325Y-137.825
G05
X138.575Y-142.525G85X137.325Y-142.525
G05
X138.575Y-147.225G85X137.325Y-147.225
G05
X143.875Y-137.825G85X142.625Y-137.825
G05
X143.875Y-142.55G85X142.625Y-142.55
G05
X143.875Y-147.225G85X142.625Y-147.225
G05
X149.175Y-137.825G85X147.925Y-137.825
G05
X149.175Y-142.525G85X147.925Y-142.525
G05
X149.175Y-147.225G85X147.925Y-147.225
G05
T8
X142.085Y-73.5G85X143.335Y-73.5
G05
X142.085Y-77.95G85X143.335Y-77.95
G05
X142.085Y-82.4G85X143.335Y-82.4
G05
T0
M30
