%TF.GenerationSoftware,KiCad,Pcbnew,7.0.5.1-1-g8f565ef7f0-dirty-deb11*%
%TF.CreationDate,2023-08-09T17:10:44+00:00*%
%TF.ProjectId,GreenBean,47726565-6e42-4656-916e-2e6b69636164,rev?*%
%TF.SameCoordinates,Original*%
%TF.FileFunction,Drillmap*%
%TF.FilePolarity,Positive*%
%FSLAX45Y45*%
G04 Gerber Fmt 4.5, Leading zero omitted, Abs format (unit mm)*
G04 Created by KiCad (PCBNEW 7.0.5.1-1-g8f565ef7f0-dirty-deb11) date 2023-08-09 17:10:44*
%MOMM*%
%LPD*%
G01*
G04 APERTURE LIST*
%ADD10C,0.150000*%
%ADD11C,0.200000*%
G04 APERTURE END LIST*
D10*
X14540000Y-10775000D02*
X14850000Y-10775000D01*
X13770000Y-10950000D02*
X14060000Y-10950000D01*
X12800000Y-14750000D02*
X12700000Y-14650000D01*
X11500000Y-13450000D02*
X11500000Y-12100000D01*
X13535000Y-10975000D02*
X11650000Y-10975000D01*
X14540000Y-10950000D02*
X14800000Y-10950000D01*
X14875000Y-6250000D02*
X14875000Y-5200000D01*
X12700000Y-14650000D02*
X11500000Y-13450000D01*
X11500000Y-5700000D02*
X11500000Y-10825000D01*
X16900000Y-14100000D02*
X15800000Y-15200000D01*
X13350000Y-15100000D02*
X13350000Y-14850000D01*
X14975000Y-11125000D02*
X16475000Y-11125000D01*
X14850000Y-10775000D02*
X15050000Y-10975000D01*
X16550000Y-5200000D02*
X17050000Y-5700000D01*
X16900000Y-10975000D02*
X17050000Y-10825000D01*
X16900000Y-13350000D02*
X17050000Y-13200000D01*
X11650000Y-10975000D02*
X11500000Y-10825000D01*
X14060000Y-10775000D02*
X14060000Y-10950000D01*
X13735000Y-10775000D02*
X13535000Y-10975000D01*
X11500000Y-5700000D02*
X12000000Y-5200000D01*
X17050000Y-8500000D02*
X17050000Y-5700000D01*
X13675000Y-6250000D02*
X14875000Y-6250000D01*
X13675000Y-5200000D02*
X12000000Y-5200000D01*
X17050000Y-11275000D02*
X16900000Y-11125000D01*
X13595000Y-11125000D02*
X11700000Y-11125000D01*
X13450000Y-15200000D02*
X15800000Y-15200000D01*
X11650000Y-10975000D02*
X11650000Y-10975000D01*
X13770000Y-10950000D02*
X13595000Y-11125000D01*
X16900000Y-13350000D02*
X16900000Y-14100000D01*
X17050000Y-10825000D02*
X17050000Y-8500000D01*
X13675000Y-5200000D02*
X13675000Y-6250000D01*
X13450000Y-15200000D02*
X13350000Y-15100000D01*
X13350000Y-14850000D02*
X13250000Y-14750000D01*
X14167000Y-10776000D02*
X14429000Y-10776000D01*
X14429000Y-10949000D01*
X14167000Y-10949000D01*
X14167000Y-10776000D01*
X11500000Y-11275000D02*
X11500000Y-12100000D01*
X14875000Y-5200000D02*
X16550000Y-5200000D01*
X13250000Y-14750000D02*
X12850000Y-14750000D01*
X14540000Y-10775000D02*
X14540000Y-10950000D01*
X16900000Y-11125000D02*
X16475000Y-11125000D01*
X11650000Y-11125000D02*
X11500000Y-11275000D01*
X14800000Y-10950000D02*
X14975000Y-11125000D01*
X17050000Y-13200000D02*
X17050000Y-11275000D01*
X12850000Y-14750000D02*
X12800000Y-14750000D01*
X13735000Y-10775000D02*
X14060000Y-10775000D01*
X15050000Y-10975000D02*
X16900000Y-10975000D01*
X11700000Y-11125000D02*
X11650000Y-11125000D01*
D11*
X11753277Y-15518984D02*
X11753277Y-15318984D01*
X11753277Y-15318984D02*
X11800896Y-15318984D01*
X11800896Y-15318984D02*
X11829467Y-15328508D01*
X11829467Y-15328508D02*
X11848515Y-15347555D01*
X11848515Y-15347555D02*
X11858039Y-15366603D01*
X11858039Y-15366603D02*
X11867562Y-15404698D01*
X11867562Y-15404698D02*
X11867562Y-15433269D01*
X11867562Y-15433269D02*
X11858039Y-15471365D01*
X11858039Y-15471365D02*
X11848515Y-15490412D01*
X11848515Y-15490412D02*
X11829467Y-15509460D01*
X11829467Y-15509460D02*
X11800896Y-15518984D01*
X11800896Y-15518984D02*
X11753277Y-15518984D01*
X11953277Y-15518984D02*
X11953277Y-15385650D01*
X11953277Y-15423746D02*
X11962801Y-15404698D01*
X11962801Y-15404698D02*
X11972324Y-15395174D01*
X11972324Y-15395174D02*
X11991372Y-15385650D01*
X11991372Y-15385650D02*
X12010420Y-15385650D01*
X12077086Y-15518984D02*
X12077086Y-15385650D01*
X12077086Y-15318984D02*
X12067562Y-15328508D01*
X12067562Y-15328508D02*
X12077086Y-15338031D01*
X12077086Y-15338031D02*
X12086610Y-15328508D01*
X12086610Y-15328508D02*
X12077086Y-15318984D01*
X12077086Y-15318984D02*
X12077086Y-15338031D01*
X12200896Y-15518984D02*
X12181848Y-15509460D01*
X12181848Y-15509460D02*
X12172324Y-15490412D01*
X12172324Y-15490412D02*
X12172324Y-15318984D01*
X12305658Y-15518984D02*
X12286610Y-15509460D01*
X12286610Y-15509460D02*
X12277086Y-15490412D01*
X12277086Y-15490412D02*
X12277086Y-15318984D01*
X12534229Y-15518984D02*
X12534229Y-15318984D01*
X12534229Y-15318984D02*
X12600896Y-15461841D01*
X12600896Y-15461841D02*
X12667562Y-15318984D01*
X12667562Y-15318984D02*
X12667562Y-15518984D01*
X12848515Y-15518984D02*
X12848515Y-15414222D01*
X12848515Y-15414222D02*
X12838991Y-15395174D01*
X12838991Y-15395174D02*
X12819943Y-15385650D01*
X12819943Y-15385650D02*
X12781848Y-15385650D01*
X12781848Y-15385650D02*
X12762801Y-15395174D01*
X12848515Y-15509460D02*
X12829467Y-15518984D01*
X12829467Y-15518984D02*
X12781848Y-15518984D01*
X12781848Y-15518984D02*
X12762801Y-15509460D01*
X12762801Y-15509460D02*
X12753277Y-15490412D01*
X12753277Y-15490412D02*
X12753277Y-15471365D01*
X12753277Y-15471365D02*
X12762801Y-15452317D01*
X12762801Y-15452317D02*
X12781848Y-15442793D01*
X12781848Y-15442793D02*
X12829467Y-15442793D01*
X12829467Y-15442793D02*
X12848515Y-15433269D01*
X12943753Y-15385650D02*
X12943753Y-15585650D01*
X12943753Y-15395174D02*
X12962801Y-15385650D01*
X12962801Y-15385650D02*
X13000896Y-15385650D01*
X13000896Y-15385650D02*
X13019943Y-15395174D01*
X13019943Y-15395174D02*
X13029467Y-15404698D01*
X13029467Y-15404698D02*
X13038991Y-15423746D01*
X13038991Y-15423746D02*
X13038991Y-15480888D01*
X13038991Y-15480888D02*
X13029467Y-15499936D01*
X13029467Y-15499936D02*
X13019943Y-15509460D01*
X13019943Y-15509460D02*
X13000896Y-15518984D01*
X13000896Y-15518984D02*
X12962801Y-15518984D01*
X12962801Y-15518984D02*
X12943753Y-15509460D01*
X13124705Y-15499936D02*
X13134229Y-15509460D01*
X13134229Y-15509460D02*
X13124705Y-15518984D01*
X13124705Y-15518984D02*
X13115182Y-15509460D01*
X13115182Y-15509460D02*
X13124705Y-15499936D01*
X13124705Y-15499936D02*
X13124705Y-15518984D01*
X13124705Y-15395174D02*
X13134229Y-15404698D01*
X13134229Y-15404698D02*
X13124705Y-15414222D01*
X13124705Y-15414222D02*
X13115182Y-15404698D01*
X13115182Y-15404698D02*
X13124705Y-15395174D01*
X13124705Y-15395174D02*
X13124705Y-15414222D01*
M02*
