G04 #@! TF.GenerationSoftware,KiCad,Pcbnew,7.0.5.1-1-g8f565ef7f0-dirty-deb11*
G04 #@! TF.CreationDate,2023-08-09T17:10:44+00:00*
G04 #@! TF.ProjectId,GreenBean,47726565-6e42-4656-916e-2e6b69636164,rev?*
G04 #@! TF.SameCoordinates,Original*
G04 #@! TF.FileFunction,Legend,Bot*
G04 #@! TF.FilePolarity,Positive*
%FSLAX46Y46*%
G04 Gerber Fmt 4.6, Leading zero omitted, Abs format (unit mm)*
G04 Created by KiCad (PCBNEW 7.0.5.1-1-g8f565ef7f0-dirty-deb11) date 2023-08-09 17:10:44*
%MOMM*%
%LPD*%
G01*
G04 APERTURE LIST*
%ADD10C,0.150000*%
%ADD11C,1.998980*%
%ADD12O,3.000000X1.900000*%
%ADD13C,3.400000*%
%ADD14O,2.100000X2.100000*%
%ADD15C,2.000000*%
%ADD16C,2.300000*%
%ADD17C,2.398980*%
%ADD18C,1.700000*%
%ADD19O,5.400000X3.600000*%
%ADD20C,2.200000*%
%ADD21O,2.600000X2.600000*%
%ADD22C,1.924000*%
G04 APERTURE END LIST*
D10*
X159248095Y-95699348D02*
X158771905Y-95699348D01*
X158771905Y-95699348D02*
X158771905Y-96699348D01*
X159771905Y-96699348D02*
X159962381Y-96699348D01*
X159962381Y-96699348D02*
X160057619Y-96651729D01*
X160057619Y-96651729D02*
X160152857Y-96556491D01*
X160152857Y-96556491D02*
X160200476Y-96366015D01*
X160200476Y-96366015D02*
X160200476Y-96032682D01*
X160200476Y-96032682D02*
X160152857Y-95842206D01*
X160152857Y-95842206D02*
X160057619Y-95746968D01*
X160057619Y-95746968D02*
X159962381Y-95699348D01*
X159962381Y-95699348D02*
X159771905Y-95699348D01*
X159771905Y-95699348D02*
X159676667Y-95746968D01*
X159676667Y-95746968D02*
X159581429Y-95842206D01*
X159581429Y-95842206D02*
X159533810Y-96032682D01*
X159533810Y-96032682D02*
X159533810Y-96366015D01*
X159533810Y-96366015D02*
X159581429Y-96556491D01*
X159581429Y-96556491D02*
X159676667Y-96651729D01*
X159676667Y-96651729D02*
X159771905Y-96699348D01*
X160533810Y-96699348D02*
X160771905Y-95699348D01*
X160771905Y-95699348D02*
X160962381Y-96413634D01*
X160962381Y-96413634D02*
X161152857Y-95699348D01*
X161152857Y-95699348D02*
X161390953Y-96699348D01*
X162295714Y-95699348D02*
X161724286Y-95699348D01*
X162010000Y-95699348D02*
X162010000Y-96699348D01*
X162010000Y-96699348D02*
X161914762Y-96556491D01*
X161914762Y-96556491D02*
X161819524Y-96461253D01*
X161819524Y-96461253D02*
X161724286Y-96413634D01*
X127271904Y-58900651D02*
X126700476Y-58900651D01*
X126986190Y-59900651D02*
X126986190Y-58900651D01*
X126176666Y-58900651D02*
X125986190Y-58900651D01*
X125986190Y-58900651D02*
X125890952Y-58948270D01*
X125890952Y-58948270D02*
X125795714Y-59043508D01*
X125795714Y-59043508D02*
X125748095Y-59233984D01*
X125748095Y-59233984D02*
X125748095Y-59567317D01*
X125748095Y-59567317D02*
X125795714Y-59757793D01*
X125795714Y-59757793D02*
X125890952Y-59853032D01*
X125890952Y-59853032D02*
X125986190Y-59900651D01*
X125986190Y-59900651D02*
X126176666Y-59900651D01*
X126176666Y-59900651D02*
X126271904Y-59853032D01*
X126271904Y-59853032D02*
X126367142Y-59757793D01*
X126367142Y-59757793D02*
X126414761Y-59567317D01*
X126414761Y-59567317D02*
X126414761Y-59233984D01*
X126414761Y-59233984D02*
X126367142Y-59043508D01*
X126367142Y-59043508D02*
X126271904Y-58948270D01*
X126271904Y-58948270D02*
X126176666Y-58900651D01*
X125319523Y-59900651D02*
X125319523Y-58900651D01*
X125319523Y-58900651D02*
X124748095Y-59900651D01*
X124748095Y-59900651D02*
X124748095Y-58900651D01*
X124271904Y-59376841D02*
X123938571Y-59376841D01*
X123795714Y-59900651D02*
X124271904Y-59900651D01*
X124271904Y-59900651D02*
X124271904Y-58900651D01*
X124271904Y-58900651D02*
X123795714Y-58900651D01*
X122843333Y-59900651D02*
X123414761Y-59900651D01*
X123129047Y-59900651D02*
X123129047Y-58900651D01*
X123129047Y-58900651D02*
X123224285Y-59043508D01*
X123224285Y-59043508D02*
X123319523Y-59138746D01*
X123319523Y-59138746D02*
X123414761Y-59186365D01*
X162867142Y-60004819D02*
X162867142Y-59004819D01*
X162867142Y-59004819D02*
X162629047Y-59004819D01*
X162629047Y-59004819D02*
X162486190Y-59052438D01*
X162486190Y-59052438D02*
X162390952Y-59147676D01*
X162390952Y-59147676D02*
X162343333Y-59242914D01*
X162343333Y-59242914D02*
X162295714Y-59433390D01*
X162295714Y-59433390D02*
X162295714Y-59576247D01*
X162295714Y-59576247D02*
X162343333Y-59766723D01*
X162343333Y-59766723D02*
X162390952Y-59861961D01*
X162390952Y-59861961D02*
X162486190Y-59957200D01*
X162486190Y-59957200D02*
X162629047Y-60004819D01*
X162629047Y-60004819D02*
X162867142Y-60004819D01*
X161295714Y-60004819D02*
X161629047Y-59528628D01*
X161867142Y-60004819D02*
X161867142Y-59004819D01*
X161867142Y-59004819D02*
X161486190Y-59004819D01*
X161486190Y-59004819D02*
X161390952Y-59052438D01*
X161390952Y-59052438D02*
X161343333Y-59100057D01*
X161343333Y-59100057D02*
X161295714Y-59195295D01*
X161295714Y-59195295D02*
X161295714Y-59338152D01*
X161295714Y-59338152D02*
X161343333Y-59433390D01*
X161343333Y-59433390D02*
X161390952Y-59481009D01*
X161390952Y-59481009D02*
X161486190Y-59528628D01*
X161486190Y-59528628D02*
X161867142Y-59528628D01*
X160867142Y-60004819D02*
X160867142Y-59004819D01*
X160533809Y-59004819D02*
X160200476Y-60004819D01*
X160200476Y-60004819D02*
X159867143Y-59004819D01*
X159533809Y-59481009D02*
X159200476Y-59481009D01*
X159057619Y-60004819D02*
X159533809Y-60004819D01*
X159533809Y-60004819D02*
X159533809Y-59004819D01*
X159533809Y-59004819D02*
X159057619Y-59004819D01*
X158105238Y-60004819D02*
X158676666Y-60004819D01*
X158390952Y-60004819D02*
X158390952Y-59004819D01*
X158390952Y-59004819D02*
X158486190Y-59147676D01*
X158486190Y-59147676D02*
X158581428Y-59242914D01*
X158581428Y-59242914D02*
X158676666Y-59290533D01*
X123271905Y-96949348D02*
X123605238Y-95949348D01*
X123605238Y-95949348D02*
X123938571Y-96949348D01*
X124462381Y-96949348D02*
X124652857Y-96949348D01*
X124652857Y-96949348D02*
X124748095Y-96901729D01*
X124748095Y-96901729D02*
X124843333Y-96806491D01*
X124843333Y-96806491D02*
X124890952Y-96616015D01*
X124890952Y-96616015D02*
X124890952Y-96282682D01*
X124890952Y-96282682D02*
X124843333Y-96092206D01*
X124843333Y-96092206D02*
X124748095Y-95996968D01*
X124748095Y-95996968D02*
X124652857Y-95949348D01*
X124652857Y-95949348D02*
X124462381Y-95949348D01*
X124462381Y-95949348D02*
X124367143Y-95996968D01*
X124367143Y-95996968D02*
X124271905Y-96092206D01*
X124271905Y-96092206D02*
X124224286Y-96282682D01*
X124224286Y-96282682D02*
X124224286Y-96616015D01*
X124224286Y-96616015D02*
X124271905Y-96806491D01*
X124271905Y-96806491D02*
X124367143Y-96901729D01*
X124367143Y-96901729D02*
X124462381Y-96949348D01*
X125795714Y-95949348D02*
X125319524Y-95949348D01*
X125319524Y-95949348D02*
X125319524Y-96949348D01*
X126652857Y-95949348D02*
X126081429Y-95949348D01*
X126367143Y-95949348D02*
X126367143Y-96949348D01*
X126367143Y-96949348D02*
X126271905Y-96806491D01*
X126271905Y-96806491D02*
X126176667Y-96711253D01*
X126176667Y-96711253D02*
X126081429Y-96663634D01*
D11*
X155500000Y-135000000D03*
X155500000Y-142620000D03*
X127760000Y-142600000D03*
X127760000Y-134980000D03*
X131010000Y-135000000D03*
X131010000Y-142620000D03*
%LPC*%
G36*
G01*
X150050000Y-137075000D02*
X150050000Y-138575000D01*
G75*
G02*
X149850000Y-138775000I-200000J0D01*
G01*
X147250000Y-138775000D01*
G75*
G02*
X147050000Y-138575000I0J200000D01*
G01*
X147050000Y-137075000D01*
G75*
G02*
X147250000Y-136875000I200000J0D01*
G01*
X149850000Y-136875000D01*
G75*
G02*
X150050000Y-137075000I0J-200000D01*
G01*
G37*
D12*
X143250000Y-137825000D03*
X137950000Y-137825000D03*
X148550000Y-142525000D03*
X143250000Y-142550000D03*
X137950000Y-142525000D03*
X148550000Y-147225000D03*
X143250000Y-147225000D03*
X137950000Y-147225000D03*
D13*
X128660000Y-130730000D03*
X128660000Y-114500000D03*
X122310000Y-130730000D03*
X122310000Y-114500000D03*
X135010000Y-130730000D03*
X135010000Y-114500000D03*
G36*
G01*
X133460000Y-55850000D02*
X133460000Y-54150000D01*
G75*
G02*
X133660000Y-53950000I200000J0D01*
G01*
X135360000Y-53950000D01*
G75*
G02*
X135560000Y-54150000I0J-200000D01*
G01*
X135560000Y-55850000D01*
G75*
G02*
X135360000Y-56050000I-200000J0D01*
G01*
X133660000Y-56050000D01*
G75*
G02*
X133460000Y-55850000I0J200000D01*
G01*
G37*
D14*
X134510000Y-57540000D03*
G36*
G01*
X145850000Y-110300000D02*
X147550000Y-110300000D01*
G75*
G02*
X147750000Y-110500000I0J-200000D01*
G01*
X147750000Y-112200000D01*
G75*
G02*
X147550000Y-112400000I-200000J0D01*
G01*
X145850000Y-112400000D01*
G75*
G02*
X145650000Y-112200000I0J200000D01*
G01*
X145650000Y-110500000D01*
G75*
G02*
X145850000Y-110300000I200000J0D01*
G01*
G37*
X144160000Y-111350000D03*
X141620000Y-111350000D03*
X139080000Y-111350000D03*
G36*
G01*
X145850000Y-104750000D02*
X147550000Y-104750000D01*
G75*
G02*
X147750000Y-104950000I0J-200000D01*
G01*
X147750000Y-106650000D01*
G75*
G02*
X147550000Y-106850000I-200000J0D01*
G01*
X145850000Y-106850000D01*
G75*
G02*
X145650000Y-106650000I0J200000D01*
G01*
X145650000Y-104950000D01*
G75*
G02*
X145850000Y-104750000I200000J0D01*
G01*
G37*
X144160000Y-105800000D03*
X141620000Y-105800000D03*
X139080000Y-105800000D03*
G36*
G01*
X161200000Y-139200000D02*
X162800000Y-139200000D01*
G75*
G02*
X163000000Y-139400000I0J-200000D01*
G01*
X163000000Y-141000000D01*
G75*
G02*
X162800000Y-141200000I-200000J0D01*
G01*
X161200000Y-141200000D01*
G75*
G02*
X161000000Y-141000000I0J200000D01*
G01*
X161000000Y-139400000D01*
G75*
G02*
X161200000Y-139200000I200000J0D01*
G01*
G37*
D15*
X162000000Y-142700000D03*
G36*
G01*
X123700000Y-136590000D02*
X123700000Y-138490000D01*
G75*
G02*
X123500000Y-138690000I-200000J0D01*
G01*
X121500000Y-138690000D01*
G75*
G02*
X121300000Y-138490000I0J200000D01*
G01*
X121300000Y-136590000D01*
G75*
G02*
X121500000Y-136390000I200000J0D01*
G01*
X123500000Y-136390000D01*
G75*
G02*
X123700000Y-136590000I0J-200000D01*
G01*
G37*
D16*
X122500000Y-135000000D03*
D17*
X155500000Y-135000000D03*
X155500000Y-142620000D03*
X127760000Y-142600000D03*
X127760000Y-134980000D03*
X131010000Y-135000000D03*
X131010000Y-142620000D03*
G36*
G01*
X160200000Y-135650000D02*
X160200000Y-134350000D01*
G75*
G02*
X160400000Y-134150000I200000J0D01*
G01*
X161700000Y-134150000D01*
G75*
G02*
X161900000Y-134350000I0J-200000D01*
G01*
X161900000Y-135650000D01*
G75*
G02*
X161700000Y-135850000I-200000J0D01*
G01*
X160400000Y-135850000D01*
G75*
G02*
X160200000Y-135650000I0J200000D01*
G01*
G37*
D18*
X166050000Y-135000000D03*
G36*
G01*
X143290000Y-115760000D02*
X144990000Y-115760000D01*
G75*
G02*
X145190000Y-115960000I0J-200000D01*
G01*
X145190000Y-117660000D01*
G75*
G02*
X144990000Y-117860000I-200000J0D01*
G01*
X143290000Y-117860000D01*
G75*
G02*
X143090000Y-117660000I0J200000D01*
G01*
X143090000Y-115960000D01*
G75*
G02*
X143290000Y-115760000I200000J0D01*
G01*
G37*
D14*
X141600000Y-116810000D03*
D13*
X156925000Y-114500000D03*
X156925000Y-130730000D03*
X163275000Y-114500000D03*
X163275000Y-130730000D03*
X150575000Y-114500000D03*
X150575000Y-130730000D03*
D19*
X142710000Y-82400000D03*
X142710000Y-77950000D03*
X142710000Y-73500000D03*
G36*
G01*
X151410000Y-94075000D02*
X149610000Y-94075000D01*
G75*
G02*
X149410000Y-93875000I0J200000D01*
G01*
X149410000Y-92075000D01*
G75*
G02*
X149610000Y-91875000I200000J0D01*
G01*
X151410000Y-91875000D01*
G75*
G02*
X151610000Y-92075000I0J-200000D01*
G01*
X151610000Y-93875000D01*
G75*
G02*
X151410000Y-94075000I-200000J0D01*
G01*
G37*
D20*
X150510000Y-90435000D03*
G36*
G01*
X154210000Y-89325000D02*
X156010000Y-89325000D01*
G75*
G02*
X156210000Y-89525000I0J-200000D01*
G01*
X156210000Y-91325000D01*
G75*
G02*
X156010000Y-91525000I-200000J0D01*
G01*
X154210000Y-91525000D01*
G75*
G02*
X154010000Y-91325000I0J200000D01*
G01*
X154010000Y-89525000D01*
G75*
G02*
X154210000Y-89325000I200000J0D01*
G01*
G37*
X155110000Y-92965000D03*
G36*
G01*
X128110000Y-94552651D02*
X126510000Y-94552651D01*
G75*
G02*
X126310000Y-94352651I0J200000D01*
G01*
X126310000Y-92752651D01*
G75*
G02*
X126510000Y-92552651I200000J0D01*
G01*
X128110000Y-92552651D01*
G75*
G02*
X128310000Y-92752651I0J-200000D01*
G01*
X128310000Y-94352651D01*
G75*
G02*
X128110000Y-94552651I-200000J0D01*
G01*
G37*
D15*
X127310000Y-91052651D03*
G36*
G01*
X157510000Y-103750000D02*
X157510000Y-105550000D01*
G75*
G02*
X157310000Y-105750000I-200000J0D01*
G01*
X156210000Y-105750000D01*
G75*
G02*
X156010000Y-105550000I0J200000D01*
G01*
X156010000Y-103750000D01*
G75*
G02*
X156210000Y-103550000I200000J0D01*
G01*
X157310000Y-103550000D01*
G75*
G02*
X157510000Y-103750000I0J-200000D01*
G01*
G37*
G36*
G01*
X156240000Y-106095000D02*
X156240000Y-107345000D01*
G75*
G02*
X155765000Y-107820000I-475000J0D01*
G01*
X155215000Y-107820000D01*
G75*
G02*
X154740000Y-107345000I0J475000D01*
G01*
X154740000Y-106095000D01*
G75*
G02*
X155215000Y-105620000I475000J0D01*
G01*
X155765000Y-105620000D01*
G75*
G02*
X156240000Y-106095000I0J-475000D01*
G01*
G37*
G36*
G01*
X154970000Y-104025000D02*
X154970000Y-105275000D01*
G75*
G02*
X154495000Y-105750000I-475000J0D01*
G01*
X153945000Y-105750000D01*
G75*
G02*
X153470000Y-105275000I0J475000D01*
G01*
X153470000Y-104025000D01*
G75*
G02*
X153945000Y-103550000I475000J0D01*
G01*
X154495000Y-103550000D01*
G75*
G02*
X154970000Y-104025000I0J-475000D01*
G01*
G37*
G36*
G01*
X163510000Y-107400000D02*
X161910000Y-107400000D01*
G75*
G02*
X161710000Y-107200000I0J200000D01*
G01*
X161710000Y-105600000D01*
G75*
G02*
X161910000Y-105400000I200000J0D01*
G01*
X163510000Y-105400000D01*
G75*
G02*
X163710000Y-105600000I0J-200000D01*
G01*
X163710000Y-107200000D01*
G75*
G02*
X163510000Y-107400000I-200000J0D01*
G01*
G37*
X162710000Y-103900000D03*
G36*
G01*
X128580000Y-105320000D02*
X126780000Y-105320000D01*
G75*
G02*
X126580000Y-105120000I0J200000D01*
G01*
X126580000Y-104020000D01*
G75*
G02*
X126780000Y-103820000I200000J0D01*
G01*
X128580000Y-103820000D01*
G75*
G02*
X128780000Y-104020000I0J-200000D01*
G01*
X128780000Y-105120000D01*
G75*
G02*
X128580000Y-105320000I-200000J0D01*
G01*
G37*
G36*
G01*
X126235000Y-104050000D02*
X124985000Y-104050000D01*
G75*
G02*
X124510000Y-103575000I0J475000D01*
G01*
X124510000Y-103025000D01*
G75*
G02*
X124985000Y-102550000I475000J0D01*
G01*
X126235000Y-102550000D01*
G75*
G02*
X126710000Y-103025000I0J-475000D01*
G01*
X126710000Y-103575000D01*
G75*
G02*
X126235000Y-104050000I-475000J0D01*
G01*
G37*
G36*
G01*
X128305000Y-102780000D02*
X127055000Y-102780000D01*
G75*
G02*
X126580000Y-102305000I0J475000D01*
G01*
X126580000Y-101755000D01*
G75*
G02*
X127055000Y-101280000I475000J0D01*
G01*
X128305000Y-101280000D01*
G75*
G02*
X128780000Y-101755000I0J-475000D01*
G01*
X128780000Y-102305000D01*
G75*
G02*
X128305000Y-102780000I-475000J0D01*
G01*
G37*
G36*
G01*
X121810000Y-102780000D02*
X119610000Y-102780000D01*
G75*
G02*
X119410000Y-102580000I0J200000D01*
G01*
X119410000Y-100380000D01*
G75*
G02*
X119610000Y-100180000I200000J0D01*
G01*
X121810000Y-100180000D01*
G75*
G02*
X122010000Y-100380000I0J-200000D01*
G01*
X122010000Y-102580000D01*
G75*
G02*
X121810000Y-102780000I-200000J0D01*
G01*
G37*
D21*
X120710000Y-91320000D03*
D22*
X155510000Y-79154168D03*
X160510000Y-79154168D03*
X165510000Y-79154168D03*
X130010000Y-76445832D03*
X125010000Y-76445832D03*
X120010000Y-76445832D03*
X165510000Y-76550000D03*
X160510000Y-76550000D03*
X155510000Y-76550000D03*
X120010000Y-79404168D03*
X125010000Y-79404168D03*
X130010000Y-79404168D03*
%LPD*%
M02*
