%TF.GenerationSoftware,KiCad,Pcbnew,7.0.5.1-1-g8f565ef7f0-dirty-deb11*%
%TF.CreationDate,2023-08-09T17:10:44+00:00*%
%TF.ProjectId,GreenBean,47726565-6e42-4656-916e-2e6b69636164,rev?*%
%TF.SameCoordinates,Original*%
%TF.FileFunction,Drillmap*%
%TF.FilePolarity,Positive*%
%FSLAX45Y45*%
G04 Gerber Fmt 4.5, Leading zero omitted, Abs format (unit mm)*
G04 Created by KiCad (PCBNEW 7.0.5.1-1-g8f565ef7f0-dirty-deb11) date 2023-08-09 17:10:44*
%MOMM*%
%LPD*%
G01*
G04 APERTURE LIST*
%ADD10C,0.150000*%
%ADD11C,0.200000*%
%ADD12C,0.040000*%
%ADD13C,0.075000*%
%ADD14C,0.080000*%
%ADD15C,0.090000*%
%ADD16C,0.100000*%
%ADD17C,0.100076*%
%ADD18C,0.110000*%
%ADD19C,0.125000*%
%ADD20C,0.140000*%
G04 APERTURE END LIST*
D10*
X14540000Y-10775000D02*
X14850000Y-10775000D01*
X13770000Y-10950000D02*
X14060000Y-10950000D01*
X12800000Y-14750000D02*
X12700000Y-14650000D01*
X11500000Y-13450000D02*
X11500000Y-12100000D01*
X13535000Y-10975000D02*
X11650000Y-10975000D01*
X14540000Y-10950000D02*
X14800000Y-10950000D01*
X14875000Y-6250000D02*
X14875000Y-5200000D01*
X12700000Y-14650000D02*
X11500000Y-13450000D01*
X11500000Y-5700000D02*
X11500000Y-10825000D01*
X16900000Y-14100000D02*
X15800000Y-15200000D01*
X13350000Y-15100000D02*
X13350000Y-14850000D01*
X14975000Y-11125000D02*
X16475000Y-11125000D01*
X14850000Y-10775000D02*
X15050000Y-10975000D01*
X16550000Y-5200000D02*
X17050000Y-5700000D01*
X16900000Y-10975000D02*
X17050000Y-10825000D01*
X16900000Y-13350000D02*
X17050000Y-13200000D01*
X11650000Y-10975000D02*
X11500000Y-10825000D01*
X14060000Y-10775000D02*
X14060000Y-10950000D01*
X13735000Y-10775000D02*
X13535000Y-10975000D01*
X11500000Y-5700000D02*
X12000000Y-5200000D01*
X17050000Y-8500000D02*
X17050000Y-5700000D01*
X13675000Y-6250000D02*
X14875000Y-6250000D01*
X13675000Y-5200000D02*
X12000000Y-5200000D01*
X17050000Y-11275000D02*
X16900000Y-11125000D01*
X13595000Y-11125000D02*
X11700000Y-11125000D01*
X13450000Y-15200000D02*
X15800000Y-15200000D01*
X11650000Y-10975000D02*
X11650000Y-10975000D01*
X13770000Y-10950000D02*
X13595000Y-11125000D01*
X16900000Y-13350000D02*
X16900000Y-14100000D01*
X17050000Y-10825000D02*
X17050000Y-8500000D01*
X13675000Y-5200000D02*
X13675000Y-6250000D01*
X13450000Y-15200000D02*
X13350000Y-15100000D01*
X13350000Y-14850000D02*
X13250000Y-14750000D01*
X14167000Y-10776000D02*
X14429000Y-10776000D01*
X14429000Y-10949000D01*
X14167000Y-10949000D01*
X14167000Y-10776000D01*
X11500000Y-11275000D02*
X11500000Y-12100000D01*
X14875000Y-5200000D02*
X16550000Y-5200000D01*
X13250000Y-14750000D02*
X12850000Y-14750000D01*
X14540000Y-10775000D02*
X14540000Y-10950000D01*
X16900000Y-11125000D02*
X16475000Y-11125000D01*
X11650000Y-11125000D02*
X11500000Y-11275000D01*
X14800000Y-10950000D02*
X14975000Y-11125000D01*
X17050000Y-13200000D02*
X17050000Y-11275000D01*
X12850000Y-14750000D02*
X12800000Y-14750000D01*
X13735000Y-10775000D02*
X14060000Y-10775000D01*
X15050000Y-10975000D02*
X16900000Y-10975000D01*
X11700000Y-11125000D02*
X11650000Y-11125000D01*
D11*
D12*
X12451000Y-10650000D02*
X12491000Y-10690000D01*
X12491000Y-10650000D02*
X12451000Y-10690000D01*
X13471000Y-9410000D02*
X13511000Y-9450000D01*
X13511000Y-9410000D02*
X13471000Y-9450000D01*
X13601000Y-9100000D02*
X13641000Y-9140000D01*
X13641000Y-9100000D02*
X13601000Y-9140000D01*
X14001000Y-8610000D02*
X14041000Y-8650000D01*
X14041000Y-8610000D02*
X14001000Y-8650000D01*
X14011000Y-9100000D02*
X14051000Y-9140000D01*
X14051000Y-9100000D02*
X14011000Y-9140000D01*
X14431000Y-10130000D02*
X14471000Y-10170000D01*
X14471000Y-10130000D02*
X14431000Y-10170000D01*
X14491000Y-10380000D02*
X14531000Y-10420000D01*
X14531000Y-10380000D02*
X14491000Y-10420000D01*
X14551000Y-9820000D02*
X14591000Y-9860000D01*
X14591000Y-9820000D02*
X14551000Y-9860000D01*
X14851000Y-10050000D02*
X14891000Y-10090000D01*
X14891000Y-10050000D02*
X14851000Y-10090000D01*
X14941000Y-10760000D02*
X14981000Y-10800000D01*
X14981000Y-10760000D02*
X14941000Y-10800000D01*
X15191000Y-9670000D02*
X15231000Y-9710000D01*
X15231000Y-9670000D02*
X15191000Y-9710000D01*
X15441000Y-10870000D02*
X15481000Y-10910000D01*
X15481000Y-10870000D02*
X15441000Y-10910000D01*
X15476000Y-9755000D02*
X15516000Y-9795000D01*
X15516000Y-9755000D02*
X15476000Y-9795000D01*
D13*
X12638500Y-10330000D02*
G75*
G03*
X12638500Y-10330000I-37500J0D01*
G01*
X12765500Y-10203000D02*
G75*
G03*
X12765500Y-10203000I-37500J0D01*
G01*
X12765500Y-10457000D02*
G75*
G03*
X12765500Y-10457000I-37500J0D01*
G01*
X15459500Y-10505000D02*
G75*
G03*
X15459500Y-10505000I-37500J0D01*
G01*
X15586500Y-10632000D02*
G75*
G03*
X15586500Y-10632000I-37500J0D01*
G01*
X15713500Y-10505000D02*
G75*
G03*
X15713500Y-10505000I-37500J0D01*
G01*
D14*
X12731000Y-9065265D02*
X12731000Y-9145265D01*
X12691000Y-9105265D02*
X12771000Y-9105265D01*
X12731000Y-9315265D02*
X12731000Y-9395265D01*
X12691000Y-9355265D02*
X12771000Y-9355265D01*
X16105000Y-13460000D02*
X16105000Y-13540000D01*
X16065000Y-13500000D02*
X16145000Y-13500000D01*
X16200000Y-13980000D02*
X16200000Y-14060000D01*
X16160000Y-14020000D02*
X16240000Y-14020000D01*
X16200000Y-14230000D02*
X16200000Y-14310000D01*
X16160000Y-14270000D02*
X16240000Y-14270000D01*
X16271000Y-10350000D02*
X16271000Y-10430000D01*
X16231000Y-10390000D02*
X16311000Y-10390000D01*
X16271000Y-10600000D02*
X16271000Y-10680000D01*
X16231000Y-10640000D02*
X16311000Y-10640000D01*
X16605000Y-13460000D02*
X16605000Y-13540000D01*
X16565000Y-13500000D02*
X16645000Y-13500000D01*
D15*
X15082820Y-9075320D02*
X15082820Y-9011680D01*
X15019180Y-9011680D01*
X15019180Y-9075320D01*
X15082820Y-9075320D01*
X15082820Y-9329320D02*
X15082820Y-9265680D01*
X15019180Y-9265680D01*
X15019180Y-9329320D01*
X15082820Y-9329320D01*
X15542820Y-9074320D02*
X15542820Y-9010680D01*
X15479180Y-9010680D01*
X15479180Y-9074320D01*
X15542820Y-9074320D01*
X15542820Y-9328320D02*
X15542820Y-9264680D01*
X15479180Y-9264680D01*
X15479180Y-9328320D01*
X15542820Y-9328320D01*
D16*
X13451000Y-5550000D02*
X13501000Y-5500000D01*
X13451000Y-5450000D01*
X13401000Y-5500000D01*
X13451000Y-5550000D01*
X13451000Y-5804000D02*
X13501000Y-5754000D01*
X13451000Y-5704000D01*
X13401000Y-5754000D01*
X13451000Y-5804000D01*
X13795000Y-13832500D02*
X13845000Y-13782500D01*
X13795000Y-13732500D01*
X13745000Y-13782500D01*
X13795000Y-13832500D01*
D11*
X13857500Y-13732500D02*
X13732500Y-13732500D01*
X13732500Y-13732500D02*
G75*
G03*
X13732500Y-13832500I0J-50000D01*
G01*
X13732500Y-13832500D02*
X13857500Y-13832500D01*
X13857500Y-13832500D02*
G75*
G03*
X13857500Y-13732500I0J50000D01*
G01*
D16*
X13795000Y-14302500D02*
X13845000Y-14252500D01*
X13795000Y-14202500D01*
X13745000Y-14252500D01*
X13795000Y-14302500D01*
D11*
X13857500Y-14202500D02*
X13732500Y-14202500D01*
X13732500Y-14202500D02*
G75*
G03*
X13732500Y-14302500I0J-50000D01*
G01*
X13732500Y-14302500D02*
X13857500Y-14302500D01*
X13857500Y-14302500D02*
G75*
G03*
X13857500Y-14202500I0J50000D01*
G01*
D16*
X13795000Y-14772500D02*
X13845000Y-14722500D01*
X13795000Y-14672500D01*
X13745000Y-14722500D01*
X13795000Y-14772500D01*
D11*
X13857500Y-14672500D02*
X13732500Y-14672500D01*
X13732500Y-14672500D02*
G75*
G03*
X13732500Y-14772500I0J-50000D01*
G01*
X13732500Y-14772500D02*
X13857500Y-14772500D01*
X13857500Y-14772500D02*
G75*
G03*
X13857500Y-14672500I0J50000D01*
G01*
D16*
X13908000Y-10630000D02*
X13958000Y-10580000D01*
X13908000Y-10530000D01*
X13858000Y-10580000D01*
X13908000Y-10630000D01*
X13908000Y-11185000D02*
X13958000Y-11135000D01*
X13908000Y-11085000D01*
X13858000Y-11135000D01*
X13908000Y-11185000D01*
X14160000Y-11731000D02*
X14210000Y-11681000D01*
X14160000Y-11631000D01*
X14110000Y-11681000D01*
X14160000Y-11731000D01*
X14162000Y-10630000D02*
X14212000Y-10580000D01*
X14162000Y-10530000D01*
X14112000Y-10580000D01*
X14162000Y-10630000D01*
X14162000Y-11185000D02*
X14212000Y-11135000D01*
X14162000Y-11085000D01*
X14112000Y-11135000D01*
X14162000Y-11185000D01*
X14325000Y-13832500D02*
X14375000Y-13782500D01*
X14325000Y-13732500D01*
X14275000Y-13782500D01*
X14325000Y-13832500D01*
D11*
X14387500Y-13732500D02*
X14262500Y-13732500D01*
X14262500Y-13732500D02*
G75*
G03*
X14262500Y-13832500I0J-50000D01*
G01*
X14262500Y-13832500D02*
X14387500Y-13832500D01*
X14387500Y-13832500D02*
G75*
G03*
X14387500Y-13732500I0J50000D01*
G01*
D16*
X14325000Y-14305000D02*
X14375000Y-14255000D01*
X14325000Y-14205000D01*
X14275000Y-14255000D01*
X14325000Y-14305000D01*
D11*
X14387500Y-14205000D02*
X14262500Y-14205000D01*
X14262500Y-14205000D02*
G75*
G03*
X14262500Y-14305000I0J-50000D01*
G01*
X14262500Y-14305000D02*
X14387500Y-14305000D01*
X14387500Y-14305000D02*
G75*
G03*
X14387500Y-14205000I0J50000D01*
G01*
D16*
X14325000Y-14772500D02*
X14375000Y-14722500D01*
X14325000Y-14672500D01*
X14275000Y-14722500D01*
X14325000Y-14772500D01*
D11*
X14387500Y-14672500D02*
X14262500Y-14672500D01*
X14262500Y-14672500D02*
G75*
G03*
X14262500Y-14772500I0J-50000D01*
G01*
X14262500Y-14772500D02*
X14387500Y-14772500D01*
X14387500Y-14772500D02*
G75*
G03*
X14387500Y-14672500I0J50000D01*
G01*
D16*
X14414000Y-11731000D02*
X14464000Y-11681000D01*
X14414000Y-11631000D01*
X14364000Y-11681000D01*
X14414000Y-11731000D01*
X14416000Y-10630000D02*
X14466000Y-10580000D01*
X14416000Y-10530000D01*
X14366000Y-10580000D01*
X14416000Y-10630000D01*
X14416000Y-11185000D02*
X14466000Y-11135000D01*
X14416000Y-11085000D01*
X14366000Y-11135000D01*
X14416000Y-11185000D01*
X14670000Y-10630000D02*
X14720000Y-10580000D01*
X14670000Y-10530000D01*
X14620000Y-10580000D01*
X14670000Y-10630000D01*
X14670000Y-11185000D02*
X14720000Y-11135000D01*
X14670000Y-11085000D01*
X14620000Y-11135000D01*
X14670000Y-11185000D01*
X14855000Y-13832500D02*
X14905000Y-13782500D01*
X14855000Y-13732500D01*
X14805000Y-13782500D01*
X14855000Y-13832500D01*
D11*
X14917500Y-13732500D02*
X14792500Y-13732500D01*
X14792500Y-13732500D02*
G75*
G03*
X14792500Y-13832500I0J-50000D01*
G01*
X14792500Y-13832500D02*
X14917500Y-13832500D01*
X14917500Y-13832500D02*
G75*
G03*
X14917500Y-13732500I0J50000D01*
G01*
D16*
X14855000Y-14302500D02*
X14905000Y-14252500D01*
X14855000Y-14202500D01*
X14805000Y-14252500D01*
X14855000Y-14302500D01*
D11*
X14917500Y-14202500D02*
X14792500Y-14202500D01*
X14792500Y-14202500D02*
G75*
G03*
X14792500Y-14302500I0J-50000D01*
G01*
X14792500Y-14302500D02*
X14917500Y-14302500D01*
X14917500Y-14302500D02*
G75*
G03*
X14917500Y-14202500I0J50000D01*
G01*
D16*
X14855000Y-14772500D02*
X14905000Y-14722500D01*
X14855000Y-14672500D01*
X14805000Y-14722500D01*
X14855000Y-14772500D01*
D11*
X14917500Y-14672500D02*
X14792500Y-14672500D01*
X14792500Y-14672500D02*
G75*
G03*
X14792500Y-14772500I0J-50000D01*
G01*
X14792500Y-14772500D02*
X14917500Y-14772500D01*
X14917500Y-14772500D02*
G75*
G03*
X14917500Y-14672500I0J50000D01*
G01*
D17*
X12199962Y-13449962D02*
X12300038Y-13550038D01*
X12300038Y-13449962D02*
X12199962Y-13550038D01*
X12300038Y-13500000D02*
G75*
G03*
X12300038Y-13500000I-50038J0D01*
G01*
X12199962Y-13703962D02*
X12300038Y-13804038D01*
X12300038Y-13703962D02*
X12199962Y-13804038D01*
X12300038Y-13754000D02*
G75*
G03*
X12300038Y-13754000I-50038J0D01*
G01*
X12725962Y-13447962D02*
X12826038Y-13548038D01*
X12826038Y-13447962D02*
X12725962Y-13548038D01*
X12826038Y-13498000D02*
G75*
G03*
X12826038Y-13498000I-50038J0D01*
G01*
X12725962Y-14209962D02*
X12826038Y-14310038D01*
X12826038Y-14209962D02*
X12725962Y-14310038D01*
X12826038Y-14260000D02*
G75*
G03*
X12826038Y-14260000I-50038J0D01*
G01*
X13050962Y-13449962D02*
X13151038Y-13550038D01*
X13151038Y-13449962D02*
X13050962Y-13550038D01*
X13151038Y-13500000D02*
G75*
G03*
X13151038Y-13500000I-50038J0D01*
G01*
X13050962Y-14211962D02*
X13151038Y-14312038D01*
X13151038Y-14211962D02*
X13050962Y-14312038D01*
X13151038Y-14262000D02*
G75*
G03*
X13151038Y-14262000I-50038J0D01*
G01*
X15499962Y-13449962D02*
X15600038Y-13550038D01*
X15600038Y-13449962D02*
X15499962Y-13550038D01*
X15600038Y-13500000D02*
G75*
G03*
X15600038Y-13500000I-50038J0D01*
G01*
X15499962Y-14211962D02*
X15600038Y-14312038D01*
X15600038Y-14211962D02*
X15499962Y-14312038D01*
X15600038Y-14262000D02*
G75*
G03*
X15600038Y-14262000I-50038J0D01*
G01*
D18*
X11946000Y-7589583D02*
X12056000Y-7699583D01*
X12056000Y-7589583D02*
X11946000Y-7699583D01*
X12001000Y-7589583D02*
X12001000Y-7699583D01*
X11946000Y-7644583D02*
X12056000Y-7644583D01*
X11946000Y-7885417D02*
X12056000Y-7995417D01*
X12056000Y-7885417D02*
X11946000Y-7995417D01*
X12001000Y-7885417D02*
X12001000Y-7995417D01*
X11946000Y-7940417D02*
X12056000Y-7940417D01*
X12016000Y-9077000D02*
X12126000Y-9187000D01*
X12126000Y-9077000D02*
X12016000Y-9187000D01*
X12071000Y-9077000D02*
X12071000Y-9187000D01*
X12016000Y-9132000D02*
X12126000Y-9132000D01*
X12016000Y-10093000D02*
X12126000Y-10203000D01*
X12126000Y-10093000D02*
X12016000Y-10203000D01*
X12071000Y-10093000D02*
X12071000Y-10203000D01*
X12016000Y-10148000D02*
X12126000Y-10148000D01*
X12446000Y-7589583D02*
X12556000Y-7699583D01*
X12556000Y-7589583D02*
X12446000Y-7699583D01*
X12501000Y-7589583D02*
X12501000Y-7699583D01*
X12446000Y-7644583D02*
X12556000Y-7644583D01*
X12446000Y-7885417D02*
X12556000Y-7995417D01*
X12556000Y-7885417D02*
X12446000Y-7995417D01*
X12501000Y-7885417D02*
X12501000Y-7995417D01*
X12446000Y-7940417D02*
X12556000Y-7940417D01*
X12946000Y-7589583D02*
X13056000Y-7699583D01*
X13056000Y-7589583D02*
X12946000Y-7699583D01*
X13001000Y-7589583D02*
X13001000Y-7699583D01*
X12946000Y-7644583D02*
X13056000Y-7644583D01*
X12946000Y-7885417D02*
X13056000Y-7995417D01*
X13056000Y-7885417D02*
X12946000Y-7995417D01*
X13001000Y-7885417D02*
X13001000Y-7995417D01*
X12946000Y-7940417D02*
X13056000Y-7940417D01*
X15496000Y-7600000D02*
X15606000Y-7710000D01*
X15606000Y-7600000D02*
X15496000Y-7710000D01*
X15551000Y-7600000D02*
X15551000Y-7710000D01*
X15496000Y-7655000D02*
X15606000Y-7655000D01*
X15496000Y-7860417D02*
X15606000Y-7970417D01*
X15606000Y-7860417D02*
X15496000Y-7970417D01*
X15551000Y-7860417D02*
X15551000Y-7970417D01*
X15496000Y-7915417D02*
X15606000Y-7915417D01*
X15996000Y-7600000D02*
X16106000Y-7710000D01*
X16106000Y-7600000D02*
X15996000Y-7710000D01*
X16051000Y-7600000D02*
X16051000Y-7710000D01*
X15996000Y-7655000D02*
X16106000Y-7655000D01*
X15996000Y-7860417D02*
X16106000Y-7970417D01*
X16106000Y-7860417D02*
X15996000Y-7970417D01*
X16051000Y-7860417D02*
X16051000Y-7970417D01*
X15996000Y-7915417D02*
X16106000Y-7915417D01*
X16496000Y-7600000D02*
X16606000Y-7710000D01*
X16606000Y-7600000D02*
X16496000Y-7710000D01*
X16551000Y-7600000D02*
X16551000Y-7710000D01*
X16496000Y-7655000D02*
X16606000Y-7655000D01*
X16496000Y-7860417D02*
X16606000Y-7970417D01*
X16606000Y-7860417D02*
X16496000Y-7970417D01*
X16551000Y-7860417D02*
X16551000Y-7970417D01*
X16496000Y-7915417D02*
X16606000Y-7915417D01*
D19*
X14208500Y-7287500D02*
X14333500Y-7412500D01*
X14333500Y-7287500D02*
X14208500Y-7412500D01*
X14315195Y-7394195D02*
X14315195Y-7305805D01*
X14226805Y-7305805D01*
X14226805Y-7394195D01*
X14315195Y-7394195D01*
D11*
X14208500Y-7412500D02*
X14333500Y-7412500D01*
X14333500Y-7412500D02*
G75*
G03*
X14333500Y-7287500I0J62500D01*
G01*
X14333500Y-7287500D02*
X14208500Y-7287500D01*
X14208500Y-7287500D02*
G75*
G03*
X14208500Y-7412500I0J-62500D01*
G01*
D19*
X14208500Y-7732500D02*
X14333500Y-7857500D01*
X14333500Y-7732500D02*
X14208500Y-7857500D01*
X14315195Y-7839195D02*
X14315195Y-7750805D01*
X14226805Y-7750805D01*
X14226805Y-7839195D01*
X14315195Y-7839195D01*
D11*
X14208500Y-7857500D02*
X14333500Y-7857500D01*
X14333500Y-7857500D02*
G75*
G03*
X14333500Y-7732500I0J62500D01*
G01*
X14333500Y-7732500D02*
X14208500Y-7732500D01*
X14208500Y-7732500D02*
G75*
G03*
X14208500Y-7857500I0J-62500D01*
G01*
D19*
X14208500Y-8177500D02*
X14333500Y-8302500D01*
X14333500Y-8177500D02*
X14208500Y-8302500D01*
X14315195Y-8284195D02*
X14315195Y-8195805D01*
X14226805Y-8195805D01*
X14226805Y-8284195D01*
X14315195Y-8284195D01*
D11*
X14208500Y-8302500D02*
X14333500Y-8302500D01*
X14333500Y-8302500D02*
G75*
G03*
X14333500Y-8177500I0J62500D01*
G01*
X14333500Y-8177500D02*
X14208500Y-8177500D01*
X14208500Y-8177500D02*
G75*
G03*
X14208500Y-8302500I0J-62500D01*
G01*
D20*
X12161000Y-11380000D02*
X12301000Y-11520000D01*
X12301000Y-11380000D02*
X12161000Y-11520000D01*
X12231000Y-11520000D02*
X12301000Y-11450000D01*
X12231000Y-11380000D01*
X12161000Y-11450000D01*
X12231000Y-11520000D01*
X12161000Y-13003000D02*
X12301000Y-13143000D01*
X12301000Y-13003000D02*
X12161000Y-13143000D01*
X12231000Y-13143000D02*
X12301000Y-13073000D01*
X12231000Y-13003000D01*
X12161000Y-13073000D01*
X12231000Y-13143000D01*
X12796000Y-11380000D02*
X12936000Y-11520000D01*
X12936000Y-11380000D02*
X12796000Y-11520000D01*
X12866000Y-11520000D02*
X12936000Y-11450000D01*
X12866000Y-11380000D01*
X12796000Y-11450000D01*
X12866000Y-11520000D01*
X12796000Y-13003000D02*
X12936000Y-13143000D01*
X12936000Y-13003000D02*
X12796000Y-13143000D01*
X12866000Y-13143000D02*
X12936000Y-13073000D01*
X12866000Y-13003000D01*
X12796000Y-13073000D01*
X12866000Y-13143000D01*
X13431000Y-11380000D02*
X13571000Y-11520000D01*
X13571000Y-11380000D02*
X13431000Y-11520000D01*
X13501000Y-11520000D02*
X13571000Y-11450000D01*
X13501000Y-11380000D01*
X13431000Y-11450000D01*
X13501000Y-11520000D01*
X13431000Y-13003000D02*
X13571000Y-13143000D01*
X13571000Y-13003000D02*
X13431000Y-13143000D01*
X13501000Y-13143000D02*
X13571000Y-13073000D01*
X13501000Y-13003000D01*
X13431000Y-13073000D01*
X13501000Y-13143000D01*
X14987500Y-11380000D02*
X15127500Y-11520000D01*
X15127500Y-11380000D02*
X14987500Y-11520000D01*
X15057500Y-11520000D02*
X15127500Y-11450000D01*
X15057500Y-11380000D01*
X14987500Y-11450000D01*
X15057500Y-11520000D01*
X14987500Y-13003000D02*
X15127500Y-13143000D01*
X15127500Y-13003000D02*
X14987500Y-13143000D01*
X15057500Y-13143000D02*
X15127500Y-13073000D01*
X15057500Y-13003000D01*
X14987500Y-13073000D01*
X15057500Y-13143000D01*
X15622500Y-11380000D02*
X15762500Y-11520000D01*
X15762500Y-11380000D02*
X15622500Y-11520000D01*
X15692500Y-11520000D02*
X15762500Y-11450000D01*
X15692500Y-11380000D01*
X15622500Y-11450000D01*
X15692500Y-11520000D01*
X15622500Y-13003000D02*
X15762500Y-13143000D01*
X15762500Y-13003000D02*
X15622500Y-13143000D01*
X15692500Y-13143000D02*
X15762500Y-13073000D01*
X15692500Y-13003000D01*
X15622500Y-13073000D01*
X15692500Y-13143000D01*
X16257500Y-11380000D02*
X16397500Y-11520000D01*
X16397500Y-11380000D02*
X16257500Y-11520000D01*
X16327500Y-11520000D02*
X16397500Y-11450000D01*
X16327500Y-11380000D01*
X16257500Y-11450000D01*
X16327500Y-11520000D01*
X16257500Y-13003000D02*
X16397500Y-13143000D01*
X16397500Y-13003000D02*
X16257500Y-13143000D01*
X16327500Y-13143000D02*
X16397500Y-13073000D01*
X16327500Y-13003000D01*
X16257500Y-13073000D01*
X16327500Y-13143000D01*
D11*
X11753277Y-15518984D02*
X11753277Y-15318984D01*
X11753277Y-15318984D02*
X11800896Y-15318984D01*
X11800896Y-15318984D02*
X11829467Y-15328508D01*
X11829467Y-15328508D02*
X11848515Y-15347555D01*
X11848515Y-15347555D02*
X11858039Y-15366603D01*
X11858039Y-15366603D02*
X11867562Y-15404698D01*
X11867562Y-15404698D02*
X11867562Y-15433269D01*
X11867562Y-15433269D02*
X11858039Y-15471365D01*
X11858039Y-15471365D02*
X11848515Y-15490412D01*
X11848515Y-15490412D02*
X11829467Y-15509460D01*
X11829467Y-15509460D02*
X11800896Y-15518984D01*
X11800896Y-15518984D02*
X11753277Y-15518984D01*
X11953277Y-15518984D02*
X11953277Y-15385650D01*
X11953277Y-15423746D02*
X11962801Y-15404698D01*
X11962801Y-15404698D02*
X11972324Y-15395174D01*
X11972324Y-15395174D02*
X11991372Y-15385650D01*
X11991372Y-15385650D02*
X12010420Y-15385650D01*
X12077086Y-15518984D02*
X12077086Y-15385650D01*
X12077086Y-15318984D02*
X12067562Y-15328508D01*
X12067562Y-15328508D02*
X12077086Y-15338031D01*
X12077086Y-15338031D02*
X12086610Y-15328508D01*
X12086610Y-15328508D02*
X12077086Y-15318984D01*
X12077086Y-15318984D02*
X12077086Y-15338031D01*
X12200896Y-15518984D02*
X12181848Y-15509460D01*
X12181848Y-15509460D02*
X12172324Y-15490412D01*
X12172324Y-15490412D02*
X12172324Y-15318984D01*
X12305658Y-15518984D02*
X12286610Y-15509460D01*
X12286610Y-15509460D02*
X12277086Y-15490412D01*
X12277086Y-15490412D02*
X12277086Y-15318984D01*
X12534229Y-15518984D02*
X12534229Y-15318984D01*
X12534229Y-15318984D02*
X12600896Y-15461841D01*
X12600896Y-15461841D02*
X12667562Y-15318984D01*
X12667562Y-15318984D02*
X12667562Y-15518984D01*
X12848515Y-15518984D02*
X12848515Y-15414222D01*
X12848515Y-15414222D02*
X12838991Y-15395174D01*
X12838991Y-15395174D02*
X12819943Y-15385650D01*
X12819943Y-15385650D02*
X12781848Y-15385650D01*
X12781848Y-15385650D02*
X12762801Y-15395174D01*
X12848515Y-15509460D02*
X12829467Y-15518984D01*
X12829467Y-15518984D02*
X12781848Y-15518984D01*
X12781848Y-15518984D02*
X12762801Y-15509460D01*
X12762801Y-15509460D02*
X12753277Y-15490412D01*
X12753277Y-15490412D02*
X12753277Y-15471365D01*
X12753277Y-15471365D02*
X12762801Y-15452317D01*
X12762801Y-15452317D02*
X12781848Y-15442793D01*
X12781848Y-15442793D02*
X12829467Y-15442793D01*
X12829467Y-15442793D02*
X12848515Y-15433269D01*
X12943753Y-15385650D02*
X12943753Y-15585650D01*
X12943753Y-15395174D02*
X12962801Y-15385650D01*
X12962801Y-15385650D02*
X13000896Y-15385650D01*
X13000896Y-15385650D02*
X13019943Y-15395174D01*
X13019943Y-15395174D02*
X13029467Y-15404698D01*
X13029467Y-15404698D02*
X13038991Y-15423746D01*
X13038991Y-15423746D02*
X13038991Y-15480888D01*
X13038991Y-15480888D02*
X13029467Y-15499936D01*
X13029467Y-15499936D02*
X13019943Y-15509460D01*
X13019943Y-15509460D02*
X13000896Y-15518984D01*
X13000896Y-15518984D02*
X12962801Y-15518984D01*
X12962801Y-15518984D02*
X12943753Y-15509460D01*
X13124705Y-15499936D02*
X13134229Y-15509460D01*
X13134229Y-15509460D02*
X13124705Y-15518984D01*
X13124705Y-15518984D02*
X13115182Y-15509460D01*
X13115182Y-15509460D02*
X13124705Y-15499936D01*
X13124705Y-15499936D02*
X13124705Y-15518984D01*
X13124705Y-15395174D02*
X13134229Y-15404698D01*
X13134229Y-15404698D02*
X13124705Y-15414222D01*
X13124705Y-15414222D02*
X13115182Y-15404698D01*
X13115182Y-15404698D02*
X13124705Y-15395174D01*
X13124705Y-15395174D02*
X13124705Y-15414222D01*
D12*
X11452500Y-15827500D02*
X11492500Y-15867500D01*
X11492500Y-15827500D02*
X11452500Y-15867500D01*
D11*
X11791372Y-15738984D02*
X11810420Y-15738984D01*
X11810420Y-15738984D02*
X11829467Y-15748508D01*
X11829467Y-15748508D02*
X11838991Y-15758031D01*
X11838991Y-15758031D02*
X11848515Y-15777079D01*
X11848515Y-15777079D02*
X11858039Y-15815174D01*
X11858039Y-15815174D02*
X11858039Y-15862793D01*
X11858039Y-15862793D02*
X11848515Y-15900888D01*
X11848515Y-15900888D02*
X11838991Y-15919936D01*
X11838991Y-15919936D02*
X11829467Y-15929460D01*
X11829467Y-15929460D02*
X11810420Y-15938984D01*
X11810420Y-15938984D02*
X11791372Y-15938984D01*
X11791372Y-15938984D02*
X11772324Y-15929460D01*
X11772324Y-15929460D02*
X11762801Y-15919936D01*
X11762801Y-15919936D02*
X11753277Y-15900888D01*
X11753277Y-15900888D02*
X11743753Y-15862793D01*
X11743753Y-15862793D02*
X11743753Y-15815174D01*
X11743753Y-15815174D02*
X11753277Y-15777079D01*
X11753277Y-15777079D02*
X11762801Y-15758031D01*
X11762801Y-15758031D02*
X11772324Y-15748508D01*
X11772324Y-15748508D02*
X11791372Y-15738984D01*
X11943753Y-15919936D02*
X11953277Y-15929460D01*
X11953277Y-15929460D02*
X11943753Y-15938984D01*
X11943753Y-15938984D02*
X11934229Y-15929460D01*
X11934229Y-15929460D02*
X11943753Y-15919936D01*
X11943753Y-15919936D02*
X11943753Y-15938984D01*
X12124705Y-15805650D02*
X12124705Y-15938984D01*
X12077086Y-15729460D02*
X12029467Y-15872317D01*
X12029467Y-15872317D02*
X12153277Y-15872317D01*
X12267562Y-15738984D02*
X12286610Y-15738984D01*
X12286610Y-15738984D02*
X12305658Y-15748508D01*
X12305658Y-15748508D02*
X12315182Y-15758031D01*
X12315182Y-15758031D02*
X12324705Y-15777079D01*
X12324705Y-15777079D02*
X12334229Y-15815174D01*
X12334229Y-15815174D02*
X12334229Y-15862793D01*
X12334229Y-15862793D02*
X12324705Y-15900888D01*
X12324705Y-15900888D02*
X12315182Y-15919936D01*
X12315182Y-15919936D02*
X12305658Y-15929460D01*
X12305658Y-15929460D02*
X12286610Y-15938984D01*
X12286610Y-15938984D02*
X12267562Y-15938984D01*
X12267562Y-15938984D02*
X12248515Y-15929460D01*
X12248515Y-15929460D02*
X12238991Y-15919936D01*
X12238991Y-15919936D02*
X12229467Y-15900888D01*
X12229467Y-15900888D02*
X12219943Y-15862793D01*
X12219943Y-15862793D02*
X12219943Y-15815174D01*
X12219943Y-15815174D02*
X12229467Y-15777079D01*
X12229467Y-15777079D02*
X12238991Y-15758031D01*
X12238991Y-15758031D02*
X12248515Y-15748508D01*
X12248515Y-15748508D02*
X12267562Y-15738984D01*
X12458039Y-15738984D02*
X12477086Y-15738984D01*
X12477086Y-15738984D02*
X12496134Y-15748508D01*
X12496134Y-15748508D02*
X12505658Y-15758031D01*
X12505658Y-15758031D02*
X12515182Y-15777079D01*
X12515182Y-15777079D02*
X12524705Y-15815174D01*
X12524705Y-15815174D02*
X12524705Y-15862793D01*
X12524705Y-15862793D02*
X12515182Y-15900888D01*
X12515182Y-15900888D02*
X12505658Y-15919936D01*
X12505658Y-15919936D02*
X12496134Y-15929460D01*
X12496134Y-15929460D02*
X12477086Y-15938984D01*
X12477086Y-15938984D02*
X12458039Y-15938984D01*
X12458039Y-15938984D02*
X12438991Y-15929460D01*
X12438991Y-15929460D02*
X12429467Y-15919936D01*
X12429467Y-15919936D02*
X12419943Y-15900888D01*
X12419943Y-15900888D02*
X12410420Y-15862793D01*
X12410420Y-15862793D02*
X12410420Y-15815174D01*
X12410420Y-15815174D02*
X12419943Y-15777079D01*
X12419943Y-15777079D02*
X12429467Y-15758031D01*
X12429467Y-15758031D02*
X12438991Y-15748508D01*
X12438991Y-15748508D02*
X12458039Y-15738984D01*
X12610420Y-15938984D02*
X12610420Y-15805650D01*
X12610420Y-15824698D02*
X12619943Y-15815174D01*
X12619943Y-15815174D02*
X12638991Y-15805650D01*
X12638991Y-15805650D02*
X12667563Y-15805650D01*
X12667563Y-15805650D02*
X12686610Y-15815174D01*
X12686610Y-15815174D02*
X12696134Y-15834222D01*
X12696134Y-15834222D02*
X12696134Y-15938984D01*
X12696134Y-15834222D02*
X12705658Y-15815174D01*
X12705658Y-15815174D02*
X12724705Y-15805650D01*
X12724705Y-15805650D02*
X12753277Y-15805650D01*
X12753277Y-15805650D02*
X12772324Y-15815174D01*
X12772324Y-15815174D02*
X12781848Y-15834222D01*
X12781848Y-15834222D02*
X12781848Y-15938984D01*
X12877086Y-15938984D02*
X12877086Y-15805650D01*
X12877086Y-15824698D02*
X12886610Y-15815174D01*
X12886610Y-15815174D02*
X12905658Y-15805650D01*
X12905658Y-15805650D02*
X12934229Y-15805650D01*
X12934229Y-15805650D02*
X12953277Y-15815174D01*
X12953277Y-15815174D02*
X12962801Y-15834222D01*
X12962801Y-15834222D02*
X12962801Y-15938984D01*
X12962801Y-15834222D02*
X12972324Y-15815174D01*
X12972324Y-15815174D02*
X12991372Y-15805650D01*
X12991372Y-15805650D02*
X13019943Y-15805650D01*
X13019943Y-15805650D02*
X13038991Y-15815174D01*
X13038991Y-15815174D02*
X13048515Y-15834222D01*
X13048515Y-15834222D02*
X13048515Y-15938984D01*
X13438991Y-15729460D02*
X13267563Y-15986603D01*
X13696134Y-15738984D02*
X13715182Y-15738984D01*
X13715182Y-15738984D02*
X13734229Y-15748508D01*
X13734229Y-15748508D02*
X13743753Y-15758031D01*
X13743753Y-15758031D02*
X13753277Y-15777079D01*
X13753277Y-15777079D02*
X13762801Y-15815174D01*
X13762801Y-15815174D02*
X13762801Y-15862793D01*
X13762801Y-15862793D02*
X13753277Y-15900888D01*
X13753277Y-15900888D02*
X13743753Y-15919936D01*
X13743753Y-15919936D02*
X13734229Y-15929460D01*
X13734229Y-15929460D02*
X13715182Y-15938984D01*
X13715182Y-15938984D02*
X13696134Y-15938984D01*
X13696134Y-15938984D02*
X13677086Y-15929460D01*
X13677086Y-15929460D02*
X13667563Y-15919936D01*
X13667563Y-15919936D02*
X13658039Y-15900888D01*
X13658039Y-15900888D02*
X13648515Y-15862793D01*
X13648515Y-15862793D02*
X13648515Y-15815174D01*
X13648515Y-15815174D02*
X13658039Y-15777079D01*
X13658039Y-15777079D02*
X13667563Y-15758031D01*
X13667563Y-15758031D02*
X13677086Y-15748508D01*
X13677086Y-15748508D02*
X13696134Y-15738984D01*
X13848515Y-15919936D02*
X13858039Y-15929460D01*
X13858039Y-15929460D02*
X13848515Y-15938984D01*
X13848515Y-15938984D02*
X13838991Y-15929460D01*
X13838991Y-15929460D02*
X13848515Y-15919936D01*
X13848515Y-15919936D02*
X13848515Y-15938984D01*
X13981848Y-15738984D02*
X14000896Y-15738984D01*
X14000896Y-15738984D02*
X14019944Y-15748508D01*
X14019944Y-15748508D02*
X14029467Y-15758031D01*
X14029467Y-15758031D02*
X14038991Y-15777079D01*
X14038991Y-15777079D02*
X14048515Y-15815174D01*
X14048515Y-15815174D02*
X14048515Y-15862793D01*
X14048515Y-15862793D02*
X14038991Y-15900888D01*
X14038991Y-15900888D02*
X14029467Y-15919936D01*
X14029467Y-15919936D02*
X14019944Y-15929460D01*
X14019944Y-15929460D02*
X14000896Y-15938984D01*
X14000896Y-15938984D02*
X13981848Y-15938984D01*
X13981848Y-15938984D02*
X13962801Y-15929460D01*
X13962801Y-15929460D02*
X13953277Y-15919936D01*
X13953277Y-15919936D02*
X13943753Y-15900888D01*
X13943753Y-15900888D02*
X13934229Y-15862793D01*
X13934229Y-15862793D02*
X13934229Y-15815174D01*
X13934229Y-15815174D02*
X13943753Y-15777079D01*
X13943753Y-15777079D02*
X13953277Y-15758031D01*
X13953277Y-15758031D02*
X13962801Y-15748508D01*
X13962801Y-15748508D02*
X13981848Y-15738984D01*
X14238991Y-15938984D02*
X14124706Y-15938984D01*
X14181848Y-15938984D02*
X14181848Y-15738984D01*
X14181848Y-15738984D02*
X14162801Y-15767555D01*
X14162801Y-15767555D02*
X14143753Y-15786603D01*
X14143753Y-15786603D02*
X14124706Y-15796127D01*
X14419944Y-15738984D02*
X14324706Y-15738984D01*
X14324706Y-15738984D02*
X14315182Y-15834222D01*
X14315182Y-15834222D02*
X14324706Y-15824698D01*
X14324706Y-15824698D02*
X14343753Y-15815174D01*
X14343753Y-15815174D02*
X14391372Y-15815174D01*
X14391372Y-15815174D02*
X14410420Y-15824698D01*
X14410420Y-15824698D02*
X14419944Y-15834222D01*
X14419944Y-15834222D02*
X14429467Y-15853269D01*
X14429467Y-15853269D02*
X14429467Y-15900888D01*
X14429467Y-15900888D02*
X14419944Y-15919936D01*
X14419944Y-15919936D02*
X14410420Y-15929460D01*
X14410420Y-15929460D02*
X14391372Y-15938984D01*
X14391372Y-15938984D02*
X14343753Y-15938984D01*
X14343753Y-15938984D02*
X14324706Y-15929460D01*
X14324706Y-15929460D02*
X14315182Y-15919936D01*
X14496134Y-15738984D02*
X14629467Y-15738984D01*
X14629467Y-15738984D02*
X14543753Y-15938984D01*
X14696134Y-15738984D02*
X14696134Y-15777079D01*
X14772325Y-15738984D02*
X14772325Y-15777079D01*
X15067563Y-16015174D02*
X15058039Y-16005650D01*
X15058039Y-16005650D02*
X15038991Y-15977079D01*
X15038991Y-15977079D02*
X15029468Y-15958031D01*
X15029468Y-15958031D02*
X15019944Y-15929460D01*
X15019944Y-15929460D02*
X15010420Y-15881841D01*
X15010420Y-15881841D02*
X15010420Y-15843746D01*
X15010420Y-15843746D02*
X15019944Y-15796127D01*
X15019944Y-15796127D02*
X15029468Y-15767555D01*
X15029468Y-15767555D02*
X15038991Y-15748508D01*
X15038991Y-15748508D02*
X15058039Y-15719936D01*
X15058039Y-15719936D02*
X15067563Y-15710412D01*
X15248515Y-15938984D02*
X15134229Y-15938984D01*
X15191372Y-15938984D02*
X15191372Y-15738984D01*
X15191372Y-15738984D02*
X15172325Y-15767555D01*
X15172325Y-15767555D02*
X15153277Y-15786603D01*
X15153277Y-15786603D02*
X15134229Y-15796127D01*
X15315182Y-15738984D02*
X15438991Y-15738984D01*
X15438991Y-15738984D02*
X15372325Y-15815174D01*
X15372325Y-15815174D02*
X15400896Y-15815174D01*
X15400896Y-15815174D02*
X15419944Y-15824698D01*
X15419944Y-15824698D02*
X15429468Y-15834222D01*
X15429468Y-15834222D02*
X15438991Y-15853269D01*
X15438991Y-15853269D02*
X15438991Y-15900888D01*
X15438991Y-15900888D02*
X15429468Y-15919936D01*
X15429468Y-15919936D02*
X15419944Y-15929460D01*
X15419944Y-15929460D02*
X15400896Y-15938984D01*
X15400896Y-15938984D02*
X15343753Y-15938984D01*
X15343753Y-15938984D02*
X15324706Y-15929460D01*
X15324706Y-15929460D02*
X15315182Y-15919936D01*
X15677087Y-15938984D02*
X15677087Y-15738984D01*
X15762801Y-15938984D02*
X15762801Y-15834222D01*
X15762801Y-15834222D02*
X15753277Y-15815174D01*
X15753277Y-15815174D02*
X15734230Y-15805650D01*
X15734230Y-15805650D02*
X15705658Y-15805650D01*
X15705658Y-15805650D02*
X15686610Y-15815174D01*
X15686610Y-15815174D02*
X15677087Y-15824698D01*
X15886610Y-15938984D02*
X15867563Y-15929460D01*
X15867563Y-15929460D02*
X15858039Y-15919936D01*
X15858039Y-15919936D02*
X15848515Y-15900888D01*
X15848515Y-15900888D02*
X15848515Y-15843746D01*
X15848515Y-15843746D02*
X15858039Y-15824698D01*
X15858039Y-15824698D02*
X15867563Y-15815174D01*
X15867563Y-15815174D02*
X15886610Y-15805650D01*
X15886610Y-15805650D02*
X15915182Y-15805650D01*
X15915182Y-15805650D02*
X15934230Y-15815174D01*
X15934230Y-15815174D02*
X15943753Y-15824698D01*
X15943753Y-15824698D02*
X15953277Y-15843746D01*
X15953277Y-15843746D02*
X15953277Y-15900888D01*
X15953277Y-15900888D02*
X15943753Y-15919936D01*
X15943753Y-15919936D02*
X15934230Y-15929460D01*
X15934230Y-15929460D02*
X15915182Y-15938984D01*
X15915182Y-15938984D02*
X15886610Y-15938984D01*
X16067563Y-15938984D02*
X16048515Y-15929460D01*
X16048515Y-15929460D02*
X16038991Y-15910412D01*
X16038991Y-15910412D02*
X16038991Y-15738984D01*
X16219944Y-15929460D02*
X16200896Y-15938984D01*
X16200896Y-15938984D02*
X16162801Y-15938984D01*
X16162801Y-15938984D02*
X16143753Y-15929460D01*
X16143753Y-15929460D02*
X16134230Y-15910412D01*
X16134230Y-15910412D02*
X16134230Y-15834222D01*
X16134230Y-15834222D02*
X16143753Y-15815174D01*
X16143753Y-15815174D02*
X16162801Y-15805650D01*
X16162801Y-15805650D02*
X16200896Y-15805650D01*
X16200896Y-15805650D02*
X16219944Y-15815174D01*
X16219944Y-15815174D02*
X16229468Y-15834222D01*
X16229468Y-15834222D02*
X16229468Y-15853269D01*
X16229468Y-15853269D02*
X16134230Y-15872317D01*
X16305658Y-15929460D02*
X16324706Y-15938984D01*
X16324706Y-15938984D02*
X16362801Y-15938984D01*
X16362801Y-15938984D02*
X16381849Y-15929460D01*
X16381849Y-15929460D02*
X16391372Y-15910412D01*
X16391372Y-15910412D02*
X16391372Y-15900888D01*
X16391372Y-15900888D02*
X16381849Y-15881841D01*
X16381849Y-15881841D02*
X16362801Y-15872317D01*
X16362801Y-15872317D02*
X16334230Y-15872317D01*
X16334230Y-15872317D02*
X16315182Y-15862793D01*
X16315182Y-15862793D02*
X16305658Y-15843746D01*
X16305658Y-15843746D02*
X16305658Y-15834222D01*
X16305658Y-15834222D02*
X16315182Y-15815174D01*
X16315182Y-15815174D02*
X16334230Y-15805650D01*
X16334230Y-15805650D02*
X16362801Y-15805650D01*
X16362801Y-15805650D02*
X16381849Y-15815174D01*
X16458039Y-16015174D02*
X16467563Y-16005650D01*
X16467563Y-16005650D02*
X16486611Y-15977079D01*
X16486611Y-15977079D02*
X16496134Y-15958031D01*
X16496134Y-15958031D02*
X16505658Y-15929460D01*
X16505658Y-15929460D02*
X16515182Y-15881841D01*
X16515182Y-15881841D02*
X16515182Y-15843746D01*
X16515182Y-15843746D02*
X16505658Y-15796127D01*
X16505658Y-15796127D02*
X16496134Y-15767555D01*
X16496134Y-15767555D02*
X16486611Y-15748508D01*
X16486611Y-15748508D02*
X16467563Y-15719936D01*
X16467563Y-15719936D02*
X16458039Y-15710412D01*
D13*
X11492500Y-16111500D02*
G75*
G03*
X11492500Y-16111500I-37500J0D01*
G01*
D11*
X11791372Y-16002984D02*
X11810420Y-16002984D01*
X11810420Y-16002984D02*
X11829467Y-16012508D01*
X11829467Y-16012508D02*
X11838991Y-16022031D01*
X11838991Y-16022031D02*
X11848515Y-16041079D01*
X11848515Y-16041079D02*
X11858039Y-16079174D01*
X11858039Y-16079174D02*
X11858039Y-16126793D01*
X11858039Y-16126793D02*
X11848515Y-16164888D01*
X11848515Y-16164888D02*
X11838991Y-16183936D01*
X11838991Y-16183936D02*
X11829467Y-16193460D01*
X11829467Y-16193460D02*
X11810420Y-16202984D01*
X11810420Y-16202984D02*
X11791372Y-16202984D01*
X11791372Y-16202984D02*
X11772324Y-16193460D01*
X11772324Y-16193460D02*
X11762801Y-16183936D01*
X11762801Y-16183936D02*
X11753277Y-16164888D01*
X11753277Y-16164888D02*
X11743753Y-16126793D01*
X11743753Y-16126793D02*
X11743753Y-16079174D01*
X11743753Y-16079174D02*
X11753277Y-16041079D01*
X11753277Y-16041079D02*
X11762801Y-16022031D01*
X11762801Y-16022031D02*
X11772324Y-16012508D01*
X11772324Y-16012508D02*
X11791372Y-16002984D01*
X11943753Y-16183936D02*
X11953277Y-16193460D01*
X11953277Y-16193460D02*
X11943753Y-16202984D01*
X11943753Y-16202984D02*
X11934229Y-16193460D01*
X11934229Y-16193460D02*
X11943753Y-16183936D01*
X11943753Y-16183936D02*
X11943753Y-16202984D01*
X12019943Y-16002984D02*
X12153277Y-16002984D01*
X12153277Y-16002984D02*
X12067562Y-16202984D01*
X12324705Y-16002984D02*
X12229467Y-16002984D01*
X12229467Y-16002984D02*
X12219943Y-16098222D01*
X12219943Y-16098222D02*
X12229467Y-16088698D01*
X12229467Y-16088698D02*
X12248515Y-16079174D01*
X12248515Y-16079174D02*
X12296134Y-16079174D01*
X12296134Y-16079174D02*
X12315182Y-16088698D01*
X12315182Y-16088698D02*
X12324705Y-16098222D01*
X12324705Y-16098222D02*
X12334229Y-16117269D01*
X12334229Y-16117269D02*
X12334229Y-16164888D01*
X12334229Y-16164888D02*
X12324705Y-16183936D01*
X12324705Y-16183936D02*
X12315182Y-16193460D01*
X12315182Y-16193460D02*
X12296134Y-16202984D01*
X12296134Y-16202984D02*
X12248515Y-16202984D01*
X12248515Y-16202984D02*
X12229467Y-16193460D01*
X12229467Y-16193460D02*
X12219943Y-16183936D01*
X12458039Y-16002984D02*
X12477086Y-16002984D01*
X12477086Y-16002984D02*
X12496134Y-16012508D01*
X12496134Y-16012508D02*
X12505658Y-16022031D01*
X12505658Y-16022031D02*
X12515182Y-16041079D01*
X12515182Y-16041079D02*
X12524705Y-16079174D01*
X12524705Y-16079174D02*
X12524705Y-16126793D01*
X12524705Y-16126793D02*
X12515182Y-16164888D01*
X12515182Y-16164888D02*
X12505658Y-16183936D01*
X12505658Y-16183936D02*
X12496134Y-16193460D01*
X12496134Y-16193460D02*
X12477086Y-16202984D01*
X12477086Y-16202984D02*
X12458039Y-16202984D01*
X12458039Y-16202984D02*
X12438991Y-16193460D01*
X12438991Y-16193460D02*
X12429467Y-16183936D01*
X12429467Y-16183936D02*
X12419943Y-16164888D01*
X12419943Y-16164888D02*
X12410420Y-16126793D01*
X12410420Y-16126793D02*
X12410420Y-16079174D01*
X12410420Y-16079174D02*
X12419943Y-16041079D01*
X12419943Y-16041079D02*
X12429467Y-16022031D01*
X12429467Y-16022031D02*
X12438991Y-16012508D01*
X12438991Y-16012508D02*
X12458039Y-16002984D01*
X12610420Y-16202984D02*
X12610420Y-16069650D01*
X12610420Y-16088698D02*
X12619943Y-16079174D01*
X12619943Y-16079174D02*
X12638991Y-16069650D01*
X12638991Y-16069650D02*
X12667563Y-16069650D01*
X12667563Y-16069650D02*
X12686610Y-16079174D01*
X12686610Y-16079174D02*
X12696134Y-16098222D01*
X12696134Y-16098222D02*
X12696134Y-16202984D01*
X12696134Y-16098222D02*
X12705658Y-16079174D01*
X12705658Y-16079174D02*
X12724705Y-16069650D01*
X12724705Y-16069650D02*
X12753277Y-16069650D01*
X12753277Y-16069650D02*
X12772324Y-16079174D01*
X12772324Y-16079174D02*
X12781848Y-16098222D01*
X12781848Y-16098222D02*
X12781848Y-16202984D01*
X12877086Y-16202984D02*
X12877086Y-16069650D01*
X12877086Y-16088698D02*
X12886610Y-16079174D01*
X12886610Y-16079174D02*
X12905658Y-16069650D01*
X12905658Y-16069650D02*
X12934229Y-16069650D01*
X12934229Y-16069650D02*
X12953277Y-16079174D01*
X12953277Y-16079174D02*
X12962801Y-16098222D01*
X12962801Y-16098222D02*
X12962801Y-16202984D01*
X12962801Y-16098222D02*
X12972324Y-16079174D01*
X12972324Y-16079174D02*
X12991372Y-16069650D01*
X12991372Y-16069650D02*
X13019943Y-16069650D01*
X13019943Y-16069650D02*
X13038991Y-16079174D01*
X13038991Y-16079174D02*
X13048515Y-16098222D01*
X13048515Y-16098222D02*
X13048515Y-16202984D01*
X13438991Y-15993460D02*
X13267563Y-16250603D01*
X13696134Y-16002984D02*
X13715182Y-16002984D01*
X13715182Y-16002984D02*
X13734229Y-16012508D01*
X13734229Y-16012508D02*
X13743753Y-16022031D01*
X13743753Y-16022031D02*
X13753277Y-16041079D01*
X13753277Y-16041079D02*
X13762801Y-16079174D01*
X13762801Y-16079174D02*
X13762801Y-16126793D01*
X13762801Y-16126793D02*
X13753277Y-16164888D01*
X13753277Y-16164888D02*
X13743753Y-16183936D01*
X13743753Y-16183936D02*
X13734229Y-16193460D01*
X13734229Y-16193460D02*
X13715182Y-16202984D01*
X13715182Y-16202984D02*
X13696134Y-16202984D01*
X13696134Y-16202984D02*
X13677086Y-16193460D01*
X13677086Y-16193460D02*
X13667563Y-16183936D01*
X13667563Y-16183936D02*
X13658039Y-16164888D01*
X13658039Y-16164888D02*
X13648515Y-16126793D01*
X13648515Y-16126793D02*
X13648515Y-16079174D01*
X13648515Y-16079174D02*
X13658039Y-16041079D01*
X13658039Y-16041079D02*
X13667563Y-16022031D01*
X13667563Y-16022031D02*
X13677086Y-16012508D01*
X13677086Y-16012508D02*
X13696134Y-16002984D01*
X13848515Y-16183936D02*
X13858039Y-16193460D01*
X13858039Y-16193460D02*
X13848515Y-16202984D01*
X13848515Y-16202984D02*
X13838991Y-16193460D01*
X13838991Y-16193460D02*
X13848515Y-16183936D01*
X13848515Y-16183936D02*
X13848515Y-16202984D01*
X13981848Y-16002984D02*
X14000896Y-16002984D01*
X14000896Y-16002984D02*
X14019944Y-16012508D01*
X14019944Y-16012508D02*
X14029467Y-16022031D01*
X14029467Y-16022031D02*
X14038991Y-16041079D01*
X14038991Y-16041079D02*
X14048515Y-16079174D01*
X14048515Y-16079174D02*
X14048515Y-16126793D01*
X14048515Y-16126793D02*
X14038991Y-16164888D01*
X14038991Y-16164888D02*
X14029467Y-16183936D01*
X14029467Y-16183936D02*
X14019944Y-16193460D01*
X14019944Y-16193460D02*
X14000896Y-16202984D01*
X14000896Y-16202984D02*
X13981848Y-16202984D01*
X13981848Y-16202984D02*
X13962801Y-16193460D01*
X13962801Y-16193460D02*
X13953277Y-16183936D01*
X13953277Y-16183936D02*
X13943753Y-16164888D01*
X13943753Y-16164888D02*
X13934229Y-16126793D01*
X13934229Y-16126793D02*
X13934229Y-16079174D01*
X13934229Y-16079174D02*
X13943753Y-16041079D01*
X13943753Y-16041079D02*
X13953277Y-16022031D01*
X13953277Y-16022031D02*
X13962801Y-16012508D01*
X13962801Y-16012508D02*
X13981848Y-16002984D01*
X14124706Y-16022031D02*
X14134229Y-16012508D01*
X14134229Y-16012508D02*
X14153277Y-16002984D01*
X14153277Y-16002984D02*
X14200896Y-16002984D01*
X14200896Y-16002984D02*
X14219944Y-16012508D01*
X14219944Y-16012508D02*
X14229467Y-16022031D01*
X14229467Y-16022031D02*
X14238991Y-16041079D01*
X14238991Y-16041079D02*
X14238991Y-16060127D01*
X14238991Y-16060127D02*
X14229467Y-16088698D01*
X14229467Y-16088698D02*
X14115182Y-16202984D01*
X14115182Y-16202984D02*
X14238991Y-16202984D01*
X14334229Y-16202984D02*
X14372325Y-16202984D01*
X14372325Y-16202984D02*
X14391372Y-16193460D01*
X14391372Y-16193460D02*
X14400896Y-16183936D01*
X14400896Y-16183936D02*
X14419944Y-16155365D01*
X14419944Y-16155365D02*
X14429467Y-16117269D01*
X14429467Y-16117269D02*
X14429467Y-16041079D01*
X14429467Y-16041079D02*
X14419944Y-16022031D01*
X14419944Y-16022031D02*
X14410420Y-16012508D01*
X14410420Y-16012508D02*
X14391372Y-16002984D01*
X14391372Y-16002984D02*
X14353277Y-16002984D01*
X14353277Y-16002984D02*
X14334229Y-16012508D01*
X14334229Y-16012508D02*
X14324706Y-16022031D01*
X14324706Y-16022031D02*
X14315182Y-16041079D01*
X14315182Y-16041079D02*
X14315182Y-16088698D01*
X14315182Y-16088698D02*
X14324706Y-16107746D01*
X14324706Y-16107746D02*
X14334229Y-16117269D01*
X14334229Y-16117269D02*
X14353277Y-16126793D01*
X14353277Y-16126793D02*
X14391372Y-16126793D01*
X14391372Y-16126793D02*
X14410420Y-16117269D01*
X14410420Y-16117269D02*
X14419944Y-16107746D01*
X14419944Y-16107746D02*
X14429467Y-16088698D01*
X14610420Y-16002984D02*
X14515182Y-16002984D01*
X14515182Y-16002984D02*
X14505658Y-16098222D01*
X14505658Y-16098222D02*
X14515182Y-16088698D01*
X14515182Y-16088698D02*
X14534229Y-16079174D01*
X14534229Y-16079174D02*
X14581848Y-16079174D01*
X14581848Y-16079174D02*
X14600896Y-16088698D01*
X14600896Y-16088698D02*
X14610420Y-16098222D01*
X14610420Y-16098222D02*
X14619944Y-16117269D01*
X14619944Y-16117269D02*
X14619944Y-16164888D01*
X14619944Y-16164888D02*
X14610420Y-16183936D01*
X14610420Y-16183936D02*
X14600896Y-16193460D01*
X14600896Y-16193460D02*
X14581848Y-16202984D01*
X14581848Y-16202984D02*
X14534229Y-16202984D01*
X14534229Y-16202984D02*
X14515182Y-16193460D01*
X14515182Y-16193460D02*
X14505658Y-16183936D01*
X14696134Y-16002984D02*
X14696134Y-16041079D01*
X14772325Y-16002984D02*
X14772325Y-16041079D01*
X15067563Y-16279174D02*
X15058039Y-16269650D01*
X15058039Y-16269650D02*
X15038991Y-16241079D01*
X15038991Y-16241079D02*
X15029468Y-16222031D01*
X15029468Y-16222031D02*
X15019944Y-16193460D01*
X15019944Y-16193460D02*
X15010420Y-16145841D01*
X15010420Y-16145841D02*
X15010420Y-16107746D01*
X15010420Y-16107746D02*
X15019944Y-16060127D01*
X15019944Y-16060127D02*
X15029468Y-16031555D01*
X15029468Y-16031555D02*
X15038991Y-16012508D01*
X15038991Y-16012508D02*
X15058039Y-15983936D01*
X15058039Y-15983936D02*
X15067563Y-15974412D01*
X15229468Y-16002984D02*
X15191372Y-16002984D01*
X15191372Y-16002984D02*
X15172325Y-16012508D01*
X15172325Y-16012508D02*
X15162801Y-16022031D01*
X15162801Y-16022031D02*
X15143753Y-16050603D01*
X15143753Y-16050603D02*
X15134229Y-16088698D01*
X15134229Y-16088698D02*
X15134229Y-16164888D01*
X15134229Y-16164888D02*
X15143753Y-16183936D01*
X15143753Y-16183936D02*
X15153277Y-16193460D01*
X15153277Y-16193460D02*
X15172325Y-16202984D01*
X15172325Y-16202984D02*
X15210420Y-16202984D01*
X15210420Y-16202984D02*
X15229468Y-16193460D01*
X15229468Y-16193460D02*
X15238991Y-16183936D01*
X15238991Y-16183936D02*
X15248515Y-16164888D01*
X15248515Y-16164888D02*
X15248515Y-16117269D01*
X15248515Y-16117269D02*
X15238991Y-16098222D01*
X15238991Y-16098222D02*
X15229468Y-16088698D01*
X15229468Y-16088698D02*
X15210420Y-16079174D01*
X15210420Y-16079174D02*
X15172325Y-16079174D01*
X15172325Y-16079174D02*
X15153277Y-16088698D01*
X15153277Y-16088698D02*
X15143753Y-16098222D01*
X15143753Y-16098222D02*
X15134229Y-16117269D01*
X15486610Y-16202984D02*
X15486610Y-16002984D01*
X15572325Y-16202984D02*
X15572325Y-16098222D01*
X15572325Y-16098222D02*
X15562801Y-16079174D01*
X15562801Y-16079174D02*
X15543753Y-16069650D01*
X15543753Y-16069650D02*
X15515182Y-16069650D01*
X15515182Y-16069650D02*
X15496134Y-16079174D01*
X15496134Y-16079174D02*
X15486610Y-16088698D01*
X15696134Y-16202984D02*
X15677087Y-16193460D01*
X15677087Y-16193460D02*
X15667563Y-16183936D01*
X15667563Y-16183936D02*
X15658039Y-16164888D01*
X15658039Y-16164888D02*
X15658039Y-16107746D01*
X15658039Y-16107746D02*
X15667563Y-16088698D01*
X15667563Y-16088698D02*
X15677087Y-16079174D01*
X15677087Y-16079174D02*
X15696134Y-16069650D01*
X15696134Y-16069650D02*
X15724706Y-16069650D01*
X15724706Y-16069650D02*
X15743753Y-16079174D01*
X15743753Y-16079174D02*
X15753277Y-16088698D01*
X15753277Y-16088698D02*
X15762801Y-16107746D01*
X15762801Y-16107746D02*
X15762801Y-16164888D01*
X15762801Y-16164888D02*
X15753277Y-16183936D01*
X15753277Y-16183936D02*
X15743753Y-16193460D01*
X15743753Y-16193460D02*
X15724706Y-16202984D01*
X15724706Y-16202984D02*
X15696134Y-16202984D01*
X15877087Y-16202984D02*
X15858039Y-16193460D01*
X15858039Y-16193460D02*
X15848515Y-16174412D01*
X15848515Y-16174412D02*
X15848515Y-16002984D01*
X16029468Y-16193460D02*
X16010420Y-16202984D01*
X16010420Y-16202984D02*
X15972325Y-16202984D01*
X15972325Y-16202984D02*
X15953277Y-16193460D01*
X15953277Y-16193460D02*
X15943753Y-16174412D01*
X15943753Y-16174412D02*
X15943753Y-16098222D01*
X15943753Y-16098222D02*
X15953277Y-16079174D01*
X15953277Y-16079174D02*
X15972325Y-16069650D01*
X15972325Y-16069650D02*
X16010420Y-16069650D01*
X16010420Y-16069650D02*
X16029468Y-16079174D01*
X16029468Y-16079174D02*
X16038991Y-16098222D01*
X16038991Y-16098222D02*
X16038991Y-16117269D01*
X16038991Y-16117269D02*
X15943753Y-16136317D01*
X16115182Y-16193460D02*
X16134230Y-16202984D01*
X16134230Y-16202984D02*
X16172325Y-16202984D01*
X16172325Y-16202984D02*
X16191372Y-16193460D01*
X16191372Y-16193460D02*
X16200896Y-16174412D01*
X16200896Y-16174412D02*
X16200896Y-16164888D01*
X16200896Y-16164888D02*
X16191372Y-16145841D01*
X16191372Y-16145841D02*
X16172325Y-16136317D01*
X16172325Y-16136317D02*
X16143753Y-16136317D01*
X16143753Y-16136317D02*
X16124706Y-16126793D01*
X16124706Y-16126793D02*
X16115182Y-16107746D01*
X16115182Y-16107746D02*
X16115182Y-16098222D01*
X16115182Y-16098222D02*
X16124706Y-16079174D01*
X16124706Y-16079174D02*
X16143753Y-16069650D01*
X16143753Y-16069650D02*
X16172325Y-16069650D01*
X16172325Y-16069650D02*
X16191372Y-16079174D01*
X16267563Y-16279174D02*
X16277087Y-16269650D01*
X16277087Y-16269650D02*
X16296134Y-16241079D01*
X16296134Y-16241079D02*
X16305658Y-16222031D01*
X16305658Y-16222031D02*
X16315182Y-16193460D01*
X16315182Y-16193460D02*
X16324706Y-16145841D01*
X16324706Y-16145841D02*
X16324706Y-16107746D01*
X16324706Y-16107746D02*
X16315182Y-16060127D01*
X16315182Y-16060127D02*
X16305658Y-16031555D01*
X16305658Y-16031555D02*
X16296134Y-16012508D01*
X16296134Y-16012508D02*
X16277087Y-15983936D01*
X16277087Y-15983936D02*
X16267563Y-15974412D01*
D14*
X11452500Y-16335500D02*
X11452500Y-16415500D01*
X11412500Y-16375500D02*
X11492500Y-16375500D01*
D11*
X11791372Y-16266984D02*
X11810420Y-16266984D01*
X11810420Y-16266984D02*
X11829467Y-16276508D01*
X11829467Y-16276508D02*
X11838991Y-16286031D01*
X11838991Y-16286031D02*
X11848515Y-16305079D01*
X11848515Y-16305079D02*
X11858039Y-16343174D01*
X11858039Y-16343174D02*
X11858039Y-16390793D01*
X11858039Y-16390793D02*
X11848515Y-16428888D01*
X11848515Y-16428888D02*
X11838991Y-16447936D01*
X11838991Y-16447936D02*
X11829467Y-16457460D01*
X11829467Y-16457460D02*
X11810420Y-16466984D01*
X11810420Y-16466984D02*
X11791372Y-16466984D01*
X11791372Y-16466984D02*
X11772324Y-16457460D01*
X11772324Y-16457460D02*
X11762801Y-16447936D01*
X11762801Y-16447936D02*
X11753277Y-16428888D01*
X11753277Y-16428888D02*
X11743753Y-16390793D01*
X11743753Y-16390793D02*
X11743753Y-16343174D01*
X11743753Y-16343174D02*
X11753277Y-16305079D01*
X11753277Y-16305079D02*
X11762801Y-16286031D01*
X11762801Y-16286031D02*
X11772324Y-16276508D01*
X11772324Y-16276508D02*
X11791372Y-16266984D01*
X11943753Y-16447936D02*
X11953277Y-16457460D01*
X11953277Y-16457460D02*
X11943753Y-16466984D01*
X11943753Y-16466984D02*
X11934229Y-16457460D01*
X11934229Y-16457460D02*
X11943753Y-16447936D01*
X11943753Y-16447936D02*
X11943753Y-16466984D01*
X12067562Y-16352698D02*
X12048515Y-16343174D01*
X12048515Y-16343174D02*
X12038991Y-16333650D01*
X12038991Y-16333650D02*
X12029467Y-16314603D01*
X12029467Y-16314603D02*
X12029467Y-16305079D01*
X12029467Y-16305079D02*
X12038991Y-16286031D01*
X12038991Y-16286031D02*
X12048515Y-16276508D01*
X12048515Y-16276508D02*
X12067562Y-16266984D01*
X12067562Y-16266984D02*
X12105658Y-16266984D01*
X12105658Y-16266984D02*
X12124705Y-16276508D01*
X12124705Y-16276508D02*
X12134229Y-16286031D01*
X12134229Y-16286031D02*
X12143753Y-16305079D01*
X12143753Y-16305079D02*
X12143753Y-16314603D01*
X12143753Y-16314603D02*
X12134229Y-16333650D01*
X12134229Y-16333650D02*
X12124705Y-16343174D01*
X12124705Y-16343174D02*
X12105658Y-16352698D01*
X12105658Y-16352698D02*
X12067562Y-16352698D01*
X12067562Y-16352698D02*
X12048515Y-16362222D01*
X12048515Y-16362222D02*
X12038991Y-16371746D01*
X12038991Y-16371746D02*
X12029467Y-16390793D01*
X12029467Y-16390793D02*
X12029467Y-16428888D01*
X12029467Y-16428888D02*
X12038991Y-16447936D01*
X12038991Y-16447936D02*
X12048515Y-16457460D01*
X12048515Y-16457460D02*
X12067562Y-16466984D01*
X12067562Y-16466984D02*
X12105658Y-16466984D01*
X12105658Y-16466984D02*
X12124705Y-16457460D01*
X12124705Y-16457460D02*
X12134229Y-16447936D01*
X12134229Y-16447936D02*
X12143753Y-16428888D01*
X12143753Y-16428888D02*
X12143753Y-16390793D01*
X12143753Y-16390793D02*
X12134229Y-16371746D01*
X12134229Y-16371746D02*
X12124705Y-16362222D01*
X12124705Y-16362222D02*
X12105658Y-16352698D01*
X12267562Y-16266984D02*
X12286610Y-16266984D01*
X12286610Y-16266984D02*
X12305658Y-16276508D01*
X12305658Y-16276508D02*
X12315182Y-16286031D01*
X12315182Y-16286031D02*
X12324705Y-16305079D01*
X12324705Y-16305079D02*
X12334229Y-16343174D01*
X12334229Y-16343174D02*
X12334229Y-16390793D01*
X12334229Y-16390793D02*
X12324705Y-16428888D01*
X12324705Y-16428888D02*
X12315182Y-16447936D01*
X12315182Y-16447936D02*
X12305658Y-16457460D01*
X12305658Y-16457460D02*
X12286610Y-16466984D01*
X12286610Y-16466984D02*
X12267562Y-16466984D01*
X12267562Y-16466984D02*
X12248515Y-16457460D01*
X12248515Y-16457460D02*
X12238991Y-16447936D01*
X12238991Y-16447936D02*
X12229467Y-16428888D01*
X12229467Y-16428888D02*
X12219943Y-16390793D01*
X12219943Y-16390793D02*
X12219943Y-16343174D01*
X12219943Y-16343174D02*
X12229467Y-16305079D01*
X12229467Y-16305079D02*
X12238991Y-16286031D01*
X12238991Y-16286031D02*
X12248515Y-16276508D01*
X12248515Y-16276508D02*
X12267562Y-16266984D01*
X12458039Y-16266984D02*
X12477086Y-16266984D01*
X12477086Y-16266984D02*
X12496134Y-16276508D01*
X12496134Y-16276508D02*
X12505658Y-16286031D01*
X12505658Y-16286031D02*
X12515182Y-16305079D01*
X12515182Y-16305079D02*
X12524705Y-16343174D01*
X12524705Y-16343174D02*
X12524705Y-16390793D01*
X12524705Y-16390793D02*
X12515182Y-16428888D01*
X12515182Y-16428888D02*
X12505658Y-16447936D01*
X12505658Y-16447936D02*
X12496134Y-16457460D01*
X12496134Y-16457460D02*
X12477086Y-16466984D01*
X12477086Y-16466984D02*
X12458039Y-16466984D01*
X12458039Y-16466984D02*
X12438991Y-16457460D01*
X12438991Y-16457460D02*
X12429467Y-16447936D01*
X12429467Y-16447936D02*
X12419943Y-16428888D01*
X12419943Y-16428888D02*
X12410420Y-16390793D01*
X12410420Y-16390793D02*
X12410420Y-16343174D01*
X12410420Y-16343174D02*
X12419943Y-16305079D01*
X12419943Y-16305079D02*
X12429467Y-16286031D01*
X12429467Y-16286031D02*
X12438991Y-16276508D01*
X12438991Y-16276508D02*
X12458039Y-16266984D01*
X12610420Y-16466984D02*
X12610420Y-16333650D01*
X12610420Y-16352698D02*
X12619943Y-16343174D01*
X12619943Y-16343174D02*
X12638991Y-16333650D01*
X12638991Y-16333650D02*
X12667563Y-16333650D01*
X12667563Y-16333650D02*
X12686610Y-16343174D01*
X12686610Y-16343174D02*
X12696134Y-16362222D01*
X12696134Y-16362222D02*
X12696134Y-16466984D01*
X12696134Y-16362222D02*
X12705658Y-16343174D01*
X12705658Y-16343174D02*
X12724705Y-16333650D01*
X12724705Y-16333650D02*
X12753277Y-16333650D01*
X12753277Y-16333650D02*
X12772324Y-16343174D01*
X12772324Y-16343174D02*
X12781848Y-16362222D01*
X12781848Y-16362222D02*
X12781848Y-16466984D01*
X12877086Y-16466984D02*
X12877086Y-16333650D01*
X12877086Y-16352698D02*
X12886610Y-16343174D01*
X12886610Y-16343174D02*
X12905658Y-16333650D01*
X12905658Y-16333650D02*
X12934229Y-16333650D01*
X12934229Y-16333650D02*
X12953277Y-16343174D01*
X12953277Y-16343174D02*
X12962801Y-16362222D01*
X12962801Y-16362222D02*
X12962801Y-16466984D01*
X12962801Y-16362222D02*
X12972324Y-16343174D01*
X12972324Y-16343174D02*
X12991372Y-16333650D01*
X12991372Y-16333650D02*
X13019943Y-16333650D01*
X13019943Y-16333650D02*
X13038991Y-16343174D01*
X13038991Y-16343174D02*
X13048515Y-16362222D01*
X13048515Y-16362222D02*
X13048515Y-16466984D01*
X13438991Y-16257460D02*
X13267563Y-16514603D01*
X13696134Y-16266984D02*
X13715182Y-16266984D01*
X13715182Y-16266984D02*
X13734229Y-16276508D01*
X13734229Y-16276508D02*
X13743753Y-16286031D01*
X13743753Y-16286031D02*
X13753277Y-16305079D01*
X13753277Y-16305079D02*
X13762801Y-16343174D01*
X13762801Y-16343174D02*
X13762801Y-16390793D01*
X13762801Y-16390793D02*
X13753277Y-16428888D01*
X13753277Y-16428888D02*
X13743753Y-16447936D01*
X13743753Y-16447936D02*
X13734229Y-16457460D01*
X13734229Y-16457460D02*
X13715182Y-16466984D01*
X13715182Y-16466984D02*
X13696134Y-16466984D01*
X13696134Y-16466984D02*
X13677086Y-16457460D01*
X13677086Y-16457460D02*
X13667563Y-16447936D01*
X13667563Y-16447936D02*
X13658039Y-16428888D01*
X13658039Y-16428888D02*
X13648515Y-16390793D01*
X13648515Y-16390793D02*
X13648515Y-16343174D01*
X13648515Y-16343174D02*
X13658039Y-16305079D01*
X13658039Y-16305079D02*
X13667563Y-16286031D01*
X13667563Y-16286031D02*
X13677086Y-16276508D01*
X13677086Y-16276508D02*
X13696134Y-16266984D01*
X13848515Y-16447936D02*
X13858039Y-16457460D01*
X13858039Y-16457460D02*
X13848515Y-16466984D01*
X13848515Y-16466984D02*
X13838991Y-16457460D01*
X13838991Y-16457460D02*
X13848515Y-16447936D01*
X13848515Y-16447936D02*
X13848515Y-16466984D01*
X13981848Y-16266984D02*
X14000896Y-16266984D01*
X14000896Y-16266984D02*
X14019944Y-16276508D01*
X14019944Y-16276508D02*
X14029467Y-16286031D01*
X14029467Y-16286031D02*
X14038991Y-16305079D01*
X14038991Y-16305079D02*
X14048515Y-16343174D01*
X14048515Y-16343174D02*
X14048515Y-16390793D01*
X14048515Y-16390793D02*
X14038991Y-16428888D01*
X14038991Y-16428888D02*
X14029467Y-16447936D01*
X14029467Y-16447936D02*
X14019944Y-16457460D01*
X14019944Y-16457460D02*
X14000896Y-16466984D01*
X14000896Y-16466984D02*
X13981848Y-16466984D01*
X13981848Y-16466984D02*
X13962801Y-16457460D01*
X13962801Y-16457460D02*
X13953277Y-16447936D01*
X13953277Y-16447936D02*
X13943753Y-16428888D01*
X13943753Y-16428888D02*
X13934229Y-16390793D01*
X13934229Y-16390793D02*
X13934229Y-16343174D01*
X13934229Y-16343174D02*
X13943753Y-16305079D01*
X13943753Y-16305079D02*
X13953277Y-16286031D01*
X13953277Y-16286031D02*
X13962801Y-16276508D01*
X13962801Y-16276508D02*
X13981848Y-16266984D01*
X14115182Y-16266984D02*
X14238991Y-16266984D01*
X14238991Y-16266984D02*
X14172325Y-16343174D01*
X14172325Y-16343174D02*
X14200896Y-16343174D01*
X14200896Y-16343174D02*
X14219944Y-16352698D01*
X14219944Y-16352698D02*
X14229467Y-16362222D01*
X14229467Y-16362222D02*
X14238991Y-16381269D01*
X14238991Y-16381269D02*
X14238991Y-16428888D01*
X14238991Y-16428888D02*
X14229467Y-16447936D01*
X14229467Y-16447936D02*
X14219944Y-16457460D01*
X14219944Y-16457460D02*
X14200896Y-16466984D01*
X14200896Y-16466984D02*
X14143753Y-16466984D01*
X14143753Y-16466984D02*
X14124706Y-16457460D01*
X14124706Y-16457460D02*
X14115182Y-16447936D01*
X14429467Y-16466984D02*
X14315182Y-16466984D01*
X14372325Y-16466984D02*
X14372325Y-16266984D01*
X14372325Y-16266984D02*
X14353277Y-16295555D01*
X14353277Y-16295555D02*
X14334229Y-16314603D01*
X14334229Y-16314603D02*
X14315182Y-16324127D01*
X14610420Y-16266984D02*
X14515182Y-16266984D01*
X14515182Y-16266984D02*
X14505658Y-16362222D01*
X14505658Y-16362222D02*
X14515182Y-16352698D01*
X14515182Y-16352698D02*
X14534229Y-16343174D01*
X14534229Y-16343174D02*
X14581848Y-16343174D01*
X14581848Y-16343174D02*
X14600896Y-16352698D01*
X14600896Y-16352698D02*
X14610420Y-16362222D01*
X14610420Y-16362222D02*
X14619944Y-16381269D01*
X14619944Y-16381269D02*
X14619944Y-16428888D01*
X14619944Y-16428888D02*
X14610420Y-16447936D01*
X14610420Y-16447936D02*
X14600896Y-16457460D01*
X14600896Y-16457460D02*
X14581848Y-16466984D01*
X14581848Y-16466984D02*
X14534229Y-16466984D01*
X14534229Y-16466984D02*
X14515182Y-16457460D01*
X14515182Y-16457460D02*
X14505658Y-16447936D01*
X14696134Y-16266984D02*
X14696134Y-16305079D01*
X14772325Y-16266984D02*
X14772325Y-16305079D01*
X15067563Y-16543174D02*
X15058039Y-16533650D01*
X15058039Y-16533650D02*
X15038991Y-16505079D01*
X15038991Y-16505079D02*
X15029468Y-16486031D01*
X15029468Y-16486031D02*
X15019944Y-16457460D01*
X15019944Y-16457460D02*
X15010420Y-16409841D01*
X15010420Y-16409841D02*
X15010420Y-16371746D01*
X15010420Y-16371746D02*
X15019944Y-16324127D01*
X15019944Y-16324127D02*
X15029468Y-16295555D01*
X15029468Y-16295555D02*
X15038991Y-16276508D01*
X15038991Y-16276508D02*
X15058039Y-16247936D01*
X15058039Y-16247936D02*
X15067563Y-16238412D01*
X15172325Y-16352698D02*
X15153277Y-16343174D01*
X15153277Y-16343174D02*
X15143753Y-16333650D01*
X15143753Y-16333650D02*
X15134229Y-16314603D01*
X15134229Y-16314603D02*
X15134229Y-16305079D01*
X15134229Y-16305079D02*
X15143753Y-16286031D01*
X15143753Y-16286031D02*
X15153277Y-16276508D01*
X15153277Y-16276508D02*
X15172325Y-16266984D01*
X15172325Y-16266984D02*
X15210420Y-16266984D01*
X15210420Y-16266984D02*
X15229468Y-16276508D01*
X15229468Y-16276508D02*
X15238991Y-16286031D01*
X15238991Y-16286031D02*
X15248515Y-16305079D01*
X15248515Y-16305079D02*
X15248515Y-16314603D01*
X15248515Y-16314603D02*
X15238991Y-16333650D01*
X15238991Y-16333650D02*
X15229468Y-16343174D01*
X15229468Y-16343174D02*
X15210420Y-16352698D01*
X15210420Y-16352698D02*
X15172325Y-16352698D01*
X15172325Y-16352698D02*
X15153277Y-16362222D01*
X15153277Y-16362222D02*
X15143753Y-16371746D01*
X15143753Y-16371746D02*
X15134229Y-16390793D01*
X15134229Y-16390793D02*
X15134229Y-16428888D01*
X15134229Y-16428888D02*
X15143753Y-16447936D01*
X15143753Y-16447936D02*
X15153277Y-16457460D01*
X15153277Y-16457460D02*
X15172325Y-16466984D01*
X15172325Y-16466984D02*
X15210420Y-16466984D01*
X15210420Y-16466984D02*
X15229468Y-16457460D01*
X15229468Y-16457460D02*
X15238991Y-16447936D01*
X15238991Y-16447936D02*
X15248515Y-16428888D01*
X15248515Y-16428888D02*
X15248515Y-16390793D01*
X15248515Y-16390793D02*
X15238991Y-16371746D01*
X15238991Y-16371746D02*
X15229468Y-16362222D01*
X15229468Y-16362222D02*
X15210420Y-16352698D01*
X15486610Y-16466984D02*
X15486610Y-16266984D01*
X15572325Y-16466984D02*
X15572325Y-16362222D01*
X15572325Y-16362222D02*
X15562801Y-16343174D01*
X15562801Y-16343174D02*
X15543753Y-16333650D01*
X15543753Y-16333650D02*
X15515182Y-16333650D01*
X15515182Y-16333650D02*
X15496134Y-16343174D01*
X15496134Y-16343174D02*
X15486610Y-16352698D01*
X15696134Y-16466984D02*
X15677087Y-16457460D01*
X15677087Y-16457460D02*
X15667563Y-16447936D01*
X15667563Y-16447936D02*
X15658039Y-16428888D01*
X15658039Y-16428888D02*
X15658039Y-16371746D01*
X15658039Y-16371746D02*
X15667563Y-16352698D01*
X15667563Y-16352698D02*
X15677087Y-16343174D01*
X15677087Y-16343174D02*
X15696134Y-16333650D01*
X15696134Y-16333650D02*
X15724706Y-16333650D01*
X15724706Y-16333650D02*
X15743753Y-16343174D01*
X15743753Y-16343174D02*
X15753277Y-16352698D01*
X15753277Y-16352698D02*
X15762801Y-16371746D01*
X15762801Y-16371746D02*
X15762801Y-16428888D01*
X15762801Y-16428888D02*
X15753277Y-16447936D01*
X15753277Y-16447936D02*
X15743753Y-16457460D01*
X15743753Y-16457460D02*
X15724706Y-16466984D01*
X15724706Y-16466984D02*
X15696134Y-16466984D01*
X15877087Y-16466984D02*
X15858039Y-16457460D01*
X15858039Y-16457460D02*
X15848515Y-16438412D01*
X15848515Y-16438412D02*
X15848515Y-16266984D01*
X16029468Y-16457460D02*
X16010420Y-16466984D01*
X16010420Y-16466984D02*
X15972325Y-16466984D01*
X15972325Y-16466984D02*
X15953277Y-16457460D01*
X15953277Y-16457460D02*
X15943753Y-16438412D01*
X15943753Y-16438412D02*
X15943753Y-16362222D01*
X15943753Y-16362222D02*
X15953277Y-16343174D01*
X15953277Y-16343174D02*
X15972325Y-16333650D01*
X15972325Y-16333650D02*
X16010420Y-16333650D01*
X16010420Y-16333650D02*
X16029468Y-16343174D01*
X16029468Y-16343174D02*
X16038991Y-16362222D01*
X16038991Y-16362222D02*
X16038991Y-16381269D01*
X16038991Y-16381269D02*
X15943753Y-16400317D01*
X16115182Y-16457460D02*
X16134230Y-16466984D01*
X16134230Y-16466984D02*
X16172325Y-16466984D01*
X16172325Y-16466984D02*
X16191372Y-16457460D01*
X16191372Y-16457460D02*
X16200896Y-16438412D01*
X16200896Y-16438412D02*
X16200896Y-16428888D01*
X16200896Y-16428888D02*
X16191372Y-16409841D01*
X16191372Y-16409841D02*
X16172325Y-16400317D01*
X16172325Y-16400317D02*
X16143753Y-16400317D01*
X16143753Y-16400317D02*
X16124706Y-16390793D01*
X16124706Y-16390793D02*
X16115182Y-16371746D01*
X16115182Y-16371746D02*
X16115182Y-16362222D01*
X16115182Y-16362222D02*
X16124706Y-16343174D01*
X16124706Y-16343174D02*
X16143753Y-16333650D01*
X16143753Y-16333650D02*
X16172325Y-16333650D01*
X16172325Y-16333650D02*
X16191372Y-16343174D01*
X16267563Y-16543174D02*
X16277087Y-16533650D01*
X16277087Y-16533650D02*
X16296134Y-16505079D01*
X16296134Y-16505079D02*
X16305658Y-16486031D01*
X16305658Y-16486031D02*
X16315182Y-16457460D01*
X16315182Y-16457460D02*
X16324706Y-16409841D01*
X16324706Y-16409841D02*
X16324706Y-16371746D01*
X16324706Y-16371746D02*
X16315182Y-16324127D01*
X16315182Y-16324127D02*
X16305658Y-16295555D01*
X16305658Y-16295555D02*
X16296134Y-16276508D01*
X16296134Y-16276508D02*
X16277087Y-16247936D01*
X16277087Y-16247936D02*
X16267563Y-16238412D01*
D15*
X11479320Y-16671320D02*
X11479320Y-16607680D01*
X11415680Y-16607680D01*
X11415680Y-16671320D01*
X11479320Y-16671320D01*
D11*
X11791372Y-16530984D02*
X11810420Y-16530984D01*
X11810420Y-16530984D02*
X11829467Y-16540508D01*
X11829467Y-16540508D02*
X11838991Y-16550031D01*
X11838991Y-16550031D02*
X11848515Y-16569079D01*
X11848515Y-16569079D02*
X11858039Y-16607174D01*
X11858039Y-16607174D02*
X11858039Y-16654793D01*
X11858039Y-16654793D02*
X11848515Y-16692888D01*
X11848515Y-16692888D02*
X11838991Y-16711936D01*
X11838991Y-16711936D02*
X11829467Y-16721460D01*
X11829467Y-16721460D02*
X11810420Y-16730984D01*
X11810420Y-16730984D02*
X11791372Y-16730984D01*
X11791372Y-16730984D02*
X11772324Y-16721460D01*
X11772324Y-16721460D02*
X11762801Y-16711936D01*
X11762801Y-16711936D02*
X11753277Y-16692888D01*
X11753277Y-16692888D02*
X11743753Y-16654793D01*
X11743753Y-16654793D02*
X11743753Y-16607174D01*
X11743753Y-16607174D02*
X11753277Y-16569079D01*
X11753277Y-16569079D02*
X11762801Y-16550031D01*
X11762801Y-16550031D02*
X11772324Y-16540508D01*
X11772324Y-16540508D02*
X11791372Y-16530984D01*
X11943753Y-16711936D02*
X11953277Y-16721460D01*
X11953277Y-16721460D02*
X11943753Y-16730984D01*
X11943753Y-16730984D02*
X11934229Y-16721460D01*
X11934229Y-16721460D02*
X11943753Y-16711936D01*
X11943753Y-16711936D02*
X11943753Y-16730984D01*
X12048515Y-16730984D02*
X12086610Y-16730984D01*
X12086610Y-16730984D02*
X12105658Y-16721460D01*
X12105658Y-16721460D02*
X12115182Y-16711936D01*
X12115182Y-16711936D02*
X12134229Y-16683365D01*
X12134229Y-16683365D02*
X12143753Y-16645269D01*
X12143753Y-16645269D02*
X12143753Y-16569079D01*
X12143753Y-16569079D02*
X12134229Y-16550031D01*
X12134229Y-16550031D02*
X12124705Y-16540508D01*
X12124705Y-16540508D02*
X12105658Y-16530984D01*
X12105658Y-16530984D02*
X12067562Y-16530984D01*
X12067562Y-16530984D02*
X12048515Y-16540508D01*
X12048515Y-16540508D02*
X12038991Y-16550031D01*
X12038991Y-16550031D02*
X12029467Y-16569079D01*
X12029467Y-16569079D02*
X12029467Y-16616698D01*
X12029467Y-16616698D02*
X12038991Y-16635746D01*
X12038991Y-16635746D02*
X12048515Y-16645269D01*
X12048515Y-16645269D02*
X12067562Y-16654793D01*
X12067562Y-16654793D02*
X12105658Y-16654793D01*
X12105658Y-16654793D02*
X12124705Y-16645269D01*
X12124705Y-16645269D02*
X12134229Y-16635746D01*
X12134229Y-16635746D02*
X12143753Y-16616698D01*
X12267562Y-16530984D02*
X12286610Y-16530984D01*
X12286610Y-16530984D02*
X12305658Y-16540508D01*
X12305658Y-16540508D02*
X12315182Y-16550031D01*
X12315182Y-16550031D02*
X12324705Y-16569079D01*
X12324705Y-16569079D02*
X12334229Y-16607174D01*
X12334229Y-16607174D02*
X12334229Y-16654793D01*
X12334229Y-16654793D02*
X12324705Y-16692888D01*
X12324705Y-16692888D02*
X12315182Y-16711936D01*
X12315182Y-16711936D02*
X12305658Y-16721460D01*
X12305658Y-16721460D02*
X12286610Y-16730984D01*
X12286610Y-16730984D02*
X12267562Y-16730984D01*
X12267562Y-16730984D02*
X12248515Y-16721460D01*
X12248515Y-16721460D02*
X12238991Y-16711936D01*
X12238991Y-16711936D02*
X12229467Y-16692888D01*
X12229467Y-16692888D02*
X12219943Y-16654793D01*
X12219943Y-16654793D02*
X12219943Y-16607174D01*
X12219943Y-16607174D02*
X12229467Y-16569079D01*
X12229467Y-16569079D02*
X12238991Y-16550031D01*
X12238991Y-16550031D02*
X12248515Y-16540508D01*
X12248515Y-16540508D02*
X12267562Y-16530984D01*
X12458039Y-16530984D02*
X12477086Y-16530984D01*
X12477086Y-16530984D02*
X12496134Y-16540508D01*
X12496134Y-16540508D02*
X12505658Y-16550031D01*
X12505658Y-16550031D02*
X12515182Y-16569079D01*
X12515182Y-16569079D02*
X12524705Y-16607174D01*
X12524705Y-16607174D02*
X12524705Y-16654793D01*
X12524705Y-16654793D02*
X12515182Y-16692888D01*
X12515182Y-16692888D02*
X12505658Y-16711936D01*
X12505658Y-16711936D02*
X12496134Y-16721460D01*
X12496134Y-16721460D02*
X12477086Y-16730984D01*
X12477086Y-16730984D02*
X12458039Y-16730984D01*
X12458039Y-16730984D02*
X12438991Y-16721460D01*
X12438991Y-16721460D02*
X12429467Y-16711936D01*
X12429467Y-16711936D02*
X12419943Y-16692888D01*
X12419943Y-16692888D02*
X12410420Y-16654793D01*
X12410420Y-16654793D02*
X12410420Y-16607174D01*
X12410420Y-16607174D02*
X12419943Y-16569079D01*
X12419943Y-16569079D02*
X12429467Y-16550031D01*
X12429467Y-16550031D02*
X12438991Y-16540508D01*
X12438991Y-16540508D02*
X12458039Y-16530984D01*
X12610420Y-16730984D02*
X12610420Y-16597650D01*
X12610420Y-16616698D02*
X12619943Y-16607174D01*
X12619943Y-16607174D02*
X12638991Y-16597650D01*
X12638991Y-16597650D02*
X12667563Y-16597650D01*
X12667563Y-16597650D02*
X12686610Y-16607174D01*
X12686610Y-16607174D02*
X12696134Y-16626222D01*
X12696134Y-16626222D02*
X12696134Y-16730984D01*
X12696134Y-16626222D02*
X12705658Y-16607174D01*
X12705658Y-16607174D02*
X12724705Y-16597650D01*
X12724705Y-16597650D02*
X12753277Y-16597650D01*
X12753277Y-16597650D02*
X12772324Y-16607174D01*
X12772324Y-16607174D02*
X12781848Y-16626222D01*
X12781848Y-16626222D02*
X12781848Y-16730984D01*
X12877086Y-16730984D02*
X12877086Y-16597650D01*
X12877086Y-16616698D02*
X12886610Y-16607174D01*
X12886610Y-16607174D02*
X12905658Y-16597650D01*
X12905658Y-16597650D02*
X12934229Y-16597650D01*
X12934229Y-16597650D02*
X12953277Y-16607174D01*
X12953277Y-16607174D02*
X12962801Y-16626222D01*
X12962801Y-16626222D02*
X12962801Y-16730984D01*
X12962801Y-16626222D02*
X12972324Y-16607174D01*
X12972324Y-16607174D02*
X12991372Y-16597650D01*
X12991372Y-16597650D02*
X13019943Y-16597650D01*
X13019943Y-16597650D02*
X13038991Y-16607174D01*
X13038991Y-16607174D02*
X13048515Y-16626222D01*
X13048515Y-16626222D02*
X13048515Y-16730984D01*
X13438991Y-16521460D02*
X13267563Y-16778603D01*
X13696134Y-16530984D02*
X13715182Y-16530984D01*
X13715182Y-16530984D02*
X13734229Y-16540508D01*
X13734229Y-16540508D02*
X13743753Y-16550031D01*
X13743753Y-16550031D02*
X13753277Y-16569079D01*
X13753277Y-16569079D02*
X13762801Y-16607174D01*
X13762801Y-16607174D02*
X13762801Y-16654793D01*
X13762801Y-16654793D02*
X13753277Y-16692888D01*
X13753277Y-16692888D02*
X13743753Y-16711936D01*
X13743753Y-16711936D02*
X13734229Y-16721460D01*
X13734229Y-16721460D02*
X13715182Y-16730984D01*
X13715182Y-16730984D02*
X13696134Y-16730984D01*
X13696134Y-16730984D02*
X13677086Y-16721460D01*
X13677086Y-16721460D02*
X13667563Y-16711936D01*
X13667563Y-16711936D02*
X13658039Y-16692888D01*
X13658039Y-16692888D02*
X13648515Y-16654793D01*
X13648515Y-16654793D02*
X13648515Y-16607174D01*
X13648515Y-16607174D02*
X13658039Y-16569079D01*
X13658039Y-16569079D02*
X13667563Y-16550031D01*
X13667563Y-16550031D02*
X13677086Y-16540508D01*
X13677086Y-16540508D02*
X13696134Y-16530984D01*
X13848515Y-16711936D02*
X13858039Y-16721460D01*
X13858039Y-16721460D02*
X13848515Y-16730984D01*
X13848515Y-16730984D02*
X13838991Y-16721460D01*
X13838991Y-16721460D02*
X13848515Y-16711936D01*
X13848515Y-16711936D02*
X13848515Y-16730984D01*
X13981848Y-16530984D02*
X14000896Y-16530984D01*
X14000896Y-16530984D02*
X14019944Y-16540508D01*
X14019944Y-16540508D02*
X14029467Y-16550031D01*
X14029467Y-16550031D02*
X14038991Y-16569079D01*
X14038991Y-16569079D02*
X14048515Y-16607174D01*
X14048515Y-16607174D02*
X14048515Y-16654793D01*
X14048515Y-16654793D02*
X14038991Y-16692888D01*
X14038991Y-16692888D02*
X14029467Y-16711936D01*
X14029467Y-16711936D02*
X14019944Y-16721460D01*
X14019944Y-16721460D02*
X14000896Y-16730984D01*
X14000896Y-16730984D02*
X13981848Y-16730984D01*
X13981848Y-16730984D02*
X13962801Y-16721460D01*
X13962801Y-16721460D02*
X13953277Y-16711936D01*
X13953277Y-16711936D02*
X13943753Y-16692888D01*
X13943753Y-16692888D02*
X13934229Y-16654793D01*
X13934229Y-16654793D02*
X13934229Y-16607174D01*
X13934229Y-16607174D02*
X13943753Y-16569079D01*
X13943753Y-16569079D02*
X13953277Y-16550031D01*
X13953277Y-16550031D02*
X13962801Y-16540508D01*
X13962801Y-16540508D02*
X13981848Y-16530984D01*
X14115182Y-16530984D02*
X14238991Y-16530984D01*
X14238991Y-16530984D02*
X14172325Y-16607174D01*
X14172325Y-16607174D02*
X14200896Y-16607174D01*
X14200896Y-16607174D02*
X14219944Y-16616698D01*
X14219944Y-16616698D02*
X14229467Y-16626222D01*
X14229467Y-16626222D02*
X14238991Y-16645269D01*
X14238991Y-16645269D02*
X14238991Y-16692888D01*
X14238991Y-16692888D02*
X14229467Y-16711936D01*
X14229467Y-16711936D02*
X14219944Y-16721460D01*
X14219944Y-16721460D02*
X14200896Y-16730984D01*
X14200896Y-16730984D02*
X14143753Y-16730984D01*
X14143753Y-16730984D02*
X14124706Y-16721460D01*
X14124706Y-16721460D02*
X14115182Y-16711936D01*
X14419944Y-16530984D02*
X14324706Y-16530984D01*
X14324706Y-16530984D02*
X14315182Y-16626222D01*
X14315182Y-16626222D02*
X14324706Y-16616698D01*
X14324706Y-16616698D02*
X14343753Y-16607174D01*
X14343753Y-16607174D02*
X14391372Y-16607174D01*
X14391372Y-16607174D02*
X14410420Y-16616698D01*
X14410420Y-16616698D02*
X14419944Y-16626222D01*
X14419944Y-16626222D02*
X14429467Y-16645269D01*
X14429467Y-16645269D02*
X14429467Y-16692888D01*
X14429467Y-16692888D02*
X14419944Y-16711936D01*
X14419944Y-16711936D02*
X14410420Y-16721460D01*
X14410420Y-16721460D02*
X14391372Y-16730984D01*
X14391372Y-16730984D02*
X14343753Y-16730984D01*
X14343753Y-16730984D02*
X14324706Y-16721460D01*
X14324706Y-16721460D02*
X14315182Y-16711936D01*
X14600896Y-16597650D02*
X14600896Y-16730984D01*
X14553277Y-16521460D02*
X14505658Y-16664317D01*
X14505658Y-16664317D02*
X14629467Y-16664317D01*
X14696134Y-16530984D02*
X14696134Y-16569079D01*
X14772325Y-16530984D02*
X14772325Y-16569079D01*
X15067563Y-16807174D02*
X15058039Y-16797650D01*
X15058039Y-16797650D02*
X15038991Y-16769079D01*
X15038991Y-16769079D02*
X15029468Y-16750031D01*
X15029468Y-16750031D02*
X15019944Y-16721460D01*
X15019944Y-16721460D02*
X15010420Y-16673841D01*
X15010420Y-16673841D02*
X15010420Y-16635746D01*
X15010420Y-16635746D02*
X15019944Y-16588127D01*
X15019944Y-16588127D02*
X15029468Y-16559555D01*
X15029468Y-16559555D02*
X15038991Y-16540508D01*
X15038991Y-16540508D02*
X15058039Y-16511936D01*
X15058039Y-16511936D02*
X15067563Y-16502412D01*
X15229468Y-16597650D02*
X15229468Y-16730984D01*
X15181848Y-16521460D02*
X15134229Y-16664317D01*
X15134229Y-16664317D02*
X15258039Y-16664317D01*
X15486610Y-16730984D02*
X15486610Y-16530984D01*
X15572325Y-16730984D02*
X15572325Y-16626222D01*
X15572325Y-16626222D02*
X15562801Y-16607174D01*
X15562801Y-16607174D02*
X15543753Y-16597650D01*
X15543753Y-16597650D02*
X15515182Y-16597650D01*
X15515182Y-16597650D02*
X15496134Y-16607174D01*
X15496134Y-16607174D02*
X15486610Y-16616698D01*
X15696134Y-16730984D02*
X15677087Y-16721460D01*
X15677087Y-16721460D02*
X15667563Y-16711936D01*
X15667563Y-16711936D02*
X15658039Y-16692888D01*
X15658039Y-16692888D02*
X15658039Y-16635746D01*
X15658039Y-16635746D02*
X15667563Y-16616698D01*
X15667563Y-16616698D02*
X15677087Y-16607174D01*
X15677087Y-16607174D02*
X15696134Y-16597650D01*
X15696134Y-16597650D02*
X15724706Y-16597650D01*
X15724706Y-16597650D02*
X15743753Y-16607174D01*
X15743753Y-16607174D02*
X15753277Y-16616698D01*
X15753277Y-16616698D02*
X15762801Y-16635746D01*
X15762801Y-16635746D02*
X15762801Y-16692888D01*
X15762801Y-16692888D02*
X15753277Y-16711936D01*
X15753277Y-16711936D02*
X15743753Y-16721460D01*
X15743753Y-16721460D02*
X15724706Y-16730984D01*
X15724706Y-16730984D02*
X15696134Y-16730984D01*
X15877087Y-16730984D02*
X15858039Y-16721460D01*
X15858039Y-16721460D02*
X15848515Y-16702412D01*
X15848515Y-16702412D02*
X15848515Y-16530984D01*
X16029468Y-16721460D02*
X16010420Y-16730984D01*
X16010420Y-16730984D02*
X15972325Y-16730984D01*
X15972325Y-16730984D02*
X15953277Y-16721460D01*
X15953277Y-16721460D02*
X15943753Y-16702412D01*
X15943753Y-16702412D02*
X15943753Y-16626222D01*
X15943753Y-16626222D02*
X15953277Y-16607174D01*
X15953277Y-16607174D02*
X15972325Y-16597650D01*
X15972325Y-16597650D02*
X16010420Y-16597650D01*
X16010420Y-16597650D02*
X16029468Y-16607174D01*
X16029468Y-16607174D02*
X16038991Y-16626222D01*
X16038991Y-16626222D02*
X16038991Y-16645269D01*
X16038991Y-16645269D02*
X15943753Y-16664317D01*
X16115182Y-16721460D02*
X16134230Y-16730984D01*
X16134230Y-16730984D02*
X16172325Y-16730984D01*
X16172325Y-16730984D02*
X16191372Y-16721460D01*
X16191372Y-16721460D02*
X16200896Y-16702412D01*
X16200896Y-16702412D02*
X16200896Y-16692888D01*
X16200896Y-16692888D02*
X16191372Y-16673841D01*
X16191372Y-16673841D02*
X16172325Y-16664317D01*
X16172325Y-16664317D02*
X16143753Y-16664317D01*
X16143753Y-16664317D02*
X16124706Y-16654793D01*
X16124706Y-16654793D02*
X16115182Y-16635746D01*
X16115182Y-16635746D02*
X16115182Y-16626222D01*
X16115182Y-16626222D02*
X16124706Y-16607174D01*
X16124706Y-16607174D02*
X16143753Y-16597650D01*
X16143753Y-16597650D02*
X16172325Y-16597650D01*
X16172325Y-16597650D02*
X16191372Y-16607174D01*
X16267563Y-16807174D02*
X16277087Y-16797650D01*
X16277087Y-16797650D02*
X16296134Y-16769079D01*
X16296134Y-16769079D02*
X16305658Y-16750031D01*
X16305658Y-16750031D02*
X16315182Y-16721460D01*
X16315182Y-16721460D02*
X16324706Y-16673841D01*
X16324706Y-16673841D02*
X16324706Y-16635746D01*
X16324706Y-16635746D02*
X16315182Y-16588127D01*
X16315182Y-16588127D02*
X16305658Y-16559555D01*
X16305658Y-16559555D02*
X16296134Y-16540508D01*
X16296134Y-16540508D02*
X16277087Y-16511936D01*
X16277087Y-16511936D02*
X16267563Y-16502412D01*
D16*
X11442500Y-16953500D02*
X11492500Y-16903500D01*
X11442500Y-16853500D01*
X11392500Y-16903500D01*
X11442500Y-16953500D01*
D11*
X11858039Y-16994984D02*
X11743753Y-16994984D01*
X11800896Y-16994984D02*
X11800896Y-16794984D01*
X11800896Y-16794984D02*
X11781848Y-16823555D01*
X11781848Y-16823555D02*
X11762801Y-16842603D01*
X11762801Y-16842603D02*
X11743753Y-16852127D01*
X11943753Y-16975936D02*
X11953277Y-16985460D01*
X11953277Y-16985460D02*
X11943753Y-16994984D01*
X11943753Y-16994984D02*
X11934229Y-16985460D01*
X11934229Y-16985460D02*
X11943753Y-16975936D01*
X11943753Y-16975936D02*
X11943753Y-16994984D01*
X12077086Y-16794984D02*
X12096134Y-16794984D01*
X12096134Y-16794984D02*
X12115182Y-16804508D01*
X12115182Y-16804508D02*
X12124705Y-16814031D01*
X12124705Y-16814031D02*
X12134229Y-16833079D01*
X12134229Y-16833079D02*
X12143753Y-16871174D01*
X12143753Y-16871174D02*
X12143753Y-16918793D01*
X12143753Y-16918793D02*
X12134229Y-16956889D01*
X12134229Y-16956889D02*
X12124705Y-16975936D01*
X12124705Y-16975936D02*
X12115182Y-16985460D01*
X12115182Y-16985460D02*
X12096134Y-16994984D01*
X12096134Y-16994984D02*
X12077086Y-16994984D01*
X12077086Y-16994984D02*
X12058039Y-16985460D01*
X12058039Y-16985460D02*
X12048515Y-16975936D01*
X12048515Y-16975936D02*
X12038991Y-16956889D01*
X12038991Y-16956889D02*
X12029467Y-16918793D01*
X12029467Y-16918793D02*
X12029467Y-16871174D01*
X12029467Y-16871174D02*
X12038991Y-16833079D01*
X12038991Y-16833079D02*
X12048515Y-16814031D01*
X12048515Y-16814031D02*
X12058039Y-16804508D01*
X12058039Y-16804508D02*
X12077086Y-16794984D01*
X12267562Y-16794984D02*
X12286610Y-16794984D01*
X12286610Y-16794984D02*
X12305658Y-16804508D01*
X12305658Y-16804508D02*
X12315182Y-16814031D01*
X12315182Y-16814031D02*
X12324705Y-16833079D01*
X12324705Y-16833079D02*
X12334229Y-16871174D01*
X12334229Y-16871174D02*
X12334229Y-16918793D01*
X12334229Y-16918793D02*
X12324705Y-16956889D01*
X12324705Y-16956889D02*
X12315182Y-16975936D01*
X12315182Y-16975936D02*
X12305658Y-16985460D01*
X12305658Y-16985460D02*
X12286610Y-16994984D01*
X12286610Y-16994984D02*
X12267562Y-16994984D01*
X12267562Y-16994984D02*
X12248515Y-16985460D01*
X12248515Y-16985460D02*
X12238991Y-16975936D01*
X12238991Y-16975936D02*
X12229467Y-16956889D01*
X12229467Y-16956889D02*
X12219943Y-16918793D01*
X12219943Y-16918793D02*
X12219943Y-16871174D01*
X12219943Y-16871174D02*
X12229467Y-16833079D01*
X12229467Y-16833079D02*
X12238991Y-16814031D01*
X12238991Y-16814031D02*
X12248515Y-16804508D01*
X12248515Y-16804508D02*
X12267562Y-16794984D01*
X12458039Y-16794984D02*
X12477086Y-16794984D01*
X12477086Y-16794984D02*
X12496134Y-16804508D01*
X12496134Y-16804508D02*
X12505658Y-16814031D01*
X12505658Y-16814031D02*
X12515182Y-16833079D01*
X12515182Y-16833079D02*
X12524705Y-16871174D01*
X12524705Y-16871174D02*
X12524705Y-16918793D01*
X12524705Y-16918793D02*
X12515182Y-16956889D01*
X12515182Y-16956889D02*
X12505658Y-16975936D01*
X12505658Y-16975936D02*
X12496134Y-16985460D01*
X12496134Y-16985460D02*
X12477086Y-16994984D01*
X12477086Y-16994984D02*
X12458039Y-16994984D01*
X12458039Y-16994984D02*
X12438991Y-16985460D01*
X12438991Y-16985460D02*
X12429467Y-16975936D01*
X12429467Y-16975936D02*
X12419943Y-16956889D01*
X12419943Y-16956889D02*
X12410420Y-16918793D01*
X12410420Y-16918793D02*
X12410420Y-16871174D01*
X12410420Y-16871174D02*
X12419943Y-16833079D01*
X12419943Y-16833079D02*
X12429467Y-16814031D01*
X12429467Y-16814031D02*
X12438991Y-16804508D01*
X12438991Y-16804508D02*
X12458039Y-16794984D01*
X12610420Y-16994984D02*
X12610420Y-16861650D01*
X12610420Y-16880698D02*
X12619943Y-16871174D01*
X12619943Y-16871174D02*
X12638991Y-16861650D01*
X12638991Y-16861650D02*
X12667563Y-16861650D01*
X12667563Y-16861650D02*
X12686610Y-16871174D01*
X12686610Y-16871174D02*
X12696134Y-16890222D01*
X12696134Y-16890222D02*
X12696134Y-16994984D01*
X12696134Y-16890222D02*
X12705658Y-16871174D01*
X12705658Y-16871174D02*
X12724705Y-16861650D01*
X12724705Y-16861650D02*
X12753277Y-16861650D01*
X12753277Y-16861650D02*
X12772324Y-16871174D01*
X12772324Y-16871174D02*
X12781848Y-16890222D01*
X12781848Y-16890222D02*
X12781848Y-16994984D01*
X12877086Y-16994984D02*
X12877086Y-16861650D01*
X12877086Y-16880698D02*
X12886610Y-16871174D01*
X12886610Y-16871174D02*
X12905658Y-16861650D01*
X12905658Y-16861650D02*
X12934229Y-16861650D01*
X12934229Y-16861650D02*
X12953277Y-16871174D01*
X12953277Y-16871174D02*
X12962801Y-16890222D01*
X12962801Y-16890222D02*
X12962801Y-16994984D01*
X12962801Y-16890222D02*
X12972324Y-16871174D01*
X12972324Y-16871174D02*
X12991372Y-16861650D01*
X12991372Y-16861650D02*
X13019943Y-16861650D01*
X13019943Y-16861650D02*
X13038991Y-16871174D01*
X13038991Y-16871174D02*
X13048515Y-16890222D01*
X13048515Y-16890222D02*
X13048515Y-16994984D01*
X13438991Y-16785460D02*
X13267563Y-17042603D01*
X13696134Y-16794984D02*
X13715182Y-16794984D01*
X13715182Y-16794984D02*
X13734229Y-16804508D01*
X13734229Y-16804508D02*
X13743753Y-16814031D01*
X13743753Y-16814031D02*
X13753277Y-16833079D01*
X13753277Y-16833079D02*
X13762801Y-16871174D01*
X13762801Y-16871174D02*
X13762801Y-16918793D01*
X13762801Y-16918793D02*
X13753277Y-16956889D01*
X13753277Y-16956889D02*
X13743753Y-16975936D01*
X13743753Y-16975936D02*
X13734229Y-16985460D01*
X13734229Y-16985460D02*
X13715182Y-16994984D01*
X13715182Y-16994984D02*
X13696134Y-16994984D01*
X13696134Y-16994984D02*
X13677086Y-16985460D01*
X13677086Y-16985460D02*
X13667563Y-16975936D01*
X13667563Y-16975936D02*
X13658039Y-16956889D01*
X13658039Y-16956889D02*
X13648515Y-16918793D01*
X13648515Y-16918793D02*
X13648515Y-16871174D01*
X13648515Y-16871174D02*
X13658039Y-16833079D01*
X13658039Y-16833079D02*
X13667563Y-16814031D01*
X13667563Y-16814031D02*
X13677086Y-16804508D01*
X13677086Y-16804508D02*
X13696134Y-16794984D01*
X13848515Y-16975936D02*
X13858039Y-16985460D01*
X13858039Y-16985460D02*
X13848515Y-16994984D01*
X13848515Y-16994984D02*
X13838991Y-16985460D01*
X13838991Y-16985460D02*
X13848515Y-16975936D01*
X13848515Y-16975936D02*
X13848515Y-16994984D01*
X13981848Y-16794984D02*
X14000896Y-16794984D01*
X14000896Y-16794984D02*
X14019944Y-16804508D01*
X14019944Y-16804508D02*
X14029467Y-16814031D01*
X14029467Y-16814031D02*
X14038991Y-16833079D01*
X14038991Y-16833079D02*
X14048515Y-16871174D01*
X14048515Y-16871174D02*
X14048515Y-16918793D01*
X14048515Y-16918793D02*
X14038991Y-16956889D01*
X14038991Y-16956889D02*
X14029467Y-16975936D01*
X14029467Y-16975936D02*
X14019944Y-16985460D01*
X14019944Y-16985460D02*
X14000896Y-16994984D01*
X14000896Y-16994984D02*
X13981848Y-16994984D01*
X13981848Y-16994984D02*
X13962801Y-16985460D01*
X13962801Y-16985460D02*
X13953277Y-16975936D01*
X13953277Y-16975936D02*
X13943753Y-16956889D01*
X13943753Y-16956889D02*
X13934229Y-16918793D01*
X13934229Y-16918793D02*
X13934229Y-16871174D01*
X13934229Y-16871174D02*
X13943753Y-16833079D01*
X13943753Y-16833079D02*
X13953277Y-16814031D01*
X13953277Y-16814031D02*
X13962801Y-16804508D01*
X13962801Y-16804508D02*
X13981848Y-16794984D01*
X14115182Y-16794984D02*
X14238991Y-16794984D01*
X14238991Y-16794984D02*
X14172325Y-16871174D01*
X14172325Y-16871174D02*
X14200896Y-16871174D01*
X14200896Y-16871174D02*
X14219944Y-16880698D01*
X14219944Y-16880698D02*
X14229467Y-16890222D01*
X14229467Y-16890222D02*
X14238991Y-16909270D01*
X14238991Y-16909270D02*
X14238991Y-16956889D01*
X14238991Y-16956889D02*
X14229467Y-16975936D01*
X14229467Y-16975936D02*
X14219944Y-16985460D01*
X14219944Y-16985460D02*
X14200896Y-16994984D01*
X14200896Y-16994984D02*
X14143753Y-16994984D01*
X14143753Y-16994984D02*
X14124706Y-16985460D01*
X14124706Y-16985460D02*
X14115182Y-16975936D01*
X14334229Y-16994984D02*
X14372325Y-16994984D01*
X14372325Y-16994984D02*
X14391372Y-16985460D01*
X14391372Y-16985460D02*
X14400896Y-16975936D01*
X14400896Y-16975936D02*
X14419944Y-16947365D01*
X14419944Y-16947365D02*
X14429467Y-16909270D01*
X14429467Y-16909270D02*
X14429467Y-16833079D01*
X14429467Y-16833079D02*
X14419944Y-16814031D01*
X14419944Y-16814031D02*
X14410420Y-16804508D01*
X14410420Y-16804508D02*
X14391372Y-16794984D01*
X14391372Y-16794984D02*
X14353277Y-16794984D01*
X14353277Y-16794984D02*
X14334229Y-16804508D01*
X14334229Y-16804508D02*
X14324706Y-16814031D01*
X14324706Y-16814031D02*
X14315182Y-16833079D01*
X14315182Y-16833079D02*
X14315182Y-16880698D01*
X14315182Y-16880698D02*
X14324706Y-16899746D01*
X14324706Y-16899746D02*
X14334229Y-16909270D01*
X14334229Y-16909270D02*
X14353277Y-16918793D01*
X14353277Y-16918793D02*
X14391372Y-16918793D01*
X14391372Y-16918793D02*
X14410420Y-16909270D01*
X14410420Y-16909270D02*
X14419944Y-16899746D01*
X14419944Y-16899746D02*
X14429467Y-16880698D01*
X14600896Y-16861650D02*
X14600896Y-16994984D01*
X14553277Y-16785460D02*
X14505658Y-16928317D01*
X14505658Y-16928317D02*
X14629467Y-16928317D01*
X14696134Y-16794984D02*
X14696134Y-16833079D01*
X14772325Y-16794984D02*
X14772325Y-16833079D01*
X15067563Y-17071174D02*
X15058039Y-17061650D01*
X15058039Y-17061650D02*
X15038991Y-17033079D01*
X15038991Y-17033079D02*
X15029468Y-17014031D01*
X15029468Y-17014031D02*
X15019944Y-16985460D01*
X15019944Y-16985460D02*
X15010420Y-16937841D01*
X15010420Y-16937841D02*
X15010420Y-16899746D01*
X15010420Y-16899746D02*
X15019944Y-16852127D01*
X15019944Y-16852127D02*
X15029468Y-16823555D01*
X15029468Y-16823555D02*
X15038991Y-16804508D01*
X15038991Y-16804508D02*
X15058039Y-16775936D01*
X15058039Y-16775936D02*
X15067563Y-16766412D01*
X15248515Y-16994984D02*
X15134229Y-16994984D01*
X15191372Y-16994984D02*
X15191372Y-16794984D01*
X15191372Y-16794984D02*
X15172325Y-16823555D01*
X15172325Y-16823555D02*
X15153277Y-16842603D01*
X15153277Y-16842603D02*
X15134229Y-16852127D01*
X15324706Y-16814031D02*
X15334229Y-16804508D01*
X15334229Y-16804508D02*
X15353277Y-16794984D01*
X15353277Y-16794984D02*
X15400896Y-16794984D01*
X15400896Y-16794984D02*
X15419944Y-16804508D01*
X15419944Y-16804508D02*
X15429468Y-16814031D01*
X15429468Y-16814031D02*
X15438991Y-16833079D01*
X15438991Y-16833079D02*
X15438991Y-16852127D01*
X15438991Y-16852127D02*
X15429468Y-16880698D01*
X15429468Y-16880698D02*
X15315182Y-16994984D01*
X15315182Y-16994984D02*
X15438991Y-16994984D01*
X15677087Y-16994984D02*
X15677087Y-16794984D01*
X15762801Y-16994984D02*
X15762801Y-16890222D01*
X15762801Y-16890222D02*
X15753277Y-16871174D01*
X15753277Y-16871174D02*
X15734230Y-16861650D01*
X15734230Y-16861650D02*
X15705658Y-16861650D01*
X15705658Y-16861650D02*
X15686610Y-16871174D01*
X15686610Y-16871174D02*
X15677087Y-16880698D01*
X15886610Y-16994984D02*
X15867563Y-16985460D01*
X15867563Y-16985460D02*
X15858039Y-16975936D01*
X15858039Y-16975936D02*
X15848515Y-16956889D01*
X15848515Y-16956889D02*
X15848515Y-16899746D01*
X15848515Y-16899746D02*
X15858039Y-16880698D01*
X15858039Y-16880698D02*
X15867563Y-16871174D01*
X15867563Y-16871174D02*
X15886610Y-16861650D01*
X15886610Y-16861650D02*
X15915182Y-16861650D01*
X15915182Y-16861650D02*
X15934230Y-16871174D01*
X15934230Y-16871174D02*
X15943753Y-16880698D01*
X15943753Y-16880698D02*
X15953277Y-16899746D01*
X15953277Y-16899746D02*
X15953277Y-16956889D01*
X15953277Y-16956889D02*
X15943753Y-16975936D01*
X15943753Y-16975936D02*
X15934230Y-16985460D01*
X15934230Y-16985460D02*
X15915182Y-16994984D01*
X15915182Y-16994984D02*
X15886610Y-16994984D01*
X16067563Y-16994984D02*
X16048515Y-16985460D01*
X16048515Y-16985460D02*
X16038991Y-16966412D01*
X16038991Y-16966412D02*
X16038991Y-16794984D01*
X16219944Y-16985460D02*
X16200896Y-16994984D01*
X16200896Y-16994984D02*
X16162801Y-16994984D01*
X16162801Y-16994984D02*
X16143753Y-16985460D01*
X16143753Y-16985460D02*
X16134230Y-16966412D01*
X16134230Y-16966412D02*
X16134230Y-16890222D01*
X16134230Y-16890222D02*
X16143753Y-16871174D01*
X16143753Y-16871174D02*
X16162801Y-16861650D01*
X16162801Y-16861650D02*
X16200896Y-16861650D01*
X16200896Y-16861650D02*
X16219944Y-16871174D01*
X16219944Y-16871174D02*
X16229468Y-16890222D01*
X16229468Y-16890222D02*
X16229468Y-16909270D01*
X16229468Y-16909270D02*
X16134230Y-16928317D01*
X16305658Y-16985460D02*
X16324706Y-16994984D01*
X16324706Y-16994984D02*
X16362801Y-16994984D01*
X16362801Y-16994984D02*
X16381849Y-16985460D01*
X16381849Y-16985460D02*
X16391372Y-16966412D01*
X16391372Y-16966412D02*
X16391372Y-16956889D01*
X16391372Y-16956889D02*
X16381849Y-16937841D01*
X16381849Y-16937841D02*
X16362801Y-16928317D01*
X16362801Y-16928317D02*
X16334230Y-16928317D01*
X16334230Y-16928317D02*
X16315182Y-16918793D01*
X16315182Y-16918793D02*
X16305658Y-16899746D01*
X16305658Y-16899746D02*
X16305658Y-16890222D01*
X16305658Y-16890222D02*
X16315182Y-16871174D01*
X16315182Y-16871174D02*
X16334230Y-16861650D01*
X16334230Y-16861650D02*
X16362801Y-16861650D01*
X16362801Y-16861650D02*
X16381849Y-16871174D01*
X16629468Y-16918793D02*
X16781849Y-16918793D01*
X16705658Y-16994984D02*
X16705658Y-16842603D01*
X17038992Y-16994984D02*
X17077087Y-16994984D01*
X17077087Y-16994984D02*
X17096135Y-16985460D01*
X17096135Y-16985460D02*
X17105658Y-16975936D01*
X17105658Y-16975936D02*
X17124706Y-16947365D01*
X17124706Y-16947365D02*
X17134230Y-16909270D01*
X17134230Y-16909270D02*
X17134230Y-16833079D01*
X17134230Y-16833079D02*
X17124706Y-16814031D01*
X17124706Y-16814031D02*
X17115182Y-16804508D01*
X17115182Y-16804508D02*
X17096135Y-16794984D01*
X17096135Y-16794984D02*
X17058039Y-16794984D01*
X17058039Y-16794984D02*
X17038992Y-16804508D01*
X17038992Y-16804508D02*
X17029468Y-16814031D01*
X17029468Y-16814031D02*
X17019944Y-16833079D01*
X17019944Y-16833079D02*
X17019944Y-16880698D01*
X17019944Y-16880698D02*
X17029468Y-16899746D01*
X17029468Y-16899746D02*
X17038992Y-16909270D01*
X17038992Y-16909270D02*
X17058039Y-16918793D01*
X17058039Y-16918793D02*
X17096135Y-16918793D01*
X17096135Y-16918793D02*
X17115182Y-16909270D01*
X17115182Y-16909270D02*
X17124706Y-16899746D01*
X17124706Y-16899746D02*
X17134230Y-16880698D01*
X17362801Y-16985460D02*
X17381849Y-16994984D01*
X17381849Y-16994984D02*
X17419944Y-16994984D01*
X17419944Y-16994984D02*
X17438992Y-16985460D01*
X17438992Y-16985460D02*
X17448516Y-16966412D01*
X17448516Y-16966412D02*
X17448516Y-16956889D01*
X17448516Y-16956889D02*
X17438992Y-16937841D01*
X17438992Y-16937841D02*
X17419944Y-16928317D01*
X17419944Y-16928317D02*
X17391373Y-16928317D01*
X17391373Y-16928317D02*
X17372325Y-16918793D01*
X17372325Y-16918793D02*
X17362801Y-16899746D01*
X17362801Y-16899746D02*
X17362801Y-16890222D01*
X17362801Y-16890222D02*
X17372325Y-16871174D01*
X17372325Y-16871174D02*
X17391373Y-16861650D01*
X17391373Y-16861650D02*
X17419944Y-16861650D01*
X17419944Y-16861650D02*
X17438992Y-16871174D01*
X17562801Y-16994984D02*
X17543754Y-16985460D01*
X17543754Y-16985460D02*
X17534230Y-16966412D01*
X17534230Y-16966412D02*
X17534230Y-16794984D01*
X17667563Y-16994984D02*
X17648516Y-16985460D01*
X17648516Y-16985460D02*
X17638992Y-16975936D01*
X17638992Y-16975936D02*
X17629468Y-16956889D01*
X17629468Y-16956889D02*
X17629468Y-16899746D01*
X17629468Y-16899746D02*
X17638992Y-16880698D01*
X17638992Y-16880698D02*
X17648516Y-16871174D01*
X17648516Y-16871174D02*
X17667563Y-16861650D01*
X17667563Y-16861650D02*
X17696135Y-16861650D01*
X17696135Y-16861650D02*
X17715182Y-16871174D01*
X17715182Y-16871174D02*
X17724706Y-16880698D01*
X17724706Y-16880698D02*
X17734230Y-16899746D01*
X17734230Y-16899746D02*
X17734230Y-16956889D01*
X17734230Y-16956889D02*
X17724706Y-16975936D01*
X17724706Y-16975936D02*
X17715182Y-16985460D01*
X17715182Y-16985460D02*
X17696135Y-16994984D01*
X17696135Y-16994984D02*
X17667563Y-16994984D01*
X17791373Y-16861650D02*
X17867563Y-16861650D01*
X17819944Y-16794984D02*
X17819944Y-16966412D01*
X17819944Y-16966412D02*
X17829468Y-16985460D01*
X17829468Y-16985460D02*
X17848516Y-16994984D01*
X17848516Y-16994984D02*
X17867563Y-16994984D01*
X17924706Y-16985460D02*
X17943754Y-16994984D01*
X17943754Y-16994984D02*
X17981849Y-16994984D01*
X17981849Y-16994984D02*
X18000897Y-16985460D01*
X18000897Y-16985460D02*
X18010420Y-16966412D01*
X18010420Y-16966412D02*
X18010420Y-16956889D01*
X18010420Y-16956889D02*
X18000897Y-16937841D01*
X18000897Y-16937841D02*
X17981849Y-16928317D01*
X17981849Y-16928317D02*
X17953277Y-16928317D01*
X17953277Y-16928317D02*
X17934230Y-16918793D01*
X17934230Y-16918793D02*
X17924706Y-16899746D01*
X17924706Y-16899746D02*
X17924706Y-16890222D01*
X17924706Y-16890222D02*
X17934230Y-16871174D01*
X17934230Y-16871174D02*
X17953277Y-16861650D01*
X17953277Y-16861650D02*
X17981849Y-16861650D01*
X17981849Y-16861650D02*
X18000897Y-16871174D01*
X18077087Y-17071174D02*
X18086611Y-17061650D01*
X18086611Y-17061650D02*
X18105658Y-17033079D01*
X18105658Y-17033079D02*
X18115182Y-17014031D01*
X18115182Y-17014031D02*
X18124706Y-16985460D01*
X18124706Y-16985460D02*
X18134230Y-16937841D01*
X18134230Y-16937841D02*
X18134230Y-16899746D01*
X18134230Y-16899746D02*
X18124706Y-16852127D01*
X18124706Y-16852127D02*
X18115182Y-16823555D01*
X18115182Y-16823555D02*
X18105658Y-16804508D01*
X18105658Y-16804508D02*
X18086611Y-16775936D01*
X18086611Y-16775936D02*
X18077087Y-16766412D01*
D17*
X11392424Y-17117462D02*
X11492500Y-17217538D01*
X11492500Y-17117462D02*
X11392424Y-17217538D01*
X11492500Y-17167500D02*
G75*
G03*
X11492500Y-17167500I-50038J0D01*
G01*
D11*
X11858039Y-17258984D02*
X11743753Y-17258984D01*
X11800896Y-17258984D02*
X11800896Y-17058984D01*
X11800896Y-17058984D02*
X11781848Y-17087555D01*
X11781848Y-17087555D02*
X11762801Y-17106603D01*
X11762801Y-17106603D02*
X11743753Y-17116127D01*
X11943753Y-17239936D02*
X11953277Y-17249460D01*
X11953277Y-17249460D02*
X11943753Y-17258984D01*
X11943753Y-17258984D02*
X11934229Y-17249460D01*
X11934229Y-17249460D02*
X11943753Y-17239936D01*
X11943753Y-17239936D02*
X11943753Y-17258984D01*
X12077086Y-17058984D02*
X12096134Y-17058984D01*
X12096134Y-17058984D02*
X12115182Y-17068508D01*
X12115182Y-17068508D02*
X12124705Y-17078031D01*
X12124705Y-17078031D02*
X12134229Y-17097079D01*
X12134229Y-17097079D02*
X12143753Y-17135174D01*
X12143753Y-17135174D02*
X12143753Y-17182793D01*
X12143753Y-17182793D02*
X12134229Y-17220889D01*
X12134229Y-17220889D02*
X12124705Y-17239936D01*
X12124705Y-17239936D02*
X12115182Y-17249460D01*
X12115182Y-17249460D02*
X12096134Y-17258984D01*
X12096134Y-17258984D02*
X12077086Y-17258984D01*
X12077086Y-17258984D02*
X12058039Y-17249460D01*
X12058039Y-17249460D02*
X12048515Y-17239936D01*
X12048515Y-17239936D02*
X12038991Y-17220889D01*
X12038991Y-17220889D02*
X12029467Y-17182793D01*
X12029467Y-17182793D02*
X12029467Y-17135174D01*
X12029467Y-17135174D02*
X12038991Y-17097079D01*
X12038991Y-17097079D02*
X12048515Y-17078031D01*
X12048515Y-17078031D02*
X12058039Y-17068508D01*
X12058039Y-17068508D02*
X12077086Y-17058984D01*
X12267562Y-17058984D02*
X12286610Y-17058984D01*
X12286610Y-17058984D02*
X12305658Y-17068508D01*
X12305658Y-17068508D02*
X12315182Y-17078031D01*
X12315182Y-17078031D02*
X12324705Y-17097079D01*
X12324705Y-17097079D02*
X12334229Y-17135174D01*
X12334229Y-17135174D02*
X12334229Y-17182793D01*
X12334229Y-17182793D02*
X12324705Y-17220889D01*
X12324705Y-17220889D02*
X12315182Y-17239936D01*
X12315182Y-17239936D02*
X12305658Y-17249460D01*
X12305658Y-17249460D02*
X12286610Y-17258984D01*
X12286610Y-17258984D02*
X12267562Y-17258984D01*
X12267562Y-17258984D02*
X12248515Y-17249460D01*
X12248515Y-17249460D02*
X12238991Y-17239936D01*
X12238991Y-17239936D02*
X12229467Y-17220889D01*
X12229467Y-17220889D02*
X12219943Y-17182793D01*
X12219943Y-17182793D02*
X12219943Y-17135174D01*
X12219943Y-17135174D02*
X12229467Y-17097079D01*
X12229467Y-17097079D02*
X12238991Y-17078031D01*
X12238991Y-17078031D02*
X12248515Y-17068508D01*
X12248515Y-17068508D02*
X12267562Y-17058984D01*
X12524705Y-17258984D02*
X12410420Y-17258984D01*
X12467562Y-17258984D02*
X12467562Y-17058984D01*
X12467562Y-17058984D02*
X12448515Y-17087555D01*
X12448515Y-17087555D02*
X12429467Y-17106603D01*
X12429467Y-17106603D02*
X12410420Y-17116127D01*
X12610420Y-17258984D02*
X12610420Y-17125650D01*
X12610420Y-17144698D02*
X12619943Y-17135174D01*
X12619943Y-17135174D02*
X12638991Y-17125650D01*
X12638991Y-17125650D02*
X12667563Y-17125650D01*
X12667563Y-17125650D02*
X12686610Y-17135174D01*
X12686610Y-17135174D02*
X12696134Y-17154222D01*
X12696134Y-17154222D02*
X12696134Y-17258984D01*
X12696134Y-17154222D02*
X12705658Y-17135174D01*
X12705658Y-17135174D02*
X12724705Y-17125650D01*
X12724705Y-17125650D02*
X12753277Y-17125650D01*
X12753277Y-17125650D02*
X12772324Y-17135174D01*
X12772324Y-17135174D02*
X12781848Y-17154222D01*
X12781848Y-17154222D02*
X12781848Y-17258984D01*
X12877086Y-17258984D02*
X12877086Y-17125650D01*
X12877086Y-17144698D02*
X12886610Y-17135174D01*
X12886610Y-17135174D02*
X12905658Y-17125650D01*
X12905658Y-17125650D02*
X12934229Y-17125650D01*
X12934229Y-17125650D02*
X12953277Y-17135174D01*
X12953277Y-17135174D02*
X12962801Y-17154222D01*
X12962801Y-17154222D02*
X12962801Y-17258984D01*
X12962801Y-17154222D02*
X12972324Y-17135174D01*
X12972324Y-17135174D02*
X12991372Y-17125650D01*
X12991372Y-17125650D02*
X13019943Y-17125650D01*
X13019943Y-17125650D02*
X13038991Y-17135174D01*
X13038991Y-17135174D02*
X13048515Y-17154222D01*
X13048515Y-17154222D02*
X13048515Y-17258984D01*
X13438991Y-17049460D02*
X13267563Y-17306603D01*
X13696134Y-17058984D02*
X13715182Y-17058984D01*
X13715182Y-17058984D02*
X13734229Y-17068508D01*
X13734229Y-17068508D02*
X13743753Y-17078031D01*
X13743753Y-17078031D02*
X13753277Y-17097079D01*
X13753277Y-17097079D02*
X13762801Y-17135174D01*
X13762801Y-17135174D02*
X13762801Y-17182793D01*
X13762801Y-17182793D02*
X13753277Y-17220889D01*
X13753277Y-17220889D02*
X13743753Y-17239936D01*
X13743753Y-17239936D02*
X13734229Y-17249460D01*
X13734229Y-17249460D02*
X13715182Y-17258984D01*
X13715182Y-17258984D02*
X13696134Y-17258984D01*
X13696134Y-17258984D02*
X13677086Y-17249460D01*
X13677086Y-17249460D02*
X13667563Y-17239936D01*
X13667563Y-17239936D02*
X13658039Y-17220889D01*
X13658039Y-17220889D02*
X13648515Y-17182793D01*
X13648515Y-17182793D02*
X13648515Y-17135174D01*
X13648515Y-17135174D02*
X13658039Y-17097079D01*
X13658039Y-17097079D02*
X13667563Y-17078031D01*
X13667563Y-17078031D02*
X13677086Y-17068508D01*
X13677086Y-17068508D02*
X13696134Y-17058984D01*
X13848515Y-17239936D02*
X13858039Y-17249460D01*
X13858039Y-17249460D02*
X13848515Y-17258984D01*
X13848515Y-17258984D02*
X13838991Y-17249460D01*
X13838991Y-17249460D02*
X13848515Y-17239936D01*
X13848515Y-17239936D02*
X13848515Y-17258984D01*
X13981848Y-17058984D02*
X14000896Y-17058984D01*
X14000896Y-17058984D02*
X14019944Y-17068508D01*
X14019944Y-17068508D02*
X14029467Y-17078031D01*
X14029467Y-17078031D02*
X14038991Y-17097079D01*
X14038991Y-17097079D02*
X14048515Y-17135174D01*
X14048515Y-17135174D02*
X14048515Y-17182793D01*
X14048515Y-17182793D02*
X14038991Y-17220889D01*
X14038991Y-17220889D02*
X14029467Y-17239936D01*
X14029467Y-17239936D02*
X14019944Y-17249460D01*
X14019944Y-17249460D02*
X14000896Y-17258984D01*
X14000896Y-17258984D02*
X13981848Y-17258984D01*
X13981848Y-17258984D02*
X13962801Y-17249460D01*
X13962801Y-17249460D02*
X13953277Y-17239936D01*
X13953277Y-17239936D02*
X13943753Y-17220889D01*
X13943753Y-17220889D02*
X13934229Y-17182793D01*
X13934229Y-17182793D02*
X13934229Y-17135174D01*
X13934229Y-17135174D02*
X13943753Y-17097079D01*
X13943753Y-17097079D02*
X13953277Y-17078031D01*
X13953277Y-17078031D02*
X13962801Y-17068508D01*
X13962801Y-17068508D02*
X13981848Y-17058984D01*
X14115182Y-17058984D02*
X14238991Y-17058984D01*
X14238991Y-17058984D02*
X14172325Y-17135174D01*
X14172325Y-17135174D02*
X14200896Y-17135174D01*
X14200896Y-17135174D02*
X14219944Y-17144698D01*
X14219944Y-17144698D02*
X14229467Y-17154222D01*
X14229467Y-17154222D02*
X14238991Y-17173270D01*
X14238991Y-17173270D02*
X14238991Y-17220889D01*
X14238991Y-17220889D02*
X14229467Y-17239936D01*
X14229467Y-17239936D02*
X14219944Y-17249460D01*
X14219944Y-17249460D02*
X14200896Y-17258984D01*
X14200896Y-17258984D02*
X14143753Y-17258984D01*
X14143753Y-17258984D02*
X14124706Y-17249460D01*
X14124706Y-17249460D02*
X14115182Y-17239936D01*
X14334229Y-17258984D02*
X14372325Y-17258984D01*
X14372325Y-17258984D02*
X14391372Y-17249460D01*
X14391372Y-17249460D02*
X14400896Y-17239936D01*
X14400896Y-17239936D02*
X14419944Y-17211365D01*
X14419944Y-17211365D02*
X14429467Y-17173270D01*
X14429467Y-17173270D02*
X14429467Y-17097079D01*
X14429467Y-17097079D02*
X14419944Y-17078031D01*
X14419944Y-17078031D02*
X14410420Y-17068508D01*
X14410420Y-17068508D02*
X14391372Y-17058984D01*
X14391372Y-17058984D02*
X14353277Y-17058984D01*
X14353277Y-17058984D02*
X14334229Y-17068508D01*
X14334229Y-17068508D02*
X14324706Y-17078031D01*
X14324706Y-17078031D02*
X14315182Y-17097079D01*
X14315182Y-17097079D02*
X14315182Y-17144698D01*
X14315182Y-17144698D02*
X14324706Y-17163746D01*
X14324706Y-17163746D02*
X14334229Y-17173270D01*
X14334229Y-17173270D02*
X14353277Y-17182793D01*
X14353277Y-17182793D02*
X14391372Y-17182793D01*
X14391372Y-17182793D02*
X14410420Y-17173270D01*
X14410420Y-17173270D02*
X14419944Y-17163746D01*
X14419944Y-17163746D02*
X14429467Y-17144698D01*
X14600896Y-17125650D02*
X14600896Y-17258984D01*
X14553277Y-17049460D02*
X14505658Y-17192317D01*
X14505658Y-17192317D02*
X14629467Y-17192317D01*
X14696134Y-17058984D02*
X14696134Y-17097079D01*
X14772325Y-17058984D02*
X14772325Y-17097079D01*
X15067563Y-17335174D02*
X15058039Y-17325650D01*
X15058039Y-17325650D02*
X15038991Y-17297079D01*
X15038991Y-17297079D02*
X15029468Y-17278031D01*
X15029468Y-17278031D02*
X15019944Y-17249460D01*
X15019944Y-17249460D02*
X15010420Y-17201841D01*
X15010420Y-17201841D02*
X15010420Y-17163746D01*
X15010420Y-17163746D02*
X15019944Y-17116127D01*
X15019944Y-17116127D02*
X15029468Y-17087555D01*
X15029468Y-17087555D02*
X15038991Y-17068508D01*
X15038991Y-17068508D02*
X15058039Y-17039936D01*
X15058039Y-17039936D02*
X15067563Y-17030412D01*
X15172325Y-17144698D02*
X15153277Y-17135174D01*
X15153277Y-17135174D02*
X15143753Y-17125650D01*
X15143753Y-17125650D02*
X15134229Y-17106603D01*
X15134229Y-17106603D02*
X15134229Y-17097079D01*
X15134229Y-17097079D02*
X15143753Y-17078031D01*
X15143753Y-17078031D02*
X15153277Y-17068508D01*
X15153277Y-17068508D02*
X15172325Y-17058984D01*
X15172325Y-17058984D02*
X15210420Y-17058984D01*
X15210420Y-17058984D02*
X15229468Y-17068508D01*
X15229468Y-17068508D02*
X15238991Y-17078031D01*
X15238991Y-17078031D02*
X15248515Y-17097079D01*
X15248515Y-17097079D02*
X15248515Y-17106603D01*
X15248515Y-17106603D02*
X15238991Y-17125650D01*
X15238991Y-17125650D02*
X15229468Y-17135174D01*
X15229468Y-17135174D02*
X15210420Y-17144698D01*
X15210420Y-17144698D02*
X15172325Y-17144698D01*
X15172325Y-17144698D02*
X15153277Y-17154222D01*
X15153277Y-17154222D02*
X15143753Y-17163746D01*
X15143753Y-17163746D02*
X15134229Y-17182793D01*
X15134229Y-17182793D02*
X15134229Y-17220889D01*
X15134229Y-17220889D02*
X15143753Y-17239936D01*
X15143753Y-17239936D02*
X15153277Y-17249460D01*
X15153277Y-17249460D02*
X15172325Y-17258984D01*
X15172325Y-17258984D02*
X15210420Y-17258984D01*
X15210420Y-17258984D02*
X15229468Y-17249460D01*
X15229468Y-17249460D02*
X15238991Y-17239936D01*
X15238991Y-17239936D02*
X15248515Y-17220889D01*
X15248515Y-17220889D02*
X15248515Y-17182793D01*
X15248515Y-17182793D02*
X15238991Y-17163746D01*
X15238991Y-17163746D02*
X15229468Y-17154222D01*
X15229468Y-17154222D02*
X15210420Y-17144698D01*
X15486610Y-17258984D02*
X15486610Y-17058984D01*
X15572325Y-17258984D02*
X15572325Y-17154222D01*
X15572325Y-17154222D02*
X15562801Y-17135174D01*
X15562801Y-17135174D02*
X15543753Y-17125650D01*
X15543753Y-17125650D02*
X15515182Y-17125650D01*
X15515182Y-17125650D02*
X15496134Y-17135174D01*
X15496134Y-17135174D02*
X15486610Y-17144698D01*
X15696134Y-17258984D02*
X15677087Y-17249460D01*
X15677087Y-17249460D02*
X15667563Y-17239936D01*
X15667563Y-17239936D02*
X15658039Y-17220889D01*
X15658039Y-17220889D02*
X15658039Y-17163746D01*
X15658039Y-17163746D02*
X15667563Y-17144698D01*
X15667563Y-17144698D02*
X15677087Y-17135174D01*
X15677087Y-17135174D02*
X15696134Y-17125650D01*
X15696134Y-17125650D02*
X15724706Y-17125650D01*
X15724706Y-17125650D02*
X15743753Y-17135174D01*
X15743753Y-17135174D02*
X15753277Y-17144698D01*
X15753277Y-17144698D02*
X15762801Y-17163746D01*
X15762801Y-17163746D02*
X15762801Y-17220889D01*
X15762801Y-17220889D02*
X15753277Y-17239936D01*
X15753277Y-17239936D02*
X15743753Y-17249460D01*
X15743753Y-17249460D02*
X15724706Y-17258984D01*
X15724706Y-17258984D02*
X15696134Y-17258984D01*
X15877087Y-17258984D02*
X15858039Y-17249460D01*
X15858039Y-17249460D02*
X15848515Y-17230412D01*
X15848515Y-17230412D02*
X15848515Y-17058984D01*
X16029468Y-17249460D02*
X16010420Y-17258984D01*
X16010420Y-17258984D02*
X15972325Y-17258984D01*
X15972325Y-17258984D02*
X15953277Y-17249460D01*
X15953277Y-17249460D02*
X15943753Y-17230412D01*
X15943753Y-17230412D02*
X15943753Y-17154222D01*
X15943753Y-17154222D02*
X15953277Y-17135174D01*
X15953277Y-17135174D02*
X15972325Y-17125650D01*
X15972325Y-17125650D02*
X16010420Y-17125650D01*
X16010420Y-17125650D02*
X16029468Y-17135174D01*
X16029468Y-17135174D02*
X16038991Y-17154222D01*
X16038991Y-17154222D02*
X16038991Y-17173270D01*
X16038991Y-17173270D02*
X15943753Y-17192317D01*
X16115182Y-17249460D02*
X16134230Y-17258984D01*
X16134230Y-17258984D02*
X16172325Y-17258984D01*
X16172325Y-17258984D02*
X16191372Y-17249460D01*
X16191372Y-17249460D02*
X16200896Y-17230412D01*
X16200896Y-17230412D02*
X16200896Y-17220889D01*
X16200896Y-17220889D02*
X16191372Y-17201841D01*
X16191372Y-17201841D02*
X16172325Y-17192317D01*
X16172325Y-17192317D02*
X16143753Y-17192317D01*
X16143753Y-17192317D02*
X16124706Y-17182793D01*
X16124706Y-17182793D02*
X16115182Y-17163746D01*
X16115182Y-17163746D02*
X16115182Y-17154222D01*
X16115182Y-17154222D02*
X16124706Y-17135174D01*
X16124706Y-17135174D02*
X16143753Y-17125650D01*
X16143753Y-17125650D02*
X16172325Y-17125650D01*
X16172325Y-17125650D02*
X16191372Y-17135174D01*
X16267563Y-17335174D02*
X16277087Y-17325650D01*
X16277087Y-17325650D02*
X16296134Y-17297079D01*
X16296134Y-17297079D02*
X16305658Y-17278031D01*
X16305658Y-17278031D02*
X16315182Y-17249460D01*
X16315182Y-17249460D02*
X16324706Y-17201841D01*
X16324706Y-17201841D02*
X16324706Y-17163746D01*
X16324706Y-17163746D02*
X16315182Y-17116127D01*
X16315182Y-17116127D02*
X16305658Y-17087555D01*
X16305658Y-17087555D02*
X16296134Y-17068508D01*
X16296134Y-17068508D02*
X16277087Y-17039936D01*
X16277087Y-17039936D02*
X16267563Y-17030412D01*
D18*
X11382500Y-17376500D02*
X11492500Y-17486500D01*
X11492500Y-17376500D02*
X11382500Y-17486500D01*
X11437500Y-17376500D02*
X11437500Y-17486500D01*
X11382500Y-17431500D02*
X11492500Y-17431500D01*
D11*
X11858039Y-17522984D02*
X11743753Y-17522984D01*
X11800896Y-17522984D02*
X11800896Y-17322984D01*
X11800896Y-17322984D02*
X11781848Y-17351555D01*
X11781848Y-17351555D02*
X11762801Y-17370603D01*
X11762801Y-17370603D02*
X11743753Y-17380127D01*
X11943753Y-17503936D02*
X11953277Y-17513460D01*
X11953277Y-17513460D02*
X11943753Y-17522984D01*
X11943753Y-17522984D02*
X11934229Y-17513460D01*
X11934229Y-17513460D02*
X11943753Y-17503936D01*
X11943753Y-17503936D02*
X11943753Y-17522984D01*
X12143753Y-17522984D02*
X12029467Y-17522984D01*
X12086610Y-17522984D02*
X12086610Y-17322984D01*
X12086610Y-17322984D02*
X12067562Y-17351555D01*
X12067562Y-17351555D02*
X12048515Y-17370603D01*
X12048515Y-17370603D02*
X12029467Y-17380127D01*
X12267562Y-17322984D02*
X12286610Y-17322984D01*
X12286610Y-17322984D02*
X12305658Y-17332508D01*
X12305658Y-17332508D02*
X12315182Y-17342031D01*
X12315182Y-17342031D02*
X12324705Y-17361079D01*
X12324705Y-17361079D02*
X12334229Y-17399174D01*
X12334229Y-17399174D02*
X12334229Y-17446793D01*
X12334229Y-17446793D02*
X12324705Y-17484889D01*
X12324705Y-17484889D02*
X12315182Y-17503936D01*
X12315182Y-17503936D02*
X12305658Y-17513460D01*
X12305658Y-17513460D02*
X12286610Y-17522984D01*
X12286610Y-17522984D02*
X12267562Y-17522984D01*
X12267562Y-17522984D02*
X12248515Y-17513460D01*
X12248515Y-17513460D02*
X12238991Y-17503936D01*
X12238991Y-17503936D02*
X12229467Y-17484889D01*
X12229467Y-17484889D02*
X12219943Y-17446793D01*
X12219943Y-17446793D02*
X12219943Y-17399174D01*
X12219943Y-17399174D02*
X12229467Y-17361079D01*
X12229467Y-17361079D02*
X12238991Y-17342031D01*
X12238991Y-17342031D02*
X12248515Y-17332508D01*
X12248515Y-17332508D02*
X12267562Y-17322984D01*
X12458039Y-17322984D02*
X12477086Y-17322984D01*
X12477086Y-17322984D02*
X12496134Y-17332508D01*
X12496134Y-17332508D02*
X12505658Y-17342031D01*
X12505658Y-17342031D02*
X12515182Y-17361079D01*
X12515182Y-17361079D02*
X12524705Y-17399174D01*
X12524705Y-17399174D02*
X12524705Y-17446793D01*
X12524705Y-17446793D02*
X12515182Y-17484889D01*
X12515182Y-17484889D02*
X12505658Y-17503936D01*
X12505658Y-17503936D02*
X12496134Y-17513460D01*
X12496134Y-17513460D02*
X12477086Y-17522984D01*
X12477086Y-17522984D02*
X12458039Y-17522984D01*
X12458039Y-17522984D02*
X12438991Y-17513460D01*
X12438991Y-17513460D02*
X12429467Y-17503936D01*
X12429467Y-17503936D02*
X12419943Y-17484889D01*
X12419943Y-17484889D02*
X12410420Y-17446793D01*
X12410420Y-17446793D02*
X12410420Y-17399174D01*
X12410420Y-17399174D02*
X12419943Y-17361079D01*
X12419943Y-17361079D02*
X12429467Y-17342031D01*
X12429467Y-17342031D02*
X12438991Y-17332508D01*
X12438991Y-17332508D02*
X12458039Y-17322984D01*
X12610420Y-17522984D02*
X12610420Y-17389650D01*
X12610420Y-17408698D02*
X12619943Y-17399174D01*
X12619943Y-17399174D02*
X12638991Y-17389650D01*
X12638991Y-17389650D02*
X12667563Y-17389650D01*
X12667563Y-17389650D02*
X12686610Y-17399174D01*
X12686610Y-17399174D02*
X12696134Y-17418222D01*
X12696134Y-17418222D02*
X12696134Y-17522984D01*
X12696134Y-17418222D02*
X12705658Y-17399174D01*
X12705658Y-17399174D02*
X12724705Y-17389650D01*
X12724705Y-17389650D02*
X12753277Y-17389650D01*
X12753277Y-17389650D02*
X12772324Y-17399174D01*
X12772324Y-17399174D02*
X12781848Y-17418222D01*
X12781848Y-17418222D02*
X12781848Y-17522984D01*
X12877086Y-17522984D02*
X12877086Y-17389650D01*
X12877086Y-17408698D02*
X12886610Y-17399174D01*
X12886610Y-17399174D02*
X12905658Y-17389650D01*
X12905658Y-17389650D02*
X12934229Y-17389650D01*
X12934229Y-17389650D02*
X12953277Y-17399174D01*
X12953277Y-17399174D02*
X12962801Y-17418222D01*
X12962801Y-17418222D02*
X12962801Y-17522984D01*
X12962801Y-17418222D02*
X12972324Y-17399174D01*
X12972324Y-17399174D02*
X12991372Y-17389650D01*
X12991372Y-17389650D02*
X13019943Y-17389650D01*
X13019943Y-17389650D02*
X13038991Y-17399174D01*
X13038991Y-17399174D02*
X13048515Y-17418222D01*
X13048515Y-17418222D02*
X13048515Y-17522984D01*
X13438991Y-17313460D02*
X13267563Y-17570603D01*
X13696134Y-17322984D02*
X13715182Y-17322984D01*
X13715182Y-17322984D02*
X13734229Y-17332508D01*
X13734229Y-17332508D02*
X13743753Y-17342031D01*
X13743753Y-17342031D02*
X13753277Y-17361079D01*
X13753277Y-17361079D02*
X13762801Y-17399174D01*
X13762801Y-17399174D02*
X13762801Y-17446793D01*
X13762801Y-17446793D02*
X13753277Y-17484889D01*
X13753277Y-17484889D02*
X13743753Y-17503936D01*
X13743753Y-17503936D02*
X13734229Y-17513460D01*
X13734229Y-17513460D02*
X13715182Y-17522984D01*
X13715182Y-17522984D02*
X13696134Y-17522984D01*
X13696134Y-17522984D02*
X13677086Y-17513460D01*
X13677086Y-17513460D02*
X13667563Y-17503936D01*
X13667563Y-17503936D02*
X13658039Y-17484889D01*
X13658039Y-17484889D02*
X13648515Y-17446793D01*
X13648515Y-17446793D02*
X13648515Y-17399174D01*
X13648515Y-17399174D02*
X13658039Y-17361079D01*
X13658039Y-17361079D02*
X13667563Y-17342031D01*
X13667563Y-17342031D02*
X13677086Y-17332508D01*
X13677086Y-17332508D02*
X13696134Y-17322984D01*
X13848515Y-17503936D02*
X13858039Y-17513460D01*
X13858039Y-17513460D02*
X13848515Y-17522984D01*
X13848515Y-17522984D02*
X13838991Y-17513460D01*
X13838991Y-17513460D02*
X13848515Y-17503936D01*
X13848515Y-17503936D02*
X13848515Y-17522984D01*
X13981848Y-17322984D02*
X14000896Y-17322984D01*
X14000896Y-17322984D02*
X14019944Y-17332508D01*
X14019944Y-17332508D02*
X14029467Y-17342031D01*
X14029467Y-17342031D02*
X14038991Y-17361079D01*
X14038991Y-17361079D02*
X14048515Y-17399174D01*
X14048515Y-17399174D02*
X14048515Y-17446793D01*
X14048515Y-17446793D02*
X14038991Y-17484889D01*
X14038991Y-17484889D02*
X14029467Y-17503936D01*
X14029467Y-17503936D02*
X14019944Y-17513460D01*
X14019944Y-17513460D02*
X14000896Y-17522984D01*
X14000896Y-17522984D02*
X13981848Y-17522984D01*
X13981848Y-17522984D02*
X13962801Y-17513460D01*
X13962801Y-17513460D02*
X13953277Y-17503936D01*
X13953277Y-17503936D02*
X13943753Y-17484889D01*
X13943753Y-17484889D02*
X13934229Y-17446793D01*
X13934229Y-17446793D02*
X13934229Y-17399174D01*
X13934229Y-17399174D02*
X13943753Y-17361079D01*
X13943753Y-17361079D02*
X13953277Y-17342031D01*
X13953277Y-17342031D02*
X13962801Y-17332508D01*
X13962801Y-17332508D02*
X13981848Y-17322984D01*
X14219944Y-17389650D02*
X14219944Y-17522984D01*
X14172325Y-17313460D02*
X14124706Y-17456317D01*
X14124706Y-17456317D02*
X14248515Y-17456317D01*
X14305658Y-17322984D02*
X14429467Y-17322984D01*
X14429467Y-17322984D02*
X14362801Y-17399174D01*
X14362801Y-17399174D02*
X14391372Y-17399174D01*
X14391372Y-17399174D02*
X14410420Y-17408698D01*
X14410420Y-17408698D02*
X14419944Y-17418222D01*
X14419944Y-17418222D02*
X14429467Y-17437270D01*
X14429467Y-17437270D02*
X14429467Y-17484889D01*
X14429467Y-17484889D02*
X14419944Y-17503936D01*
X14419944Y-17503936D02*
X14410420Y-17513460D01*
X14410420Y-17513460D02*
X14391372Y-17522984D01*
X14391372Y-17522984D02*
X14334229Y-17522984D01*
X14334229Y-17522984D02*
X14315182Y-17513460D01*
X14315182Y-17513460D02*
X14305658Y-17503936D01*
X14496134Y-17322984D02*
X14619944Y-17322984D01*
X14619944Y-17322984D02*
X14553277Y-17399174D01*
X14553277Y-17399174D02*
X14581848Y-17399174D01*
X14581848Y-17399174D02*
X14600896Y-17408698D01*
X14600896Y-17408698D02*
X14610420Y-17418222D01*
X14610420Y-17418222D02*
X14619944Y-17437270D01*
X14619944Y-17437270D02*
X14619944Y-17484889D01*
X14619944Y-17484889D02*
X14610420Y-17503936D01*
X14610420Y-17503936D02*
X14600896Y-17513460D01*
X14600896Y-17513460D02*
X14581848Y-17522984D01*
X14581848Y-17522984D02*
X14524706Y-17522984D01*
X14524706Y-17522984D02*
X14505658Y-17513460D01*
X14505658Y-17513460D02*
X14496134Y-17503936D01*
X14696134Y-17322984D02*
X14696134Y-17361079D01*
X14772325Y-17322984D02*
X14772325Y-17361079D01*
X15067563Y-17599174D02*
X15058039Y-17589650D01*
X15058039Y-17589650D02*
X15038991Y-17561079D01*
X15038991Y-17561079D02*
X15029468Y-17542031D01*
X15029468Y-17542031D02*
X15019944Y-17513460D01*
X15019944Y-17513460D02*
X15010420Y-17465841D01*
X15010420Y-17465841D02*
X15010420Y-17427746D01*
X15010420Y-17427746D02*
X15019944Y-17380127D01*
X15019944Y-17380127D02*
X15029468Y-17351555D01*
X15029468Y-17351555D02*
X15038991Y-17332508D01*
X15038991Y-17332508D02*
X15058039Y-17303936D01*
X15058039Y-17303936D02*
X15067563Y-17294412D01*
X15248515Y-17522984D02*
X15134229Y-17522984D01*
X15191372Y-17522984D02*
X15191372Y-17322984D01*
X15191372Y-17322984D02*
X15172325Y-17351555D01*
X15172325Y-17351555D02*
X15153277Y-17370603D01*
X15153277Y-17370603D02*
X15134229Y-17380127D01*
X15419944Y-17389650D02*
X15419944Y-17522984D01*
X15372325Y-17313460D02*
X15324706Y-17456317D01*
X15324706Y-17456317D02*
X15448515Y-17456317D01*
X15677087Y-17522984D02*
X15677087Y-17322984D01*
X15762801Y-17522984D02*
X15762801Y-17418222D01*
X15762801Y-17418222D02*
X15753277Y-17399174D01*
X15753277Y-17399174D02*
X15734230Y-17389650D01*
X15734230Y-17389650D02*
X15705658Y-17389650D01*
X15705658Y-17389650D02*
X15686610Y-17399174D01*
X15686610Y-17399174D02*
X15677087Y-17408698D01*
X15886610Y-17522984D02*
X15867563Y-17513460D01*
X15867563Y-17513460D02*
X15858039Y-17503936D01*
X15858039Y-17503936D02*
X15848515Y-17484889D01*
X15848515Y-17484889D02*
X15848515Y-17427746D01*
X15848515Y-17427746D02*
X15858039Y-17408698D01*
X15858039Y-17408698D02*
X15867563Y-17399174D01*
X15867563Y-17399174D02*
X15886610Y-17389650D01*
X15886610Y-17389650D02*
X15915182Y-17389650D01*
X15915182Y-17389650D02*
X15934230Y-17399174D01*
X15934230Y-17399174D02*
X15943753Y-17408698D01*
X15943753Y-17408698D02*
X15953277Y-17427746D01*
X15953277Y-17427746D02*
X15953277Y-17484889D01*
X15953277Y-17484889D02*
X15943753Y-17503936D01*
X15943753Y-17503936D02*
X15934230Y-17513460D01*
X15934230Y-17513460D02*
X15915182Y-17522984D01*
X15915182Y-17522984D02*
X15886610Y-17522984D01*
X16067563Y-17522984D02*
X16048515Y-17513460D01*
X16048515Y-17513460D02*
X16038991Y-17494412D01*
X16038991Y-17494412D02*
X16038991Y-17322984D01*
X16219944Y-17513460D02*
X16200896Y-17522984D01*
X16200896Y-17522984D02*
X16162801Y-17522984D01*
X16162801Y-17522984D02*
X16143753Y-17513460D01*
X16143753Y-17513460D02*
X16134230Y-17494412D01*
X16134230Y-17494412D02*
X16134230Y-17418222D01*
X16134230Y-17418222D02*
X16143753Y-17399174D01*
X16143753Y-17399174D02*
X16162801Y-17389650D01*
X16162801Y-17389650D02*
X16200896Y-17389650D01*
X16200896Y-17389650D02*
X16219944Y-17399174D01*
X16219944Y-17399174D02*
X16229468Y-17418222D01*
X16229468Y-17418222D02*
X16229468Y-17437270D01*
X16229468Y-17437270D02*
X16134230Y-17456317D01*
X16305658Y-17513460D02*
X16324706Y-17522984D01*
X16324706Y-17522984D02*
X16362801Y-17522984D01*
X16362801Y-17522984D02*
X16381849Y-17513460D01*
X16381849Y-17513460D02*
X16391372Y-17494412D01*
X16391372Y-17494412D02*
X16391372Y-17484889D01*
X16391372Y-17484889D02*
X16381849Y-17465841D01*
X16381849Y-17465841D02*
X16362801Y-17456317D01*
X16362801Y-17456317D02*
X16334230Y-17456317D01*
X16334230Y-17456317D02*
X16315182Y-17446793D01*
X16315182Y-17446793D02*
X16305658Y-17427746D01*
X16305658Y-17427746D02*
X16305658Y-17418222D01*
X16305658Y-17418222D02*
X16315182Y-17399174D01*
X16315182Y-17399174D02*
X16334230Y-17389650D01*
X16334230Y-17389650D02*
X16362801Y-17389650D01*
X16362801Y-17389650D02*
X16381849Y-17399174D01*
X16458039Y-17599174D02*
X16467563Y-17589650D01*
X16467563Y-17589650D02*
X16486611Y-17561079D01*
X16486611Y-17561079D02*
X16496134Y-17542031D01*
X16496134Y-17542031D02*
X16505658Y-17513460D01*
X16505658Y-17513460D02*
X16515182Y-17465841D01*
X16515182Y-17465841D02*
X16515182Y-17427746D01*
X16515182Y-17427746D02*
X16505658Y-17380127D01*
X16505658Y-17380127D02*
X16496134Y-17351555D01*
X16496134Y-17351555D02*
X16486611Y-17332508D01*
X16486611Y-17332508D02*
X16467563Y-17303936D01*
X16467563Y-17303936D02*
X16458039Y-17294412D01*
D19*
X11367500Y-17633000D02*
X11492500Y-17758000D01*
X11492500Y-17633000D02*
X11367500Y-17758000D01*
X11474195Y-17739695D02*
X11474195Y-17651305D01*
X11385805Y-17651305D01*
X11385805Y-17739695D01*
X11474195Y-17739695D01*
D11*
X11858039Y-17786984D02*
X11743753Y-17786984D01*
X11800896Y-17786984D02*
X11800896Y-17586984D01*
X11800896Y-17586984D02*
X11781848Y-17615555D01*
X11781848Y-17615555D02*
X11762801Y-17634603D01*
X11762801Y-17634603D02*
X11743753Y-17644127D01*
X11943753Y-17767936D02*
X11953277Y-17777460D01*
X11953277Y-17777460D02*
X11943753Y-17786984D01*
X11943753Y-17786984D02*
X11934229Y-17777460D01*
X11934229Y-17777460D02*
X11943753Y-17767936D01*
X11943753Y-17767936D02*
X11943753Y-17786984D01*
X12029467Y-17606031D02*
X12038991Y-17596508D01*
X12038991Y-17596508D02*
X12058039Y-17586984D01*
X12058039Y-17586984D02*
X12105658Y-17586984D01*
X12105658Y-17586984D02*
X12124705Y-17596508D01*
X12124705Y-17596508D02*
X12134229Y-17606031D01*
X12134229Y-17606031D02*
X12143753Y-17625079D01*
X12143753Y-17625079D02*
X12143753Y-17644127D01*
X12143753Y-17644127D02*
X12134229Y-17672698D01*
X12134229Y-17672698D02*
X12019943Y-17786984D01*
X12019943Y-17786984D02*
X12143753Y-17786984D01*
X12324705Y-17586984D02*
X12229467Y-17586984D01*
X12229467Y-17586984D02*
X12219943Y-17682222D01*
X12219943Y-17682222D02*
X12229467Y-17672698D01*
X12229467Y-17672698D02*
X12248515Y-17663174D01*
X12248515Y-17663174D02*
X12296134Y-17663174D01*
X12296134Y-17663174D02*
X12315182Y-17672698D01*
X12315182Y-17672698D02*
X12324705Y-17682222D01*
X12324705Y-17682222D02*
X12334229Y-17701270D01*
X12334229Y-17701270D02*
X12334229Y-17748889D01*
X12334229Y-17748889D02*
X12324705Y-17767936D01*
X12324705Y-17767936D02*
X12315182Y-17777460D01*
X12315182Y-17777460D02*
X12296134Y-17786984D01*
X12296134Y-17786984D02*
X12248515Y-17786984D01*
X12248515Y-17786984D02*
X12229467Y-17777460D01*
X12229467Y-17777460D02*
X12219943Y-17767936D01*
X12458039Y-17586984D02*
X12477086Y-17586984D01*
X12477086Y-17586984D02*
X12496134Y-17596508D01*
X12496134Y-17596508D02*
X12505658Y-17606031D01*
X12505658Y-17606031D02*
X12515182Y-17625079D01*
X12515182Y-17625079D02*
X12524705Y-17663174D01*
X12524705Y-17663174D02*
X12524705Y-17710793D01*
X12524705Y-17710793D02*
X12515182Y-17748889D01*
X12515182Y-17748889D02*
X12505658Y-17767936D01*
X12505658Y-17767936D02*
X12496134Y-17777460D01*
X12496134Y-17777460D02*
X12477086Y-17786984D01*
X12477086Y-17786984D02*
X12458039Y-17786984D01*
X12458039Y-17786984D02*
X12438991Y-17777460D01*
X12438991Y-17777460D02*
X12429467Y-17767936D01*
X12429467Y-17767936D02*
X12419943Y-17748889D01*
X12419943Y-17748889D02*
X12410420Y-17710793D01*
X12410420Y-17710793D02*
X12410420Y-17663174D01*
X12410420Y-17663174D02*
X12419943Y-17625079D01*
X12419943Y-17625079D02*
X12429467Y-17606031D01*
X12429467Y-17606031D02*
X12438991Y-17596508D01*
X12438991Y-17596508D02*
X12458039Y-17586984D01*
X12610420Y-17786984D02*
X12610420Y-17653650D01*
X12610420Y-17672698D02*
X12619943Y-17663174D01*
X12619943Y-17663174D02*
X12638991Y-17653650D01*
X12638991Y-17653650D02*
X12667563Y-17653650D01*
X12667563Y-17653650D02*
X12686610Y-17663174D01*
X12686610Y-17663174D02*
X12696134Y-17682222D01*
X12696134Y-17682222D02*
X12696134Y-17786984D01*
X12696134Y-17682222D02*
X12705658Y-17663174D01*
X12705658Y-17663174D02*
X12724705Y-17653650D01*
X12724705Y-17653650D02*
X12753277Y-17653650D01*
X12753277Y-17653650D02*
X12772324Y-17663174D01*
X12772324Y-17663174D02*
X12781848Y-17682222D01*
X12781848Y-17682222D02*
X12781848Y-17786984D01*
X12877086Y-17786984D02*
X12877086Y-17653650D01*
X12877086Y-17672698D02*
X12886610Y-17663174D01*
X12886610Y-17663174D02*
X12905658Y-17653650D01*
X12905658Y-17653650D02*
X12934229Y-17653650D01*
X12934229Y-17653650D02*
X12953277Y-17663174D01*
X12953277Y-17663174D02*
X12962801Y-17682222D01*
X12962801Y-17682222D02*
X12962801Y-17786984D01*
X12962801Y-17682222D02*
X12972324Y-17663174D01*
X12972324Y-17663174D02*
X12991372Y-17653650D01*
X12991372Y-17653650D02*
X13019943Y-17653650D01*
X13019943Y-17653650D02*
X13038991Y-17663174D01*
X13038991Y-17663174D02*
X13048515Y-17682222D01*
X13048515Y-17682222D02*
X13048515Y-17786984D01*
X13438991Y-17577460D02*
X13267563Y-17834603D01*
X13696134Y-17586984D02*
X13715182Y-17586984D01*
X13715182Y-17586984D02*
X13734229Y-17596508D01*
X13734229Y-17596508D02*
X13743753Y-17606031D01*
X13743753Y-17606031D02*
X13753277Y-17625079D01*
X13753277Y-17625079D02*
X13762801Y-17663174D01*
X13762801Y-17663174D02*
X13762801Y-17710793D01*
X13762801Y-17710793D02*
X13753277Y-17748889D01*
X13753277Y-17748889D02*
X13743753Y-17767936D01*
X13743753Y-17767936D02*
X13734229Y-17777460D01*
X13734229Y-17777460D02*
X13715182Y-17786984D01*
X13715182Y-17786984D02*
X13696134Y-17786984D01*
X13696134Y-17786984D02*
X13677086Y-17777460D01*
X13677086Y-17777460D02*
X13667563Y-17767936D01*
X13667563Y-17767936D02*
X13658039Y-17748889D01*
X13658039Y-17748889D02*
X13648515Y-17710793D01*
X13648515Y-17710793D02*
X13648515Y-17663174D01*
X13648515Y-17663174D02*
X13658039Y-17625079D01*
X13658039Y-17625079D02*
X13667563Y-17606031D01*
X13667563Y-17606031D02*
X13677086Y-17596508D01*
X13677086Y-17596508D02*
X13696134Y-17586984D01*
X13848515Y-17767936D02*
X13858039Y-17777460D01*
X13858039Y-17777460D02*
X13848515Y-17786984D01*
X13848515Y-17786984D02*
X13838991Y-17777460D01*
X13838991Y-17777460D02*
X13848515Y-17767936D01*
X13848515Y-17767936D02*
X13848515Y-17786984D01*
X13981848Y-17586984D02*
X14000896Y-17586984D01*
X14000896Y-17586984D02*
X14019944Y-17596508D01*
X14019944Y-17596508D02*
X14029467Y-17606031D01*
X14029467Y-17606031D02*
X14038991Y-17625079D01*
X14038991Y-17625079D02*
X14048515Y-17663174D01*
X14048515Y-17663174D02*
X14048515Y-17710793D01*
X14048515Y-17710793D02*
X14038991Y-17748889D01*
X14038991Y-17748889D02*
X14029467Y-17767936D01*
X14029467Y-17767936D02*
X14019944Y-17777460D01*
X14019944Y-17777460D02*
X14000896Y-17786984D01*
X14000896Y-17786984D02*
X13981848Y-17786984D01*
X13981848Y-17786984D02*
X13962801Y-17777460D01*
X13962801Y-17777460D02*
X13953277Y-17767936D01*
X13953277Y-17767936D02*
X13943753Y-17748889D01*
X13943753Y-17748889D02*
X13934229Y-17710793D01*
X13934229Y-17710793D02*
X13934229Y-17663174D01*
X13934229Y-17663174D02*
X13943753Y-17625079D01*
X13943753Y-17625079D02*
X13953277Y-17606031D01*
X13953277Y-17606031D02*
X13962801Y-17596508D01*
X13962801Y-17596508D02*
X13981848Y-17586984D01*
X14219944Y-17653650D02*
X14219944Y-17786984D01*
X14172325Y-17577460D02*
X14124706Y-17720317D01*
X14124706Y-17720317D02*
X14248515Y-17720317D01*
X14334229Y-17786984D02*
X14372325Y-17786984D01*
X14372325Y-17786984D02*
X14391372Y-17777460D01*
X14391372Y-17777460D02*
X14400896Y-17767936D01*
X14400896Y-17767936D02*
X14419944Y-17739365D01*
X14419944Y-17739365D02*
X14429467Y-17701270D01*
X14429467Y-17701270D02*
X14429467Y-17625079D01*
X14429467Y-17625079D02*
X14419944Y-17606031D01*
X14419944Y-17606031D02*
X14410420Y-17596508D01*
X14410420Y-17596508D02*
X14391372Y-17586984D01*
X14391372Y-17586984D02*
X14353277Y-17586984D01*
X14353277Y-17586984D02*
X14334229Y-17596508D01*
X14334229Y-17596508D02*
X14324706Y-17606031D01*
X14324706Y-17606031D02*
X14315182Y-17625079D01*
X14315182Y-17625079D02*
X14315182Y-17672698D01*
X14315182Y-17672698D02*
X14324706Y-17691746D01*
X14324706Y-17691746D02*
X14334229Y-17701270D01*
X14334229Y-17701270D02*
X14353277Y-17710793D01*
X14353277Y-17710793D02*
X14391372Y-17710793D01*
X14391372Y-17710793D02*
X14410420Y-17701270D01*
X14410420Y-17701270D02*
X14419944Y-17691746D01*
X14419944Y-17691746D02*
X14429467Y-17672698D01*
X14505658Y-17606031D02*
X14515182Y-17596508D01*
X14515182Y-17596508D02*
X14534229Y-17586984D01*
X14534229Y-17586984D02*
X14581848Y-17586984D01*
X14581848Y-17586984D02*
X14600896Y-17596508D01*
X14600896Y-17596508D02*
X14610420Y-17606031D01*
X14610420Y-17606031D02*
X14619944Y-17625079D01*
X14619944Y-17625079D02*
X14619944Y-17644127D01*
X14619944Y-17644127D02*
X14610420Y-17672698D01*
X14610420Y-17672698D02*
X14496134Y-17786984D01*
X14496134Y-17786984D02*
X14619944Y-17786984D01*
X14696134Y-17586984D02*
X14696134Y-17625079D01*
X14772325Y-17586984D02*
X14772325Y-17625079D01*
X15067563Y-17863174D02*
X15058039Y-17853650D01*
X15058039Y-17853650D02*
X15038991Y-17825079D01*
X15038991Y-17825079D02*
X15029468Y-17806031D01*
X15029468Y-17806031D02*
X15019944Y-17777460D01*
X15019944Y-17777460D02*
X15010420Y-17729841D01*
X15010420Y-17729841D02*
X15010420Y-17691746D01*
X15010420Y-17691746D02*
X15019944Y-17644127D01*
X15019944Y-17644127D02*
X15029468Y-17615555D01*
X15029468Y-17615555D02*
X15038991Y-17596508D01*
X15038991Y-17596508D02*
X15058039Y-17567936D01*
X15058039Y-17567936D02*
X15067563Y-17558412D01*
X15181848Y-17586984D02*
X15200896Y-17586984D01*
X15200896Y-17586984D02*
X15219944Y-17596508D01*
X15219944Y-17596508D02*
X15229468Y-17606031D01*
X15229468Y-17606031D02*
X15238991Y-17625079D01*
X15238991Y-17625079D02*
X15248515Y-17663174D01*
X15248515Y-17663174D02*
X15248515Y-17710793D01*
X15248515Y-17710793D02*
X15238991Y-17748889D01*
X15238991Y-17748889D02*
X15229468Y-17767936D01*
X15229468Y-17767936D02*
X15219944Y-17777460D01*
X15219944Y-17777460D02*
X15200896Y-17786984D01*
X15200896Y-17786984D02*
X15181848Y-17786984D01*
X15181848Y-17786984D02*
X15162801Y-17777460D01*
X15162801Y-17777460D02*
X15153277Y-17767936D01*
X15153277Y-17767936D02*
X15143753Y-17748889D01*
X15143753Y-17748889D02*
X15134229Y-17710793D01*
X15134229Y-17710793D02*
X15134229Y-17663174D01*
X15134229Y-17663174D02*
X15143753Y-17625079D01*
X15143753Y-17625079D02*
X15153277Y-17606031D01*
X15153277Y-17606031D02*
X15162801Y-17596508D01*
X15162801Y-17596508D02*
X15181848Y-17586984D01*
X15486610Y-17786984D02*
X15486610Y-17586984D01*
X15572325Y-17786984D02*
X15572325Y-17682222D01*
X15572325Y-17682222D02*
X15562801Y-17663174D01*
X15562801Y-17663174D02*
X15543753Y-17653650D01*
X15543753Y-17653650D02*
X15515182Y-17653650D01*
X15515182Y-17653650D02*
X15496134Y-17663174D01*
X15496134Y-17663174D02*
X15486610Y-17672698D01*
X15696134Y-17786984D02*
X15677087Y-17777460D01*
X15677087Y-17777460D02*
X15667563Y-17767936D01*
X15667563Y-17767936D02*
X15658039Y-17748889D01*
X15658039Y-17748889D02*
X15658039Y-17691746D01*
X15658039Y-17691746D02*
X15667563Y-17672698D01*
X15667563Y-17672698D02*
X15677087Y-17663174D01*
X15677087Y-17663174D02*
X15696134Y-17653650D01*
X15696134Y-17653650D02*
X15724706Y-17653650D01*
X15724706Y-17653650D02*
X15743753Y-17663174D01*
X15743753Y-17663174D02*
X15753277Y-17672698D01*
X15753277Y-17672698D02*
X15762801Y-17691746D01*
X15762801Y-17691746D02*
X15762801Y-17748889D01*
X15762801Y-17748889D02*
X15753277Y-17767936D01*
X15753277Y-17767936D02*
X15743753Y-17777460D01*
X15743753Y-17777460D02*
X15724706Y-17786984D01*
X15724706Y-17786984D02*
X15696134Y-17786984D01*
X15877087Y-17786984D02*
X15858039Y-17777460D01*
X15858039Y-17777460D02*
X15848515Y-17758412D01*
X15848515Y-17758412D02*
X15848515Y-17586984D01*
X16029468Y-17777460D02*
X16010420Y-17786984D01*
X16010420Y-17786984D02*
X15972325Y-17786984D01*
X15972325Y-17786984D02*
X15953277Y-17777460D01*
X15953277Y-17777460D02*
X15943753Y-17758412D01*
X15943753Y-17758412D02*
X15943753Y-17682222D01*
X15943753Y-17682222D02*
X15953277Y-17663174D01*
X15953277Y-17663174D02*
X15972325Y-17653650D01*
X15972325Y-17653650D02*
X16010420Y-17653650D01*
X16010420Y-17653650D02*
X16029468Y-17663174D01*
X16029468Y-17663174D02*
X16038991Y-17682222D01*
X16038991Y-17682222D02*
X16038991Y-17701270D01*
X16038991Y-17701270D02*
X15943753Y-17720317D01*
X16115182Y-17777460D02*
X16134230Y-17786984D01*
X16134230Y-17786984D02*
X16172325Y-17786984D01*
X16172325Y-17786984D02*
X16191372Y-17777460D01*
X16191372Y-17777460D02*
X16200896Y-17758412D01*
X16200896Y-17758412D02*
X16200896Y-17748889D01*
X16200896Y-17748889D02*
X16191372Y-17729841D01*
X16191372Y-17729841D02*
X16172325Y-17720317D01*
X16172325Y-17720317D02*
X16143753Y-17720317D01*
X16143753Y-17720317D02*
X16124706Y-17710793D01*
X16124706Y-17710793D02*
X16115182Y-17691746D01*
X16115182Y-17691746D02*
X16115182Y-17682222D01*
X16115182Y-17682222D02*
X16124706Y-17663174D01*
X16124706Y-17663174D02*
X16143753Y-17653650D01*
X16143753Y-17653650D02*
X16172325Y-17653650D01*
X16172325Y-17653650D02*
X16191372Y-17663174D01*
X16438992Y-17710793D02*
X16591373Y-17710793D01*
X16515182Y-17786984D02*
X16515182Y-17634603D01*
X16819944Y-17586984D02*
X16943754Y-17586984D01*
X16943754Y-17586984D02*
X16877087Y-17663174D01*
X16877087Y-17663174D02*
X16905658Y-17663174D01*
X16905658Y-17663174D02*
X16924706Y-17672698D01*
X16924706Y-17672698D02*
X16934230Y-17682222D01*
X16934230Y-17682222D02*
X16943754Y-17701270D01*
X16943754Y-17701270D02*
X16943754Y-17748889D01*
X16943754Y-17748889D02*
X16934230Y-17767936D01*
X16934230Y-17767936D02*
X16924706Y-17777460D01*
X16924706Y-17777460D02*
X16905658Y-17786984D01*
X16905658Y-17786984D02*
X16848515Y-17786984D01*
X16848515Y-17786984D02*
X16829468Y-17777460D01*
X16829468Y-17777460D02*
X16819944Y-17767936D01*
X17172325Y-17777460D02*
X17191373Y-17786984D01*
X17191373Y-17786984D02*
X17229468Y-17786984D01*
X17229468Y-17786984D02*
X17248516Y-17777460D01*
X17248516Y-17777460D02*
X17258039Y-17758412D01*
X17258039Y-17758412D02*
X17258039Y-17748889D01*
X17258039Y-17748889D02*
X17248516Y-17729841D01*
X17248516Y-17729841D02*
X17229468Y-17720317D01*
X17229468Y-17720317D02*
X17200896Y-17720317D01*
X17200896Y-17720317D02*
X17181849Y-17710793D01*
X17181849Y-17710793D02*
X17172325Y-17691746D01*
X17172325Y-17691746D02*
X17172325Y-17682222D01*
X17172325Y-17682222D02*
X17181849Y-17663174D01*
X17181849Y-17663174D02*
X17200896Y-17653650D01*
X17200896Y-17653650D02*
X17229468Y-17653650D01*
X17229468Y-17653650D02*
X17248516Y-17663174D01*
X17372325Y-17786984D02*
X17353277Y-17777460D01*
X17353277Y-17777460D02*
X17343754Y-17758412D01*
X17343754Y-17758412D02*
X17343754Y-17586984D01*
X17477087Y-17786984D02*
X17458039Y-17777460D01*
X17458039Y-17777460D02*
X17448516Y-17767936D01*
X17448516Y-17767936D02*
X17438992Y-17748889D01*
X17438992Y-17748889D02*
X17438992Y-17691746D01*
X17438992Y-17691746D02*
X17448516Y-17672698D01*
X17448516Y-17672698D02*
X17458039Y-17663174D01*
X17458039Y-17663174D02*
X17477087Y-17653650D01*
X17477087Y-17653650D02*
X17505658Y-17653650D01*
X17505658Y-17653650D02*
X17524706Y-17663174D01*
X17524706Y-17663174D02*
X17534230Y-17672698D01*
X17534230Y-17672698D02*
X17543754Y-17691746D01*
X17543754Y-17691746D02*
X17543754Y-17748889D01*
X17543754Y-17748889D02*
X17534230Y-17767936D01*
X17534230Y-17767936D02*
X17524706Y-17777460D01*
X17524706Y-17777460D02*
X17505658Y-17786984D01*
X17505658Y-17786984D02*
X17477087Y-17786984D01*
X17600897Y-17653650D02*
X17677087Y-17653650D01*
X17629468Y-17586984D02*
X17629468Y-17758412D01*
X17629468Y-17758412D02*
X17638992Y-17777460D01*
X17638992Y-17777460D02*
X17658039Y-17786984D01*
X17658039Y-17786984D02*
X17677087Y-17786984D01*
X17734230Y-17777460D02*
X17753277Y-17786984D01*
X17753277Y-17786984D02*
X17791373Y-17786984D01*
X17791373Y-17786984D02*
X17810420Y-17777460D01*
X17810420Y-17777460D02*
X17819944Y-17758412D01*
X17819944Y-17758412D02*
X17819944Y-17748889D01*
X17819944Y-17748889D02*
X17810420Y-17729841D01*
X17810420Y-17729841D02*
X17791373Y-17720317D01*
X17791373Y-17720317D02*
X17762801Y-17720317D01*
X17762801Y-17720317D02*
X17743754Y-17710793D01*
X17743754Y-17710793D02*
X17734230Y-17691746D01*
X17734230Y-17691746D02*
X17734230Y-17682222D01*
X17734230Y-17682222D02*
X17743754Y-17663174D01*
X17743754Y-17663174D02*
X17762801Y-17653650D01*
X17762801Y-17653650D02*
X17791373Y-17653650D01*
X17791373Y-17653650D02*
X17810420Y-17663174D01*
X17886611Y-17863174D02*
X17896135Y-17853650D01*
X17896135Y-17853650D02*
X17915182Y-17825079D01*
X17915182Y-17825079D02*
X17924706Y-17806031D01*
X17924706Y-17806031D02*
X17934230Y-17777460D01*
X17934230Y-17777460D02*
X17943754Y-17729841D01*
X17943754Y-17729841D02*
X17943754Y-17691746D01*
X17943754Y-17691746D02*
X17934230Y-17644127D01*
X17934230Y-17644127D02*
X17924706Y-17615555D01*
X17924706Y-17615555D02*
X17915182Y-17596508D01*
X17915182Y-17596508D02*
X17896135Y-17567936D01*
X17896135Y-17567936D02*
X17886611Y-17558412D01*
D20*
X11352500Y-17889500D02*
X11492500Y-18029500D01*
X11492500Y-17889500D02*
X11352500Y-18029500D01*
X11422500Y-18029500D02*
X11492500Y-17959500D01*
X11422500Y-17889500D01*
X11352500Y-17959500D01*
X11422500Y-18029500D01*
D11*
X11858039Y-18050984D02*
X11743753Y-18050984D01*
X11800896Y-18050984D02*
X11800896Y-17850984D01*
X11800896Y-17850984D02*
X11781848Y-17879555D01*
X11781848Y-17879555D02*
X11762801Y-17898603D01*
X11762801Y-17898603D02*
X11743753Y-17908127D01*
X11943753Y-18031936D02*
X11953277Y-18041460D01*
X11953277Y-18041460D02*
X11943753Y-18050984D01*
X11943753Y-18050984D02*
X11934229Y-18041460D01*
X11934229Y-18041460D02*
X11943753Y-18031936D01*
X11943753Y-18031936D02*
X11943753Y-18050984D01*
X12124705Y-17917650D02*
X12124705Y-18050984D01*
X12077086Y-17841460D02*
X12029467Y-17984317D01*
X12029467Y-17984317D02*
X12153277Y-17984317D01*
X12267562Y-17850984D02*
X12286610Y-17850984D01*
X12286610Y-17850984D02*
X12305658Y-17860508D01*
X12305658Y-17860508D02*
X12315182Y-17870031D01*
X12315182Y-17870031D02*
X12324705Y-17889079D01*
X12324705Y-17889079D02*
X12334229Y-17927174D01*
X12334229Y-17927174D02*
X12334229Y-17974793D01*
X12334229Y-17974793D02*
X12324705Y-18012889D01*
X12324705Y-18012889D02*
X12315182Y-18031936D01*
X12315182Y-18031936D02*
X12305658Y-18041460D01*
X12305658Y-18041460D02*
X12286610Y-18050984D01*
X12286610Y-18050984D02*
X12267562Y-18050984D01*
X12267562Y-18050984D02*
X12248515Y-18041460D01*
X12248515Y-18041460D02*
X12238991Y-18031936D01*
X12238991Y-18031936D02*
X12229467Y-18012889D01*
X12229467Y-18012889D02*
X12219943Y-17974793D01*
X12219943Y-17974793D02*
X12219943Y-17927174D01*
X12219943Y-17927174D02*
X12229467Y-17889079D01*
X12229467Y-17889079D02*
X12238991Y-17870031D01*
X12238991Y-17870031D02*
X12248515Y-17860508D01*
X12248515Y-17860508D02*
X12267562Y-17850984D01*
X12458039Y-17850984D02*
X12477086Y-17850984D01*
X12477086Y-17850984D02*
X12496134Y-17860508D01*
X12496134Y-17860508D02*
X12505658Y-17870031D01*
X12505658Y-17870031D02*
X12515182Y-17889079D01*
X12515182Y-17889079D02*
X12524705Y-17927174D01*
X12524705Y-17927174D02*
X12524705Y-17974793D01*
X12524705Y-17974793D02*
X12515182Y-18012889D01*
X12515182Y-18012889D02*
X12505658Y-18031936D01*
X12505658Y-18031936D02*
X12496134Y-18041460D01*
X12496134Y-18041460D02*
X12477086Y-18050984D01*
X12477086Y-18050984D02*
X12458039Y-18050984D01*
X12458039Y-18050984D02*
X12438991Y-18041460D01*
X12438991Y-18041460D02*
X12429467Y-18031936D01*
X12429467Y-18031936D02*
X12419943Y-18012889D01*
X12419943Y-18012889D02*
X12410420Y-17974793D01*
X12410420Y-17974793D02*
X12410420Y-17927174D01*
X12410420Y-17927174D02*
X12419943Y-17889079D01*
X12419943Y-17889079D02*
X12429467Y-17870031D01*
X12429467Y-17870031D02*
X12438991Y-17860508D01*
X12438991Y-17860508D02*
X12458039Y-17850984D01*
X12610420Y-18050984D02*
X12610420Y-17917650D01*
X12610420Y-17936698D02*
X12619943Y-17927174D01*
X12619943Y-17927174D02*
X12638991Y-17917650D01*
X12638991Y-17917650D02*
X12667563Y-17917650D01*
X12667563Y-17917650D02*
X12686610Y-17927174D01*
X12686610Y-17927174D02*
X12696134Y-17946222D01*
X12696134Y-17946222D02*
X12696134Y-18050984D01*
X12696134Y-17946222D02*
X12705658Y-17927174D01*
X12705658Y-17927174D02*
X12724705Y-17917650D01*
X12724705Y-17917650D02*
X12753277Y-17917650D01*
X12753277Y-17917650D02*
X12772324Y-17927174D01*
X12772324Y-17927174D02*
X12781848Y-17946222D01*
X12781848Y-17946222D02*
X12781848Y-18050984D01*
X12877086Y-18050984D02*
X12877086Y-17917650D01*
X12877086Y-17936698D02*
X12886610Y-17927174D01*
X12886610Y-17927174D02*
X12905658Y-17917650D01*
X12905658Y-17917650D02*
X12934229Y-17917650D01*
X12934229Y-17917650D02*
X12953277Y-17927174D01*
X12953277Y-17927174D02*
X12962801Y-17946222D01*
X12962801Y-17946222D02*
X12962801Y-18050984D01*
X12962801Y-17946222D02*
X12972324Y-17927174D01*
X12972324Y-17927174D02*
X12991372Y-17917650D01*
X12991372Y-17917650D02*
X13019943Y-17917650D01*
X13019943Y-17917650D02*
X13038991Y-17927174D01*
X13038991Y-17927174D02*
X13048515Y-17946222D01*
X13048515Y-17946222D02*
X13048515Y-18050984D01*
X13438991Y-17841460D02*
X13267563Y-18098603D01*
X13696134Y-17850984D02*
X13715182Y-17850984D01*
X13715182Y-17850984D02*
X13734229Y-17860508D01*
X13734229Y-17860508D02*
X13743753Y-17870031D01*
X13743753Y-17870031D02*
X13753277Y-17889079D01*
X13753277Y-17889079D02*
X13762801Y-17927174D01*
X13762801Y-17927174D02*
X13762801Y-17974793D01*
X13762801Y-17974793D02*
X13753277Y-18012889D01*
X13753277Y-18012889D02*
X13743753Y-18031936D01*
X13743753Y-18031936D02*
X13734229Y-18041460D01*
X13734229Y-18041460D02*
X13715182Y-18050984D01*
X13715182Y-18050984D02*
X13696134Y-18050984D01*
X13696134Y-18050984D02*
X13677086Y-18041460D01*
X13677086Y-18041460D02*
X13667563Y-18031936D01*
X13667563Y-18031936D02*
X13658039Y-18012889D01*
X13658039Y-18012889D02*
X13648515Y-17974793D01*
X13648515Y-17974793D02*
X13648515Y-17927174D01*
X13648515Y-17927174D02*
X13658039Y-17889079D01*
X13658039Y-17889079D02*
X13667563Y-17870031D01*
X13667563Y-17870031D02*
X13677086Y-17860508D01*
X13677086Y-17860508D02*
X13696134Y-17850984D01*
X13848515Y-18031936D02*
X13858039Y-18041460D01*
X13858039Y-18041460D02*
X13848515Y-18050984D01*
X13848515Y-18050984D02*
X13838991Y-18041460D01*
X13838991Y-18041460D02*
X13848515Y-18031936D01*
X13848515Y-18031936D02*
X13848515Y-18050984D01*
X13981848Y-17850984D02*
X14000896Y-17850984D01*
X14000896Y-17850984D02*
X14019944Y-17860508D01*
X14019944Y-17860508D02*
X14029467Y-17870031D01*
X14029467Y-17870031D02*
X14038991Y-17889079D01*
X14038991Y-17889079D02*
X14048515Y-17927174D01*
X14048515Y-17927174D02*
X14048515Y-17974793D01*
X14048515Y-17974793D02*
X14038991Y-18012889D01*
X14038991Y-18012889D02*
X14029467Y-18031936D01*
X14029467Y-18031936D02*
X14019944Y-18041460D01*
X14019944Y-18041460D02*
X14000896Y-18050984D01*
X14000896Y-18050984D02*
X13981848Y-18050984D01*
X13981848Y-18050984D02*
X13962801Y-18041460D01*
X13962801Y-18041460D02*
X13953277Y-18031936D01*
X13953277Y-18031936D02*
X13943753Y-18012889D01*
X13943753Y-18012889D02*
X13934229Y-17974793D01*
X13934229Y-17974793D02*
X13934229Y-17927174D01*
X13934229Y-17927174D02*
X13943753Y-17889079D01*
X13943753Y-17889079D02*
X13953277Y-17870031D01*
X13953277Y-17870031D02*
X13962801Y-17860508D01*
X13962801Y-17860508D02*
X13981848Y-17850984D01*
X14229467Y-17850984D02*
X14134229Y-17850984D01*
X14134229Y-17850984D02*
X14124706Y-17946222D01*
X14124706Y-17946222D02*
X14134229Y-17936698D01*
X14134229Y-17936698D02*
X14153277Y-17927174D01*
X14153277Y-17927174D02*
X14200896Y-17927174D01*
X14200896Y-17927174D02*
X14219944Y-17936698D01*
X14219944Y-17936698D02*
X14229467Y-17946222D01*
X14229467Y-17946222D02*
X14238991Y-17965270D01*
X14238991Y-17965270D02*
X14238991Y-18012889D01*
X14238991Y-18012889D02*
X14229467Y-18031936D01*
X14229467Y-18031936D02*
X14219944Y-18041460D01*
X14219944Y-18041460D02*
X14200896Y-18050984D01*
X14200896Y-18050984D02*
X14153277Y-18050984D01*
X14153277Y-18050984D02*
X14134229Y-18041460D01*
X14134229Y-18041460D02*
X14124706Y-18031936D01*
X14419944Y-17850984D02*
X14324706Y-17850984D01*
X14324706Y-17850984D02*
X14315182Y-17946222D01*
X14315182Y-17946222D02*
X14324706Y-17936698D01*
X14324706Y-17936698D02*
X14343753Y-17927174D01*
X14343753Y-17927174D02*
X14391372Y-17927174D01*
X14391372Y-17927174D02*
X14410420Y-17936698D01*
X14410420Y-17936698D02*
X14419944Y-17946222D01*
X14419944Y-17946222D02*
X14429467Y-17965270D01*
X14429467Y-17965270D02*
X14429467Y-18012889D01*
X14429467Y-18012889D02*
X14419944Y-18031936D01*
X14419944Y-18031936D02*
X14410420Y-18041460D01*
X14410420Y-18041460D02*
X14391372Y-18050984D01*
X14391372Y-18050984D02*
X14343753Y-18050984D01*
X14343753Y-18050984D02*
X14324706Y-18041460D01*
X14324706Y-18041460D02*
X14315182Y-18031936D01*
X14619944Y-18050984D02*
X14505658Y-18050984D01*
X14562801Y-18050984D02*
X14562801Y-17850984D01*
X14562801Y-17850984D02*
X14543753Y-17879555D01*
X14543753Y-17879555D02*
X14524706Y-17898603D01*
X14524706Y-17898603D02*
X14505658Y-17908127D01*
X14696134Y-17850984D02*
X14696134Y-17889079D01*
X14772325Y-17850984D02*
X14772325Y-17889079D01*
X15067563Y-18127174D02*
X15058039Y-18117650D01*
X15058039Y-18117650D02*
X15038991Y-18089079D01*
X15038991Y-18089079D02*
X15029468Y-18070031D01*
X15029468Y-18070031D02*
X15019944Y-18041460D01*
X15019944Y-18041460D02*
X15010420Y-17993841D01*
X15010420Y-17993841D02*
X15010420Y-17955746D01*
X15010420Y-17955746D02*
X15019944Y-17908127D01*
X15019944Y-17908127D02*
X15029468Y-17879555D01*
X15029468Y-17879555D02*
X15038991Y-17860508D01*
X15038991Y-17860508D02*
X15058039Y-17831936D01*
X15058039Y-17831936D02*
X15067563Y-17822412D01*
X15248515Y-18050984D02*
X15134229Y-18050984D01*
X15191372Y-18050984D02*
X15191372Y-17850984D01*
X15191372Y-17850984D02*
X15172325Y-17879555D01*
X15172325Y-17879555D02*
X15153277Y-17898603D01*
X15153277Y-17898603D02*
X15134229Y-17908127D01*
X15324706Y-17870031D02*
X15334229Y-17860508D01*
X15334229Y-17860508D02*
X15353277Y-17850984D01*
X15353277Y-17850984D02*
X15400896Y-17850984D01*
X15400896Y-17850984D02*
X15419944Y-17860508D01*
X15419944Y-17860508D02*
X15429468Y-17870031D01*
X15429468Y-17870031D02*
X15438991Y-17889079D01*
X15438991Y-17889079D02*
X15438991Y-17908127D01*
X15438991Y-17908127D02*
X15429468Y-17936698D01*
X15429468Y-17936698D02*
X15315182Y-18050984D01*
X15315182Y-18050984D02*
X15438991Y-18050984D01*
X15677087Y-18050984D02*
X15677087Y-17850984D01*
X15762801Y-18050984D02*
X15762801Y-17946222D01*
X15762801Y-17946222D02*
X15753277Y-17927174D01*
X15753277Y-17927174D02*
X15734230Y-17917650D01*
X15734230Y-17917650D02*
X15705658Y-17917650D01*
X15705658Y-17917650D02*
X15686610Y-17927174D01*
X15686610Y-17927174D02*
X15677087Y-17936698D01*
X15886610Y-18050984D02*
X15867563Y-18041460D01*
X15867563Y-18041460D02*
X15858039Y-18031936D01*
X15858039Y-18031936D02*
X15848515Y-18012889D01*
X15848515Y-18012889D02*
X15848515Y-17955746D01*
X15848515Y-17955746D02*
X15858039Y-17936698D01*
X15858039Y-17936698D02*
X15867563Y-17927174D01*
X15867563Y-17927174D02*
X15886610Y-17917650D01*
X15886610Y-17917650D02*
X15915182Y-17917650D01*
X15915182Y-17917650D02*
X15934230Y-17927174D01*
X15934230Y-17927174D02*
X15943753Y-17936698D01*
X15943753Y-17936698D02*
X15953277Y-17955746D01*
X15953277Y-17955746D02*
X15953277Y-18012889D01*
X15953277Y-18012889D02*
X15943753Y-18031936D01*
X15943753Y-18031936D02*
X15934230Y-18041460D01*
X15934230Y-18041460D02*
X15915182Y-18050984D01*
X15915182Y-18050984D02*
X15886610Y-18050984D01*
X16067563Y-18050984D02*
X16048515Y-18041460D01*
X16048515Y-18041460D02*
X16038991Y-18022412D01*
X16038991Y-18022412D02*
X16038991Y-17850984D01*
X16219944Y-18041460D02*
X16200896Y-18050984D01*
X16200896Y-18050984D02*
X16162801Y-18050984D01*
X16162801Y-18050984D02*
X16143753Y-18041460D01*
X16143753Y-18041460D02*
X16134230Y-18022412D01*
X16134230Y-18022412D02*
X16134230Y-17946222D01*
X16134230Y-17946222D02*
X16143753Y-17927174D01*
X16143753Y-17927174D02*
X16162801Y-17917650D01*
X16162801Y-17917650D02*
X16200896Y-17917650D01*
X16200896Y-17917650D02*
X16219944Y-17927174D01*
X16219944Y-17927174D02*
X16229468Y-17946222D01*
X16229468Y-17946222D02*
X16229468Y-17965270D01*
X16229468Y-17965270D02*
X16134230Y-17984317D01*
X16305658Y-18041460D02*
X16324706Y-18050984D01*
X16324706Y-18050984D02*
X16362801Y-18050984D01*
X16362801Y-18050984D02*
X16381849Y-18041460D01*
X16381849Y-18041460D02*
X16391372Y-18022412D01*
X16391372Y-18022412D02*
X16391372Y-18012889D01*
X16391372Y-18012889D02*
X16381849Y-17993841D01*
X16381849Y-17993841D02*
X16362801Y-17984317D01*
X16362801Y-17984317D02*
X16334230Y-17984317D01*
X16334230Y-17984317D02*
X16315182Y-17974793D01*
X16315182Y-17974793D02*
X16305658Y-17955746D01*
X16305658Y-17955746D02*
X16305658Y-17946222D01*
X16305658Y-17946222D02*
X16315182Y-17927174D01*
X16315182Y-17927174D02*
X16334230Y-17917650D01*
X16334230Y-17917650D02*
X16362801Y-17917650D01*
X16362801Y-17917650D02*
X16381849Y-17927174D01*
X16458039Y-18127174D02*
X16467563Y-18117650D01*
X16467563Y-18117650D02*
X16486611Y-18089079D01*
X16486611Y-18089079D02*
X16496134Y-18070031D01*
X16496134Y-18070031D02*
X16505658Y-18041460D01*
X16505658Y-18041460D02*
X16515182Y-17993841D01*
X16515182Y-17993841D02*
X16515182Y-17955746D01*
X16515182Y-17955746D02*
X16505658Y-17908127D01*
X16505658Y-17908127D02*
X16496134Y-17879555D01*
X16496134Y-17879555D02*
X16486611Y-17860508D01*
X16486611Y-17860508D02*
X16467563Y-17831936D01*
X16467563Y-17831936D02*
X16458039Y-17822412D01*
M02*
