M48
; DRILL file {KiCad 7.0.5.1-1-g8f565ef7f0-dirty-deb11} date Thu Aug 10 19:05:41 2023
; FORMAT={-:-/ absolute / metric / decimal}
; #@! TF.CreationDate,2023-08-10T19:05:41+00:00
; #@! TF.GenerationSoftware,Kicad,Pcbnew,7.0.5.1-1-g8f565ef7f0-dirty-deb11
; #@! TF.FileFunction,Plated,1,2,PTH
FMAT,2
METRIC
; #@! TA.AperFunction,Plated,PTH,ViaDrill
T1C0.400
; #@! TA.AperFunction,Plated,PTH,ComponentDrill
T2C0.800
; #@! TA.AperFunction,Plated,PTH,ComponentDrill
T3C1.000
; #@! TA.AperFunction,Plated,PTH,ComponentDrill
T4C1.001
; #@! TA.AperFunction,Plated,PTH,ComponentDrill
T5C1.100
; #@! TA.AperFunction,Plated,PTH,ComponentDrill
T6C1.400
%
G90
G05
T1
X135.11Y-109.2
X141.61Y-99.9
X142.51Y-108.6
X143.11Y-108.6
X143.61Y-95.5
X143.71Y-108.6
X144.81Y-102.0
X150.71Y-109.1
X153.31Y-74.0
X154.11Y-94.2
X154.31Y-104.5
X156.266Y-100.165
X157.41Y-84.1
X162.81Y-79.9
X165.61Y-104.9
X166.81Y-82.0
X168.21Y-91.2
X168.91Y-92.7
T2
X156.31Y-75.9
X156.31Y-78.4
X160.11Y-80.5
X160.11Y-83.0
X161.05Y-135.0
X162.0Y-140.2
X162.0Y-142.7
X162.305Y-72.7
X164.805Y-72.7
X166.05Y-135.0
X167.11Y-101.195
X167.11Y-103.695
T3
X139.08Y-105.8
X139.08Y-111.35
X141.6Y-116.81
X141.62Y-105.8
X141.62Y-111.35
X144.14Y-116.81
X144.16Y-105.8
X144.16Y-111.35
X146.7Y-105.8
X146.7Y-111.35
X150.91Y-58.325
X150.91Y-60.865
T4
X122.5Y-135.0
X122.5Y-137.54
X127.76Y-134.98
X127.76Y-142.6
X131.01Y-135.0
X131.01Y-142.62
X155.5Y-135.0
X155.5Y-142.62
T5
X121.26Y-54.55
X126.26Y-54.55
X131.26Y-54.55
X138.01Y-64.8
X143.01Y-64.8
X148.01Y-64.8
X155.01Y-54.3
X160.01Y-54.3
X165.01Y-54.3
T6
X122.245Y-114.435
X122.245Y-130.665
X128.595Y-114.435
X128.595Y-130.665
X134.945Y-114.435
X134.945Y-130.665
X150.575Y-114.435
X150.575Y-130.665
X156.925Y-114.435
X156.925Y-130.665
X163.275Y-114.435
X163.275Y-130.665
T3
X138.5Y-137.825G85X137.4Y-137.825
G05
X138.5Y-142.525G85X137.4Y-142.525
G05
X138.5Y-147.225G85X137.4Y-147.225
G05
X143.8Y-137.825G85X142.7Y-137.825
G05
X143.8Y-142.55G85X142.7Y-142.55
G05
X143.8Y-147.225G85X142.7Y-147.225
G05
X149.1Y-137.825G85X148.0Y-137.825
G05
X149.1Y-142.525G85X148.0Y-142.525
G05
X149.1Y-147.225G85X148.0Y-147.225
G05
T0
M30
