G04 #@! TF.GenerationSoftware,KiCad,Pcbnew,7.0.5.1-1-g8f565ef7f0-dirty-deb11*
G04 #@! TF.CreationDate,2023-08-10T11:01:50+00:00*
G04 #@! TF.ProjectId,rebote-smd,7265626f-7465-42d7-936d-642e6b696361,1.0.1*
G04 #@! TF.SameCoordinates,Original*
G04 #@! TF.FileFunction,Soldermask,Bot*
G04 #@! TF.FilePolarity,Negative*
%FSLAX46Y46*%
G04 Gerber Fmt 4.6, Leading zero omitted, Abs format (unit mm)*
G04 Created by KiCad (PCBNEW 7.0.5.1-1-g8f565ef7f0-dirty-deb11) date 2023-08-10 11:01:50*
%MOMM*%
%LPD*%
G01*
G04 APERTURE LIST*
%ADD10O,3.000000X1.900000*%
%ADD11C,3.400000*%
%ADD12O,2.100000X2.100000*%
%ADD13C,2.000000*%
%ADD14C,2.300000*%
%ADD15C,2.398980*%
%ADD16C,1.700000*%
%ADD17C,1.924000*%
G04 APERTURE END LIST*
G36*
G01*
X150050000Y-137075000D02*
X150050000Y-138575000D01*
G75*
G02*
X149850000Y-138775000I-200000J0D01*
G01*
X147250000Y-138775000D01*
G75*
G02*
X147050000Y-138575000I0J200000D01*
G01*
X147050000Y-137075000D01*
G75*
G02*
X147250000Y-136875000I200000J0D01*
G01*
X149850000Y-136875000D01*
G75*
G02*
X150050000Y-137075000I0J-200000D01*
G01*
G37*
D10*
X143250000Y-137825000D03*
X137950000Y-137825000D03*
X148550000Y-142525000D03*
X143250000Y-142550000D03*
X137950000Y-142525000D03*
X148550000Y-147225000D03*
X143250000Y-147225000D03*
X137950000Y-147225000D03*
D11*
X128595000Y-130665000D03*
X128595000Y-114435000D03*
X122245000Y-130665000D03*
X122245000Y-114435000D03*
X134945000Y-130665000D03*
X134945000Y-114435000D03*
G36*
G01*
X149860000Y-59175000D02*
X149860000Y-57475000D01*
G75*
G02*
X150060000Y-57275000I200000J0D01*
G01*
X151760000Y-57275000D01*
G75*
G02*
X151960000Y-57475000I0J-200000D01*
G01*
X151960000Y-59175000D01*
G75*
G02*
X151760000Y-59375000I-200000J0D01*
G01*
X150060000Y-59375000D01*
G75*
G02*
X149860000Y-59175000I0J200000D01*
G01*
G37*
D12*
X150910000Y-60865000D03*
G36*
G01*
X145850000Y-110300000D02*
X147550000Y-110300000D01*
G75*
G02*
X147750000Y-110500000I0J-200000D01*
G01*
X147750000Y-112200000D01*
G75*
G02*
X147550000Y-112400000I-200000J0D01*
G01*
X145850000Y-112400000D01*
G75*
G02*
X145650000Y-112200000I0J200000D01*
G01*
X145650000Y-110500000D01*
G75*
G02*
X145850000Y-110300000I200000J0D01*
G01*
G37*
X144160000Y-111350000D03*
X141620000Y-111350000D03*
X139080000Y-111350000D03*
G36*
G01*
X145850000Y-104750000D02*
X147550000Y-104750000D01*
G75*
G02*
X147750000Y-104950000I0J-200000D01*
G01*
X147750000Y-106650000D01*
G75*
G02*
X147550000Y-106850000I-200000J0D01*
G01*
X145850000Y-106850000D01*
G75*
G02*
X145650000Y-106650000I0J200000D01*
G01*
X145650000Y-104950000D01*
G75*
G02*
X145850000Y-104750000I200000J0D01*
G01*
G37*
X144160000Y-105800000D03*
X141620000Y-105800000D03*
X139080000Y-105800000D03*
G36*
G01*
X161200000Y-139200000D02*
X162800000Y-139200000D01*
G75*
G02*
X163000000Y-139400000I0J-200000D01*
G01*
X163000000Y-141000000D01*
G75*
G02*
X162800000Y-141200000I-200000J0D01*
G01*
X161200000Y-141200000D01*
G75*
G02*
X161000000Y-141000000I0J200000D01*
G01*
X161000000Y-139400000D01*
G75*
G02*
X161200000Y-139200000I200000J0D01*
G01*
G37*
D13*
X162000000Y-142700000D03*
G36*
G01*
X123700000Y-136590000D02*
X123700000Y-138490000D01*
G75*
G02*
X123500000Y-138690000I-200000J0D01*
G01*
X121500000Y-138690000D01*
G75*
G02*
X121300000Y-138490000I0J200000D01*
G01*
X121300000Y-136590000D01*
G75*
G02*
X121500000Y-136390000I200000J0D01*
G01*
X123500000Y-136390000D01*
G75*
G02*
X123700000Y-136590000I0J-200000D01*
G01*
G37*
D14*
X122500000Y-135000000D03*
D15*
X155500000Y-135000000D03*
X155500000Y-142620000D03*
X127760000Y-142600000D03*
X127760000Y-134980000D03*
X131010000Y-135000000D03*
X131010000Y-142620000D03*
G36*
G01*
X160200000Y-135650000D02*
X160200000Y-134350000D01*
G75*
G02*
X160400000Y-134150000I200000J0D01*
G01*
X161700000Y-134150000D01*
G75*
G02*
X161900000Y-134350000I0J-200000D01*
G01*
X161900000Y-135650000D01*
G75*
G02*
X161700000Y-135850000I-200000J0D01*
G01*
X160400000Y-135850000D01*
G75*
G02*
X160200000Y-135650000I0J200000D01*
G01*
G37*
D16*
X166050000Y-135000000D03*
G36*
G01*
X143290000Y-115760000D02*
X144990000Y-115760000D01*
G75*
G02*
X145190000Y-115960000I0J-200000D01*
G01*
X145190000Y-117660000D01*
G75*
G02*
X144990000Y-117860000I-200000J0D01*
G01*
X143290000Y-117860000D01*
G75*
G02*
X143090000Y-117660000I0J200000D01*
G01*
X143090000Y-115960000D01*
G75*
G02*
X143290000Y-115760000I200000J0D01*
G01*
G37*
D12*
X141600000Y-116810000D03*
D11*
X156925000Y-114435000D03*
X156925000Y-130665000D03*
X163275000Y-114435000D03*
X163275000Y-130665000D03*
X150575000Y-114435000D03*
X150575000Y-130665000D03*
G36*
G01*
X161304888Y-73500000D02*
X161304888Y-71900000D01*
G75*
G02*
X161504888Y-71700000I200000J0D01*
G01*
X163104888Y-71700000D01*
G75*
G02*
X163304888Y-71900000I0J-200000D01*
G01*
X163304888Y-73500000D01*
G75*
G02*
X163104888Y-73700000I-200000J0D01*
G01*
X161504888Y-73700000D01*
G75*
G02*
X161304888Y-73500000I0J200000D01*
G01*
G37*
D13*
X164804888Y-72700000D03*
G36*
G01*
X160910000Y-84000000D02*
X159310000Y-84000000D01*
G75*
G02*
X159110000Y-83800000I0J200000D01*
G01*
X159110000Y-82200000D01*
G75*
G02*
X159310000Y-82000000I200000J0D01*
G01*
X160910000Y-82000000D01*
G75*
G02*
X161110000Y-82200000I0J-200000D01*
G01*
X161110000Y-83800000D01*
G75*
G02*
X160910000Y-84000000I-200000J0D01*
G01*
G37*
X160110000Y-80500000D03*
G36*
G01*
X166310000Y-100194888D02*
X167910000Y-100194888D01*
G75*
G02*
X168110000Y-100394888I0J-200000D01*
G01*
X168110000Y-101994888D01*
G75*
G02*
X167910000Y-102194888I-200000J0D01*
G01*
X166310000Y-102194888D01*
G75*
G02*
X166110000Y-101994888I0J200000D01*
G01*
X166110000Y-100394888D01*
G75*
G02*
X166310000Y-100194888I200000J0D01*
G01*
G37*
X167110000Y-103694888D03*
G36*
G01*
X157110000Y-79400000D02*
X155510000Y-79400000D01*
G75*
G02*
X155310000Y-79200000I0J200000D01*
G01*
X155310000Y-77600000D01*
G75*
G02*
X155510000Y-77400000I200000J0D01*
G01*
X157110000Y-77400000D01*
G75*
G02*
X157310000Y-77600000I0J-200000D01*
G01*
X157310000Y-79200000D01*
G75*
G02*
X157110000Y-79400000I-200000J0D01*
G01*
G37*
X156310000Y-75900000D03*
D17*
X138010000Y-64800000D03*
X143010000Y-64800000D03*
X148010000Y-64800000D03*
X121260000Y-54550000D03*
X126260000Y-54550000D03*
X131260000Y-54550000D03*
X155010000Y-54300000D03*
X160010000Y-54300000D03*
X165010000Y-54300000D03*
M02*
