G04 #@! TF.GenerationSoftware,KiCad,Pcbnew,7.0.5.1-1-g8f565ef7f0-dirty-deb11*
G04 #@! TF.CreationDate,2023-08-10T18:34:47+00:00*
G04 #@! TF.ProjectId,rebote-smd,7265626f-7465-42d7-936d-642e6b696361,1.0.6*
G04 #@! TF.SameCoordinates,Original*
G04 #@! TF.FileFunction,Legend,Bot*
G04 #@! TF.FilePolarity,Positive*
%FSLAX46Y46*%
G04 Gerber Fmt 4.6, Leading zero omitted, Abs format (unit mm)*
G04 Created by KiCad (PCBNEW 7.0.5.1-1-g8f565ef7f0-dirty-deb11) date 2023-08-10 18:34:47*
%MOMM*%
%LPD*%
G01*
G04 APERTURE LIST*
%ADD10C,0.150000*%
%ADD11C,0.125000*%
%ADD12C,1.998980*%
%ADD13O,3.000000X1.900000*%
%ADD14C,3.400000*%
%ADD15O,2.100000X2.100000*%
%ADD16C,2.000000*%
%ADD17C,2.300000*%
%ADD18C,2.398980*%
%ADD19C,1.700000*%
%ADD20C,1.924000*%
G04 APERTURE END LIST*
D10*
G36*
X163002857Y-67917857D02*
G01*
X157806428Y-67917857D01*
X157806428Y-67430943D01*
X158149421Y-67430943D01*
X158167717Y-67471007D01*
X158204769Y-67494819D01*
X158702330Y-67494819D01*
X158723617Y-67495212D01*
X158733782Y-67488940D01*
X158745242Y-67485576D01*
X158752137Y-67477618D01*
X158761102Y-67472088D01*
X158766263Y-67461314D01*
X158774084Y-67452290D01*
X158775582Y-67441866D01*
X158780134Y-67432368D01*
X158778652Y-67420515D01*
X158780352Y-67408695D01*
X158775977Y-67399115D01*
X158654956Y-66430943D01*
X158929183Y-66430943D01*
X158947479Y-66471007D01*
X158984531Y-66494819D01*
X159416536Y-66494819D01*
X159457309Y-66821009D01*
X159198152Y-66821009D01*
X159166674Y-66830252D01*
X159137832Y-66863538D01*
X159131564Y-66907133D01*
X159149860Y-66947197D01*
X159186912Y-66971009D01*
X159476059Y-66971009D01*
X159522785Y-67344819D01*
X159120771Y-67344819D01*
X159089293Y-67354062D01*
X159060451Y-67387348D01*
X159054183Y-67430943D01*
X159072479Y-67471007D01*
X159109531Y-67494819D01*
X159607092Y-67494819D01*
X159628379Y-67495212D01*
X159638544Y-67488940D01*
X159650004Y-67485576D01*
X159656899Y-67477618D01*
X159665864Y-67472088D01*
X159671025Y-67461314D01*
X159678846Y-67452290D01*
X159680344Y-67441866D01*
X159684896Y-67432368D01*
X159683414Y-67420515D01*
X159685114Y-67408695D01*
X159680739Y-67399115D01*
X159617937Y-66896703D01*
X159619637Y-66884885D01*
X159615263Y-66875307D01*
X159559731Y-66431049D01*
X159738722Y-66431049D01*
X160200712Y-67439030D01*
X160201416Y-67447779D01*
X160209705Y-67458652D01*
X160210722Y-67460869D01*
X160216224Y-67467201D01*
X160228120Y-67482804D01*
X160230546Y-67483684D01*
X160232240Y-67485634D01*
X160251076Y-67491136D01*
X160269520Y-67497831D01*
X160272038Y-67497259D01*
X160274517Y-67497984D01*
X160293331Y-67492431D01*
X160312474Y-67488091D01*
X160314284Y-67486248D01*
X160316759Y-67485518D01*
X160329578Y-67470683D01*
X160343342Y-67456675D01*
X160343869Y-67454145D01*
X160345556Y-67452193D01*
X160348320Y-67432777D01*
X160557037Y-66430943D01*
X160691088Y-66430943D01*
X160709384Y-66471007D01*
X160746436Y-66494819D01*
X161178441Y-66494819D01*
X161219214Y-66821009D01*
X160960057Y-66821009D01*
X160928579Y-66830252D01*
X160899737Y-66863538D01*
X160893469Y-66907133D01*
X160911765Y-66947197D01*
X160948817Y-66971009D01*
X161237964Y-66971009D01*
X161284690Y-67344819D01*
X160882676Y-67344819D01*
X160851198Y-67354062D01*
X160822356Y-67387348D01*
X160816088Y-67430943D01*
X160834384Y-67471007D01*
X160871436Y-67494819D01*
X161368997Y-67494819D01*
X161390284Y-67495212D01*
X161400449Y-67488940D01*
X161411909Y-67485576D01*
X161418804Y-67477618D01*
X161427769Y-67472088D01*
X161432930Y-67461314D01*
X161440751Y-67452290D01*
X161442249Y-67441866D01*
X161446801Y-67432368D01*
X161446623Y-67430943D01*
X161625612Y-67430943D01*
X161643908Y-67471007D01*
X161680960Y-67494819D01*
X162178521Y-67494819D01*
X162199808Y-67495212D01*
X162209973Y-67488940D01*
X162221433Y-67485576D01*
X162228328Y-67477618D01*
X162237293Y-67472088D01*
X162242454Y-67461314D01*
X162250275Y-67452290D01*
X162251773Y-67441866D01*
X162256325Y-67432368D01*
X162254843Y-67420515D01*
X162256543Y-67408695D01*
X162252168Y-67399115D01*
X162127256Y-66399818D01*
X162114181Y-66369729D01*
X162077574Y-66345239D01*
X162033538Y-66344426D01*
X161996053Y-66367550D01*
X161977021Y-66407270D01*
X162094214Y-67344819D01*
X161692200Y-67344819D01*
X161660722Y-67354062D01*
X161631880Y-67387348D01*
X161625612Y-67430943D01*
X161446623Y-67430943D01*
X161445319Y-67420515D01*
X161447019Y-67408695D01*
X161442644Y-67399115D01*
X161379842Y-66896703D01*
X161381542Y-66884885D01*
X161377168Y-66875307D01*
X161320319Y-66420516D01*
X161322019Y-66408695D01*
X161313152Y-66389280D01*
X161304657Y-66369729D01*
X161304034Y-66369312D01*
X161303723Y-66368631D01*
X161285755Y-66357083D01*
X161268050Y-66345239D01*
X161267303Y-66345225D01*
X161266671Y-66344819D01*
X161245301Y-66344819D01*
X161224014Y-66344426D01*
X161223377Y-66344819D01*
X160757676Y-66344819D01*
X160726198Y-66354062D01*
X160697356Y-66387348D01*
X160691088Y-66430943D01*
X160557037Y-66430943D01*
X160558367Y-66424560D01*
X160555738Y-66391859D01*
X160529034Y-66356834D01*
X160487634Y-66341807D01*
X160444680Y-66351547D01*
X160413812Y-66382963D01*
X160247522Y-67181149D01*
X159879765Y-66378768D01*
X159858247Y-66354004D01*
X159815970Y-66341653D01*
X159773728Y-66354120D01*
X159744930Y-66387445D01*
X159738722Y-66431049D01*
X159559731Y-66431049D01*
X159558414Y-66420516D01*
X159560114Y-66408695D01*
X159551247Y-66389280D01*
X159542752Y-66369729D01*
X159542129Y-66369312D01*
X159541818Y-66368631D01*
X159523850Y-66357083D01*
X159506145Y-66345239D01*
X159505398Y-66345225D01*
X159504766Y-66344819D01*
X159483396Y-66344819D01*
X159462109Y-66344426D01*
X159461472Y-66344819D01*
X158995771Y-66344819D01*
X158964293Y-66354062D01*
X158935451Y-66387348D01*
X158929183Y-66430943D01*
X158654956Y-66430943D01*
X158651065Y-66399818D01*
X158637990Y-66369729D01*
X158601383Y-66345239D01*
X158557347Y-66344426D01*
X158519862Y-66367550D01*
X158500830Y-66407270D01*
X158618023Y-67344819D01*
X158216009Y-67344819D01*
X158184531Y-67354062D01*
X158155689Y-67387348D01*
X158149421Y-67430943D01*
X157806428Y-67430943D01*
X157806428Y-65807143D01*
X163002857Y-65807143D01*
X163002857Y-67917857D01*
G37*
D11*
G36*
X124645841Y-67572904D02*
G01*
X124343911Y-67572904D01*
X124438264Y-67120009D01*
X124645841Y-67572904D01*
G37*
G36*
X127374822Y-67858619D02*
G01*
X127217281Y-67858619D01*
X127090355Y-67818002D01*
X126999810Y-67737516D01*
X126948368Y-67655209D01*
X126881726Y-67477494D01*
X126865750Y-67349687D01*
X126887677Y-67174269D01*
X126916813Y-67096572D01*
X126981769Y-67022337D01*
X127093086Y-66983619D01*
X127265447Y-66983619D01*
X127374822Y-67858619D01*
G37*
G36*
X128215357Y-68380357D02*
G01*
X123013571Y-68380357D01*
X123013571Y-66907791D01*
X123161621Y-66907791D01*
X123164537Y-66944378D01*
X123564262Y-67469390D01*
X123622812Y-67937789D01*
X123633708Y-67962861D01*
X123664213Y-67983271D01*
X123700911Y-67983948D01*
X123732149Y-67964677D01*
X123748009Y-67931578D01*
X123746208Y-67917170D01*
X124144506Y-67917170D01*
X124146696Y-67944419D01*
X124168949Y-67973608D01*
X124203450Y-67986130D01*
X124239245Y-67978013D01*
X124264968Y-67951832D01*
X124317870Y-67697904D01*
X124703133Y-67697904D01*
X124821120Y-67955330D01*
X124839050Y-67975966D01*
X124874281Y-67986259D01*
X124909483Y-67975870D01*
X124933482Y-67948098D01*
X124936003Y-67930389D01*
X125000192Y-67930389D01*
X125015439Y-67963776D01*
X125046316Y-67983619D01*
X125540249Y-67983619D01*
X125558055Y-67983947D01*
X125566526Y-67978720D01*
X125576076Y-67975917D01*
X125581822Y-67969285D01*
X125589293Y-67964677D01*
X125593593Y-67955701D01*
X125600112Y-67948179D01*
X125601361Y-67939490D01*
X125605153Y-67931577D01*
X125603918Y-67921701D01*
X125605335Y-67911849D01*
X125601689Y-67903865D01*
X125480004Y-66930389D01*
X125779954Y-66930389D01*
X125795201Y-66963776D01*
X125826078Y-66983619D01*
X126265447Y-66983619D01*
X126309346Y-67334809D01*
X126037824Y-67334809D01*
X126011594Y-67342511D01*
X125987558Y-67370249D01*
X125982335Y-67406579D01*
X125997582Y-67439966D01*
X126028459Y-67459809D01*
X126324970Y-67459809D01*
X126374822Y-67858619D01*
X125960443Y-67858619D01*
X125934213Y-67866321D01*
X125910177Y-67894059D01*
X125904954Y-67930389D01*
X125920201Y-67963776D01*
X125951078Y-67983619D01*
X126445011Y-67983619D01*
X126462817Y-67983947D01*
X126471288Y-67978720D01*
X126480838Y-67975917D01*
X126486584Y-67969285D01*
X126494055Y-67964677D01*
X126498355Y-67955701D01*
X126504874Y-67948179D01*
X126506123Y-67939490D01*
X126509915Y-67931577D01*
X126508680Y-67921701D01*
X126510097Y-67911849D01*
X126506451Y-67903865D01*
X126443203Y-67397888D01*
X126444620Y-67388039D01*
X126440975Y-67380057D01*
X126435872Y-67339232D01*
X126738470Y-67339232D01*
X126739777Y-67349692D01*
X126739632Y-67350856D01*
X126740888Y-67358581D01*
X126757285Y-67489757D01*
X126755657Y-67497309D01*
X126759515Y-67507599D01*
X126759718Y-67509217D01*
X126762667Y-67516004D01*
X126829406Y-67693975D01*
X126829323Y-67700586D01*
X126835728Y-67710834D01*
X126836684Y-67713383D01*
X126840472Y-67718424D01*
X126893809Y-67803765D01*
X126896334Y-67812781D01*
X126903333Y-67819002D01*
X126903336Y-67819007D01*
X126922539Y-67836074D01*
X127013583Y-67917004D01*
X127022189Y-67927433D01*
X127035748Y-67931771D01*
X127048631Y-67937853D01*
X127052975Y-67937284D01*
X127180646Y-67978139D01*
X127189173Y-67983619D01*
X127206782Y-67983619D01*
X127224365Y-67984043D01*
X127225061Y-67983619D01*
X127445011Y-67983619D01*
X127462817Y-67983947D01*
X127471288Y-67978720D01*
X127480838Y-67975917D01*
X127486584Y-67969285D01*
X127494055Y-67964677D01*
X127498355Y-67955701D01*
X127504874Y-67948179D01*
X127506123Y-67939490D01*
X127509915Y-67931577D01*
X127508680Y-67921701D01*
X127510097Y-67911849D01*
X127506451Y-67903865D01*
X127383680Y-66921701D01*
X127385097Y-66911849D01*
X127377714Y-66895683D01*
X127370628Y-66879377D01*
X127370109Y-66879030D01*
X127369850Y-66878462D01*
X127354921Y-66868868D01*
X127340123Y-66858967D01*
X127339496Y-66858955D01*
X127338973Y-66858619D01*
X127321231Y-66858619D01*
X127303425Y-66858291D01*
X127302893Y-66858619D01*
X127089950Y-66858619D01*
X127079326Y-66856059D01*
X127063447Y-66861581D01*
X127047308Y-66866321D01*
X127046223Y-66867572D01*
X126926685Y-66909150D01*
X126910670Y-66913770D01*
X126903374Y-66922108D01*
X126894356Y-66928551D01*
X126891528Y-66935646D01*
X126819612Y-67017834D01*
X126810210Y-67024848D01*
X126804585Y-67039847D01*
X126797857Y-67054394D01*
X126798201Y-67056872D01*
X126771783Y-67127319D01*
X126766832Y-67133252D01*
X126765468Y-67144159D01*
X126764897Y-67145684D01*
X126764357Y-67153051D01*
X126742007Y-67331848D01*
X126738470Y-67339232D01*
X126435872Y-67339232D01*
X126383680Y-66921701D01*
X126385097Y-66911849D01*
X126377714Y-66895683D01*
X126370628Y-66879377D01*
X126370109Y-66879030D01*
X126369850Y-66878462D01*
X126354921Y-66868868D01*
X126340123Y-66858967D01*
X126339496Y-66858955D01*
X126338973Y-66858619D01*
X126321231Y-66858619D01*
X126303425Y-66858291D01*
X126302893Y-66858619D01*
X125835443Y-66858619D01*
X125809213Y-66866321D01*
X125785177Y-66894059D01*
X125779954Y-66930389D01*
X125480004Y-66930389D01*
X125476762Y-66904449D01*
X125465866Y-66879377D01*
X125435361Y-66858967D01*
X125398663Y-66858291D01*
X125367425Y-66877561D01*
X125351565Y-66910661D01*
X125470060Y-67858619D01*
X125055681Y-67858619D01*
X125029451Y-67866321D01*
X125005415Y-67894059D01*
X125000192Y-67930389D01*
X124936003Y-67930389D01*
X124938655Y-67911761D01*
X124800166Y-67609604D01*
X124792468Y-67592747D01*
X124792428Y-67592721D01*
X124477273Y-66905111D01*
X124476687Y-66897818D01*
X124469775Y-66888752D01*
X124468930Y-66886908D01*
X124464354Y-66881642D01*
X124454434Y-66868630D01*
X124452409Y-66867895D01*
X124451000Y-66866273D01*
X124435318Y-66861691D01*
X124419933Y-66856107D01*
X124417833Y-66856583D01*
X124415769Y-66855980D01*
X124400090Y-66860607D01*
X124384138Y-66864225D01*
X124382629Y-66865760D01*
X124380567Y-66866369D01*
X124369879Y-66878736D01*
X124358415Y-66890405D01*
X124357976Y-66892511D01*
X124356569Y-66894140D01*
X124354263Y-66910333D01*
X124209176Y-67606750D01*
X124207796Y-67608344D01*
X124205461Y-67624584D01*
X124144506Y-67917170D01*
X123746208Y-67917170D01*
X123688595Y-67456259D01*
X123951787Y-66941573D01*
X123956872Y-66914713D01*
X123943119Y-66880684D01*
X123913151Y-66859493D01*
X123876483Y-66857867D01*
X123844758Y-66876324D01*
X123613760Y-67328052D01*
X123269665Y-66876108D01*
X123247648Y-66859904D01*
X123211018Y-66857583D01*
X123178949Y-66875435D01*
X123161621Y-66907791D01*
X123013571Y-66907791D01*
X123013571Y-66407143D01*
X128215357Y-66407143D01*
X128215357Y-68380357D01*
G37*
D10*
G36*
X141264676Y-76559104D02*
G01*
X140997598Y-76559104D01*
X141081060Y-76158487D01*
X141264676Y-76559104D01*
G37*
G36*
X145034690Y-76368628D02*
G01*
X144885051Y-76368628D01*
X144866625Y-76366901D01*
X144863290Y-76368628D01*
X144755461Y-76368628D01*
X144679241Y-76332759D01*
X144641819Y-76299496D01*
X144596779Y-76227432D01*
X144583266Y-76119326D01*
X144607699Y-76054172D01*
X144631339Y-76027155D01*
X144691970Y-75994819D01*
X144987965Y-75994819D01*
X145034690Y-76368628D01*
G37*
G36*
X143129928Y-76368628D02*
G01*
X142850699Y-76368628D01*
X142774479Y-76332759D01*
X142737057Y-76299496D01*
X142692017Y-76227432D01*
X142678504Y-76119326D01*
X142702937Y-76054172D01*
X142726577Y-76027155D01*
X142787208Y-75994819D01*
X143083203Y-75994819D01*
X143129928Y-76368628D01*
G37*
G36*
X146002857Y-77417857D02*
G01*
X139663571Y-77417857D01*
X139663571Y-75930943D01*
X139881564Y-75930943D01*
X139899860Y-75971007D01*
X139936912Y-75994819D01*
X140178441Y-75994819D01*
X140296565Y-76939820D01*
X140309641Y-76969909D01*
X140346248Y-76994399D01*
X140390284Y-76995212D01*
X140427769Y-76972088D01*
X140446801Y-76932368D01*
X140444640Y-76915078D01*
X140770216Y-76915078D01*
X140772845Y-76947779D01*
X140799549Y-76982804D01*
X140840949Y-76997832D01*
X140883903Y-76988091D01*
X140914771Y-76956675D01*
X140966348Y-76709104D01*
X141333426Y-76709104D01*
X141448819Y-76960870D01*
X141470337Y-76985634D01*
X141512613Y-76997985D01*
X141554855Y-76985519D01*
X141583653Y-76952193D01*
X141589861Y-76908589D01*
X141449684Y-76602748D01*
X141440627Y-76582916D01*
X141440580Y-76582885D01*
X141141773Y-75930943D01*
X141595850Y-75930943D01*
X141614146Y-75971007D01*
X141651198Y-75994819D01*
X142083203Y-75994819D01*
X142123976Y-76321009D01*
X141864819Y-76321009D01*
X141833341Y-76330252D01*
X141804499Y-76363538D01*
X141798231Y-76407133D01*
X141816527Y-76447197D01*
X141853579Y-76471009D01*
X142142726Y-76471009D01*
X142189452Y-76844819D01*
X141787438Y-76844819D01*
X141755960Y-76854062D01*
X141727118Y-76887348D01*
X141720850Y-76930943D01*
X141739146Y-76971007D01*
X141776198Y-76994819D01*
X142273759Y-76994819D01*
X142295046Y-76995212D01*
X142305211Y-76988940D01*
X142316671Y-76985576D01*
X142323566Y-76977618D01*
X142332531Y-76972088D01*
X142337692Y-76961314D01*
X142345513Y-76952290D01*
X142347011Y-76941866D01*
X142351563Y-76932368D01*
X142350081Y-76920515D01*
X142351781Y-76908695D01*
X142347406Y-76899115D01*
X142284604Y-76396703D01*
X142286304Y-76384885D01*
X142281930Y-76375307D01*
X142247235Y-76097746D01*
X142524640Y-76097746D01*
X142526449Y-76112222D01*
X142525383Y-76126776D01*
X142529130Y-76133667D01*
X142544590Y-76257348D01*
X142544378Y-76274227D01*
X142553089Y-76288165D01*
X142559641Y-76303242D01*
X142564575Y-76306543D01*
X142609857Y-76378994D01*
X142612886Y-76389815D01*
X142674891Y-76444931D01*
X142680883Y-76454493D01*
X142700869Y-76463898D01*
X142720643Y-76473232D01*
X142720690Y-76473225D01*
X142797533Y-76509387D01*
X142811912Y-76518628D01*
X142828141Y-76518628D01*
X142844173Y-76521121D01*
X142849801Y-76518628D01*
X143148678Y-76518628D01*
X143201327Y-76939820D01*
X143214403Y-76969909D01*
X143251010Y-76994399D01*
X143295046Y-76995212D01*
X143332531Y-76972088D01*
X143351563Y-76932368D01*
X143290557Y-76444324D01*
X143292257Y-76432504D01*
X143287882Y-76422924D01*
X143226384Y-75930943D01*
X143500612Y-75930943D01*
X143518908Y-75971007D01*
X143555960Y-75994819D01*
X143987965Y-75994819D01*
X144028738Y-76321009D01*
X143769581Y-76321009D01*
X143738103Y-76330252D01*
X143709261Y-76363538D01*
X143702993Y-76407133D01*
X143721289Y-76447197D01*
X143758341Y-76471009D01*
X144047488Y-76471009D01*
X144094214Y-76844819D01*
X143692200Y-76844819D01*
X143660722Y-76854062D01*
X143631880Y-76887348D01*
X143625612Y-76930943D01*
X143643908Y-76971007D01*
X143680960Y-76994819D01*
X144178521Y-76994819D01*
X144199808Y-76995212D01*
X144209973Y-76988940D01*
X144221433Y-76985576D01*
X144228328Y-76977618D01*
X144237293Y-76972088D01*
X144242454Y-76961314D01*
X144250275Y-76952290D01*
X144251773Y-76941866D01*
X144256325Y-76932368D01*
X144254843Y-76920515D01*
X144256543Y-76908695D01*
X144252168Y-76899115D01*
X144189366Y-76396703D01*
X144191066Y-76384885D01*
X144186692Y-76375307D01*
X144151997Y-76097746D01*
X144429402Y-76097746D01*
X144431211Y-76112222D01*
X144430145Y-76126776D01*
X144433892Y-76133667D01*
X144449352Y-76257348D01*
X144449140Y-76274227D01*
X144457851Y-76288165D01*
X144464403Y-76303242D01*
X144469337Y-76306543D01*
X144514619Y-76378994D01*
X144517648Y-76389815D01*
X144579653Y-76444931D01*
X144585645Y-76454493D01*
X144605631Y-76463898D01*
X144625405Y-76473232D01*
X144625452Y-76473225D01*
X144702295Y-76509387D01*
X144716674Y-76518628D01*
X144732903Y-76518628D01*
X144748935Y-76521121D01*
X144751009Y-76520202D01*
X144537352Y-76891781D01*
X144529673Y-76923676D01*
X144544152Y-76965272D01*
X144578821Y-76992437D01*
X144622672Y-76996546D01*
X144661785Y-76976295D01*
X144924943Y-76518628D01*
X145053440Y-76518628D01*
X145106089Y-76939820D01*
X145119165Y-76969909D01*
X145155772Y-76994399D01*
X145199808Y-76995212D01*
X145237293Y-76972088D01*
X145256325Y-76932368D01*
X145195319Y-76444324D01*
X145197019Y-76432504D01*
X145192644Y-76422924D01*
X145129843Y-75920516D01*
X145131543Y-75908695D01*
X145122674Y-75889273D01*
X145114181Y-75869729D01*
X145113558Y-75869312D01*
X145113247Y-75868631D01*
X145095279Y-75857083D01*
X145077574Y-75845239D01*
X145076827Y-75845225D01*
X145076195Y-75844819D01*
X145054825Y-75844819D01*
X145033538Y-75844426D01*
X145032901Y-75844819D01*
X144676273Y-75844819D01*
X144657357Y-75843279D01*
X144644708Y-75850024D01*
X144630960Y-75854062D01*
X144625650Y-75860189D01*
X144555587Y-75897556D01*
X144541994Y-75901477D01*
X144529379Y-75915893D01*
X144515702Y-75929304D01*
X144515017Y-75932306D01*
X144491058Y-75959688D01*
X144479776Y-75968103D01*
X144473024Y-75986107D01*
X144464952Y-76003559D01*
X144465364Y-76006532D01*
X144437486Y-76080873D01*
X144429402Y-76097746D01*
X144151997Y-76097746D01*
X144129843Y-75920516D01*
X144131543Y-75908695D01*
X144122674Y-75889273D01*
X144114181Y-75869729D01*
X144113558Y-75869312D01*
X144113247Y-75868631D01*
X144095279Y-75857083D01*
X144077574Y-75845239D01*
X144076827Y-75845225D01*
X144076195Y-75844819D01*
X144054825Y-75844819D01*
X144033538Y-75844426D01*
X144032901Y-75844819D01*
X143567200Y-75844819D01*
X143535722Y-75854062D01*
X143506880Y-75887348D01*
X143500612Y-75930943D01*
X143226384Y-75930943D01*
X143225081Y-75920516D01*
X143226781Y-75908695D01*
X143217912Y-75889273D01*
X143209419Y-75869729D01*
X143208796Y-75869312D01*
X143208485Y-75868631D01*
X143190517Y-75857083D01*
X143172812Y-75845239D01*
X143172065Y-75845225D01*
X143171433Y-75844819D01*
X143150063Y-75844819D01*
X143128776Y-75844426D01*
X143128139Y-75844819D01*
X142771511Y-75844819D01*
X142752595Y-75843279D01*
X142739946Y-75850024D01*
X142726198Y-75854062D01*
X142720888Y-75860189D01*
X142650825Y-75897556D01*
X142637232Y-75901477D01*
X142624617Y-75915893D01*
X142610940Y-75929304D01*
X142610255Y-75932306D01*
X142586296Y-75959688D01*
X142575014Y-75968103D01*
X142568262Y-75986107D01*
X142560190Y-76003559D01*
X142560602Y-76006532D01*
X142532724Y-76080873D01*
X142524640Y-76097746D01*
X142247235Y-76097746D01*
X142225081Y-75920516D01*
X142226781Y-75908695D01*
X142217912Y-75889273D01*
X142209419Y-75869729D01*
X142208796Y-75869312D01*
X142208485Y-75868631D01*
X142190517Y-75857083D01*
X142172812Y-75845239D01*
X142172065Y-75845225D01*
X142171433Y-75844819D01*
X142150063Y-75844819D01*
X142128776Y-75844426D01*
X142128139Y-75844819D01*
X141662438Y-75844819D01*
X141630960Y-75854062D01*
X141602118Y-75887348D01*
X141595850Y-75930943D01*
X141141773Y-75930943D01*
X141127869Y-75900608D01*
X141127166Y-75891859D01*
X141118874Y-75880984D01*
X141117859Y-75878768D01*
X141112358Y-75872437D01*
X141100462Y-75856834D01*
X141098035Y-75855953D01*
X141096342Y-75854004D01*
X141077507Y-75848501D01*
X141059062Y-75841806D01*
X141056543Y-75842377D01*
X141054065Y-75841653D01*
X141035248Y-75847206D01*
X141016108Y-75851547D01*
X141014297Y-75853389D01*
X141011823Y-75854120D01*
X140999000Y-75868958D01*
X140985240Y-75882963D01*
X140984713Y-75885491D01*
X140983025Y-75887445D01*
X140980259Y-75906869D01*
X140835914Y-76599724D01*
X140834261Y-76601633D01*
X140831463Y-76621089D01*
X140770216Y-76915078D01*
X140444640Y-76915078D01*
X140329607Y-75994819D01*
X140541145Y-75994819D01*
X140572623Y-75985576D01*
X140601465Y-75952290D01*
X140607733Y-75908695D01*
X140589437Y-75868631D01*
X140552385Y-75844819D01*
X140245301Y-75844819D01*
X140224014Y-75844426D01*
X140223377Y-75844819D01*
X139948152Y-75844819D01*
X139916674Y-75854062D01*
X139887832Y-75887348D01*
X139881564Y-75930943D01*
X139663571Y-75930943D01*
X139663571Y-75307143D01*
X146002857Y-75307143D01*
X146002857Y-77417857D01*
G37*
X143605238Y-74004819D02*
X143938571Y-73528628D01*
X144176666Y-74004819D02*
X144176666Y-73004819D01*
X144176666Y-73004819D02*
X143795714Y-73004819D01*
X143795714Y-73004819D02*
X143700476Y-73052438D01*
X143700476Y-73052438D02*
X143652857Y-73100057D01*
X143652857Y-73100057D02*
X143605238Y-73195295D01*
X143605238Y-73195295D02*
X143605238Y-73338152D01*
X143605238Y-73338152D02*
X143652857Y-73433390D01*
X143652857Y-73433390D02*
X143700476Y-73481009D01*
X143700476Y-73481009D02*
X143795714Y-73528628D01*
X143795714Y-73528628D02*
X144176666Y-73528628D01*
X143319523Y-73004819D02*
X142986190Y-74004819D01*
X142986190Y-74004819D02*
X142652857Y-73004819D01*
X142367142Y-73100057D02*
X142319523Y-73052438D01*
X142319523Y-73052438D02*
X142224285Y-73004819D01*
X142224285Y-73004819D02*
X141986190Y-73004819D01*
X141986190Y-73004819D02*
X141890952Y-73052438D01*
X141890952Y-73052438D02*
X141843333Y-73100057D01*
X141843333Y-73100057D02*
X141795714Y-73195295D01*
X141795714Y-73195295D02*
X141795714Y-73290533D01*
X141795714Y-73290533D02*
X141843333Y-73433390D01*
X141843333Y-73433390D02*
X142414761Y-74004819D01*
X142414761Y-74004819D02*
X141795714Y-74004819D01*
X126605238Y-65254819D02*
X126938571Y-64778628D01*
X127176666Y-65254819D02*
X127176666Y-64254819D01*
X127176666Y-64254819D02*
X126795714Y-64254819D01*
X126795714Y-64254819D02*
X126700476Y-64302438D01*
X126700476Y-64302438D02*
X126652857Y-64350057D01*
X126652857Y-64350057D02*
X126605238Y-64445295D01*
X126605238Y-64445295D02*
X126605238Y-64588152D01*
X126605238Y-64588152D02*
X126652857Y-64683390D01*
X126652857Y-64683390D02*
X126700476Y-64731009D01*
X126700476Y-64731009D02*
X126795714Y-64778628D01*
X126795714Y-64778628D02*
X127176666Y-64778628D01*
X126319523Y-64254819D02*
X125986190Y-65254819D01*
X125986190Y-65254819D02*
X125652857Y-64254819D01*
X124795714Y-65254819D02*
X125367142Y-65254819D01*
X125081428Y-65254819D02*
X125081428Y-64254819D01*
X125081428Y-64254819D02*
X125176666Y-64397676D01*
X125176666Y-64397676D02*
X125271904Y-64492914D01*
X125271904Y-64492914D02*
X125367142Y-64540533D01*
X160855238Y-65004819D02*
X161188571Y-64528628D01*
X161426666Y-65004819D02*
X161426666Y-64004819D01*
X161426666Y-64004819D02*
X161045714Y-64004819D01*
X161045714Y-64004819D02*
X160950476Y-64052438D01*
X160950476Y-64052438D02*
X160902857Y-64100057D01*
X160902857Y-64100057D02*
X160855238Y-64195295D01*
X160855238Y-64195295D02*
X160855238Y-64338152D01*
X160855238Y-64338152D02*
X160902857Y-64433390D01*
X160902857Y-64433390D02*
X160950476Y-64481009D01*
X160950476Y-64481009D02*
X161045714Y-64528628D01*
X161045714Y-64528628D02*
X161426666Y-64528628D01*
X160569523Y-64004819D02*
X160236190Y-65004819D01*
X160236190Y-65004819D02*
X159902857Y-64004819D01*
X159664761Y-64004819D02*
X159045714Y-64004819D01*
X159045714Y-64004819D02*
X159379047Y-64385771D01*
X159379047Y-64385771D02*
X159236190Y-64385771D01*
X159236190Y-64385771D02*
X159140952Y-64433390D01*
X159140952Y-64433390D02*
X159093333Y-64481009D01*
X159093333Y-64481009D02*
X159045714Y-64576247D01*
X159045714Y-64576247D02*
X159045714Y-64814342D01*
X159045714Y-64814342D02*
X159093333Y-64909580D01*
X159093333Y-64909580D02*
X159140952Y-64957200D01*
X159140952Y-64957200D02*
X159236190Y-65004819D01*
X159236190Y-65004819D02*
X159521904Y-65004819D01*
X159521904Y-65004819D02*
X159617142Y-64957200D01*
X159617142Y-64957200D02*
X159664761Y-64909580D01*
D12*
X155500000Y-135000000D03*
X155500000Y-142620000D03*
X127760000Y-142600000D03*
X127760000Y-134980000D03*
X131010000Y-135000000D03*
X131010000Y-142620000D03*
%LPC*%
G36*
G01*
X150050000Y-137075000D02*
X150050000Y-138575000D01*
G75*
G02*
X149850000Y-138775000I-200000J0D01*
G01*
X147250000Y-138775000D01*
G75*
G02*
X147050000Y-138575000I0J200000D01*
G01*
X147050000Y-137075000D01*
G75*
G02*
X147250000Y-136875000I200000J0D01*
G01*
X149850000Y-136875000D01*
G75*
G02*
X150050000Y-137075000I0J-200000D01*
G01*
G37*
D13*
X143250000Y-137825000D03*
X137950000Y-137825000D03*
X148550000Y-142525000D03*
X143250000Y-142550000D03*
X137950000Y-142525000D03*
X148550000Y-147225000D03*
X143250000Y-147225000D03*
X137950000Y-147225000D03*
D14*
X128595000Y-130665000D03*
X128595000Y-114435000D03*
X122245000Y-130665000D03*
X122245000Y-114435000D03*
X134945000Y-130665000D03*
X134945000Y-114435000D03*
G36*
G01*
X149860000Y-59175000D02*
X149860000Y-57475000D01*
G75*
G02*
X150060000Y-57275000I200000J0D01*
G01*
X151760000Y-57275000D01*
G75*
G02*
X151960000Y-57475000I0J-200000D01*
G01*
X151960000Y-59175000D01*
G75*
G02*
X151760000Y-59375000I-200000J0D01*
G01*
X150060000Y-59375000D01*
G75*
G02*
X149860000Y-59175000I0J200000D01*
G01*
G37*
D15*
X150910000Y-60865000D03*
G36*
G01*
X145850000Y-110300000D02*
X147550000Y-110300000D01*
G75*
G02*
X147750000Y-110500000I0J-200000D01*
G01*
X147750000Y-112200000D01*
G75*
G02*
X147550000Y-112400000I-200000J0D01*
G01*
X145850000Y-112400000D01*
G75*
G02*
X145650000Y-112200000I0J200000D01*
G01*
X145650000Y-110500000D01*
G75*
G02*
X145850000Y-110300000I200000J0D01*
G01*
G37*
X144160000Y-111350000D03*
X141620000Y-111350000D03*
X139080000Y-111350000D03*
G36*
G01*
X145850000Y-104750000D02*
X147550000Y-104750000D01*
G75*
G02*
X147750000Y-104950000I0J-200000D01*
G01*
X147750000Y-106650000D01*
G75*
G02*
X147550000Y-106850000I-200000J0D01*
G01*
X145850000Y-106850000D01*
G75*
G02*
X145650000Y-106650000I0J200000D01*
G01*
X145650000Y-104950000D01*
G75*
G02*
X145850000Y-104750000I200000J0D01*
G01*
G37*
X144160000Y-105800000D03*
X141620000Y-105800000D03*
X139080000Y-105800000D03*
G36*
G01*
X161200000Y-139200000D02*
X162800000Y-139200000D01*
G75*
G02*
X163000000Y-139400000I0J-200000D01*
G01*
X163000000Y-141000000D01*
G75*
G02*
X162800000Y-141200000I-200000J0D01*
G01*
X161200000Y-141200000D01*
G75*
G02*
X161000000Y-141000000I0J200000D01*
G01*
X161000000Y-139400000D01*
G75*
G02*
X161200000Y-139200000I200000J0D01*
G01*
G37*
D16*
X162000000Y-142700000D03*
G36*
G01*
X123700000Y-136590000D02*
X123700000Y-138490000D01*
G75*
G02*
X123500000Y-138690000I-200000J0D01*
G01*
X121500000Y-138690000D01*
G75*
G02*
X121300000Y-138490000I0J200000D01*
G01*
X121300000Y-136590000D01*
G75*
G02*
X121500000Y-136390000I200000J0D01*
G01*
X123500000Y-136390000D01*
G75*
G02*
X123700000Y-136590000I0J-200000D01*
G01*
G37*
D17*
X122500000Y-135000000D03*
D18*
X155500000Y-135000000D03*
X155500000Y-142620000D03*
X127760000Y-142600000D03*
X127760000Y-134980000D03*
X131010000Y-135000000D03*
X131010000Y-142620000D03*
G36*
G01*
X160200000Y-135650000D02*
X160200000Y-134350000D01*
G75*
G02*
X160400000Y-134150000I200000J0D01*
G01*
X161700000Y-134150000D01*
G75*
G02*
X161900000Y-134350000I0J-200000D01*
G01*
X161900000Y-135650000D01*
G75*
G02*
X161700000Y-135850000I-200000J0D01*
G01*
X160400000Y-135850000D01*
G75*
G02*
X160200000Y-135650000I0J200000D01*
G01*
G37*
D19*
X166050000Y-135000000D03*
G36*
G01*
X143290000Y-115760000D02*
X144990000Y-115760000D01*
G75*
G02*
X145190000Y-115960000I0J-200000D01*
G01*
X145190000Y-117660000D01*
G75*
G02*
X144990000Y-117860000I-200000J0D01*
G01*
X143290000Y-117860000D01*
G75*
G02*
X143090000Y-117660000I0J200000D01*
G01*
X143090000Y-115960000D01*
G75*
G02*
X143290000Y-115760000I200000J0D01*
G01*
G37*
D15*
X141600000Y-116810000D03*
D14*
X156925000Y-114435000D03*
X156925000Y-130665000D03*
X163275000Y-114435000D03*
X163275000Y-130665000D03*
X150575000Y-114435000D03*
X150575000Y-130665000D03*
G36*
G01*
X161304888Y-73500000D02*
X161304888Y-71900000D01*
G75*
G02*
X161504888Y-71700000I200000J0D01*
G01*
X163104888Y-71700000D01*
G75*
G02*
X163304888Y-71900000I0J-200000D01*
G01*
X163304888Y-73500000D01*
G75*
G02*
X163104888Y-73700000I-200000J0D01*
G01*
X161504888Y-73700000D01*
G75*
G02*
X161304888Y-73500000I0J200000D01*
G01*
G37*
D16*
X164804888Y-72700000D03*
G36*
G01*
X160910000Y-84000000D02*
X159310000Y-84000000D01*
G75*
G02*
X159110000Y-83800000I0J200000D01*
G01*
X159110000Y-82200000D01*
G75*
G02*
X159310000Y-82000000I200000J0D01*
G01*
X160910000Y-82000000D01*
G75*
G02*
X161110000Y-82200000I0J-200000D01*
G01*
X161110000Y-83800000D01*
G75*
G02*
X160910000Y-84000000I-200000J0D01*
G01*
G37*
X160110000Y-80500000D03*
G36*
G01*
X166310000Y-100194888D02*
X167910000Y-100194888D01*
G75*
G02*
X168110000Y-100394888I0J-200000D01*
G01*
X168110000Y-101994888D01*
G75*
G02*
X167910000Y-102194888I-200000J0D01*
G01*
X166310000Y-102194888D01*
G75*
G02*
X166110000Y-101994888I0J200000D01*
G01*
X166110000Y-100394888D01*
G75*
G02*
X166310000Y-100194888I200000J0D01*
G01*
G37*
X167110000Y-103694888D03*
G36*
G01*
X157110000Y-79400000D02*
X155510000Y-79400000D01*
G75*
G02*
X155310000Y-79200000I0J200000D01*
G01*
X155310000Y-77600000D01*
G75*
G02*
X155510000Y-77400000I200000J0D01*
G01*
X157110000Y-77400000D01*
G75*
G02*
X157310000Y-77600000I0J-200000D01*
G01*
X157310000Y-79200000D01*
G75*
G02*
X157110000Y-79400000I-200000J0D01*
G01*
G37*
X156310000Y-75900000D03*
D20*
X138010000Y-64800000D03*
X143010000Y-64800000D03*
X148010000Y-64800000D03*
X121260000Y-54550000D03*
X126260000Y-54550000D03*
X131260000Y-54550000D03*
X155010000Y-54300000D03*
X160010000Y-54300000D03*
X165010000Y-54300000D03*
%LPD*%
M02*
