G04 #@! TF.GenerationSoftware,KiCad,Pcbnew,7.0.5.1-1-g8f565ef7f0-dirty-deb11*
G04 #@! TF.CreationDate,2023-08-10T18:34:47+00:00*
G04 #@! TF.ProjectId,rebote-smd,7265626f-7465-42d7-936d-642e6b696361,1.0.6*
G04 #@! TF.SameCoordinates,Original*
G04 #@! TF.FileFunction,Soldermask,Top*
G04 #@! TF.FilePolarity,Negative*
%FSLAX46Y46*%
G04 Gerber Fmt 4.6, Leading zero omitted, Abs format (unit mm)*
G04 Created by KiCad (PCBNEW 7.0.5.1-1-g8f565ef7f0-dirty-deb11) date 2023-08-10 18:34:47*
%MOMM*%
%LPD*%
G01*
G04 APERTURE LIST*
%ADD10O,3.000000X1.900000*%
%ADD11C,3.400000*%
%ADD12O,2.100000X2.100000*%
%ADD13C,2.000000*%
%ADD14C,2.300000*%
%ADD15C,2.398980*%
%ADD16C,1.700000*%
%ADD17C,1.924000*%
G04 APERTURE END LIST*
G36*
G01*
X150050000Y-137075000D02*
X150050000Y-138575000D01*
G75*
G02*
X149850000Y-138775000I-200000J0D01*
G01*
X147250000Y-138775000D01*
G75*
G02*
X147050000Y-138575000I0J200000D01*
G01*
X147050000Y-137075000D01*
G75*
G02*
X147250000Y-136875000I200000J0D01*
G01*
X149850000Y-136875000D01*
G75*
G02*
X150050000Y-137075000I0J-200000D01*
G01*
G37*
D10*
X143250000Y-137825000D03*
X137950000Y-137825000D03*
X148550000Y-142525000D03*
X143250000Y-142550000D03*
X137950000Y-142525000D03*
X148550000Y-147225000D03*
X143250000Y-147225000D03*
X137950000Y-147225000D03*
D11*
X128595000Y-130665000D03*
X128595000Y-114435000D03*
X122245000Y-130665000D03*
X122245000Y-114435000D03*
X134945000Y-130665000D03*
X134945000Y-114435000D03*
G36*
G01*
X149860000Y-59175000D02*
X149860000Y-57475000D01*
G75*
G02*
X150060000Y-57275000I200000J0D01*
G01*
X151760000Y-57275000D01*
G75*
G02*
X151960000Y-57475000I0J-200000D01*
G01*
X151960000Y-59175000D01*
G75*
G02*
X151760000Y-59375000I-200000J0D01*
G01*
X150060000Y-59375000D01*
G75*
G02*
X149860000Y-59175000I0J200000D01*
G01*
G37*
D12*
X150910000Y-60865000D03*
G36*
G01*
X145850000Y-110300000D02*
X147550000Y-110300000D01*
G75*
G02*
X147750000Y-110500000I0J-200000D01*
G01*
X147750000Y-112200000D01*
G75*
G02*
X147550000Y-112400000I-200000J0D01*
G01*
X145850000Y-112400000D01*
G75*
G02*
X145650000Y-112200000I0J200000D01*
G01*
X145650000Y-110500000D01*
G75*
G02*
X145850000Y-110300000I200000J0D01*
G01*
G37*
X144160000Y-111350000D03*
X141620000Y-111350000D03*
X139080000Y-111350000D03*
G36*
G01*
X145850000Y-104750000D02*
X147550000Y-104750000D01*
G75*
G02*
X147750000Y-104950000I0J-200000D01*
G01*
X147750000Y-106650000D01*
G75*
G02*
X147550000Y-106850000I-200000J0D01*
G01*
X145850000Y-106850000D01*
G75*
G02*
X145650000Y-106650000I0J200000D01*
G01*
X145650000Y-104950000D01*
G75*
G02*
X145850000Y-104750000I200000J0D01*
G01*
G37*
X144160000Y-105800000D03*
X141620000Y-105800000D03*
X139080000Y-105800000D03*
G36*
G01*
X161200000Y-139200000D02*
X162800000Y-139200000D01*
G75*
G02*
X163000000Y-139400000I0J-200000D01*
G01*
X163000000Y-141000000D01*
G75*
G02*
X162800000Y-141200000I-200000J0D01*
G01*
X161200000Y-141200000D01*
G75*
G02*
X161000000Y-141000000I0J200000D01*
G01*
X161000000Y-139400000D01*
G75*
G02*
X161200000Y-139200000I200000J0D01*
G01*
G37*
D13*
X162000000Y-142700000D03*
G36*
G01*
X123700000Y-136590000D02*
X123700000Y-138490000D01*
G75*
G02*
X123500000Y-138690000I-200000J0D01*
G01*
X121500000Y-138690000D01*
G75*
G02*
X121300000Y-138490000I0J200000D01*
G01*
X121300000Y-136590000D01*
G75*
G02*
X121500000Y-136390000I200000J0D01*
G01*
X123500000Y-136390000D01*
G75*
G02*
X123700000Y-136590000I0J-200000D01*
G01*
G37*
D14*
X122500000Y-135000000D03*
D15*
X155500000Y-135000000D03*
X155500000Y-142620000D03*
X127760000Y-142600000D03*
X127760000Y-134980000D03*
X131010000Y-135000000D03*
X131010000Y-142620000D03*
G36*
G01*
X160200000Y-135650000D02*
X160200000Y-134350000D01*
G75*
G02*
X160400000Y-134150000I200000J0D01*
G01*
X161700000Y-134150000D01*
G75*
G02*
X161900000Y-134350000I0J-200000D01*
G01*
X161900000Y-135650000D01*
G75*
G02*
X161700000Y-135850000I-200000J0D01*
G01*
X160400000Y-135850000D01*
G75*
G02*
X160200000Y-135650000I0J200000D01*
G01*
G37*
D16*
X166050000Y-135000000D03*
G36*
G01*
X143290000Y-115760000D02*
X144990000Y-115760000D01*
G75*
G02*
X145190000Y-115960000I0J-200000D01*
G01*
X145190000Y-117660000D01*
G75*
G02*
X144990000Y-117860000I-200000J0D01*
G01*
X143290000Y-117860000D01*
G75*
G02*
X143090000Y-117660000I0J200000D01*
G01*
X143090000Y-115960000D01*
G75*
G02*
X143290000Y-115760000I200000J0D01*
G01*
G37*
D12*
X141600000Y-116810000D03*
D11*
X156925000Y-114435000D03*
X156925000Y-130665000D03*
X163275000Y-114435000D03*
X163275000Y-130665000D03*
X150575000Y-114435000D03*
X150575000Y-130665000D03*
G36*
G01*
X142235000Y-78775000D02*
X143185000Y-78775000D01*
G75*
G02*
X143635000Y-79225000I0J-450000D01*
G01*
X143635000Y-79900000D01*
G75*
G02*
X143185000Y-80350000I-450000J0D01*
G01*
X142235000Y-80350000D01*
G75*
G02*
X141785000Y-79900000I0J450000D01*
G01*
X141785000Y-79225000D01*
G75*
G02*
X142235000Y-78775000I450000J0D01*
G01*
G37*
G36*
G01*
X142235000Y-80850000D02*
X143185000Y-80850000D01*
G75*
G02*
X143635000Y-81300000I0J-450000D01*
G01*
X143635000Y-81975000D01*
G75*
G02*
X143185000Y-82425000I-450000J0D01*
G01*
X142235000Y-82425000D01*
G75*
G02*
X141785000Y-81975000I0J450000D01*
G01*
X141785000Y-81300000D01*
G75*
G02*
X142235000Y-80850000I450000J0D01*
G01*
G37*
G36*
G01*
X168241000Y-97390000D02*
X167291000Y-97390000D01*
G75*
G02*
X166841000Y-96940000I0J450000D01*
G01*
X166841000Y-96265000D01*
G75*
G02*
X167291000Y-95815000I450000J0D01*
G01*
X168241000Y-95815000D01*
G75*
G02*
X168691000Y-96265000I0J-450000D01*
G01*
X168691000Y-96940000D01*
G75*
G02*
X168241000Y-97390000I-450000J0D01*
G01*
G37*
G36*
G01*
X168241000Y-95315000D02*
X167291000Y-95315000D01*
G75*
G02*
X166841000Y-94865000I0J450000D01*
G01*
X166841000Y-94190000D01*
G75*
G02*
X167291000Y-93740000I450000J0D01*
G01*
X168241000Y-93740000D01*
G75*
G02*
X168691000Y-94190000I0J-450000D01*
G01*
X168691000Y-94865000D01*
G75*
G02*
X168241000Y-95315000I-450000J0D01*
G01*
G37*
G36*
G01*
X162316000Y-102965000D02*
X161416000Y-102965000D01*
G75*
G02*
X160966000Y-102515000I0J450000D01*
G01*
X160966000Y-101815000D01*
G75*
G02*
X161416000Y-101365000I450000J0D01*
G01*
X162316000Y-101365000D01*
G75*
G02*
X162766000Y-101815000I0J-450000D01*
G01*
X162766000Y-102515000D01*
G75*
G02*
X162316000Y-102965000I-450000J0D01*
G01*
G37*
G36*
G01*
X162316000Y-100965000D02*
X161416000Y-100965000D01*
G75*
G02*
X160966000Y-100515000I0J450000D01*
G01*
X160966000Y-99815000D01*
G75*
G02*
X161416000Y-99365000I450000J0D01*
G01*
X162316000Y-99365000D01*
G75*
G02*
X162766000Y-99815000I0J-450000D01*
G01*
X162766000Y-100515000D01*
G75*
G02*
X162316000Y-100965000I-450000J0D01*
G01*
G37*
G36*
G01*
X170035000Y-89025000D02*
X170035000Y-89975000D01*
G75*
G02*
X169585000Y-90425000I-450000J0D01*
G01*
X168910000Y-90425000D01*
G75*
G02*
X168460000Y-89975000I0J450000D01*
G01*
X168460000Y-89025000D01*
G75*
G02*
X168910000Y-88575000I450000J0D01*
G01*
X169585000Y-88575000D01*
G75*
G02*
X170035000Y-89025000I0J-450000D01*
G01*
G37*
G36*
G01*
X167960000Y-89025000D02*
X167960000Y-89975000D01*
G75*
G02*
X167510000Y-90425000I-450000J0D01*
G01*
X166835000Y-90425000D01*
G75*
G02*
X166385000Y-89975000I0J450000D01*
G01*
X166385000Y-89025000D01*
G75*
G02*
X166835000Y-88575000I450000J0D01*
G01*
X167510000Y-88575000D01*
G75*
G02*
X167960000Y-89025000I0J-450000D01*
G01*
G37*
G36*
G01*
X151256000Y-99005000D02*
X152206000Y-99005000D01*
G75*
G02*
X152656000Y-99455000I0J-450000D01*
G01*
X152656000Y-100130000D01*
G75*
G02*
X152206000Y-100580000I-450000J0D01*
G01*
X151256000Y-100580000D01*
G75*
G02*
X150806000Y-100130000I0J450000D01*
G01*
X150806000Y-99455000D01*
G75*
G02*
X151256000Y-99005000I450000J0D01*
G01*
G37*
G36*
G01*
X151256000Y-101080000D02*
X152206000Y-101080000D01*
G75*
G02*
X152656000Y-101530000I0J-450000D01*
G01*
X152656000Y-102205000D01*
G75*
G02*
X152206000Y-102655000I-450000J0D01*
G01*
X151256000Y-102655000D01*
G75*
G02*
X150806000Y-102205000I0J450000D01*
G01*
X150806000Y-101530000D01*
G75*
G02*
X151256000Y-101080000I450000J0D01*
G01*
G37*
G36*
G01*
X157316000Y-99365000D02*
X158216000Y-99365000D01*
G75*
G02*
X158666000Y-99815000I0J-450000D01*
G01*
X158666000Y-100515000D01*
G75*
G02*
X158216000Y-100965000I-450000J0D01*
G01*
X157316000Y-100965000D01*
G75*
G02*
X156866000Y-100515000I0J450000D01*
G01*
X156866000Y-99815000D01*
G75*
G02*
X157316000Y-99365000I450000J0D01*
G01*
G37*
G36*
G01*
X157316000Y-101365000D02*
X158216000Y-101365000D01*
G75*
G02*
X158666000Y-101815000I0J-450000D01*
G01*
X158666000Y-102515000D01*
G75*
G02*
X158216000Y-102965000I-450000J0D01*
G01*
X157316000Y-102965000D01*
G75*
G02*
X156866000Y-102515000I0J450000D01*
G01*
X156866000Y-101815000D01*
G75*
G02*
X157316000Y-101365000I450000J0D01*
G01*
G37*
G36*
G01*
X141410000Y-82150000D02*
X141410000Y-83050000D01*
G75*
G02*
X140960000Y-83500000I-450000J0D01*
G01*
X140260000Y-83500000D01*
G75*
G02*
X139810000Y-83050000I0J450000D01*
G01*
X139810000Y-82150000D01*
G75*
G02*
X140260000Y-81700000I450000J0D01*
G01*
X140960000Y-81700000D01*
G75*
G02*
X141410000Y-82150000I0J-450000D01*
G01*
G37*
G36*
G01*
X139410000Y-82150000D02*
X139410000Y-83050000D01*
G75*
G02*
X138960000Y-83500000I-450000J0D01*
G01*
X138260000Y-83500000D01*
G75*
G02*
X137810000Y-83050000I0J450000D01*
G01*
X137810000Y-82150000D01*
G75*
G02*
X138260000Y-81700000I450000J0D01*
G01*
X138960000Y-81700000D01*
G75*
G02*
X139410000Y-82150000I0J-450000D01*
G01*
G37*
G36*
G01*
X161304888Y-73500000D02*
X161304888Y-71900000D01*
G75*
G02*
X161504888Y-71700000I200000J0D01*
G01*
X163104888Y-71700000D01*
G75*
G02*
X163304888Y-71900000I0J-200000D01*
G01*
X163304888Y-73500000D01*
G75*
G02*
X163104888Y-73700000I-200000J0D01*
G01*
X161504888Y-73700000D01*
G75*
G02*
X161304888Y-73500000I0J200000D01*
G01*
G37*
D13*
X164804888Y-72700000D03*
G36*
G01*
X153335000Y-73525000D02*
X153335000Y-74475000D01*
G75*
G02*
X152885000Y-74925000I-450000J0D01*
G01*
X152210000Y-74925000D01*
G75*
G02*
X151760000Y-74475000I0J450000D01*
G01*
X151760000Y-73525000D01*
G75*
G02*
X152210000Y-73075000I450000J0D01*
G01*
X152885000Y-73075000D01*
G75*
G02*
X153335000Y-73525000I0J-450000D01*
G01*
G37*
G36*
G01*
X151260000Y-73525000D02*
X151260000Y-74475000D01*
G75*
G02*
X150810000Y-74925000I-450000J0D01*
G01*
X150135000Y-74925000D01*
G75*
G02*
X149685000Y-74475000I0J450000D01*
G01*
X149685000Y-73525000D01*
G75*
G02*
X150135000Y-73075000I450000J0D01*
G01*
X150810000Y-73075000D01*
G75*
G02*
X151260000Y-73525000I0J-450000D01*
G01*
G37*
G36*
G01*
X164260000Y-80800000D02*
X163360000Y-80800000D01*
G75*
G02*
X163160000Y-80600000I0J200000D01*
G01*
X163160000Y-79300000D01*
G75*
G02*
X163360000Y-79100000I200000J0D01*
G01*
X164260000Y-79100000D01*
G75*
G02*
X164460000Y-79300000I0J-200000D01*
G01*
X164460000Y-80600000D01*
G75*
G02*
X164260000Y-80800000I-200000J0D01*
G01*
G37*
G36*
X164263306Y-75913223D02*
G01*
X164318802Y-75843634D01*
X164398996Y-75805014D01*
X164443500Y-75800000D01*
X166176500Y-75800000D01*
X166263277Y-75819806D01*
X166332866Y-75875302D01*
X166371486Y-75955496D01*
X166376500Y-76000000D01*
X166376500Y-79125000D01*
X166356694Y-79211777D01*
X166301198Y-79281366D01*
X166221004Y-79319986D01*
X166176500Y-79325000D01*
X165960000Y-79325000D01*
X165960000Y-80600000D01*
X165940194Y-80686777D01*
X165884698Y-80756366D01*
X165804504Y-80794986D01*
X165760000Y-80800000D01*
X164860000Y-80800000D01*
X164773223Y-80780194D01*
X164703634Y-80724698D01*
X164665014Y-80644504D01*
X164660000Y-80600000D01*
X164660000Y-79325000D01*
X164443500Y-79325000D01*
X164356723Y-79305194D01*
X164287134Y-79249698D01*
X164248514Y-79169504D01*
X164243500Y-79125000D01*
X164243500Y-76000000D01*
X164263306Y-75913223D01*
G37*
G36*
G01*
X167260000Y-80800000D02*
X166360000Y-80800000D01*
G75*
G02*
X166160000Y-80600000I0J200000D01*
G01*
X166160000Y-79300000D01*
G75*
G02*
X166360000Y-79100000I200000J0D01*
G01*
X167260000Y-79100000D01*
G75*
G02*
X167460000Y-79300000I0J-200000D01*
G01*
X167460000Y-80600000D01*
G75*
G02*
X167260000Y-80800000I-200000J0D01*
G01*
G37*
G36*
G01*
X168466000Y-98115000D02*
X168466000Y-99015000D01*
G75*
G02*
X168016000Y-99465000I-450000J0D01*
G01*
X167316000Y-99465000D01*
G75*
G02*
X166866000Y-99015000I0J450000D01*
G01*
X166866000Y-98115000D01*
G75*
G02*
X167316000Y-97665000I450000J0D01*
G01*
X168016000Y-97665000D01*
G75*
G02*
X168466000Y-98115000I0J-450000D01*
G01*
G37*
G36*
G01*
X166466000Y-98115000D02*
X166466000Y-99015000D01*
G75*
G02*
X166016000Y-99465000I-450000J0D01*
G01*
X165316000Y-99465000D01*
G75*
G02*
X164866000Y-99015000I0J450000D01*
G01*
X164866000Y-98115000D01*
G75*
G02*
X165316000Y-97665000I450000J0D01*
G01*
X166016000Y-97665000D01*
G75*
G02*
X166466000Y-98115000I0J-450000D01*
G01*
G37*
G36*
G01*
X151035000Y-79075000D02*
X151985000Y-79075000D01*
G75*
G02*
X152435000Y-79525000I0J-450000D01*
G01*
X152435000Y-80200000D01*
G75*
G02*
X151985000Y-80650000I-450000J0D01*
G01*
X151035000Y-80650000D01*
G75*
G02*
X150585000Y-80200000I0J450000D01*
G01*
X150585000Y-79525000D01*
G75*
G02*
X151035000Y-79075000I450000J0D01*
G01*
G37*
G36*
G01*
X151035000Y-81150000D02*
X151985000Y-81150000D01*
G75*
G02*
X152435000Y-81600000I0J-450000D01*
G01*
X152435000Y-82275000D01*
G75*
G02*
X151985000Y-82725000I-450000J0D01*
G01*
X151035000Y-82725000D01*
G75*
G02*
X150585000Y-82275000I0J450000D01*
G01*
X150585000Y-81600000D01*
G75*
G02*
X151035000Y-81150000I450000J0D01*
G01*
G37*
G36*
G01*
X162510000Y-92150000D02*
X162510000Y-93050000D01*
G75*
G02*
X162060000Y-93500000I-450000J0D01*
G01*
X161360000Y-93500000D01*
G75*
G02*
X160910000Y-93050000I0J450000D01*
G01*
X160910000Y-92150000D01*
G75*
G02*
X161360000Y-91700000I450000J0D01*
G01*
X162060000Y-91700000D01*
G75*
G02*
X162510000Y-92150000I0J-450000D01*
G01*
G37*
G36*
G01*
X160510000Y-92150000D02*
X160510000Y-93050000D01*
G75*
G02*
X160060000Y-93500000I-450000J0D01*
G01*
X159360000Y-93500000D01*
G75*
G02*
X158910000Y-93050000I0J450000D01*
G01*
X158910000Y-92150000D01*
G75*
G02*
X159360000Y-91700000I450000J0D01*
G01*
X160060000Y-91700000D01*
G75*
G02*
X160510000Y-92150000I0J-450000D01*
G01*
G37*
G36*
G01*
X144110000Y-95750000D02*
X144110000Y-94850000D01*
G75*
G02*
X144560000Y-94400000I450000J0D01*
G01*
X145260000Y-94400000D01*
G75*
G02*
X145710000Y-94850000I0J-450000D01*
G01*
X145710000Y-95750000D01*
G75*
G02*
X145260000Y-96200000I-450000J0D01*
G01*
X144560000Y-96200000D01*
G75*
G02*
X144110000Y-95750000I0J450000D01*
G01*
G37*
G36*
G01*
X146110000Y-95750000D02*
X146110000Y-94850000D01*
G75*
G02*
X146560000Y-94400000I450000J0D01*
G01*
X147260000Y-94400000D01*
G75*
G02*
X147710000Y-94850000I0J-450000D01*
G01*
X147710000Y-95750000D01*
G75*
G02*
X147260000Y-96200000I-450000J0D01*
G01*
X146560000Y-96200000D01*
G75*
G02*
X146110000Y-95750000I0J450000D01*
G01*
G37*
G36*
G01*
X147285000Y-100025000D02*
X146335000Y-100025000D01*
G75*
G02*
X145885000Y-99575000I0J450000D01*
G01*
X145885000Y-98900000D01*
G75*
G02*
X146335000Y-98450000I450000J0D01*
G01*
X147285000Y-98450000D01*
G75*
G02*
X147735000Y-98900000I0J-450000D01*
G01*
X147735000Y-99575000D01*
G75*
G02*
X147285000Y-100025000I-450000J0D01*
G01*
G37*
G36*
G01*
X147285000Y-97950000D02*
X146335000Y-97950000D01*
G75*
G02*
X145885000Y-97500000I0J450000D01*
G01*
X145885000Y-96825000D01*
G75*
G02*
X146335000Y-96375000I450000J0D01*
G01*
X147285000Y-96375000D01*
G75*
G02*
X147735000Y-96825000I0J-450000D01*
G01*
X147735000Y-97500000D01*
G75*
G02*
X147285000Y-97950000I-450000J0D01*
G01*
G37*
G36*
G01*
X156135000Y-87025000D02*
X156135000Y-87975000D01*
G75*
G02*
X155685000Y-88425000I-450000J0D01*
G01*
X155010000Y-88425000D01*
G75*
G02*
X154560000Y-87975000I0J450000D01*
G01*
X154560000Y-87025000D01*
G75*
G02*
X155010000Y-86575000I450000J0D01*
G01*
X155685000Y-86575000D01*
G75*
G02*
X156135000Y-87025000I0J-450000D01*
G01*
G37*
G36*
G01*
X154060000Y-87025000D02*
X154060000Y-87975000D01*
G75*
G02*
X153610000Y-88425000I-450000J0D01*
G01*
X152935000Y-88425000D01*
G75*
G02*
X152485000Y-87975000I0J450000D01*
G01*
X152485000Y-87025000D01*
G75*
G02*
X152935000Y-86575000I450000J0D01*
G01*
X153610000Y-86575000D01*
G75*
G02*
X154060000Y-87025000I0J-450000D01*
G01*
G37*
G36*
G01*
X142010000Y-97750000D02*
X142010000Y-96850000D01*
G75*
G02*
X142460000Y-96400000I450000J0D01*
G01*
X143160000Y-96400000D01*
G75*
G02*
X143610000Y-96850000I0J-450000D01*
G01*
X143610000Y-97750000D01*
G75*
G02*
X143160000Y-98200000I-450000J0D01*
G01*
X142460000Y-98200000D01*
G75*
G02*
X142010000Y-97750000I0J450000D01*
G01*
G37*
G36*
G01*
X144010000Y-97750000D02*
X144010000Y-96850000D01*
G75*
G02*
X144460000Y-96400000I450000J0D01*
G01*
X145160000Y-96400000D01*
G75*
G02*
X145610000Y-96850000I0J-450000D01*
G01*
X145610000Y-97750000D01*
G75*
G02*
X145160000Y-98200000I-450000J0D01*
G01*
X144460000Y-98200000D01*
G75*
G02*
X144010000Y-97750000I0J450000D01*
G01*
G37*
G36*
G01*
X160910000Y-84000000D02*
X159310000Y-84000000D01*
G75*
G02*
X159110000Y-83800000I0J200000D01*
G01*
X159110000Y-82200000D01*
G75*
G02*
X159310000Y-82000000I200000J0D01*
G01*
X160910000Y-82000000D01*
G75*
G02*
X161110000Y-82200000I0J-200000D01*
G01*
X161110000Y-83800000D01*
G75*
G02*
X160910000Y-84000000I-200000J0D01*
G01*
G37*
X160110000Y-80500000D03*
G36*
G01*
X161235000Y-84675000D02*
X162185000Y-84675000D01*
G75*
G02*
X162635000Y-85125000I0J-450000D01*
G01*
X162635000Y-85800000D01*
G75*
G02*
X162185000Y-86250000I-450000J0D01*
G01*
X161235000Y-86250000D01*
G75*
G02*
X160785000Y-85800000I0J450000D01*
G01*
X160785000Y-85125000D01*
G75*
G02*
X161235000Y-84675000I450000J0D01*
G01*
G37*
G36*
G01*
X161235000Y-86750000D02*
X162185000Y-86750000D01*
G75*
G02*
X162635000Y-87200000I0J-450000D01*
G01*
X162635000Y-87875000D01*
G75*
G02*
X162185000Y-88325000I-450000J0D01*
G01*
X161235000Y-88325000D01*
G75*
G02*
X160785000Y-87875000I0J450000D01*
G01*
X160785000Y-87200000D01*
G75*
G02*
X161235000Y-86750000I450000J0D01*
G01*
G37*
G36*
G01*
X151391000Y-92977500D02*
X152341000Y-92977500D01*
G75*
G02*
X152791000Y-93427500I0J-450000D01*
G01*
X152791000Y-94102500D01*
G75*
G02*
X152341000Y-94552500I-450000J0D01*
G01*
X151391000Y-94552500D01*
G75*
G02*
X150941000Y-94102500I0J450000D01*
G01*
X150941000Y-93427500D01*
G75*
G02*
X151391000Y-92977500I450000J0D01*
G01*
G37*
G36*
G01*
X151391000Y-95052500D02*
X152341000Y-95052500D01*
G75*
G02*
X152791000Y-95502500I0J-450000D01*
G01*
X152791000Y-96177500D01*
G75*
G02*
X152341000Y-96627500I-450000J0D01*
G01*
X151391000Y-96627500D01*
G75*
G02*
X150941000Y-96177500I0J450000D01*
G01*
X150941000Y-95502500D01*
G75*
G02*
X151391000Y-95052500I450000J0D01*
G01*
G37*
G36*
G01*
X166116000Y-97365000D02*
X165216000Y-97365000D01*
G75*
G02*
X164766000Y-96915000I0J450000D01*
G01*
X164766000Y-96215000D01*
G75*
G02*
X165216000Y-95765000I450000J0D01*
G01*
X166116000Y-95765000D01*
G75*
G02*
X166566000Y-96215000I0J-450000D01*
G01*
X166566000Y-96915000D01*
G75*
G02*
X166116000Y-97365000I-450000J0D01*
G01*
G37*
G36*
G01*
X166116000Y-95365000D02*
X165216000Y-95365000D01*
G75*
G02*
X164766000Y-94915000I0J450000D01*
G01*
X164766000Y-94215000D01*
G75*
G02*
X165216000Y-93765000I450000J0D01*
G01*
X166116000Y-93765000D01*
G75*
G02*
X166566000Y-94215000I0J-450000D01*
G01*
X166566000Y-94915000D01*
G75*
G02*
X166116000Y-95365000I-450000J0D01*
G01*
G37*
G36*
G01*
X140885000Y-87625000D02*
X139935000Y-87625000D01*
G75*
G02*
X139485000Y-87175000I0J450000D01*
G01*
X139485000Y-86500000D01*
G75*
G02*
X139935000Y-86050000I450000J0D01*
G01*
X140885000Y-86050000D01*
G75*
G02*
X141335000Y-86500000I0J-450000D01*
G01*
X141335000Y-87175000D01*
G75*
G02*
X140885000Y-87625000I-450000J0D01*
G01*
G37*
G36*
G01*
X140885000Y-85550000D02*
X139935000Y-85550000D01*
G75*
G02*
X139485000Y-85100000I0J450000D01*
G01*
X139485000Y-84425000D01*
G75*
G02*
X139935000Y-83975000I450000J0D01*
G01*
X140885000Y-83975000D01*
G75*
G02*
X141335000Y-84425000I0J-450000D01*
G01*
X141335000Y-85100000D01*
G75*
G02*
X140885000Y-85550000I-450000J0D01*
G01*
G37*
G36*
G01*
X149385000Y-99925000D02*
X148435000Y-99925000D01*
G75*
G02*
X147985000Y-99475000I0J450000D01*
G01*
X147985000Y-98800000D01*
G75*
G02*
X148435000Y-98350000I450000J0D01*
G01*
X149385000Y-98350000D01*
G75*
G02*
X149835000Y-98800000I0J-450000D01*
G01*
X149835000Y-99475000D01*
G75*
G02*
X149385000Y-99925000I-450000J0D01*
G01*
G37*
G36*
G01*
X149385000Y-97850000D02*
X148435000Y-97850000D01*
G75*
G02*
X147985000Y-97400000I0J450000D01*
G01*
X147985000Y-96725000D01*
G75*
G02*
X148435000Y-96275000I450000J0D01*
G01*
X149385000Y-96275000D01*
G75*
G02*
X149835000Y-96725000I0J-450000D01*
G01*
X149835000Y-97400000D01*
G75*
G02*
X149385000Y-97850000I-450000J0D01*
G01*
G37*
G36*
G01*
X160316000Y-102965000D02*
X159416000Y-102965000D01*
G75*
G02*
X158966000Y-102515000I0J450000D01*
G01*
X158966000Y-101815000D01*
G75*
G02*
X159416000Y-101365000I450000J0D01*
G01*
X160316000Y-101365000D01*
G75*
G02*
X160766000Y-101815000I0J-450000D01*
G01*
X160766000Y-102515000D01*
G75*
G02*
X160316000Y-102965000I-450000J0D01*
G01*
G37*
G36*
G01*
X160316000Y-100965000D02*
X159416000Y-100965000D01*
G75*
G02*
X158966000Y-100515000I0J450000D01*
G01*
X158966000Y-99815000D01*
G75*
G02*
X159416000Y-99365000I450000J0D01*
G01*
X160316000Y-99365000D01*
G75*
G02*
X160766000Y-99815000I0J-450000D01*
G01*
X160766000Y-100515000D01*
G75*
G02*
X160316000Y-100965000I-450000J0D01*
G01*
G37*
G36*
G01*
X139935000Y-87875000D02*
X140885000Y-87875000D01*
G75*
G02*
X141335000Y-88325000I0J-450000D01*
G01*
X141335000Y-89000000D01*
G75*
G02*
X140885000Y-89450000I-450000J0D01*
G01*
X139935000Y-89450000D01*
G75*
G02*
X139485000Y-89000000I0J450000D01*
G01*
X139485000Y-88325000D01*
G75*
G02*
X139935000Y-87875000I450000J0D01*
G01*
G37*
G36*
G01*
X139935000Y-89950000D02*
X140885000Y-89950000D01*
G75*
G02*
X141335000Y-90400000I0J-450000D01*
G01*
X141335000Y-91075000D01*
G75*
G02*
X140885000Y-91525000I-450000J0D01*
G01*
X139935000Y-91525000D01*
G75*
G02*
X139485000Y-91075000I0J450000D01*
G01*
X139485000Y-90400000D01*
G75*
G02*
X139935000Y-89950000I450000J0D01*
G01*
G37*
G36*
G01*
X156666000Y-97315000D02*
X156666000Y-98215000D01*
G75*
G02*
X156216000Y-98665000I-450000J0D01*
G01*
X155516000Y-98665000D01*
G75*
G02*
X155066000Y-98215000I0J450000D01*
G01*
X155066000Y-97315000D01*
G75*
G02*
X155516000Y-96865000I450000J0D01*
G01*
X156216000Y-96865000D01*
G75*
G02*
X156666000Y-97315000I0J-450000D01*
G01*
G37*
G36*
G01*
X154666000Y-97315000D02*
X154666000Y-98215000D01*
G75*
G02*
X154216000Y-98665000I-450000J0D01*
G01*
X153516000Y-98665000D01*
G75*
G02*
X153066000Y-98215000I0J450000D01*
G01*
X153066000Y-97315000D01*
G75*
G02*
X153516000Y-96865000I450000J0D01*
G01*
X154216000Y-96865000D01*
G75*
G02*
X154666000Y-97315000I0J-450000D01*
G01*
G37*
G36*
G01*
X144535000Y-78775000D02*
X145485000Y-78775000D01*
G75*
G02*
X145935000Y-79225000I0J-450000D01*
G01*
X145935000Y-79900000D01*
G75*
G02*
X145485000Y-80350000I-450000J0D01*
G01*
X144535000Y-80350000D01*
G75*
G02*
X144085000Y-79900000I0J450000D01*
G01*
X144085000Y-79225000D01*
G75*
G02*
X144535000Y-78775000I450000J0D01*
G01*
G37*
G36*
G01*
X144535000Y-80850000D02*
X145485000Y-80850000D01*
G75*
G02*
X145935000Y-81300000I0J-450000D01*
G01*
X145935000Y-81975000D01*
G75*
G02*
X145485000Y-82425000I-450000J0D01*
G01*
X144535000Y-82425000D01*
G75*
G02*
X144085000Y-81975000I0J450000D01*
G01*
X144085000Y-81300000D01*
G75*
G02*
X144535000Y-80850000I450000J0D01*
G01*
G37*
G36*
G01*
X153310000Y-75650000D02*
X153310000Y-76550000D01*
G75*
G02*
X152860000Y-77000000I-450000J0D01*
G01*
X152160000Y-77000000D01*
G75*
G02*
X151710000Y-76550000I0J450000D01*
G01*
X151710000Y-75650000D01*
G75*
G02*
X152160000Y-75200000I450000J0D01*
G01*
X152860000Y-75200000D01*
G75*
G02*
X153310000Y-75650000I0J-450000D01*
G01*
G37*
G36*
G01*
X151310000Y-75650000D02*
X151310000Y-76550000D01*
G75*
G02*
X150860000Y-77000000I-450000J0D01*
G01*
X150160000Y-77000000D01*
G75*
G02*
X149710000Y-76550000I0J450000D01*
G01*
X149710000Y-75650000D01*
G75*
G02*
X150160000Y-75200000I450000J0D01*
G01*
X150860000Y-75200000D01*
G75*
G02*
X151310000Y-75650000I0J-450000D01*
G01*
G37*
G36*
G01*
X147260000Y-94100000D02*
X146360000Y-94100000D01*
G75*
G02*
X145910000Y-93650000I0J450000D01*
G01*
X145910000Y-92950000D01*
G75*
G02*
X146360000Y-92500000I450000J0D01*
G01*
X147260000Y-92500000D01*
G75*
G02*
X147710000Y-92950000I0J-450000D01*
G01*
X147710000Y-93650000D01*
G75*
G02*
X147260000Y-94100000I-450000J0D01*
G01*
G37*
G36*
G01*
X147260000Y-92100000D02*
X146360000Y-92100000D01*
G75*
G02*
X145910000Y-91650000I0J450000D01*
G01*
X145910000Y-90950000D01*
G75*
G02*
X146360000Y-90500000I450000J0D01*
G01*
X147260000Y-90500000D01*
G75*
G02*
X147710000Y-90950000I0J-450000D01*
G01*
X147710000Y-91650000D01*
G75*
G02*
X147260000Y-92100000I-450000J0D01*
G01*
G37*
G36*
G01*
X156935000Y-84675000D02*
X157885000Y-84675000D01*
G75*
G02*
X158335000Y-85125000I0J-450000D01*
G01*
X158335000Y-85800000D01*
G75*
G02*
X157885000Y-86250000I-450000J0D01*
G01*
X156935000Y-86250000D01*
G75*
G02*
X156485000Y-85800000I0J450000D01*
G01*
X156485000Y-85125000D01*
G75*
G02*
X156935000Y-84675000I450000J0D01*
G01*
G37*
G36*
G01*
X156935000Y-86750000D02*
X157885000Y-86750000D01*
G75*
G02*
X158335000Y-87200000I0J-450000D01*
G01*
X158335000Y-87875000D01*
G75*
G02*
X157885000Y-88325000I-450000J0D01*
G01*
X156935000Y-88325000D01*
G75*
G02*
X156485000Y-87875000I0J450000D01*
G01*
X156485000Y-87200000D01*
G75*
G02*
X156935000Y-86750000I450000J0D01*
G01*
G37*
G36*
G01*
X163485000Y-107275000D02*
X163485000Y-106325000D01*
G75*
G02*
X163935000Y-105875000I450000J0D01*
G01*
X164610000Y-105875000D01*
G75*
G02*
X165060000Y-106325000I0J-450000D01*
G01*
X165060000Y-107275000D01*
G75*
G02*
X164610000Y-107725000I-450000J0D01*
G01*
X163935000Y-107725000D01*
G75*
G02*
X163485000Y-107275000I0J450000D01*
G01*
G37*
G36*
G01*
X165560000Y-107275000D02*
X165560000Y-106325000D01*
G75*
G02*
X166010000Y-105875000I450000J0D01*
G01*
X166685000Y-105875000D01*
G75*
G02*
X167135000Y-106325000I0J-450000D01*
G01*
X167135000Y-107275000D01*
G75*
G02*
X166685000Y-107725000I-450000J0D01*
G01*
X166010000Y-107725000D01*
G75*
G02*
X165560000Y-107275000I0J450000D01*
G01*
G37*
G36*
G01*
X157166000Y-94610000D02*
X157166000Y-94310000D01*
G75*
G02*
X157516000Y-93960000I350000J0D01*
G01*
X159166000Y-93960000D01*
G75*
G02*
X159516000Y-94310000I0J-350000D01*
G01*
X159516000Y-94610000D01*
G75*
G02*
X159166000Y-94960000I-350000J0D01*
G01*
X157516000Y-94960000D01*
G75*
G02*
X157166000Y-94610000I0J350000D01*
G01*
G37*
G36*
G01*
X157166000Y-95880000D02*
X157166000Y-95580000D01*
G75*
G02*
X157516000Y-95230000I350000J0D01*
G01*
X159166000Y-95230000D01*
G75*
G02*
X159516000Y-95580000I0J-350000D01*
G01*
X159516000Y-95880000D01*
G75*
G02*
X159166000Y-96230000I-350000J0D01*
G01*
X157516000Y-96230000D01*
G75*
G02*
X157166000Y-95880000I0J350000D01*
G01*
G37*
G36*
G01*
X157166000Y-97150000D02*
X157166000Y-96850000D01*
G75*
G02*
X157516000Y-96500000I350000J0D01*
G01*
X159166000Y-96500000D01*
G75*
G02*
X159516000Y-96850000I0J-350000D01*
G01*
X159516000Y-97150000D01*
G75*
G02*
X159166000Y-97500000I-350000J0D01*
G01*
X157516000Y-97500000D01*
G75*
G02*
X157166000Y-97150000I0J350000D01*
G01*
G37*
G36*
G01*
X157166000Y-98420000D02*
X157166000Y-98120000D01*
G75*
G02*
X157516000Y-97770000I350000J0D01*
G01*
X159166000Y-97770000D01*
G75*
G02*
X159516000Y-98120000I0J-350000D01*
G01*
X159516000Y-98420000D01*
G75*
G02*
X159166000Y-98770000I-350000J0D01*
G01*
X157516000Y-98770000D01*
G75*
G02*
X157166000Y-98420000I0J350000D01*
G01*
G37*
G36*
G01*
X162116000Y-98420000D02*
X162116000Y-98120000D01*
G75*
G02*
X162466000Y-97770000I350000J0D01*
G01*
X164116000Y-97770000D01*
G75*
G02*
X164466000Y-98120000I0J-350000D01*
G01*
X164466000Y-98420000D01*
G75*
G02*
X164116000Y-98770000I-350000J0D01*
G01*
X162466000Y-98770000D01*
G75*
G02*
X162116000Y-98420000I0J350000D01*
G01*
G37*
G36*
G01*
X162116000Y-97150000D02*
X162116000Y-96850000D01*
G75*
G02*
X162466000Y-96500000I350000J0D01*
G01*
X164116000Y-96500000D01*
G75*
G02*
X164466000Y-96850000I0J-350000D01*
G01*
X164466000Y-97150000D01*
G75*
G02*
X164116000Y-97500000I-350000J0D01*
G01*
X162466000Y-97500000D01*
G75*
G02*
X162116000Y-97150000I0J350000D01*
G01*
G37*
G36*
G01*
X162116000Y-95880000D02*
X162116000Y-95580000D01*
G75*
G02*
X162466000Y-95230000I350000J0D01*
G01*
X164116000Y-95230000D01*
G75*
G02*
X164466000Y-95580000I0J-350000D01*
G01*
X164466000Y-95880000D01*
G75*
G02*
X164116000Y-96230000I-350000J0D01*
G01*
X162466000Y-96230000D01*
G75*
G02*
X162116000Y-95880000I0J350000D01*
G01*
G37*
G36*
G01*
X162116000Y-94610000D02*
X162116000Y-94310000D01*
G75*
G02*
X162466000Y-93960000I350000J0D01*
G01*
X164116000Y-93960000D01*
G75*
G02*
X164466000Y-94310000I0J-350000D01*
G01*
X164466000Y-94610000D01*
G75*
G02*
X164116000Y-94960000I-350000J0D01*
G01*
X162466000Y-94960000D01*
G75*
G02*
X162116000Y-94610000I0J350000D01*
G01*
G37*
G36*
G01*
X166310000Y-100194888D02*
X167910000Y-100194888D01*
G75*
G02*
X168110000Y-100394888I0J-200000D01*
G01*
X168110000Y-101994888D01*
G75*
G02*
X167910000Y-102194888I-200000J0D01*
G01*
X166310000Y-102194888D01*
G75*
G02*
X166110000Y-101994888I0J200000D01*
G01*
X166110000Y-100394888D01*
G75*
G02*
X166310000Y-100194888I200000J0D01*
G01*
G37*
X167110000Y-103694888D03*
G36*
G01*
X154810000Y-104950000D02*
X154810000Y-104050000D01*
G75*
G02*
X155260000Y-103600000I450000J0D01*
G01*
X155960000Y-103600000D01*
G75*
G02*
X156410000Y-104050000I0J-450000D01*
G01*
X156410000Y-104950000D01*
G75*
G02*
X155960000Y-105400000I-450000J0D01*
G01*
X155260000Y-105400000D01*
G75*
G02*
X154810000Y-104950000I0J450000D01*
G01*
G37*
G36*
G01*
X156810000Y-104950000D02*
X156810000Y-104050000D01*
G75*
G02*
X157260000Y-103600000I450000J0D01*
G01*
X157960000Y-103600000D01*
G75*
G02*
X158410000Y-104050000I0J-450000D01*
G01*
X158410000Y-104950000D01*
G75*
G02*
X157960000Y-105400000I-450000J0D01*
G01*
X157260000Y-105400000D01*
G75*
G02*
X156810000Y-104950000I0J450000D01*
G01*
G37*
G36*
G01*
X160085000Y-88325000D02*
X159135000Y-88325000D01*
G75*
G02*
X158685000Y-87875000I0J450000D01*
G01*
X158685000Y-87200000D01*
G75*
G02*
X159135000Y-86750000I450000J0D01*
G01*
X160085000Y-86750000D01*
G75*
G02*
X160535000Y-87200000I0J-450000D01*
G01*
X160535000Y-87875000D01*
G75*
G02*
X160085000Y-88325000I-450000J0D01*
G01*
G37*
G36*
G01*
X160085000Y-86250000D02*
X159135000Y-86250000D01*
G75*
G02*
X158685000Y-85800000I0J450000D01*
G01*
X158685000Y-85125000D01*
G75*
G02*
X159135000Y-84675000I450000J0D01*
G01*
X160085000Y-84675000D01*
G75*
G02*
X160535000Y-85125000I0J-450000D01*
G01*
X160535000Y-85800000D01*
G75*
G02*
X160085000Y-86250000I-450000J0D01*
G01*
G37*
G36*
G01*
X158310000Y-89050000D02*
X158310000Y-89950000D01*
G75*
G02*
X157860000Y-90400000I-450000J0D01*
G01*
X157160000Y-90400000D01*
G75*
G02*
X156710000Y-89950000I0J450000D01*
G01*
X156710000Y-89050000D01*
G75*
G02*
X157160000Y-88600000I450000J0D01*
G01*
X157860000Y-88600000D01*
G75*
G02*
X158310000Y-89050000I0J-450000D01*
G01*
G37*
G36*
G01*
X156310000Y-89050000D02*
X156310000Y-89950000D01*
G75*
G02*
X155860000Y-90400000I-450000J0D01*
G01*
X155160000Y-90400000D01*
G75*
G02*
X154710000Y-89950000I0J450000D01*
G01*
X154710000Y-89050000D01*
G75*
G02*
X155160000Y-88600000I450000J0D01*
G01*
X155860000Y-88600000D01*
G75*
G02*
X156310000Y-89050000I0J-450000D01*
G01*
G37*
G36*
G01*
X144260000Y-90500000D02*
X145160000Y-90500000D01*
G75*
G02*
X145610000Y-90950000I0J-450000D01*
G01*
X145610000Y-91650000D01*
G75*
G02*
X145160000Y-92100000I-450000J0D01*
G01*
X144260000Y-92100000D01*
G75*
G02*
X143810000Y-91650000I0J450000D01*
G01*
X143810000Y-90950000D01*
G75*
G02*
X144260000Y-90500000I450000J0D01*
G01*
G37*
G36*
G01*
X144260000Y-92500000D02*
X145160000Y-92500000D01*
G75*
G02*
X145610000Y-92950000I0J-450000D01*
G01*
X145610000Y-93650000D01*
G75*
G02*
X145160000Y-94100000I-450000J0D01*
G01*
X144260000Y-94100000D01*
G75*
G02*
X143810000Y-93650000I0J450000D01*
G01*
X143810000Y-92950000D01*
G75*
G02*
X144260000Y-92500000I450000J0D01*
G01*
G37*
G36*
G01*
X151205000Y-82950000D02*
X151505000Y-82950000D01*
G75*
G02*
X151855000Y-83300000I0J-350000D01*
G01*
X151855000Y-84950000D01*
G75*
G02*
X151505000Y-85300000I-350000J0D01*
G01*
X151205000Y-85300000D01*
G75*
G02*
X150855000Y-84950000I0J350000D01*
G01*
X150855000Y-83300000D01*
G75*
G02*
X151205000Y-82950000I350000J0D01*
G01*
G37*
G36*
G01*
X149935000Y-82950000D02*
X150235000Y-82950000D01*
G75*
G02*
X150585000Y-83300000I0J-350000D01*
G01*
X150585000Y-84950000D01*
G75*
G02*
X150235000Y-85300000I-350000J0D01*
G01*
X149935000Y-85300000D01*
G75*
G02*
X149585000Y-84950000I0J350000D01*
G01*
X149585000Y-83300000D01*
G75*
G02*
X149935000Y-82950000I350000J0D01*
G01*
G37*
G36*
G01*
X148665000Y-82950000D02*
X148965000Y-82950000D01*
G75*
G02*
X149315000Y-83300000I0J-350000D01*
G01*
X149315000Y-84950000D01*
G75*
G02*
X148965000Y-85300000I-350000J0D01*
G01*
X148665000Y-85300000D01*
G75*
G02*
X148315000Y-84950000I0J350000D01*
G01*
X148315000Y-83300000D01*
G75*
G02*
X148665000Y-82950000I350000J0D01*
G01*
G37*
G36*
G01*
X147395000Y-82950000D02*
X147695000Y-82950000D01*
G75*
G02*
X148045000Y-83300000I0J-350000D01*
G01*
X148045000Y-84950000D01*
G75*
G02*
X147695000Y-85300000I-350000J0D01*
G01*
X147395000Y-85300000D01*
G75*
G02*
X147045000Y-84950000I0J350000D01*
G01*
X147045000Y-83300000D01*
G75*
G02*
X147395000Y-82950000I350000J0D01*
G01*
G37*
G36*
G01*
X146125000Y-82950000D02*
X146425000Y-82950000D01*
G75*
G02*
X146775000Y-83300000I0J-350000D01*
G01*
X146775000Y-84950000D01*
G75*
G02*
X146425000Y-85300000I-350000J0D01*
G01*
X146125000Y-85300000D01*
G75*
G02*
X145775000Y-84950000I0J350000D01*
G01*
X145775000Y-83300000D01*
G75*
G02*
X146125000Y-82950000I350000J0D01*
G01*
G37*
G36*
G01*
X144855000Y-82950000D02*
X145155000Y-82950000D01*
G75*
G02*
X145505000Y-83300000I0J-350000D01*
G01*
X145505000Y-84950000D01*
G75*
G02*
X145155000Y-85300000I-350000J0D01*
G01*
X144855000Y-85300000D01*
G75*
G02*
X144505000Y-84950000I0J350000D01*
G01*
X144505000Y-83300000D01*
G75*
G02*
X144855000Y-82950000I350000J0D01*
G01*
G37*
G36*
G01*
X143585000Y-82950000D02*
X143885000Y-82950000D01*
G75*
G02*
X144235000Y-83300000I0J-350000D01*
G01*
X144235000Y-84950000D01*
G75*
G02*
X143885000Y-85300000I-350000J0D01*
G01*
X143585000Y-85300000D01*
G75*
G02*
X143235000Y-84950000I0J350000D01*
G01*
X143235000Y-83300000D01*
G75*
G02*
X143585000Y-82950000I350000J0D01*
G01*
G37*
G36*
G01*
X142315000Y-82950000D02*
X142615000Y-82950000D01*
G75*
G02*
X142965000Y-83300000I0J-350000D01*
G01*
X142965000Y-84950000D01*
G75*
G02*
X142615000Y-85300000I-350000J0D01*
G01*
X142315000Y-85300000D01*
G75*
G02*
X141965000Y-84950000I0J350000D01*
G01*
X141965000Y-83300000D01*
G75*
G02*
X142315000Y-82950000I350000J0D01*
G01*
G37*
G36*
G01*
X142315000Y-87900000D02*
X142615000Y-87900000D01*
G75*
G02*
X142965000Y-88250000I0J-350000D01*
G01*
X142965000Y-89900000D01*
G75*
G02*
X142615000Y-90250000I-350000J0D01*
G01*
X142315000Y-90250000D01*
G75*
G02*
X141965000Y-89900000I0J350000D01*
G01*
X141965000Y-88250000D01*
G75*
G02*
X142315000Y-87900000I350000J0D01*
G01*
G37*
G36*
G01*
X143585000Y-87900000D02*
X143885000Y-87900000D01*
G75*
G02*
X144235000Y-88250000I0J-350000D01*
G01*
X144235000Y-89900000D01*
G75*
G02*
X143885000Y-90250000I-350000J0D01*
G01*
X143585000Y-90250000D01*
G75*
G02*
X143235000Y-89900000I0J350000D01*
G01*
X143235000Y-88250000D01*
G75*
G02*
X143585000Y-87900000I350000J0D01*
G01*
G37*
G36*
G01*
X144855000Y-87900000D02*
X145155000Y-87900000D01*
G75*
G02*
X145505000Y-88250000I0J-350000D01*
G01*
X145505000Y-89900000D01*
G75*
G02*
X145155000Y-90250000I-350000J0D01*
G01*
X144855000Y-90250000D01*
G75*
G02*
X144505000Y-89900000I0J350000D01*
G01*
X144505000Y-88250000D01*
G75*
G02*
X144855000Y-87900000I350000J0D01*
G01*
G37*
G36*
G01*
X146125000Y-87900000D02*
X146425000Y-87900000D01*
G75*
G02*
X146775000Y-88250000I0J-350000D01*
G01*
X146775000Y-89900000D01*
G75*
G02*
X146425000Y-90250000I-350000J0D01*
G01*
X146125000Y-90250000D01*
G75*
G02*
X145775000Y-89900000I0J350000D01*
G01*
X145775000Y-88250000D01*
G75*
G02*
X146125000Y-87900000I350000J0D01*
G01*
G37*
G36*
G01*
X147395000Y-87900000D02*
X147695000Y-87900000D01*
G75*
G02*
X148045000Y-88250000I0J-350000D01*
G01*
X148045000Y-89900000D01*
G75*
G02*
X147695000Y-90250000I-350000J0D01*
G01*
X147395000Y-90250000D01*
G75*
G02*
X147045000Y-89900000I0J350000D01*
G01*
X147045000Y-88250000D01*
G75*
G02*
X147395000Y-87900000I350000J0D01*
G01*
G37*
G36*
G01*
X148665000Y-87900000D02*
X148965000Y-87900000D01*
G75*
G02*
X149315000Y-88250000I0J-350000D01*
G01*
X149315000Y-89900000D01*
G75*
G02*
X148965000Y-90250000I-350000J0D01*
G01*
X148665000Y-90250000D01*
G75*
G02*
X148315000Y-89900000I0J350000D01*
G01*
X148315000Y-88250000D01*
G75*
G02*
X148665000Y-87900000I350000J0D01*
G01*
G37*
G36*
G01*
X149935000Y-87900000D02*
X150235000Y-87900000D01*
G75*
G02*
X150585000Y-88250000I0J-350000D01*
G01*
X150585000Y-89900000D01*
G75*
G02*
X150235000Y-90250000I-350000J0D01*
G01*
X149935000Y-90250000D01*
G75*
G02*
X149585000Y-89900000I0J350000D01*
G01*
X149585000Y-88250000D01*
G75*
G02*
X149935000Y-87900000I350000J0D01*
G01*
G37*
G36*
G01*
X151205000Y-87900000D02*
X151505000Y-87900000D01*
G75*
G02*
X151855000Y-88250000I0J-350000D01*
G01*
X151855000Y-89900000D01*
G75*
G02*
X151505000Y-90250000I-350000J0D01*
G01*
X151205000Y-90250000D01*
G75*
G02*
X150855000Y-89900000I0J350000D01*
G01*
X150855000Y-88250000D01*
G75*
G02*
X151205000Y-87900000I350000J0D01*
G01*
G37*
G36*
G01*
X157110000Y-79400000D02*
X155510000Y-79400000D01*
G75*
G02*
X155310000Y-79200000I0J200000D01*
G01*
X155310000Y-77600000D01*
G75*
G02*
X155510000Y-77400000I200000J0D01*
G01*
X157110000Y-77400000D01*
G75*
G02*
X157310000Y-77600000I0J-200000D01*
G01*
X157310000Y-79200000D01*
G75*
G02*
X157110000Y-79400000I-200000J0D01*
G01*
G37*
X156310000Y-75900000D03*
G36*
G01*
X162210000Y-89050000D02*
X162210000Y-89950000D01*
G75*
G02*
X161760000Y-90400000I-450000J0D01*
G01*
X161060000Y-90400000D01*
G75*
G02*
X160610000Y-89950000I0J450000D01*
G01*
X160610000Y-89050000D01*
G75*
G02*
X161060000Y-88600000I450000J0D01*
G01*
X161760000Y-88600000D01*
G75*
G02*
X162210000Y-89050000I0J-450000D01*
G01*
G37*
G36*
G01*
X160210000Y-89050000D02*
X160210000Y-89950000D01*
G75*
G02*
X159760000Y-90400000I-450000J0D01*
G01*
X159060000Y-90400000D01*
G75*
G02*
X158610000Y-89950000I0J450000D01*
G01*
X158610000Y-89050000D01*
G75*
G02*
X159060000Y-88600000I450000J0D01*
G01*
X159760000Y-88600000D01*
G75*
G02*
X160210000Y-89050000I0J-450000D01*
G01*
G37*
G36*
G01*
X149360000Y-96100000D02*
X148460000Y-96100000D01*
G75*
G02*
X148010000Y-95650000I0J450000D01*
G01*
X148010000Y-94950000D01*
G75*
G02*
X148460000Y-94500000I450000J0D01*
G01*
X149360000Y-94500000D01*
G75*
G02*
X149810000Y-94950000I0J-450000D01*
G01*
X149810000Y-95650000D01*
G75*
G02*
X149360000Y-96100000I-450000J0D01*
G01*
G37*
G36*
G01*
X149360000Y-94100000D02*
X148460000Y-94100000D01*
G75*
G02*
X148010000Y-93650000I0J450000D01*
G01*
X148010000Y-92950000D01*
G75*
G02*
X148460000Y-92500000I450000J0D01*
G01*
X149360000Y-92500000D01*
G75*
G02*
X149810000Y-92950000I0J-450000D01*
G01*
X149810000Y-93650000D01*
G75*
G02*
X149360000Y-94100000I-450000J0D01*
G01*
G37*
G36*
G01*
X160910000Y-105050000D02*
X160910000Y-104150000D01*
G75*
G02*
X161360000Y-103700000I450000J0D01*
G01*
X162060000Y-103700000D01*
G75*
G02*
X162510000Y-104150000I0J-450000D01*
G01*
X162510000Y-105050000D01*
G75*
G02*
X162060000Y-105500000I-450000J0D01*
G01*
X161360000Y-105500000D01*
G75*
G02*
X160910000Y-105050000I0J450000D01*
G01*
G37*
G36*
G01*
X162910000Y-105050000D02*
X162910000Y-104150000D01*
G75*
G02*
X163360000Y-103700000I450000J0D01*
G01*
X164060000Y-103700000D01*
G75*
G02*
X164510000Y-104150000I0J-450000D01*
G01*
X164510000Y-105050000D01*
G75*
G02*
X164060000Y-105500000I-450000J0D01*
G01*
X163360000Y-105500000D01*
G75*
G02*
X162910000Y-105050000I0J450000D01*
G01*
G37*
G36*
G01*
X153066000Y-96215000D02*
X153066000Y-95315000D01*
G75*
G02*
X153516000Y-94865000I450000J0D01*
G01*
X154216000Y-94865000D01*
G75*
G02*
X154666000Y-95315000I0J-450000D01*
G01*
X154666000Y-96215000D01*
G75*
G02*
X154216000Y-96665000I-450000J0D01*
G01*
X153516000Y-96665000D01*
G75*
G02*
X153066000Y-96215000I0J450000D01*
G01*
G37*
G36*
G01*
X155066000Y-96215000D02*
X155066000Y-95315000D01*
G75*
G02*
X155516000Y-94865000I450000J0D01*
G01*
X156216000Y-94865000D01*
G75*
G02*
X156666000Y-95315000I0J-450000D01*
G01*
X156666000Y-96215000D01*
G75*
G02*
X156216000Y-96665000I-450000J0D01*
G01*
X155516000Y-96665000D01*
G75*
G02*
X155066000Y-96215000I0J450000D01*
G01*
G37*
G36*
G01*
X142135000Y-91075000D02*
X143085000Y-91075000D01*
G75*
G02*
X143535000Y-91525000I0J-450000D01*
G01*
X143535000Y-92200000D01*
G75*
G02*
X143085000Y-92650000I-450000J0D01*
G01*
X142135000Y-92650000D01*
G75*
G02*
X141685000Y-92200000I0J450000D01*
G01*
X141685000Y-91525000D01*
G75*
G02*
X142135000Y-91075000I450000J0D01*
G01*
G37*
G36*
G01*
X142135000Y-93150000D02*
X143085000Y-93150000D01*
G75*
G02*
X143535000Y-93600000I0J-450000D01*
G01*
X143535000Y-94275000D01*
G75*
G02*
X143085000Y-94725000I-450000J0D01*
G01*
X142135000Y-94725000D01*
G75*
G02*
X141685000Y-94275000I0J450000D01*
G01*
X141685000Y-93600000D01*
G75*
G02*
X142135000Y-93150000I450000J0D01*
G01*
G37*
G36*
G01*
X167735000Y-64737500D02*
X168685000Y-64737500D01*
G75*
G02*
X169135000Y-65187500I0J-450000D01*
G01*
X169135000Y-65862500D01*
G75*
G02*
X168685000Y-66312500I-450000J0D01*
G01*
X167735000Y-66312500D01*
G75*
G02*
X167285000Y-65862500I0J450000D01*
G01*
X167285000Y-65187500D01*
G75*
G02*
X167735000Y-64737500I450000J0D01*
G01*
G37*
G36*
G01*
X167735000Y-66812500D02*
X168685000Y-66812500D01*
G75*
G02*
X169135000Y-67262500I0J-450000D01*
G01*
X169135000Y-67937500D01*
G75*
G02*
X168685000Y-68387500I-450000J0D01*
G01*
X167735000Y-68387500D01*
G75*
G02*
X167285000Y-67937500I0J450000D01*
G01*
X167285000Y-67262500D01*
G75*
G02*
X167735000Y-66812500I450000J0D01*
G01*
G37*
G36*
G01*
X152910000Y-90950000D02*
X152910000Y-91850000D01*
G75*
G02*
X152460000Y-92300000I-450000J0D01*
G01*
X151760000Y-92300000D01*
G75*
G02*
X151310000Y-91850000I0J450000D01*
G01*
X151310000Y-90950000D01*
G75*
G02*
X151760000Y-90500000I450000J0D01*
G01*
X152460000Y-90500000D01*
G75*
G02*
X152910000Y-90950000I0J-450000D01*
G01*
G37*
G36*
G01*
X150910000Y-90950000D02*
X150910000Y-91850000D01*
G75*
G02*
X150460000Y-92300000I-450000J0D01*
G01*
X149760000Y-92300000D01*
G75*
G02*
X149310000Y-91850000I0J450000D01*
G01*
X149310000Y-90950000D01*
G75*
G02*
X149760000Y-90500000I450000J0D01*
G01*
X150460000Y-90500000D01*
G75*
G02*
X150910000Y-90950000I0J-450000D01*
G01*
G37*
G36*
G01*
X137585000Y-93575000D02*
X137585000Y-92625000D01*
G75*
G02*
X138035000Y-92175000I450000J0D01*
G01*
X138710000Y-92175000D01*
G75*
G02*
X139160000Y-92625000I0J-450000D01*
G01*
X139160000Y-93575000D01*
G75*
G02*
X138710000Y-94025000I-450000J0D01*
G01*
X138035000Y-94025000D01*
G75*
G02*
X137585000Y-93575000I0J450000D01*
G01*
G37*
G36*
G01*
X139660000Y-93575000D02*
X139660000Y-92625000D01*
G75*
G02*
X140110000Y-92175000I450000J0D01*
G01*
X140785000Y-92175000D01*
G75*
G02*
X141235000Y-92625000I0J-450000D01*
G01*
X141235000Y-93575000D01*
G75*
G02*
X140785000Y-94025000I-450000J0D01*
G01*
X140110000Y-94025000D01*
G75*
G02*
X139660000Y-93575000I0J450000D01*
G01*
G37*
G36*
G01*
X166110000Y-89050000D02*
X166110000Y-89950000D01*
G75*
G02*
X165660000Y-90400000I-450000J0D01*
G01*
X164960000Y-90400000D01*
G75*
G02*
X164510000Y-89950000I0J450000D01*
G01*
X164510000Y-89050000D01*
G75*
G02*
X164960000Y-88600000I450000J0D01*
G01*
X165660000Y-88600000D01*
G75*
G02*
X166110000Y-89050000I0J-450000D01*
G01*
G37*
G36*
G01*
X164110000Y-89050000D02*
X164110000Y-89950000D01*
G75*
G02*
X163660000Y-90400000I-450000J0D01*
G01*
X162960000Y-90400000D01*
G75*
G02*
X162510000Y-89950000I0J450000D01*
G01*
X162510000Y-89050000D01*
G75*
G02*
X162960000Y-88600000I450000J0D01*
G01*
X163660000Y-88600000D01*
G75*
G02*
X164110000Y-89050000I0J-450000D01*
G01*
G37*
D17*
X138010000Y-64800000D03*
X143010000Y-64800000D03*
X148010000Y-64800000D03*
X121260000Y-54550000D03*
X126260000Y-54550000D03*
X131260000Y-54550000D03*
X155010000Y-54300000D03*
X160010000Y-54300000D03*
X165010000Y-54300000D03*
M02*
