  0
SECTION
  2
HEADER
  9
$ANGBASE
  50
0.0
  9
$ANGDIR
  70
1
  9
$MEASUREMENT
  70
1
  0
ENDSEC
  0
SECTION
  2
TABLES
  0
TABLE
  2
LTYPE
  70
4
  0
LTYPE
  5
40F
  2
CONTINUOUS
  70
0
  3
Solid line
  72
65
  73
0
  40
0.0
  0
LTYPE
  5
410
  2
DASHDOT
 70
0
  3
Dash Dot ____ _ ____ _
 72
65
 73
4
 40
2.0
 49
1.25
 49
-0.25
 49
0.25
 49
-0.25
  0
LTYPE
  5
411
  2
DASHED
 70
0
  3
Dashed __ __ __ __ __
 72
65
 73
2
 40
0.75
 49
0.5
 49
-0.25
  0
LTYPE
  5
43B
  2
DOTTED
 70
0
  3
Dotted .  .  .  .
 72
65
 73
2
 40
0.2
 49
0.0
 49
-0.2
  0
ENDTAB
  0
TABLE
  2
STYLE
  70
4
  0
STYLE
  2
KICAD
  70
0
  40
0
  41
1
  42
1
  50
0
  71
0
  3
isocp.shx
  0
STYLE
  2
KICADB
  70
0
  40
0
  41
1
  42
1
  50
0
  71
0
  3
isocp.shx
  0
STYLE
  2
KICADI
  70
0
  40
0
  41
1
  42
1
  50
15
  71
0
  3
isocp.shx
  0
STYLE
  2
KICADBI
  70
0
  40
0
  41
1
  42
1
  50
15
  71
0
  3
isocp.shx
  0
ENDTAB
  0
TABLE
  2
LAYER
  70
1
  0
LAYER
  2
BLACK
  70
0
  62
7
  6
CONTINUOUS
  0
ENDTAB
  0
ENDSEC
  0
SECTION
  2
ENTITIES
0
LINE
8
BLACK
6
CONTINUOUS
10
137.7
20
-109.5
11
140.6
21
-109.5
0
LINE
8
BLACK
6
CONTINUOUS
10
128
20
-147.5
11
127
21
-146.5
0
LINE
8
BLACK
6
CONTINUOUS
10
115
20
-134.5
11
115
21
-121
0
LINE
8
BLACK
6
CONTINUOUS
10
135.35
20
-109.75
11
116.5
21
-109.75
0
LINE
8
BLACK
6
CONTINUOUS
10
145.4
20
-109.5
11
148
21
-109.5
0
LINE
8
BLACK
6
CONTINUOUS
10
148.75
20
-62.5
11
148.75
21
-52
0
LINE
8
BLACK
6
CONTINUOUS
10
127
20
-146.5
11
115
21
-134.5
0
LINE
8
BLACK
6
CONTINUOUS
10
115
20
-57
11
115
21
-108.25
0
LINE
8
BLACK
6
CONTINUOUS
10
169
20
-141
11
158
21
-152
0
LINE
8
BLACK
6
CONTINUOUS
10
133.5
20
-151
11
133.5
21
-148.5
0
LINE
8
BLACK
6
CONTINUOUS
10
149.75
20
-111.25
11
164.75
21
-111.25
0
LINE
8
BLACK
6
CONTINUOUS
10
148.5
20
-107.75
11
150.5
21
-109.75
0
LINE
8
BLACK
6
CONTINUOUS
10
165.5
20
-52
11
170.5
21
-57
0
LINE
8
BLACK
6
CONTINUOUS
10
169
20
-109.75
11
170.5
21
-108.25
0
LINE
8
BLACK
6
CONTINUOUS
10
169
20
-133.5
11
170.5
21
-132
0
LINE
8
BLACK
6
CONTINUOUS
10
116.5
20
-109.75
11
115
21
-108.25
0
LINE
8
BLACK
6
CONTINUOUS
10
140.6
20
-107.75
11
140.6
21
-109.5
0
LINE
8
BLACK
6
CONTINUOUS
10
137.35
20
-107.75
11
135.35
21
-109.75
0
LINE
8
BLACK
6
CONTINUOUS
10
115
20
-57
11
120
21
-52
0
LINE
8
BLACK
6
CONTINUOUS
10
170.5
20
-85
11
170.5
21
-57
0
LINE
8
BLACK
6
CONTINUOUS
10
136.75
20
-62.5
11
148.75
21
-62.5
0
LINE
8
BLACK
6
CONTINUOUS
10
136.75
20
-52
11
120
21
-52
0
LINE
8
BLACK
6
CONTINUOUS
10
170.5
20
-112.75
11
169
21
-111.25
0
LINE
8
BLACK
6
CONTINUOUS
10
135.95
20
-111.25
11
117
21
-111.25
0
LINE
8
BLACK
6
CONTINUOUS
10
134.5
20
-152
11
158
21
-152
0
LINE
8
BLACK
6
CONTINUOUS
10
137.7
20
-109.5
11
135.95
21
-111.25
0
LINE
8
BLACK
6
CONTINUOUS
10
169
20
-133.5
11
169
21
-141
0
LINE
8
BLACK
6
CONTINUOUS
10
170.5
20
-108.25
11
170.5
21
-85
0
LINE
8
BLACK
6
CONTINUOUS
10
136.75
20
-52
11
136.75
21
-62.5
0
LINE
8
BLACK
6
CONTINUOUS
10
134.5
20
-152
11
133.5
21
-151
0
LINE
8
BLACK
6
CONTINUOUS
10
133.5
20
-148.5
11
132.5
21
-147.5
0
LINE
8
BLACK
6
CONTINUOUS
10
145.4
20
-107.75
11
148.5
21
-107.75
0
LINE
8
BLACK
6
CONTINUOUS
10
115
20
-112.75
11
115
21
-121
0
LINE
8
BLACK
6
CONTINUOUS
10
148.75
20
-52
11
165.5
21
-52
0
LINE
8
BLACK
6
CONTINUOUS
10
132.5
20
-147.5
11
128.5
21
-147.5
0
LINE
8
BLACK
6
CONTINUOUS
10
145.4
20
-107.75
11
145.4
21
-109.5
0
LINE
8
BLACK
6
CONTINUOUS
10
169
20
-111.25
11
164.75
21
-111.25
0
LINE
8
BLACK
6
CONTINUOUS
10
116.5
20
-111.25
11
115
21
-112.75
0
LINE
8
BLACK
6
CONTINUOUS
10
148
20
-109.5
11
149.75
21
-111.25
0
LINE
8
BLACK
6
CONTINUOUS
10
170.5
20
-132
11
170.5
21
-112.75
0
LINE
8
BLACK
6
CONTINUOUS
10
128.5
20
-147.5
11
128
21
-147.5
0
LINE
8
BLACK
6
CONTINUOUS
10
137.35
20
-107.75
11
140.6
21
-107.75
0
LINE
8
BLACK
6
CONTINUOUS
10
150.5
20
-109.75
11
169
21
-109.75
0
LINE
8
BLACK
6
CONTINUOUS
10
117
20
-111.25
11
116.5
21
-111.25
  0
ENDSEC
  0
EOF
