  0
SECTION
  2
HEADER
  9
$ANGBASE
  50
0.0
  9
$ANGDIR
  70
1
  9
$MEASUREMENT
  70
1
  0
ENDSEC
  0
SECTION
  2
TABLES
  0
TABLE
  2
LTYPE
  70
4
  0
LTYPE
  5
40F
  2
CONTINUOUS
  70
0
  3
Solid line
  72
65
  73
0
  40
0.0
  0
LTYPE
  5
410
  2
DASHDOT
 70
0
  3
Dash Dot ____ _ ____ _
 72
65
 73
4
 40
2.0
 49
1.25
 49
-0.25
 49
0.25
 49
-0.25
  0
LTYPE
  5
411
  2
DASHED
 70
0
  3
Dashed __ __ __ __ __
 72
65
 73
2
 40
0.75
 49
0.5
 49
-0.25
  0
LTYPE
  5
43B
  2
DOTTED
 70
0
  3
Dotted .  .  .  .
 72
65
 73
2
 40
0.2
 49
0.0
 49
-0.2
  0
ENDTAB
  0
TABLE
  2
STYLE
  70
4
  0
STYLE
  2
KICAD
  70
0
  40
0
  41
1
  42
1
  50
0
  71
0
  3
isocp.shx
  0
STYLE
  2
KICADB
  70
0
  40
0
  41
1
  42
1
  50
0
  71
0
  3
isocp.shx
  0
STYLE
  2
KICADI
  70
0
  40
0
  41
1
  42
1
  50
15
  71
0
  3
isocp.shx
  0
STYLE
  2
KICADBI
  70
0
  40
0
  41
1
  42
1
  50
15
  71
0
  3
isocp.shx
  0
ENDTAB
  0
TABLE
  2
LAYER
  70
1
  0
LAYER
  2
BLACK
  70
0
  62
7
  6
CONTINUOUS
  0
ENDTAB
  0
ENDSEC
  0
SECTION
  2
ENTITIES
0
LINE
8
BLACK
6
CONTINUOUS
10
164.706
20
-106.094
11
164.787
21
-106.148
0
LINE
8
BLACK
6
CONTINUOUS
10
164.787
20
-106.148
11
164.841
21
-106.229
0
LINE
8
BLACK
6
CONTINUOUS
10
164.841
20
-106.229
11
164.86
21
-106.325
0
LINE
8
BLACK
6
CONTINUOUS
10
164.86
20
-106.325
11
164.86
21
-107.275
0
LINE
8
BLACK
6
CONTINUOUS
10
164.86
20
-107.275
11
164.841
21
-107.371
0
LINE
8
BLACK
6
CONTINUOUS
10
164.841
20
-107.371
11
164.787
21
-107.452
0
LINE
8
BLACK
6
CONTINUOUS
10
164.787
20
-107.452
11
164.706
21
-107.506
0
LINE
8
BLACK
6
CONTINUOUS
10
164.706
20
-107.506
11
164.61
21
-107.525
0
LINE
8
BLACK
6
CONTINUOUS
10
164.61
20
-107.525
11
163.935
21
-107.525
0
LINE
8
BLACK
6
CONTINUOUS
10
163.935
20
-107.525
11
163.839
21
-107.506
0
LINE
8
BLACK
6
CONTINUOUS
10
163.839
20
-107.506
11
163.758
21
-107.452
0
LINE
8
BLACK
6
CONTINUOUS
10
163.758
20
-107.452
11
163.704
21
-107.371
0
LINE
8
BLACK
6
CONTINUOUS
10
163.704
20
-107.371
11
163.685
21
-107.275
0
LINE
8
BLACK
6
CONTINUOUS
10
163.685
20
-107.275
11
163.685
21
-106.325
0
LINE
8
BLACK
6
CONTINUOUS
10
163.685
20
-106.325
11
163.704
21
-106.229
0
LINE
8
BLACK
6
CONTINUOUS
10
163.704
20
-106.229
11
163.758
21
-106.148
0
LINE
8
BLACK
6
CONTINUOUS
10
163.758
20
-106.148
11
163.839
21
-106.094
0
LINE
8
BLACK
6
CONTINUOUS
10
163.839
20
-106.094
11
163.935
21
-106.075
0
LINE
8
BLACK
6
CONTINUOUS
10
163.935
20
-106.075
11
164.61
21
-106.075
0
LINE
8
BLACK
6
CONTINUOUS
10
164.61
20
-106.075
11
164.706
21
-106.094
0
LINE
8
BLACK
6
CONTINUOUS
10
166.781
20
-106.094
11
166.862
21
-106.148
0
LINE
8
BLACK
6
CONTINUOUS
10
166.862
20
-106.148
11
166.916
21
-106.229
0
LINE
8
BLACK
6
CONTINUOUS
10
166.916
20
-106.229
11
166.935
21
-106.325
0
LINE
8
BLACK
6
CONTINUOUS
10
166.935
20
-106.325
11
166.935
21
-107.275
0
LINE
8
BLACK
6
CONTINUOUS
10
166.935
20
-107.275
11
166.916
21
-107.371
0
LINE
8
BLACK
6
CONTINUOUS
10
166.916
20
-107.371
11
166.862
21
-107.452
0
LINE
8
BLACK
6
CONTINUOUS
10
166.862
20
-107.452
11
166.781
21
-107.506
0
LINE
8
BLACK
6
CONTINUOUS
10
166.781
20
-107.506
11
166.685
21
-107.525
0
LINE
8
BLACK
6
CONTINUOUS
10
166.685
20
-107.525
11
166.01
21
-107.525
0
LINE
8
BLACK
6
CONTINUOUS
10
166.01
20
-107.525
11
165.914
21
-107.506
0
LINE
8
BLACK
6
CONTINUOUS
10
165.914
20
-107.506
11
165.833
21
-107.452
0
LINE
8
BLACK
6
CONTINUOUS
10
165.833
20
-107.452
11
165.779
21
-107.371
0
LINE
8
BLACK
6
CONTINUOUS
10
165.779
20
-107.371
11
165.76
21
-107.275
0
LINE
8
BLACK
6
CONTINUOUS
10
165.76
20
-107.275
11
165.76
21
-106.325
0
LINE
8
BLACK
6
CONTINUOUS
10
165.76
20
-106.325
11
165.779
21
-106.229
0
LINE
8
BLACK
6
CONTINUOUS
10
165.779
20
-106.229
11
165.833
21
-106.148
0
LINE
8
BLACK
6
CONTINUOUS
10
165.833
20
-106.148
11
165.914
21
-106.094
0
LINE
8
BLACK
6
CONTINUOUS
10
165.914
20
-106.094
11
166.01
21
-106.075
0
LINE
8
BLACK
6
CONTINUOUS
10
166.01
20
-106.075
11
166.685
21
-106.075
0
LINE
8
BLACK
6
CONTINUOUS
10
166.685
20
-106.075
11
166.781
21
-106.094
0
LINE
8
BLACK
6
CONTINUOUS
10
162.156
20
-103.919
11
162.237
21
-103.973
0
LINE
8
BLACK
6
CONTINUOUS
10
162.237
20
-103.973
11
162.291
21
-104.054
0
LINE
8
BLACK
6
CONTINUOUS
10
162.291
20
-104.054
11
162.31
21
-104.15
0
LINE
8
BLACK
6
CONTINUOUS
10
162.31
20
-104.15
11
162.31
21
-105.05
0
LINE
8
BLACK
6
CONTINUOUS
10
162.31
20
-105.05
11
162.291
21
-105.146
0
LINE
8
BLACK
6
CONTINUOUS
10
162.291
20
-105.146
11
162.237
21
-105.227
0
LINE
8
BLACK
6
CONTINUOUS
10
162.237
20
-105.227
11
162.156
21
-105.281
0
LINE
8
BLACK
6
CONTINUOUS
10
162.156
20
-105.281
11
162.06
21
-105.3
0
LINE
8
BLACK
6
CONTINUOUS
10
162.06
20
-105.3
11
161.36
21
-105.3
0
LINE
8
BLACK
6
CONTINUOUS
10
161.36
20
-105.3
11
161.264
21
-105.281
0
LINE
8
BLACK
6
CONTINUOUS
10
161.264
20
-105.281
11
161.183
21
-105.227
0
LINE
8
BLACK
6
CONTINUOUS
10
161.183
20
-105.227
11
161.129
21
-105.146
0
LINE
8
BLACK
6
CONTINUOUS
10
161.129
20
-105.146
11
161.11
21
-105.05
0
LINE
8
BLACK
6
CONTINUOUS
10
161.11
20
-105.05
11
161.11
21
-104.15
0
LINE
8
BLACK
6
CONTINUOUS
10
161.11
20
-104.15
11
161.129
21
-104.054
0
LINE
8
BLACK
6
CONTINUOUS
10
161.129
20
-104.054
11
161.183
21
-103.973
0
LINE
8
BLACK
6
CONTINUOUS
10
161.183
20
-103.973
11
161.264
21
-103.919
0
LINE
8
BLACK
6
CONTINUOUS
10
161.264
20
-103.919
11
161.36
21
-103.9
0
LINE
8
BLACK
6
CONTINUOUS
10
161.36
20
-103.9
11
162.06
21
-103.9
0
LINE
8
BLACK
6
CONTINUOUS
10
162.06
20
-103.9
11
162.156
21
-103.919
0
LINE
8
BLACK
6
CONTINUOUS
10
164.156
20
-103.919
11
164.237
21
-103.973
0
LINE
8
BLACK
6
CONTINUOUS
10
164.237
20
-103.973
11
164.291
21
-104.054
0
LINE
8
BLACK
6
CONTINUOUS
10
164.291
20
-104.054
11
164.31
21
-104.15
0
LINE
8
BLACK
6
CONTINUOUS
10
164.31
20
-104.15
11
164.31
21
-105.05
0
LINE
8
BLACK
6
CONTINUOUS
10
164.31
20
-105.05
11
164.291
21
-105.146
0
LINE
8
BLACK
6
CONTINUOUS
10
164.291
20
-105.146
11
164.237
21
-105.227
0
LINE
8
BLACK
6
CONTINUOUS
10
164.237
20
-105.227
11
164.156
21
-105.281
0
LINE
8
BLACK
6
CONTINUOUS
10
164.156
20
-105.281
11
164.06
21
-105.3
0
LINE
8
BLACK
6
CONTINUOUS
10
164.06
20
-105.3
11
163.36
21
-105.3
0
LINE
8
BLACK
6
CONTINUOUS
10
163.36
20
-105.3
11
163.264
21
-105.281
0
LINE
8
BLACK
6
CONTINUOUS
10
163.264
20
-105.281
11
163.183
21
-105.227
0
LINE
8
BLACK
6
CONTINUOUS
10
163.183
20
-105.227
11
163.129
21
-105.146
0
LINE
8
BLACK
6
CONTINUOUS
10
163.129
20
-105.146
11
163.11
21
-105.05
0
LINE
8
BLACK
6
CONTINUOUS
10
163.11
20
-105.05
11
163.11
21
-104.15
0
LINE
8
BLACK
6
CONTINUOUS
10
163.11
20
-104.15
11
163.129
21
-104.054
0
LINE
8
BLACK
6
CONTINUOUS
10
163.129
20
-104.054
11
163.183
21
-103.973
0
LINE
8
BLACK
6
CONTINUOUS
10
163.183
20
-103.973
11
163.264
21
-103.919
0
LINE
8
BLACK
6
CONTINUOUS
10
163.264
20
-103.919
11
163.36
21
-103.9
0
LINE
8
BLACK
6
CONTINUOUS
10
163.36
20
-103.9
11
164.06
21
-103.9
0
LINE
8
BLACK
6
CONTINUOUS
10
164.06
20
-103.9
11
164.156
21
-103.919
0
LINE
8
BLACK
6
CONTINUOUS
10
156.056
20
-103.819
11
156.137
21
-103.873
0
LINE
8
BLACK
6
CONTINUOUS
10
156.137
20
-103.873
11
156.191
21
-103.954
0
LINE
8
BLACK
6
CONTINUOUS
10
156.191
20
-103.954
11
156.21
21
-104.05
0
LINE
8
BLACK
6
CONTINUOUS
10
156.21
20
-104.05
11
156.21
21
-104.95
0
LINE
8
BLACK
6
CONTINUOUS
10
156.21
20
-104.95
11
156.191
21
-105.046
0
LINE
8
BLACK
6
CONTINUOUS
10
156.191
20
-105.046
11
156.137
21
-105.127
0
LINE
8
BLACK
6
CONTINUOUS
10
156.137
20
-105.127
11
156.056
21
-105.181
0
LINE
8
BLACK
6
CONTINUOUS
10
156.056
20
-105.181
11
155.96
21
-105.2
0
LINE
8
BLACK
6
CONTINUOUS
10
155.96
20
-105.2
11
155.26
21
-105.2
0
LINE
8
BLACK
6
CONTINUOUS
10
155.26
20
-105.2
11
155.164
21
-105.181
0
LINE
8
BLACK
6
CONTINUOUS
10
155.164
20
-105.181
11
155.083
21
-105.127
0
LINE
8
BLACK
6
CONTINUOUS
10
155.083
20
-105.127
11
155.029
21
-105.046
0
LINE
8
BLACK
6
CONTINUOUS
10
155.029
20
-105.046
11
155.01
21
-104.95
0
LINE
8
BLACK
6
CONTINUOUS
10
155.01
20
-104.95
11
155.01
21
-104.05
0
LINE
8
BLACK
6
CONTINUOUS
10
155.01
20
-104.05
11
155.029
21
-103.954
0
LINE
8
BLACK
6
CONTINUOUS
10
155.029
20
-103.954
11
155.083
21
-103.873
0
LINE
8
BLACK
6
CONTINUOUS
10
155.083
20
-103.873
11
155.164
21
-103.819
0
LINE
8
BLACK
6
CONTINUOUS
10
155.164
20
-103.819
11
155.26
21
-103.8
0
LINE
8
BLACK
6
CONTINUOUS
10
155.26
20
-103.8
11
155.96
21
-103.8
0
LINE
8
BLACK
6
CONTINUOUS
10
155.96
20
-103.8
11
156.056
21
-103.819
0
LINE
8
BLACK
6
CONTINUOUS
10
158.056
20
-103.819
11
158.137
21
-103.873
0
LINE
8
BLACK
6
CONTINUOUS
10
158.137
20
-103.873
11
158.191
21
-103.954
0
LINE
8
BLACK
6
CONTINUOUS
10
158.191
20
-103.954
11
158.21
21
-104.05
0
LINE
8
BLACK
6
CONTINUOUS
10
158.21
20
-104.05
11
158.21
21
-104.95
0
LINE
8
BLACK
6
CONTINUOUS
10
158.21
20
-104.95
11
158.191
21
-105.046
0
LINE
8
BLACK
6
CONTINUOUS
10
158.191
20
-105.046
11
158.137
21
-105.127
0
LINE
8
BLACK
6
CONTINUOUS
10
158.137
20
-105.127
11
158.056
21
-105.181
0
LINE
8
BLACK
6
CONTINUOUS
10
158.056
20
-105.181
11
157.96
21
-105.2
0
LINE
8
BLACK
6
CONTINUOUS
10
157.96
20
-105.2
11
157.26
21
-105.2
0
LINE
8
BLACK
6
CONTINUOUS
10
157.26
20
-105.2
11
157.164
21
-105.181
0
LINE
8
BLACK
6
CONTINUOUS
10
157.164
20
-105.181
11
157.083
21
-105.127
0
LINE
8
BLACK
6
CONTINUOUS
10
157.083
20
-105.127
11
157.029
21
-105.046
0
LINE
8
BLACK
6
CONTINUOUS
10
157.029
20
-105.046
11
157.01
21
-104.95
0
LINE
8
BLACK
6
CONTINUOUS
10
157.01
20
-104.95
11
157.01
21
-104.05
0
LINE
8
BLACK
6
CONTINUOUS
10
157.01
20
-104.05
11
157.029
21
-103.954
0
LINE
8
BLACK
6
CONTINUOUS
10
157.029
20
-103.954
11
157.083
21
-103.873
0
LINE
8
BLACK
6
CONTINUOUS
10
157.083
20
-103.873
11
157.164
21
-103.819
0
LINE
8
BLACK
6
CONTINUOUS
10
157.164
20
-103.819
11
157.26
21
-103.8
0
LINE
8
BLACK
6
CONTINUOUS
10
157.26
20
-103.8
11
157.96
21
-103.8
0
LINE
8
BLACK
6
CONTINUOUS
10
157.96
20
-103.8
11
158.056
21
-103.819
0
LINE
8
BLACK
6
CONTINUOUS
10
158.312
20
-101.584
11
158.393
21
-101.638
0
LINE
8
BLACK
6
CONTINUOUS
10
158.393
20
-101.638
11
158.447
21
-101.719
0
LINE
8
BLACK
6
CONTINUOUS
10
158.447
20
-101.719
11
158.466
21
-101.815
0
LINE
8
BLACK
6
CONTINUOUS
10
158.466
20
-101.815
11
158.466
21
-102.515
0
LINE
8
BLACK
6
CONTINUOUS
10
158.466
20
-102.515
11
158.447
21
-102.611
0
LINE
8
BLACK
6
CONTINUOUS
10
158.447
20
-102.611
11
158.393
21
-102.692
0
LINE
8
BLACK
6
CONTINUOUS
10
158.393
20
-102.692
11
158.312
21
-102.746
0
LINE
8
BLACK
6
CONTINUOUS
10
158.312
20
-102.746
11
158.216
21
-102.765
0
LINE
8
BLACK
6
CONTINUOUS
10
158.216
20
-102.765
11
157.316
21
-102.765
0
LINE
8
BLACK
6
CONTINUOUS
10
157.316
20
-102.765
11
157.22
21
-102.746
0
LINE
8
BLACK
6
CONTINUOUS
10
157.22
20
-102.746
11
157.139
21
-102.692
0
LINE
8
BLACK
6
CONTINUOUS
10
157.139
20
-102.692
11
157.085
21
-102.611
0
LINE
8
BLACK
6
CONTINUOUS
10
157.085
20
-102.611
11
157.066
21
-102.515
0
LINE
8
BLACK
6
CONTINUOUS
10
157.066
20
-102.515
11
157.066
21
-101.815
0
LINE
8
BLACK
6
CONTINUOUS
10
157.066
20
-101.815
11
157.085
21
-101.719
0
LINE
8
BLACK
6
CONTINUOUS
10
157.085
20
-101.719
11
157.139
21
-101.638
0
LINE
8
BLACK
6
CONTINUOUS
10
157.139
20
-101.638
11
157.22
21
-101.584
0
LINE
8
BLACK
6
CONTINUOUS
10
157.22
20
-101.584
11
157.316
21
-101.565
0
LINE
8
BLACK
6
CONTINUOUS
10
157.316
20
-101.565
11
158.216
21
-101.565
0
LINE
8
BLACK
6
CONTINUOUS
10
158.216
20
-101.565
11
158.312
21
-101.584
0
LINE
8
BLACK
6
CONTINUOUS
10
160.412
20
-101.584
11
160.493
21
-101.638
0
LINE
8
BLACK
6
CONTINUOUS
10
160.493
20
-101.638
11
160.547
21
-101.719
0
LINE
8
BLACK
6
CONTINUOUS
10
160.547
20
-101.719
11
160.566
21
-101.815
0
LINE
8
BLACK
6
CONTINUOUS
10
160.566
20
-101.815
11
160.566
21
-102.515
0
LINE
8
BLACK
6
CONTINUOUS
10
160.566
20
-102.515
11
160.547
21
-102.611
0
LINE
8
BLACK
6
CONTINUOUS
10
160.547
20
-102.611
11
160.493
21
-102.692
0
LINE
8
BLACK
6
CONTINUOUS
10
160.493
20
-102.692
11
160.412
21
-102.746
0
LINE
8
BLACK
6
CONTINUOUS
10
160.412
20
-102.746
11
160.316
21
-102.765
0
LINE
8
BLACK
6
CONTINUOUS
10
160.316
20
-102.765
11
159.416
21
-102.765
0
LINE
8
BLACK
6
CONTINUOUS
10
159.416
20
-102.765
11
159.32
21
-102.746
0
LINE
8
BLACK
6
CONTINUOUS
10
159.32
20
-102.746
11
159.239
21
-102.692
0
LINE
8
BLACK
6
CONTINUOUS
10
159.239
20
-102.692
11
159.185
21
-102.611
0
LINE
8
BLACK
6
CONTINUOUS
10
159.185
20
-102.611
11
159.166
21
-102.515
0
LINE
8
BLACK
6
CONTINUOUS
10
159.166
20
-102.515
11
159.166
21
-101.815
0
LINE
8
BLACK
6
CONTINUOUS
10
159.166
20
-101.815
11
159.185
21
-101.719
0
LINE
8
BLACK
6
CONTINUOUS
10
159.185
20
-101.719
11
159.239
21
-101.638
0
LINE
8
BLACK
6
CONTINUOUS
10
159.239
20
-101.638
11
159.32
21
-101.584
0
LINE
8
BLACK
6
CONTINUOUS
10
159.32
20
-101.584
11
159.416
21
-101.565
0
LINE
8
BLACK
6
CONTINUOUS
10
159.416
20
-101.565
11
160.316
21
-101.565
0
LINE
8
BLACK
6
CONTINUOUS
10
160.316
20
-101.565
11
160.412
21
-101.584
0
LINE
8
BLACK
6
CONTINUOUS
10
162.412
20
-101.584
11
162.493
21
-101.638
0
LINE
8
BLACK
6
CONTINUOUS
10
162.493
20
-101.638
11
162.547
21
-101.719
0
LINE
8
BLACK
6
CONTINUOUS
10
162.547
20
-101.719
11
162.566
21
-101.815
0
LINE
8
BLACK
6
CONTINUOUS
10
162.566
20
-101.815
11
162.566
21
-102.515
0
LINE
8
BLACK
6
CONTINUOUS
10
162.566
20
-102.515
11
162.547
21
-102.611
0
LINE
8
BLACK
6
CONTINUOUS
10
162.547
20
-102.611
11
162.493
21
-102.692
0
LINE
8
BLACK
6
CONTINUOUS
10
162.493
20
-102.692
11
162.412
21
-102.746
0
LINE
8
BLACK
6
CONTINUOUS
10
162.412
20
-102.746
11
162.316
21
-102.765
0
LINE
8
BLACK
6
CONTINUOUS
10
162.316
20
-102.765
11
161.416
21
-102.765
0
LINE
8
BLACK
6
CONTINUOUS
10
161.416
20
-102.765
11
161.32
21
-102.746
0
LINE
8
BLACK
6
CONTINUOUS
10
161.32
20
-102.746
11
161.239
21
-102.692
0
LINE
8
BLACK
6
CONTINUOUS
10
161.239
20
-102.692
11
161.185
21
-102.611
0
LINE
8
BLACK
6
CONTINUOUS
10
161.185
20
-102.611
11
161.166
21
-102.515
0
LINE
8
BLACK
6
CONTINUOUS
10
161.166
20
-102.515
11
161.166
21
-101.815
0
LINE
8
BLACK
6
CONTINUOUS
10
161.166
20
-101.815
11
161.185
21
-101.719
0
LINE
8
BLACK
6
CONTINUOUS
10
161.185
20
-101.719
11
161.239
21
-101.638
0
LINE
8
BLACK
6
CONTINUOUS
10
161.239
20
-101.638
11
161.32
21
-101.584
0
LINE
8
BLACK
6
CONTINUOUS
10
161.32
20
-101.584
11
161.416
21
-101.565
0
LINE
8
BLACK
6
CONTINUOUS
10
161.416
20
-101.565
11
162.316
21
-101.565
0
LINE
8
BLACK
6
CONTINUOUS
10
162.316
20
-101.565
11
162.412
21
-101.584
0
LINE
8
BLACK
6
CONTINUOUS
10
152.302
20
-101.299
11
152.383
21
-101.353
0
LINE
8
BLACK
6
CONTINUOUS
10
152.383
20
-101.353
11
152.437
21
-101.434
0
LINE
8
BLACK
6
CONTINUOUS
10
152.437
20
-101.434
11
152.456
21
-101.53
0
LINE
8
BLACK
6
CONTINUOUS
10
152.456
20
-101.53
11
152.456
21
-102.205
0
LINE
8
BLACK
6
CONTINUOUS
10
152.456
20
-102.205
11
152.437
21
-102.301
0
LINE
8
BLACK
6
CONTINUOUS
10
152.437
20
-102.301
11
152.383
21
-102.382
0
LINE
8
BLACK
6
CONTINUOUS
10
152.383
20
-102.382
11
152.302
21
-102.436
0
LINE
8
BLACK
6
CONTINUOUS
10
152.302
20
-102.436
11
152.206
21
-102.455
0
LINE
8
BLACK
6
CONTINUOUS
10
152.206
20
-102.455
11
151.256
21
-102.455
0
LINE
8
BLACK
6
CONTINUOUS
10
151.256
20
-102.455
11
151.16
21
-102.436
0
LINE
8
BLACK
6
CONTINUOUS
10
151.16
20
-102.436
11
151.079
21
-102.382
0
LINE
8
BLACK
6
CONTINUOUS
10
151.079
20
-102.382
11
151.025
21
-102.301
0
LINE
8
BLACK
6
CONTINUOUS
10
151.025
20
-102.301
11
151.006
21
-102.205
0
LINE
8
BLACK
6
CONTINUOUS
10
151.006
20
-102.205
11
151.006
21
-101.53
0
LINE
8
BLACK
6
CONTINUOUS
10
151.006
20
-101.53
11
151.025
21
-101.434
0
LINE
8
BLACK
6
CONTINUOUS
10
151.025
20
-101.434
11
151.079
21
-101.353
0
LINE
8
BLACK
6
CONTINUOUS
10
151.079
20
-101.353
11
151.16
21
-101.299
0
LINE
8
BLACK
6
CONTINUOUS
10
151.16
20
-101.299
11
151.256
21
-101.28
0
LINE
8
BLACK
6
CONTINUOUS
10
151.256
20
-101.28
11
152.206
21
-101.28
0
LINE
8
BLACK
6
CONTINUOUS
10
152.206
20
-101.28
11
152.302
21
-101.299
0
LINE
8
BLACK
6
CONTINUOUS
10
158.312
20
-99.584
11
158.393
21
-99.6382
0
LINE
8
BLACK
6
CONTINUOUS
10
158.393
20
-99.6382
11
158.447
21
-99.7193
0
LINE
8
BLACK
6
CONTINUOUS
10
158.447
20
-99.7193
11
158.466
21
-99.815
0
LINE
8
BLACK
6
CONTINUOUS
10
158.466
20
-99.815
11
158.466
21
-100.515
0
LINE
8
BLACK
6
CONTINUOUS
10
158.466
20
-100.515
11
158.447
21
-100.611
0
LINE
8
BLACK
6
CONTINUOUS
10
158.447
20
-100.611
11
158.393
21
-100.692
0
LINE
8
BLACK
6
CONTINUOUS
10
158.393
20
-100.692
11
158.312
21
-100.746
0
LINE
8
BLACK
6
CONTINUOUS
10
158.312
20
-100.746
11
158.216
21
-100.765
0
LINE
8
BLACK
6
CONTINUOUS
10
158.216
20
-100.765
11
157.316
21
-100.765
0
LINE
8
BLACK
6
CONTINUOUS
10
157.316
20
-100.765
11
157.22
21
-100.746
0
LINE
8
BLACK
6
CONTINUOUS
10
157.22
20
-100.746
11
157.139
21
-100.692
0
LINE
8
BLACK
6
CONTINUOUS
10
157.139
20
-100.692
11
157.085
21
-100.611
0
LINE
8
BLACK
6
CONTINUOUS
10
157.085
20
-100.611
11
157.066
21
-100.515
0
LINE
8
BLACK
6
CONTINUOUS
10
157.066
20
-100.515
11
157.066
21
-99.815
0
LINE
8
BLACK
6
CONTINUOUS
10
157.066
20
-99.815
11
157.085
21
-99.7193
0
LINE
8
BLACK
6
CONTINUOUS
10
157.085
20
-99.7193
11
157.139
21
-99.6382
0
LINE
8
BLACK
6
CONTINUOUS
10
157.139
20
-99.6382
11
157.22
21
-99.584
0
LINE
8
BLACK
6
CONTINUOUS
10
157.22
20
-99.584
11
157.316
21
-99.565
0
LINE
8
BLACK
6
CONTINUOUS
10
157.316
20
-99.565
11
158.216
21
-99.565
0
LINE
8
BLACK
6
CONTINUOUS
10
158.216
20
-99.565
11
158.312
21
-99.584
0
LINE
8
BLACK
6
CONTINUOUS
10
160.412
20
-99.584
11
160.493
21
-99.6382
0
LINE
8
BLACK
6
CONTINUOUS
10
160.493
20
-99.6382
11
160.547
21
-99.7193
0
LINE
8
BLACK
6
CONTINUOUS
10
160.547
20
-99.7193
11
160.566
21
-99.815
0
LINE
8
BLACK
6
CONTINUOUS
10
160.566
20
-99.815
11
160.566
21
-100.515
0
LINE
8
BLACK
6
CONTINUOUS
10
160.566
20
-100.515
11
160.547
21
-100.611
0
LINE
8
BLACK
6
CONTINUOUS
10
160.547
20
-100.611
11
160.493
21
-100.692
0
LINE
8
BLACK
6
CONTINUOUS
10
160.493
20
-100.692
11
160.412
21
-100.746
0
LINE
8
BLACK
6
CONTINUOUS
10
160.412
20
-100.746
11
160.316
21
-100.765
0
LINE
8
BLACK
6
CONTINUOUS
10
160.316
20
-100.765
11
159.416
21
-100.765
0
LINE
8
BLACK
6
CONTINUOUS
10
159.416
20
-100.765
11
159.32
21
-100.746
0
LINE
8
BLACK
6
CONTINUOUS
10
159.32
20
-100.746
11
159.239
21
-100.692
0
LINE
8
BLACK
6
CONTINUOUS
10
159.239
20
-100.692
11
159.185
21
-100.611
0
LINE
8
BLACK
6
CONTINUOUS
10
159.185
20
-100.611
11
159.166
21
-100.515
0
LINE
8
BLACK
6
CONTINUOUS
10
159.166
20
-100.515
11
159.166
21
-99.815
0
LINE
8
BLACK
6
CONTINUOUS
10
159.166
20
-99.815
11
159.185
21
-99.7193
0
LINE
8
BLACK
6
CONTINUOUS
10
159.185
20
-99.7193
11
159.239
21
-99.6382
0
LINE
8
BLACK
6
CONTINUOUS
10
159.239
20
-99.6382
11
159.32
21
-99.584
0
LINE
8
BLACK
6
CONTINUOUS
10
159.32
20
-99.584
11
159.416
21
-99.565
0
LINE
8
BLACK
6
CONTINUOUS
10
159.416
20
-99.565
11
160.316
21
-99.565
0
LINE
8
BLACK
6
CONTINUOUS
10
160.316
20
-99.565
11
160.412
21
-99.584
0
LINE
8
BLACK
6
CONTINUOUS
10
162.412
20
-99.584
11
162.493
21
-99.6382
0
LINE
8
BLACK
6
CONTINUOUS
10
162.493
20
-99.6382
11
162.547
21
-99.7193
0
LINE
8
BLACK
6
CONTINUOUS
10
162.547
20
-99.7193
11
162.566
21
-99.815
0
LINE
8
BLACK
6
CONTINUOUS
10
162.566
20
-99.815
11
162.566
21
-100.515
0
LINE
8
BLACK
6
CONTINUOUS
10
162.566
20
-100.515
11
162.547
21
-100.611
0
LINE
8
BLACK
6
CONTINUOUS
10
162.547
20
-100.611
11
162.493
21
-100.692
0
LINE
8
BLACK
6
CONTINUOUS
10
162.493
20
-100.692
11
162.412
21
-100.746
0
LINE
8
BLACK
6
CONTINUOUS
10
162.412
20
-100.746
11
162.316
21
-100.765
0
LINE
8
BLACK
6
CONTINUOUS
10
162.316
20
-100.765
11
161.416
21
-100.765
0
LINE
8
BLACK
6
CONTINUOUS
10
161.416
20
-100.765
11
161.32
21
-100.746
0
LINE
8
BLACK
6
CONTINUOUS
10
161.32
20
-100.746
11
161.239
21
-100.692
0
LINE
8
BLACK
6
CONTINUOUS
10
161.239
20
-100.692
11
161.185
21
-100.611
0
LINE
8
BLACK
6
CONTINUOUS
10
161.185
20
-100.611
11
161.166
21
-100.515
0
LINE
8
BLACK
6
CONTINUOUS
10
161.166
20
-100.515
11
161.166
21
-99.815
0
LINE
8
BLACK
6
CONTINUOUS
10
161.166
20
-99.815
11
161.185
21
-99.7193
0
LINE
8
BLACK
6
CONTINUOUS
10
161.185
20
-99.7193
11
161.239
21
-99.6382
0
LINE
8
BLACK
6
CONTINUOUS
10
161.239
20
-99.6382
11
161.32
21
-99.584
0
LINE
8
BLACK
6
CONTINUOUS
10
161.32
20
-99.584
11
161.416
21
-99.565
0
LINE
8
BLACK
6
CONTINUOUS
10
161.416
20
-99.565
11
162.316
21
-99.565
0
LINE
8
BLACK
6
CONTINUOUS
10
162.316
20
-99.565
11
162.412
21
-99.584
0
LINE
8
BLACK
6
CONTINUOUS
10
152.302
20
-99.224
11
152.383
21
-99.2782
0
LINE
8
BLACK
6
CONTINUOUS
10
152.383
20
-99.2782
11
152.437
21
-99.3593
0
LINE
8
BLACK
6
CONTINUOUS
10
152.437
20
-99.3593
11
152.456
21
-99.455
0
LINE
8
BLACK
6
CONTINUOUS
10
152.456
20
-99.455
11
152.456
21
-100.13
0
LINE
8
BLACK
6
CONTINUOUS
10
152.456
20
-100.13
11
152.437
21
-100.226
0
LINE
8
BLACK
6
CONTINUOUS
10
152.437
20
-100.226
11
152.383
21
-100.307
0
LINE
8
BLACK
6
CONTINUOUS
10
152.383
20
-100.307
11
152.302
21
-100.361
0
LINE
8
BLACK
6
CONTINUOUS
10
152.302
20
-100.361
11
152.206
21
-100.38
0
LINE
8
BLACK
6
CONTINUOUS
10
152.206
20
-100.38
11
151.256
21
-100.38
0
LINE
8
BLACK
6
CONTINUOUS
10
151.256
20
-100.38
11
151.16
21
-100.361
0
LINE
8
BLACK
6
CONTINUOUS
10
151.16
20
-100.361
11
151.079
21
-100.307
0
LINE
8
BLACK
6
CONTINUOUS
10
151.079
20
-100.307
11
151.025
21
-100.226
0
LINE
8
BLACK
6
CONTINUOUS
10
151.025
20
-100.226
11
151.006
21
-100.13
0
LINE
8
BLACK
6
CONTINUOUS
10
151.006
20
-100.13
11
151.006
21
-99.455
0
LINE
8
BLACK
6
CONTINUOUS
10
151.006
20
-99.455
11
151.025
21
-99.3593
0
LINE
8
BLACK
6
CONTINUOUS
10
151.025
20
-99.3593
11
151.079
21
-99.2782
0
LINE
8
BLACK
6
CONTINUOUS
10
151.079
20
-99.2782
11
151.16
21
-99.224
0
LINE
8
BLACK
6
CONTINUOUS
10
151.16
20
-99.224
11
151.256
21
-99.205
0
LINE
8
BLACK
6
CONTINUOUS
10
151.256
20
-99.205
11
152.206
21
-99.205
0
LINE
8
BLACK
6
CONTINUOUS
10
152.206
20
-99.205
11
152.302
21
-99.224
0
LINE
8
BLACK
6
CONTINUOUS
10
147.381
20
-98.669
11
147.462
21
-98.7232
0
LINE
8
BLACK
6
CONTINUOUS
10
147.462
20
-98.7232
11
147.516
21
-98.8043
0
LINE
8
BLACK
6
CONTINUOUS
10
147.516
20
-98.8043
11
147.535
21
-98.9
0
LINE
8
BLACK
6
CONTINUOUS
10
147.535
20
-98.9
11
147.535
21
-99.575
0
LINE
8
BLACK
6
CONTINUOUS
10
147.535
20
-99.575
11
147.516
21
-99.6707
0
LINE
8
BLACK
6
CONTINUOUS
10
147.516
20
-99.6707
11
147.462
21
-99.7518
0
LINE
8
BLACK
6
CONTINUOUS
10
147.462
20
-99.7518
11
147.381
21
-99.806
0
LINE
8
BLACK
6
CONTINUOUS
10
147.381
20
-99.806
11
147.285
21
-99.825
0
LINE
8
BLACK
6
CONTINUOUS
10
147.285
20
-99.825
11
146.335
21
-99.825
0
LINE
8
BLACK
6
CONTINUOUS
10
146.335
20
-99.825
11
146.239
21
-99.806
0
LINE
8
BLACK
6
CONTINUOUS
10
146.239
20
-99.806
11
146.158
21
-99.7518
0
LINE
8
BLACK
6
CONTINUOUS
10
146.158
20
-99.7518
11
146.104
21
-99.6707
0
LINE
8
BLACK
6
CONTINUOUS
10
146.104
20
-99.6707
11
146.085
21
-99.575
0
LINE
8
BLACK
6
CONTINUOUS
10
146.085
20
-99.575
11
146.085
21
-98.9
0
LINE
8
BLACK
6
CONTINUOUS
10
146.085
20
-98.9
11
146.104
21
-98.8043
0
LINE
8
BLACK
6
CONTINUOUS
10
146.104
20
-98.8043
11
146.158
21
-98.7232
0
LINE
8
BLACK
6
CONTINUOUS
10
146.158
20
-98.7232
11
146.239
21
-98.669
0
LINE
8
BLACK
6
CONTINUOUS
10
146.239
20
-98.669
11
146.335
21
-98.65
0
LINE
8
BLACK
6
CONTINUOUS
10
146.335
20
-98.65
11
147.285
21
-98.65
0
LINE
8
BLACK
6
CONTINUOUS
10
147.285
20
-98.65
11
147.381
21
-98.669
0
LINE
8
BLACK
6
CONTINUOUS
10
149.481
20
-98.569
11
149.562
21
-98.6232
0
LINE
8
BLACK
6
CONTINUOUS
10
149.562
20
-98.6232
11
149.616
21
-98.7043
0
LINE
8
BLACK
6
CONTINUOUS
10
149.616
20
-98.7043
11
149.635
21
-98.8
0
LINE
8
BLACK
6
CONTINUOUS
10
149.635
20
-98.8
11
149.635
21
-99.475
0
LINE
8
BLACK
6
CONTINUOUS
10
149.635
20
-99.475
11
149.616
21
-99.5707
0
LINE
8
BLACK
6
CONTINUOUS
10
149.616
20
-99.5707
11
149.562
21
-99.6518
0
LINE
8
BLACK
6
CONTINUOUS
10
149.562
20
-99.6518
11
149.481
21
-99.706
0
LINE
8
BLACK
6
CONTINUOUS
10
149.481
20
-99.706
11
149.385
21
-99.725
0
LINE
8
BLACK
6
CONTINUOUS
10
149.385
20
-99.725
11
148.435
21
-99.725
0
LINE
8
BLACK
6
CONTINUOUS
10
148.435
20
-99.725
11
148.339
21
-99.706
0
LINE
8
BLACK
6
CONTINUOUS
10
148.339
20
-99.706
11
148.258
21
-99.6518
0
LINE
8
BLACK
6
CONTINUOUS
10
148.258
20
-99.6518
11
148.204
21
-99.5707
0
LINE
8
BLACK
6
CONTINUOUS
10
148.204
20
-99.5707
11
148.185
21
-99.475
0
LINE
8
BLACK
6
CONTINUOUS
10
148.185
20
-99.475
11
148.185
21
-98.8
0
LINE
8
BLACK
6
CONTINUOUS
10
148.185
20
-98.8
11
148.204
21
-98.7043
0
LINE
8
BLACK
6
CONTINUOUS
10
148.204
20
-98.7043
11
148.258
21
-98.6232
0
LINE
8
BLACK
6
CONTINUOUS
10
148.258
20
-98.6232
11
148.339
21
-98.569
0
LINE
8
BLACK
6
CONTINUOUS
10
148.339
20
-98.569
11
148.435
21
-98.55
0
LINE
8
BLACK
6
CONTINUOUS
10
148.435
20
-98.55
11
149.385
21
-98.55
0
LINE
8
BLACK
6
CONTINUOUS
10
149.385
20
-98.55
11
149.481
21
-98.569
0
LINE
8
BLACK
6
CONTINUOUS
10
166.112
20
-97.884
11
166.193
21
-97.9382
0
LINE
8
BLACK
6
CONTINUOUS
10
166.193
20
-97.9382
11
166.247
21
-98.0193
0
LINE
8
BLACK
6
CONTINUOUS
10
166.247
20
-98.0193
11
166.266
21
-98.115
0
LINE
8
BLACK
6
CONTINUOUS
10
166.266
20
-98.115
11
166.266
21
-99.015
0
LINE
8
BLACK
6
CONTINUOUS
10
166.266
20
-99.015
11
166.247
21
-99.1107
0
LINE
8
BLACK
6
CONTINUOUS
10
166.247
20
-99.1107
11
166.193
21
-99.1918
0
LINE
8
BLACK
6
CONTINUOUS
10
166.193
20
-99.1918
11
166.112
21
-99.246
0
LINE
8
BLACK
6
CONTINUOUS
10
166.112
20
-99.246
11
166.016
21
-99.265
0
LINE
8
BLACK
6
CONTINUOUS
10
166.016
20
-99.265
11
165.316
21
-99.265
0
LINE
8
BLACK
6
CONTINUOUS
10
165.316
20
-99.265
11
165.22
21
-99.246
0
LINE
8
BLACK
6
CONTINUOUS
10
165.22
20
-99.246
11
165.139
21
-99.1918
0
LINE
8
BLACK
6
CONTINUOUS
10
165.139
20
-99.1918
11
165.085
21
-99.1107
0
LINE
8
BLACK
6
CONTINUOUS
10
165.085
20
-99.1107
11
165.066
21
-99.015
0
LINE
8
BLACK
6
CONTINUOUS
10
165.066
20
-99.015
11
165.066
21
-98.115
0
LINE
8
BLACK
6
CONTINUOUS
10
165.066
20
-98.115
11
165.085
21
-98.0193
0
LINE
8
BLACK
6
CONTINUOUS
10
165.085
20
-98.0193
11
165.139
21
-97.9382
0
LINE
8
BLACK
6
CONTINUOUS
10
165.139
20
-97.9382
11
165.22
21
-97.884
0
LINE
8
BLACK
6
CONTINUOUS
10
165.22
20
-97.884
11
165.316
21
-97.865
0
LINE
8
BLACK
6
CONTINUOUS
10
165.316
20
-97.865
11
166.016
21
-97.865
0
LINE
8
BLACK
6
CONTINUOUS
10
166.016
20
-97.865
11
166.112
21
-97.884
0
LINE
8
BLACK
6
CONTINUOUS
10
168.112
20
-97.884
11
168.193
21
-97.9382
0
LINE
8
BLACK
6
CONTINUOUS
10
168.193
20
-97.9382
11
168.247
21
-98.0193
0
LINE
8
BLACK
6
CONTINUOUS
10
168.247
20
-98.0193
11
168.266
21
-98.115
0
LINE
8
BLACK
6
CONTINUOUS
10
168.266
20
-98.115
11
168.266
21
-99.015
0
LINE
8
BLACK
6
CONTINUOUS
10
168.266
20
-99.015
11
168.247
21
-99.1107
0
LINE
8
BLACK
6
CONTINUOUS
10
168.247
20
-99.1107
11
168.193
21
-99.1918
0
LINE
8
BLACK
6
CONTINUOUS
10
168.193
20
-99.1918
11
168.112
21
-99.246
0
LINE
8
BLACK
6
CONTINUOUS
10
168.112
20
-99.246
11
168.016
21
-99.265
0
LINE
8
BLACK
6
CONTINUOUS
10
168.016
20
-99.265
11
167.316
21
-99.265
0
LINE
8
BLACK
6
CONTINUOUS
10
167.316
20
-99.265
11
167.22
21
-99.246
0
LINE
8
BLACK
6
CONTINUOUS
10
167.22
20
-99.246
11
167.139
21
-99.1918
0
LINE
8
BLACK
6
CONTINUOUS
10
167.139
20
-99.1918
11
167.085
21
-99.1107
0
LINE
8
BLACK
6
CONTINUOUS
10
167.085
20
-99.1107
11
167.066
21
-99.015
0
LINE
8
BLACK
6
CONTINUOUS
10
167.066
20
-99.015
11
167.066
21
-98.115
0
LINE
8
BLACK
6
CONTINUOUS
10
167.066
20
-98.115
11
167.085
21
-98.0193
0
LINE
8
BLACK
6
CONTINUOUS
10
167.085
20
-98.0193
11
167.139
21
-97.9382
0
LINE
8
BLACK
6
CONTINUOUS
10
167.139
20
-97.9382
11
167.22
21
-97.884
0
LINE
8
BLACK
6
CONTINUOUS
10
167.22
20
-97.884
11
167.316
21
-97.865
0
LINE
8
BLACK
6
CONTINUOUS
10
167.316
20
-97.865
11
168.016
21
-97.865
0
LINE
8
BLACK
6
CONTINUOUS
10
168.016
20
-97.865
11
168.112
21
-97.884
0
LINE
8
BLACK
6
CONTINUOUS
10
159.223
20
-97.9814
11
159.272
21
-98.0139
0
LINE
8
BLACK
6
CONTINUOUS
10
159.272
20
-98.0139
11
159.305
21
-98.0626
0
LINE
8
BLACK
6
CONTINUOUS
10
159.305
20
-98.0626
11
159.316
21
-98.12
0
LINE
8
BLACK
6
CONTINUOUS
10
159.316
20
-98.12
11
159.316
21
-98.42
0
LINE
8
BLACK
6
CONTINUOUS
10
159.316
20
-98.42
11
159.305
21
-98.4774
0
LINE
8
BLACK
6
CONTINUOUS
10
159.305
20
-98.4774
11
159.272
21
-98.5261
0
LINE
8
BLACK
6
CONTINUOUS
10
159.272
20
-98.5261
11
159.223
21
-98.5586
0
LINE
8
BLACK
6
CONTINUOUS
10
159.223
20
-98.5586
11
159.166
21
-98.57
0
LINE
8
BLACK
6
CONTINUOUS
10
159.166
20
-98.57
11
157.516
21
-98.57
0
LINE
8
BLACK
6
CONTINUOUS
10
157.516
20
-98.57
11
157.459
21
-98.5586
0
LINE
8
BLACK
6
CONTINUOUS
10
157.459
20
-98.5586
11
157.41
21
-98.5261
0
LINE
8
BLACK
6
CONTINUOUS
10
157.41
20
-98.5261
11
157.377
21
-98.4774
0
LINE
8
BLACK
6
CONTINUOUS
10
157.377
20
-98.4774
11
157.366
21
-98.42
0
LINE
8
BLACK
6
CONTINUOUS
10
157.366
20
-98.42
11
157.366
21
-98.12
0
LINE
8
BLACK
6
CONTINUOUS
10
157.366
20
-98.12
11
157.377
21
-98.0626
0
LINE
8
BLACK
6
CONTINUOUS
10
157.377
20
-98.0626
11
157.41
21
-98.0139
0
LINE
8
BLACK
6
CONTINUOUS
10
157.41
20
-98.0139
11
157.459
21
-97.9814
0
LINE
8
BLACK
6
CONTINUOUS
10
157.459
20
-97.9814
11
157.516
21
-97.97
0
LINE
8
BLACK
6
CONTINUOUS
10
157.516
20
-97.97
11
159.166
21
-97.97
0
LINE
8
BLACK
6
CONTINUOUS
10
159.166
20
-97.97
11
159.223
21
-97.9814
0
LINE
8
BLACK
6
CONTINUOUS
10
164.173
20
-97.9814
11
164.222
21
-98.0139
0
LINE
8
BLACK
6
CONTINUOUS
10
164.222
20
-98.0139
11
164.255
21
-98.0626
0
LINE
8
BLACK
6
CONTINUOUS
10
164.255
20
-98.0626
11
164.266
21
-98.12
0
LINE
8
BLACK
6
CONTINUOUS
10
164.266
20
-98.12
11
164.266
21
-98.42
0
LINE
8
BLACK
6
CONTINUOUS
10
164.266
20
-98.42
11
164.255
21
-98.4774
0
LINE
8
BLACK
6
CONTINUOUS
10
164.255
20
-98.4774
11
164.222
21
-98.5261
0
LINE
8
BLACK
6
CONTINUOUS
10
164.222
20
-98.5261
11
164.173
21
-98.5586
0
LINE
8
BLACK
6
CONTINUOUS
10
164.173
20
-98.5586
11
164.116
21
-98.57
0
LINE
8
BLACK
6
CONTINUOUS
10
164.116
20
-98.57
11
162.466
21
-98.57
0
LINE
8
BLACK
6
CONTINUOUS
10
162.466
20
-98.57
11
162.409
21
-98.5586
0
LINE
8
BLACK
6
CONTINUOUS
10
162.409
20
-98.5586
11
162.36
21
-98.5261
0
LINE
8
BLACK
6
CONTINUOUS
10
162.36
20
-98.5261
11
162.327
21
-98.4774
0
LINE
8
BLACK
6
CONTINUOUS
10
162.327
20
-98.4774
11
162.316
21
-98.42
0
LINE
8
BLACK
6
CONTINUOUS
10
162.316
20
-98.42
11
162.316
21
-98.12
0
LINE
8
BLACK
6
CONTINUOUS
10
162.316
20
-98.12
11
162.327
21
-98.0626
0
LINE
8
BLACK
6
CONTINUOUS
10
162.327
20
-98.0626
11
162.36
21
-98.0139
0
LINE
8
BLACK
6
CONTINUOUS
10
162.36
20
-98.0139
11
162.409
21
-97.9814
0
LINE
8
BLACK
6
CONTINUOUS
10
162.409
20
-97.9814
11
162.466
21
-97.97
0
LINE
8
BLACK
6
CONTINUOUS
10
162.466
20
-97.97
11
164.116
21
-97.97
0
LINE
8
BLACK
6
CONTINUOUS
10
164.116
20
-97.97
11
164.173
21
-97.9814
0
LINE
8
BLACK
6
CONTINUOUS
10
154.312
20
-97.084
11
154.393
21
-97.1382
0
LINE
8
BLACK
6
CONTINUOUS
10
154.393
20
-97.1382
11
154.447
21
-97.2193
0
LINE
8
BLACK
6
CONTINUOUS
10
154.447
20
-97.2193
11
154.466
21
-97.315
0
LINE
8
BLACK
6
CONTINUOUS
10
154.466
20
-97.315
11
154.466
21
-98.215
0
LINE
8
BLACK
6
CONTINUOUS
10
154.466
20
-98.215
11
154.447
21
-98.3107
0
LINE
8
BLACK
6
CONTINUOUS
10
154.447
20
-98.3107
11
154.393
21
-98.3918
0
LINE
8
BLACK
6
CONTINUOUS
10
154.393
20
-98.3918
11
154.312
21
-98.446
0
LINE
8
BLACK
6
CONTINUOUS
10
154.312
20
-98.446
11
154.216
21
-98.465
0
LINE
8
BLACK
6
CONTINUOUS
10
154.216
20
-98.465
11
153.516
21
-98.465
0
LINE
8
BLACK
6
CONTINUOUS
10
153.516
20
-98.465
11
153.42
21
-98.446
0
LINE
8
BLACK
6
CONTINUOUS
10
153.42
20
-98.446
11
153.339
21
-98.3918
0
LINE
8
BLACK
6
CONTINUOUS
10
153.339
20
-98.3918
11
153.285
21
-98.3107
0
LINE
8
BLACK
6
CONTINUOUS
10
153.285
20
-98.3107
11
153.266
21
-98.215
0
LINE
8
BLACK
6
CONTINUOUS
10
153.266
20
-98.215
11
153.266
21
-97.315
0
LINE
8
BLACK
6
CONTINUOUS
10
153.266
20
-97.315
11
153.285
21
-97.2193
0
LINE
8
BLACK
6
CONTINUOUS
10
153.285
20
-97.2193
11
153.339
21
-97.1382
0
LINE
8
BLACK
6
CONTINUOUS
10
153.339
20
-97.1382
11
153.42
21
-97.084
0
LINE
8
BLACK
6
CONTINUOUS
10
153.42
20
-97.084
11
153.516
21
-97.065
0
LINE
8
BLACK
6
CONTINUOUS
10
153.516
20
-97.065
11
154.216
21
-97.065
0
LINE
8
BLACK
6
CONTINUOUS
10
154.216
20
-97.065
11
154.312
21
-97.084
0
LINE
8
BLACK
6
CONTINUOUS
10
156.312
20
-97.084
11
156.393
21
-97.1382
0
LINE
8
BLACK
6
CONTINUOUS
10
156.393
20
-97.1382
11
156.447
21
-97.2193
0
LINE
8
BLACK
6
CONTINUOUS
10
156.447
20
-97.2193
11
156.466
21
-97.315
0
LINE
8
BLACK
6
CONTINUOUS
10
156.466
20
-97.315
11
156.466
21
-98.215
0
LINE
8
BLACK
6
CONTINUOUS
10
156.466
20
-98.215
11
156.447
21
-98.3107
0
LINE
8
BLACK
6
CONTINUOUS
10
156.447
20
-98.3107
11
156.393
21
-98.3918
0
LINE
8
BLACK
6
CONTINUOUS
10
156.393
20
-98.3918
11
156.312
21
-98.446
0
LINE
8
BLACK
6
CONTINUOUS
10
156.312
20
-98.446
11
156.216
21
-98.465
0
LINE
8
BLACK
6
CONTINUOUS
10
156.216
20
-98.465
11
155.516
21
-98.465
0
LINE
8
BLACK
6
CONTINUOUS
10
155.516
20
-98.465
11
155.42
21
-98.446
0
LINE
8
BLACK
6
CONTINUOUS
10
155.42
20
-98.446
11
155.339
21
-98.3918
0
LINE
8
BLACK
6
CONTINUOUS
10
155.339
20
-98.3918
11
155.285
21
-98.3107
0
LINE
8
BLACK
6
CONTINUOUS
10
155.285
20
-98.3107
11
155.266
21
-98.215
0
LINE
8
BLACK
6
CONTINUOUS
10
155.266
20
-98.215
11
155.266
21
-97.315
0
LINE
8
BLACK
6
CONTINUOUS
10
155.266
20
-97.315
11
155.285
21
-97.2193
0
LINE
8
BLACK
6
CONTINUOUS
10
155.285
20
-97.2193
11
155.339
21
-97.1382
0
LINE
8
BLACK
6
CONTINUOUS
10
155.339
20
-97.1382
11
155.42
21
-97.084
0
LINE
8
BLACK
6
CONTINUOUS
10
155.42
20
-97.084
11
155.516
21
-97.065
0
LINE
8
BLACK
6
CONTINUOUS
10
155.516
20
-97.065
11
156.216
21
-97.065
0
LINE
8
BLACK
6
CONTINUOUS
10
156.216
20
-97.065
11
156.312
21
-97.084
0
LINE
8
BLACK
6
CONTINUOUS
10
143.256
20
-96.619
11
143.337
21
-96.6732
0
LINE
8
BLACK
6
CONTINUOUS
10
143.337
20
-96.6732
11
143.391
21
-96.7543
0
LINE
8
BLACK
6
CONTINUOUS
10
143.391
20
-96.7543
11
143.41
21
-96.85
0
LINE
8
BLACK
6
CONTINUOUS
10
143.41
20
-96.85
11
143.41
21
-97.75
0
LINE
8
BLACK
6
CONTINUOUS
10
143.41
20
-97.75
11
143.391
21
-97.8457
0
LINE
8
BLACK
6
CONTINUOUS
10
143.391
20
-97.8457
11
143.337
21
-97.9268
0
LINE
8
BLACK
6
CONTINUOUS
10
143.337
20
-97.9268
11
143.256
21
-97.981
0
LINE
8
BLACK
6
CONTINUOUS
10
143.256
20
-97.981
11
143.16
21
-98
0
LINE
8
BLACK
6
CONTINUOUS
10
143.16
20
-98
11
142.46
21
-98
0
LINE
8
BLACK
6
CONTINUOUS
10
142.46
20
-98
11
142.364
21
-97.981
0
LINE
8
BLACK
6
CONTINUOUS
10
142.364
20
-97.981
11
142.283
21
-97.9268
0
LINE
8
BLACK
6
CONTINUOUS
10
142.283
20
-97.9268
11
142.229
21
-97.8457
0
LINE
8
BLACK
6
CONTINUOUS
10
142.229
20
-97.8457
11
142.21
21
-97.75
0
LINE
8
BLACK
6
CONTINUOUS
10
142.21
20
-97.75
11
142.21
21
-96.85
0
LINE
8
BLACK
6
CONTINUOUS
10
142.21
20
-96.85
11
142.229
21
-96.7543
0
LINE
8
BLACK
6
CONTINUOUS
10
142.229
20
-96.7543
11
142.283
21
-96.6732
0
LINE
8
BLACK
6
CONTINUOUS
10
142.283
20
-96.6732
11
142.364
21
-96.619
0
LINE
8
BLACK
6
CONTINUOUS
10
142.364
20
-96.619
11
142.46
21
-96.6
0
LINE
8
BLACK
6
CONTINUOUS
10
142.46
20
-96.6
11
143.16
21
-96.6
0
LINE
8
BLACK
6
CONTINUOUS
10
143.16
20
-96.6
11
143.256
21
-96.619
0
LINE
8
BLACK
6
CONTINUOUS
10
145.256
20
-96.619
11
145.337
21
-96.6732
0
LINE
8
BLACK
6
CONTINUOUS
10
145.337
20
-96.6732
11
145.391
21
-96.7543
0
LINE
8
BLACK
6
CONTINUOUS
10
145.391
20
-96.7543
11
145.41
21
-96.85
0
LINE
8
BLACK
6
CONTINUOUS
10
145.41
20
-96.85
11
145.41
21
-97.75
0
LINE
8
BLACK
6
CONTINUOUS
10
145.41
20
-97.75
11
145.391
21
-97.8457
0
LINE
8
BLACK
6
CONTINUOUS
10
145.391
20
-97.8457
11
145.337
21
-97.9268
0
LINE
8
BLACK
6
CONTINUOUS
10
145.337
20
-97.9268
11
145.256
21
-97.981
0
LINE
8
BLACK
6
CONTINUOUS
10
145.256
20
-97.981
11
145.16
21
-98
0
LINE
8
BLACK
6
CONTINUOUS
10
145.16
20
-98
11
144.46
21
-98
0
LINE
8
BLACK
6
CONTINUOUS
10
144.46
20
-98
11
144.364
21
-97.981
0
LINE
8
BLACK
6
CONTINUOUS
10
144.364
20
-97.981
11
144.283
21
-97.9268
0
LINE
8
BLACK
6
CONTINUOUS
10
144.283
20
-97.9268
11
144.229
21
-97.8457
0
LINE
8
BLACK
6
CONTINUOUS
10
144.229
20
-97.8457
11
144.21
21
-97.75
0
LINE
8
BLACK
6
CONTINUOUS
10
144.21
20
-97.75
11
144.21
21
-96.85
0
LINE
8
BLACK
6
CONTINUOUS
10
144.21
20
-96.85
11
144.229
21
-96.7543
0
LINE
8
BLACK
6
CONTINUOUS
10
144.229
20
-96.7543
11
144.283
21
-96.6732
0
LINE
8
BLACK
6
CONTINUOUS
10
144.283
20
-96.6732
11
144.364
21
-96.619
0
LINE
8
BLACK
6
CONTINUOUS
10
144.364
20
-96.619
11
144.46
21
-96.6
0
LINE
8
BLACK
6
CONTINUOUS
10
144.46
20
-96.6
11
145.16
21
-96.6
0
LINE
8
BLACK
6
CONTINUOUS
10
145.16
20
-96.6
11
145.256
21
-96.619
0
LINE
8
BLACK
6
CONTINUOUS
10
147.381
20
-96.594
11
147.462
21
-96.6482
0
LINE
8
BLACK
6
CONTINUOUS
10
147.462
20
-96.6482
11
147.516
21
-96.7293
0
LINE
8
BLACK
6
CONTINUOUS
10
147.516
20
-96.7293
11
147.535
21
-96.825
0
LINE
8
BLACK
6
CONTINUOUS
10
147.535
20
-96.825
11
147.535
21
-97.5
0
LINE
8
BLACK
6
CONTINUOUS
10
147.535
20
-97.5
11
147.516
21
-97.5957
0
LINE
8
BLACK
6
CONTINUOUS
10
147.516
20
-97.5957
11
147.462
21
-97.6768
0
LINE
8
BLACK
6
CONTINUOUS
10
147.462
20
-97.6768
11
147.381
21
-97.731
0
LINE
8
BLACK
6
CONTINUOUS
10
147.381
20
-97.731
11
147.285
21
-97.75
0
LINE
8
BLACK
6
CONTINUOUS
10
147.285
20
-97.75
11
146.335
21
-97.75
0
LINE
8
BLACK
6
CONTINUOUS
10
146.335
20
-97.75
11
146.239
21
-97.731
0
LINE
8
BLACK
6
CONTINUOUS
10
146.239
20
-97.731
11
146.158
21
-97.6768
0
LINE
8
BLACK
6
CONTINUOUS
10
146.158
20
-97.6768
11
146.104
21
-97.5957
0
LINE
8
BLACK
6
CONTINUOUS
10
146.104
20
-97.5957
11
146.085
21
-97.5
0
LINE
8
BLACK
6
CONTINUOUS
10
146.085
20
-97.5
11
146.085
21
-96.825
0
LINE
8
BLACK
6
CONTINUOUS
10
146.085
20
-96.825
11
146.104
21
-96.7293
0
LINE
8
BLACK
6
CONTINUOUS
10
146.104
20
-96.7293
11
146.158
21
-96.6482
0
LINE
8
BLACK
6
CONTINUOUS
10
146.158
20
-96.6482
11
146.239
21
-96.594
0
LINE
8
BLACK
6
CONTINUOUS
10
146.239
20
-96.594
11
146.335
21
-96.575
0
LINE
8
BLACK
6
CONTINUOUS
10
146.335
20
-96.575
11
147.285
21
-96.575
0
LINE
8
BLACK
6
CONTINUOUS
10
147.285
20
-96.575
11
147.381
21
-96.594
0
LINE
8
BLACK
6
CONTINUOUS
10
149.481
20
-96.494
11
149.562
21
-96.5482
0
LINE
8
BLACK
6
CONTINUOUS
10
149.562
20
-96.5482
11
149.616
21
-96.6293
0
LINE
8
BLACK
6
CONTINUOUS
10
149.616
20
-96.6293
11
149.635
21
-96.725
0
LINE
8
BLACK
6
CONTINUOUS
10
149.635
20
-96.725
11
149.635
21
-97.4
0
LINE
8
BLACK
6
CONTINUOUS
10
149.635
20
-97.4
11
149.616
21
-97.4957
0
LINE
8
BLACK
6
CONTINUOUS
10
149.616
20
-97.4957
11
149.562
21
-97.5768
0
LINE
8
BLACK
6
CONTINUOUS
10
149.562
20
-97.5768
11
149.481
21
-97.631
0
LINE
8
BLACK
6
CONTINUOUS
10
149.481
20
-97.631
11
149.385
21
-97.65
0
LINE
8
BLACK
6
CONTINUOUS
10
149.385
20
-97.65
11
148.435
21
-97.65
0
LINE
8
BLACK
6
CONTINUOUS
10
148.435
20
-97.65
11
148.339
21
-97.631
0
LINE
8
BLACK
6
CONTINUOUS
10
148.339
20
-97.631
11
148.258
21
-97.5768
0
LINE
8
BLACK
6
CONTINUOUS
10
148.258
20
-97.5768
11
148.204
21
-97.4957
0
LINE
8
BLACK
6
CONTINUOUS
10
148.204
20
-97.4957
11
148.185
21
-97.4
0
LINE
8
BLACK
6
CONTINUOUS
10
148.185
20
-97.4
11
148.185
21
-96.725
0
LINE
8
BLACK
6
CONTINUOUS
10
148.185
20
-96.725
11
148.204
21
-96.6293
0
LINE
8
BLACK
6
CONTINUOUS
10
148.204
20
-96.6293
11
148.258
21
-96.5482
0
LINE
8
BLACK
6
CONTINUOUS
10
148.258
20
-96.5482
11
148.339
21
-96.494
0
LINE
8
BLACK
6
CONTINUOUS
10
148.339
20
-96.494
11
148.435
21
-96.475
0
LINE
8
BLACK
6
CONTINUOUS
10
148.435
20
-96.475
11
149.385
21
-96.475
0
LINE
8
BLACK
6
CONTINUOUS
10
149.385
20
-96.475
11
149.481
21
-96.494
0
LINE
8
BLACK
6
CONTINUOUS
10
159.223
20
-96.7114
11
159.272
21
-96.7439
0
LINE
8
BLACK
6
CONTINUOUS
10
159.272
20
-96.7439
11
159.305
21
-96.7926
0
LINE
8
BLACK
6
CONTINUOUS
10
159.305
20
-96.7926
11
159.316
21
-96.85
0
LINE
8
BLACK
6
CONTINUOUS
10
159.316
20
-96.85
11
159.316
21
-97.15
0
LINE
8
BLACK
6
CONTINUOUS
10
159.316
20
-97.15
11
159.305
21
-97.2074
0
LINE
8
BLACK
6
CONTINUOUS
10
159.305
20
-97.2074
11
159.272
21
-97.2561
0
LINE
8
BLACK
6
CONTINUOUS
10
159.272
20
-97.2561
11
159.223
21
-97.2886
0
LINE
8
BLACK
6
CONTINUOUS
10
159.223
20
-97.2886
11
159.166
21
-97.3
0
LINE
8
BLACK
6
CONTINUOUS
10
159.166
20
-97.3
11
157.516
21
-97.3
0
LINE
8
BLACK
6
CONTINUOUS
10
157.516
20
-97.3
11
157.459
21
-97.2886
0
LINE
8
BLACK
6
CONTINUOUS
10
157.459
20
-97.2886
11
157.41
21
-97.2561
0
LINE
8
BLACK
6
CONTINUOUS
10
157.41
20
-97.2561
11
157.377
21
-97.2074
0
LINE
8
BLACK
6
CONTINUOUS
10
157.377
20
-97.2074
11
157.366
21
-97.15
0
LINE
8
BLACK
6
CONTINUOUS
10
157.366
20
-97.15
11
157.366
21
-96.85
0
LINE
8
BLACK
6
CONTINUOUS
10
157.366
20
-96.85
11
157.377
21
-96.7926
0
LINE
8
BLACK
6
CONTINUOUS
10
157.377
20
-96.7926
11
157.41
21
-96.7439
0
LINE
8
BLACK
6
CONTINUOUS
10
157.41
20
-96.7439
11
157.459
21
-96.7114
0
LINE
8
BLACK
6
CONTINUOUS
10
157.459
20
-96.7114
11
157.516
21
-96.7
0
LINE
8
BLACK
6
CONTINUOUS
10
157.516
20
-96.7
11
159.166
21
-96.7
0
LINE
8
BLACK
6
CONTINUOUS
10
159.166
20
-96.7
11
159.223
21
-96.7114
0
LINE
8
BLACK
6
CONTINUOUS
10
164.173
20
-96.7114
11
164.222
21
-96.7439
0
LINE
8
BLACK
6
CONTINUOUS
10
164.222
20
-96.7439
11
164.255
21
-96.7926
0
LINE
8
BLACK
6
CONTINUOUS
10
164.255
20
-96.7926
11
164.266
21
-96.85
0
LINE
8
BLACK
6
CONTINUOUS
10
164.266
20
-96.85
11
164.266
21
-97.15
0
LINE
8
BLACK
6
CONTINUOUS
10
164.266
20
-97.15
11
164.255
21
-97.2074
0
LINE
8
BLACK
6
CONTINUOUS
10
164.255
20
-97.2074
11
164.222
21
-97.2561
0
LINE
8
BLACK
6
CONTINUOUS
10
164.222
20
-97.2561
11
164.173
21
-97.2886
0
LINE
8
BLACK
6
CONTINUOUS
10
164.173
20
-97.2886
11
164.116
21
-97.3
0
LINE
8
BLACK
6
CONTINUOUS
10
164.116
20
-97.3
11
162.466
21
-97.3
0
LINE
8
BLACK
6
CONTINUOUS
10
162.466
20
-97.3
11
162.409
21
-97.2886
0
LINE
8
BLACK
6
CONTINUOUS
10
162.409
20
-97.2886
11
162.36
21
-97.2561
0
LINE
8
BLACK
6
CONTINUOUS
10
162.36
20
-97.2561
11
162.327
21
-97.2074
0
LINE
8
BLACK
6
CONTINUOUS
10
162.327
20
-97.2074
11
162.316
21
-97.15
0
LINE
8
BLACK
6
CONTINUOUS
10
162.316
20
-97.15
11
162.316
21
-96.85
0
LINE
8
BLACK
6
CONTINUOUS
10
162.316
20
-96.85
11
162.327
21
-96.7926
0
LINE
8
BLACK
6
CONTINUOUS
10
162.327
20
-96.7926
11
162.36
21
-96.7439
0
LINE
8
BLACK
6
CONTINUOUS
10
162.36
20
-96.7439
11
162.409
21
-96.7114
0
LINE
8
BLACK
6
CONTINUOUS
10
162.409
20
-96.7114
11
162.466
21
-96.7
0
LINE
8
BLACK
6
CONTINUOUS
10
162.466
20
-96.7
11
164.116
21
-96.7
0
LINE
8
BLACK
6
CONTINUOUS
10
164.116
20
-96.7
11
164.173
21
-96.7114
0
LINE
8
BLACK
6
CONTINUOUS
10
168.337
20
-96.034
11
168.418
21
-96.0882
0
LINE
8
BLACK
6
CONTINUOUS
10
168.418
20
-96.0882
11
168.472
21
-96.1693
0
LINE
8
BLACK
6
CONTINUOUS
10
168.472
20
-96.1693
11
168.491
21
-96.265
0
LINE
8
BLACK
6
CONTINUOUS
10
168.491
20
-96.265
11
168.491
21
-96.94
0
LINE
8
BLACK
6
CONTINUOUS
10
168.491
20
-96.94
11
168.472
21
-97.0357
0
LINE
8
BLACK
6
CONTINUOUS
10
168.472
20
-97.0357
11
168.418
21
-97.1168
0
LINE
8
BLACK
6
CONTINUOUS
10
168.418
20
-97.1168
11
168.337
21
-97.171
0
LINE
8
BLACK
6
CONTINUOUS
10
168.337
20
-97.171
11
168.241
21
-97.19
0
LINE
8
BLACK
6
CONTINUOUS
10
168.241
20
-97.19
11
167.291
21
-97.19
0
LINE
8
BLACK
6
CONTINUOUS
10
167.291
20
-97.19
11
167.195
21
-97.171
0
LINE
8
BLACK
6
CONTINUOUS
10
167.195
20
-97.171
11
167.114
21
-97.1168
0
LINE
8
BLACK
6
CONTINUOUS
10
167.114
20
-97.1168
11
167.06
21
-97.0357
0
LINE
8
BLACK
6
CONTINUOUS
10
167.06
20
-97.0357
11
167.041
21
-96.94
0
LINE
8
BLACK
6
CONTINUOUS
10
167.041
20
-96.94
11
167.041
21
-96.265
0
LINE
8
BLACK
6
CONTINUOUS
10
167.041
20
-96.265
11
167.06
21
-96.1693
0
LINE
8
BLACK
6
CONTINUOUS
10
167.06
20
-96.1693
11
167.114
21
-96.0882
0
LINE
8
BLACK
6
CONTINUOUS
10
167.114
20
-96.0882
11
167.195
21
-96.034
0
LINE
8
BLACK
6
CONTINUOUS
10
167.195
20
-96.034
11
167.291
21
-96.015
0
LINE
8
BLACK
6
CONTINUOUS
10
167.291
20
-96.015
11
168.241
21
-96.015
0
LINE
8
BLACK
6
CONTINUOUS
10
168.241
20
-96.015
11
168.337
21
-96.034
0
LINE
8
BLACK
6
CONTINUOUS
10
166.212
20
-95.984
11
166.293
21
-96.0382
0
LINE
8
BLACK
6
CONTINUOUS
10
166.293
20
-96.0382
11
166.347
21
-96.1193
0
LINE
8
BLACK
6
CONTINUOUS
10
166.347
20
-96.1193
11
166.366
21
-96.215
0
LINE
8
BLACK
6
CONTINUOUS
10
166.366
20
-96.215
11
166.366
21
-96.915
0
LINE
8
BLACK
6
CONTINUOUS
10
166.366
20
-96.915
11
166.347
21
-97.0107
0
LINE
8
BLACK
6
CONTINUOUS
10
166.347
20
-97.0107
11
166.293
21
-97.0918
0
LINE
8
BLACK
6
CONTINUOUS
10
166.293
20
-97.0918
11
166.212
21
-97.146
0
LINE
8
BLACK
6
CONTINUOUS
10
166.212
20
-97.146
11
166.116
21
-97.165
0
LINE
8
BLACK
6
CONTINUOUS
10
166.116
20
-97.165
11
165.216
21
-97.165
0
LINE
8
BLACK
6
CONTINUOUS
10
165.216
20
-97.165
11
165.12
21
-97.146
0
LINE
8
BLACK
6
CONTINUOUS
10
165.12
20
-97.146
11
165.039
21
-97.0918
0
LINE
8
BLACK
6
CONTINUOUS
10
165.039
20
-97.0918
11
164.985
21
-97.0107
0
LINE
8
BLACK
6
CONTINUOUS
10
164.985
20
-97.0107
11
164.966
21
-96.915
0
LINE
8
BLACK
6
CONTINUOUS
10
164.966
20
-96.915
11
164.966
21
-96.215
0
LINE
8
BLACK
6
CONTINUOUS
10
164.966
20
-96.215
11
164.985
21
-96.1193
0
LINE
8
BLACK
6
CONTINUOUS
10
164.985
20
-96.1193
11
165.039
21
-96.0382
0
LINE
8
BLACK
6
CONTINUOUS
10
165.039
20
-96.0382
11
165.12
21
-95.984
0
LINE
8
BLACK
6
CONTINUOUS
10
165.12
20
-95.984
11
165.216
21
-95.965
0
LINE
8
BLACK
6
CONTINUOUS
10
165.216
20
-95.965
11
166.116
21
-95.965
0
LINE
8
BLACK
6
CONTINUOUS
10
166.116
20
-95.965
11
166.212
21
-95.984
0
LINE
8
BLACK
6
CONTINUOUS
10
154.312
20
-95.084
11
154.393
21
-95.1382
0
LINE
8
BLACK
6
CONTINUOUS
10
154.393
20
-95.1382
11
154.447
21
-95.2193
0
LINE
8
BLACK
6
CONTINUOUS
10
154.447
20
-95.2193
11
154.466
21
-95.315
0
LINE
8
BLACK
6
CONTINUOUS
10
154.466
20
-95.315
11
154.466
21
-96.215
0
LINE
8
BLACK
6
CONTINUOUS
10
154.466
20
-96.215
11
154.447
21
-96.3107
0
LINE
8
BLACK
6
CONTINUOUS
10
154.447
20
-96.3107
11
154.393
21
-96.3918
0
LINE
8
BLACK
6
CONTINUOUS
10
154.393
20
-96.3918
11
154.312
21
-96.446
0
LINE
8
BLACK
6
CONTINUOUS
10
154.312
20
-96.446
11
154.216
21
-96.465
0
LINE
8
BLACK
6
CONTINUOUS
10
154.216
20
-96.465
11
153.516
21
-96.465
0
LINE
8
BLACK
6
CONTINUOUS
10
153.516
20
-96.465
11
153.42
21
-96.446
0
LINE
8
BLACK
6
CONTINUOUS
10
153.42
20
-96.446
11
153.339
21
-96.3918
0
LINE
8
BLACK
6
CONTINUOUS
10
153.339
20
-96.3918
11
153.285
21
-96.3107
0
LINE
8
BLACK
6
CONTINUOUS
10
153.285
20
-96.3107
11
153.266
21
-96.215
0
LINE
8
BLACK
6
CONTINUOUS
10
153.266
20
-96.215
11
153.266
21
-95.315
0
LINE
8
BLACK
6
CONTINUOUS
10
153.266
20
-95.315
11
153.285
21
-95.2193
0
LINE
8
BLACK
6
CONTINUOUS
10
153.285
20
-95.2193
11
153.339
21
-95.1382
0
LINE
8
BLACK
6
CONTINUOUS
10
153.339
20
-95.1382
11
153.42
21
-95.084
0
LINE
8
BLACK
6
CONTINUOUS
10
153.42
20
-95.084
11
153.516
21
-95.065
0
LINE
8
BLACK
6
CONTINUOUS
10
153.516
20
-95.065
11
154.216
21
-95.065
0
LINE
8
BLACK
6
CONTINUOUS
10
154.216
20
-95.065
11
154.312
21
-95.084
0
LINE
8
BLACK
6
CONTINUOUS
10
156.312
20
-95.084
11
156.393
21
-95.1382
0
LINE
8
BLACK
6
CONTINUOUS
10
156.393
20
-95.1382
11
156.447
21
-95.2193
0
LINE
8
BLACK
6
CONTINUOUS
10
156.447
20
-95.2193
11
156.466
21
-95.315
0
LINE
8
BLACK
6
CONTINUOUS
10
156.466
20
-95.315
11
156.466
21
-96.215
0
LINE
8
BLACK
6
CONTINUOUS
10
156.466
20
-96.215
11
156.447
21
-96.3107
0
LINE
8
BLACK
6
CONTINUOUS
10
156.447
20
-96.3107
11
156.393
21
-96.3918
0
LINE
8
BLACK
6
CONTINUOUS
10
156.393
20
-96.3918
11
156.312
21
-96.446
0
LINE
8
BLACK
6
CONTINUOUS
10
156.312
20
-96.446
11
156.216
21
-96.465
0
LINE
8
BLACK
6
CONTINUOUS
10
156.216
20
-96.465
11
155.516
21
-96.465
0
LINE
8
BLACK
6
CONTINUOUS
10
155.516
20
-96.465
11
155.42
21
-96.446
0
LINE
8
BLACK
6
CONTINUOUS
10
155.42
20
-96.446
11
155.339
21
-96.3918
0
LINE
8
BLACK
6
CONTINUOUS
10
155.339
20
-96.3918
11
155.285
21
-96.3107
0
LINE
8
BLACK
6
CONTINUOUS
10
155.285
20
-96.3107
11
155.266
21
-96.215
0
LINE
8
BLACK
6
CONTINUOUS
10
155.266
20
-96.215
11
155.266
21
-95.315
0
LINE
8
BLACK
6
CONTINUOUS
10
155.266
20
-95.315
11
155.285
21
-95.2193
0
LINE
8
BLACK
6
CONTINUOUS
10
155.285
20
-95.2193
11
155.339
21
-95.1382
0
LINE
8
BLACK
6
CONTINUOUS
10
155.339
20
-95.1382
11
155.42
21
-95.084
0
LINE
8
BLACK
6
CONTINUOUS
10
155.42
20
-95.084
11
155.516
21
-95.065
0
LINE
8
BLACK
6
CONTINUOUS
10
155.516
20
-95.065
11
156.216
21
-95.065
0
LINE
8
BLACK
6
CONTINUOUS
10
156.216
20
-95.065
11
156.312
21
-95.084
0
LINE
8
BLACK
6
CONTINUOUS
10
152.437
20
-95.2715
11
152.518
21
-95.3257
0
LINE
8
BLACK
6
CONTINUOUS
10
152.518
20
-95.3257
11
152.572
21
-95.4068
0
LINE
8
BLACK
6
CONTINUOUS
10
152.572
20
-95.4068
11
152.591
21
-95.5025
0
LINE
8
BLACK
6
CONTINUOUS
10
152.591
20
-95.5025
11
152.591
21
-96.1775
0
LINE
8
BLACK
6
CONTINUOUS
10
152.591
20
-96.1775
11
152.572
21
-96.2732
0
LINE
8
BLACK
6
CONTINUOUS
10
152.572
20
-96.2732
11
152.518
21
-96.3543
0
LINE
8
BLACK
6
CONTINUOUS
10
152.518
20
-96.3543
11
152.437
21
-96.4085
0
LINE
8
BLACK
6
CONTINUOUS
10
152.437
20
-96.4085
11
152.341
21
-96.4275
0
LINE
8
BLACK
6
CONTINUOUS
10
152.341
20
-96.4275
11
151.391
21
-96.4275
0
LINE
8
BLACK
6
CONTINUOUS
10
151.391
20
-96.4275
11
151.295
21
-96.4085
0
LINE
8
BLACK
6
CONTINUOUS
10
151.295
20
-96.4085
11
151.214
21
-96.3543
0
LINE
8
BLACK
6
CONTINUOUS
10
151.214
20
-96.3543
11
151.16
21
-96.2732
0
LINE
8
BLACK
6
CONTINUOUS
10
151.16
20
-96.2732
11
151.141
21
-96.1775
0
LINE
8
BLACK
6
CONTINUOUS
10
151.141
20
-96.1775
11
151.141
21
-95.5025
0
LINE
8
BLACK
6
CONTINUOUS
10
151.141
20
-95.5025
11
151.16
21
-95.4068
0
LINE
8
BLACK
6
CONTINUOUS
10
151.16
20
-95.4068
11
151.214
21
-95.3257
0
LINE
8
BLACK
6
CONTINUOUS
10
151.214
20
-95.3257
11
151.295
21
-95.2715
0
LINE
8
BLACK
6
CONTINUOUS
10
151.295
20
-95.2715
11
151.391
21
-95.2525
0
LINE
8
BLACK
6
CONTINUOUS
10
151.391
20
-95.2525
11
152.341
21
-95.2525
0
LINE
8
BLACK
6
CONTINUOUS
10
152.341
20
-95.2525
11
152.437
21
-95.2715
0
LINE
8
BLACK
6
CONTINUOUS
10
159.223
20
-95.4414
11
159.272
21
-95.4739
0
LINE
8
BLACK
6
CONTINUOUS
10
159.272
20
-95.4739
11
159.305
21
-95.5226
0
LINE
8
BLACK
6
CONTINUOUS
10
159.305
20
-95.5226
11
159.316
21
-95.58
0
LINE
8
BLACK
6
CONTINUOUS
10
159.316
20
-95.58
11
159.316
21
-95.88
0
LINE
8
BLACK
6
CONTINUOUS
10
159.316
20
-95.88
11
159.305
21
-95.9374
0
LINE
8
BLACK
6
CONTINUOUS
10
159.305
20
-95.9374
11
159.272
21
-95.9861
0
LINE
8
BLACK
6
CONTINUOUS
10
159.272
20
-95.9861
11
159.223
21
-96.0186
0
LINE
8
BLACK
6
CONTINUOUS
10
159.223
20
-96.0186
11
159.166
21
-96.03
0
LINE
8
BLACK
6
CONTINUOUS
10
159.166
20
-96.03
11
157.516
21
-96.03
0
LINE
8
BLACK
6
CONTINUOUS
10
157.516
20
-96.03
11
157.459
21
-96.0186
0
LINE
8
BLACK
6
CONTINUOUS
10
157.459
20
-96.0186
11
157.41
21
-95.9861
0
LINE
8
BLACK
6
CONTINUOUS
10
157.41
20
-95.9861
11
157.377
21
-95.9374
0
LINE
8
BLACK
6
CONTINUOUS
10
157.377
20
-95.9374
11
157.366
21
-95.88
0
LINE
8
BLACK
6
CONTINUOUS
10
157.366
20
-95.88
11
157.366
21
-95.58
0
LINE
8
BLACK
6
CONTINUOUS
10
157.366
20
-95.58
11
157.377
21
-95.5226
0
LINE
8
BLACK
6
CONTINUOUS
10
157.377
20
-95.5226
11
157.41
21
-95.4739
0
LINE
8
BLACK
6
CONTINUOUS
10
157.41
20
-95.4739
11
157.459
21
-95.4414
0
LINE
8
BLACK
6
CONTINUOUS
10
157.459
20
-95.4414
11
157.516
21
-95.43
0
LINE
8
BLACK
6
CONTINUOUS
10
157.516
20
-95.43
11
159.166
21
-95.43
0
LINE
8
BLACK
6
CONTINUOUS
10
159.166
20
-95.43
11
159.223
21
-95.4414
0
LINE
8
BLACK
6
CONTINUOUS
10
164.173
20
-95.4414
11
164.222
21
-95.4739
0
LINE
8
BLACK
6
CONTINUOUS
10
164.222
20
-95.4739
11
164.255
21
-95.5226
0
LINE
8
BLACK
6
CONTINUOUS
10
164.255
20
-95.5226
11
164.266
21
-95.58
0
LINE
8
BLACK
6
CONTINUOUS
10
164.266
20
-95.58
11
164.266
21
-95.88
0
LINE
8
BLACK
6
CONTINUOUS
10
164.266
20
-95.88
11
164.255
21
-95.9374
0
LINE
8
BLACK
6
CONTINUOUS
10
164.255
20
-95.9374
11
164.222
21
-95.9861
0
LINE
8
BLACK
6
CONTINUOUS
10
164.222
20
-95.9861
11
164.173
21
-96.0186
0
LINE
8
BLACK
6
CONTINUOUS
10
164.173
20
-96.0186
11
164.116
21
-96.03
0
LINE
8
BLACK
6
CONTINUOUS
10
164.116
20
-96.03
11
162.466
21
-96.03
0
LINE
8
BLACK
6
CONTINUOUS
10
162.466
20
-96.03
11
162.409
21
-96.0186
0
LINE
8
BLACK
6
CONTINUOUS
10
162.409
20
-96.0186
11
162.36
21
-95.9861
0
LINE
8
BLACK
6
CONTINUOUS
10
162.36
20
-95.9861
11
162.327
21
-95.9374
0
LINE
8
BLACK
6
CONTINUOUS
10
162.327
20
-95.9374
11
162.316
21
-95.88
0
LINE
8
BLACK
6
CONTINUOUS
10
162.316
20
-95.88
11
162.316
21
-95.58
0
LINE
8
BLACK
6
CONTINUOUS
10
162.316
20
-95.58
11
162.327
21
-95.5226
0
LINE
8
BLACK
6
CONTINUOUS
10
162.327
20
-95.5226
11
162.36
21
-95.4739
0
LINE
8
BLACK
6
CONTINUOUS
10
162.36
20
-95.4739
11
162.409
21
-95.4414
0
LINE
8
BLACK
6
CONTINUOUS
10
162.409
20
-95.4414
11
162.466
21
-95.43
0
LINE
8
BLACK
6
CONTINUOUS
10
162.466
20
-95.43
11
164.116
21
-95.43
0
LINE
8
BLACK
6
CONTINUOUS
10
164.116
20
-95.43
11
164.173
21
-95.4414
0
LINE
8
BLACK
6
CONTINUOUS
10
145.356
20
-94.619
11
145.437
21
-94.6732
0
LINE
8
BLACK
6
CONTINUOUS
10
145.437
20
-94.6732
11
145.491
21
-94.7543
0
LINE
8
BLACK
6
CONTINUOUS
10
145.491
20
-94.7543
11
145.51
21
-94.85
0
LINE
8
BLACK
6
CONTINUOUS
10
145.51
20
-94.85
11
145.51
21
-95.75
0
LINE
8
BLACK
6
CONTINUOUS
10
145.51
20
-95.75
11
145.491
21
-95.8457
0
LINE
8
BLACK
6
CONTINUOUS
10
145.491
20
-95.8457
11
145.437
21
-95.9268
0
LINE
8
BLACK
6
CONTINUOUS
10
145.437
20
-95.9268
11
145.356
21
-95.981
0
LINE
8
BLACK
6
CONTINUOUS
10
145.356
20
-95.981
11
145.26
21
-96
0
LINE
8
BLACK
6
CONTINUOUS
10
145.26
20
-96
11
144.56
21
-96
0
LINE
8
BLACK
6
CONTINUOUS
10
144.56
20
-96
11
144.464
21
-95.981
0
LINE
8
BLACK
6
CONTINUOUS
10
144.464
20
-95.981
11
144.383
21
-95.9268
0
LINE
8
BLACK
6
CONTINUOUS
10
144.383
20
-95.9268
11
144.329
21
-95.8457
0
LINE
8
BLACK
6
CONTINUOUS
10
144.329
20
-95.8457
11
144.31
21
-95.75
0
LINE
8
BLACK
6
CONTINUOUS
10
144.31
20
-95.75
11
144.31
21
-94.85
0
LINE
8
BLACK
6
CONTINUOUS
10
144.31
20
-94.85
11
144.329
21
-94.7543
0
LINE
8
BLACK
6
CONTINUOUS
10
144.329
20
-94.7543
11
144.383
21
-94.6732
0
LINE
8
BLACK
6
CONTINUOUS
10
144.383
20
-94.6732
11
144.464
21
-94.619
0
LINE
8
BLACK
6
CONTINUOUS
10
144.464
20
-94.619
11
144.56
21
-94.6
0
LINE
8
BLACK
6
CONTINUOUS
10
144.56
20
-94.6
11
145.26
21
-94.6
0
LINE
8
BLACK
6
CONTINUOUS
10
145.26
20
-94.6
11
145.356
21
-94.619
0
LINE
8
BLACK
6
CONTINUOUS
10
147.356
20
-94.619
11
147.437
21
-94.6732
0
LINE
8
BLACK
6
CONTINUOUS
10
147.437
20
-94.6732
11
147.491
21
-94.7543
0
LINE
8
BLACK
6
CONTINUOUS
10
147.491
20
-94.7543
11
147.51
21
-94.85
0
LINE
8
BLACK
6
CONTINUOUS
10
147.51
20
-94.85
11
147.51
21
-95.75
0
LINE
8
BLACK
6
CONTINUOUS
10
147.51
20
-95.75
11
147.491
21
-95.8457
0
LINE
8
BLACK
6
CONTINUOUS
10
147.491
20
-95.8457
11
147.437
21
-95.9268
0
LINE
8
BLACK
6
CONTINUOUS
10
147.437
20
-95.9268
11
147.356
21
-95.981
0
LINE
8
BLACK
6
CONTINUOUS
10
147.356
20
-95.981
11
147.26
21
-96
0
LINE
8
BLACK
6
CONTINUOUS
10
147.26
20
-96
11
146.56
21
-96
0
LINE
8
BLACK
6
CONTINUOUS
10
146.56
20
-96
11
146.464
21
-95.981
0
LINE
8
BLACK
6
CONTINUOUS
10
146.464
20
-95.981
11
146.383
21
-95.9268
0
LINE
8
BLACK
6
CONTINUOUS
10
146.383
20
-95.9268
11
146.329
21
-95.8457
0
LINE
8
BLACK
6
CONTINUOUS
10
146.329
20
-95.8457
11
146.31
21
-95.75
0
LINE
8
BLACK
6
CONTINUOUS
10
146.31
20
-95.75
11
146.31
21
-94.85
0
LINE
8
BLACK
6
CONTINUOUS
10
146.31
20
-94.85
11
146.329
21
-94.7543
0
LINE
8
BLACK
6
CONTINUOUS
10
146.329
20
-94.7543
11
146.383
21
-94.6732
0
LINE
8
BLACK
6
CONTINUOUS
10
146.383
20
-94.6732
11
146.464
21
-94.619
0
LINE
8
BLACK
6
CONTINUOUS
10
146.464
20
-94.619
11
146.56
21
-94.6
0
LINE
8
BLACK
6
CONTINUOUS
10
146.56
20
-94.6
11
147.26
21
-94.6
0
LINE
8
BLACK
6
CONTINUOUS
10
147.26
20
-94.6
11
147.356
21
-94.619
0
LINE
8
BLACK
6
CONTINUOUS
10
149.456
20
-94.719
11
149.537
21
-94.7732
0
LINE
8
BLACK
6
CONTINUOUS
10
149.537
20
-94.7732
11
149.591
21
-94.8543
0
LINE
8
BLACK
6
CONTINUOUS
10
149.591
20
-94.8543
11
149.61
21
-94.95
0
LINE
8
BLACK
6
CONTINUOUS
10
149.61
20
-94.95
11
149.61
21
-95.65
0
LINE
8
BLACK
6
CONTINUOUS
10
149.61
20
-95.65
11
149.591
21
-95.7457
0
LINE
8
BLACK
6
CONTINUOUS
10
149.591
20
-95.7457
11
149.537
21
-95.8268
0
LINE
8
BLACK
6
CONTINUOUS
10
149.537
20
-95.8268
11
149.456
21
-95.881
0
LINE
8
BLACK
6
CONTINUOUS
10
149.456
20
-95.881
11
149.36
21
-95.9
0
LINE
8
BLACK
6
CONTINUOUS
10
149.36
20
-95.9
11
148.46
21
-95.9
0
LINE
8
BLACK
6
CONTINUOUS
10
148.46
20
-95.9
11
148.364
21
-95.881
0
LINE
8
BLACK
6
CONTINUOUS
10
148.364
20
-95.881
11
148.283
21
-95.8268
0
LINE
8
BLACK
6
CONTINUOUS
10
148.283
20
-95.8268
11
148.229
21
-95.7457
0
LINE
8
BLACK
6
CONTINUOUS
10
148.229
20
-95.7457
11
148.21
21
-95.65
0
LINE
8
BLACK
6
CONTINUOUS
10
148.21
20
-95.65
11
148.21
21
-94.95
0
LINE
8
BLACK
6
CONTINUOUS
10
148.21
20
-94.95
11
148.229
21
-94.8543
0
LINE
8
BLACK
6
CONTINUOUS
10
148.229
20
-94.8543
11
148.283
21
-94.7732
0
LINE
8
BLACK
6
CONTINUOUS
10
148.283
20
-94.7732
11
148.364
21
-94.719
0
LINE
8
BLACK
6
CONTINUOUS
10
148.364
20
-94.719
11
148.46
21
-94.7
0
LINE
8
BLACK
6
CONTINUOUS
10
148.46
20
-94.7
11
149.36
21
-94.7
0
LINE
8
BLACK
6
CONTINUOUS
10
149.36
20
-94.7
11
149.456
21
-94.719
0
LINE
8
BLACK
6
CONTINUOUS
10
166.212
20
-93.984
11
166.293
21
-94.0382
0
LINE
8
BLACK
6
CONTINUOUS
10
166.293
20
-94.0382
11
166.347
21
-94.1193
0
LINE
8
BLACK
6
CONTINUOUS
10
166.347
20
-94.1193
11
166.366
21
-94.215
0
LINE
8
BLACK
6
CONTINUOUS
10
166.366
20
-94.215
11
166.366
21
-94.915
0
LINE
8
BLACK
6
CONTINUOUS
10
166.366
20
-94.915
11
166.347
21
-95.0107
0
LINE
8
BLACK
6
CONTINUOUS
10
166.347
20
-95.0107
11
166.293
21
-95.0918
0
LINE
8
BLACK
6
CONTINUOUS
10
166.293
20
-95.0918
11
166.212
21
-95.146
0
LINE
8
BLACK
6
CONTINUOUS
10
166.212
20
-95.146
11
166.116
21
-95.165
0
LINE
8
BLACK
6
CONTINUOUS
10
166.116
20
-95.165
11
165.216
21
-95.165
0
LINE
8
BLACK
6
CONTINUOUS
10
165.216
20
-95.165
11
165.12
21
-95.146
0
LINE
8
BLACK
6
CONTINUOUS
10
165.12
20
-95.146
11
165.039
21
-95.0918
0
LINE
8
BLACK
6
CONTINUOUS
10
165.039
20
-95.0918
11
164.985
21
-95.0107
0
LINE
8
BLACK
6
CONTINUOUS
10
164.985
20
-95.0107
11
164.966
21
-94.915
0
LINE
8
BLACK
6
CONTINUOUS
10
164.966
20
-94.915
11
164.966
21
-94.215
0
LINE
8
BLACK
6
CONTINUOUS
10
164.966
20
-94.215
11
164.985
21
-94.1193
0
LINE
8
BLACK
6
CONTINUOUS
10
164.985
20
-94.1193
11
165.039
21
-94.0382
0
LINE
8
BLACK
6
CONTINUOUS
10
165.039
20
-94.0382
11
165.12
21
-93.984
0
LINE
8
BLACK
6
CONTINUOUS
10
165.12
20
-93.984
11
165.216
21
-93.965
0
LINE
8
BLACK
6
CONTINUOUS
10
165.216
20
-93.965
11
166.116
21
-93.965
0
LINE
8
BLACK
6
CONTINUOUS
10
166.116
20
-93.965
11
166.212
21
-93.984
0
LINE
8
BLACK
6
CONTINUOUS
10
168.337
20
-93.959
11
168.418
21
-94.0132
0
LINE
8
BLACK
6
CONTINUOUS
10
168.418
20
-94.0132
11
168.472
21
-94.0943
0
LINE
8
BLACK
6
CONTINUOUS
10
168.472
20
-94.0943
11
168.491
21
-94.19
0
LINE
8
BLACK
6
CONTINUOUS
10
168.491
20
-94.19
11
168.491
21
-94.865
0
LINE
8
BLACK
6
CONTINUOUS
10
168.491
20
-94.865
11
168.472
21
-94.9607
0
LINE
8
BLACK
6
CONTINUOUS
10
168.472
20
-94.9607
11
168.418
21
-95.0418
0
LINE
8
BLACK
6
CONTINUOUS
10
168.418
20
-95.0418
11
168.337
21
-95.096
0
LINE
8
BLACK
6
CONTINUOUS
10
168.337
20
-95.096
11
168.241
21
-95.115
0
LINE
8
BLACK
6
CONTINUOUS
10
168.241
20
-95.115
11
167.291
21
-95.115
0
LINE
8
BLACK
6
CONTINUOUS
10
167.291
20
-95.115
11
167.195
21
-95.096
0
LINE
8
BLACK
6
CONTINUOUS
10
167.195
20
-95.096
11
167.114
21
-95.0418
0
LINE
8
BLACK
6
CONTINUOUS
10
167.114
20
-95.0418
11
167.06
21
-94.9607
0
LINE
8
BLACK
6
CONTINUOUS
10
167.06
20
-94.9607
11
167.041
21
-94.865
0
LINE
8
BLACK
6
CONTINUOUS
10
167.041
20
-94.865
11
167.041
21
-94.19
0
LINE
8
BLACK
6
CONTINUOUS
10
167.041
20
-94.19
11
167.06
21
-94.0943
0
LINE
8
BLACK
6
CONTINUOUS
10
167.06
20
-94.0943
11
167.114
21
-94.0132
0
LINE
8
BLACK
6
CONTINUOUS
10
167.114
20
-94.0132
11
167.195
21
-93.959
0
LINE
8
BLACK
6
CONTINUOUS
10
167.195
20
-93.959
11
167.291
21
-93.94
0
LINE
8
BLACK
6
CONTINUOUS
10
167.291
20
-93.94
11
168.241
21
-93.94
0
LINE
8
BLACK
6
CONTINUOUS
10
168.241
20
-93.94
11
168.337
21
-93.959
0
LINE
8
BLACK
6
CONTINUOUS
10
159.223
20
-94.1714
11
159.272
21
-94.2039
0
LINE
8
BLACK
6
CONTINUOUS
10
159.272
20
-94.2039
11
159.305
21
-94.2526
0
LINE
8
BLACK
6
CONTINUOUS
10
159.305
20
-94.2526
11
159.316
21
-94.31
0
LINE
8
BLACK
6
CONTINUOUS
10
159.316
20
-94.31
11
159.316
21
-94.61
0
LINE
8
BLACK
6
CONTINUOUS
10
159.316
20
-94.61
11
159.305
21
-94.6674
0
LINE
8
BLACK
6
CONTINUOUS
10
159.305
20
-94.6674
11
159.272
21
-94.7161
0
LINE
8
BLACK
6
CONTINUOUS
10
159.272
20
-94.7161
11
159.223
21
-94.7486
0
LINE
8
BLACK
6
CONTINUOUS
10
159.223
20
-94.7486
11
159.166
21
-94.76
0
LINE
8
BLACK
6
CONTINUOUS
10
159.166
20
-94.76
11
157.516
21
-94.76
0
LINE
8
BLACK
6
CONTINUOUS
10
157.516
20
-94.76
11
157.459
21
-94.7486
0
LINE
8
BLACK
6
CONTINUOUS
10
157.459
20
-94.7486
11
157.41
21
-94.7161
0
LINE
8
BLACK
6
CONTINUOUS
10
157.41
20
-94.7161
11
157.377
21
-94.6674
0
LINE
8
BLACK
6
CONTINUOUS
10
157.377
20
-94.6674
11
157.366
21
-94.61
0
LINE
8
BLACK
6
CONTINUOUS
10
157.366
20
-94.61
11
157.366
21
-94.31
0
LINE
8
BLACK
6
CONTINUOUS
10
157.366
20
-94.31
11
157.377
21
-94.2526
0
LINE
8
BLACK
6
CONTINUOUS
10
157.377
20
-94.2526
11
157.41
21
-94.2039
0
LINE
8
BLACK
6
CONTINUOUS
10
157.41
20
-94.2039
11
157.459
21
-94.1714
0
LINE
8
BLACK
6
CONTINUOUS
10
157.459
20
-94.1714
11
157.516
21
-94.16
0
LINE
8
BLACK
6
CONTINUOUS
10
157.516
20
-94.16
11
159.166
21
-94.16
0
LINE
8
BLACK
6
CONTINUOUS
10
159.166
20
-94.16
11
159.223
21
-94.1714
0
LINE
8
BLACK
6
CONTINUOUS
10
164.173
20
-94.1714
11
164.222
21
-94.2039
0
LINE
8
BLACK
6
CONTINUOUS
10
164.222
20
-94.2039
11
164.255
21
-94.2526
0
LINE
8
BLACK
6
CONTINUOUS
10
164.255
20
-94.2526
11
164.266
21
-94.31
0
LINE
8
BLACK
6
CONTINUOUS
10
164.266
20
-94.31
11
164.266
21
-94.61
0
LINE
8
BLACK
6
CONTINUOUS
10
164.266
20
-94.61
11
164.255
21
-94.6674
0
LINE
8
BLACK
6
CONTINUOUS
10
164.255
20
-94.6674
11
164.222
21
-94.7161
0
LINE
8
BLACK
6
CONTINUOUS
10
164.222
20
-94.7161
11
164.173
21
-94.7486
0
LINE
8
BLACK
6
CONTINUOUS
10
164.173
20
-94.7486
11
164.116
21
-94.76
0
LINE
8
BLACK
6
CONTINUOUS
10
164.116
20
-94.76
11
162.466
21
-94.76
0
LINE
8
BLACK
6
CONTINUOUS
10
162.466
20
-94.76
11
162.409
21
-94.7486
0
LINE
8
BLACK
6
CONTINUOUS
10
162.409
20
-94.7486
11
162.36
21
-94.7161
0
LINE
8
BLACK
6
CONTINUOUS
10
162.36
20
-94.7161
11
162.327
21
-94.6674
0
LINE
8
BLACK
6
CONTINUOUS
10
162.327
20
-94.6674
11
162.316
21
-94.61
0
LINE
8
BLACK
6
CONTINUOUS
10
162.316
20
-94.61
11
162.316
21
-94.31
0
LINE
8
BLACK
6
CONTINUOUS
10
162.316
20
-94.31
11
162.327
21
-94.2526
0
LINE
8
BLACK
6
CONTINUOUS
10
162.327
20
-94.2526
11
162.36
21
-94.2039
0
LINE
8
BLACK
6
CONTINUOUS
10
162.36
20
-94.2039
11
162.409
21
-94.1714
0
LINE
8
BLACK
6
CONTINUOUS
10
162.409
20
-94.1714
11
162.466
21
-94.16
0
LINE
8
BLACK
6
CONTINUOUS
10
162.466
20
-94.16
11
164.116
21
-94.16
0
LINE
8
BLACK
6
CONTINUOUS
10
164.116
20
-94.16
11
164.173
21
-94.1714
0
LINE
8
BLACK
6
CONTINUOUS
10
143.181
20
-93.369
11
143.262
21
-93.4232
0
LINE
8
BLACK
6
CONTINUOUS
10
143.262
20
-93.4232
11
143.316
21
-93.5043
0
LINE
8
BLACK
6
CONTINUOUS
10
143.316
20
-93.5043
11
143.335
21
-93.6
0
LINE
8
BLACK
6
CONTINUOUS
10
143.335
20
-93.6
11
143.335
21
-94.275
0
LINE
8
BLACK
6
CONTINUOUS
10
143.335
20
-94.275
11
143.316
21
-94.3707
0
LINE
8
BLACK
6
CONTINUOUS
10
143.316
20
-94.3707
11
143.262
21
-94.4518
0
LINE
8
BLACK
6
CONTINUOUS
10
143.262
20
-94.4518
11
143.181
21
-94.506
0
LINE
8
BLACK
6
CONTINUOUS
10
143.181
20
-94.506
11
143.085
21
-94.525
0
LINE
8
BLACK
6
CONTINUOUS
10
143.085
20
-94.525
11
142.135
21
-94.525
0
LINE
8
BLACK
6
CONTINUOUS
10
142.135
20
-94.525
11
142.039
21
-94.506
0
LINE
8
BLACK
6
CONTINUOUS
10
142.039
20
-94.506
11
141.958
21
-94.4518
0
LINE
8
BLACK
6
CONTINUOUS
10
141.958
20
-94.4518
11
141.904
21
-94.3707
0
LINE
8
BLACK
6
CONTINUOUS
10
141.904
20
-94.3707
11
141.885
21
-94.275
0
LINE
8
BLACK
6
CONTINUOUS
10
141.885
20
-94.275
11
141.885
21
-93.6
0
LINE
8
BLACK
6
CONTINUOUS
10
141.885
20
-93.6
11
141.904
21
-93.5043
0
LINE
8
BLACK
6
CONTINUOUS
10
141.904
20
-93.5043
11
141.958
21
-93.4232
0
LINE
8
BLACK
6
CONTINUOUS
10
141.958
20
-93.4232
11
142.039
21
-93.369
0
LINE
8
BLACK
6
CONTINUOUS
10
142.039
20
-93.369
11
142.135
21
-93.35
0
LINE
8
BLACK
6
CONTINUOUS
10
142.135
20
-93.35
11
143.085
21
-93.35
0
LINE
8
BLACK
6
CONTINUOUS
10
143.085
20
-93.35
11
143.181
21
-93.369
0
LINE
8
BLACK
6
CONTINUOUS
10
152.437
20
-93.1965
11
152.518
21
-93.2507
0
LINE
8
BLACK
6
CONTINUOUS
10
152.518
20
-93.2507
11
152.572
21
-93.3318
0
LINE
8
BLACK
6
CONTINUOUS
10
152.572
20
-93.3318
11
152.591
21
-93.4275
0
LINE
8
BLACK
6
CONTINUOUS
10
152.591
20
-93.4275
11
152.591
21
-94.1025
0
LINE
8
BLACK
6
CONTINUOUS
10
152.591
20
-94.1025
11
152.572
21
-94.1982
0
LINE
8
BLACK
6
CONTINUOUS
10
152.572
20
-94.1982
11
152.518
21
-94.2793
0
LINE
8
BLACK
6
CONTINUOUS
10
152.518
20
-94.2793
11
152.437
21
-94.3335
0
LINE
8
BLACK
6
CONTINUOUS
10
152.437
20
-94.3335
11
152.341
21
-94.3525
0
LINE
8
BLACK
6
CONTINUOUS
10
152.341
20
-94.3525
11
151.391
21
-94.3525
0
LINE
8
BLACK
6
CONTINUOUS
10
151.391
20
-94.3525
11
151.295
21
-94.3335
0
LINE
8
BLACK
6
CONTINUOUS
10
151.295
20
-94.3335
11
151.214
21
-94.2793
0
LINE
8
BLACK
6
CONTINUOUS
10
151.214
20
-94.2793
11
151.16
21
-94.1982
0
LINE
8
BLACK
6
CONTINUOUS
10
151.16
20
-94.1982
11
151.141
21
-94.1025
0
LINE
8
BLACK
6
CONTINUOUS
10
151.141
20
-94.1025
11
151.141
21
-93.4275
0
LINE
8
BLACK
6
CONTINUOUS
10
151.141
20
-93.4275
11
151.16
21
-93.3318
0
LINE
8
BLACK
6
CONTINUOUS
10
151.16
20
-93.3318
11
151.214
21
-93.2507
0
LINE
8
BLACK
6
CONTINUOUS
10
151.214
20
-93.2507
11
151.295
21
-93.1965
0
LINE
8
BLACK
6
CONTINUOUS
10
151.295
20
-93.1965
11
151.391
21
-93.1775
0
LINE
8
BLACK
6
CONTINUOUS
10
151.391
20
-93.1775
11
152.341
21
-93.1775
0
LINE
8
BLACK
6
CONTINUOUS
10
152.341
20
-93.1775
11
152.437
21
-93.1965
0
LINE
8
BLACK
6
CONTINUOUS
10
145.256
20
-92.719
11
145.337
21
-92.7732
0
LINE
8
BLACK
6
CONTINUOUS
10
145.337
20
-92.7732
11
145.391
21
-92.8543
0
LINE
8
BLACK
6
CONTINUOUS
10
145.391
20
-92.8543
11
145.41
21
-92.95
0
LINE
8
BLACK
6
CONTINUOUS
10
145.41
20
-92.95
11
145.41
21
-93.65
0
LINE
8
BLACK
6
CONTINUOUS
10
145.41
20
-93.65
11
145.391
21
-93.7457
0
LINE
8
BLACK
6
CONTINUOUS
10
145.391
20
-93.7457
11
145.337
21
-93.8268
0
LINE
8
BLACK
6
CONTINUOUS
10
145.337
20
-93.8268
11
145.256
21
-93.881
0
LINE
8
BLACK
6
CONTINUOUS
10
145.256
20
-93.881
11
145.16
21
-93.9
0
LINE
8
BLACK
6
CONTINUOUS
10
145.16
20
-93.9
11
144.26
21
-93.9
0
LINE
8
BLACK
6
CONTINUOUS
10
144.26
20
-93.9
11
144.164
21
-93.881
0
LINE
8
BLACK
6
CONTINUOUS
10
144.164
20
-93.881
11
144.083
21
-93.8268
0
LINE
8
BLACK
6
CONTINUOUS
10
144.083
20
-93.8268
11
144.029
21
-93.7457
0
LINE
8
BLACK
6
CONTINUOUS
10
144.029
20
-93.7457
11
144.01
21
-93.65
0
LINE
8
BLACK
6
CONTINUOUS
10
144.01
20
-93.65
11
144.01
21
-92.95
0
LINE
8
BLACK
6
CONTINUOUS
10
144.01
20
-92.95
11
144.029
21
-92.8543
0
LINE
8
BLACK
6
CONTINUOUS
10
144.029
20
-92.8543
11
144.083
21
-92.7732
0
LINE
8
BLACK
6
CONTINUOUS
10
144.083
20
-92.7732
11
144.164
21
-92.719
0
LINE
8
BLACK
6
CONTINUOUS
10
144.164
20
-92.719
11
144.26
21
-92.7
0
LINE
8
BLACK
6
CONTINUOUS
10
144.26
20
-92.7
11
145.16
21
-92.7
0
LINE
8
BLACK
6
CONTINUOUS
10
145.16
20
-92.7
11
145.256
21
-92.719
0
LINE
8
BLACK
6
CONTINUOUS
10
147.356
20
-92.719
11
147.437
21
-92.7732
0
LINE
8
BLACK
6
CONTINUOUS
10
147.437
20
-92.7732
11
147.491
21
-92.8543
0
LINE
8
BLACK
6
CONTINUOUS
10
147.491
20
-92.8543
11
147.51
21
-92.95
0
LINE
8
BLACK
6
CONTINUOUS
10
147.51
20
-92.95
11
147.51
21
-93.65
0
LINE
8
BLACK
6
CONTINUOUS
10
147.51
20
-93.65
11
147.491
21
-93.7457
0
LINE
8
BLACK
6
CONTINUOUS
10
147.491
20
-93.7457
11
147.437
21
-93.8268
0
LINE
8
BLACK
6
CONTINUOUS
10
147.437
20
-93.8268
11
147.356
21
-93.881
0
LINE
8
BLACK
6
CONTINUOUS
10
147.356
20
-93.881
11
147.26
21
-93.9
0
LINE
8
BLACK
6
CONTINUOUS
10
147.26
20
-93.9
11
146.36
21
-93.9
0
LINE
8
BLACK
6
CONTINUOUS
10
146.36
20
-93.9
11
146.264
21
-93.881
0
LINE
8
BLACK
6
CONTINUOUS
10
146.264
20
-93.881
11
146.183
21
-93.8268
0
LINE
8
BLACK
6
CONTINUOUS
10
146.183
20
-93.8268
11
146.129
21
-93.7457
0
LINE
8
BLACK
6
CONTINUOUS
10
146.129
20
-93.7457
11
146.11
21
-93.65
0
LINE
8
BLACK
6
CONTINUOUS
10
146.11
20
-93.65
11
146.11
21
-92.95
0
LINE
8
BLACK
6
CONTINUOUS
10
146.11
20
-92.95
11
146.129
21
-92.8543
0
LINE
8
BLACK
6
CONTINUOUS
10
146.129
20
-92.8543
11
146.183
21
-92.7732
0
LINE
8
BLACK
6
CONTINUOUS
10
146.183
20
-92.7732
11
146.264
21
-92.719
0
LINE
8
BLACK
6
CONTINUOUS
10
146.264
20
-92.719
11
146.36
21
-92.7
0
LINE
8
BLACK
6
CONTINUOUS
10
146.36
20
-92.7
11
147.26
21
-92.7
0
LINE
8
BLACK
6
CONTINUOUS
10
147.26
20
-92.7
11
147.356
21
-92.719
0
LINE
8
BLACK
6
CONTINUOUS
10
149.456
20
-92.719
11
149.537
21
-92.7732
0
LINE
8
BLACK
6
CONTINUOUS
10
149.537
20
-92.7732
11
149.591
21
-92.8543
0
LINE
8
BLACK
6
CONTINUOUS
10
149.591
20
-92.8543
11
149.61
21
-92.95
0
LINE
8
BLACK
6
CONTINUOUS
10
149.61
20
-92.95
11
149.61
21
-93.65
0
LINE
8
BLACK
6
CONTINUOUS
10
149.61
20
-93.65
11
149.591
21
-93.7457
0
LINE
8
BLACK
6
CONTINUOUS
10
149.591
20
-93.7457
11
149.537
21
-93.8268
0
LINE
8
BLACK
6
CONTINUOUS
10
149.537
20
-93.8268
11
149.456
21
-93.881
0
LINE
8
BLACK
6
CONTINUOUS
10
149.456
20
-93.881
11
149.36
21
-93.9
0
LINE
8
BLACK
6
CONTINUOUS
10
149.36
20
-93.9
11
148.46
21
-93.9
0
LINE
8
BLACK
6
CONTINUOUS
10
148.46
20
-93.9
11
148.364
21
-93.881
0
LINE
8
BLACK
6
CONTINUOUS
10
148.364
20
-93.881
11
148.283
21
-93.8268
0
LINE
8
BLACK
6
CONTINUOUS
10
148.283
20
-93.8268
11
148.229
21
-93.7457
0
LINE
8
BLACK
6
CONTINUOUS
10
148.229
20
-93.7457
11
148.21
21
-93.65
0
LINE
8
BLACK
6
CONTINUOUS
10
148.21
20
-93.65
11
148.21
21
-92.95
0
LINE
8
BLACK
6
CONTINUOUS
10
148.21
20
-92.95
11
148.229
21
-92.8543
0
LINE
8
BLACK
6
CONTINUOUS
10
148.229
20
-92.8543
11
148.283
21
-92.7732
0
LINE
8
BLACK
6
CONTINUOUS
10
148.283
20
-92.7732
11
148.364
21
-92.719
0
LINE
8
BLACK
6
CONTINUOUS
10
148.364
20
-92.719
11
148.46
21
-92.7
0
LINE
8
BLACK
6
CONTINUOUS
10
148.46
20
-92.7
11
149.36
21
-92.7
0
LINE
8
BLACK
6
CONTINUOUS
10
149.36
20
-92.7
11
149.456
21
-92.719
0
LINE
8
BLACK
6
CONTINUOUS
10
138.806
20
-92.394
11
138.887
21
-92.4482
0
LINE
8
BLACK
6
CONTINUOUS
10
138.887
20
-92.4482
11
138.941
21
-92.5293
0
LINE
8
BLACK
6
CONTINUOUS
10
138.941
20
-92.5293
11
138.96
21
-92.625
0
LINE
8
BLACK
6
CONTINUOUS
10
138.96
20
-92.625
11
138.96
21
-93.575
0
LINE
8
BLACK
6
CONTINUOUS
10
138.96
20
-93.575
11
138.941
21
-93.6707
0
LINE
8
BLACK
6
CONTINUOUS
10
138.941
20
-93.6707
11
138.887
21
-93.7518
0
LINE
8
BLACK
6
CONTINUOUS
10
138.887
20
-93.7518
11
138.806
21
-93.806
0
LINE
8
BLACK
6
CONTINUOUS
10
138.806
20
-93.806
11
138.71
21
-93.825
0
LINE
8
BLACK
6
CONTINUOUS
10
138.71
20
-93.825
11
138.035
21
-93.825
0
LINE
8
BLACK
6
CONTINUOUS
10
138.035
20
-93.825
11
137.939
21
-93.806
0
LINE
8
BLACK
6
CONTINUOUS
10
137.939
20
-93.806
11
137.858
21
-93.7518
0
LINE
8
BLACK
6
CONTINUOUS
10
137.858
20
-93.7518
11
137.804
21
-93.6707
0
LINE
8
BLACK
6
CONTINUOUS
10
137.804
20
-93.6707
11
137.785
21
-93.575
0
LINE
8
BLACK
6
CONTINUOUS
10
137.785
20
-93.575
11
137.785
21
-92.625
0
LINE
8
BLACK
6
CONTINUOUS
10
137.785
20
-92.625
11
137.804
21
-92.5293
0
LINE
8
BLACK
6
CONTINUOUS
10
137.804
20
-92.5293
11
137.858
21
-92.4482
0
LINE
8
BLACK
6
CONTINUOUS
10
137.858
20
-92.4482
11
137.939
21
-92.394
0
LINE
8
BLACK
6
CONTINUOUS
10
137.939
20
-92.394
11
138.035
21
-92.375
0
LINE
8
BLACK
6
CONTINUOUS
10
138.035
20
-92.375
11
138.71
21
-92.375
0
LINE
8
BLACK
6
CONTINUOUS
10
138.71
20
-92.375
11
138.806
21
-92.394
0
LINE
8
BLACK
6
CONTINUOUS
10
140.881
20
-92.394
11
140.962
21
-92.4482
0
LINE
8
BLACK
6
CONTINUOUS
10
140.962
20
-92.4482
11
141.016
21
-92.5293
0
LINE
8
BLACK
6
CONTINUOUS
10
141.016
20
-92.5293
11
141.035
21
-92.625
0
LINE
8
BLACK
6
CONTINUOUS
10
141.035
20
-92.625
11
141.035
21
-93.575
0
LINE
8
BLACK
6
CONTINUOUS
10
141.035
20
-93.575
11
141.016
21
-93.6707
0
LINE
8
BLACK
6
CONTINUOUS
10
141.016
20
-93.6707
11
140.962
21
-93.7518
0
LINE
8
BLACK
6
CONTINUOUS
10
140.962
20
-93.7518
11
140.881
21
-93.806
0
LINE
8
BLACK
6
CONTINUOUS
10
140.881
20
-93.806
11
140.785
21
-93.825
0
LINE
8
BLACK
6
CONTINUOUS
10
140.785
20
-93.825
11
140.11
21
-93.825
0
LINE
8
BLACK
6
CONTINUOUS
10
140.11
20
-93.825
11
140.014
21
-93.806
0
LINE
8
BLACK
6
CONTINUOUS
10
140.014
20
-93.806
11
139.933
21
-93.7518
0
LINE
8
BLACK
6
CONTINUOUS
10
139.933
20
-93.7518
11
139.879
21
-93.6707
0
LINE
8
BLACK
6
CONTINUOUS
10
139.879
20
-93.6707
11
139.86
21
-93.575
0
LINE
8
BLACK
6
CONTINUOUS
10
139.86
20
-93.575
11
139.86
21
-92.625
0
LINE
8
BLACK
6
CONTINUOUS
10
139.86
20
-92.625
11
139.879
21
-92.5293
0
LINE
8
BLACK
6
CONTINUOUS
10
139.879
20
-92.5293
11
139.933
21
-92.4482
0
LINE
8
BLACK
6
CONTINUOUS
10
139.933
20
-92.4482
11
140.014
21
-92.394
0
LINE
8
BLACK
6
CONTINUOUS
10
140.014
20
-92.394
11
140.11
21
-92.375
0
LINE
8
BLACK
6
CONTINUOUS
10
140.11
20
-92.375
11
140.785
21
-92.375
0
LINE
8
BLACK
6
CONTINUOUS
10
140.785
20
-92.375
11
140.881
21
-92.394
0
LINE
8
BLACK
6
CONTINUOUS
10
160.156
20
-91.919
11
160.237
21
-91.9732
0
LINE
8
BLACK
6
CONTINUOUS
10
160.237
20
-91.9732
11
160.291
21
-92.0543
0
LINE
8
BLACK
6
CONTINUOUS
10
160.291
20
-92.0543
11
160.31
21
-92.15
0
LINE
8
BLACK
6
CONTINUOUS
10
160.31
20
-92.15
11
160.31
21
-93.05
0
LINE
8
BLACK
6
CONTINUOUS
10
160.31
20
-93.05
11
160.291
21
-93.1457
0
LINE
8
BLACK
6
CONTINUOUS
10
160.291
20
-93.1457
11
160.237
21
-93.2268
0
LINE
8
BLACK
6
CONTINUOUS
10
160.237
20
-93.2268
11
160.156
21
-93.281
0
LINE
8
BLACK
6
CONTINUOUS
10
160.156
20
-93.281
11
160.06
21
-93.3
0
LINE
8
BLACK
6
CONTINUOUS
10
160.06
20
-93.3
11
159.36
21
-93.3
0
LINE
8
BLACK
6
CONTINUOUS
10
159.36
20
-93.3
11
159.264
21
-93.281
0
LINE
8
BLACK
6
CONTINUOUS
10
159.264
20
-93.281
11
159.183
21
-93.2268
0
LINE
8
BLACK
6
CONTINUOUS
10
159.183
20
-93.2268
11
159.129
21
-93.1457
0
LINE
8
BLACK
6
CONTINUOUS
10
159.129
20
-93.1457
11
159.11
21
-93.05
0
LINE
8
BLACK
6
CONTINUOUS
10
159.11
20
-93.05
11
159.11
21
-92.15
0
LINE
8
BLACK
6
CONTINUOUS
10
159.11
20
-92.15
11
159.129
21
-92.0543
0
LINE
8
BLACK
6
CONTINUOUS
10
159.129
20
-92.0543
11
159.183
21
-91.9732
0
LINE
8
BLACK
6
CONTINUOUS
10
159.183
20
-91.9732
11
159.264
21
-91.919
0
LINE
8
BLACK
6
CONTINUOUS
10
159.264
20
-91.919
11
159.36
21
-91.9
0
LINE
8
BLACK
6
CONTINUOUS
10
159.36
20
-91.9
11
160.06
21
-91.9
0
LINE
8
BLACK
6
CONTINUOUS
10
160.06
20
-91.9
11
160.156
21
-91.919
0
LINE
8
BLACK
6
CONTINUOUS
10
162.156
20
-91.919
11
162.237
21
-91.9732
0
LINE
8
BLACK
6
CONTINUOUS
10
162.237
20
-91.9732
11
162.291
21
-92.0543
0
LINE
8
BLACK
6
CONTINUOUS
10
162.291
20
-92.0543
11
162.31
21
-92.15
0
LINE
8
BLACK
6
CONTINUOUS
10
162.31
20
-92.15
11
162.31
21
-93.05
0
LINE
8
BLACK
6
CONTINUOUS
10
162.31
20
-93.05
11
162.291
21
-93.1457
0
LINE
8
BLACK
6
CONTINUOUS
10
162.291
20
-93.1457
11
162.237
21
-93.2268
0
LINE
8
BLACK
6
CONTINUOUS
10
162.237
20
-93.2268
11
162.156
21
-93.281
0
LINE
8
BLACK
6
CONTINUOUS
10
162.156
20
-93.281
11
162.06
21
-93.3
0
LINE
8
BLACK
6
CONTINUOUS
10
162.06
20
-93.3
11
161.36
21
-93.3
0
LINE
8
BLACK
6
CONTINUOUS
10
161.36
20
-93.3
11
161.264
21
-93.281
0
LINE
8
BLACK
6
CONTINUOUS
10
161.264
20
-93.281
11
161.183
21
-93.2268
0
LINE
8
BLACK
6
CONTINUOUS
10
161.183
20
-93.2268
11
161.129
21
-93.1457
0
LINE
8
BLACK
6
CONTINUOUS
10
161.129
20
-93.1457
11
161.11
21
-93.05
0
LINE
8
BLACK
6
CONTINUOUS
10
161.11
20
-93.05
11
161.11
21
-92.15
0
LINE
8
BLACK
6
CONTINUOUS
10
161.11
20
-92.15
11
161.129
21
-92.0543
0
LINE
8
BLACK
6
CONTINUOUS
10
161.129
20
-92.0543
11
161.183
21
-91.9732
0
LINE
8
BLACK
6
CONTINUOUS
10
161.183
20
-91.9732
11
161.264
21
-91.919
0
LINE
8
BLACK
6
CONTINUOUS
10
161.264
20
-91.919
11
161.36
21
-91.9
0
LINE
8
BLACK
6
CONTINUOUS
10
161.36
20
-91.9
11
162.06
21
-91.9
0
LINE
8
BLACK
6
CONTINUOUS
10
162.06
20
-91.9
11
162.156
21
-91.919
0
LINE
8
BLACK
6
CONTINUOUS
10
143.181
20
-91.294
11
143.262
21
-91.3482
0
LINE
8
BLACK
6
CONTINUOUS
10
143.262
20
-91.3482
11
143.316
21
-91.4293
0
LINE
8
BLACK
6
CONTINUOUS
10
143.316
20
-91.4293
11
143.335
21
-91.525
0
LINE
8
BLACK
6
CONTINUOUS
10
143.335
20
-91.525
11
143.335
21
-92.2
0
LINE
8
BLACK
6
CONTINUOUS
10
143.335
20
-92.2
11
143.316
21
-92.2957
0
LINE
8
BLACK
6
CONTINUOUS
10
143.316
20
-92.2957
11
143.262
21
-92.3768
0
LINE
8
BLACK
6
CONTINUOUS
10
143.262
20
-92.3768
11
143.181
21
-92.431
0
LINE
8
BLACK
6
CONTINUOUS
10
143.181
20
-92.431
11
143.085
21
-92.45
0
LINE
8
BLACK
6
CONTINUOUS
10
143.085
20
-92.45
11
142.135
21
-92.45
0
LINE
8
BLACK
6
CONTINUOUS
10
142.135
20
-92.45
11
142.039
21
-92.431
0
LINE
8
BLACK
6
CONTINUOUS
10
142.039
20
-92.431
11
141.958
21
-92.3768
0
LINE
8
BLACK
6
CONTINUOUS
10
141.958
20
-92.3768
11
141.904
21
-92.2957
0
LINE
8
BLACK
6
CONTINUOUS
10
141.904
20
-92.2957
11
141.885
21
-92.2
0
LINE
8
BLACK
6
CONTINUOUS
10
141.885
20
-92.2
11
141.885
21
-91.525
0
LINE
8
BLACK
6
CONTINUOUS
10
141.885
20
-91.525
11
141.904
21
-91.4293
0
LINE
8
BLACK
6
CONTINUOUS
10
141.904
20
-91.4293
11
141.958
21
-91.3482
0
LINE
8
BLACK
6
CONTINUOUS
10
141.958
20
-91.3482
11
142.039
21
-91.294
0
LINE
8
BLACK
6
CONTINUOUS
10
142.039
20
-91.294
11
142.135
21
-91.275
0
LINE
8
BLACK
6
CONTINUOUS
10
142.135
20
-91.275
11
143.085
21
-91.275
0
LINE
8
BLACK
6
CONTINUOUS
10
143.085
20
-91.275
11
143.181
21
-91.294
0
LINE
8
BLACK
6
CONTINUOUS
10
150.556
20
-90.719
11
150.637
21
-90.7732
0
LINE
8
BLACK
6
CONTINUOUS
10
150.637
20
-90.7732
11
150.691
21
-90.8543
0
LINE
8
BLACK
6
CONTINUOUS
10
150.691
20
-90.8543
11
150.71
21
-90.95
0
LINE
8
BLACK
6
CONTINUOUS
10
150.71
20
-90.95
11
150.71
21
-91.85
0
LINE
8
BLACK
6
CONTINUOUS
10
150.71
20
-91.85
11
150.691
21
-91.9457
0
LINE
8
BLACK
6
CONTINUOUS
10
150.691
20
-91.9457
11
150.637
21
-92.0268
0
LINE
8
BLACK
6
CONTINUOUS
10
150.637
20
-92.0268
11
150.556
21
-92.081
0
LINE
8
BLACK
6
CONTINUOUS
10
150.556
20
-92.081
11
150.46
21
-92.1
0
LINE
8
BLACK
6
CONTINUOUS
10
150.46
20
-92.1
11
149.76
21
-92.1
0
LINE
8
BLACK
6
CONTINUOUS
10
149.76
20
-92.1
11
149.664
21
-92.081
0
LINE
8
BLACK
6
CONTINUOUS
10
149.664
20
-92.081
11
149.583
21
-92.0268
0
LINE
8
BLACK
6
CONTINUOUS
10
149.583
20
-92.0268
11
149.529
21
-91.9457
0
LINE
8
BLACK
6
CONTINUOUS
10
149.529
20
-91.9457
11
149.51
21
-91.85
0
LINE
8
BLACK
6
CONTINUOUS
10
149.51
20
-91.85
11
149.51
21
-90.95
0
LINE
8
BLACK
6
CONTINUOUS
10
149.51
20
-90.95
11
149.529
21
-90.8543
0
LINE
8
BLACK
6
CONTINUOUS
10
149.529
20
-90.8543
11
149.583
21
-90.7732
0
LINE
8
BLACK
6
CONTINUOUS
10
149.583
20
-90.7732
11
149.664
21
-90.719
0
LINE
8
BLACK
6
CONTINUOUS
10
149.664
20
-90.719
11
149.76
21
-90.7
0
LINE
8
BLACK
6
CONTINUOUS
10
149.76
20
-90.7
11
150.46
21
-90.7
0
LINE
8
BLACK
6
CONTINUOUS
10
150.46
20
-90.7
11
150.556
21
-90.719
0
LINE
8
BLACK
6
CONTINUOUS
10
152.556
20
-90.719
11
152.637
21
-90.7732
0
LINE
8
BLACK
6
CONTINUOUS
10
152.637
20
-90.7732
11
152.691
21
-90.8543
0
LINE
8
BLACK
6
CONTINUOUS
10
152.691
20
-90.8543
11
152.71
21
-90.95
0
LINE
8
BLACK
6
CONTINUOUS
10
152.71
20
-90.95
11
152.71
21
-91.85
0
LINE
8
BLACK
6
CONTINUOUS
10
152.71
20
-91.85
11
152.691
21
-91.9457
0
LINE
8
BLACK
6
CONTINUOUS
10
152.691
20
-91.9457
11
152.637
21
-92.0268
0
LINE
8
BLACK
6
CONTINUOUS
10
152.637
20
-92.0268
11
152.556
21
-92.081
0
LINE
8
BLACK
6
CONTINUOUS
10
152.556
20
-92.081
11
152.46
21
-92.1
0
LINE
8
BLACK
6
CONTINUOUS
10
152.46
20
-92.1
11
151.76
21
-92.1
0
LINE
8
BLACK
6
CONTINUOUS
10
151.76
20
-92.1
11
151.664
21
-92.081
0
LINE
8
BLACK
6
CONTINUOUS
10
151.664
20
-92.081
11
151.583
21
-92.0268
0
LINE
8
BLACK
6
CONTINUOUS
10
151.583
20
-92.0268
11
151.529
21
-91.9457
0
LINE
8
BLACK
6
CONTINUOUS
10
151.529
20
-91.9457
11
151.51
21
-91.85
0
LINE
8
BLACK
6
CONTINUOUS
10
151.51
20
-91.85
11
151.51
21
-90.95
0
LINE
8
BLACK
6
CONTINUOUS
10
151.51
20
-90.95
11
151.529
21
-90.8543
0
LINE
8
BLACK
6
CONTINUOUS
10
151.529
20
-90.8543
11
151.583
21
-90.7732
0
LINE
8
BLACK
6
CONTINUOUS
10
151.583
20
-90.7732
11
151.664
21
-90.719
0
LINE
8
BLACK
6
CONTINUOUS
10
151.664
20
-90.719
11
151.76
21
-90.7
0
LINE
8
BLACK
6
CONTINUOUS
10
151.76
20
-90.7
11
152.46
21
-90.7
0
LINE
8
BLACK
6
CONTINUOUS
10
152.46
20
-90.7
11
152.556
21
-90.719
0
LINE
8
BLACK
6
CONTINUOUS
10
145.256
20
-90.719
11
145.337
21
-90.7732
0
LINE
8
BLACK
6
CONTINUOUS
10
145.337
20
-90.7732
11
145.391
21
-90.8543
0
LINE
8
BLACK
6
CONTINUOUS
10
145.391
20
-90.8543
11
145.41
21
-90.95
0
LINE
8
BLACK
6
CONTINUOUS
10
145.41
20
-90.95
11
145.41
21
-91.65
0
LINE
8
BLACK
6
CONTINUOUS
10
145.41
20
-91.65
11
145.391
21
-91.7457
0
LINE
8
BLACK
6
CONTINUOUS
10
145.391
20
-91.7457
11
145.337
21
-91.8268
0
LINE
8
BLACK
6
CONTINUOUS
10
145.337
20
-91.8268
11
145.256
21
-91.881
0
LINE
8
BLACK
6
CONTINUOUS
10
145.256
20
-91.881
11
145.16
21
-91.9
0
LINE
8
BLACK
6
CONTINUOUS
10
145.16
20
-91.9
11
144.26
21
-91.9
0
LINE
8
BLACK
6
CONTINUOUS
10
144.26
20
-91.9
11
144.164
21
-91.881
0
LINE
8
BLACK
6
CONTINUOUS
10
144.164
20
-91.881
11
144.083
21
-91.8268
0
LINE
8
BLACK
6
CONTINUOUS
10
144.083
20
-91.8268
11
144.029
21
-91.7457
0
LINE
8
BLACK
6
CONTINUOUS
10
144.029
20
-91.7457
11
144.01
21
-91.65
0
LINE
8
BLACK
6
CONTINUOUS
10
144.01
20
-91.65
11
144.01
21
-90.95
0
LINE
8
BLACK
6
CONTINUOUS
10
144.01
20
-90.95
11
144.029
21
-90.8543
0
LINE
8
BLACK
6
CONTINUOUS
10
144.029
20
-90.8543
11
144.083
21
-90.7732
0
LINE
8
BLACK
6
CONTINUOUS
10
144.083
20
-90.7732
11
144.164
21
-90.719
0
LINE
8
BLACK
6
CONTINUOUS
10
144.164
20
-90.719
11
144.26
21
-90.7
0
LINE
8
BLACK
6
CONTINUOUS
10
144.26
20
-90.7
11
145.16
21
-90.7
0
LINE
8
BLACK
6
CONTINUOUS
10
145.16
20
-90.7
11
145.256
21
-90.719
0
LINE
8
BLACK
6
CONTINUOUS
10
147.356
20
-90.719
11
147.437
21
-90.7732
0
LINE
8
BLACK
6
CONTINUOUS
10
147.437
20
-90.7732
11
147.491
21
-90.8543
0
LINE
8
BLACK
6
CONTINUOUS
10
147.491
20
-90.8543
11
147.51
21
-90.95
0
LINE
8
BLACK
6
CONTINUOUS
10
147.51
20
-90.95
11
147.51
21
-91.65
0
LINE
8
BLACK
6
CONTINUOUS
10
147.51
20
-91.65
11
147.491
21
-91.7457
0
LINE
8
BLACK
6
CONTINUOUS
10
147.491
20
-91.7457
11
147.437
21
-91.8268
0
LINE
8
BLACK
6
CONTINUOUS
10
147.437
20
-91.8268
11
147.356
21
-91.881
0
LINE
8
BLACK
6
CONTINUOUS
10
147.356
20
-91.881
11
147.26
21
-91.9
0
LINE
8
BLACK
6
CONTINUOUS
10
147.26
20
-91.9
11
146.36
21
-91.9
0
LINE
8
BLACK
6
CONTINUOUS
10
146.36
20
-91.9
11
146.264
21
-91.881
0
LINE
8
BLACK
6
CONTINUOUS
10
146.264
20
-91.881
11
146.183
21
-91.8268
0
LINE
8
BLACK
6
CONTINUOUS
10
146.183
20
-91.8268
11
146.129
21
-91.7457
0
LINE
8
BLACK
6
CONTINUOUS
10
146.129
20
-91.7457
11
146.11
21
-91.65
0
LINE
8
BLACK
6
CONTINUOUS
10
146.11
20
-91.65
11
146.11
21
-90.95
0
LINE
8
BLACK
6
CONTINUOUS
10
146.11
20
-90.95
11
146.129
21
-90.8543
0
LINE
8
BLACK
6
CONTINUOUS
10
146.129
20
-90.8543
11
146.183
21
-90.7732
0
LINE
8
BLACK
6
CONTINUOUS
10
146.183
20
-90.7732
11
146.264
21
-90.719
0
LINE
8
BLACK
6
CONTINUOUS
10
146.264
20
-90.719
11
146.36
21
-90.7
0
LINE
8
BLACK
6
CONTINUOUS
10
146.36
20
-90.7
11
147.26
21
-90.7
0
LINE
8
BLACK
6
CONTINUOUS
10
147.26
20
-90.7
11
147.356
21
-90.719
0
LINE
8
BLACK
6
CONTINUOUS
10
140.981
20
-90.169
11
141.062
21
-90.2232
0
LINE
8
BLACK
6
CONTINUOUS
10
141.062
20
-90.2232
11
141.116
21
-90.3043
0
LINE
8
BLACK
6
CONTINUOUS
10
141.116
20
-90.3043
11
141.135
21
-90.4
0
LINE
8
BLACK
6
CONTINUOUS
10
141.135
20
-90.4
11
141.135
21
-91.075
0
LINE
8
BLACK
6
CONTINUOUS
10
141.135
20
-91.075
11
141.116
21
-91.1707
0
LINE
8
BLACK
6
CONTINUOUS
10
141.116
20
-91.1707
11
141.062
21
-91.2518
0
LINE
8
BLACK
6
CONTINUOUS
10
141.062
20
-91.2518
11
140.981
21
-91.306
0
LINE
8
BLACK
6
CONTINUOUS
10
140.981
20
-91.306
11
140.885
21
-91.325
0
LINE
8
BLACK
6
CONTINUOUS
10
140.885
20
-91.325
11
139.935
21
-91.325
0
LINE
8
BLACK
6
CONTINUOUS
10
139.935
20
-91.325
11
139.839
21
-91.306
0
LINE
8
BLACK
6
CONTINUOUS
10
139.839
20
-91.306
11
139.758
21
-91.2518
0
LINE
8
BLACK
6
CONTINUOUS
10
139.758
20
-91.2518
11
139.704
21
-91.1707
0
LINE
8
BLACK
6
CONTINUOUS
10
139.704
20
-91.1707
11
139.685
21
-91.075
0
LINE
8
BLACK
6
CONTINUOUS
10
139.685
20
-91.075
11
139.685
21
-90.4
0
LINE
8
BLACK
6
CONTINUOUS
10
139.685
20
-90.4
11
139.704
21
-90.3043
0
LINE
8
BLACK
6
CONTINUOUS
10
139.704
20
-90.3043
11
139.758
21
-90.2232
0
LINE
8
BLACK
6
CONTINUOUS
10
139.758
20
-90.2232
11
139.839
21
-90.169
0
LINE
8
BLACK
6
CONTINUOUS
10
139.839
20
-90.169
11
139.935
21
-90.15
0
LINE
8
BLACK
6
CONTINUOUS
10
139.935
20
-90.15
11
140.885
21
-90.15
0
LINE
8
BLACK
6
CONTINUOUS
10
140.885
20
-90.15
11
140.981
21
-90.169
0
LINE
8
BLACK
6
CONTINUOUS
10
167.606
20
-88.794
11
167.687
21
-88.8482
0
LINE
8
BLACK
6
CONTINUOUS
10
167.687
20
-88.8482
11
167.741
21
-88.9293
0
LINE
8
BLACK
6
CONTINUOUS
10
167.741
20
-88.9293
11
167.76
21
-89.025
0
LINE
8
BLACK
6
CONTINUOUS
10
167.76
20
-89.025
11
167.76
21
-89.975
0
LINE
8
BLACK
6
CONTINUOUS
10
167.76
20
-89.975
11
167.741
21
-90.0707
0
LINE
8
BLACK
6
CONTINUOUS
10
167.741
20
-90.0707
11
167.687
21
-90.1518
0
LINE
8
BLACK
6
CONTINUOUS
10
167.687
20
-90.1518
11
167.606
21
-90.206
0
LINE
8
BLACK
6
CONTINUOUS
10
167.606
20
-90.206
11
167.51
21
-90.225
0
LINE
8
BLACK
6
CONTINUOUS
10
167.51
20
-90.225
11
166.835
21
-90.225
0
LINE
8
BLACK
6
CONTINUOUS
10
166.835
20
-90.225
11
166.739
21
-90.206
0
LINE
8
BLACK
6
CONTINUOUS
10
166.739
20
-90.206
11
166.658
21
-90.1518
0
LINE
8
BLACK
6
CONTINUOUS
10
166.658
20
-90.1518
11
166.604
21
-90.0707
0
LINE
8
BLACK
6
CONTINUOUS
10
166.604
20
-90.0707
11
166.585
21
-89.975
0
LINE
8
BLACK
6
CONTINUOUS
10
166.585
20
-89.975
11
166.585
21
-89.025
0
LINE
8
BLACK
6
CONTINUOUS
10
166.585
20
-89.025
11
166.604
21
-88.9293
0
LINE
8
BLACK
6
CONTINUOUS
10
166.604
20
-88.9293
11
166.658
21
-88.8482
0
LINE
8
BLACK
6
CONTINUOUS
10
166.658
20
-88.8482
11
166.739
21
-88.794
0
LINE
8
BLACK
6
CONTINUOUS
10
166.739
20
-88.794
11
166.835
21
-88.775
0
LINE
8
BLACK
6
CONTINUOUS
10
166.835
20
-88.775
11
167.51
21
-88.775
0
LINE
8
BLACK
6
CONTINUOUS
10
167.51
20
-88.775
11
167.606
21
-88.794
0
LINE
8
BLACK
6
CONTINUOUS
10
169.681
20
-88.794
11
169.762
21
-88.8482
0
LINE
8
BLACK
6
CONTINUOUS
10
169.762
20
-88.8482
11
169.816
21
-88.9293
0
LINE
8
BLACK
6
CONTINUOUS
10
169.816
20
-88.9293
11
169.835
21
-89.025
0
LINE
8
BLACK
6
CONTINUOUS
10
169.835
20
-89.025
11
169.835
21
-89.975
0
LINE
8
BLACK
6
CONTINUOUS
10
169.835
20
-89.975
11
169.816
21
-90.0707
0
LINE
8
BLACK
6
CONTINUOUS
10
169.816
20
-90.0707
11
169.762
21
-90.1518
0
LINE
8
BLACK
6
CONTINUOUS
10
169.762
20
-90.1518
11
169.681
21
-90.206
0
LINE
8
BLACK
6
CONTINUOUS
10
169.681
20
-90.206
11
169.585
21
-90.225
0
LINE
8
BLACK
6
CONTINUOUS
10
169.585
20
-90.225
11
168.91
21
-90.225
0
LINE
8
BLACK
6
CONTINUOUS
10
168.91
20
-90.225
11
168.814
21
-90.206
0
LINE
8
BLACK
6
CONTINUOUS
10
168.814
20
-90.206
11
168.733
21
-90.1518
0
LINE
8
BLACK
6
CONTINUOUS
10
168.733
20
-90.1518
11
168.679
21
-90.0707
0
LINE
8
BLACK
6
CONTINUOUS
10
168.679
20
-90.0707
11
168.66
21
-89.975
0
LINE
8
BLACK
6
CONTINUOUS
10
168.66
20
-89.975
11
168.66
21
-89.025
0
LINE
8
BLACK
6
CONTINUOUS
10
168.66
20
-89.025
11
168.679
21
-88.9293
0
LINE
8
BLACK
6
CONTINUOUS
10
168.679
20
-88.9293
11
168.733
21
-88.8482
0
LINE
8
BLACK
6
CONTINUOUS
10
168.733
20
-88.8482
11
168.814
21
-88.794
0
LINE
8
BLACK
6
CONTINUOUS
10
168.814
20
-88.794
11
168.91
21
-88.775
0
LINE
8
BLACK
6
CONTINUOUS
10
168.91
20
-88.775
11
169.585
21
-88.775
0
LINE
8
BLACK
6
CONTINUOUS
10
169.585
20
-88.775
11
169.681
21
-88.794
0
LINE
8
BLACK
6
CONTINUOUS
10
155.956
20
-88.819
11
156.037
21
-88.8732
0
LINE
8
BLACK
6
CONTINUOUS
10
156.037
20
-88.8732
11
156.091
21
-88.9543
0
LINE
8
BLACK
6
CONTINUOUS
10
156.091
20
-88.9543
11
156.11
21
-89.05
0
LINE
8
BLACK
6
CONTINUOUS
10
156.11
20
-89.05
11
156.11
21
-89.95
0
LINE
8
BLACK
6
CONTINUOUS
10
156.11
20
-89.95
11
156.091
21
-90.0457
0
LINE
8
BLACK
6
CONTINUOUS
10
156.091
20
-90.0457
11
156.037
21
-90.1268
0
LINE
8
BLACK
6
CONTINUOUS
10
156.037
20
-90.1268
11
155.956
21
-90.181
0
LINE
8
BLACK
6
CONTINUOUS
10
155.956
20
-90.181
11
155.86
21
-90.2
0
LINE
8
BLACK
6
CONTINUOUS
10
155.86
20
-90.2
11
155.16
21
-90.2
0
LINE
8
BLACK
6
CONTINUOUS
10
155.16
20
-90.2
11
155.064
21
-90.181
0
LINE
8
BLACK
6
CONTINUOUS
10
155.064
20
-90.181
11
154.983
21
-90.1268
0
LINE
8
BLACK
6
CONTINUOUS
10
154.983
20
-90.1268
11
154.929
21
-90.0457
0
LINE
8
BLACK
6
CONTINUOUS
10
154.929
20
-90.0457
11
154.91
21
-89.95
0
LINE
8
BLACK
6
CONTINUOUS
10
154.91
20
-89.95
11
154.91
21
-89.05
0
LINE
8
BLACK
6
CONTINUOUS
10
154.91
20
-89.05
11
154.929
21
-88.9543
0
LINE
8
BLACK
6
CONTINUOUS
10
154.929
20
-88.9543
11
154.983
21
-88.8732
0
LINE
8
BLACK
6
CONTINUOUS
10
154.983
20
-88.8732
11
155.064
21
-88.819
0
LINE
8
BLACK
6
CONTINUOUS
10
155.064
20
-88.819
11
155.16
21
-88.8
0
LINE
8
BLACK
6
CONTINUOUS
10
155.16
20
-88.8
11
155.86
21
-88.8
0
LINE
8
BLACK
6
CONTINUOUS
10
155.86
20
-88.8
11
155.956
21
-88.819
0
LINE
8
BLACK
6
CONTINUOUS
10
157.956
20
-88.819
11
158.037
21
-88.8732
0
LINE
8
BLACK
6
CONTINUOUS
10
158.037
20
-88.8732
11
158.091
21
-88.9543
0
LINE
8
BLACK
6
CONTINUOUS
10
158.091
20
-88.9543
11
158.11
21
-89.05
0
LINE
8
BLACK
6
CONTINUOUS
10
158.11
20
-89.05
11
158.11
21
-89.95
0
LINE
8
BLACK
6
CONTINUOUS
10
158.11
20
-89.95
11
158.091
21
-90.0457
0
LINE
8
BLACK
6
CONTINUOUS
10
158.091
20
-90.0457
11
158.037
21
-90.1268
0
LINE
8
BLACK
6
CONTINUOUS
10
158.037
20
-90.1268
11
157.956
21
-90.181
0
LINE
8
BLACK
6
CONTINUOUS
10
157.956
20
-90.181
11
157.86
21
-90.2
0
LINE
8
BLACK
6
CONTINUOUS
10
157.86
20
-90.2
11
157.16
21
-90.2
0
LINE
8
BLACK
6
CONTINUOUS
10
157.16
20
-90.2
11
157.064
21
-90.181
0
LINE
8
BLACK
6
CONTINUOUS
10
157.064
20
-90.181
11
156.983
21
-90.1268
0
LINE
8
BLACK
6
CONTINUOUS
10
156.983
20
-90.1268
11
156.929
21
-90.0457
0
LINE
8
BLACK
6
CONTINUOUS
10
156.929
20
-90.0457
11
156.91
21
-89.95
0
LINE
8
BLACK
6
CONTINUOUS
10
156.91
20
-89.95
11
156.91
21
-89.05
0
LINE
8
BLACK
6
CONTINUOUS
10
156.91
20
-89.05
11
156.929
21
-88.9543
0
LINE
8
BLACK
6
CONTINUOUS
10
156.929
20
-88.9543
11
156.983
21
-88.8732
0
LINE
8
BLACK
6
CONTINUOUS
10
156.983
20
-88.8732
11
157.064
21
-88.819
0
LINE
8
BLACK
6
CONTINUOUS
10
157.064
20
-88.819
11
157.16
21
-88.8
0
LINE
8
BLACK
6
CONTINUOUS
10
157.16
20
-88.8
11
157.86
21
-88.8
0
LINE
8
BLACK
6
CONTINUOUS
10
157.86
20
-88.8
11
157.956
21
-88.819
0
LINE
8
BLACK
6
CONTINUOUS
10
159.856
20
-88.819
11
159.937
21
-88.8732
0
LINE
8
BLACK
6
CONTINUOUS
10
159.937
20
-88.8732
11
159.991
21
-88.9543
0
LINE
8
BLACK
6
CONTINUOUS
10
159.991
20
-88.9543
11
160.01
21
-89.05
0
LINE
8
BLACK
6
CONTINUOUS
10
160.01
20
-89.05
11
160.01
21
-89.95
0
LINE
8
BLACK
6
CONTINUOUS
10
160.01
20
-89.95
11
159.991
21
-90.0457
0
LINE
8
BLACK
6
CONTINUOUS
10
159.991
20
-90.0457
11
159.937
21
-90.1268
0
LINE
8
BLACK
6
CONTINUOUS
10
159.937
20
-90.1268
11
159.856
21
-90.181
0
LINE
8
BLACK
6
CONTINUOUS
10
159.856
20
-90.181
11
159.76
21
-90.2
0
LINE
8
BLACK
6
CONTINUOUS
10
159.76
20
-90.2
11
159.06
21
-90.2
0
LINE
8
BLACK
6
CONTINUOUS
10
159.06
20
-90.2
11
158.964
21
-90.181
0
LINE
8
BLACK
6
CONTINUOUS
10
158.964
20
-90.181
11
158.883
21
-90.1268
0
LINE
8
BLACK
6
CONTINUOUS
10
158.883
20
-90.1268
11
158.829
21
-90.0457
0
LINE
8
BLACK
6
CONTINUOUS
10
158.829
20
-90.0457
11
158.81
21
-89.95
0
LINE
8
BLACK
6
CONTINUOUS
10
158.81
20
-89.95
11
158.81
21
-89.05
0
LINE
8
BLACK
6
CONTINUOUS
10
158.81
20
-89.05
11
158.829
21
-88.9543
0
LINE
8
BLACK
6
CONTINUOUS
10
158.829
20
-88.9543
11
158.883
21
-88.8732
0
LINE
8
BLACK
6
CONTINUOUS
10
158.883
20
-88.8732
11
158.964
21
-88.819
0
LINE
8
BLACK
6
CONTINUOUS
10
158.964
20
-88.819
11
159.06
21
-88.8
0
LINE
8
BLACK
6
CONTINUOUS
10
159.06
20
-88.8
11
159.76
21
-88.8
0
LINE
8
BLACK
6
CONTINUOUS
10
159.76
20
-88.8
11
159.856
21
-88.819
0
LINE
8
BLACK
6
CONTINUOUS
10
161.856
20
-88.819
11
161.937
21
-88.8732
0
LINE
8
BLACK
6
CONTINUOUS
10
161.937
20
-88.8732
11
161.991
21
-88.9543
0
LINE
8
BLACK
6
CONTINUOUS
10
161.991
20
-88.9543
11
162.01
21
-89.05
0
LINE
8
BLACK
6
CONTINUOUS
10
162.01
20
-89.05
11
162.01
21
-89.95
0
LINE
8
BLACK
6
CONTINUOUS
10
162.01
20
-89.95
11
161.991
21
-90.0457
0
LINE
8
BLACK
6
CONTINUOUS
10
161.991
20
-90.0457
11
161.937
21
-90.1268
0
LINE
8
BLACK
6
CONTINUOUS
10
161.937
20
-90.1268
11
161.856
21
-90.181
0
LINE
8
BLACK
6
CONTINUOUS
10
161.856
20
-90.181
11
161.76
21
-90.2
0
LINE
8
BLACK
6
CONTINUOUS
10
161.76
20
-90.2
11
161.06
21
-90.2
0
LINE
8
BLACK
6
CONTINUOUS
10
161.06
20
-90.2
11
160.964
21
-90.181
0
LINE
8
BLACK
6
CONTINUOUS
10
160.964
20
-90.181
11
160.883
21
-90.1268
0
LINE
8
BLACK
6
CONTINUOUS
10
160.883
20
-90.1268
11
160.829
21
-90.0457
0
LINE
8
BLACK
6
CONTINUOUS
10
160.829
20
-90.0457
11
160.81
21
-89.95
0
LINE
8
BLACK
6
CONTINUOUS
10
160.81
20
-89.95
11
160.81
21
-89.05
0
LINE
8
BLACK
6
CONTINUOUS
10
160.81
20
-89.05
11
160.829
21
-88.9543
0
LINE
8
BLACK
6
CONTINUOUS
10
160.829
20
-88.9543
11
160.883
21
-88.8732
0
LINE
8
BLACK
6
CONTINUOUS
10
160.883
20
-88.8732
11
160.964
21
-88.819
0
LINE
8
BLACK
6
CONTINUOUS
10
160.964
20
-88.819
11
161.06
21
-88.8
0
LINE
8
BLACK
6
CONTINUOUS
10
161.06
20
-88.8
11
161.76
21
-88.8
0
LINE
8
BLACK
6
CONTINUOUS
10
161.76
20
-88.8
11
161.856
21
-88.819
0
LINE
8
BLACK
6
CONTINUOUS
10
163.756
20
-88.819
11
163.837
21
-88.8732
0
LINE
8
BLACK
6
CONTINUOUS
10
163.837
20
-88.8732
11
163.891
21
-88.9543
0
LINE
8
BLACK
6
CONTINUOUS
10
163.891
20
-88.9543
11
163.91
21
-89.05
0
LINE
8
BLACK
6
CONTINUOUS
10
163.91
20
-89.05
11
163.91
21
-89.95
0
LINE
8
BLACK
6
CONTINUOUS
10
163.91
20
-89.95
11
163.891
21
-90.0457
0
LINE
8
BLACK
6
CONTINUOUS
10
163.891
20
-90.0457
11
163.837
21
-90.1268
0
LINE
8
BLACK
6
CONTINUOUS
10
163.837
20
-90.1268
11
163.756
21
-90.181
0
LINE
8
BLACK
6
CONTINUOUS
10
163.756
20
-90.181
11
163.66
21
-90.2
0
LINE
8
BLACK
6
CONTINUOUS
10
163.66
20
-90.2
11
162.96
21
-90.2
0
LINE
8
BLACK
6
CONTINUOUS
10
162.96
20
-90.2
11
162.864
21
-90.181
0
LINE
8
BLACK
6
CONTINUOUS
10
162.864
20
-90.181
11
162.783
21
-90.1268
0
LINE
8
BLACK
6
CONTINUOUS
10
162.783
20
-90.1268
11
162.729
21
-90.0457
0
LINE
8
BLACK
6
CONTINUOUS
10
162.729
20
-90.0457
11
162.71
21
-89.95
0
LINE
8
BLACK
6
CONTINUOUS
10
162.71
20
-89.95
11
162.71
21
-89.05
0
LINE
8
BLACK
6
CONTINUOUS
10
162.71
20
-89.05
11
162.729
21
-88.9543
0
LINE
8
BLACK
6
CONTINUOUS
10
162.729
20
-88.9543
11
162.783
21
-88.8732
0
LINE
8
BLACK
6
CONTINUOUS
10
162.783
20
-88.8732
11
162.864
21
-88.819
0
LINE
8
BLACK
6
CONTINUOUS
10
162.864
20
-88.819
11
162.96
21
-88.8
0
LINE
8
BLACK
6
CONTINUOUS
10
162.96
20
-88.8
11
163.66
21
-88.8
0
LINE
8
BLACK
6
CONTINUOUS
10
163.66
20
-88.8
11
163.756
21
-88.819
0
LINE
8
BLACK
6
CONTINUOUS
10
165.756
20
-88.819
11
165.837
21
-88.8732
0
LINE
8
BLACK
6
CONTINUOUS
10
165.837
20
-88.8732
11
165.891
21
-88.9543
0
LINE
8
BLACK
6
CONTINUOUS
10
165.891
20
-88.9543
11
165.91
21
-89.05
0
LINE
8
BLACK
6
CONTINUOUS
10
165.91
20
-89.05
11
165.91
21
-89.95
0
LINE
8
BLACK
6
CONTINUOUS
10
165.91
20
-89.95
11
165.891
21
-90.0457
0
LINE
8
BLACK
6
CONTINUOUS
10
165.891
20
-90.0457
11
165.837
21
-90.1268
0
LINE
8
BLACK
6
CONTINUOUS
10
165.837
20
-90.1268
11
165.756
21
-90.181
0
LINE
8
BLACK
6
CONTINUOUS
10
165.756
20
-90.181
11
165.66
21
-90.2
0
LINE
8
BLACK
6
CONTINUOUS
10
165.66
20
-90.2
11
164.96
21
-90.2
0
LINE
8
BLACK
6
CONTINUOUS
10
164.96
20
-90.2
11
164.864
21
-90.181
0
LINE
8
BLACK
6
CONTINUOUS
10
164.864
20
-90.181
11
164.783
21
-90.1268
0
LINE
8
BLACK
6
CONTINUOUS
10
164.783
20
-90.1268
11
164.729
21
-90.0457
0
LINE
8
BLACK
6
CONTINUOUS
10
164.729
20
-90.0457
11
164.71
21
-89.95
0
LINE
8
BLACK
6
CONTINUOUS
10
164.71
20
-89.95
11
164.71
21
-89.05
0
LINE
8
BLACK
6
CONTINUOUS
10
164.71
20
-89.05
11
164.729
21
-88.9543
0
LINE
8
BLACK
6
CONTINUOUS
10
164.729
20
-88.9543
11
164.783
21
-88.8732
0
LINE
8
BLACK
6
CONTINUOUS
10
164.783
20
-88.8732
11
164.864
21
-88.819
0
LINE
8
BLACK
6
CONTINUOUS
10
164.864
20
-88.819
11
164.96
21
-88.8
0
LINE
8
BLACK
6
CONTINUOUS
10
164.96
20
-88.8
11
165.66
21
-88.8
0
LINE
8
BLACK
6
CONTINUOUS
10
165.66
20
-88.8
11
165.756
21
-88.819
0
LINE
8
BLACK
6
CONTINUOUS
10
142.672
20
-88.1114
11
142.721
21
-88.1439
0
LINE
8
BLACK
6
CONTINUOUS
10
142.721
20
-88.1439
11
142.754
21
-88.1926
0
LINE
8
BLACK
6
CONTINUOUS
10
142.754
20
-88.1926
11
142.765
21
-88.25
0
LINE
8
BLACK
6
CONTINUOUS
10
142.765
20
-88.25
11
142.765
21
-89.9
0
LINE
8
BLACK
6
CONTINUOUS
10
142.765
20
-89.9
11
142.754
21
-89.9574
0
LINE
8
BLACK
6
CONTINUOUS
10
142.754
20
-89.9574
11
142.721
21
-90.0061
0
LINE
8
BLACK
6
CONTINUOUS
10
142.721
20
-90.0061
11
142.672
21
-90.0386
0
LINE
8
BLACK
6
CONTINUOUS
10
142.672
20
-90.0386
11
142.615
21
-90.05
0
LINE
8
BLACK
6
CONTINUOUS
10
142.615
20
-90.05
11
142.315
21
-90.05
0
LINE
8
BLACK
6
CONTINUOUS
10
142.315
20
-90.05
11
142.258
21
-90.0386
0
LINE
8
BLACK
6
CONTINUOUS
10
142.258
20
-90.0386
11
142.209
21
-90.0061
0
LINE
8
BLACK
6
CONTINUOUS
10
142.209
20
-90.0061
11
142.176
21
-89.9574
0
LINE
8
BLACK
6
CONTINUOUS
10
142.176
20
-89.9574
11
142.165
21
-89.9
0
LINE
8
BLACK
6
CONTINUOUS
10
142.165
20
-89.9
11
142.165
21
-88.25
0
LINE
8
BLACK
6
CONTINUOUS
10
142.165
20
-88.25
11
142.176
21
-88.1926
0
LINE
8
BLACK
6
CONTINUOUS
10
142.176
20
-88.1926
11
142.209
21
-88.1439
0
LINE
8
BLACK
6
CONTINUOUS
10
142.209
20
-88.1439
11
142.258
21
-88.1114
0
LINE
8
BLACK
6
CONTINUOUS
10
142.258
20
-88.1114
11
142.315
21
-88.1
0
LINE
8
BLACK
6
CONTINUOUS
10
142.315
20
-88.1
11
142.615
21
-88.1
0
LINE
8
BLACK
6
CONTINUOUS
10
142.615
20
-88.1
11
142.672
21
-88.1114
0
LINE
8
BLACK
6
CONTINUOUS
10
143.942
20
-88.1114
11
143.991
21
-88.1439
0
LINE
8
BLACK
6
CONTINUOUS
10
143.991
20
-88.1439
11
144.024
21
-88.1926
0
LINE
8
BLACK
6
CONTINUOUS
10
144.024
20
-88.1926
11
144.035
21
-88.25
0
LINE
8
BLACK
6
CONTINUOUS
10
144.035
20
-88.25
11
144.035
21
-89.9
0
LINE
8
BLACK
6
CONTINUOUS
10
144.035
20
-89.9
11
144.024
21
-89.9574
0
LINE
8
BLACK
6
CONTINUOUS
10
144.024
20
-89.9574
11
143.991
21
-90.0061
0
LINE
8
BLACK
6
CONTINUOUS
10
143.991
20
-90.0061
11
143.942
21
-90.0386
0
LINE
8
BLACK
6
CONTINUOUS
10
143.942
20
-90.0386
11
143.885
21
-90.05
0
LINE
8
BLACK
6
CONTINUOUS
10
143.885
20
-90.05
11
143.585
21
-90.05
0
LINE
8
BLACK
6
CONTINUOUS
10
143.585
20
-90.05
11
143.528
21
-90.0386
0
LINE
8
BLACK
6
CONTINUOUS
10
143.528
20
-90.0386
11
143.479
21
-90.0061
0
LINE
8
BLACK
6
CONTINUOUS
10
143.479
20
-90.0061
11
143.446
21
-89.9574
0
LINE
8
BLACK
6
CONTINUOUS
10
143.446
20
-89.9574
11
143.435
21
-89.9
0
LINE
8
BLACK
6
CONTINUOUS
10
143.435
20
-89.9
11
143.435
21
-88.25
0
LINE
8
BLACK
6
CONTINUOUS
10
143.435
20
-88.25
11
143.446
21
-88.1926
0
LINE
8
BLACK
6
CONTINUOUS
10
143.446
20
-88.1926
11
143.479
21
-88.1439
0
LINE
8
BLACK
6
CONTINUOUS
10
143.479
20
-88.1439
11
143.528
21
-88.1114
0
LINE
8
BLACK
6
CONTINUOUS
10
143.528
20
-88.1114
11
143.585
21
-88.1
0
LINE
8
BLACK
6
CONTINUOUS
10
143.585
20
-88.1
11
143.885
21
-88.1
0
LINE
8
BLACK
6
CONTINUOUS
10
143.885
20
-88.1
11
143.942
21
-88.1114
0
LINE
8
BLACK
6
CONTINUOUS
10
145.212
20
-88.1114
11
145.261
21
-88.1439
0
LINE
8
BLACK
6
CONTINUOUS
10
145.261
20
-88.1439
11
145.294
21
-88.1926
0
LINE
8
BLACK
6
CONTINUOUS
10
145.294
20
-88.1926
11
145.305
21
-88.25
0
LINE
8
BLACK
6
CONTINUOUS
10
145.305
20
-88.25
11
145.305
21
-89.9
0
LINE
8
BLACK
6
CONTINUOUS
10
145.305
20
-89.9
11
145.294
21
-89.9574
0
LINE
8
BLACK
6
CONTINUOUS
10
145.294
20
-89.9574
11
145.261
21
-90.0061
0
LINE
8
BLACK
6
CONTINUOUS
10
145.261
20
-90.0061
11
145.212
21
-90.0386
0
LINE
8
BLACK
6
CONTINUOUS
10
145.212
20
-90.0386
11
145.155
21
-90.05
0
LINE
8
BLACK
6
CONTINUOUS
10
145.155
20
-90.05
11
144.855
21
-90.05
0
LINE
8
BLACK
6
CONTINUOUS
10
144.855
20
-90.05
11
144.798
21
-90.0386
0
LINE
8
BLACK
6
CONTINUOUS
10
144.798
20
-90.0386
11
144.749
21
-90.0061
0
LINE
8
BLACK
6
CONTINUOUS
10
144.749
20
-90.0061
11
144.716
21
-89.9574
0
LINE
8
BLACK
6
CONTINUOUS
10
144.716
20
-89.9574
11
144.705
21
-89.9
0
LINE
8
BLACK
6
CONTINUOUS
10
144.705
20
-89.9
11
144.705
21
-88.25
0
LINE
8
BLACK
6
CONTINUOUS
10
144.705
20
-88.25
11
144.716
21
-88.1926
0
LINE
8
BLACK
6
CONTINUOUS
10
144.716
20
-88.1926
11
144.749
21
-88.1439
0
LINE
8
BLACK
6
CONTINUOUS
10
144.749
20
-88.1439
11
144.798
21
-88.1114
0
LINE
8
BLACK
6
CONTINUOUS
10
144.798
20
-88.1114
11
144.855
21
-88.1
0
LINE
8
BLACK
6
CONTINUOUS
10
144.855
20
-88.1
11
145.155
21
-88.1
0
LINE
8
BLACK
6
CONTINUOUS
10
145.155
20
-88.1
11
145.212
21
-88.1114
0
LINE
8
BLACK
6
CONTINUOUS
10
146.482
20
-88.1114
11
146.531
21
-88.1439
0
LINE
8
BLACK
6
CONTINUOUS
10
146.531
20
-88.1439
11
146.564
21
-88.1926
0
LINE
8
BLACK
6
CONTINUOUS
10
146.564
20
-88.1926
11
146.575
21
-88.25
0
LINE
8
BLACK
6
CONTINUOUS
10
146.575
20
-88.25
11
146.575
21
-89.9
0
LINE
8
BLACK
6
CONTINUOUS
10
146.575
20
-89.9
11
146.564
21
-89.9574
0
LINE
8
BLACK
6
CONTINUOUS
10
146.564
20
-89.9574
11
146.531
21
-90.0061
0
LINE
8
BLACK
6
CONTINUOUS
10
146.531
20
-90.0061
11
146.482
21
-90.0386
0
LINE
8
BLACK
6
CONTINUOUS
10
146.482
20
-90.0386
11
146.425
21
-90.05
0
LINE
8
BLACK
6
CONTINUOUS
10
146.425
20
-90.05
11
146.125
21
-90.05
0
LINE
8
BLACK
6
CONTINUOUS
10
146.125
20
-90.05
11
146.068
21
-90.0386
0
LINE
8
BLACK
6
CONTINUOUS
10
146.068
20
-90.0386
11
146.019
21
-90.0061
0
LINE
8
BLACK
6
CONTINUOUS
10
146.019
20
-90.0061
11
145.986
21
-89.9574
0
LINE
8
BLACK
6
CONTINUOUS
10
145.986
20
-89.9574
11
145.975
21
-89.9
0
LINE
8
BLACK
6
CONTINUOUS
10
145.975
20
-89.9
11
145.975
21
-88.25
0
LINE
8
BLACK
6
CONTINUOUS
10
145.975
20
-88.25
11
145.986
21
-88.1926
0
LINE
8
BLACK
6
CONTINUOUS
10
145.986
20
-88.1926
11
146.019
21
-88.1439
0
LINE
8
BLACK
6
CONTINUOUS
10
146.019
20
-88.1439
11
146.068
21
-88.1114
0
LINE
8
BLACK
6
CONTINUOUS
10
146.068
20
-88.1114
11
146.125
21
-88.1
0
LINE
8
BLACK
6
CONTINUOUS
10
146.125
20
-88.1
11
146.425
21
-88.1
0
LINE
8
BLACK
6
CONTINUOUS
10
146.425
20
-88.1
11
146.482
21
-88.1114
0
LINE
8
BLACK
6
CONTINUOUS
10
147.752
20
-88.1114
11
147.801
21
-88.1439
0
LINE
8
BLACK
6
CONTINUOUS
10
147.801
20
-88.1439
11
147.834
21
-88.1926
0
LINE
8
BLACK
6
CONTINUOUS
10
147.834
20
-88.1926
11
147.845
21
-88.25
0
LINE
8
BLACK
6
CONTINUOUS
10
147.845
20
-88.25
11
147.845
21
-89.9
0
LINE
8
BLACK
6
CONTINUOUS
10
147.845
20
-89.9
11
147.834
21
-89.9574
0
LINE
8
BLACK
6
CONTINUOUS
10
147.834
20
-89.9574
11
147.801
21
-90.0061
0
LINE
8
BLACK
6
CONTINUOUS
10
147.801
20
-90.0061
11
147.752
21
-90.0386
0
LINE
8
BLACK
6
CONTINUOUS
10
147.752
20
-90.0386
11
147.695
21
-90.05
0
LINE
8
BLACK
6
CONTINUOUS
10
147.695
20
-90.05
11
147.395
21
-90.05
0
LINE
8
BLACK
6
CONTINUOUS
10
147.395
20
-90.05
11
147.338
21
-90.0386
0
LINE
8
BLACK
6
CONTINUOUS
10
147.338
20
-90.0386
11
147.289
21
-90.0061
0
LINE
8
BLACK
6
CONTINUOUS
10
147.289
20
-90.0061
11
147.256
21
-89.9574
0
LINE
8
BLACK
6
CONTINUOUS
10
147.256
20
-89.9574
11
147.245
21
-89.9
0
LINE
8
BLACK
6
CONTINUOUS
10
147.245
20
-89.9
11
147.245
21
-88.25
0
LINE
8
BLACK
6
CONTINUOUS
10
147.245
20
-88.25
11
147.256
21
-88.1926
0
LINE
8
BLACK
6
CONTINUOUS
10
147.256
20
-88.1926
11
147.289
21
-88.1439
0
LINE
8
BLACK
6
CONTINUOUS
10
147.289
20
-88.1439
11
147.338
21
-88.1114
0
LINE
8
BLACK
6
CONTINUOUS
10
147.338
20
-88.1114
11
147.395
21
-88.1
0
LINE
8
BLACK
6
CONTINUOUS
10
147.395
20
-88.1
11
147.695
21
-88.1
0
LINE
8
BLACK
6
CONTINUOUS
10
147.695
20
-88.1
11
147.752
21
-88.1114
0
LINE
8
BLACK
6
CONTINUOUS
10
149.022
20
-88.1114
11
149.071
21
-88.1439
0
LINE
8
BLACK
6
CONTINUOUS
10
149.071
20
-88.1439
11
149.104
21
-88.1926
0
LINE
8
BLACK
6
CONTINUOUS
10
149.104
20
-88.1926
11
149.115
21
-88.25
0
LINE
8
BLACK
6
CONTINUOUS
10
149.115
20
-88.25
11
149.115
21
-89.9
0
LINE
8
BLACK
6
CONTINUOUS
10
149.115
20
-89.9
11
149.104
21
-89.9574
0
LINE
8
BLACK
6
CONTINUOUS
10
149.104
20
-89.9574
11
149.071
21
-90.0061
0
LINE
8
BLACK
6
CONTINUOUS
10
149.071
20
-90.0061
11
149.022
21
-90.0386
0
LINE
8
BLACK
6
CONTINUOUS
10
149.022
20
-90.0386
11
148.965
21
-90.05
0
LINE
8
BLACK
6
CONTINUOUS
10
148.965
20
-90.05
11
148.665
21
-90.05
0
LINE
8
BLACK
6
CONTINUOUS
10
148.665
20
-90.05
11
148.608
21
-90.0386
0
LINE
8
BLACK
6
CONTINUOUS
10
148.608
20
-90.0386
11
148.559
21
-90.0061
0
LINE
8
BLACK
6
CONTINUOUS
10
148.559
20
-90.0061
11
148.526
21
-89.9574
0
LINE
8
BLACK
6
CONTINUOUS
10
148.526
20
-89.9574
11
148.515
21
-89.9
0
LINE
8
BLACK
6
CONTINUOUS
10
148.515
20
-89.9
11
148.515
21
-88.25
0
LINE
8
BLACK
6
CONTINUOUS
10
148.515
20
-88.25
11
148.526
21
-88.1926
0
LINE
8
BLACK
6
CONTINUOUS
10
148.526
20
-88.1926
11
148.559
21
-88.1439
0
LINE
8
BLACK
6
CONTINUOUS
10
148.559
20
-88.1439
11
148.608
21
-88.1114
0
LINE
8
BLACK
6
CONTINUOUS
10
148.608
20
-88.1114
11
148.665
21
-88.1
0
LINE
8
BLACK
6
CONTINUOUS
10
148.665
20
-88.1
11
148.965
21
-88.1
0
LINE
8
BLACK
6
CONTINUOUS
10
148.965
20
-88.1
11
149.022
21
-88.1114
0
LINE
8
BLACK
6
CONTINUOUS
10
150.292
20
-88.1114
11
150.341
21
-88.1439
0
LINE
8
BLACK
6
CONTINUOUS
10
150.341
20
-88.1439
11
150.374
21
-88.1926
0
LINE
8
BLACK
6
CONTINUOUS
10
150.374
20
-88.1926
11
150.385
21
-88.25
0
LINE
8
BLACK
6
CONTINUOUS
10
150.385
20
-88.25
11
150.385
21
-89.9
0
LINE
8
BLACK
6
CONTINUOUS
10
150.385
20
-89.9
11
150.374
21
-89.9574
0
LINE
8
BLACK
6
CONTINUOUS
10
150.374
20
-89.9574
11
150.341
21
-90.0061
0
LINE
8
BLACK
6
CONTINUOUS
10
150.341
20
-90.0061
11
150.292
21
-90.0386
0
LINE
8
BLACK
6
CONTINUOUS
10
150.292
20
-90.0386
11
150.235
21
-90.05
0
LINE
8
BLACK
6
CONTINUOUS
10
150.235
20
-90.05
11
149.935
21
-90.05
0
LINE
8
BLACK
6
CONTINUOUS
10
149.935
20
-90.05
11
149.878
21
-90.0386
0
LINE
8
BLACK
6
CONTINUOUS
10
149.878
20
-90.0386
11
149.829
21
-90.0061
0
LINE
8
BLACK
6
CONTINUOUS
10
149.829
20
-90.0061
11
149.796
21
-89.9574
0
LINE
8
BLACK
6
CONTINUOUS
10
149.796
20
-89.9574
11
149.785
21
-89.9
0
LINE
8
BLACK
6
CONTINUOUS
10
149.785
20
-89.9
11
149.785
21
-88.25
0
LINE
8
BLACK
6
CONTINUOUS
10
149.785
20
-88.25
11
149.796
21
-88.1926
0
LINE
8
BLACK
6
CONTINUOUS
10
149.796
20
-88.1926
11
149.829
21
-88.1439
0
LINE
8
BLACK
6
CONTINUOUS
10
149.829
20
-88.1439
11
149.878
21
-88.1114
0
LINE
8
BLACK
6
CONTINUOUS
10
149.878
20
-88.1114
11
149.935
21
-88.1
0
LINE
8
BLACK
6
CONTINUOUS
10
149.935
20
-88.1
11
150.235
21
-88.1
0
LINE
8
BLACK
6
CONTINUOUS
10
150.235
20
-88.1
11
150.292
21
-88.1114
0
LINE
8
BLACK
6
CONTINUOUS
10
151.562
20
-88.1114
11
151.611
21
-88.1439
0
LINE
8
BLACK
6
CONTINUOUS
10
151.611
20
-88.1439
11
151.644
21
-88.1926
0
LINE
8
BLACK
6
CONTINUOUS
10
151.644
20
-88.1926
11
151.655
21
-88.25
0
LINE
8
BLACK
6
CONTINUOUS
10
151.655
20
-88.25
11
151.655
21
-89.9
0
LINE
8
BLACK
6
CONTINUOUS
10
151.655
20
-89.9
11
151.644
21
-89.9574
0
LINE
8
BLACK
6
CONTINUOUS
10
151.644
20
-89.9574
11
151.611
21
-90.0061
0
LINE
8
BLACK
6
CONTINUOUS
10
151.611
20
-90.0061
11
151.562
21
-90.0386
0
LINE
8
BLACK
6
CONTINUOUS
10
151.562
20
-90.0386
11
151.505
21
-90.05
0
LINE
8
BLACK
6
CONTINUOUS
10
151.505
20
-90.05
11
151.205
21
-90.05
0
LINE
8
BLACK
6
CONTINUOUS
10
151.205
20
-90.05
11
151.148
21
-90.0386
0
LINE
8
BLACK
6
CONTINUOUS
10
151.148
20
-90.0386
11
151.099
21
-90.0061
0
LINE
8
BLACK
6
CONTINUOUS
10
151.099
20
-90.0061
11
151.066
21
-89.9574
0
LINE
8
BLACK
6
CONTINUOUS
10
151.066
20
-89.9574
11
151.055
21
-89.9
0
LINE
8
BLACK
6
CONTINUOUS
10
151.055
20
-89.9
11
151.055
21
-88.25
0
LINE
8
BLACK
6
CONTINUOUS
10
151.055
20
-88.25
11
151.066
21
-88.1926
0
LINE
8
BLACK
6
CONTINUOUS
10
151.066
20
-88.1926
11
151.099
21
-88.1439
0
LINE
8
BLACK
6
CONTINUOUS
10
151.099
20
-88.1439
11
151.148
21
-88.1114
0
LINE
8
BLACK
6
CONTINUOUS
10
151.148
20
-88.1114
11
151.205
21
-88.1
0
LINE
8
BLACK
6
CONTINUOUS
10
151.205
20
-88.1
11
151.505
21
-88.1
0
LINE
8
BLACK
6
CONTINUOUS
10
151.505
20
-88.1
11
151.562
21
-88.1114
0
LINE
8
BLACK
6
CONTINUOUS
10
140.981
20
-88.094
11
141.062
21
-88.1482
0
LINE
8
BLACK
6
CONTINUOUS
10
141.062
20
-88.1482
11
141.116
21
-88.2293
0
LINE
8
BLACK
6
CONTINUOUS
10
141.116
20
-88.2293
11
141.135
21
-88.325
0
LINE
8
BLACK
6
CONTINUOUS
10
141.135
20
-88.325
11
141.135
21
-89
0
LINE
8
BLACK
6
CONTINUOUS
10
141.135
20
-89
11
141.116
21
-89.0957
0
LINE
8
BLACK
6
CONTINUOUS
10
141.116
20
-89.0957
11
141.062
21
-89.1768
0
LINE
8
BLACK
6
CONTINUOUS
10
141.062
20
-89.1768
11
140.981
21
-89.231
0
LINE
8
BLACK
6
CONTINUOUS
10
140.981
20
-89.231
11
140.885
21
-89.25
0
LINE
8
BLACK
6
CONTINUOUS
10
140.885
20
-89.25
11
139.935
21
-89.25
0
LINE
8
BLACK
6
CONTINUOUS
10
139.935
20
-89.25
11
139.839
21
-89.231
0
LINE
8
BLACK
6
CONTINUOUS
10
139.839
20
-89.231
11
139.758
21
-89.1768
0
LINE
8
BLACK
6
CONTINUOUS
10
139.758
20
-89.1768
11
139.704
21
-89.0957
0
LINE
8
BLACK
6
CONTINUOUS
10
139.704
20
-89.0957
11
139.685
21
-89
0
LINE
8
BLACK
6
CONTINUOUS
10
139.685
20
-89
11
139.685
21
-88.325
0
LINE
8
BLACK
6
CONTINUOUS
10
139.685
20
-88.325
11
139.704
21
-88.2293
0
LINE
8
BLACK
6
CONTINUOUS
10
139.704
20
-88.2293
11
139.758
21
-88.1482
0
LINE
8
BLACK
6
CONTINUOUS
10
139.758
20
-88.1482
11
139.839
21
-88.094
0
LINE
8
BLACK
6
CONTINUOUS
10
139.839
20
-88.094
11
139.935
21
-88.075
0
LINE
8
BLACK
6
CONTINUOUS
10
139.935
20
-88.075
11
140.885
21
-88.075
0
LINE
8
BLACK
6
CONTINUOUS
10
140.885
20
-88.075
11
140.981
21
-88.094
0
LINE
8
BLACK
6
CONTINUOUS
10
153.706
20
-86.794
11
153.787
21
-86.8482
0
LINE
8
BLACK
6
CONTINUOUS
10
153.787
20
-86.8482
11
153.841
21
-86.9293
0
LINE
8
BLACK
6
CONTINUOUS
10
153.841
20
-86.9293
11
153.86
21
-87.025
0
LINE
8
BLACK
6
CONTINUOUS
10
153.86
20
-87.025
11
153.86
21
-87.975
0
LINE
8
BLACK
6
CONTINUOUS
10
153.86
20
-87.975
11
153.841
21
-88.0707
0
LINE
8
BLACK
6
CONTINUOUS
10
153.841
20
-88.0707
11
153.787
21
-88.1518
0
LINE
8
BLACK
6
CONTINUOUS
10
153.787
20
-88.1518
11
153.706
21
-88.206
0
LINE
8
BLACK
6
CONTINUOUS
10
153.706
20
-88.206
11
153.61
21
-88.225
0
LINE
8
BLACK
6
CONTINUOUS
10
153.61
20
-88.225
11
152.935
21
-88.225
0
LINE
8
BLACK
6
CONTINUOUS
10
152.935
20
-88.225
11
152.839
21
-88.206
0
LINE
8
BLACK
6
CONTINUOUS
10
152.839
20
-88.206
11
152.758
21
-88.1518
0
LINE
8
BLACK
6
CONTINUOUS
10
152.758
20
-88.1518
11
152.704
21
-88.0707
0
LINE
8
BLACK
6
CONTINUOUS
10
152.704
20
-88.0707
11
152.685
21
-87.975
0
LINE
8
BLACK
6
CONTINUOUS
10
152.685
20
-87.975
11
152.685
21
-87.025
0
LINE
8
BLACK
6
CONTINUOUS
10
152.685
20
-87.025
11
152.704
21
-86.9293
0
LINE
8
BLACK
6
CONTINUOUS
10
152.704
20
-86.9293
11
152.758
21
-86.8482
0
LINE
8
BLACK
6
CONTINUOUS
10
152.758
20
-86.8482
11
152.839
21
-86.794
0
LINE
8
BLACK
6
CONTINUOUS
10
152.839
20
-86.794
11
152.935
21
-86.775
0
LINE
8
BLACK
6
CONTINUOUS
10
152.935
20
-86.775
11
153.61
21
-86.775
0
LINE
8
BLACK
6
CONTINUOUS
10
153.61
20
-86.775
11
153.706
21
-86.794
0
LINE
8
BLACK
6
CONTINUOUS
10
155.781
20
-86.794
11
155.862
21
-86.8482
0
LINE
8
BLACK
6
CONTINUOUS
10
155.862
20
-86.8482
11
155.916
21
-86.9293
0
LINE
8
BLACK
6
CONTINUOUS
10
155.916
20
-86.9293
11
155.935
21
-87.025
0
LINE
8
BLACK
6
CONTINUOUS
10
155.935
20
-87.025
11
155.935
21
-87.975
0
LINE
8
BLACK
6
CONTINUOUS
10
155.935
20
-87.975
11
155.916
21
-88.0707
0
LINE
8
BLACK
6
CONTINUOUS
10
155.916
20
-88.0707
11
155.862
21
-88.1518
0
LINE
8
BLACK
6
CONTINUOUS
10
155.862
20
-88.1518
11
155.781
21
-88.206
0
LINE
8
BLACK
6
CONTINUOUS
10
155.781
20
-88.206
11
155.685
21
-88.225
0
LINE
8
BLACK
6
CONTINUOUS
10
155.685
20
-88.225
11
155.01
21
-88.225
0
LINE
8
BLACK
6
CONTINUOUS
10
155.01
20
-88.225
11
154.914
21
-88.206
0
LINE
8
BLACK
6
CONTINUOUS
10
154.914
20
-88.206
11
154.833
21
-88.1518
0
LINE
8
BLACK
6
CONTINUOUS
10
154.833
20
-88.1518
11
154.779
21
-88.0707
0
LINE
8
BLACK
6
CONTINUOUS
10
154.779
20
-88.0707
11
154.76
21
-87.975
0
LINE
8
BLACK
6
CONTINUOUS
10
154.76
20
-87.975
11
154.76
21
-87.025
0
LINE
8
BLACK
6
CONTINUOUS
10
154.76
20
-87.025
11
154.779
21
-86.9293
0
LINE
8
BLACK
6
CONTINUOUS
10
154.779
20
-86.9293
11
154.833
21
-86.8482
0
LINE
8
BLACK
6
CONTINUOUS
10
154.833
20
-86.8482
11
154.914
21
-86.794
0
LINE
8
BLACK
6
CONTINUOUS
10
154.914
20
-86.794
11
155.01
21
-86.775
0
LINE
8
BLACK
6
CONTINUOUS
10
155.01
20
-86.775
11
155.685
21
-86.775
0
LINE
8
BLACK
6
CONTINUOUS
10
155.685
20
-86.775
11
155.781
21
-86.794
0
LINE
8
BLACK
6
CONTINUOUS
10
157.981
20
-86.969
11
158.062
21
-87.0232
0
LINE
8
BLACK
6
CONTINUOUS
10
158.062
20
-87.0232
11
158.116
21
-87.1043
0
LINE
8
BLACK
6
CONTINUOUS
10
158.116
20
-87.1043
11
158.135
21
-87.2
0
LINE
8
BLACK
6
CONTINUOUS
10
158.135
20
-87.2
11
158.135
21
-87.875
0
LINE
8
BLACK
6
CONTINUOUS
10
158.135
20
-87.875
11
158.116
21
-87.9707
0
LINE
8
BLACK
6
CONTINUOUS
10
158.116
20
-87.9707
11
158.062
21
-88.0518
0
LINE
8
BLACK
6
CONTINUOUS
10
158.062
20
-88.0518
11
157.981
21
-88.106
0
LINE
8
BLACK
6
CONTINUOUS
10
157.981
20
-88.106
11
157.885
21
-88.125
0
LINE
8
BLACK
6
CONTINUOUS
10
157.885
20
-88.125
11
156.935
21
-88.125
0
LINE
8
BLACK
6
CONTINUOUS
10
156.935
20
-88.125
11
156.839
21
-88.106
0
LINE
8
BLACK
6
CONTINUOUS
10
156.839
20
-88.106
11
156.758
21
-88.0518
0
LINE
8
BLACK
6
CONTINUOUS
10
156.758
20
-88.0518
11
156.704
21
-87.9707
0
LINE
8
BLACK
6
CONTINUOUS
10
156.704
20
-87.9707
11
156.685
21
-87.875
0
LINE
8
BLACK
6
CONTINUOUS
10
156.685
20
-87.875
11
156.685
21
-87.2
0
LINE
8
BLACK
6
CONTINUOUS
10
156.685
20
-87.2
11
156.704
21
-87.1043
0
LINE
8
BLACK
6
CONTINUOUS
10
156.704
20
-87.1043
11
156.758
21
-87.0232
0
LINE
8
BLACK
6
CONTINUOUS
10
156.758
20
-87.0232
11
156.839
21
-86.969
0
LINE
8
BLACK
6
CONTINUOUS
10
156.839
20
-86.969
11
156.935
21
-86.95
0
LINE
8
BLACK
6
CONTINUOUS
10
156.935
20
-86.95
11
157.885
21
-86.95
0
LINE
8
BLACK
6
CONTINUOUS
10
157.885
20
-86.95
11
157.981
21
-86.969
0
LINE
8
BLACK
6
CONTINUOUS
10
160.181
20
-86.969
11
160.262
21
-87.0232
0
LINE
8
BLACK
6
CONTINUOUS
10
160.262
20
-87.0232
11
160.316
21
-87.1043
0
LINE
8
BLACK
6
CONTINUOUS
10
160.316
20
-87.1043
11
160.335
21
-87.2
0
LINE
8
BLACK
6
CONTINUOUS
10
160.335
20
-87.2
11
160.335
21
-87.875
0
LINE
8
BLACK
6
CONTINUOUS
10
160.335
20
-87.875
11
160.316
21
-87.9707
0
LINE
8
BLACK
6
CONTINUOUS
10
160.316
20
-87.9707
11
160.262
21
-88.0518
0
LINE
8
BLACK
6
CONTINUOUS
10
160.262
20
-88.0518
11
160.181
21
-88.106
0
LINE
8
BLACK
6
CONTINUOUS
10
160.181
20
-88.106
11
160.085
21
-88.125
0
LINE
8
BLACK
6
CONTINUOUS
10
160.085
20
-88.125
11
159.135
21
-88.125
0
LINE
8
BLACK
6
CONTINUOUS
10
159.135
20
-88.125
11
159.039
21
-88.106
0
LINE
8
BLACK
6
CONTINUOUS
10
159.039
20
-88.106
11
158.958
21
-88.0518
0
LINE
8
BLACK
6
CONTINUOUS
10
158.958
20
-88.0518
11
158.904
21
-87.9707
0
LINE
8
BLACK
6
CONTINUOUS
10
158.904
20
-87.9707
11
158.885
21
-87.875
0
LINE
8
BLACK
6
CONTINUOUS
10
158.885
20
-87.875
11
158.885
21
-87.2
0
LINE
8
BLACK
6
CONTINUOUS
10
158.885
20
-87.2
11
158.904
21
-87.1043
0
LINE
8
BLACK
6
CONTINUOUS
10
158.904
20
-87.1043
11
158.958
21
-87.0232
0
LINE
8
BLACK
6
CONTINUOUS
10
158.958
20
-87.0232
11
159.039
21
-86.969
0
LINE
8
BLACK
6
CONTINUOUS
10
159.039
20
-86.969
11
159.135
21
-86.95
0
LINE
8
BLACK
6
CONTINUOUS
10
159.135
20
-86.95
11
160.085
21
-86.95
0
LINE
8
BLACK
6
CONTINUOUS
10
160.085
20
-86.95
11
160.181
21
-86.969
0
LINE
8
BLACK
6
CONTINUOUS
10
162.281
20
-86.969
11
162.362
21
-87.0232
0
LINE
8
BLACK
6
CONTINUOUS
10
162.362
20
-87.0232
11
162.416
21
-87.1043
0
LINE
8
BLACK
6
CONTINUOUS
10
162.416
20
-87.1043
11
162.435
21
-87.2
0
LINE
8
BLACK
6
CONTINUOUS
10
162.435
20
-87.2
11
162.435
21
-87.875
0
LINE
8
BLACK
6
CONTINUOUS
10
162.435
20
-87.875
11
162.416
21
-87.9707
0
LINE
8
BLACK
6
CONTINUOUS
10
162.416
20
-87.9707
11
162.362
21
-88.0518
0
LINE
8
BLACK
6
CONTINUOUS
10
162.362
20
-88.0518
11
162.281
21
-88.106
0
LINE
8
BLACK
6
CONTINUOUS
10
162.281
20
-88.106
11
162.185
21
-88.125
0
LINE
8
BLACK
6
CONTINUOUS
10
162.185
20
-88.125
11
161.235
21
-88.125
0
LINE
8
BLACK
6
CONTINUOUS
10
161.235
20
-88.125
11
161.139
21
-88.106
0
LINE
8
BLACK
6
CONTINUOUS
10
161.139
20
-88.106
11
161.058
21
-88.0518
0
LINE
8
BLACK
6
CONTINUOUS
10
161.058
20
-88.0518
11
161.004
21
-87.9707
0
LINE
8
BLACK
6
CONTINUOUS
10
161.004
20
-87.9707
11
160.985
21
-87.875
0
LINE
8
BLACK
6
CONTINUOUS
10
160.985
20
-87.875
11
160.985
21
-87.2
0
LINE
8
BLACK
6
CONTINUOUS
10
160.985
20
-87.2
11
161.004
21
-87.1043
0
LINE
8
BLACK
6
CONTINUOUS
10
161.004
20
-87.1043
11
161.058
21
-87.0232
0
LINE
8
BLACK
6
CONTINUOUS
10
161.058
20
-87.0232
11
161.139
21
-86.969
0
LINE
8
BLACK
6
CONTINUOUS
10
161.139
20
-86.969
11
161.235
21
-86.95
0
LINE
8
BLACK
6
CONTINUOUS
10
161.235
20
-86.95
11
162.185
21
-86.95
0
LINE
8
BLACK
6
CONTINUOUS
10
162.185
20
-86.95
11
162.281
21
-86.969
0
LINE
8
BLACK
6
CONTINUOUS
10
140.981
20
-86.269
11
141.062
21
-86.3232
0
LINE
8
BLACK
6
CONTINUOUS
10
141.062
20
-86.3232
11
141.116
21
-86.4043
0
LINE
8
BLACK
6
CONTINUOUS
10
141.116
20
-86.4043
11
141.135
21
-86.5
0
LINE
8
BLACK
6
CONTINUOUS
10
141.135
20
-86.5
11
141.135
21
-87.175
0
LINE
8
BLACK
6
CONTINUOUS
10
141.135
20
-87.175
11
141.116
21
-87.2707
0
LINE
8
BLACK
6
CONTINUOUS
10
141.116
20
-87.2707
11
141.062
21
-87.3518
0
LINE
8
BLACK
6
CONTINUOUS
10
141.062
20
-87.3518
11
140.981
21
-87.406
0
LINE
8
BLACK
6
CONTINUOUS
10
140.981
20
-87.406
11
140.885
21
-87.425
0
LINE
8
BLACK
6
CONTINUOUS
10
140.885
20
-87.425
11
139.935
21
-87.425
0
LINE
8
BLACK
6
CONTINUOUS
10
139.935
20
-87.425
11
139.839
21
-87.406
0
LINE
8
BLACK
6
CONTINUOUS
10
139.839
20
-87.406
11
139.758
21
-87.3518
0
LINE
8
BLACK
6
CONTINUOUS
10
139.758
20
-87.3518
11
139.704
21
-87.2707
0
LINE
8
BLACK
6
CONTINUOUS
10
139.704
20
-87.2707
11
139.685
21
-87.175
0
LINE
8
BLACK
6
CONTINUOUS
10
139.685
20
-87.175
11
139.685
21
-86.5
0
LINE
8
BLACK
6
CONTINUOUS
10
139.685
20
-86.5
11
139.704
21
-86.4043
0
LINE
8
BLACK
6
CONTINUOUS
10
139.704
20
-86.4043
11
139.758
21
-86.3232
0
LINE
8
BLACK
6
CONTINUOUS
10
139.758
20
-86.3232
11
139.839
21
-86.269
0
LINE
8
BLACK
6
CONTINUOUS
10
139.839
20
-86.269
11
139.935
21
-86.25
0
LINE
8
BLACK
6
CONTINUOUS
10
139.935
20
-86.25
11
140.885
21
-86.25
0
LINE
8
BLACK
6
CONTINUOUS
10
140.885
20
-86.25
11
140.981
21
-86.269
0
LINE
8
BLACK
6
CONTINUOUS
10
157.981
20
-84.894
11
158.062
21
-84.9482
0
LINE
8
BLACK
6
CONTINUOUS
10
158.062
20
-84.9482
11
158.116
21
-85.0293
0
LINE
8
BLACK
6
CONTINUOUS
10
158.116
20
-85.0293
11
158.135
21
-85.125
0
LINE
8
BLACK
6
CONTINUOUS
10
158.135
20
-85.125
11
158.135
21
-85.8
0
LINE
8
BLACK
6
CONTINUOUS
10
158.135
20
-85.8
11
158.116
21
-85.8957
0
LINE
8
BLACK
6
CONTINUOUS
10
158.116
20
-85.8957
11
158.062
21
-85.9768
0
LINE
8
BLACK
6
CONTINUOUS
10
158.062
20
-85.9768
11
157.981
21
-86.031
0
LINE
8
BLACK
6
CONTINUOUS
10
157.981
20
-86.031
11
157.885
21
-86.05
0
LINE
8
BLACK
6
CONTINUOUS
10
157.885
20
-86.05
11
156.935
21
-86.05
0
LINE
8
BLACK
6
CONTINUOUS
10
156.935
20
-86.05
11
156.839
21
-86.031
0
LINE
8
BLACK
6
CONTINUOUS
10
156.839
20
-86.031
11
156.758
21
-85.9768
0
LINE
8
BLACK
6
CONTINUOUS
10
156.758
20
-85.9768
11
156.704
21
-85.8957
0
LINE
8
BLACK
6
CONTINUOUS
10
156.704
20
-85.8957
11
156.685
21
-85.8
0
LINE
8
BLACK
6
CONTINUOUS
10
156.685
20
-85.8
11
156.685
21
-85.125
0
LINE
8
BLACK
6
CONTINUOUS
10
156.685
20
-85.125
11
156.704
21
-85.0293
0
LINE
8
BLACK
6
CONTINUOUS
10
156.704
20
-85.0293
11
156.758
21
-84.9482
0
LINE
8
BLACK
6
CONTINUOUS
10
156.758
20
-84.9482
11
156.839
21
-84.894
0
LINE
8
BLACK
6
CONTINUOUS
10
156.839
20
-84.894
11
156.935
21
-84.875
0
LINE
8
BLACK
6
CONTINUOUS
10
156.935
20
-84.875
11
157.885
21
-84.875
0
LINE
8
BLACK
6
CONTINUOUS
10
157.885
20
-84.875
11
157.981
21
-84.894
0
LINE
8
BLACK
6
CONTINUOUS
10
160.181
20
-84.894
11
160.262
21
-84.9482
0
LINE
8
BLACK
6
CONTINUOUS
10
160.262
20
-84.9482
11
160.316
21
-85.0293
0
LINE
8
BLACK
6
CONTINUOUS
10
160.316
20
-85.0293
11
160.335
21
-85.125
0
LINE
8
BLACK
6
CONTINUOUS
10
160.335
20
-85.125
11
160.335
21
-85.8
0
LINE
8
BLACK
6
CONTINUOUS
10
160.335
20
-85.8
11
160.316
21
-85.8957
0
LINE
8
BLACK
6
CONTINUOUS
10
160.316
20
-85.8957
11
160.262
21
-85.9768
0
LINE
8
BLACK
6
CONTINUOUS
10
160.262
20
-85.9768
11
160.181
21
-86.031
0
LINE
8
BLACK
6
CONTINUOUS
10
160.181
20
-86.031
11
160.085
21
-86.05
0
LINE
8
BLACK
6
CONTINUOUS
10
160.085
20
-86.05
11
159.135
21
-86.05
0
LINE
8
BLACK
6
CONTINUOUS
10
159.135
20
-86.05
11
159.039
21
-86.031
0
LINE
8
BLACK
6
CONTINUOUS
10
159.039
20
-86.031
11
158.958
21
-85.9768
0
LINE
8
BLACK
6
CONTINUOUS
10
158.958
20
-85.9768
11
158.904
21
-85.8957
0
LINE
8
BLACK
6
CONTINUOUS
10
158.904
20
-85.8957
11
158.885
21
-85.8
0
LINE
8
BLACK
6
CONTINUOUS
10
158.885
20
-85.8
11
158.885
21
-85.125
0
LINE
8
BLACK
6
CONTINUOUS
10
158.885
20
-85.125
11
158.904
21
-85.0293
0
LINE
8
BLACK
6
CONTINUOUS
10
158.904
20
-85.0293
11
158.958
21
-84.9482
0
LINE
8
BLACK
6
CONTINUOUS
10
158.958
20
-84.9482
11
159.039
21
-84.894
0
LINE
8
BLACK
6
CONTINUOUS
10
159.039
20
-84.894
11
159.135
21
-84.875
0
LINE
8
BLACK
6
CONTINUOUS
10
159.135
20
-84.875
11
160.085
21
-84.875
0
LINE
8
BLACK
6
CONTINUOUS
10
160.085
20
-84.875
11
160.181
21
-84.894
0
LINE
8
BLACK
6
CONTINUOUS
10
162.281
20
-84.894
11
162.362
21
-84.9482
0
LINE
8
BLACK
6
CONTINUOUS
10
162.362
20
-84.9482
11
162.416
21
-85.0293
0
LINE
8
BLACK
6
CONTINUOUS
10
162.416
20
-85.0293
11
162.435
21
-85.125
0
LINE
8
BLACK
6
CONTINUOUS
10
162.435
20
-85.125
11
162.435
21
-85.8
0
LINE
8
BLACK
6
CONTINUOUS
10
162.435
20
-85.8
11
162.416
21
-85.8957
0
LINE
8
BLACK
6
CONTINUOUS
10
162.416
20
-85.8957
11
162.362
21
-85.9768
0
LINE
8
BLACK
6
CONTINUOUS
10
162.362
20
-85.9768
11
162.281
21
-86.031
0
LINE
8
BLACK
6
CONTINUOUS
10
162.281
20
-86.031
11
162.185
21
-86.05
0
LINE
8
BLACK
6
CONTINUOUS
10
162.185
20
-86.05
11
161.235
21
-86.05
0
LINE
8
BLACK
6
CONTINUOUS
10
161.235
20
-86.05
11
161.139
21
-86.031
0
LINE
8
BLACK
6
CONTINUOUS
10
161.139
20
-86.031
11
161.058
21
-85.9768
0
LINE
8
BLACK
6
CONTINUOUS
10
161.058
20
-85.9768
11
161.004
21
-85.8957
0
LINE
8
BLACK
6
CONTINUOUS
10
161.004
20
-85.8957
11
160.985
21
-85.8
0
LINE
8
BLACK
6
CONTINUOUS
10
160.985
20
-85.8
11
160.985
21
-85.125
0
LINE
8
BLACK
6
CONTINUOUS
10
160.985
20
-85.125
11
161.004
21
-85.0293
0
LINE
8
BLACK
6
CONTINUOUS
10
161.004
20
-85.0293
11
161.058
21
-84.9482
0
LINE
8
BLACK
6
CONTINUOUS
10
161.058
20
-84.9482
11
161.139
21
-84.894
0
LINE
8
BLACK
6
CONTINUOUS
10
161.139
20
-84.894
11
161.235
21
-84.875
0
LINE
8
BLACK
6
CONTINUOUS
10
161.235
20
-84.875
11
162.185
21
-84.875
0
LINE
8
BLACK
6
CONTINUOUS
10
162.185
20
-84.875
11
162.281
21
-84.894
0
LINE
8
BLACK
6
CONTINUOUS
10
140.981
20
-84.194
11
141.062
21
-84.2482
0
LINE
8
BLACK
6
CONTINUOUS
10
141.062
20
-84.2482
11
141.116
21
-84.3293
0
LINE
8
BLACK
6
CONTINUOUS
10
141.116
20
-84.3293
11
141.135
21
-84.425
0
LINE
8
BLACK
6
CONTINUOUS
10
141.135
20
-84.425
11
141.135
21
-85.1
0
LINE
8
BLACK
6
CONTINUOUS
10
141.135
20
-85.1
11
141.116
21
-85.1957
0
LINE
8
BLACK
6
CONTINUOUS
10
141.116
20
-85.1957
11
141.062
21
-85.2768
0
LINE
8
BLACK
6
CONTINUOUS
10
141.062
20
-85.2768
11
140.981
21
-85.331
0
LINE
8
BLACK
6
CONTINUOUS
10
140.981
20
-85.331
11
140.885
21
-85.35
0
LINE
8
BLACK
6
CONTINUOUS
10
140.885
20
-85.35
11
139.935
21
-85.35
0
LINE
8
BLACK
6
CONTINUOUS
10
139.935
20
-85.35
11
139.839
21
-85.331
0
LINE
8
BLACK
6
CONTINUOUS
10
139.839
20
-85.331
11
139.758
21
-85.2768
0
LINE
8
BLACK
6
CONTINUOUS
10
139.758
20
-85.2768
11
139.704
21
-85.1957
0
LINE
8
BLACK
6
CONTINUOUS
10
139.704
20
-85.1957
11
139.685
21
-85.1
0
LINE
8
BLACK
6
CONTINUOUS
10
139.685
20
-85.1
11
139.685
21
-84.425
0
LINE
8
BLACK
6
CONTINUOUS
10
139.685
20
-84.425
11
139.704
21
-84.3293
0
LINE
8
BLACK
6
CONTINUOUS
10
139.704
20
-84.3293
11
139.758
21
-84.2482
0
LINE
8
BLACK
6
CONTINUOUS
10
139.758
20
-84.2482
11
139.839
21
-84.194
0
LINE
8
BLACK
6
CONTINUOUS
10
139.839
20
-84.194
11
139.935
21
-84.175
0
LINE
8
BLACK
6
CONTINUOUS
10
139.935
20
-84.175
11
140.885
21
-84.175
0
LINE
8
BLACK
6
CONTINUOUS
10
140.885
20
-84.175
11
140.981
21
-84.194
0
LINE
8
BLACK
6
CONTINUOUS
10
142.672
20
-83.1614
11
142.721
21
-83.1939
0
LINE
8
BLACK
6
CONTINUOUS
10
142.721
20
-83.1939
11
142.754
21
-83.2426
0
LINE
8
BLACK
6
CONTINUOUS
10
142.754
20
-83.2426
11
142.765
21
-83.3
0
LINE
8
BLACK
6
CONTINUOUS
10
142.765
20
-83.3
11
142.765
21
-84.95
0
LINE
8
BLACK
6
CONTINUOUS
10
142.765
20
-84.95
11
142.754
21
-85.0074
0
LINE
8
BLACK
6
CONTINUOUS
10
142.754
20
-85.0074
11
142.721
21
-85.0561
0
LINE
8
BLACK
6
CONTINUOUS
10
142.721
20
-85.0561
11
142.672
21
-85.0886
0
LINE
8
BLACK
6
CONTINUOUS
10
142.672
20
-85.0886
11
142.615
21
-85.1
0
LINE
8
BLACK
6
CONTINUOUS
10
142.615
20
-85.1
11
142.315
21
-85.1
0
LINE
8
BLACK
6
CONTINUOUS
10
142.315
20
-85.1
11
142.258
21
-85.0886
0
LINE
8
BLACK
6
CONTINUOUS
10
142.258
20
-85.0886
11
142.209
21
-85.0561
0
LINE
8
BLACK
6
CONTINUOUS
10
142.209
20
-85.0561
11
142.176
21
-85.0074
0
LINE
8
BLACK
6
CONTINUOUS
10
142.176
20
-85.0074
11
142.165
21
-84.95
0
LINE
8
BLACK
6
CONTINUOUS
10
142.165
20
-84.95
11
142.165
21
-83.3
0
LINE
8
BLACK
6
CONTINUOUS
10
142.165
20
-83.3
11
142.176
21
-83.2426
0
LINE
8
BLACK
6
CONTINUOUS
10
142.176
20
-83.2426
11
142.209
21
-83.1939
0
LINE
8
BLACK
6
CONTINUOUS
10
142.209
20
-83.1939
11
142.258
21
-83.1614
0
LINE
8
BLACK
6
CONTINUOUS
10
142.258
20
-83.1614
11
142.315
21
-83.15
0
LINE
8
BLACK
6
CONTINUOUS
10
142.315
20
-83.15
11
142.615
21
-83.15
0
LINE
8
BLACK
6
CONTINUOUS
10
142.615
20
-83.15
11
142.672
21
-83.1614
0
LINE
8
BLACK
6
CONTINUOUS
10
143.942
20
-83.1614
11
143.991
21
-83.1939
0
LINE
8
BLACK
6
CONTINUOUS
10
143.991
20
-83.1939
11
144.024
21
-83.2426
0
LINE
8
BLACK
6
CONTINUOUS
10
144.024
20
-83.2426
11
144.035
21
-83.3
0
LINE
8
BLACK
6
CONTINUOUS
10
144.035
20
-83.3
11
144.035
21
-84.95
0
LINE
8
BLACK
6
CONTINUOUS
10
144.035
20
-84.95
11
144.024
21
-85.0074
0
LINE
8
BLACK
6
CONTINUOUS
10
144.024
20
-85.0074
11
143.991
21
-85.0561
0
LINE
8
BLACK
6
CONTINUOUS
10
143.991
20
-85.0561
11
143.942
21
-85.0886
0
LINE
8
BLACK
6
CONTINUOUS
10
143.942
20
-85.0886
11
143.885
21
-85.1
0
LINE
8
BLACK
6
CONTINUOUS
10
143.885
20
-85.1
11
143.585
21
-85.1
0
LINE
8
BLACK
6
CONTINUOUS
10
143.585
20
-85.1
11
143.528
21
-85.0886
0
LINE
8
BLACK
6
CONTINUOUS
10
143.528
20
-85.0886
11
143.479
21
-85.0561
0
LINE
8
BLACK
6
CONTINUOUS
10
143.479
20
-85.0561
11
143.446
21
-85.0074
0
LINE
8
BLACK
6
CONTINUOUS
10
143.446
20
-85.0074
11
143.435
21
-84.95
0
LINE
8
BLACK
6
CONTINUOUS
10
143.435
20
-84.95
11
143.435
21
-83.3
0
LINE
8
BLACK
6
CONTINUOUS
10
143.435
20
-83.3
11
143.446
21
-83.2426
0
LINE
8
BLACK
6
CONTINUOUS
10
143.446
20
-83.2426
11
143.479
21
-83.1939
0
LINE
8
BLACK
6
CONTINUOUS
10
143.479
20
-83.1939
11
143.528
21
-83.1614
0
LINE
8
BLACK
6
CONTINUOUS
10
143.528
20
-83.1614
11
143.585
21
-83.15
0
LINE
8
BLACK
6
CONTINUOUS
10
143.585
20
-83.15
11
143.885
21
-83.15
0
LINE
8
BLACK
6
CONTINUOUS
10
143.885
20
-83.15
11
143.942
21
-83.1614
0
LINE
8
BLACK
6
CONTINUOUS
10
145.212
20
-83.1614
11
145.261
21
-83.1939
0
LINE
8
BLACK
6
CONTINUOUS
10
145.261
20
-83.1939
11
145.294
21
-83.2426
0
LINE
8
BLACK
6
CONTINUOUS
10
145.294
20
-83.2426
11
145.305
21
-83.3
0
LINE
8
BLACK
6
CONTINUOUS
10
145.305
20
-83.3
11
145.305
21
-84.95
0
LINE
8
BLACK
6
CONTINUOUS
10
145.305
20
-84.95
11
145.294
21
-85.0074
0
LINE
8
BLACK
6
CONTINUOUS
10
145.294
20
-85.0074
11
145.261
21
-85.0561
0
LINE
8
BLACK
6
CONTINUOUS
10
145.261
20
-85.0561
11
145.212
21
-85.0886
0
LINE
8
BLACK
6
CONTINUOUS
10
145.212
20
-85.0886
11
145.155
21
-85.1
0
LINE
8
BLACK
6
CONTINUOUS
10
145.155
20
-85.1
11
144.855
21
-85.1
0
LINE
8
BLACK
6
CONTINUOUS
10
144.855
20
-85.1
11
144.798
21
-85.0886
0
LINE
8
BLACK
6
CONTINUOUS
10
144.798
20
-85.0886
11
144.749
21
-85.0561
0
LINE
8
BLACK
6
CONTINUOUS
10
144.749
20
-85.0561
11
144.716
21
-85.0074
0
LINE
8
BLACK
6
CONTINUOUS
10
144.716
20
-85.0074
11
144.705
21
-84.95
0
LINE
8
BLACK
6
CONTINUOUS
10
144.705
20
-84.95
11
144.705
21
-83.3
0
LINE
8
BLACK
6
CONTINUOUS
10
144.705
20
-83.3
11
144.716
21
-83.2426
0
LINE
8
BLACK
6
CONTINUOUS
10
144.716
20
-83.2426
11
144.749
21
-83.1939
0
LINE
8
BLACK
6
CONTINUOUS
10
144.749
20
-83.1939
11
144.798
21
-83.1614
0
LINE
8
BLACK
6
CONTINUOUS
10
144.798
20
-83.1614
11
144.855
21
-83.15
0
LINE
8
BLACK
6
CONTINUOUS
10
144.855
20
-83.15
11
145.155
21
-83.15
0
LINE
8
BLACK
6
CONTINUOUS
10
145.155
20
-83.15
11
145.212
21
-83.1614
0
LINE
8
BLACK
6
CONTINUOUS
10
146.482
20
-83.1614
11
146.531
21
-83.1939
0
LINE
8
BLACK
6
CONTINUOUS
10
146.531
20
-83.1939
11
146.564
21
-83.2426
0
LINE
8
BLACK
6
CONTINUOUS
10
146.564
20
-83.2426
11
146.575
21
-83.3
0
LINE
8
BLACK
6
CONTINUOUS
10
146.575
20
-83.3
11
146.575
21
-84.95
0
LINE
8
BLACK
6
CONTINUOUS
10
146.575
20
-84.95
11
146.564
21
-85.0074
0
LINE
8
BLACK
6
CONTINUOUS
10
146.564
20
-85.0074
11
146.531
21
-85.0561
0
LINE
8
BLACK
6
CONTINUOUS
10
146.531
20
-85.0561
11
146.482
21
-85.0886
0
LINE
8
BLACK
6
CONTINUOUS
10
146.482
20
-85.0886
11
146.425
21
-85.1
0
LINE
8
BLACK
6
CONTINUOUS
10
146.425
20
-85.1
11
146.125
21
-85.1
0
LINE
8
BLACK
6
CONTINUOUS
10
146.125
20
-85.1
11
146.068
21
-85.0886
0
LINE
8
BLACK
6
CONTINUOUS
10
146.068
20
-85.0886
11
146.019
21
-85.0561
0
LINE
8
BLACK
6
CONTINUOUS
10
146.019
20
-85.0561
11
145.986
21
-85.0074
0
LINE
8
BLACK
6
CONTINUOUS
10
145.986
20
-85.0074
11
145.975
21
-84.95
0
LINE
8
BLACK
6
CONTINUOUS
10
145.975
20
-84.95
11
145.975
21
-83.3
0
LINE
8
BLACK
6
CONTINUOUS
10
145.975
20
-83.3
11
145.986
21
-83.2426
0
LINE
8
BLACK
6
CONTINUOUS
10
145.986
20
-83.2426
11
146.019
21
-83.1939
0
LINE
8
BLACK
6
CONTINUOUS
10
146.019
20
-83.1939
11
146.068
21
-83.1614
0
LINE
8
BLACK
6
CONTINUOUS
10
146.068
20
-83.1614
11
146.125
21
-83.15
0
LINE
8
BLACK
6
CONTINUOUS
10
146.125
20
-83.15
11
146.425
21
-83.15
0
LINE
8
BLACK
6
CONTINUOUS
10
146.425
20
-83.15
11
146.482
21
-83.1614
0
LINE
8
BLACK
6
CONTINUOUS
10
147.752
20
-83.1614
11
147.801
21
-83.1939
0
LINE
8
BLACK
6
CONTINUOUS
10
147.801
20
-83.1939
11
147.834
21
-83.2426
0
LINE
8
BLACK
6
CONTINUOUS
10
147.834
20
-83.2426
11
147.845
21
-83.3
0
LINE
8
BLACK
6
CONTINUOUS
10
147.845
20
-83.3
11
147.845
21
-84.95
0
LINE
8
BLACK
6
CONTINUOUS
10
147.845
20
-84.95
11
147.834
21
-85.0074
0
LINE
8
BLACK
6
CONTINUOUS
10
147.834
20
-85.0074
11
147.801
21
-85.0561
0
LINE
8
BLACK
6
CONTINUOUS
10
147.801
20
-85.0561
11
147.752
21
-85.0886
0
LINE
8
BLACK
6
CONTINUOUS
10
147.752
20
-85.0886
11
147.695
21
-85.1
0
LINE
8
BLACK
6
CONTINUOUS
10
147.695
20
-85.1
11
147.395
21
-85.1
0
LINE
8
BLACK
6
CONTINUOUS
10
147.395
20
-85.1
11
147.338
21
-85.0886
0
LINE
8
BLACK
6
CONTINUOUS
10
147.338
20
-85.0886
11
147.289
21
-85.0561
0
LINE
8
BLACK
6
CONTINUOUS
10
147.289
20
-85.0561
11
147.256
21
-85.0074
0
LINE
8
BLACK
6
CONTINUOUS
10
147.256
20
-85.0074
11
147.245
21
-84.95
0
LINE
8
BLACK
6
CONTINUOUS
10
147.245
20
-84.95
11
147.245
21
-83.3
0
LINE
8
BLACK
6
CONTINUOUS
10
147.245
20
-83.3
11
147.256
21
-83.2426
0
LINE
8
BLACK
6
CONTINUOUS
10
147.256
20
-83.2426
11
147.289
21
-83.1939
0
LINE
8
BLACK
6
CONTINUOUS
10
147.289
20
-83.1939
11
147.338
21
-83.1614
0
LINE
8
BLACK
6
CONTINUOUS
10
147.338
20
-83.1614
11
147.395
21
-83.15
0
LINE
8
BLACK
6
CONTINUOUS
10
147.395
20
-83.15
11
147.695
21
-83.15
0
LINE
8
BLACK
6
CONTINUOUS
10
147.695
20
-83.15
11
147.752
21
-83.1614
0
LINE
8
BLACK
6
CONTINUOUS
10
149.022
20
-83.1614
11
149.071
21
-83.1939
0
LINE
8
BLACK
6
CONTINUOUS
10
149.071
20
-83.1939
11
149.104
21
-83.2426
0
LINE
8
BLACK
6
CONTINUOUS
10
149.104
20
-83.2426
11
149.115
21
-83.3
0
LINE
8
BLACK
6
CONTINUOUS
10
149.115
20
-83.3
11
149.115
21
-84.95
0
LINE
8
BLACK
6
CONTINUOUS
10
149.115
20
-84.95
11
149.104
21
-85.0074
0
LINE
8
BLACK
6
CONTINUOUS
10
149.104
20
-85.0074
11
149.071
21
-85.0561
0
LINE
8
BLACK
6
CONTINUOUS
10
149.071
20
-85.0561
11
149.022
21
-85.0886
0
LINE
8
BLACK
6
CONTINUOUS
10
149.022
20
-85.0886
11
148.965
21
-85.1
0
LINE
8
BLACK
6
CONTINUOUS
10
148.965
20
-85.1
11
148.665
21
-85.1
0
LINE
8
BLACK
6
CONTINUOUS
10
148.665
20
-85.1
11
148.608
21
-85.0886
0
LINE
8
BLACK
6
CONTINUOUS
10
148.608
20
-85.0886
11
148.559
21
-85.0561
0
LINE
8
BLACK
6
CONTINUOUS
10
148.559
20
-85.0561
11
148.526
21
-85.0074
0
LINE
8
BLACK
6
CONTINUOUS
10
148.526
20
-85.0074
11
148.515
21
-84.95
0
LINE
8
BLACK
6
CONTINUOUS
10
148.515
20
-84.95
11
148.515
21
-83.3
0
LINE
8
BLACK
6
CONTINUOUS
10
148.515
20
-83.3
11
148.526
21
-83.2426
0
LINE
8
BLACK
6
CONTINUOUS
10
148.526
20
-83.2426
11
148.559
21
-83.1939
0
LINE
8
BLACK
6
CONTINUOUS
10
148.559
20
-83.1939
11
148.608
21
-83.1614
0
LINE
8
BLACK
6
CONTINUOUS
10
148.608
20
-83.1614
11
148.665
21
-83.15
0
LINE
8
BLACK
6
CONTINUOUS
10
148.665
20
-83.15
11
148.965
21
-83.15
0
LINE
8
BLACK
6
CONTINUOUS
10
148.965
20
-83.15
11
149.022
21
-83.1614
0
LINE
8
BLACK
6
CONTINUOUS
10
150.292
20
-83.1614
11
150.341
21
-83.1939
0
LINE
8
BLACK
6
CONTINUOUS
10
150.341
20
-83.1939
11
150.374
21
-83.2426
0
LINE
8
BLACK
6
CONTINUOUS
10
150.374
20
-83.2426
11
150.385
21
-83.3
0
LINE
8
BLACK
6
CONTINUOUS
10
150.385
20
-83.3
11
150.385
21
-84.95
0
LINE
8
BLACK
6
CONTINUOUS
10
150.385
20
-84.95
11
150.374
21
-85.0074
0
LINE
8
BLACK
6
CONTINUOUS
10
150.374
20
-85.0074
11
150.341
21
-85.0561
0
LINE
8
BLACK
6
CONTINUOUS
10
150.341
20
-85.0561
11
150.292
21
-85.0886
0
LINE
8
BLACK
6
CONTINUOUS
10
150.292
20
-85.0886
11
150.235
21
-85.1
0
LINE
8
BLACK
6
CONTINUOUS
10
150.235
20
-85.1
11
149.935
21
-85.1
0
LINE
8
BLACK
6
CONTINUOUS
10
149.935
20
-85.1
11
149.878
21
-85.0886
0
LINE
8
BLACK
6
CONTINUOUS
10
149.878
20
-85.0886
11
149.829
21
-85.0561
0
LINE
8
BLACK
6
CONTINUOUS
10
149.829
20
-85.0561
11
149.796
21
-85.0074
0
LINE
8
BLACK
6
CONTINUOUS
10
149.796
20
-85.0074
11
149.785
21
-84.95
0
LINE
8
BLACK
6
CONTINUOUS
10
149.785
20
-84.95
11
149.785
21
-83.3
0
LINE
8
BLACK
6
CONTINUOUS
10
149.785
20
-83.3
11
149.796
21
-83.2426
0
LINE
8
BLACK
6
CONTINUOUS
10
149.796
20
-83.2426
11
149.829
21
-83.1939
0
LINE
8
BLACK
6
CONTINUOUS
10
149.829
20
-83.1939
11
149.878
21
-83.1614
0
LINE
8
BLACK
6
CONTINUOUS
10
149.878
20
-83.1614
11
149.935
21
-83.15
0
LINE
8
BLACK
6
CONTINUOUS
10
149.935
20
-83.15
11
150.235
21
-83.15
0
LINE
8
BLACK
6
CONTINUOUS
10
150.235
20
-83.15
11
150.292
21
-83.1614
0
LINE
8
BLACK
6
CONTINUOUS
10
151.562
20
-83.1614
11
151.611
21
-83.1939
0
LINE
8
BLACK
6
CONTINUOUS
10
151.611
20
-83.1939
11
151.644
21
-83.2426
0
LINE
8
BLACK
6
CONTINUOUS
10
151.644
20
-83.2426
11
151.655
21
-83.3
0
LINE
8
BLACK
6
CONTINUOUS
10
151.655
20
-83.3
11
151.655
21
-84.95
0
LINE
8
BLACK
6
CONTINUOUS
10
151.655
20
-84.95
11
151.644
21
-85.0074
0
LINE
8
BLACK
6
CONTINUOUS
10
151.644
20
-85.0074
11
151.611
21
-85.0561
0
LINE
8
BLACK
6
CONTINUOUS
10
151.611
20
-85.0561
11
151.562
21
-85.0886
0
LINE
8
BLACK
6
CONTINUOUS
10
151.562
20
-85.0886
11
151.505
21
-85.1
0
LINE
8
BLACK
6
CONTINUOUS
10
151.505
20
-85.1
11
151.205
21
-85.1
0
LINE
8
BLACK
6
CONTINUOUS
10
151.205
20
-85.1
11
151.148
21
-85.0886
0
LINE
8
BLACK
6
CONTINUOUS
10
151.148
20
-85.0886
11
151.099
21
-85.0561
0
LINE
8
BLACK
6
CONTINUOUS
10
151.099
20
-85.0561
11
151.066
21
-85.0074
0
LINE
8
BLACK
6
CONTINUOUS
10
151.066
20
-85.0074
11
151.055
21
-84.95
0
LINE
8
BLACK
6
CONTINUOUS
10
151.055
20
-84.95
11
151.055
21
-83.3
0
LINE
8
BLACK
6
CONTINUOUS
10
151.055
20
-83.3
11
151.066
21
-83.2426
0
LINE
8
BLACK
6
CONTINUOUS
10
151.066
20
-83.2426
11
151.099
21
-83.1939
0
LINE
8
BLACK
6
CONTINUOUS
10
151.099
20
-83.1939
11
151.148
21
-83.1614
0
LINE
8
BLACK
6
CONTINUOUS
10
151.148
20
-83.1614
11
151.205
21
-83.15
0
LINE
8
BLACK
6
CONTINUOUS
10
151.205
20
-83.15
11
151.505
21
-83.15
0
LINE
8
BLACK
6
CONTINUOUS
10
151.505
20
-83.15
11
151.562
21
-83.1614
0
LINE
8
BLACK
6
CONTINUOUS
10
139.056
20
-81.919
11
139.137
21
-81.9732
0
LINE
8
BLACK
6
CONTINUOUS
10
139.137
20
-81.9732
11
139.191
21
-82.0543
0
LINE
8
BLACK
6
CONTINUOUS
10
139.191
20
-82.0543
11
139.21
21
-82.15
0
LINE
8
BLACK
6
CONTINUOUS
10
139.21
20
-82.15
11
139.21
21
-83.05
0
LINE
8
BLACK
6
CONTINUOUS
10
139.21
20
-83.05
11
139.191
21
-83.1457
0
LINE
8
BLACK
6
CONTINUOUS
10
139.191
20
-83.1457
11
139.137
21
-83.2268
0
LINE
8
BLACK
6
CONTINUOUS
10
139.137
20
-83.2268
11
139.056
21
-83.281
0
LINE
8
BLACK
6
CONTINUOUS
10
139.056
20
-83.281
11
138.96
21
-83.3
0
LINE
8
BLACK
6
CONTINUOUS
10
138.96
20
-83.3
11
138.26
21
-83.3
0
LINE
8
BLACK
6
CONTINUOUS
10
138.26
20
-83.3
11
138.164
21
-83.281
0
LINE
8
BLACK
6
CONTINUOUS
10
138.164
20
-83.281
11
138.083
21
-83.2268
0
LINE
8
BLACK
6
CONTINUOUS
10
138.083
20
-83.2268
11
138.029
21
-83.1457
0
LINE
8
BLACK
6
CONTINUOUS
10
138.029
20
-83.1457
11
138.01
21
-83.05
0
LINE
8
BLACK
6
CONTINUOUS
10
138.01
20
-83.05
11
138.01
21
-82.15
0
LINE
8
BLACK
6
CONTINUOUS
10
138.01
20
-82.15
11
138.029
21
-82.0543
0
LINE
8
BLACK
6
CONTINUOUS
10
138.029
20
-82.0543
11
138.083
21
-81.9732
0
LINE
8
BLACK
6
CONTINUOUS
10
138.083
20
-81.9732
11
138.164
21
-81.919
0
LINE
8
BLACK
6
CONTINUOUS
10
138.164
20
-81.919
11
138.26
21
-81.9
0
LINE
8
BLACK
6
CONTINUOUS
10
138.26
20
-81.9
11
138.96
21
-81.9
0
LINE
8
BLACK
6
CONTINUOUS
10
138.96
20
-81.9
11
139.056
21
-81.919
0
LINE
8
BLACK
6
CONTINUOUS
10
141.056
20
-81.919
11
141.137
21
-81.9732
0
LINE
8
BLACK
6
CONTINUOUS
10
141.137
20
-81.9732
11
141.191
21
-82.0543
0
LINE
8
BLACK
6
CONTINUOUS
10
141.191
20
-82.0543
11
141.21
21
-82.15
0
LINE
8
BLACK
6
CONTINUOUS
10
141.21
20
-82.15
11
141.21
21
-83.05
0
LINE
8
BLACK
6
CONTINUOUS
10
141.21
20
-83.05
11
141.191
21
-83.1457
0
LINE
8
BLACK
6
CONTINUOUS
10
141.191
20
-83.1457
11
141.137
21
-83.2268
0
LINE
8
BLACK
6
CONTINUOUS
10
141.137
20
-83.2268
11
141.056
21
-83.281
0
LINE
8
BLACK
6
CONTINUOUS
10
141.056
20
-83.281
11
140.96
21
-83.3
0
LINE
8
BLACK
6
CONTINUOUS
10
140.96
20
-83.3
11
140.26
21
-83.3
0
LINE
8
BLACK
6
CONTINUOUS
10
140.26
20
-83.3
11
140.164
21
-83.281
0
LINE
8
BLACK
6
CONTINUOUS
10
140.164
20
-83.281
11
140.083
21
-83.2268
0
LINE
8
BLACK
6
CONTINUOUS
10
140.083
20
-83.2268
11
140.029
21
-83.1457
0
LINE
8
BLACK
6
CONTINUOUS
10
140.029
20
-83.1457
11
140.01
21
-83.05
0
LINE
8
BLACK
6
CONTINUOUS
10
140.01
20
-83.05
11
140.01
21
-82.15
0
LINE
8
BLACK
6
CONTINUOUS
10
140.01
20
-82.15
11
140.029
21
-82.0543
0
LINE
8
BLACK
6
CONTINUOUS
10
140.029
20
-82.0543
11
140.083
21
-81.9732
0
LINE
8
BLACK
6
CONTINUOUS
10
140.083
20
-81.9732
11
140.164
21
-81.919
0
LINE
8
BLACK
6
CONTINUOUS
10
140.164
20
-81.919
11
140.26
21
-81.9
0
LINE
8
BLACK
6
CONTINUOUS
10
140.26
20
-81.9
11
140.96
21
-81.9
0
LINE
8
BLACK
6
CONTINUOUS
10
140.96
20
-81.9
11
141.056
21
-81.919
0
LINE
8
BLACK
6
CONTINUOUS
10
152.081
20
-81.369
11
152.162
21
-81.4232
0
LINE
8
BLACK
6
CONTINUOUS
10
152.162
20
-81.4232
11
152.216
21
-81.5043
0
LINE
8
BLACK
6
CONTINUOUS
10
152.216
20
-81.5043
11
152.235
21
-81.6
0
LINE
8
BLACK
6
CONTINUOUS
10
152.235
20
-81.6
11
152.235
21
-82.275
0
LINE
8
BLACK
6
CONTINUOUS
10
152.235
20
-82.275
11
152.216
21
-82.3707
0
LINE
8
BLACK
6
CONTINUOUS
10
152.216
20
-82.3707
11
152.162
21
-82.4518
0
LINE
8
BLACK
6
CONTINUOUS
10
152.162
20
-82.4518
11
152.081
21
-82.506
0
LINE
8
BLACK
6
CONTINUOUS
10
152.081
20
-82.506
11
151.985
21
-82.525
0
LINE
8
BLACK
6
CONTINUOUS
10
151.985
20
-82.525
11
151.035
21
-82.525
0
LINE
8
BLACK
6
CONTINUOUS
10
151.035
20
-82.525
11
150.939
21
-82.506
0
LINE
8
BLACK
6
CONTINUOUS
10
150.939
20
-82.506
11
150.858
21
-82.4518
0
LINE
8
BLACK
6
CONTINUOUS
10
150.858
20
-82.4518
11
150.804
21
-82.3707
0
LINE
8
BLACK
6
CONTINUOUS
10
150.804
20
-82.3707
11
150.785
21
-82.275
0
LINE
8
BLACK
6
CONTINUOUS
10
150.785
20
-82.275
11
150.785
21
-81.6
0
LINE
8
BLACK
6
CONTINUOUS
10
150.785
20
-81.6
11
150.804
21
-81.5043
0
LINE
8
BLACK
6
CONTINUOUS
10
150.804
20
-81.5043
11
150.858
21
-81.4232
0
LINE
8
BLACK
6
CONTINUOUS
10
150.858
20
-81.4232
11
150.939
21
-81.369
0
LINE
8
BLACK
6
CONTINUOUS
10
150.939
20
-81.369
11
151.035
21
-81.35
0
LINE
8
BLACK
6
CONTINUOUS
10
151.035
20
-81.35
11
151.985
21
-81.35
0
LINE
8
BLACK
6
CONTINUOUS
10
151.985
20
-81.35
11
152.081
21
-81.369
0
LINE
8
BLACK
6
CONTINUOUS
10
143.281
20
-81.069
11
143.362
21
-81.1232
0
LINE
8
BLACK
6
CONTINUOUS
10
143.362
20
-81.1232
11
143.416
21
-81.2043
0
LINE
8
BLACK
6
CONTINUOUS
10
143.416
20
-81.2043
11
143.435
21
-81.3
0
LINE
8
BLACK
6
CONTINUOUS
10
143.435
20
-81.3
11
143.435
21
-81.975
0
LINE
8
BLACK
6
CONTINUOUS
10
143.435
20
-81.975
11
143.416
21
-82.0707
0
LINE
8
BLACK
6
CONTINUOUS
10
143.416
20
-82.0707
11
143.362
21
-82.1518
0
LINE
8
BLACK
6
CONTINUOUS
10
143.362
20
-82.1518
11
143.281
21
-82.206
0
LINE
8
BLACK
6
CONTINUOUS
10
143.281
20
-82.206
11
143.185
21
-82.225
0
LINE
8
BLACK
6
CONTINUOUS
10
143.185
20
-82.225
11
142.235
21
-82.225
0
LINE
8
BLACK
6
CONTINUOUS
10
142.235
20
-82.225
11
142.139
21
-82.206
0
LINE
8
BLACK
6
CONTINUOUS
10
142.139
20
-82.206
11
142.058
21
-82.1518
0
LINE
8
BLACK
6
CONTINUOUS
10
142.058
20
-82.1518
11
142.004
21
-82.0707
0
LINE
8
BLACK
6
CONTINUOUS
10
142.004
20
-82.0707
11
141.985
21
-81.975
0
LINE
8
BLACK
6
CONTINUOUS
10
141.985
20
-81.975
11
141.985
21
-81.3
0
LINE
8
BLACK
6
CONTINUOUS
10
141.985
20
-81.3
11
142.004
21
-81.2043
0
LINE
8
BLACK
6
CONTINUOUS
10
142.004
20
-81.2043
11
142.058
21
-81.1232
0
LINE
8
BLACK
6
CONTINUOUS
10
142.058
20
-81.1232
11
142.139
21
-81.069
0
LINE
8
BLACK
6
CONTINUOUS
10
142.139
20
-81.069
11
142.235
21
-81.05
0
LINE
8
BLACK
6
CONTINUOUS
10
142.235
20
-81.05
11
143.185
21
-81.05
0
LINE
8
BLACK
6
CONTINUOUS
10
143.185
20
-81.05
11
143.281
21
-81.069
0
LINE
8
BLACK
6
CONTINUOUS
10
145.581
20
-81.069
11
145.662
21
-81.1232
0
LINE
8
BLACK
6
CONTINUOUS
10
145.662
20
-81.1232
11
145.716
21
-81.2043
0
LINE
8
BLACK
6
CONTINUOUS
10
145.716
20
-81.2043
11
145.735
21
-81.3
0
LINE
8
BLACK
6
CONTINUOUS
10
145.735
20
-81.3
11
145.735
21
-81.975
0
LINE
8
BLACK
6
CONTINUOUS
10
145.735
20
-81.975
11
145.716
21
-82.0707
0
LINE
8
BLACK
6
CONTINUOUS
10
145.716
20
-82.0707
11
145.662
21
-82.1518
0
LINE
8
BLACK
6
CONTINUOUS
10
145.662
20
-82.1518
11
145.581
21
-82.206
0
LINE
8
BLACK
6
CONTINUOUS
10
145.581
20
-82.206
11
145.485
21
-82.225
0
LINE
8
BLACK
6
CONTINUOUS
10
145.485
20
-82.225
11
144.535
21
-82.225
0
LINE
8
BLACK
6
CONTINUOUS
10
144.535
20
-82.225
11
144.439
21
-82.206
0
LINE
8
BLACK
6
CONTINUOUS
10
144.439
20
-82.206
11
144.358
21
-82.1518
0
LINE
8
BLACK
6
CONTINUOUS
10
144.358
20
-82.1518
11
144.304
21
-82.0707
0
LINE
8
BLACK
6
CONTINUOUS
10
144.304
20
-82.0707
11
144.285
21
-81.975
0
LINE
8
BLACK
6
CONTINUOUS
10
144.285
20
-81.975
11
144.285
21
-81.3
0
LINE
8
BLACK
6
CONTINUOUS
10
144.285
20
-81.3
11
144.304
21
-81.2043
0
LINE
8
BLACK
6
CONTINUOUS
10
144.304
20
-81.2043
11
144.358
21
-81.1232
0
LINE
8
BLACK
6
CONTINUOUS
10
144.358
20
-81.1232
11
144.439
21
-81.069
0
LINE
8
BLACK
6
CONTINUOUS
10
144.439
20
-81.069
11
144.535
21
-81.05
0
LINE
8
BLACK
6
CONTINUOUS
10
144.535
20
-81.05
11
145.485
21
-81.05
0
LINE
8
BLACK
6
CONTINUOUS
10
145.485
20
-81.05
11
145.581
21
-81.069
0
LINE
8
BLACK
6
CONTINUOUS
10
164.26
20
-80.6
11
163.36
21
-80.6
0
LINE
8
BLACK
6
CONTINUOUS
10
163.36
20
-80.6
11
163.36
21
-79.3
0
LINE
8
BLACK
6
CONTINUOUS
10
163.36
20
-79.3
11
164.26
21
-79.3
0
LINE
8
BLACK
6
CONTINUOUS
10
164.26
20
-79.3
11
164.26
21
-80.6
0
LINE
8
BLACK
6
CONTINUOUS
10
166.177
20
-79.125
11
165.76
21
-79.125
0
LINE
8
BLACK
6
CONTINUOUS
10
165.76
20
-79.125
11
165.76
21
-80.6
0
LINE
8
BLACK
6
CONTINUOUS
10
165.76
20
-80.6
11
164.86
21
-80.6
0
LINE
8
BLACK
6
CONTINUOUS
10
164.86
20
-80.6
11
164.86
21
-79.125
0
LINE
8
BLACK
6
CONTINUOUS
10
164.86
20
-79.125
11
164.444
21
-79.125
0
LINE
8
BLACK
6
CONTINUOUS
10
164.444
20
-79.125
11
164.444
21
-76
0
LINE
8
BLACK
6
CONTINUOUS
10
164.444
20
-76
11
166.177
21
-76
0
LINE
8
BLACK
6
CONTINUOUS
10
166.177
20
-76
11
166.177
21
-79.125
0
LINE
8
BLACK
6
CONTINUOUS
10
167.26
20
-80.6
11
166.36
21
-80.6
0
LINE
8
BLACK
6
CONTINUOUS
10
166.36
20
-80.6
11
166.36
21
-79.3
0
LINE
8
BLACK
6
CONTINUOUS
10
166.36
20
-79.3
11
167.26
21
-79.3
0
LINE
8
BLACK
6
CONTINUOUS
10
167.26
20
-79.3
11
167.26
21
-80.6
0
LINE
8
BLACK
6
CONTINUOUS
10
152.081
20
-79.294
11
152.162
21
-79.3482
0
LINE
8
BLACK
6
CONTINUOUS
10
152.162
20
-79.3482
11
152.216
21
-79.4293
0
LINE
8
BLACK
6
CONTINUOUS
10
152.216
20
-79.4293
11
152.235
21
-79.525
0
LINE
8
BLACK
6
CONTINUOUS
10
152.235
20
-79.525
11
152.235
21
-80.2
0
LINE
8
BLACK
6
CONTINUOUS
10
152.235
20
-80.2
11
152.216
21
-80.2957
0
LINE
8
BLACK
6
CONTINUOUS
10
152.216
20
-80.2957
11
152.162
21
-80.3768
0
LINE
8
BLACK
6
CONTINUOUS
10
152.162
20
-80.3768
11
152.081
21
-80.431
0
LINE
8
BLACK
6
CONTINUOUS
10
152.081
20
-80.431
11
151.985
21
-80.45
0
LINE
8
BLACK
6
CONTINUOUS
10
151.985
20
-80.45
11
151.035
21
-80.45
0
LINE
8
BLACK
6
CONTINUOUS
10
151.035
20
-80.45
11
150.939
21
-80.431
0
LINE
8
BLACK
6
CONTINUOUS
10
150.939
20
-80.431
11
150.858
21
-80.3768
0
LINE
8
BLACK
6
CONTINUOUS
10
150.858
20
-80.3768
11
150.804
21
-80.2957
0
LINE
8
BLACK
6
CONTINUOUS
10
150.804
20
-80.2957
11
150.785
21
-80.2
0
LINE
8
BLACK
6
CONTINUOUS
10
150.785
20
-80.2
11
150.785
21
-79.525
0
LINE
8
BLACK
6
CONTINUOUS
10
150.785
20
-79.525
11
150.804
21
-79.4293
0
LINE
8
BLACK
6
CONTINUOUS
10
150.804
20
-79.4293
11
150.858
21
-79.3482
0
LINE
8
BLACK
6
CONTINUOUS
10
150.858
20
-79.3482
11
150.939
21
-79.294
0
LINE
8
BLACK
6
CONTINUOUS
10
150.939
20
-79.294
11
151.035
21
-79.275
0
LINE
8
BLACK
6
CONTINUOUS
10
151.035
20
-79.275
11
151.985
21
-79.275
0
LINE
8
BLACK
6
CONTINUOUS
10
151.985
20
-79.275
11
152.081
21
-79.294
0
LINE
8
BLACK
6
CONTINUOUS
10
143.281
20
-78.994
11
143.362
21
-79.0482
0
LINE
8
BLACK
6
CONTINUOUS
10
143.362
20
-79.0482
11
143.416
21
-79.1293
0
LINE
8
BLACK
6
CONTINUOUS
10
143.416
20
-79.1293
11
143.435
21
-79.225
0
LINE
8
BLACK
6
CONTINUOUS
10
143.435
20
-79.225
11
143.435
21
-79.9
0
LINE
8
BLACK
6
CONTINUOUS
10
143.435
20
-79.9
11
143.416
21
-79.9957
0
LINE
8
BLACK
6
CONTINUOUS
10
143.416
20
-79.9957
11
143.362
21
-80.0768
0
LINE
8
BLACK
6
CONTINUOUS
10
143.362
20
-80.0768
11
143.281
21
-80.131
0
LINE
8
BLACK
6
CONTINUOUS
10
143.281
20
-80.131
11
143.185
21
-80.15
0
LINE
8
BLACK
6
CONTINUOUS
10
143.185
20
-80.15
11
142.235
21
-80.15
0
LINE
8
BLACK
6
CONTINUOUS
10
142.235
20
-80.15
11
142.139
21
-80.131
0
LINE
8
BLACK
6
CONTINUOUS
10
142.139
20
-80.131
11
142.058
21
-80.0768
0
LINE
8
BLACK
6
CONTINUOUS
10
142.058
20
-80.0768
11
142.004
21
-79.9957
0
LINE
8
BLACK
6
CONTINUOUS
10
142.004
20
-79.9957
11
141.985
21
-79.9
0
LINE
8
BLACK
6
CONTINUOUS
10
141.985
20
-79.9
11
141.985
21
-79.225
0
LINE
8
BLACK
6
CONTINUOUS
10
141.985
20
-79.225
11
142.004
21
-79.1293
0
LINE
8
BLACK
6
CONTINUOUS
10
142.004
20
-79.1293
11
142.058
21
-79.0482
0
LINE
8
BLACK
6
CONTINUOUS
10
142.058
20
-79.0482
11
142.139
21
-78.994
0
LINE
8
BLACK
6
CONTINUOUS
10
142.139
20
-78.994
11
142.235
21
-78.975
0
LINE
8
BLACK
6
CONTINUOUS
10
142.235
20
-78.975
11
143.185
21
-78.975
0
LINE
8
BLACK
6
CONTINUOUS
10
143.185
20
-78.975
11
143.281
21
-78.994
0
LINE
8
BLACK
6
CONTINUOUS
10
145.581
20
-78.994
11
145.662
21
-79.0482
0
LINE
8
BLACK
6
CONTINUOUS
10
145.662
20
-79.0482
11
145.716
21
-79.1293
0
LINE
8
BLACK
6
CONTINUOUS
10
145.716
20
-79.1293
11
145.735
21
-79.225
0
LINE
8
BLACK
6
CONTINUOUS
10
145.735
20
-79.225
11
145.735
21
-79.9
0
LINE
8
BLACK
6
CONTINUOUS
10
145.735
20
-79.9
11
145.716
21
-79.9957
0
LINE
8
BLACK
6
CONTINUOUS
10
145.716
20
-79.9957
11
145.662
21
-80.0768
0
LINE
8
BLACK
6
CONTINUOUS
10
145.662
20
-80.0768
11
145.581
21
-80.131
0
LINE
8
BLACK
6
CONTINUOUS
10
145.581
20
-80.131
11
145.485
21
-80.15
0
LINE
8
BLACK
6
CONTINUOUS
10
145.485
20
-80.15
11
144.535
21
-80.15
0
LINE
8
BLACK
6
CONTINUOUS
10
144.535
20
-80.15
11
144.439
21
-80.131
0
LINE
8
BLACK
6
CONTINUOUS
10
144.439
20
-80.131
11
144.358
21
-80.0768
0
LINE
8
BLACK
6
CONTINUOUS
10
144.358
20
-80.0768
11
144.304
21
-79.9957
0
LINE
8
BLACK
6
CONTINUOUS
10
144.304
20
-79.9957
11
144.285
21
-79.9
0
LINE
8
BLACK
6
CONTINUOUS
10
144.285
20
-79.9
11
144.285
21
-79.225
0
LINE
8
BLACK
6
CONTINUOUS
10
144.285
20
-79.225
11
144.304
21
-79.1293
0
LINE
8
BLACK
6
CONTINUOUS
10
144.304
20
-79.1293
11
144.358
21
-79.0482
0
LINE
8
BLACK
6
CONTINUOUS
10
144.358
20
-79.0482
11
144.439
21
-78.994
0
LINE
8
BLACK
6
CONTINUOUS
10
144.439
20
-78.994
11
144.535
21
-78.975
0
LINE
8
BLACK
6
CONTINUOUS
10
144.535
20
-78.975
11
145.485
21
-78.975
0
LINE
8
BLACK
6
CONTINUOUS
10
145.485
20
-78.975
11
145.581
21
-78.994
0
LINE
8
BLACK
6
CONTINUOUS
10
150.956
20
-75.419
11
151.037
21
-75.4732
0
LINE
8
BLACK
6
CONTINUOUS
10
151.037
20
-75.4732
11
151.091
21
-75.5543
0
LINE
8
BLACK
6
CONTINUOUS
10
151.091
20
-75.5543
11
151.11
21
-75.65
0
LINE
8
BLACK
6
CONTINUOUS
10
151.11
20
-75.65
11
151.11
21
-76.55
0
LINE
8
BLACK
6
CONTINUOUS
10
151.11
20
-76.55
11
151.091
21
-76.6457
0
LINE
8
BLACK
6
CONTINUOUS
10
151.091
20
-76.6457
11
151.037
21
-76.7268
0
LINE
8
BLACK
6
CONTINUOUS
10
151.037
20
-76.7268
11
150.956
21
-76.781
0
LINE
8
BLACK
6
CONTINUOUS
10
150.956
20
-76.781
11
150.86
21
-76.8
0
LINE
8
BLACK
6
CONTINUOUS
10
150.86
20
-76.8
11
150.16
21
-76.8
0
LINE
8
BLACK
6
CONTINUOUS
10
150.16
20
-76.8
11
150.064
21
-76.781
0
LINE
8
BLACK
6
CONTINUOUS
10
150.064
20
-76.781
11
149.983
21
-76.7268
0
LINE
8
BLACK
6
CONTINUOUS
10
149.983
20
-76.7268
11
149.929
21
-76.6457
0
LINE
8
BLACK
6
CONTINUOUS
10
149.929
20
-76.6457
11
149.91
21
-76.55
0
LINE
8
BLACK
6
CONTINUOUS
10
149.91
20
-76.55
11
149.91
21
-75.65
0
LINE
8
BLACK
6
CONTINUOUS
10
149.91
20
-75.65
11
149.929
21
-75.5543
0
LINE
8
BLACK
6
CONTINUOUS
10
149.929
20
-75.5543
11
149.983
21
-75.4732
0
LINE
8
BLACK
6
CONTINUOUS
10
149.983
20
-75.4732
11
150.064
21
-75.419
0
LINE
8
BLACK
6
CONTINUOUS
10
150.064
20
-75.419
11
150.16
21
-75.4
0
LINE
8
BLACK
6
CONTINUOUS
10
150.16
20
-75.4
11
150.86
21
-75.4
0
LINE
8
BLACK
6
CONTINUOUS
10
150.86
20
-75.4
11
150.956
21
-75.419
0
LINE
8
BLACK
6
CONTINUOUS
10
152.956
20
-75.419
11
153.037
21
-75.4732
0
LINE
8
BLACK
6
CONTINUOUS
10
153.037
20
-75.4732
11
153.091
21
-75.5543
0
LINE
8
BLACK
6
CONTINUOUS
10
153.091
20
-75.5543
11
153.11
21
-75.65
0
LINE
8
BLACK
6
CONTINUOUS
10
153.11
20
-75.65
11
153.11
21
-76.55
0
LINE
8
BLACK
6
CONTINUOUS
10
153.11
20
-76.55
11
153.091
21
-76.6457
0
LINE
8
BLACK
6
CONTINUOUS
10
153.091
20
-76.6457
11
153.037
21
-76.7268
0
LINE
8
BLACK
6
CONTINUOUS
10
153.037
20
-76.7268
11
152.956
21
-76.781
0
LINE
8
BLACK
6
CONTINUOUS
10
152.956
20
-76.781
11
152.86
21
-76.8
0
LINE
8
BLACK
6
CONTINUOUS
10
152.86
20
-76.8
11
152.16
21
-76.8
0
LINE
8
BLACK
6
CONTINUOUS
10
152.16
20
-76.8
11
152.064
21
-76.781
0
LINE
8
BLACK
6
CONTINUOUS
10
152.064
20
-76.781
11
151.983
21
-76.7268
0
LINE
8
BLACK
6
CONTINUOUS
10
151.983
20
-76.7268
11
151.929
21
-76.6457
0
LINE
8
BLACK
6
CONTINUOUS
10
151.929
20
-76.6457
11
151.91
21
-76.55
0
LINE
8
BLACK
6
CONTINUOUS
10
151.91
20
-76.55
11
151.91
21
-75.65
0
LINE
8
BLACK
6
CONTINUOUS
10
151.91
20
-75.65
11
151.929
21
-75.5543
0
LINE
8
BLACK
6
CONTINUOUS
10
151.929
20
-75.5543
11
151.983
21
-75.4732
0
LINE
8
BLACK
6
CONTINUOUS
10
151.983
20
-75.4732
11
152.064
21
-75.419
0
LINE
8
BLACK
6
CONTINUOUS
10
152.064
20
-75.419
11
152.16
21
-75.4
0
LINE
8
BLACK
6
CONTINUOUS
10
152.16
20
-75.4
11
152.86
21
-75.4
0
LINE
8
BLACK
6
CONTINUOUS
10
152.86
20
-75.4
11
152.956
21
-75.419
0
LINE
8
BLACK
6
CONTINUOUS
10
150.906
20
-73.294
11
150.987
21
-73.3482
0
LINE
8
BLACK
6
CONTINUOUS
10
150.987
20
-73.3482
11
151.041
21
-73.4293
0
LINE
8
BLACK
6
CONTINUOUS
10
151.041
20
-73.4293
11
151.06
21
-73.525
0
LINE
8
BLACK
6
CONTINUOUS
10
151.06
20
-73.525
11
151.06
21
-74.475
0
LINE
8
BLACK
6
CONTINUOUS
10
151.06
20
-74.475
11
151.041
21
-74.5707
0
LINE
8
BLACK
6
CONTINUOUS
10
151.041
20
-74.5707
11
150.987
21
-74.6518
0
LINE
8
BLACK
6
CONTINUOUS
10
150.987
20
-74.6518
11
150.906
21
-74.706
0
LINE
8
BLACK
6
CONTINUOUS
10
150.906
20
-74.706
11
150.81
21
-74.725
0
LINE
8
BLACK
6
CONTINUOUS
10
150.81
20
-74.725
11
150.135
21
-74.725
0
LINE
8
BLACK
6
CONTINUOUS
10
150.135
20
-74.725
11
150.039
21
-74.706
0
LINE
8
BLACK
6
CONTINUOUS
10
150.039
20
-74.706
11
149.958
21
-74.6518
0
LINE
8
BLACK
6
CONTINUOUS
10
149.958
20
-74.6518
11
149.904
21
-74.5707
0
LINE
8
BLACK
6
CONTINUOUS
10
149.904
20
-74.5707
11
149.885
21
-74.475
0
LINE
8
BLACK
6
CONTINUOUS
10
149.885
20
-74.475
11
149.885
21
-73.525
0
LINE
8
BLACK
6
CONTINUOUS
10
149.885
20
-73.525
11
149.904
21
-73.4293
0
LINE
8
BLACK
6
CONTINUOUS
10
149.904
20
-73.4293
11
149.958
21
-73.3482
0
LINE
8
BLACK
6
CONTINUOUS
10
149.958
20
-73.3482
11
150.039
21
-73.294
0
LINE
8
BLACK
6
CONTINUOUS
10
150.039
20
-73.294
11
150.135
21
-73.275
0
LINE
8
BLACK
6
CONTINUOUS
10
150.135
20
-73.275
11
150.81
21
-73.275
0
LINE
8
BLACK
6
CONTINUOUS
10
150.81
20
-73.275
11
150.906
21
-73.294
0
LINE
8
BLACK
6
CONTINUOUS
10
152.981
20
-73.294
11
153.062
21
-73.3482
0
LINE
8
BLACK
6
CONTINUOUS
10
153.062
20
-73.3482
11
153.116
21
-73.4293
0
LINE
8
BLACK
6
CONTINUOUS
10
153.116
20
-73.4293
11
153.135
21
-73.525
0
LINE
8
BLACK
6
CONTINUOUS
10
153.135
20
-73.525
11
153.135
21
-74.475
0
LINE
8
BLACK
6
CONTINUOUS
10
153.135
20
-74.475
11
153.116
21
-74.5707
0
LINE
8
BLACK
6
CONTINUOUS
10
153.116
20
-74.5707
11
153.062
21
-74.6518
0
LINE
8
BLACK
6
CONTINUOUS
10
153.062
20
-74.6518
11
152.981
21
-74.706
0
LINE
8
BLACK
6
CONTINUOUS
10
152.981
20
-74.706
11
152.885
21
-74.725
0
LINE
8
BLACK
6
CONTINUOUS
10
152.885
20
-74.725
11
152.21
21
-74.725
0
LINE
8
BLACK
6
CONTINUOUS
10
152.21
20
-74.725
11
152.114
21
-74.706
0
LINE
8
BLACK
6
CONTINUOUS
10
152.114
20
-74.706
11
152.033
21
-74.6518
0
LINE
8
BLACK
6
CONTINUOUS
10
152.033
20
-74.6518
11
151.979
21
-74.5707
0
LINE
8
BLACK
6
CONTINUOUS
10
151.979
20
-74.5707
11
151.96
21
-74.475
0
LINE
8
BLACK
6
CONTINUOUS
10
151.96
20
-74.475
11
151.96
21
-73.525
0
LINE
8
BLACK
6
CONTINUOUS
10
151.96
20
-73.525
11
151.979
21
-73.4293
0
LINE
8
BLACK
6
CONTINUOUS
10
151.979
20
-73.4293
11
152.033
21
-73.3482
0
LINE
8
BLACK
6
CONTINUOUS
10
152.033
20
-73.3482
11
152.114
21
-73.294
0
LINE
8
BLACK
6
CONTINUOUS
10
152.114
20
-73.294
11
152.21
21
-73.275
0
LINE
8
BLACK
6
CONTINUOUS
10
152.21
20
-73.275
11
152.885
21
-73.275
0
LINE
8
BLACK
6
CONTINUOUS
10
152.885
20
-73.275
11
152.981
21
-73.294
0
LINE
8
BLACK
6
CONTINUOUS
10
168.781
20
-67.0315
11
168.862
21
-67.0857
0
LINE
8
BLACK
6
CONTINUOUS
10
168.862
20
-67.0857
11
168.916
21
-67.1668
0
LINE
8
BLACK
6
CONTINUOUS
10
168.916
20
-67.1668
11
168.935
21
-67.2625
0
LINE
8
BLACK
6
CONTINUOUS
10
168.935
20
-67.2625
11
168.935
21
-67.9375
0
LINE
8
BLACK
6
CONTINUOUS
10
168.935
20
-67.9375
11
168.916
21
-68.0332
0
LINE
8
BLACK
6
CONTINUOUS
10
168.916
20
-68.0332
11
168.862
21
-68.1143
0
LINE
8
BLACK
6
CONTINUOUS
10
168.862
20
-68.1143
11
168.781
21
-68.1685
0
LINE
8
BLACK
6
CONTINUOUS
10
168.781
20
-68.1685
11
168.685
21
-68.1875
0
LINE
8
BLACK
6
CONTINUOUS
10
168.685
20
-68.1875
11
167.735
21
-68.1875
0
LINE
8
BLACK
6
CONTINUOUS
10
167.735
20
-68.1875
11
167.639
21
-68.1685
0
LINE
8
BLACK
6
CONTINUOUS
10
167.639
20
-68.1685
11
167.558
21
-68.1143
0
LINE
8
BLACK
6
CONTINUOUS
10
167.558
20
-68.1143
11
167.504
21
-68.0332
0
LINE
8
BLACK
6
CONTINUOUS
10
167.504
20
-68.0332
11
167.485
21
-67.9375
0
LINE
8
BLACK
6
CONTINUOUS
10
167.485
20
-67.9375
11
167.485
21
-67.2625
0
LINE
8
BLACK
6
CONTINUOUS
10
167.485
20
-67.2625
11
167.504
21
-67.1668
0
LINE
8
BLACK
6
CONTINUOUS
10
167.504
20
-67.1668
11
167.558
21
-67.0857
0
LINE
8
BLACK
6
CONTINUOUS
10
167.558
20
-67.0857
11
167.639
21
-67.0315
0
LINE
8
BLACK
6
CONTINUOUS
10
167.639
20
-67.0315
11
167.735
21
-67.0125
0
LINE
8
BLACK
6
CONTINUOUS
10
167.735
20
-67.0125
11
168.685
21
-67.0125
0
LINE
8
BLACK
6
CONTINUOUS
10
168.685
20
-67.0125
11
168.781
21
-67.0315
0
LINE
8
BLACK
6
CONTINUOUS
10
168.781
20
-64.9565
11
168.862
21
-65.0107
0
LINE
8
BLACK
6
CONTINUOUS
10
168.862
20
-65.0107
11
168.916
21
-65.0918
0
LINE
8
BLACK
6
CONTINUOUS
10
168.916
20
-65.0918
11
168.935
21
-65.1875
0
LINE
8
BLACK
6
CONTINUOUS
10
168.935
20
-65.1875
11
168.935
21
-65.8625
0
LINE
8
BLACK
6
CONTINUOUS
10
168.935
20
-65.8625
11
168.916
21
-65.9582
0
LINE
8
BLACK
6
CONTINUOUS
10
168.916
20
-65.9582
11
168.862
21
-66.0393
0
LINE
8
BLACK
6
CONTINUOUS
10
168.862
20
-66.0393
11
168.781
21
-66.0935
0
LINE
8
BLACK
6
CONTINUOUS
10
168.781
20
-66.0935
11
168.685
21
-66.1125
0
LINE
8
BLACK
6
CONTINUOUS
10
168.685
20
-66.1125
11
167.735
21
-66.1125
0
LINE
8
BLACK
6
CONTINUOUS
10
167.735
20
-66.1125
11
167.639
21
-66.0935
0
LINE
8
BLACK
6
CONTINUOUS
10
167.639
20
-66.0935
11
167.558
21
-66.0393
0
LINE
8
BLACK
6
CONTINUOUS
10
167.558
20
-66.0393
11
167.504
21
-65.9582
0
LINE
8
BLACK
6
CONTINUOUS
10
167.504
20
-65.9582
11
167.485
21
-65.8625
0
LINE
8
BLACK
6
CONTINUOUS
10
167.485
20
-65.8625
11
167.485
21
-65.1875
0
LINE
8
BLACK
6
CONTINUOUS
10
167.485
20
-65.1875
11
167.504
21
-65.0918
0
LINE
8
BLACK
6
CONTINUOUS
10
167.504
20
-65.0918
11
167.558
21
-65.0107
0
LINE
8
BLACK
6
CONTINUOUS
10
167.558
20
-65.0107
11
167.639
21
-64.9565
0
LINE
8
BLACK
6
CONTINUOUS
10
167.639
20
-64.9565
11
167.735
21
-64.9375
0
LINE
8
BLACK
6
CONTINUOUS
10
167.735
20
-64.9375
11
168.685
21
-64.9375
0
LINE
8
BLACK
6
CONTINUOUS
10
168.685
20
-64.9375
11
168.781
21
-64.9565
  0
ENDSEC
  0
EOF
