%TF.GenerationSoftware,KiCad,Pcbnew,7.0.2-6a45011f42~172~ubuntu22.04.1*%
%TF.CreationDate,2023-05-30T10:17:06+01:00*%
%TF.ProjectId,GreenBean,47726565-6e42-4656-916e-2e6b69636164,rev?*%
%TF.SameCoordinates,Original*%
%TF.FileFunction,Legend,Top*%
%TF.FilePolarity,Positive*%
%FSLAX46Y46*%
G04 Gerber Fmt 4.6, Leading zero omitted, Abs format (unit mm)*
G04 Created by KiCad (PCBNEW 7.0.2-6a45011f42~172~ubuntu22.04.1) date 2023-05-30 10:17:06*
%MOMM*%
%LPD*%
G01*
G04 APERTURE LIST*
G04 Aperture macros list*
%AMRoundRect*
0 Rectangle with rounded corners*
0 $1 Rounding radius*
0 $2 $3 $4 $5 $6 $7 $8 $9 X,Y pos of 4 corners*
0 Add a 4 corners polygon primitive as box body*
4,1,4,$2,$3,$4,$5,$6,$7,$8,$9,$2,$3,0*
0 Add four circle primitives for the rounded corners*
1,1,$1+$1,$2,$3*
1,1,$1+$1,$4,$5*
1,1,$1+$1,$6,$7*
1,1,$1+$1,$8,$9*
0 Add four rect primitives between the rounded corners*
20,1,$1+$1,$2,$3,$4,$5,0*
20,1,$1+$1,$4,$5,$6,$7,0*
20,1,$1+$1,$6,$7,$8,$9,0*
20,1,$1+$1,$8,$9,$2,$3,0*%
G04 Aperture macros list end*
%ADD10C,0.150000*%
%ADD11C,0.120000*%
%ADD12R,2.600000X1.500000*%
%ADD13O,2.600000X1.500000*%
%ADD14R,2.000000X1.900000*%
%ADD15C,1.900000*%
%ADD16C,1.998980*%
%ADD17R,1.300000X1.300000*%
%ADD18C,1.300000*%
%ADD19RoundRect,0.200000X1.300000X0.750000X-1.300000X0.750000X-1.300000X-0.750000X1.300000X-0.750000X0*%
%ADD20O,3.000000X1.900000*%
%ADD21C,3.400000*%
%ADD22RoundRect,0.200000X-0.850000X-0.850000X0.850000X-0.850000X0.850000X0.850000X-0.850000X0.850000X0*%
%ADD23O,2.100000X2.100000*%
%ADD24RoundRect,0.200000X-0.850000X0.850000X-0.850000X-0.850000X0.850000X-0.850000X0.850000X0.850000X0*%
%ADD25RoundRect,0.200000X-0.800000X0.800000X-0.800000X-0.800000X0.800000X-0.800000X0.800000X0.800000X0*%
%ADD26C,2.000000*%
%ADD27RoundRect,0.200000X1.000000X0.950000X-1.000000X0.950000X-1.000000X-0.950000X1.000000X-0.950000X0*%
%ADD28C,2.300000*%
%ADD29C,2.398980*%
%ADD30RoundRect,0.200000X-0.650000X-0.650000X0.650000X-0.650000X0.650000X0.650000X-0.650000X0.650000X0*%
%ADD31C,1.700000*%
%ADD32RoundRect,0.450000X-0.350000X-0.450000X0.350000X-0.450000X0.350000X0.450000X-0.350000X0.450000X0*%
%ADD33RoundRect,0.200000X0.900000X-0.900000X0.900000X0.900000X-0.900000X0.900000X-0.900000X-0.900000X0*%
%ADD34C,2.200000*%
%ADD35RoundRect,0.450000X0.350000X0.450000X-0.350000X0.450000X-0.350000X-0.450000X0.350000X-0.450000X0*%
%ADD36RoundRect,0.200000X-0.900000X0.900000X-0.900000X-0.900000X0.900000X-0.900000X0.900000X0.900000X0*%
%ADD37RoundRect,0.450000X-0.450000X0.350000X-0.450000X-0.350000X0.450000X-0.350000X0.450000X0.350000X0*%
%ADD38RoundRect,0.450000X-0.337500X-0.475000X0.337500X-0.475000X0.337500X0.475000X-0.337500X0.475000X0*%
%ADD39RoundRect,0.350000X-0.150000X0.725000X-0.150000X-0.725000X0.150000X-0.725000X0.150000X0.725000X0*%
%ADD40RoundRect,0.450000X-0.300000X-0.300000X0.300000X-0.300000X0.300000X0.300000X-0.300000X0.300000X0*%
%ADD41RoundRect,0.450000X0.337500X0.475000X-0.337500X0.475000X-0.337500X-0.475000X0.337500X-0.475000X0*%
%ADD42RoundRect,0.450000X0.300000X0.300000X-0.300000X0.300000X-0.300000X-0.300000X0.300000X-0.300000X0*%
%ADD43O,3.120000X3.640000*%
%ADD44RoundRect,0.200000X0.900000X0.900000X-0.900000X0.900000X-0.900000X-0.900000X0.900000X-0.900000X0*%
%ADD45RoundRect,0.200000X0.800000X-0.800000X0.800000X0.800000X-0.800000X0.800000X-0.800000X-0.800000X0*%
%ADD46RoundRect,0.450000X0.450000X-0.350000X0.450000X0.350000X-0.450000X0.350000X-0.450000X-0.350000X0*%
%ADD47RoundRect,0.200000X0.550000X0.900000X-0.550000X0.900000X-0.550000X-0.900000X0.550000X-0.900000X0*%
%ADD48RoundRect,0.475000X0.275000X0.625000X-0.275000X0.625000X-0.275000X-0.625000X0.275000X-0.625000X0*%
%ADD49RoundRect,0.450000X0.475000X-0.337500X0.475000X0.337500X-0.475000X0.337500X-0.475000X-0.337500X0*%
%ADD50RoundRect,0.200000X0.900000X-0.550000X0.900000X0.550000X-0.900000X0.550000X-0.900000X-0.550000X0*%
%ADD51RoundRect,0.475000X0.625000X-0.275000X0.625000X0.275000X-0.625000X0.275000X-0.625000X-0.275000X0*%
%ADD52RoundRect,0.350000X0.150000X-0.587500X0.150000X0.587500X-0.150000X0.587500X-0.150000X-0.587500X0*%
%ADD53RoundRect,0.350000X-0.150000X0.587500X-0.150000X-0.587500X0.150000X-0.587500X0.150000X0.587500X0*%
%ADD54RoundRect,0.200000X1.100000X-1.100000X1.100000X1.100000X-1.100000X1.100000X-1.100000X-1.100000X0*%
%ADD55O,2.600000X2.600000*%
G04 APERTURE END LIST*
D10*
G36*
X167738022Y-97256428D02*
G01*
X167758974Y-97259665D01*
X167799030Y-97267969D01*
X167809854Y-97270495D01*
X167829409Y-97276784D01*
X167849924Y-97286964D01*
X167866074Y-97299720D01*
X167879693Y-97318428D01*
X167886240Y-97336851D01*
X167888422Y-97357850D01*
X167888422Y-97604535D01*
X167758974Y-97577669D01*
X167748149Y-97575142D01*
X167728594Y-97568853D01*
X167708079Y-97558673D01*
X167691929Y-97545917D01*
X167678311Y-97527210D01*
X167671763Y-97508787D01*
X167669581Y-97487787D01*
X167669581Y-97312421D01*
X167670978Y-97295996D01*
X167678311Y-97276624D01*
X167694810Y-97262012D01*
X167715761Y-97256333D01*
X167738022Y-97256428D01*
G37*
G36*
X167738022Y-96218885D02*
G01*
X167758974Y-96222121D01*
X167799030Y-96230425D01*
X167809854Y-96232952D01*
X167829409Y-96239241D01*
X167849924Y-96249421D01*
X167866074Y-96262177D01*
X167879693Y-96280884D01*
X167886240Y-96299307D01*
X167888422Y-96320307D01*
X167888422Y-96566992D01*
X167758974Y-96540125D01*
X167748149Y-96537599D01*
X167728594Y-96531309D01*
X167708079Y-96521130D01*
X167691929Y-96508374D01*
X167678311Y-96489666D01*
X167671763Y-96471243D01*
X167669581Y-96450244D01*
X167669581Y-96274877D01*
X167670978Y-96258452D01*
X167678311Y-96239081D01*
X167694810Y-96224468D01*
X167715761Y-96218789D01*
X167738022Y-96218885D01*
G37*
G36*
X167309729Y-93938854D02*
G01*
X167331060Y-93941870D01*
X167510823Y-93979483D01*
X167518923Y-93981342D01*
X167540020Y-93988356D01*
X167557878Y-93996948D01*
X167575175Y-94007831D01*
X167591912Y-94021004D01*
X167597531Y-94025294D01*
X167612214Y-94038346D01*
X167625221Y-94053920D01*
X167634647Y-94072177D01*
X167638318Y-94093300D01*
X167638318Y-94361967D01*
X167200635Y-94271109D01*
X167200635Y-94016608D01*
X167202060Y-94000946D01*
X167209543Y-93980544D01*
X167223441Y-93963852D01*
X167241179Y-93952128D01*
X167248775Y-93948552D01*
X167269872Y-93941659D01*
X167289333Y-93938784D01*
X167309729Y-93938854D01*
G37*
G36*
X168041318Y-94089392D02*
G01*
X168269930Y-94137264D01*
X168281150Y-94140012D01*
X168300123Y-94146877D01*
X168318255Y-94156361D01*
X168335546Y-94168462D01*
X168351995Y-94183182D01*
X168356432Y-94187731D01*
X168369705Y-94204133D01*
X168379473Y-94221284D01*
X168386342Y-94241800D01*
X168388632Y-94263293D01*
X168388632Y-94517794D01*
X167919685Y-94420586D01*
X167919685Y-94166085D01*
X167921025Y-94150405D01*
X167928057Y-94129913D01*
X167941118Y-94113053D01*
X167957787Y-94101116D01*
X167960176Y-94099833D01*
X167979799Y-94091696D01*
X168000339Y-94087346D01*
X168021794Y-94086781D01*
X168041318Y-94089392D01*
G37*
G36*
X167738022Y-92904998D02*
G01*
X167758974Y-92908234D01*
X167799030Y-92916538D01*
X167809854Y-92919065D01*
X167829409Y-92925354D01*
X167849924Y-92935534D01*
X167866074Y-92948290D01*
X167879693Y-92966997D01*
X167886240Y-92985420D01*
X167888422Y-93006420D01*
X167888422Y-93253105D01*
X167758974Y-93226238D01*
X167748149Y-93223712D01*
X167728594Y-93217423D01*
X167708079Y-93207243D01*
X167691929Y-93194487D01*
X167678311Y-93175779D01*
X167671763Y-93157356D01*
X167669581Y-93136357D01*
X167669581Y-92960990D01*
X167670978Y-92944565D01*
X167678311Y-92925194D01*
X167694810Y-92910581D01*
X167715761Y-92904902D01*
X167738022Y-92904998D01*
G37*
G36*
X168309986Y-92040683D02*
G01*
X168328839Y-92047080D01*
X168347116Y-92058210D01*
X168363230Y-92072435D01*
X168376626Y-92088740D01*
X168385630Y-92107667D01*
X168388632Y-92127634D01*
X168388632Y-92242916D01*
X168387136Y-92258304D01*
X168379282Y-92277721D01*
X168364696Y-92292742D01*
X168350494Y-92300504D01*
X168330115Y-92305084D01*
X168309986Y-92303489D01*
X168248436Y-92290788D01*
X168246550Y-92290371D01*
X168226615Y-92283140D01*
X168209794Y-92272359D01*
X168194214Y-92257571D01*
X168191257Y-92254131D01*
X168179331Y-92236299D01*
X168172175Y-92217418D01*
X168169790Y-92197487D01*
X168169790Y-92011374D01*
X168309986Y-92040683D01*
G37*
G36*
X167309729Y-87356021D02*
G01*
X167331060Y-87359036D01*
X167510823Y-87396650D01*
X167518923Y-87398509D01*
X167540020Y-87405523D01*
X167557878Y-87414115D01*
X167575175Y-87424998D01*
X167591912Y-87438171D01*
X167597531Y-87442461D01*
X167612214Y-87455512D01*
X167625221Y-87471087D01*
X167634647Y-87489344D01*
X167638318Y-87510467D01*
X167638318Y-87779134D01*
X167200635Y-87688276D01*
X167200635Y-87433775D01*
X167202060Y-87418113D01*
X167209543Y-87397711D01*
X167223441Y-87381018D01*
X167241179Y-87369295D01*
X167248775Y-87365718D01*
X167269872Y-87358826D01*
X167289333Y-87355951D01*
X167309729Y-87356021D01*
G37*
G36*
X168041318Y-87506559D02*
G01*
X168269930Y-87554431D01*
X168281150Y-87557178D01*
X168300123Y-87564044D01*
X168318255Y-87573528D01*
X168335546Y-87585629D01*
X168351995Y-87600348D01*
X168356432Y-87604897D01*
X168369705Y-87621300D01*
X168379473Y-87638450D01*
X168386342Y-87658967D01*
X168388632Y-87680460D01*
X168388632Y-87934961D01*
X167919685Y-87837752D01*
X167919685Y-87583251D01*
X167921025Y-87567572D01*
X167928057Y-87547080D01*
X167941118Y-87530220D01*
X167957787Y-87518283D01*
X167960176Y-87517000D01*
X167979799Y-87508863D01*
X168000339Y-87504513D01*
X168021794Y-87503948D01*
X168041318Y-87506559D01*
G37*
G36*
X167303172Y-86094848D02*
G01*
X167323244Y-86097766D01*
X167512777Y-86136845D01*
X167527253Y-86140542D01*
X167546917Y-86147882D01*
X167565881Y-86157746D01*
X167584144Y-86170135D01*
X167599239Y-86182763D01*
X167601643Y-86184997D01*
X167616336Y-86200928D01*
X167628548Y-86219766D01*
X167635875Y-86239275D01*
X167638318Y-86259455D01*
X167638318Y-86596510D01*
X167200635Y-86505652D01*
X167200635Y-86168597D01*
X167201974Y-86153021D01*
X167209007Y-86133070D01*
X167222067Y-86117214D01*
X167238736Y-86106559D01*
X167241096Y-86105427D01*
X167260628Y-86098359D01*
X167281320Y-86094833D01*
X167303172Y-86094848D01*
G37*
G36*
X169180714Y-100736190D02*
G01*
X166408553Y-100736190D01*
X166408553Y-99519888D01*
X166919267Y-99519888D01*
X166919721Y-99540990D01*
X166921083Y-99561921D01*
X166923354Y-99582679D01*
X166926533Y-99603266D01*
X166930620Y-99623682D01*
X166935616Y-99643925D01*
X166941520Y-99663997D01*
X166948332Y-99683897D01*
X166956052Y-99703625D01*
X166964681Y-99723182D01*
X166974218Y-99742567D01*
X166984663Y-99761780D01*
X166996016Y-99780821D01*
X167008278Y-99799691D01*
X167021448Y-99818389D01*
X167035526Y-99836915D01*
X167050276Y-99854918D01*
X167065461Y-99872048D01*
X167081081Y-99888303D01*
X167097137Y-99903685D01*
X167113627Y-99918193D01*
X167130552Y-99931826D01*
X167147912Y-99944586D01*
X167165708Y-99956472D01*
X167183938Y-99967484D01*
X167202604Y-99977622D01*
X167221704Y-99986886D01*
X167241240Y-99995276D01*
X167261211Y-100002792D01*
X167281616Y-100009434D01*
X167302457Y-100015203D01*
X167323733Y-100020097D01*
X168265533Y-100215980D01*
X168286809Y-100219916D01*
X168307650Y-100222811D01*
X168328056Y-100224664D01*
X168348026Y-100225475D01*
X168377167Y-100224738D01*
X168405328Y-100221657D01*
X168432511Y-100216231D01*
X168458714Y-100208462D01*
X168483939Y-100198348D01*
X168508185Y-100185890D01*
X168531452Y-100171088D01*
X168553740Y-100153942D01*
X168574517Y-100134967D01*
X168593250Y-100114678D01*
X168609940Y-100093076D01*
X168624586Y-100070159D01*
X168637188Y-100045929D01*
X168647747Y-100020385D01*
X168656262Y-99993528D01*
X168662733Y-99965356D01*
X168665912Y-99945845D01*
X168668183Y-99925751D01*
X168669545Y-99905072D01*
X168670000Y-99883810D01*
X168670000Y-99645429D01*
X168669566Y-99624617D01*
X168668267Y-99603946D01*
X168666101Y-99583416D01*
X168663069Y-99563027D01*
X168659171Y-99542780D01*
X168654406Y-99522674D01*
X168648775Y-99502709D01*
X168642278Y-99482885D01*
X168634914Y-99463203D01*
X168626685Y-99443661D01*
X168617588Y-99424261D01*
X168607626Y-99405002D01*
X168596797Y-99385884D01*
X168585102Y-99366908D01*
X168572541Y-99348073D01*
X168559113Y-99329378D01*
X168545033Y-99311201D01*
X168530514Y-99293917D01*
X168515556Y-99277526D01*
X168500159Y-99262028D01*
X168484323Y-99247424D01*
X168468049Y-99233712D01*
X168451335Y-99220893D01*
X168434183Y-99208967D01*
X168416592Y-99197934D01*
X168398562Y-99187794D01*
X168380093Y-99178547D01*
X168361185Y-99170193D01*
X168341838Y-99162732D01*
X168322053Y-99156164D01*
X168301828Y-99150490D01*
X168281165Y-99145708D01*
X167919685Y-99070481D01*
X167919685Y-99560921D01*
X168201053Y-99619050D01*
X168201053Y-99451500D01*
X168270907Y-99466154D01*
X168282012Y-99468879D01*
X168300822Y-99475595D01*
X168318837Y-99484787D01*
X168336058Y-99496458D01*
X168352484Y-99510607D01*
X168354708Y-99512811D01*
X168368299Y-99528558D01*
X168379595Y-99547243D01*
X168386372Y-99566660D01*
X168388632Y-99586810D01*
X168388632Y-99825191D01*
X168387361Y-99839892D01*
X168380689Y-99859366D01*
X168368299Y-99875750D01*
X168352484Y-99887718D01*
X168333647Y-99896327D01*
X168313771Y-99901151D01*
X168292858Y-99902189D01*
X168270907Y-99899441D01*
X167315917Y-99701116D01*
X167308005Y-99699227D01*
X167287450Y-99691839D01*
X167270116Y-99682569D01*
X167253390Y-99670681D01*
X167237271Y-99656175D01*
X167235017Y-99653881D01*
X167221243Y-99637582D01*
X167209794Y-99618440D01*
X167202924Y-99598748D01*
X167200635Y-99578506D01*
X167200635Y-99340125D01*
X167201991Y-99325493D01*
X167209114Y-99306380D01*
X167222342Y-99290666D01*
X167239225Y-99279553D01*
X167258856Y-99271371D01*
X167279159Y-99266852D01*
X167300133Y-99265997D01*
X167321779Y-99268806D01*
X167398960Y-99284926D01*
X167317871Y-98945429D01*
X167307480Y-98943872D01*
X167286998Y-98941490D01*
X167266916Y-98940086D01*
X167237546Y-98939811D01*
X167209077Y-98941734D01*
X167181509Y-98945856D01*
X167154843Y-98952176D01*
X167129079Y-98960694D01*
X167104216Y-98971410D01*
X167080255Y-98984324D01*
X167057196Y-98999437D01*
X167035038Y-99016748D01*
X167021019Y-99029231D01*
X167001686Y-99048971D01*
X166984388Y-99069931D01*
X166969125Y-99092111D01*
X166955897Y-99115509D01*
X166944705Y-99140127D01*
X166935547Y-99165965D01*
X166928424Y-99193021D01*
X166923337Y-99221297D01*
X166921076Y-99240825D01*
X166919719Y-99260895D01*
X166919267Y-99281507D01*
X166919267Y-99519888D01*
X166408553Y-99519888D01*
X166408553Y-98769085D01*
X167388213Y-98769085D01*
X168670000Y-99035799D01*
X168670000Y-98740265D01*
X167755554Y-98550244D01*
X167745143Y-98547754D01*
X167722055Y-98539508D01*
X167703164Y-98528376D01*
X167688471Y-98514359D01*
X167677977Y-98497455D01*
X167671680Y-98477665D01*
X167669581Y-98454989D01*
X167669581Y-98326517D01*
X167670871Y-98310069D01*
X167677643Y-98290577D01*
X167692880Y-98275694D01*
X167712228Y-98269672D01*
X167732786Y-98269403D01*
X167752135Y-98272295D01*
X167813196Y-98284996D01*
X167740900Y-97982623D01*
X167676908Y-97974319D01*
X167654354Y-97972371D01*
X167632486Y-97971840D01*
X167611306Y-97972726D01*
X167590812Y-97975029D01*
X167571006Y-97978748D01*
X167551886Y-97983885D01*
X167527462Y-97992937D01*
X167504259Y-98004508D01*
X167487658Y-98014839D01*
X167471744Y-98026587D01*
X167452167Y-98043921D01*
X167435199Y-98062949D01*
X167420842Y-98083671D01*
X167409096Y-98106088D01*
X167399960Y-98130199D01*
X167394820Y-98149395D01*
X167391150Y-98169544D01*
X167388947Y-98190645D01*
X167388213Y-98212700D01*
X167388213Y-98347034D01*
X167388724Y-98368558D01*
X167390259Y-98390020D01*
X167392815Y-98411422D01*
X167396395Y-98432763D01*
X167400998Y-98454043D01*
X167406623Y-98475261D01*
X167413271Y-98496419D01*
X167420942Y-98517515D01*
X167429635Y-98538551D01*
X167439351Y-98559525D01*
X167450090Y-98580438D01*
X167461852Y-98601290D01*
X167474637Y-98622082D01*
X167488444Y-98642812D01*
X167503274Y-98663481D01*
X167519127Y-98684089D01*
X167388213Y-98694836D01*
X167388213Y-98769085D01*
X166408553Y-98769085D01*
X166408553Y-97494626D01*
X167388213Y-97494626D01*
X167388553Y-97509603D01*
X167390336Y-97531904D01*
X167393647Y-97554008D01*
X167398487Y-97575914D01*
X167404856Y-97597622D01*
X167412753Y-97619133D01*
X167422178Y-97640447D01*
X167433132Y-97661563D01*
X167445614Y-97682481D01*
X167459624Y-97703202D01*
X167475163Y-97723726D01*
X167486166Y-97736957D01*
X167503170Y-97755587D01*
X167520776Y-97772758D01*
X167538982Y-97788468D01*
X167557790Y-97802719D01*
X167577199Y-97815511D01*
X167597209Y-97826842D01*
X167617819Y-97836714D01*
X167639031Y-97845126D01*
X167660844Y-97852078D01*
X167683258Y-97857571D01*
X168374954Y-98001186D01*
X168390313Y-98004039D01*
X168412786Y-98006879D01*
X168434580Y-98007994D01*
X168455696Y-98007383D01*
X168476134Y-98005046D01*
X168495893Y-98000983D01*
X168514974Y-97995194D01*
X168533377Y-97987679D01*
X168551101Y-97978439D01*
X168568147Y-97967472D01*
X168584515Y-97954780D01*
X168594866Y-97945485D01*
X168609142Y-97930806D01*
X168621914Y-97915243D01*
X168633184Y-97898795D01*
X168642952Y-97881463D01*
X168651216Y-97863246D01*
X168657978Y-97844145D01*
X168663238Y-97824160D01*
X168666994Y-97803290D01*
X168669248Y-97781536D01*
X168670000Y-97758897D01*
X168670000Y-97515143D01*
X168669685Y-97499816D01*
X168668032Y-97477056D01*
X168664962Y-97454570D01*
X168660475Y-97432359D01*
X168654572Y-97410423D01*
X168647252Y-97388762D01*
X168638515Y-97367376D01*
X168628361Y-97346264D01*
X168616791Y-97325427D01*
X168603803Y-97304865D01*
X168589399Y-97284577D01*
X168579176Y-97271468D01*
X168563282Y-97253021D01*
X168546718Y-97236034D01*
X168529484Y-97220506D01*
X168511581Y-97206439D01*
X168493008Y-97193831D01*
X168473766Y-97182682D01*
X168453853Y-97172994D01*
X168433271Y-97164765D01*
X168412019Y-97157996D01*
X168390097Y-97152686D01*
X168333921Y-97140963D01*
X168261137Y-97413538D01*
X168316824Y-97425261D01*
X168335274Y-97431715D01*
X168352339Y-97443018D01*
X168366650Y-97457501D01*
X168368002Y-97459156D01*
X168379165Y-97476329D01*
X168386485Y-97496542D01*
X168388632Y-97516120D01*
X168388632Y-97631402D01*
X168387533Y-97643951D01*
X168379663Y-97663535D01*
X168365673Y-97677320D01*
X168356794Y-97682443D01*
X168336968Y-97688477D01*
X168316336Y-97687578D01*
X168169790Y-97657292D01*
X168169790Y-97416468D01*
X168169456Y-97401430D01*
X168167703Y-97379038D01*
X168164447Y-97356843D01*
X168159689Y-97334845D01*
X168153428Y-97313045D01*
X168145664Y-97291442D01*
X168136398Y-97270037D01*
X168125628Y-97248830D01*
X168113357Y-97227819D01*
X168099582Y-97207007D01*
X168084305Y-97186392D01*
X168073463Y-97173040D01*
X168056613Y-97154237D01*
X168039059Y-97136902D01*
X168020801Y-97121035D01*
X168001839Y-97106637D01*
X167982173Y-97093707D01*
X167961802Y-97082245D01*
X167940728Y-97072252D01*
X167918949Y-97063726D01*
X167896466Y-97056670D01*
X167873279Y-97051081D01*
X167684724Y-97012002D01*
X167669188Y-97009096D01*
X167646470Y-97006204D01*
X167624457Y-97005072D01*
X167603148Y-97005700D01*
X167582543Y-97008089D01*
X167562642Y-97012237D01*
X167543445Y-97018147D01*
X167524952Y-97025816D01*
X167507163Y-97035245D01*
X167490079Y-97046435D01*
X167473698Y-97059385D01*
X167463346Y-97068789D01*
X167449071Y-97083581D01*
X167436298Y-97099197D01*
X167425028Y-97115638D01*
X167415261Y-97132903D01*
X167406996Y-97150992D01*
X167400234Y-97169905D01*
X167394975Y-97189643D01*
X167391218Y-97210205D01*
X167388964Y-97231592D01*
X167388213Y-97253803D01*
X167388213Y-97487787D01*
X167388213Y-97494626D01*
X166408553Y-97494626D01*
X166408553Y-96457083D01*
X167388213Y-96457083D01*
X167388553Y-96472060D01*
X167390336Y-96494361D01*
X167393647Y-96516464D01*
X167398487Y-96538370D01*
X167404856Y-96560079D01*
X167412753Y-96581590D01*
X167422178Y-96602903D01*
X167433132Y-96624019D01*
X167445614Y-96644938D01*
X167459624Y-96665659D01*
X167475163Y-96686182D01*
X167486166Y-96699413D01*
X167503170Y-96718044D01*
X167520776Y-96735214D01*
X167538982Y-96750925D01*
X167557790Y-96765176D01*
X167577199Y-96777967D01*
X167597209Y-96789299D01*
X167617819Y-96799170D01*
X167639031Y-96807582D01*
X167660844Y-96814535D01*
X167683258Y-96820027D01*
X168374954Y-96963642D01*
X168390313Y-96966495D01*
X168412786Y-96969336D01*
X168434580Y-96970450D01*
X168455696Y-96969839D01*
X168476134Y-96967502D01*
X168495893Y-96963439D01*
X168514974Y-96957651D01*
X168533377Y-96950136D01*
X168551101Y-96940895D01*
X168568147Y-96929929D01*
X168584515Y-96917236D01*
X168594866Y-96907941D01*
X168609142Y-96893263D01*
X168621914Y-96877699D01*
X168633184Y-96861252D01*
X168642952Y-96843919D01*
X168651216Y-96825703D01*
X168657978Y-96806602D01*
X168663238Y-96786616D01*
X168666994Y-96765746D01*
X168669248Y-96743992D01*
X168670000Y-96721353D01*
X168670000Y-96477599D01*
X168669685Y-96462273D01*
X168668032Y-96439512D01*
X168664962Y-96417027D01*
X168660475Y-96394816D01*
X168654572Y-96372880D01*
X168647252Y-96351219D01*
X168638515Y-96329832D01*
X168628361Y-96308720D01*
X168616791Y-96287883D01*
X168603803Y-96267321D01*
X168589399Y-96247034D01*
X168579176Y-96233925D01*
X168563282Y-96215478D01*
X168546718Y-96198490D01*
X168529484Y-96182963D01*
X168511581Y-96168895D01*
X168493008Y-96156287D01*
X168473766Y-96145139D01*
X168453853Y-96135450D01*
X168433271Y-96127221D01*
X168412019Y-96120452D01*
X168390097Y-96115143D01*
X168333921Y-96103419D01*
X168261137Y-96375994D01*
X168316824Y-96387718D01*
X168335274Y-96394172D01*
X168352339Y-96405475D01*
X168366650Y-96419958D01*
X168368002Y-96421612D01*
X168379165Y-96438785D01*
X168386485Y-96458998D01*
X168388632Y-96478576D01*
X168388632Y-96593859D01*
X168387533Y-96606407D01*
X168379663Y-96625992D01*
X168365673Y-96639776D01*
X168356794Y-96644900D01*
X168336968Y-96650934D01*
X168316336Y-96650034D01*
X168169790Y-96619748D01*
X168169790Y-96378925D01*
X168169456Y-96363887D01*
X168167703Y-96341494D01*
X168164447Y-96319299D01*
X168159689Y-96297301D01*
X168153428Y-96275501D01*
X168145664Y-96253899D01*
X168136398Y-96232494D01*
X168125628Y-96211286D01*
X168113357Y-96190276D01*
X168099582Y-96169463D01*
X168084305Y-96148848D01*
X168073463Y-96135497D01*
X168056613Y-96116693D01*
X168039059Y-96099358D01*
X168020801Y-96083492D01*
X168001839Y-96069093D01*
X167982173Y-96056163D01*
X167961802Y-96044701D01*
X167940728Y-96034708D01*
X167918949Y-96026183D01*
X167896466Y-96019126D01*
X167873279Y-96013538D01*
X167684724Y-95974459D01*
X167669188Y-95971553D01*
X167646470Y-95968660D01*
X167624457Y-95967528D01*
X167603148Y-95968157D01*
X167582543Y-95970545D01*
X167562642Y-95974694D01*
X167543445Y-95980603D01*
X167524952Y-95988272D01*
X167507163Y-95997702D01*
X167490079Y-96008892D01*
X167473698Y-96021842D01*
X167463346Y-96031245D01*
X167449071Y-96046037D01*
X167436298Y-96061653D01*
X167425028Y-96078094D01*
X167415261Y-96095359D01*
X167406996Y-96113448D01*
X167400234Y-96132362D01*
X167394975Y-96152100D01*
X167391218Y-96172662D01*
X167388964Y-96194048D01*
X167388213Y-96216259D01*
X167388213Y-96450244D01*
X167388213Y-96457083D01*
X166408553Y-96457083D01*
X166408553Y-95720935D01*
X167388213Y-95720935D01*
X168670000Y-95987648D01*
X168670000Y-95692114D01*
X167755554Y-95502093D01*
X167750265Y-95500911D01*
X167730787Y-95495145D01*
X167710217Y-95485597D01*
X167693845Y-95473449D01*
X167679740Y-95455440D01*
X167671680Y-95433687D01*
X167669581Y-95412700D01*
X167669581Y-95292044D01*
X167670924Y-95275726D01*
X167677977Y-95256457D01*
X167693845Y-95241878D01*
X167713995Y-95236154D01*
X167735404Y-95236158D01*
X167755554Y-95239288D01*
X168670000Y-95429309D01*
X168670000Y-95133286D01*
X167687166Y-94929099D01*
X167671567Y-94926187D01*
X167648748Y-94923265D01*
X167626625Y-94922077D01*
X167605197Y-94922624D01*
X167584464Y-94924905D01*
X167564427Y-94928921D01*
X167545086Y-94934671D01*
X167526440Y-94942156D01*
X167508489Y-94951375D01*
X167491234Y-94962329D01*
X167474675Y-94975017D01*
X167464205Y-94984252D01*
X167449767Y-94998850D01*
X167436848Y-95014340D01*
X167425449Y-95030723D01*
X167415570Y-95048000D01*
X167407211Y-95066169D01*
X167400372Y-95085232D01*
X167395052Y-95105187D01*
X167391253Y-95126035D01*
X167388973Y-95147777D01*
X167388213Y-95170411D01*
X167388213Y-95304745D01*
X167388736Y-95325904D01*
X167390304Y-95347006D01*
X167392919Y-95368051D01*
X167396578Y-95389039D01*
X167401284Y-95409970D01*
X167407035Y-95430843D01*
X167413832Y-95451659D01*
X167421674Y-95472418D01*
X167430562Y-95493119D01*
X167440496Y-95513763D01*
X167451476Y-95534350D01*
X167463501Y-95554880D01*
X167476572Y-95575353D01*
X167490688Y-95595768D01*
X167505850Y-95616126D01*
X167522058Y-95636427D01*
X167388213Y-95646685D01*
X167388213Y-95720935D01*
X166408553Y-95720935D01*
X166408553Y-94612561D01*
X166919267Y-94612561D01*
X167200635Y-94671179D01*
X167200635Y-94588625D01*
X168388632Y-94835310D01*
X168388632Y-94917864D01*
X168670000Y-94976482D01*
X168670000Y-94321912D01*
X168669536Y-94300395D01*
X168668145Y-94279077D01*
X168665826Y-94257958D01*
X168662581Y-94237037D01*
X168658408Y-94216315D01*
X168653307Y-94195791D01*
X168647279Y-94175465D01*
X168640324Y-94155338D01*
X168632441Y-94135409D01*
X168623632Y-94115679D01*
X168613894Y-94096147D01*
X168603230Y-94076814D01*
X168591638Y-94057679D01*
X168579118Y-94038743D01*
X168565672Y-94020005D01*
X168551297Y-94001465D01*
X168536238Y-93983399D01*
X168520737Y-93966202D01*
X168504792Y-93949876D01*
X168488405Y-93934420D01*
X168471575Y-93919834D01*
X168454303Y-93906119D01*
X168436587Y-93893273D01*
X168418429Y-93881297D01*
X168399829Y-93870192D01*
X168380785Y-93859957D01*
X168361299Y-93850592D01*
X168341371Y-93842096D01*
X168320999Y-93834472D01*
X168300185Y-93827717D01*
X168278929Y-93821832D01*
X168257229Y-93816817D01*
X168028129Y-93769434D01*
X168018964Y-93767652D01*
X167991768Y-93764000D01*
X167965017Y-93762889D01*
X167938714Y-93764320D01*
X167912856Y-93768293D01*
X167887445Y-93774808D01*
X167862481Y-93783864D01*
X167837963Y-93795461D01*
X167813892Y-93809601D01*
X167790267Y-93826282D01*
X167774766Y-93838814D01*
X167759462Y-93852477D01*
X167745164Y-93832661D01*
X167730603Y-93813879D01*
X167715779Y-93796131D01*
X167700691Y-93779418D01*
X167685340Y-93763738D01*
X167669726Y-93749093D01*
X167653848Y-93735483D01*
X167637707Y-93722906D01*
X167621303Y-93711364D01*
X167604635Y-93700855D01*
X167579140Y-93687032D01*
X167553052Y-93675536D01*
X167526372Y-93666367D01*
X167499099Y-93659525D01*
X167334968Y-93625331D01*
X167324062Y-93623174D01*
X167302572Y-93619659D01*
X167281514Y-93617209D01*
X167260887Y-93615824D01*
X167240691Y-93615504D01*
X167220926Y-93616248D01*
X167192088Y-93619360D01*
X167164220Y-93624869D01*
X167137322Y-93632773D01*
X167111395Y-93643072D01*
X167086438Y-93655768D01*
X167062451Y-93670859D01*
X167039434Y-93688346D01*
X167017959Y-93707648D01*
X166998596Y-93728188D01*
X166981345Y-93749964D01*
X166966207Y-93772976D01*
X166953181Y-93797225D01*
X166942268Y-93822710D01*
X166933466Y-93849431D01*
X166926777Y-93877390D01*
X166923491Y-93896715D01*
X166921144Y-93916591D01*
X166919736Y-93937015D01*
X166919267Y-93957990D01*
X166919267Y-94271109D01*
X166919267Y-94420586D01*
X166919267Y-94612561D01*
X166408553Y-94612561D01*
X166408553Y-93143196D01*
X167388213Y-93143196D01*
X167388553Y-93158173D01*
X167390336Y-93180474D01*
X167393647Y-93202577D01*
X167398487Y-93224483D01*
X167404856Y-93246192D01*
X167412753Y-93267703D01*
X167422178Y-93289016D01*
X167433132Y-93310132D01*
X167445614Y-93331051D01*
X167459624Y-93351772D01*
X167475163Y-93372295D01*
X167486166Y-93385526D01*
X167503170Y-93404157D01*
X167520776Y-93421327D01*
X167538982Y-93437038D01*
X167557790Y-93451289D01*
X167577199Y-93464080D01*
X167597209Y-93475412D01*
X167617819Y-93485283D01*
X167639031Y-93493696D01*
X167660844Y-93500648D01*
X167683258Y-93506140D01*
X168374954Y-93649755D01*
X168390313Y-93652608D01*
X168412786Y-93655449D01*
X168434580Y-93656564D01*
X168455696Y-93655952D01*
X168476134Y-93653615D01*
X168495893Y-93649553D01*
X168514974Y-93643764D01*
X168533377Y-93636249D01*
X168551101Y-93627008D01*
X168568147Y-93616042D01*
X168584515Y-93603349D01*
X168594866Y-93594055D01*
X168609142Y-93579376D01*
X168621914Y-93563812D01*
X168633184Y-93547365D01*
X168642952Y-93530032D01*
X168651216Y-93511816D01*
X168657978Y-93492715D01*
X168663238Y-93472729D01*
X168666994Y-93451859D01*
X168669248Y-93430105D01*
X168670000Y-93407466D01*
X168670000Y-93163712D01*
X168669685Y-93148386D01*
X168668032Y-93125625D01*
X168664962Y-93103140D01*
X168660475Y-93080929D01*
X168654572Y-93058993D01*
X168647252Y-93037332D01*
X168638515Y-93015945D01*
X168628361Y-92994833D01*
X168616791Y-92973996D01*
X168603803Y-92953434D01*
X168589399Y-92933147D01*
X168579176Y-92920038D01*
X168563282Y-92901591D01*
X168546718Y-92884603D01*
X168529484Y-92869076D01*
X168511581Y-92855008D01*
X168493008Y-92842400D01*
X168473766Y-92831252D01*
X168453853Y-92821563D01*
X168433271Y-92813334D01*
X168412019Y-92806565D01*
X168390097Y-92801256D01*
X168333921Y-92789532D01*
X168261137Y-93062107D01*
X168316824Y-93073831D01*
X168335274Y-93080285D01*
X168352339Y-93091588D01*
X168366650Y-93106071D01*
X168368002Y-93107725D01*
X168379165Y-93124898D01*
X168386485Y-93145111D01*
X168388632Y-93164689D01*
X168388632Y-93279972D01*
X168387533Y-93292521D01*
X168379663Y-93312105D01*
X168365673Y-93325889D01*
X168356794Y-93331013D01*
X168336968Y-93337047D01*
X168316336Y-93336147D01*
X168169790Y-93305861D01*
X168169790Y-93065038D01*
X168169456Y-93050000D01*
X168167703Y-93027607D01*
X168164447Y-93005412D01*
X168159689Y-92983414D01*
X168153428Y-92961614D01*
X168145664Y-92940012D01*
X168136398Y-92918607D01*
X168125628Y-92897399D01*
X168113357Y-92876389D01*
X168099582Y-92855576D01*
X168084305Y-92834961D01*
X168073463Y-92821610D01*
X168056613Y-92802806D01*
X168039059Y-92785471D01*
X168020801Y-92769605D01*
X168001839Y-92755206D01*
X167982173Y-92742276D01*
X167961802Y-92730814D01*
X167940728Y-92720821D01*
X167918949Y-92712296D01*
X167896466Y-92705239D01*
X167873279Y-92699651D01*
X167684724Y-92660572D01*
X167669188Y-92657666D01*
X167646470Y-92654773D01*
X167624457Y-92653641D01*
X167603148Y-92654270D01*
X167582543Y-92656658D01*
X167562642Y-92660807D01*
X167543445Y-92666716D01*
X167524952Y-92674385D01*
X167507163Y-92683815D01*
X167490079Y-92695005D01*
X167473698Y-92707955D01*
X167463346Y-92717358D01*
X167449071Y-92732150D01*
X167436298Y-92747766D01*
X167425028Y-92764207D01*
X167415261Y-92781472D01*
X167406996Y-92799561D01*
X167400234Y-92818475D01*
X167394975Y-92838213D01*
X167391218Y-92858775D01*
X167388964Y-92880161D01*
X167388213Y-92902372D01*
X167388213Y-93136357D01*
X167388213Y-93143196D01*
X166408553Y-93143196D01*
X166408553Y-92067550D01*
X167388213Y-92067550D01*
X167388539Y-92082529D01*
X167390252Y-92104840D01*
X167393434Y-92126962D01*
X167398083Y-92148895D01*
X167404201Y-92170640D01*
X167411788Y-92192195D01*
X167420842Y-92213562D01*
X167431365Y-92234739D01*
X167443357Y-92255728D01*
X167456816Y-92276528D01*
X167471744Y-92297138D01*
X167482277Y-92310429D01*
X167498649Y-92329140D01*
X167515708Y-92346384D01*
X167533454Y-92362159D01*
X167551886Y-92376466D01*
X167571006Y-92389304D01*
X167590812Y-92400674D01*
X167611306Y-92410576D01*
X167632486Y-92419010D01*
X167654354Y-92425975D01*
X167676908Y-92431472D01*
X167740900Y-92445150D01*
X167799030Y-92223866D01*
X167751646Y-92214096D01*
X167728004Y-92207441D01*
X167708370Y-92198163D01*
X167692742Y-92186261D01*
X167679278Y-92168515D01*
X167671584Y-92146991D01*
X167669581Y-92126168D01*
X167669581Y-91978157D01*
X167669658Y-91973816D01*
X167673344Y-91951353D01*
X167684634Y-91932917D01*
X167703451Y-91922849D01*
X167725570Y-91920880D01*
X167748227Y-91923935D01*
X167888422Y-91952756D01*
X167888422Y-92011374D01*
X167888422Y-92207257D01*
X167888756Y-92222587D01*
X167890509Y-92245367D01*
X167893765Y-92267890D01*
X167898524Y-92290156D01*
X167904785Y-92312163D01*
X167912549Y-92333913D01*
X167921815Y-92355406D01*
X167932584Y-92376640D01*
X167944856Y-92397618D01*
X167958630Y-92418337D01*
X167973907Y-92438799D01*
X167984690Y-92451973D01*
X168001459Y-92470532D01*
X168018940Y-92487648D01*
X168037133Y-92503321D01*
X168056040Y-92517552D01*
X168075659Y-92530341D01*
X168095991Y-92541687D01*
X168117035Y-92551590D01*
X168138792Y-92560051D01*
X168161262Y-92567069D01*
X168184445Y-92572644D01*
X168371535Y-92611723D01*
X168387075Y-92614576D01*
X168409812Y-92617417D01*
X168431863Y-92618531D01*
X168453226Y-92617920D01*
X168473903Y-92615583D01*
X168493893Y-92611520D01*
X168513196Y-92605732D01*
X168531811Y-92598217D01*
X168549740Y-92588976D01*
X168566982Y-92578010D01*
X168583538Y-92565317D01*
X168594008Y-92556082D01*
X168608446Y-92541484D01*
X168621365Y-92525994D01*
X168632763Y-92509611D01*
X168642642Y-92492334D01*
X168651002Y-92474165D01*
X168657841Y-92455102D01*
X168663160Y-92435147D01*
X168666960Y-92414299D01*
X168669240Y-92392557D01*
X168670000Y-92369923D01*
X168670000Y-92235589D01*
X168669563Y-92213130D01*
X168668252Y-92190939D01*
X168666067Y-92169014D01*
X168663008Y-92147356D01*
X168659075Y-92125966D01*
X168654269Y-92104843D01*
X168648588Y-92083987D01*
X168642034Y-92063398D01*
X168634605Y-92043076D01*
X168626303Y-92023022D01*
X168617127Y-92003234D01*
X168607076Y-91983714D01*
X168596152Y-91964461D01*
X168584354Y-91945474D01*
X168571682Y-91926756D01*
X168558136Y-91908304D01*
X168670000Y-91890718D01*
X168670000Y-91813538D01*
X167687166Y-91609351D01*
X167671567Y-91606439D01*
X167648748Y-91603516D01*
X167626625Y-91602329D01*
X167605197Y-91602875D01*
X167584464Y-91605156D01*
X167564427Y-91609172D01*
X167545086Y-91614922D01*
X167526440Y-91622407D01*
X167508489Y-91631626D01*
X167491234Y-91642580D01*
X167474675Y-91655268D01*
X167464205Y-91664504D01*
X167449767Y-91679101D01*
X167436848Y-91694591D01*
X167425449Y-91710975D01*
X167415570Y-91728251D01*
X167407211Y-91746420D01*
X167400372Y-91765483D01*
X167395052Y-91785438D01*
X167391253Y-91806287D01*
X167388973Y-91828028D01*
X167388213Y-91850662D01*
X167388213Y-92067550D01*
X166408553Y-92067550D01*
X166408553Y-91359734D01*
X167388213Y-91359734D01*
X168670000Y-91626448D01*
X168670000Y-91330914D01*
X167755554Y-91140893D01*
X167750265Y-91139711D01*
X167730787Y-91133945D01*
X167710217Y-91124397D01*
X167693845Y-91112249D01*
X167679740Y-91094240D01*
X167671680Y-91072487D01*
X167669581Y-91051500D01*
X167669581Y-90930844D01*
X167670924Y-90914525D01*
X167677977Y-90895257D01*
X167693845Y-90880678D01*
X167713995Y-90874953D01*
X167735404Y-90874958D01*
X167755554Y-90878087D01*
X168670000Y-91068108D01*
X168670000Y-90772086D01*
X167687166Y-90567899D01*
X167671567Y-90564987D01*
X167648748Y-90562065D01*
X167626625Y-90560877D01*
X167605197Y-90561424D01*
X167584464Y-90563705D01*
X167564427Y-90567721D01*
X167545086Y-90573471D01*
X167526440Y-90580956D01*
X167508489Y-90590175D01*
X167491234Y-90601128D01*
X167474675Y-90613817D01*
X167464205Y-90623052D01*
X167449767Y-90637649D01*
X167436848Y-90653140D01*
X167425449Y-90669523D01*
X167415570Y-90686799D01*
X167407211Y-90704969D01*
X167400372Y-90724031D01*
X167395052Y-90743987D01*
X167391253Y-90764835D01*
X167388973Y-90786577D01*
X167388213Y-90809211D01*
X167388213Y-90943545D01*
X167388736Y-90964704D01*
X167390304Y-90985806D01*
X167392919Y-91006851D01*
X167396578Y-91027839D01*
X167401284Y-91048769D01*
X167407035Y-91069643D01*
X167413832Y-91090458D01*
X167421674Y-91111217D01*
X167430562Y-91131919D01*
X167440496Y-91152563D01*
X167451476Y-91173150D01*
X167463501Y-91193680D01*
X167476572Y-91214152D01*
X167490688Y-91234567D01*
X167505850Y-91254926D01*
X167522058Y-91275226D01*
X167388213Y-91285484D01*
X167388213Y-91359734D01*
X166408553Y-91359734D01*
X166408553Y-88189951D01*
X166919267Y-88189951D01*
X166919267Y-88512840D01*
X167715010Y-88894836D01*
X166919267Y-88946127D01*
X166919267Y-89263642D01*
X168670000Y-89627564D01*
X168670000Y-89310048D01*
X167880607Y-89145917D01*
X168246971Y-89114654D01*
X168246971Y-88895812D01*
X167880607Y-88712630D01*
X168670000Y-88876762D01*
X168670000Y-88553872D01*
X166919267Y-88189951D01*
X166408553Y-88189951D01*
X166408553Y-88029727D01*
X166919267Y-88029727D01*
X167200635Y-88088346D01*
X167200635Y-88005792D01*
X168388632Y-88252477D01*
X168388632Y-88335031D01*
X168670000Y-88393649D01*
X168670000Y-87739078D01*
X168669536Y-87717562D01*
X168668145Y-87696244D01*
X168665826Y-87675125D01*
X168662581Y-87654204D01*
X168658408Y-87633481D01*
X168653307Y-87612957D01*
X168647279Y-87592632D01*
X168640324Y-87572505D01*
X168632441Y-87552576D01*
X168623632Y-87532846D01*
X168613894Y-87513314D01*
X168603230Y-87493981D01*
X168591638Y-87474846D01*
X168579118Y-87455909D01*
X168565672Y-87437171D01*
X168551297Y-87418632D01*
X168536238Y-87400565D01*
X168520737Y-87383369D01*
X168504792Y-87367043D01*
X168488405Y-87351587D01*
X168471575Y-87337001D01*
X168454303Y-87323285D01*
X168436587Y-87310440D01*
X168418429Y-87298464D01*
X168399829Y-87287359D01*
X168380785Y-87277124D01*
X168361299Y-87267758D01*
X168341371Y-87259263D01*
X168320999Y-87251638D01*
X168300185Y-87244883D01*
X168278929Y-87238999D01*
X168257229Y-87233984D01*
X168028129Y-87186601D01*
X168018964Y-87184819D01*
X167991768Y-87181167D01*
X167965017Y-87180056D01*
X167938714Y-87181487D01*
X167912856Y-87185460D01*
X167887445Y-87191974D01*
X167862481Y-87201030D01*
X167837963Y-87212628D01*
X167813892Y-87226768D01*
X167790267Y-87243449D01*
X167774766Y-87255981D01*
X167759462Y-87269644D01*
X167745164Y-87249827D01*
X167730603Y-87231046D01*
X167715779Y-87213298D01*
X167700691Y-87196584D01*
X167685340Y-87180905D01*
X167669726Y-87166260D01*
X167653848Y-87152649D01*
X167637707Y-87140073D01*
X167621303Y-87128530D01*
X167604635Y-87118022D01*
X167579140Y-87104199D01*
X167553052Y-87092703D01*
X167526372Y-87083534D01*
X167499099Y-87076692D01*
X167334968Y-87042498D01*
X167324062Y-87040341D01*
X167302572Y-87036826D01*
X167281514Y-87034376D01*
X167260887Y-87032991D01*
X167240691Y-87032670D01*
X167220926Y-87033414D01*
X167192088Y-87036527D01*
X167164220Y-87042036D01*
X167137322Y-87049940D01*
X167111395Y-87060239D01*
X167086438Y-87072935D01*
X167062451Y-87088026D01*
X167039434Y-87105512D01*
X167017959Y-87124815D01*
X166998596Y-87145355D01*
X166981345Y-87167130D01*
X166966207Y-87190143D01*
X166953181Y-87214391D01*
X166942268Y-87239877D01*
X166933466Y-87266598D01*
X166926777Y-87294556D01*
X166923491Y-87313882D01*
X166921144Y-87333757D01*
X166919736Y-87354182D01*
X166919267Y-87375157D01*
X166919267Y-87688276D01*
X166919267Y-87837752D01*
X166919267Y-88029727D01*
X166408553Y-88029727D01*
X166408553Y-86764549D01*
X166919267Y-86764549D01*
X168670000Y-87128471D01*
X168670000Y-86810956D01*
X167919685Y-86655129D01*
X167919685Y-86318073D01*
X167919228Y-86296616D01*
X167917854Y-86275354D01*
X167915564Y-86254286D01*
X167912358Y-86233413D01*
X167908237Y-86212734D01*
X167903199Y-86192250D01*
X167897246Y-86171961D01*
X167890376Y-86151866D01*
X167882591Y-86131966D01*
X167873890Y-86112261D01*
X167864273Y-86092750D01*
X167853740Y-86073434D01*
X167842291Y-86054312D01*
X167829926Y-86035385D01*
X167816646Y-86016653D01*
X167802449Y-85998115D01*
X167787518Y-85980051D01*
X167772155Y-85962860D01*
X167756361Y-85946544D01*
X167740136Y-85931101D01*
X167723480Y-85916533D01*
X167706393Y-85902838D01*
X167688874Y-85890017D01*
X167670924Y-85878070D01*
X167652543Y-85866997D01*
X167633731Y-85856798D01*
X167614487Y-85847473D01*
X167594812Y-85839022D01*
X167574706Y-85831444D01*
X167554168Y-85824741D01*
X167533200Y-85818912D01*
X167511800Y-85813956D01*
X167330083Y-85776343D01*
X167319298Y-85774217D01*
X167298049Y-85770763D01*
X167277228Y-85768374D01*
X167256833Y-85767050D01*
X167236866Y-85766790D01*
X167217327Y-85767595D01*
X167188819Y-85770800D01*
X167161273Y-85776400D01*
X167134689Y-85784395D01*
X167109066Y-85794787D01*
X167084405Y-85807573D01*
X167060706Y-85822756D01*
X167037969Y-85840334D01*
X167016755Y-85859720D01*
X166997629Y-85880325D01*
X166980588Y-85902150D01*
X166965635Y-85925194D01*
X166952768Y-85949457D01*
X166941987Y-85974939D01*
X166933293Y-86001641D01*
X166926686Y-86029562D01*
X166923440Y-86048853D01*
X166921121Y-86068686D01*
X166919730Y-86089061D01*
X166919267Y-86109979D01*
X166919267Y-86505652D01*
X166919267Y-86764549D01*
X166408553Y-86764549D01*
X166408553Y-85256077D01*
X169180714Y-85256077D01*
X169180714Y-100736190D01*
G37*
X129210000Y-106300000D02*
X129710000Y-105800000D01*
X133110000Y-101800000D02*
X132410000Y-101900000D01*
%TO.C,J1*%
X134176666Y-52132619D02*
X134176666Y-52846904D01*
X134176666Y-52846904D02*
X134129047Y-52989761D01*
X134129047Y-52989761D02*
X134033809Y-53085000D01*
X134033809Y-53085000D02*
X133890952Y-53132619D01*
X133890952Y-53132619D02*
X133795714Y-53132619D01*
X135176666Y-53132619D02*
X134605238Y-53132619D01*
X134890952Y-53132619D02*
X134890952Y-52132619D01*
X134890952Y-52132619D02*
X134795714Y-52275476D01*
X134795714Y-52275476D02*
X134700476Y-52370714D01*
X134700476Y-52370714D02*
X134605238Y-52418333D01*
%TO.C,JOVGI1*%
X141638095Y-113012619D02*
X141828571Y-113012619D01*
X141828571Y-113012619D02*
X141923809Y-113060238D01*
X141923809Y-113060238D02*
X142019047Y-113155476D01*
X142019047Y-113155476D02*
X142066666Y-113345952D01*
X142066666Y-113345952D02*
X142066666Y-113679285D01*
X142066666Y-113679285D02*
X142019047Y-113869761D01*
X142019047Y-113869761D02*
X141923809Y-113965000D01*
X141923809Y-113965000D02*
X141828571Y-114012619D01*
X141828571Y-114012619D02*
X141638095Y-114012619D01*
X141638095Y-114012619D02*
X141542857Y-113965000D01*
X141542857Y-113965000D02*
X141447619Y-113869761D01*
X141447619Y-113869761D02*
X141400000Y-113679285D01*
X141400000Y-113679285D02*
X141400000Y-113345952D01*
X141400000Y-113345952D02*
X141447619Y-113155476D01*
X141447619Y-113155476D02*
X141542857Y-113060238D01*
X141542857Y-113060238D02*
X141638095Y-113012619D01*
X142352381Y-113012619D02*
X142685714Y-114012619D01*
X142685714Y-114012619D02*
X143019047Y-113012619D01*
X143876190Y-113060238D02*
X143780952Y-113012619D01*
X143780952Y-113012619D02*
X143638095Y-113012619D01*
X143638095Y-113012619D02*
X143495238Y-113060238D01*
X143495238Y-113060238D02*
X143400000Y-113155476D01*
X143400000Y-113155476D02*
X143352381Y-113250714D01*
X143352381Y-113250714D02*
X143304762Y-113441190D01*
X143304762Y-113441190D02*
X143304762Y-113584047D01*
X143304762Y-113584047D02*
X143352381Y-113774523D01*
X143352381Y-113774523D02*
X143400000Y-113869761D01*
X143400000Y-113869761D02*
X143495238Y-113965000D01*
X143495238Y-113965000D02*
X143638095Y-114012619D01*
X143638095Y-114012619D02*
X143733333Y-114012619D01*
X143733333Y-114012619D02*
X143876190Y-113965000D01*
X143876190Y-113965000D02*
X143923809Y-113917380D01*
X143923809Y-113917380D02*
X143923809Y-113584047D01*
X143923809Y-113584047D02*
X143733333Y-113584047D01*
X144352381Y-114012619D02*
X144352381Y-113012619D01*
%TO.C,C2*%
X157783333Y-145717380D02*
X157735714Y-145765000D01*
X157735714Y-145765000D02*
X157592857Y-145812619D01*
X157592857Y-145812619D02*
X157497619Y-145812619D01*
X157497619Y-145812619D02*
X157354762Y-145765000D01*
X157354762Y-145765000D02*
X157259524Y-145669761D01*
X157259524Y-145669761D02*
X157211905Y-145574523D01*
X157211905Y-145574523D02*
X157164286Y-145384047D01*
X157164286Y-145384047D02*
X157164286Y-145241190D01*
X157164286Y-145241190D02*
X157211905Y-145050714D01*
X157211905Y-145050714D02*
X157259524Y-144955476D01*
X157259524Y-144955476D02*
X157354762Y-144860238D01*
X157354762Y-144860238D02*
X157497619Y-144812619D01*
X157497619Y-144812619D02*
X157592857Y-144812619D01*
X157592857Y-144812619D02*
X157735714Y-144860238D01*
X157735714Y-144860238D02*
X157783333Y-144907857D01*
X158164286Y-144907857D02*
X158211905Y-144860238D01*
X158211905Y-144860238D02*
X158307143Y-144812619D01*
X158307143Y-144812619D02*
X158545238Y-144812619D01*
X158545238Y-144812619D02*
X158640476Y-144860238D01*
X158640476Y-144860238D02*
X158688095Y-144907857D01*
X158688095Y-144907857D02*
X158735714Y-145003095D01*
X158735714Y-145003095D02*
X158735714Y-145098333D01*
X158735714Y-145098333D02*
X158688095Y-145241190D01*
X158688095Y-145241190D02*
X158116667Y-145812619D01*
X158116667Y-145812619D02*
X158735714Y-145812619D01*
X156902380Y-147312619D02*
X156330952Y-147312619D01*
X156616666Y-147312619D02*
X156616666Y-146312619D01*
X156616666Y-146312619D02*
X156521428Y-146455476D01*
X156521428Y-146455476D02*
X156426190Y-146550714D01*
X156426190Y-146550714D02*
X156330952Y-146598333D01*
X157521428Y-146312619D02*
X157616666Y-146312619D01*
X157616666Y-146312619D02*
X157711904Y-146360238D01*
X157711904Y-146360238D02*
X157759523Y-146407857D01*
X157759523Y-146407857D02*
X157807142Y-146503095D01*
X157807142Y-146503095D02*
X157854761Y-146693571D01*
X157854761Y-146693571D02*
X157854761Y-146931666D01*
X157854761Y-146931666D02*
X157807142Y-147122142D01*
X157807142Y-147122142D02*
X157759523Y-147217380D01*
X157759523Y-147217380D02*
X157711904Y-147265000D01*
X157711904Y-147265000D02*
X157616666Y-147312619D01*
X157616666Y-147312619D02*
X157521428Y-147312619D01*
X157521428Y-147312619D02*
X157426190Y-147265000D01*
X157426190Y-147265000D02*
X157378571Y-147217380D01*
X157378571Y-147217380D02*
X157330952Y-147122142D01*
X157330952Y-147122142D02*
X157283333Y-146931666D01*
X157283333Y-146931666D02*
X157283333Y-146693571D01*
X157283333Y-146693571D02*
X157330952Y-146503095D01*
X157330952Y-146503095D02*
X157378571Y-146407857D01*
X157378571Y-146407857D02*
X157426190Y-146360238D01*
X157426190Y-146360238D02*
X157521428Y-146312619D01*
X158473809Y-146312619D02*
X158569047Y-146312619D01*
X158569047Y-146312619D02*
X158664285Y-146360238D01*
X158664285Y-146360238D02*
X158711904Y-146407857D01*
X158711904Y-146407857D02*
X158759523Y-146503095D01*
X158759523Y-146503095D02*
X158807142Y-146693571D01*
X158807142Y-146693571D02*
X158807142Y-146931666D01*
X158807142Y-146931666D02*
X158759523Y-147122142D01*
X158759523Y-147122142D02*
X158711904Y-147217380D01*
X158711904Y-147217380D02*
X158664285Y-147265000D01*
X158664285Y-147265000D02*
X158569047Y-147312619D01*
X158569047Y-147312619D02*
X158473809Y-147312619D01*
X158473809Y-147312619D02*
X158378571Y-147265000D01*
X158378571Y-147265000D02*
X158330952Y-147217380D01*
X158330952Y-147217380D02*
X158283333Y-147122142D01*
X158283333Y-147122142D02*
X158235714Y-146931666D01*
X158235714Y-146931666D02*
X158235714Y-146693571D01*
X158235714Y-146693571D02*
X158283333Y-146503095D01*
X158283333Y-146503095D02*
X158330952Y-146407857D01*
X158330952Y-146407857D02*
X158378571Y-146360238D01*
X158378571Y-146360238D02*
X158473809Y-146312619D01*
X159664285Y-146645952D02*
X159664285Y-147312619D01*
X159235714Y-146645952D02*
X159235714Y-147169761D01*
X159235714Y-147169761D02*
X159283333Y-147265000D01*
X159283333Y-147265000D02*
X159378571Y-147312619D01*
X159378571Y-147312619D02*
X159521428Y-147312619D01*
X159521428Y-147312619D02*
X159616666Y-147265000D01*
X159616666Y-147265000D02*
X159664285Y-147217380D01*
X160473809Y-146788809D02*
X160140476Y-146788809D01*
X160140476Y-147312619D02*
X160140476Y-146312619D01*
X160140476Y-146312619D02*
X160616666Y-146312619D01*
%TO.C,D1*%
X122261905Y-140462619D02*
X122261905Y-139462619D01*
X122261905Y-139462619D02*
X122500000Y-139462619D01*
X122500000Y-139462619D02*
X122642857Y-139510238D01*
X122642857Y-139510238D02*
X122738095Y-139605476D01*
X122738095Y-139605476D02*
X122785714Y-139700714D01*
X122785714Y-139700714D02*
X122833333Y-139891190D01*
X122833333Y-139891190D02*
X122833333Y-140034047D01*
X122833333Y-140034047D02*
X122785714Y-140224523D01*
X122785714Y-140224523D02*
X122738095Y-140319761D01*
X122738095Y-140319761D02*
X122642857Y-140415000D01*
X122642857Y-140415000D02*
X122500000Y-140462619D01*
X122500000Y-140462619D02*
X122261905Y-140462619D01*
X123785714Y-140462619D02*
X123214286Y-140462619D01*
X123500000Y-140462619D02*
X123500000Y-139462619D01*
X123500000Y-139462619D02*
X123404762Y-139605476D01*
X123404762Y-139605476D02*
X123309524Y-139700714D01*
X123309524Y-139700714D02*
X123214286Y-139748333D01*
%TO.C,R1*%
X153812619Y-137316666D02*
X153336428Y-137649999D01*
X153812619Y-137888094D02*
X152812619Y-137888094D01*
X152812619Y-137888094D02*
X152812619Y-137507142D01*
X152812619Y-137507142D02*
X152860238Y-137411904D01*
X152860238Y-137411904D02*
X152907857Y-137364285D01*
X152907857Y-137364285D02*
X153003095Y-137316666D01*
X153003095Y-137316666D02*
X153145952Y-137316666D01*
X153145952Y-137316666D02*
X153241190Y-137364285D01*
X153241190Y-137364285D02*
X153288809Y-137411904D01*
X153288809Y-137411904D02*
X153336428Y-137507142D01*
X153336428Y-137507142D02*
X153336428Y-137888094D01*
X153812619Y-136364285D02*
X153812619Y-136935713D01*
X153812619Y-136649999D02*
X152812619Y-136649999D01*
X152812619Y-136649999D02*
X152955476Y-136745237D01*
X152955476Y-136745237D02*
X153050714Y-136840475D01*
X153050714Y-136840475D02*
X153098333Y-136935713D01*
X153812619Y-140435714D02*
X153812619Y-141007142D01*
X153812619Y-140721428D02*
X152812619Y-140721428D01*
X152812619Y-140721428D02*
X152955476Y-140816666D01*
X152955476Y-140816666D02*
X153050714Y-140911904D01*
X153050714Y-140911904D02*
X153098333Y-141007142D01*
X153812619Y-140007142D02*
X152812619Y-140007142D01*
X152812619Y-140007142D02*
X153526904Y-139673809D01*
X153526904Y-139673809D02*
X152812619Y-139340476D01*
X152812619Y-139340476D02*
X153812619Y-139340476D01*
%TO.C,R2*%
X125972619Y-143146666D02*
X125496428Y-143479999D01*
X125972619Y-143718094D02*
X124972619Y-143718094D01*
X124972619Y-143718094D02*
X124972619Y-143337142D01*
X124972619Y-143337142D02*
X125020238Y-143241904D01*
X125020238Y-143241904D02*
X125067857Y-143194285D01*
X125067857Y-143194285D02*
X125163095Y-143146666D01*
X125163095Y-143146666D02*
X125305952Y-143146666D01*
X125305952Y-143146666D02*
X125401190Y-143194285D01*
X125401190Y-143194285D02*
X125448809Y-143241904D01*
X125448809Y-143241904D02*
X125496428Y-143337142D01*
X125496428Y-143337142D02*
X125496428Y-143718094D01*
X125067857Y-142765713D02*
X125020238Y-142718094D01*
X125020238Y-142718094D02*
X124972619Y-142622856D01*
X124972619Y-142622856D02*
X124972619Y-142384761D01*
X124972619Y-142384761D02*
X125020238Y-142289523D01*
X125020238Y-142289523D02*
X125067857Y-142241904D01*
X125067857Y-142241904D02*
X125163095Y-142194285D01*
X125163095Y-142194285D02*
X125258333Y-142194285D01*
X125258333Y-142194285D02*
X125401190Y-142241904D01*
X125401190Y-142241904D02*
X125972619Y-142813332D01*
X125972619Y-142813332D02*
X125972619Y-142194285D01*
X125972619Y-140194285D02*
X125972619Y-140765713D01*
X125972619Y-140479999D02*
X124972619Y-140479999D01*
X124972619Y-140479999D02*
X125115476Y-140575237D01*
X125115476Y-140575237D02*
X125210714Y-140670475D01*
X125210714Y-140670475D02*
X125258333Y-140765713D01*
X125972619Y-139765713D02*
X124972619Y-139765713D01*
X125972619Y-139194285D02*
X125401190Y-139622856D01*
X124972619Y-139194285D02*
X125544047Y-139765713D01*
%TO.C,R3*%
X133722619Y-137916666D02*
X133246428Y-138249999D01*
X133722619Y-138488094D02*
X132722619Y-138488094D01*
X132722619Y-138488094D02*
X132722619Y-138107142D01*
X132722619Y-138107142D02*
X132770238Y-138011904D01*
X132770238Y-138011904D02*
X132817857Y-137964285D01*
X132817857Y-137964285D02*
X132913095Y-137916666D01*
X132913095Y-137916666D02*
X133055952Y-137916666D01*
X133055952Y-137916666D02*
X133151190Y-137964285D01*
X133151190Y-137964285D02*
X133198809Y-138011904D01*
X133198809Y-138011904D02*
X133246428Y-138107142D01*
X133246428Y-138107142D02*
X133246428Y-138488094D01*
X132722619Y-137583332D02*
X132722619Y-136964285D01*
X132722619Y-136964285D02*
X133103571Y-137297618D01*
X133103571Y-137297618D02*
X133103571Y-137154761D01*
X133103571Y-137154761D02*
X133151190Y-137059523D01*
X133151190Y-137059523D02*
X133198809Y-137011904D01*
X133198809Y-137011904D02*
X133294047Y-136964285D01*
X133294047Y-136964285D02*
X133532142Y-136964285D01*
X133532142Y-136964285D02*
X133627380Y-137011904D01*
X133627380Y-137011904D02*
X133675000Y-137059523D01*
X133675000Y-137059523D02*
X133722619Y-137154761D01*
X133722619Y-137154761D02*
X133722619Y-137440475D01*
X133722619Y-137440475D02*
X133675000Y-137535713D01*
X133675000Y-137535713D02*
X133627380Y-137583332D01*
X133722619Y-135035714D02*
X133722619Y-135607142D01*
X133722619Y-135321428D02*
X132722619Y-135321428D01*
X132722619Y-135321428D02*
X132865476Y-135416666D01*
X132865476Y-135416666D02*
X132960714Y-135511904D01*
X132960714Y-135511904D02*
X133008333Y-135607142D01*
X133722619Y-134607142D02*
X132722619Y-134607142D01*
X132722619Y-134607142D02*
X133436904Y-134273809D01*
X133436904Y-134273809D02*
X132722619Y-133940476D01*
X132722619Y-133940476D02*
X133722619Y-133940476D01*
%TO.C,C1*%
X159367380Y-135166666D02*
X159415000Y-135214285D01*
X159415000Y-135214285D02*
X159462619Y-135357142D01*
X159462619Y-135357142D02*
X159462619Y-135452380D01*
X159462619Y-135452380D02*
X159415000Y-135595237D01*
X159415000Y-135595237D02*
X159319761Y-135690475D01*
X159319761Y-135690475D02*
X159224523Y-135738094D01*
X159224523Y-135738094D02*
X159034047Y-135785713D01*
X159034047Y-135785713D02*
X158891190Y-135785713D01*
X158891190Y-135785713D02*
X158700714Y-135738094D01*
X158700714Y-135738094D02*
X158605476Y-135690475D01*
X158605476Y-135690475D02*
X158510238Y-135595237D01*
X158510238Y-135595237D02*
X158462619Y-135452380D01*
X158462619Y-135452380D02*
X158462619Y-135357142D01*
X158462619Y-135357142D02*
X158510238Y-135214285D01*
X158510238Y-135214285D02*
X158557857Y-135166666D01*
X159462619Y-134214285D02*
X159462619Y-134785713D01*
X159462619Y-134499999D02*
X158462619Y-134499999D01*
X158462619Y-134499999D02*
X158605476Y-134595237D01*
X158605476Y-134595237D02*
X158700714Y-134690475D01*
X158700714Y-134690475D02*
X158748333Y-134785713D01*
X168462619Y-136547619D02*
X168462619Y-137119047D01*
X168462619Y-136833333D02*
X167462619Y-136833333D01*
X167462619Y-136833333D02*
X167605476Y-136928571D01*
X167605476Y-136928571D02*
X167700714Y-137023809D01*
X167700714Y-137023809D02*
X167748333Y-137119047D01*
X167462619Y-135928571D02*
X167462619Y-135833333D01*
X167462619Y-135833333D02*
X167510238Y-135738095D01*
X167510238Y-135738095D02*
X167557857Y-135690476D01*
X167557857Y-135690476D02*
X167653095Y-135642857D01*
X167653095Y-135642857D02*
X167843571Y-135595238D01*
X167843571Y-135595238D02*
X168081666Y-135595238D01*
X168081666Y-135595238D02*
X168272142Y-135642857D01*
X168272142Y-135642857D02*
X168367380Y-135690476D01*
X168367380Y-135690476D02*
X168415000Y-135738095D01*
X168415000Y-135738095D02*
X168462619Y-135833333D01*
X168462619Y-135833333D02*
X168462619Y-135928571D01*
X168462619Y-135928571D02*
X168415000Y-136023809D01*
X168415000Y-136023809D02*
X168367380Y-136071428D01*
X168367380Y-136071428D02*
X168272142Y-136119047D01*
X168272142Y-136119047D02*
X168081666Y-136166666D01*
X168081666Y-136166666D02*
X167843571Y-136166666D01*
X167843571Y-136166666D02*
X167653095Y-136119047D01*
X167653095Y-136119047D02*
X167557857Y-136071428D01*
X167557857Y-136071428D02*
X167510238Y-136023809D01*
X167510238Y-136023809D02*
X167462619Y-135928571D01*
X167462619Y-134976190D02*
X167462619Y-134880952D01*
X167462619Y-134880952D02*
X167510238Y-134785714D01*
X167510238Y-134785714D02*
X167557857Y-134738095D01*
X167557857Y-134738095D02*
X167653095Y-134690476D01*
X167653095Y-134690476D02*
X167843571Y-134642857D01*
X167843571Y-134642857D02*
X168081666Y-134642857D01*
X168081666Y-134642857D02*
X168272142Y-134690476D01*
X168272142Y-134690476D02*
X168367380Y-134738095D01*
X168367380Y-134738095D02*
X168415000Y-134785714D01*
X168415000Y-134785714D02*
X168462619Y-134880952D01*
X168462619Y-134880952D02*
X168462619Y-134976190D01*
X168462619Y-134976190D02*
X168415000Y-135071428D01*
X168415000Y-135071428D02*
X168367380Y-135119047D01*
X168367380Y-135119047D02*
X168272142Y-135166666D01*
X168272142Y-135166666D02*
X168081666Y-135214285D01*
X168081666Y-135214285D02*
X167843571Y-135214285D01*
X167843571Y-135214285D02*
X167653095Y-135166666D01*
X167653095Y-135166666D02*
X167557857Y-135119047D01*
X167557857Y-135119047D02*
X167510238Y-135071428D01*
X167510238Y-135071428D02*
X167462619Y-134976190D01*
X167795952Y-134214285D02*
X168462619Y-134214285D01*
X167891190Y-134214285D02*
X167843571Y-134166666D01*
X167843571Y-134166666D02*
X167795952Y-134071428D01*
X167795952Y-134071428D02*
X167795952Y-133928571D01*
X167795952Y-133928571D02*
X167843571Y-133833333D01*
X167843571Y-133833333D02*
X167938809Y-133785714D01*
X167938809Y-133785714D02*
X168462619Y-133785714D01*
X167938809Y-132976190D02*
X167938809Y-133309523D01*
X168462619Y-133309523D02*
X167462619Y-133309523D01*
X167462619Y-133309523D02*
X167462619Y-132833333D01*
%TO.C,R14*%
X142667142Y-101062619D02*
X142333809Y-100586428D01*
X142095714Y-101062619D02*
X142095714Y-100062619D01*
X142095714Y-100062619D02*
X142476666Y-100062619D01*
X142476666Y-100062619D02*
X142571904Y-100110238D01*
X142571904Y-100110238D02*
X142619523Y-100157857D01*
X142619523Y-100157857D02*
X142667142Y-100253095D01*
X142667142Y-100253095D02*
X142667142Y-100395952D01*
X142667142Y-100395952D02*
X142619523Y-100491190D01*
X142619523Y-100491190D02*
X142571904Y-100538809D01*
X142571904Y-100538809D02*
X142476666Y-100586428D01*
X142476666Y-100586428D02*
X142095714Y-100586428D01*
X143619523Y-101062619D02*
X143048095Y-101062619D01*
X143333809Y-101062619D02*
X143333809Y-100062619D01*
X143333809Y-100062619D02*
X143238571Y-100205476D01*
X143238571Y-100205476D02*
X143143333Y-100300714D01*
X143143333Y-100300714D02*
X143048095Y-100348333D01*
X144476666Y-100395952D02*
X144476666Y-101062619D01*
X144238571Y-100015000D02*
X144000476Y-100729285D01*
X144000476Y-100729285D02*
X144619523Y-100729285D01*
%TO.C,D6*%
X148012619Y-92443094D02*
X147012619Y-92443094D01*
X147012619Y-92443094D02*
X147012619Y-92204999D01*
X147012619Y-92204999D02*
X147060238Y-92062142D01*
X147060238Y-92062142D02*
X147155476Y-91966904D01*
X147155476Y-91966904D02*
X147250714Y-91919285D01*
X147250714Y-91919285D02*
X147441190Y-91871666D01*
X147441190Y-91871666D02*
X147584047Y-91871666D01*
X147584047Y-91871666D02*
X147774523Y-91919285D01*
X147774523Y-91919285D02*
X147869761Y-91966904D01*
X147869761Y-91966904D02*
X147965000Y-92062142D01*
X147965000Y-92062142D02*
X148012619Y-92204999D01*
X148012619Y-92204999D02*
X148012619Y-92443094D01*
X147012619Y-91014523D02*
X147012619Y-91204999D01*
X147012619Y-91204999D02*
X147060238Y-91300237D01*
X147060238Y-91300237D02*
X147107857Y-91347856D01*
X147107857Y-91347856D02*
X147250714Y-91443094D01*
X147250714Y-91443094D02*
X147441190Y-91490713D01*
X147441190Y-91490713D02*
X147822142Y-91490713D01*
X147822142Y-91490713D02*
X147917380Y-91443094D01*
X147917380Y-91443094D02*
X147965000Y-91395475D01*
X147965000Y-91395475D02*
X148012619Y-91300237D01*
X148012619Y-91300237D02*
X148012619Y-91109761D01*
X148012619Y-91109761D02*
X147965000Y-91014523D01*
X147965000Y-91014523D02*
X147917380Y-90966904D01*
X147917380Y-90966904D02*
X147822142Y-90919285D01*
X147822142Y-90919285D02*
X147584047Y-90919285D01*
X147584047Y-90919285D02*
X147488809Y-90966904D01*
X147488809Y-90966904D02*
X147441190Y-91014523D01*
X147441190Y-91014523D02*
X147393571Y-91109761D01*
X147393571Y-91109761D02*
X147393571Y-91300237D01*
X147393571Y-91300237D02*
X147441190Y-91395475D01*
X147441190Y-91395475D02*
X147488809Y-91443094D01*
X147488809Y-91443094D02*
X147584047Y-91490713D01*
%TO.C,R19*%
X130667142Y-109012619D02*
X130333809Y-108536428D01*
X130095714Y-109012619D02*
X130095714Y-108012619D01*
X130095714Y-108012619D02*
X130476666Y-108012619D01*
X130476666Y-108012619D02*
X130571904Y-108060238D01*
X130571904Y-108060238D02*
X130619523Y-108107857D01*
X130619523Y-108107857D02*
X130667142Y-108203095D01*
X130667142Y-108203095D02*
X130667142Y-108345952D01*
X130667142Y-108345952D02*
X130619523Y-108441190D01*
X130619523Y-108441190D02*
X130571904Y-108488809D01*
X130571904Y-108488809D02*
X130476666Y-108536428D01*
X130476666Y-108536428D02*
X130095714Y-108536428D01*
X131619523Y-109012619D02*
X131048095Y-109012619D01*
X131333809Y-109012619D02*
X131333809Y-108012619D01*
X131333809Y-108012619D02*
X131238571Y-108155476D01*
X131238571Y-108155476D02*
X131143333Y-108250714D01*
X131143333Y-108250714D02*
X131048095Y-108298333D01*
X132095714Y-109012619D02*
X132286190Y-109012619D01*
X132286190Y-109012619D02*
X132381428Y-108965000D01*
X132381428Y-108965000D02*
X132429047Y-108917380D01*
X132429047Y-108917380D02*
X132524285Y-108774523D01*
X132524285Y-108774523D02*
X132571904Y-108584047D01*
X132571904Y-108584047D02*
X132571904Y-108203095D01*
X132571904Y-108203095D02*
X132524285Y-108107857D01*
X132524285Y-108107857D02*
X132476666Y-108060238D01*
X132476666Y-108060238D02*
X132381428Y-108012619D01*
X132381428Y-108012619D02*
X132190952Y-108012619D01*
X132190952Y-108012619D02*
X132095714Y-108060238D01*
X132095714Y-108060238D02*
X132048095Y-108107857D01*
X132048095Y-108107857D02*
X132000476Y-108203095D01*
X132000476Y-108203095D02*
X132000476Y-108441190D01*
X132000476Y-108441190D02*
X132048095Y-108536428D01*
X132048095Y-108536428D02*
X132095714Y-108584047D01*
X132095714Y-108584047D02*
X132190952Y-108631666D01*
X132190952Y-108631666D02*
X132381428Y-108631666D01*
X132381428Y-108631666D02*
X132476666Y-108584047D01*
X132476666Y-108584047D02*
X132524285Y-108536428D01*
X132524285Y-108536428D02*
X132571904Y-108441190D01*
%TO.C,D3*%
X154271905Y-95362619D02*
X154271905Y-94362619D01*
X154271905Y-94362619D02*
X154510000Y-94362619D01*
X154510000Y-94362619D02*
X154652857Y-94410238D01*
X154652857Y-94410238D02*
X154748095Y-94505476D01*
X154748095Y-94505476D02*
X154795714Y-94600714D01*
X154795714Y-94600714D02*
X154843333Y-94791190D01*
X154843333Y-94791190D02*
X154843333Y-94934047D01*
X154843333Y-94934047D02*
X154795714Y-95124523D01*
X154795714Y-95124523D02*
X154748095Y-95219761D01*
X154748095Y-95219761D02*
X154652857Y-95315000D01*
X154652857Y-95315000D02*
X154510000Y-95362619D01*
X154510000Y-95362619D02*
X154271905Y-95362619D01*
X155176667Y-94362619D02*
X155795714Y-94362619D01*
X155795714Y-94362619D02*
X155462381Y-94743571D01*
X155462381Y-94743571D02*
X155605238Y-94743571D01*
X155605238Y-94743571D02*
X155700476Y-94791190D01*
X155700476Y-94791190D02*
X155748095Y-94838809D01*
X155748095Y-94838809D02*
X155795714Y-94934047D01*
X155795714Y-94934047D02*
X155795714Y-95172142D01*
X155795714Y-95172142D02*
X155748095Y-95267380D01*
X155748095Y-95267380D02*
X155700476Y-95315000D01*
X155700476Y-95315000D02*
X155605238Y-95362619D01*
X155605238Y-95362619D02*
X155319524Y-95362619D01*
X155319524Y-95362619D02*
X155224286Y-95315000D01*
X155224286Y-95315000D02*
X155176667Y-95267380D01*
%TO.C,R12*%
X139922619Y-101642857D02*
X139446428Y-101976190D01*
X139922619Y-102214285D02*
X138922619Y-102214285D01*
X138922619Y-102214285D02*
X138922619Y-101833333D01*
X138922619Y-101833333D02*
X138970238Y-101738095D01*
X138970238Y-101738095D02*
X139017857Y-101690476D01*
X139017857Y-101690476D02*
X139113095Y-101642857D01*
X139113095Y-101642857D02*
X139255952Y-101642857D01*
X139255952Y-101642857D02*
X139351190Y-101690476D01*
X139351190Y-101690476D02*
X139398809Y-101738095D01*
X139398809Y-101738095D02*
X139446428Y-101833333D01*
X139446428Y-101833333D02*
X139446428Y-102214285D01*
X139922619Y-100690476D02*
X139922619Y-101261904D01*
X139922619Y-100976190D02*
X138922619Y-100976190D01*
X138922619Y-100976190D02*
X139065476Y-101071428D01*
X139065476Y-101071428D02*
X139160714Y-101166666D01*
X139160714Y-101166666D02*
X139208333Y-101261904D01*
X139017857Y-100309523D02*
X138970238Y-100261904D01*
X138970238Y-100261904D02*
X138922619Y-100166666D01*
X138922619Y-100166666D02*
X138922619Y-99928571D01*
X138922619Y-99928571D02*
X138970238Y-99833333D01*
X138970238Y-99833333D02*
X139017857Y-99785714D01*
X139017857Y-99785714D02*
X139113095Y-99738095D01*
X139113095Y-99738095D02*
X139208333Y-99738095D01*
X139208333Y-99738095D02*
X139351190Y-99785714D01*
X139351190Y-99785714D02*
X139922619Y-100357142D01*
X139922619Y-100357142D02*
X139922619Y-99738095D01*
%TO.C,C8*%
X136443333Y-95987380D02*
X136395714Y-96035000D01*
X136395714Y-96035000D02*
X136252857Y-96082619D01*
X136252857Y-96082619D02*
X136157619Y-96082619D01*
X136157619Y-96082619D02*
X136014762Y-96035000D01*
X136014762Y-96035000D02*
X135919524Y-95939761D01*
X135919524Y-95939761D02*
X135871905Y-95844523D01*
X135871905Y-95844523D02*
X135824286Y-95654047D01*
X135824286Y-95654047D02*
X135824286Y-95511190D01*
X135824286Y-95511190D02*
X135871905Y-95320714D01*
X135871905Y-95320714D02*
X135919524Y-95225476D01*
X135919524Y-95225476D02*
X136014762Y-95130238D01*
X136014762Y-95130238D02*
X136157619Y-95082619D01*
X136157619Y-95082619D02*
X136252857Y-95082619D01*
X136252857Y-95082619D02*
X136395714Y-95130238D01*
X136395714Y-95130238D02*
X136443333Y-95177857D01*
X137014762Y-95511190D02*
X136919524Y-95463571D01*
X136919524Y-95463571D02*
X136871905Y-95415952D01*
X136871905Y-95415952D02*
X136824286Y-95320714D01*
X136824286Y-95320714D02*
X136824286Y-95273095D01*
X136824286Y-95273095D02*
X136871905Y-95177857D01*
X136871905Y-95177857D02*
X136919524Y-95130238D01*
X136919524Y-95130238D02*
X137014762Y-95082619D01*
X137014762Y-95082619D02*
X137205238Y-95082619D01*
X137205238Y-95082619D02*
X137300476Y-95130238D01*
X137300476Y-95130238D02*
X137348095Y-95177857D01*
X137348095Y-95177857D02*
X137395714Y-95273095D01*
X137395714Y-95273095D02*
X137395714Y-95320714D01*
X137395714Y-95320714D02*
X137348095Y-95415952D01*
X137348095Y-95415952D02*
X137300476Y-95463571D01*
X137300476Y-95463571D02*
X137205238Y-95511190D01*
X137205238Y-95511190D02*
X137014762Y-95511190D01*
X137014762Y-95511190D02*
X136919524Y-95558809D01*
X136919524Y-95558809D02*
X136871905Y-95606428D01*
X136871905Y-95606428D02*
X136824286Y-95701666D01*
X136824286Y-95701666D02*
X136824286Y-95892142D01*
X136824286Y-95892142D02*
X136871905Y-95987380D01*
X136871905Y-95987380D02*
X136919524Y-96035000D01*
X136919524Y-96035000D02*
X137014762Y-96082619D01*
X137014762Y-96082619D02*
X137205238Y-96082619D01*
X137205238Y-96082619D02*
X137300476Y-96035000D01*
X137300476Y-96035000D02*
X137348095Y-95987380D01*
X137348095Y-95987380D02*
X137395714Y-95892142D01*
X137395714Y-95892142D02*
X137395714Y-95701666D01*
X137395714Y-95701666D02*
X137348095Y-95606428D01*
X137348095Y-95606428D02*
X137300476Y-95558809D01*
X137300476Y-95558809D02*
X137205238Y-95511190D01*
%TO.C,R22*%
X134067142Y-108962619D02*
X133733809Y-108486428D01*
X133495714Y-108962619D02*
X133495714Y-107962619D01*
X133495714Y-107962619D02*
X133876666Y-107962619D01*
X133876666Y-107962619D02*
X133971904Y-108010238D01*
X133971904Y-108010238D02*
X134019523Y-108057857D01*
X134019523Y-108057857D02*
X134067142Y-108153095D01*
X134067142Y-108153095D02*
X134067142Y-108295952D01*
X134067142Y-108295952D02*
X134019523Y-108391190D01*
X134019523Y-108391190D02*
X133971904Y-108438809D01*
X133971904Y-108438809D02*
X133876666Y-108486428D01*
X133876666Y-108486428D02*
X133495714Y-108486428D01*
X134448095Y-108057857D02*
X134495714Y-108010238D01*
X134495714Y-108010238D02*
X134590952Y-107962619D01*
X134590952Y-107962619D02*
X134829047Y-107962619D01*
X134829047Y-107962619D02*
X134924285Y-108010238D01*
X134924285Y-108010238D02*
X134971904Y-108057857D01*
X134971904Y-108057857D02*
X135019523Y-108153095D01*
X135019523Y-108153095D02*
X135019523Y-108248333D01*
X135019523Y-108248333D02*
X134971904Y-108391190D01*
X134971904Y-108391190D02*
X134400476Y-108962619D01*
X134400476Y-108962619D02*
X135019523Y-108962619D01*
X135400476Y-108057857D02*
X135448095Y-108010238D01*
X135448095Y-108010238D02*
X135543333Y-107962619D01*
X135543333Y-107962619D02*
X135781428Y-107962619D01*
X135781428Y-107962619D02*
X135876666Y-108010238D01*
X135876666Y-108010238D02*
X135924285Y-108057857D01*
X135924285Y-108057857D02*
X135971904Y-108153095D01*
X135971904Y-108153095D02*
X135971904Y-108248333D01*
X135971904Y-108248333D02*
X135924285Y-108391190D01*
X135924285Y-108391190D02*
X135352857Y-108962619D01*
X135352857Y-108962619D02*
X135971904Y-108962619D01*
%TO.C,U1*%
X146672619Y-94661904D02*
X147482142Y-94661904D01*
X147482142Y-94661904D02*
X147577380Y-94614285D01*
X147577380Y-94614285D02*
X147625000Y-94566666D01*
X147625000Y-94566666D02*
X147672619Y-94471428D01*
X147672619Y-94471428D02*
X147672619Y-94280952D01*
X147672619Y-94280952D02*
X147625000Y-94185714D01*
X147625000Y-94185714D02*
X147577380Y-94138095D01*
X147577380Y-94138095D02*
X147482142Y-94090476D01*
X147482142Y-94090476D02*
X146672619Y-94090476D01*
X147672619Y-93090476D02*
X147672619Y-93661904D01*
X147672619Y-93376190D02*
X146672619Y-93376190D01*
X146672619Y-93376190D02*
X146815476Y-93471428D01*
X146815476Y-93471428D02*
X146910714Y-93566666D01*
X146910714Y-93566666D02*
X146958333Y-93661904D01*
%TO.C,R20*%
X122767142Y-108262619D02*
X122433809Y-107786428D01*
X122195714Y-108262619D02*
X122195714Y-107262619D01*
X122195714Y-107262619D02*
X122576666Y-107262619D01*
X122576666Y-107262619D02*
X122671904Y-107310238D01*
X122671904Y-107310238D02*
X122719523Y-107357857D01*
X122719523Y-107357857D02*
X122767142Y-107453095D01*
X122767142Y-107453095D02*
X122767142Y-107595952D01*
X122767142Y-107595952D02*
X122719523Y-107691190D01*
X122719523Y-107691190D02*
X122671904Y-107738809D01*
X122671904Y-107738809D02*
X122576666Y-107786428D01*
X122576666Y-107786428D02*
X122195714Y-107786428D01*
X123148095Y-107357857D02*
X123195714Y-107310238D01*
X123195714Y-107310238D02*
X123290952Y-107262619D01*
X123290952Y-107262619D02*
X123529047Y-107262619D01*
X123529047Y-107262619D02*
X123624285Y-107310238D01*
X123624285Y-107310238D02*
X123671904Y-107357857D01*
X123671904Y-107357857D02*
X123719523Y-107453095D01*
X123719523Y-107453095D02*
X123719523Y-107548333D01*
X123719523Y-107548333D02*
X123671904Y-107691190D01*
X123671904Y-107691190D02*
X123100476Y-108262619D01*
X123100476Y-108262619D02*
X123719523Y-108262619D01*
X124338571Y-107262619D02*
X124433809Y-107262619D01*
X124433809Y-107262619D02*
X124529047Y-107310238D01*
X124529047Y-107310238D02*
X124576666Y-107357857D01*
X124576666Y-107357857D02*
X124624285Y-107453095D01*
X124624285Y-107453095D02*
X124671904Y-107643571D01*
X124671904Y-107643571D02*
X124671904Y-107881666D01*
X124671904Y-107881666D02*
X124624285Y-108072142D01*
X124624285Y-108072142D02*
X124576666Y-108167380D01*
X124576666Y-108167380D02*
X124529047Y-108215000D01*
X124529047Y-108215000D02*
X124433809Y-108262619D01*
X124433809Y-108262619D02*
X124338571Y-108262619D01*
X124338571Y-108262619D02*
X124243333Y-108215000D01*
X124243333Y-108215000D02*
X124195714Y-108167380D01*
X124195714Y-108167380D02*
X124148095Y-108072142D01*
X124148095Y-108072142D02*
X124100476Y-107881666D01*
X124100476Y-107881666D02*
X124100476Y-107643571D01*
X124100476Y-107643571D02*
X124148095Y-107453095D01*
X124148095Y-107453095D02*
X124195714Y-107357857D01*
X124195714Y-107357857D02*
X124243333Y-107310238D01*
X124243333Y-107310238D02*
X124338571Y-107262619D01*
%TO.C,D5*%
X141971905Y-89262619D02*
X141971905Y-88262619D01*
X141971905Y-88262619D02*
X142210000Y-88262619D01*
X142210000Y-88262619D02*
X142352857Y-88310238D01*
X142352857Y-88310238D02*
X142448095Y-88405476D01*
X142448095Y-88405476D02*
X142495714Y-88500714D01*
X142495714Y-88500714D02*
X142543333Y-88691190D01*
X142543333Y-88691190D02*
X142543333Y-88834047D01*
X142543333Y-88834047D02*
X142495714Y-89024523D01*
X142495714Y-89024523D02*
X142448095Y-89119761D01*
X142448095Y-89119761D02*
X142352857Y-89215000D01*
X142352857Y-89215000D02*
X142210000Y-89262619D01*
X142210000Y-89262619D02*
X141971905Y-89262619D01*
X143448095Y-88262619D02*
X142971905Y-88262619D01*
X142971905Y-88262619D02*
X142924286Y-88738809D01*
X142924286Y-88738809D02*
X142971905Y-88691190D01*
X142971905Y-88691190D02*
X143067143Y-88643571D01*
X143067143Y-88643571D02*
X143305238Y-88643571D01*
X143305238Y-88643571D02*
X143400476Y-88691190D01*
X143400476Y-88691190D02*
X143448095Y-88738809D01*
X143448095Y-88738809D02*
X143495714Y-88834047D01*
X143495714Y-88834047D02*
X143495714Y-89072142D01*
X143495714Y-89072142D02*
X143448095Y-89167380D01*
X143448095Y-89167380D02*
X143400476Y-89215000D01*
X143400476Y-89215000D02*
X143305238Y-89262619D01*
X143305238Y-89262619D02*
X143067143Y-89262619D01*
X143067143Y-89262619D02*
X142971905Y-89215000D01*
X142971905Y-89215000D02*
X142924286Y-89167380D01*
%TO.C,C4*%
X154243333Y-98867380D02*
X154195714Y-98915000D01*
X154195714Y-98915000D02*
X154052857Y-98962619D01*
X154052857Y-98962619D02*
X153957619Y-98962619D01*
X153957619Y-98962619D02*
X153814762Y-98915000D01*
X153814762Y-98915000D02*
X153719524Y-98819761D01*
X153719524Y-98819761D02*
X153671905Y-98724523D01*
X153671905Y-98724523D02*
X153624286Y-98534047D01*
X153624286Y-98534047D02*
X153624286Y-98391190D01*
X153624286Y-98391190D02*
X153671905Y-98200714D01*
X153671905Y-98200714D02*
X153719524Y-98105476D01*
X153719524Y-98105476D02*
X153814762Y-98010238D01*
X153814762Y-98010238D02*
X153957619Y-97962619D01*
X153957619Y-97962619D02*
X154052857Y-97962619D01*
X154052857Y-97962619D02*
X154195714Y-98010238D01*
X154195714Y-98010238D02*
X154243333Y-98057857D01*
X155100476Y-98295952D02*
X155100476Y-98962619D01*
X154862381Y-97915000D02*
X154624286Y-98629285D01*
X154624286Y-98629285D02*
X155243333Y-98629285D01*
%TO.C,D4*%
X141871905Y-86762619D02*
X141871905Y-85762619D01*
X141871905Y-85762619D02*
X142110000Y-85762619D01*
X142110000Y-85762619D02*
X142252857Y-85810238D01*
X142252857Y-85810238D02*
X142348095Y-85905476D01*
X142348095Y-85905476D02*
X142395714Y-86000714D01*
X142395714Y-86000714D02*
X142443333Y-86191190D01*
X142443333Y-86191190D02*
X142443333Y-86334047D01*
X142443333Y-86334047D02*
X142395714Y-86524523D01*
X142395714Y-86524523D02*
X142348095Y-86619761D01*
X142348095Y-86619761D02*
X142252857Y-86715000D01*
X142252857Y-86715000D02*
X142110000Y-86762619D01*
X142110000Y-86762619D02*
X141871905Y-86762619D01*
X143300476Y-86095952D02*
X143300476Y-86762619D01*
X143062381Y-85715000D02*
X142824286Y-86429285D01*
X142824286Y-86429285D02*
X143443333Y-86429285D01*
%TO.C,LOW1*%
X153832619Y-79676904D02*
X153832619Y-80153094D01*
X153832619Y-80153094D02*
X152832619Y-80153094D01*
X152832619Y-79153094D02*
X152832619Y-78962618D01*
X152832619Y-78962618D02*
X152880238Y-78867380D01*
X152880238Y-78867380D02*
X152975476Y-78772142D01*
X152975476Y-78772142D02*
X153165952Y-78724523D01*
X153165952Y-78724523D02*
X153499285Y-78724523D01*
X153499285Y-78724523D02*
X153689761Y-78772142D01*
X153689761Y-78772142D02*
X153785000Y-78867380D01*
X153785000Y-78867380D02*
X153832619Y-78962618D01*
X153832619Y-78962618D02*
X153832619Y-79153094D01*
X153832619Y-79153094D02*
X153785000Y-79248332D01*
X153785000Y-79248332D02*
X153689761Y-79343570D01*
X153689761Y-79343570D02*
X153499285Y-79391189D01*
X153499285Y-79391189D02*
X153165952Y-79391189D01*
X153165952Y-79391189D02*
X152975476Y-79343570D01*
X152975476Y-79343570D02*
X152880238Y-79248332D01*
X152880238Y-79248332D02*
X152832619Y-79153094D01*
X152832619Y-78391189D02*
X153832619Y-78153094D01*
X153832619Y-78153094D02*
X153118333Y-77962618D01*
X153118333Y-77962618D02*
X153832619Y-77772142D01*
X153832619Y-77772142D02*
X152832619Y-77534047D01*
X153832619Y-76629285D02*
X153832619Y-77200713D01*
X153832619Y-76914999D02*
X152832619Y-76914999D01*
X152832619Y-76914999D02*
X152975476Y-77010237D01*
X152975476Y-77010237D02*
X153070714Y-77105475D01*
X153070714Y-77105475D02*
X153118333Y-77200713D01*
%TO.C,TONE1*%
X117232619Y-63151904D02*
X117232619Y-62580476D01*
X118232619Y-62866190D02*
X117232619Y-62866190D01*
X117232619Y-62056666D02*
X117232619Y-61866190D01*
X117232619Y-61866190D02*
X117280238Y-61770952D01*
X117280238Y-61770952D02*
X117375476Y-61675714D01*
X117375476Y-61675714D02*
X117565952Y-61628095D01*
X117565952Y-61628095D02*
X117899285Y-61628095D01*
X117899285Y-61628095D02*
X118089761Y-61675714D01*
X118089761Y-61675714D02*
X118185000Y-61770952D01*
X118185000Y-61770952D02*
X118232619Y-61866190D01*
X118232619Y-61866190D02*
X118232619Y-62056666D01*
X118232619Y-62056666D02*
X118185000Y-62151904D01*
X118185000Y-62151904D02*
X118089761Y-62247142D01*
X118089761Y-62247142D02*
X117899285Y-62294761D01*
X117899285Y-62294761D02*
X117565952Y-62294761D01*
X117565952Y-62294761D02*
X117375476Y-62247142D01*
X117375476Y-62247142D02*
X117280238Y-62151904D01*
X117280238Y-62151904D02*
X117232619Y-62056666D01*
X118232619Y-61199523D02*
X117232619Y-61199523D01*
X117232619Y-61199523D02*
X118232619Y-60628095D01*
X118232619Y-60628095D02*
X117232619Y-60628095D01*
X117708809Y-60151904D02*
X117708809Y-59818571D01*
X118232619Y-59675714D02*
X118232619Y-60151904D01*
X118232619Y-60151904D02*
X117232619Y-60151904D01*
X117232619Y-60151904D02*
X117232619Y-59675714D01*
X118232619Y-58723333D02*
X118232619Y-59294761D01*
X118232619Y-59009047D02*
X117232619Y-59009047D01*
X117232619Y-59009047D02*
X117375476Y-59104285D01*
X117375476Y-59104285D02*
X117470714Y-59199523D01*
X117470714Y-59199523D02*
X117518333Y-59294761D01*
%TO.C,C13*%
X130567142Y-88067380D02*
X130519523Y-88115000D01*
X130519523Y-88115000D02*
X130376666Y-88162619D01*
X130376666Y-88162619D02*
X130281428Y-88162619D01*
X130281428Y-88162619D02*
X130138571Y-88115000D01*
X130138571Y-88115000D02*
X130043333Y-88019761D01*
X130043333Y-88019761D02*
X129995714Y-87924523D01*
X129995714Y-87924523D02*
X129948095Y-87734047D01*
X129948095Y-87734047D02*
X129948095Y-87591190D01*
X129948095Y-87591190D02*
X129995714Y-87400714D01*
X129995714Y-87400714D02*
X130043333Y-87305476D01*
X130043333Y-87305476D02*
X130138571Y-87210238D01*
X130138571Y-87210238D02*
X130281428Y-87162619D01*
X130281428Y-87162619D02*
X130376666Y-87162619D01*
X130376666Y-87162619D02*
X130519523Y-87210238D01*
X130519523Y-87210238D02*
X130567142Y-87257857D01*
X131519523Y-88162619D02*
X130948095Y-88162619D01*
X131233809Y-88162619D02*
X131233809Y-87162619D01*
X131233809Y-87162619D02*
X131138571Y-87305476D01*
X131138571Y-87305476D02*
X131043333Y-87400714D01*
X131043333Y-87400714D02*
X130948095Y-87448333D01*
X131852857Y-87162619D02*
X132471904Y-87162619D01*
X132471904Y-87162619D02*
X132138571Y-87543571D01*
X132138571Y-87543571D02*
X132281428Y-87543571D01*
X132281428Y-87543571D02*
X132376666Y-87591190D01*
X132376666Y-87591190D02*
X132424285Y-87638809D01*
X132424285Y-87638809D02*
X132471904Y-87734047D01*
X132471904Y-87734047D02*
X132471904Y-87972142D01*
X132471904Y-87972142D02*
X132424285Y-88067380D01*
X132424285Y-88067380D02*
X132376666Y-88115000D01*
X132376666Y-88115000D02*
X132281428Y-88162619D01*
X132281428Y-88162619D02*
X131995714Y-88162619D01*
X131995714Y-88162619D02*
X131900476Y-88115000D01*
X131900476Y-88115000D02*
X131852857Y-88067380D01*
%TO.C,C6*%
X154943333Y-86467380D02*
X154895714Y-86515000D01*
X154895714Y-86515000D02*
X154752857Y-86562619D01*
X154752857Y-86562619D02*
X154657619Y-86562619D01*
X154657619Y-86562619D02*
X154514762Y-86515000D01*
X154514762Y-86515000D02*
X154419524Y-86419761D01*
X154419524Y-86419761D02*
X154371905Y-86324523D01*
X154371905Y-86324523D02*
X154324286Y-86134047D01*
X154324286Y-86134047D02*
X154324286Y-85991190D01*
X154324286Y-85991190D02*
X154371905Y-85800714D01*
X154371905Y-85800714D02*
X154419524Y-85705476D01*
X154419524Y-85705476D02*
X154514762Y-85610238D01*
X154514762Y-85610238D02*
X154657619Y-85562619D01*
X154657619Y-85562619D02*
X154752857Y-85562619D01*
X154752857Y-85562619D02*
X154895714Y-85610238D01*
X154895714Y-85610238D02*
X154943333Y-85657857D01*
X155800476Y-85562619D02*
X155610000Y-85562619D01*
X155610000Y-85562619D02*
X155514762Y-85610238D01*
X155514762Y-85610238D02*
X155467143Y-85657857D01*
X155467143Y-85657857D02*
X155371905Y-85800714D01*
X155371905Y-85800714D02*
X155324286Y-85991190D01*
X155324286Y-85991190D02*
X155324286Y-86372142D01*
X155324286Y-86372142D02*
X155371905Y-86467380D01*
X155371905Y-86467380D02*
X155419524Y-86515000D01*
X155419524Y-86515000D02*
X155514762Y-86562619D01*
X155514762Y-86562619D02*
X155705238Y-86562619D01*
X155705238Y-86562619D02*
X155800476Y-86515000D01*
X155800476Y-86515000D02*
X155848095Y-86467380D01*
X155848095Y-86467380D02*
X155895714Y-86372142D01*
X155895714Y-86372142D02*
X155895714Y-86134047D01*
X155895714Y-86134047D02*
X155848095Y-86038809D01*
X155848095Y-86038809D02*
X155800476Y-85991190D01*
X155800476Y-85991190D02*
X155705238Y-85943571D01*
X155705238Y-85943571D02*
X155514762Y-85943571D01*
X155514762Y-85943571D02*
X155419524Y-85991190D01*
X155419524Y-85991190D02*
X155371905Y-86038809D01*
X155371905Y-86038809D02*
X155324286Y-86134047D01*
%TO.C,R7*%
X159143333Y-102062619D02*
X158810000Y-101586428D01*
X158571905Y-102062619D02*
X158571905Y-101062619D01*
X158571905Y-101062619D02*
X158952857Y-101062619D01*
X158952857Y-101062619D02*
X159048095Y-101110238D01*
X159048095Y-101110238D02*
X159095714Y-101157857D01*
X159095714Y-101157857D02*
X159143333Y-101253095D01*
X159143333Y-101253095D02*
X159143333Y-101395952D01*
X159143333Y-101395952D02*
X159095714Y-101491190D01*
X159095714Y-101491190D02*
X159048095Y-101538809D01*
X159048095Y-101538809D02*
X158952857Y-101586428D01*
X158952857Y-101586428D02*
X158571905Y-101586428D01*
X159476667Y-101062619D02*
X160143333Y-101062619D01*
X160143333Y-101062619D02*
X159714762Y-102062619D01*
%TO.C,C3*%
X147743333Y-102367380D02*
X147695714Y-102415000D01*
X147695714Y-102415000D02*
X147552857Y-102462619D01*
X147552857Y-102462619D02*
X147457619Y-102462619D01*
X147457619Y-102462619D02*
X147314762Y-102415000D01*
X147314762Y-102415000D02*
X147219524Y-102319761D01*
X147219524Y-102319761D02*
X147171905Y-102224523D01*
X147171905Y-102224523D02*
X147124286Y-102034047D01*
X147124286Y-102034047D02*
X147124286Y-101891190D01*
X147124286Y-101891190D02*
X147171905Y-101700714D01*
X147171905Y-101700714D02*
X147219524Y-101605476D01*
X147219524Y-101605476D02*
X147314762Y-101510238D01*
X147314762Y-101510238D02*
X147457619Y-101462619D01*
X147457619Y-101462619D02*
X147552857Y-101462619D01*
X147552857Y-101462619D02*
X147695714Y-101510238D01*
X147695714Y-101510238D02*
X147743333Y-101557857D01*
X148076667Y-101462619D02*
X148695714Y-101462619D01*
X148695714Y-101462619D02*
X148362381Y-101843571D01*
X148362381Y-101843571D02*
X148505238Y-101843571D01*
X148505238Y-101843571D02*
X148600476Y-101891190D01*
X148600476Y-101891190D02*
X148648095Y-101938809D01*
X148648095Y-101938809D02*
X148695714Y-102034047D01*
X148695714Y-102034047D02*
X148695714Y-102272142D01*
X148695714Y-102272142D02*
X148648095Y-102367380D01*
X148648095Y-102367380D02*
X148600476Y-102415000D01*
X148600476Y-102415000D02*
X148505238Y-102462619D01*
X148505238Y-102462619D02*
X148219524Y-102462619D01*
X148219524Y-102462619D02*
X148124286Y-102415000D01*
X148124286Y-102415000D02*
X148076667Y-102367380D01*
%TO.C,R11*%
X140722619Y-95042857D02*
X140246428Y-95376190D01*
X140722619Y-95614285D02*
X139722619Y-95614285D01*
X139722619Y-95614285D02*
X139722619Y-95233333D01*
X139722619Y-95233333D02*
X139770238Y-95138095D01*
X139770238Y-95138095D02*
X139817857Y-95090476D01*
X139817857Y-95090476D02*
X139913095Y-95042857D01*
X139913095Y-95042857D02*
X140055952Y-95042857D01*
X140055952Y-95042857D02*
X140151190Y-95090476D01*
X140151190Y-95090476D02*
X140198809Y-95138095D01*
X140198809Y-95138095D02*
X140246428Y-95233333D01*
X140246428Y-95233333D02*
X140246428Y-95614285D01*
X140722619Y-94090476D02*
X140722619Y-94661904D01*
X140722619Y-94376190D02*
X139722619Y-94376190D01*
X139722619Y-94376190D02*
X139865476Y-94471428D01*
X139865476Y-94471428D02*
X139960714Y-94566666D01*
X139960714Y-94566666D02*
X140008333Y-94661904D01*
X140722619Y-93138095D02*
X140722619Y-93709523D01*
X140722619Y-93423809D02*
X139722619Y-93423809D01*
X139722619Y-93423809D02*
X139865476Y-93519047D01*
X139865476Y-93519047D02*
X139960714Y-93614285D01*
X139960714Y-93614285D02*
X140008333Y-93709523D01*
%TO.C,DRIVE1*%
X153832619Y-63082142D02*
X152832619Y-63082142D01*
X152832619Y-63082142D02*
X152832619Y-62844047D01*
X152832619Y-62844047D02*
X152880238Y-62701190D01*
X152880238Y-62701190D02*
X152975476Y-62605952D01*
X152975476Y-62605952D02*
X153070714Y-62558333D01*
X153070714Y-62558333D02*
X153261190Y-62510714D01*
X153261190Y-62510714D02*
X153404047Y-62510714D01*
X153404047Y-62510714D02*
X153594523Y-62558333D01*
X153594523Y-62558333D02*
X153689761Y-62605952D01*
X153689761Y-62605952D02*
X153785000Y-62701190D01*
X153785000Y-62701190D02*
X153832619Y-62844047D01*
X153832619Y-62844047D02*
X153832619Y-63082142D01*
X153832619Y-61510714D02*
X153356428Y-61844047D01*
X153832619Y-62082142D02*
X152832619Y-62082142D01*
X152832619Y-62082142D02*
X152832619Y-61701190D01*
X152832619Y-61701190D02*
X152880238Y-61605952D01*
X152880238Y-61605952D02*
X152927857Y-61558333D01*
X152927857Y-61558333D02*
X153023095Y-61510714D01*
X153023095Y-61510714D02*
X153165952Y-61510714D01*
X153165952Y-61510714D02*
X153261190Y-61558333D01*
X153261190Y-61558333D02*
X153308809Y-61605952D01*
X153308809Y-61605952D02*
X153356428Y-61701190D01*
X153356428Y-61701190D02*
X153356428Y-62082142D01*
X153832619Y-61082142D02*
X152832619Y-61082142D01*
X152832619Y-60748809D02*
X153832619Y-60415476D01*
X153832619Y-60415476D02*
X152832619Y-60082143D01*
X153308809Y-59748809D02*
X153308809Y-59415476D01*
X153832619Y-59272619D02*
X153832619Y-59748809D01*
X153832619Y-59748809D02*
X152832619Y-59748809D01*
X152832619Y-59748809D02*
X152832619Y-59272619D01*
X153832619Y-58320238D02*
X153832619Y-58891666D01*
X153832619Y-58605952D02*
X152832619Y-58605952D01*
X152832619Y-58605952D02*
X152975476Y-58701190D01*
X152975476Y-58701190D02*
X153070714Y-58796428D01*
X153070714Y-58796428D02*
X153118333Y-58891666D01*
%TO.C,R13*%
X133667142Y-64312619D02*
X133333809Y-63836428D01*
X133095714Y-64312619D02*
X133095714Y-63312619D01*
X133095714Y-63312619D02*
X133476666Y-63312619D01*
X133476666Y-63312619D02*
X133571904Y-63360238D01*
X133571904Y-63360238D02*
X133619523Y-63407857D01*
X133619523Y-63407857D02*
X133667142Y-63503095D01*
X133667142Y-63503095D02*
X133667142Y-63645952D01*
X133667142Y-63645952D02*
X133619523Y-63741190D01*
X133619523Y-63741190D02*
X133571904Y-63788809D01*
X133571904Y-63788809D02*
X133476666Y-63836428D01*
X133476666Y-63836428D02*
X133095714Y-63836428D01*
X134619523Y-64312619D02*
X134048095Y-64312619D01*
X134333809Y-64312619D02*
X134333809Y-63312619D01*
X134333809Y-63312619D02*
X134238571Y-63455476D01*
X134238571Y-63455476D02*
X134143333Y-63550714D01*
X134143333Y-63550714D02*
X134048095Y-63598333D01*
X134952857Y-63312619D02*
X135571904Y-63312619D01*
X135571904Y-63312619D02*
X135238571Y-63693571D01*
X135238571Y-63693571D02*
X135381428Y-63693571D01*
X135381428Y-63693571D02*
X135476666Y-63741190D01*
X135476666Y-63741190D02*
X135524285Y-63788809D01*
X135524285Y-63788809D02*
X135571904Y-63884047D01*
X135571904Y-63884047D02*
X135571904Y-64122142D01*
X135571904Y-64122142D02*
X135524285Y-64217380D01*
X135524285Y-64217380D02*
X135476666Y-64265000D01*
X135476666Y-64265000D02*
X135381428Y-64312619D01*
X135381428Y-64312619D02*
X135095714Y-64312619D01*
X135095714Y-64312619D02*
X135000476Y-64265000D01*
X135000476Y-64265000D02*
X134952857Y-64217380D01*
%TO.C,C12*%
X157967142Y-99647380D02*
X157919523Y-99695000D01*
X157919523Y-99695000D02*
X157776666Y-99742619D01*
X157776666Y-99742619D02*
X157681428Y-99742619D01*
X157681428Y-99742619D02*
X157538571Y-99695000D01*
X157538571Y-99695000D02*
X157443333Y-99599761D01*
X157443333Y-99599761D02*
X157395714Y-99504523D01*
X157395714Y-99504523D02*
X157348095Y-99314047D01*
X157348095Y-99314047D02*
X157348095Y-99171190D01*
X157348095Y-99171190D02*
X157395714Y-98980714D01*
X157395714Y-98980714D02*
X157443333Y-98885476D01*
X157443333Y-98885476D02*
X157538571Y-98790238D01*
X157538571Y-98790238D02*
X157681428Y-98742619D01*
X157681428Y-98742619D02*
X157776666Y-98742619D01*
X157776666Y-98742619D02*
X157919523Y-98790238D01*
X157919523Y-98790238D02*
X157967142Y-98837857D01*
X158919523Y-99742619D02*
X158348095Y-99742619D01*
X158633809Y-99742619D02*
X158633809Y-98742619D01*
X158633809Y-98742619D02*
X158538571Y-98885476D01*
X158538571Y-98885476D02*
X158443333Y-98980714D01*
X158443333Y-98980714D02*
X158348095Y-99028333D01*
X159300476Y-98837857D02*
X159348095Y-98790238D01*
X159348095Y-98790238D02*
X159443333Y-98742619D01*
X159443333Y-98742619D02*
X159681428Y-98742619D01*
X159681428Y-98742619D02*
X159776666Y-98790238D01*
X159776666Y-98790238D02*
X159824285Y-98837857D01*
X159824285Y-98837857D02*
X159871904Y-98933095D01*
X159871904Y-98933095D02*
X159871904Y-99028333D01*
X159871904Y-99028333D02*
X159824285Y-99171190D01*
X159824285Y-99171190D02*
X159252857Y-99742619D01*
X159252857Y-99742619D02*
X159871904Y-99742619D01*
%TO.C,R5*%
X153572619Y-102266666D02*
X153096428Y-102599999D01*
X153572619Y-102838094D02*
X152572619Y-102838094D01*
X152572619Y-102838094D02*
X152572619Y-102457142D01*
X152572619Y-102457142D02*
X152620238Y-102361904D01*
X152620238Y-102361904D02*
X152667857Y-102314285D01*
X152667857Y-102314285D02*
X152763095Y-102266666D01*
X152763095Y-102266666D02*
X152905952Y-102266666D01*
X152905952Y-102266666D02*
X153001190Y-102314285D01*
X153001190Y-102314285D02*
X153048809Y-102361904D01*
X153048809Y-102361904D02*
X153096428Y-102457142D01*
X153096428Y-102457142D02*
X153096428Y-102838094D01*
X152572619Y-101361904D02*
X152572619Y-101838094D01*
X152572619Y-101838094D02*
X153048809Y-101885713D01*
X153048809Y-101885713D02*
X153001190Y-101838094D01*
X153001190Y-101838094D02*
X152953571Y-101742856D01*
X152953571Y-101742856D02*
X152953571Y-101504761D01*
X152953571Y-101504761D02*
X153001190Y-101409523D01*
X153001190Y-101409523D02*
X153048809Y-101361904D01*
X153048809Y-101361904D02*
X153144047Y-101314285D01*
X153144047Y-101314285D02*
X153382142Y-101314285D01*
X153382142Y-101314285D02*
X153477380Y-101361904D01*
X153477380Y-101361904D02*
X153525000Y-101409523D01*
X153525000Y-101409523D02*
X153572619Y-101504761D01*
X153572619Y-101504761D02*
X153572619Y-101742856D01*
X153572619Y-101742856D02*
X153525000Y-101838094D01*
X153525000Y-101838094D02*
X153477380Y-101885713D01*
%TO.C,C9*%
X134143333Y-69747380D02*
X134095714Y-69795000D01*
X134095714Y-69795000D02*
X133952857Y-69842619D01*
X133952857Y-69842619D02*
X133857619Y-69842619D01*
X133857619Y-69842619D02*
X133714762Y-69795000D01*
X133714762Y-69795000D02*
X133619524Y-69699761D01*
X133619524Y-69699761D02*
X133571905Y-69604523D01*
X133571905Y-69604523D02*
X133524286Y-69414047D01*
X133524286Y-69414047D02*
X133524286Y-69271190D01*
X133524286Y-69271190D02*
X133571905Y-69080714D01*
X133571905Y-69080714D02*
X133619524Y-68985476D01*
X133619524Y-68985476D02*
X133714762Y-68890238D01*
X133714762Y-68890238D02*
X133857619Y-68842619D01*
X133857619Y-68842619D02*
X133952857Y-68842619D01*
X133952857Y-68842619D02*
X134095714Y-68890238D01*
X134095714Y-68890238D02*
X134143333Y-68937857D01*
X134619524Y-69842619D02*
X134810000Y-69842619D01*
X134810000Y-69842619D02*
X134905238Y-69795000D01*
X134905238Y-69795000D02*
X134952857Y-69747380D01*
X134952857Y-69747380D02*
X135048095Y-69604523D01*
X135048095Y-69604523D02*
X135095714Y-69414047D01*
X135095714Y-69414047D02*
X135095714Y-69033095D01*
X135095714Y-69033095D02*
X135048095Y-68937857D01*
X135048095Y-68937857D02*
X135000476Y-68890238D01*
X135000476Y-68890238D02*
X134905238Y-68842619D01*
X134905238Y-68842619D02*
X134714762Y-68842619D01*
X134714762Y-68842619D02*
X134619524Y-68890238D01*
X134619524Y-68890238D02*
X134571905Y-68937857D01*
X134571905Y-68937857D02*
X134524286Y-69033095D01*
X134524286Y-69033095D02*
X134524286Y-69271190D01*
X134524286Y-69271190D02*
X134571905Y-69366428D01*
X134571905Y-69366428D02*
X134619524Y-69414047D01*
X134619524Y-69414047D02*
X134714762Y-69461666D01*
X134714762Y-69461666D02*
X134905238Y-69461666D01*
X134905238Y-69461666D02*
X135000476Y-69414047D01*
X135000476Y-69414047D02*
X135048095Y-69366428D01*
X135048095Y-69366428D02*
X135095714Y-69271190D01*
%TO.C,R9*%
X150243333Y-99662619D02*
X149910000Y-99186428D01*
X149671905Y-99662619D02*
X149671905Y-98662619D01*
X149671905Y-98662619D02*
X150052857Y-98662619D01*
X150052857Y-98662619D02*
X150148095Y-98710238D01*
X150148095Y-98710238D02*
X150195714Y-98757857D01*
X150195714Y-98757857D02*
X150243333Y-98853095D01*
X150243333Y-98853095D02*
X150243333Y-98995952D01*
X150243333Y-98995952D02*
X150195714Y-99091190D01*
X150195714Y-99091190D02*
X150148095Y-99138809D01*
X150148095Y-99138809D02*
X150052857Y-99186428D01*
X150052857Y-99186428D02*
X149671905Y-99186428D01*
X150719524Y-99662619D02*
X150910000Y-99662619D01*
X150910000Y-99662619D02*
X151005238Y-99615000D01*
X151005238Y-99615000D02*
X151052857Y-99567380D01*
X151052857Y-99567380D02*
X151148095Y-99424523D01*
X151148095Y-99424523D02*
X151195714Y-99234047D01*
X151195714Y-99234047D02*
X151195714Y-98853095D01*
X151195714Y-98853095D02*
X151148095Y-98757857D01*
X151148095Y-98757857D02*
X151100476Y-98710238D01*
X151100476Y-98710238D02*
X151005238Y-98662619D01*
X151005238Y-98662619D02*
X150814762Y-98662619D01*
X150814762Y-98662619D02*
X150719524Y-98710238D01*
X150719524Y-98710238D02*
X150671905Y-98757857D01*
X150671905Y-98757857D02*
X150624286Y-98853095D01*
X150624286Y-98853095D02*
X150624286Y-99091190D01*
X150624286Y-99091190D02*
X150671905Y-99186428D01*
X150671905Y-99186428D02*
X150719524Y-99234047D01*
X150719524Y-99234047D02*
X150814762Y-99281666D01*
X150814762Y-99281666D02*
X151005238Y-99281666D01*
X151005238Y-99281666D02*
X151100476Y-99234047D01*
X151100476Y-99234047D02*
X151148095Y-99186428D01*
X151148095Y-99186428D02*
X151195714Y-99091190D01*
%TO.C,Q1*%
X158014761Y-107957857D02*
X157919523Y-107910238D01*
X157919523Y-107910238D02*
X157824285Y-107815000D01*
X157824285Y-107815000D02*
X157681428Y-107672142D01*
X157681428Y-107672142D02*
X157586190Y-107624523D01*
X157586190Y-107624523D02*
X157490952Y-107624523D01*
X157538571Y-107862619D02*
X157443333Y-107815000D01*
X157443333Y-107815000D02*
X157348095Y-107719761D01*
X157348095Y-107719761D02*
X157300476Y-107529285D01*
X157300476Y-107529285D02*
X157300476Y-107195952D01*
X157300476Y-107195952D02*
X157348095Y-107005476D01*
X157348095Y-107005476D02*
X157443333Y-106910238D01*
X157443333Y-106910238D02*
X157538571Y-106862619D01*
X157538571Y-106862619D02*
X157729047Y-106862619D01*
X157729047Y-106862619D02*
X157824285Y-106910238D01*
X157824285Y-106910238D02*
X157919523Y-107005476D01*
X157919523Y-107005476D02*
X157967142Y-107195952D01*
X157967142Y-107195952D02*
X157967142Y-107529285D01*
X157967142Y-107529285D02*
X157919523Y-107719761D01*
X157919523Y-107719761D02*
X157824285Y-107815000D01*
X157824285Y-107815000D02*
X157729047Y-107862619D01*
X157729047Y-107862619D02*
X157538571Y-107862619D01*
X158919523Y-107862619D02*
X158348095Y-107862619D01*
X158633809Y-107862619D02*
X158633809Y-106862619D01*
X158633809Y-106862619D02*
X158538571Y-107005476D01*
X158538571Y-107005476D02*
X158443333Y-107100714D01*
X158443333Y-107100714D02*
X158348095Y-107148333D01*
%TO.C,R6*%
X155543333Y-109262619D02*
X155210000Y-108786428D01*
X154971905Y-109262619D02*
X154971905Y-108262619D01*
X154971905Y-108262619D02*
X155352857Y-108262619D01*
X155352857Y-108262619D02*
X155448095Y-108310238D01*
X155448095Y-108310238D02*
X155495714Y-108357857D01*
X155495714Y-108357857D02*
X155543333Y-108453095D01*
X155543333Y-108453095D02*
X155543333Y-108595952D01*
X155543333Y-108595952D02*
X155495714Y-108691190D01*
X155495714Y-108691190D02*
X155448095Y-108738809D01*
X155448095Y-108738809D02*
X155352857Y-108786428D01*
X155352857Y-108786428D02*
X154971905Y-108786428D01*
X156400476Y-108262619D02*
X156210000Y-108262619D01*
X156210000Y-108262619D02*
X156114762Y-108310238D01*
X156114762Y-108310238D02*
X156067143Y-108357857D01*
X156067143Y-108357857D02*
X155971905Y-108500714D01*
X155971905Y-108500714D02*
X155924286Y-108691190D01*
X155924286Y-108691190D02*
X155924286Y-109072142D01*
X155924286Y-109072142D02*
X155971905Y-109167380D01*
X155971905Y-109167380D02*
X156019524Y-109215000D01*
X156019524Y-109215000D02*
X156114762Y-109262619D01*
X156114762Y-109262619D02*
X156305238Y-109262619D01*
X156305238Y-109262619D02*
X156400476Y-109215000D01*
X156400476Y-109215000D02*
X156448095Y-109167380D01*
X156448095Y-109167380D02*
X156495714Y-109072142D01*
X156495714Y-109072142D02*
X156495714Y-108834047D01*
X156495714Y-108834047D02*
X156448095Y-108738809D01*
X156448095Y-108738809D02*
X156400476Y-108691190D01*
X156400476Y-108691190D02*
X156305238Y-108643571D01*
X156305238Y-108643571D02*
X156114762Y-108643571D01*
X156114762Y-108643571D02*
X156019524Y-108691190D01*
X156019524Y-108691190D02*
X155971905Y-108738809D01*
X155971905Y-108738809D02*
X155924286Y-108834047D01*
%TO.C,R16*%
X116367142Y-104962619D02*
X116033809Y-104486428D01*
X115795714Y-104962619D02*
X115795714Y-103962619D01*
X115795714Y-103962619D02*
X116176666Y-103962619D01*
X116176666Y-103962619D02*
X116271904Y-104010238D01*
X116271904Y-104010238D02*
X116319523Y-104057857D01*
X116319523Y-104057857D02*
X116367142Y-104153095D01*
X116367142Y-104153095D02*
X116367142Y-104295952D01*
X116367142Y-104295952D02*
X116319523Y-104391190D01*
X116319523Y-104391190D02*
X116271904Y-104438809D01*
X116271904Y-104438809D02*
X116176666Y-104486428D01*
X116176666Y-104486428D02*
X115795714Y-104486428D01*
X117319523Y-104962619D02*
X116748095Y-104962619D01*
X117033809Y-104962619D02*
X117033809Y-103962619D01*
X117033809Y-103962619D02*
X116938571Y-104105476D01*
X116938571Y-104105476D02*
X116843333Y-104200714D01*
X116843333Y-104200714D02*
X116748095Y-104248333D01*
X118176666Y-103962619D02*
X117986190Y-103962619D01*
X117986190Y-103962619D02*
X117890952Y-104010238D01*
X117890952Y-104010238D02*
X117843333Y-104057857D01*
X117843333Y-104057857D02*
X117748095Y-104200714D01*
X117748095Y-104200714D02*
X117700476Y-104391190D01*
X117700476Y-104391190D02*
X117700476Y-104772142D01*
X117700476Y-104772142D02*
X117748095Y-104867380D01*
X117748095Y-104867380D02*
X117795714Y-104915000D01*
X117795714Y-104915000D02*
X117890952Y-104962619D01*
X117890952Y-104962619D02*
X118081428Y-104962619D01*
X118081428Y-104962619D02*
X118176666Y-104915000D01*
X118176666Y-104915000D02*
X118224285Y-104867380D01*
X118224285Y-104867380D02*
X118271904Y-104772142D01*
X118271904Y-104772142D02*
X118271904Y-104534047D01*
X118271904Y-104534047D02*
X118224285Y-104438809D01*
X118224285Y-104438809D02*
X118176666Y-104391190D01*
X118176666Y-104391190D02*
X118081428Y-104343571D01*
X118081428Y-104343571D02*
X117890952Y-104343571D01*
X117890952Y-104343571D02*
X117795714Y-104391190D01*
X117795714Y-104391190D02*
X117748095Y-104438809D01*
X117748095Y-104438809D02*
X117700476Y-104534047D01*
%TO.C,C10*%
X168077380Y-107042857D02*
X168125000Y-107090476D01*
X168125000Y-107090476D02*
X168172619Y-107233333D01*
X168172619Y-107233333D02*
X168172619Y-107328571D01*
X168172619Y-107328571D02*
X168125000Y-107471428D01*
X168125000Y-107471428D02*
X168029761Y-107566666D01*
X168029761Y-107566666D02*
X167934523Y-107614285D01*
X167934523Y-107614285D02*
X167744047Y-107661904D01*
X167744047Y-107661904D02*
X167601190Y-107661904D01*
X167601190Y-107661904D02*
X167410714Y-107614285D01*
X167410714Y-107614285D02*
X167315476Y-107566666D01*
X167315476Y-107566666D02*
X167220238Y-107471428D01*
X167220238Y-107471428D02*
X167172619Y-107328571D01*
X167172619Y-107328571D02*
X167172619Y-107233333D01*
X167172619Y-107233333D02*
X167220238Y-107090476D01*
X167220238Y-107090476D02*
X167267857Y-107042857D01*
X168172619Y-106090476D02*
X168172619Y-106661904D01*
X168172619Y-106376190D02*
X167172619Y-106376190D01*
X167172619Y-106376190D02*
X167315476Y-106471428D01*
X167315476Y-106471428D02*
X167410714Y-106566666D01*
X167410714Y-106566666D02*
X167458333Y-106661904D01*
X167172619Y-105471428D02*
X167172619Y-105376190D01*
X167172619Y-105376190D02*
X167220238Y-105280952D01*
X167220238Y-105280952D02*
X167267857Y-105233333D01*
X167267857Y-105233333D02*
X167363095Y-105185714D01*
X167363095Y-105185714D02*
X167553571Y-105138095D01*
X167553571Y-105138095D02*
X167791666Y-105138095D01*
X167791666Y-105138095D02*
X167982142Y-105185714D01*
X167982142Y-105185714D02*
X168077380Y-105233333D01*
X168077380Y-105233333D02*
X168125000Y-105280952D01*
X168125000Y-105280952D02*
X168172619Y-105376190D01*
X168172619Y-105376190D02*
X168172619Y-105471428D01*
X168172619Y-105471428D02*
X168125000Y-105566666D01*
X168125000Y-105566666D02*
X168077380Y-105614285D01*
X168077380Y-105614285D02*
X167982142Y-105661904D01*
X167982142Y-105661904D02*
X167791666Y-105709523D01*
X167791666Y-105709523D02*
X167553571Y-105709523D01*
X167553571Y-105709523D02*
X167363095Y-105661904D01*
X167363095Y-105661904D02*
X167267857Y-105614285D01*
X167267857Y-105614285D02*
X167220238Y-105566666D01*
X167220238Y-105566666D02*
X167172619Y-105471428D01*
%TO.C,R18*%
X133867142Y-101862619D02*
X133533809Y-101386428D01*
X133295714Y-101862619D02*
X133295714Y-100862619D01*
X133295714Y-100862619D02*
X133676666Y-100862619D01*
X133676666Y-100862619D02*
X133771904Y-100910238D01*
X133771904Y-100910238D02*
X133819523Y-100957857D01*
X133819523Y-100957857D02*
X133867142Y-101053095D01*
X133867142Y-101053095D02*
X133867142Y-101195952D01*
X133867142Y-101195952D02*
X133819523Y-101291190D01*
X133819523Y-101291190D02*
X133771904Y-101338809D01*
X133771904Y-101338809D02*
X133676666Y-101386428D01*
X133676666Y-101386428D02*
X133295714Y-101386428D01*
X134819523Y-101862619D02*
X134248095Y-101862619D01*
X134533809Y-101862619D02*
X134533809Y-100862619D01*
X134533809Y-100862619D02*
X134438571Y-101005476D01*
X134438571Y-101005476D02*
X134343333Y-101100714D01*
X134343333Y-101100714D02*
X134248095Y-101148333D01*
X135390952Y-101291190D02*
X135295714Y-101243571D01*
X135295714Y-101243571D02*
X135248095Y-101195952D01*
X135248095Y-101195952D02*
X135200476Y-101100714D01*
X135200476Y-101100714D02*
X135200476Y-101053095D01*
X135200476Y-101053095D02*
X135248095Y-100957857D01*
X135248095Y-100957857D02*
X135295714Y-100910238D01*
X135295714Y-100910238D02*
X135390952Y-100862619D01*
X135390952Y-100862619D02*
X135581428Y-100862619D01*
X135581428Y-100862619D02*
X135676666Y-100910238D01*
X135676666Y-100910238D02*
X135724285Y-100957857D01*
X135724285Y-100957857D02*
X135771904Y-101053095D01*
X135771904Y-101053095D02*
X135771904Y-101100714D01*
X135771904Y-101100714D02*
X135724285Y-101195952D01*
X135724285Y-101195952D02*
X135676666Y-101243571D01*
X135676666Y-101243571D02*
X135581428Y-101291190D01*
X135581428Y-101291190D02*
X135390952Y-101291190D01*
X135390952Y-101291190D02*
X135295714Y-101338809D01*
X135295714Y-101338809D02*
X135248095Y-101386428D01*
X135248095Y-101386428D02*
X135200476Y-101481666D01*
X135200476Y-101481666D02*
X135200476Y-101672142D01*
X135200476Y-101672142D02*
X135248095Y-101767380D01*
X135248095Y-101767380D02*
X135295714Y-101815000D01*
X135295714Y-101815000D02*
X135390952Y-101862619D01*
X135390952Y-101862619D02*
X135581428Y-101862619D01*
X135581428Y-101862619D02*
X135676666Y-101815000D01*
X135676666Y-101815000D02*
X135724285Y-101767380D01*
X135724285Y-101767380D02*
X135771904Y-101672142D01*
X135771904Y-101672142D02*
X135771904Y-101481666D01*
X135771904Y-101481666D02*
X135724285Y-101386428D01*
X135724285Y-101386428D02*
X135676666Y-101338809D01*
X135676666Y-101338809D02*
X135581428Y-101291190D01*
%TO.C,C11*%
X131497380Y-97942857D02*
X131545000Y-97990476D01*
X131545000Y-97990476D02*
X131592619Y-98133333D01*
X131592619Y-98133333D02*
X131592619Y-98228571D01*
X131592619Y-98228571D02*
X131545000Y-98371428D01*
X131545000Y-98371428D02*
X131449761Y-98466666D01*
X131449761Y-98466666D02*
X131354523Y-98514285D01*
X131354523Y-98514285D02*
X131164047Y-98561904D01*
X131164047Y-98561904D02*
X131021190Y-98561904D01*
X131021190Y-98561904D02*
X130830714Y-98514285D01*
X130830714Y-98514285D02*
X130735476Y-98466666D01*
X130735476Y-98466666D02*
X130640238Y-98371428D01*
X130640238Y-98371428D02*
X130592619Y-98228571D01*
X130592619Y-98228571D02*
X130592619Y-98133333D01*
X130592619Y-98133333D02*
X130640238Y-97990476D01*
X130640238Y-97990476D02*
X130687857Y-97942857D01*
X131592619Y-96990476D02*
X131592619Y-97561904D01*
X131592619Y-97276190D02*
X130592619Y-97276190D01*
X130592619Y-97276190D02*
X130735476Y-97371428D01*
X130735476Y-97371428D02*
X130830714Y-97466666D01*
X130830714Y-97466666D02*
X130878333Y-97561904D01*
X131592619Y-96038095D02*
X131592619Y-96609523D01*
X131592619Y-96323809D02*
X130592619Y-96323809D01*
X130592619Y-96323809D02*
X130735476Y-96419047D01*
X130735476Y-96419047D02*
X130830714Y-96514285D01*
X130830714Y-96514285D02*
X130878333Y-96609523D01*
%TO.C,C14*%
X133667142Y-100567380D02*
X133619523Y-100615000D01*
X133619523Y-100615000D02*
X133476666Y-100662619D01*
X133476666Y-100662619D02*
X133381428Y-100662619D01*
X133381428Y-100662619D02*
X133238571Y-100615000D01*
X133238571Y-100615000D02*
X133143333Y-100519761D01*
X133143333Y-100519761D02*
X133095714Y-100424523D01*
X133095714Y-100424523D02*
X133048095Y-100234047D01*
X133048095Y-100234047D02*
X133048095Y-100091190D01*
X133048095Y-100091190D02*
X133095714Y-99900714D01*
X133095714Y-99900714D02*
X133143333Y-99805476D01*
X133143333Y-99805476D02*
X133238571Y-99710238D01*
X133238571Y-99710238D02*
X133381428Y-99662619D01*
X133381428Y-99662619D02*
X133476666Y-99662619D01*
X133476666Y-99662619D02*
X133619523Y-99710238D01*
X133619523Y-99710238D02*
X133667142Y-99757857D01*
X134619523Y-100662619D02*
X134048095Y-100662619D01*
X134333809Y-100662619D02*
X134333809Y-99662619D01*
X134333809Y-99662619D02*
X134238571Y-99805476D01*
X134238571Y-99805476D02*
X134143333Y-99900714D01*
X134143333Y-99900714D02*
X134048095Y-99948333D01*
X135476666Y-99995952D02*
X135476666Y-100662619D01*
X135238571Y-99615000D02*
X135000476Y-100329285D01*
X135000476Y-100329285D02*
X135619523Y-100329285D01*
%TO.C,C5*%
X158343333Y-89367380D02*
X158295714Y-89415000D01*
X158295714Y-89415000D02*
X158152857Y-89462619D01*
X158152857Y-89462619D02*
X158057619Y-89462619D01*
X158057619Y-89462619D02*
X157914762Y-89415000D01*
X157914762Y-89415000D02*
X157819524Y-89319761D01*
X157819524Y-89319761D02*
X157771905Y-89224523D01*
X157771905Y-89224523D02*
X157724286Y-89034047D01*
X157724286Y-89034047D02*
X157724286Y-88891190D01*
X157724286Y-88891190D02*
X157771905Y-88700714D01*
X157771905Y-88700714D02*
X157819524Y-88605476D01*
X157819524Y-88605476D02*
X157914762Y-88510238D01*
X157914762Y-88510238D02*
X158057619Y-88462619D01*
X158057619Y-88462619D02*
X158152857Y-88462619D01*
X158152857Y-88462619D02*
X158295714Y-88510238D01*
X158295714Y-88510238D02*
X158343333Y-88557857D01*
X159248095Y-88462619D02*
X158771905Y-88462619D01*
X158771905Y-88462619D02*
X158724286Y-88938809D01*
X158724286Y-88938809D02*
X158771905Y-88891190D01*
X158771905Y-88891190D02*
X158867143Y-88843571D01*
X158867143Y-88843571D02*
X159105238Y-88843571D01*
X159105238Y-88843571D02*
X159200476Y-88891190D01*
X159200476Y-88891190D02*
X159248095Y-88938809D01*
X159248095Y-88938809D02*
X159295714Y-89034047D01*
X159295714Y-89034047D02*
X159295714Y-89272142D01*
X159295714Y-89272142D02*
X159248095Y-89367380D01*
X159248095Y-89367380D02*
X159200476Y-89415000D01*
X159200476Y-89415000D02*
X159105238Y-89462619D01*
X159105238Y-89462619D02*
X158867143Y-89462619D01*
X158867143Y-89462619D02*
X158771905Y-89415000D01*
X158771905Y-89415000D02*
X158724286Y-89367380D01*
%TO.C,R21*%
X127267142Y-107162619D02*
X126933809Y-106686428D01*
X126695714Y-107162619D02*
X126695714Y-106162619D01*
X126695714Y-106162619D02*
X127076666Y-106162619D01*
X127076666Y-106162619D02*
X127171904Y-106210238D01*
X127171904Y-106210238D02*
X127219523Y-106257857D01*
X127219523Y-106257857D02*
X127267142Y-106353095D01*
X127267142Y-106353095D02*
X127267142Y-106495952D01*
X127267142Y-106495952D02*
X127219523Y-106591190D01*
X127219523Y-106591190D02*
X127171904Y-106638809D01*
X127171904Y-106638809D02*
X127076666Y-106686428D01*
X127076666Y-106686428D02*
X126695714Y-106686428D01*
X127648095Y-106257857D02*
X127695714Y-106210238D01*
X127695714Y-106210238D02*
X127790952Y-106162619D01*
X127790952Y-106162619D02*
X128029047Y-106162619D01*
X128029047Y-106162619D02*
X128124285Y-106210238D01*
X128124285Y-106210238D02*
X128171904Y-106257857D01*
X128171904Y-106257857D02*
X128219523Y-106353095D01*
X128219523Y-106353095D02*
X128219523Y-106448333D01*
X128219523Y-106448333D02*
X128171904Y-106591190D01*
X128171904Y-106591190D02*
X127600476Y-107162619D01*
X127600476Y-107162619D02*
X128219523Y-107162619D01*
X129171904Y-107162619D02*
X128600476Y-107162619D01*
X128886190Y-107162619D02*
X128886190Y-106162619D01*
X128886190Y-106162619D02*
X128790952Y-106305476D01*
X128790952Y-106305476D02*
X128695714Y-106400714D01*
X128695714Y-106400714D02*
X128600476Y-106448333D01*
%TO.C,Q4*%
X125067857Y-101295238D02*
X125020238Y-101390476D01*
X125020238Y-101390476D02*
X124925000Y-101485714D01*
X124925000Y-101485714D02*
X124782142Y-101628571D01*
X124782142Y-101628571D02*
X124734523Y-101723809D01*
X124734523Y-101723809D02*
X124734523Y-101819047D01*
X124972619Y-101771428D02*
X124925000Y-101866666D01*
X124925000Y-101866666D02*
X124829761Y-101961904D01*
X124829761Y-101961904D02*
X124639285Y-102009523D01*
X124639285Y-102009523D02*
X124305952Y-102009523D01*
X124305952Y-102009523D02*
X124115476Y-101961904D01*
X124115476Y-101961904D02*
X124020238Y-101866666D01*
X124020238Y-101866666D02*
X123972619Y-101771428D01*
X123972619Y-101771428D02*
X123972619Y-101580952D01*
X123972619Y-101580952D02*
X124020238Y-101485714D01*
X124020238Y-101485714D02*
X124115476Y-101390476D01*
X124115476Y-101390476D02*
X124305952Y-101342857D01*
X124305952Y-101342857D02*
X124639285Y-101342857D01*
X124639285Y-101342857D02*
X124829761Y-101390476D01*
X124829761Y-101390476D02*
X124925000Y-101485714D01*
X124925000Y-101485714D02*
X124972619Y-101580952D01*
X124972619Y-101580952D02*
X124972619Y-101771428D01*
X124305952Y-100485714D02*
X124972619Y-100485714D01*
X123925000Y-100723809D02*
X124639285Y-100961904D01*
X124639285Y-100961904D02*
X124639285Y-100342857D01*
%TO.C,Q5*%
X161067857Y-90495238D02*
X161020238Y-90590476D01*
X161020238Y-90590476D02*
X160925000Y-90685714D01*
X160925000Y-90685714D02*
X160782142Y-90828571D01*
X160782142Y-90828571D02*
X160734523Y-90923809D01*
X160734523Y-90923809D02*
X160734523Y-91019047D01*
X160972619Y-90971428D02*
X160925000Y-91066666D01*
X160925000Y-91066666D02*
X160829761Y-91161904D01*
X160829761Y-91161904D02*
X160639285Y-91209523D01*
X160639285Y-91209523D02*
X160305952Y-91209523D01*
X160305952Y-91209523D02*
X160115476Y-91161904D01*
X160115476Y-91161904D02*
X160020238Y-91066666D01*
X160020238Y-91066666D02*
X159972619Y-90971428D01*
X159972619Y-90971428D02*
X159972619Y-90780952D01*
X159972619Y-90780952D02*
X160020238Y-90685714D01*
X160020238Y-90685714D02*
X160115476Y-90590476D01*
X160115476Y-90590476D02*
X160305952Y-90542857D01*
X160305952Y-90542857D02*
X160639285Y-90542857D01*
X160639285Y-90542857D02*
X160829761Y-90590476D01*
X160829761Y-90590476D02*
X160925000Y-90685714D01*
X160925000Y-90685714D02*
X160972619Y-90780952D01*
X160972619Y-90780952D02*
X160972619Y-90971428D01*
X159972619Y-89638095D02*
X159972619Y-90114285D01*
X159972619Y-90114285D02*
X160448809Y-90161904D01*
X160448809Y-90161904D02*
X160401190Y-90114285D01*
X160401190Y-90114285D02*
X160353571Y-90019047D01*
X160353571Y-90019047D02*
X160353571Y-89780952D01*
X160353571Y-89780952D02*
X160401190Y-89685714D01*
X160401190Y-89685714D02*
X160448809Y-89638095D01*
X160448809Y-89638095D02*
X160544047Y-89590476D01*
X160544047Y-89590476D02*
X160782142Y-89590476D01*
X160782142Y-89590476D02*
X160877380Y-89638095D01*
X160877380Y-89638095D02*
X160925000Y-89685714D01*
X160925000Y-89685714D02*
X160972619Y-89780952D01*
X160972619Y-89780952D02*
X160972619Y-90019047D01*
X160972619Y-90019047D02*
X160925000Y-90114285D01*
X160925000Y-90114285D02*
X160877380Y-90161904D01*
%TO.C,R8*%
X151322619Y-84666666D02*
X150846428Y-84999999D01*
X151322619Y-85238094D02*
X150322619Y-85238094D01*
X150322619Y-85238094D02*
X150322619Y-84857142D01*
X150322619Y-84857142D02*
X150370238Y-84761904D01*
X150370238Y-84761904D02*
X150417857Y-84714285D01*
X150417857Y-84714285D02*
X150513095Y-84666666D01*
X150513095Y-84666666D02*
X150655952Y-84666666D01*
X150655952Y-84666666D02*
X150751190Y-84714285D01*
X150751190Y-84714285D02*
X150798809Y-84761904D01*
X150798809Y-84761904D02*
X150846428Y-84857142D01*
X150846428Y-84857142D02*
X150846428Y-85238094D01*
X150751190Y-84095237D02*
X150703571Y-84190475D01*
X150703571Y-84190475D02*
X150655952Y-84238094D01*
X150655952Y-84238094D02*
X150560714Y-84285713D01*
X150560714Y-84285713D02*
X150513095Y-84285713D01*
X150513095Y-84285713D02*
X150417857Y-84238094D01*
X150417857Y-84238094D02*
X150370238Y-84190475D01*
X150370238Y-84190475D02*
X150322619Y-84095237D01*
X150322619Y-84095237D02*
X150322619Y-83904761D01*
X150322619Y-83904761D02*
X150370238Y-83809523D01*
X150370238Y-83809523D02*
X150417857Y-83761904D01*
X150417857Y-83761904D02*
X150513095Y-83714285D01*
X150513095Y-83714285D02*
X150560714Y-83714285D01*
X150560714Y-83714285D02*
X150655952Y-83761904D01*
X150655952Y-83761904D02*
X150703571Y-83809523D01*
X150703571Y-83809523D02*
X150751190Y-83904761D01*
X150751190Y-83904761D02*
X150751190Y-84095237D01*
X150751190Y-84095237D02*
X150798809Y-84190475D01*
X150798809Y-84190475D02*
X150846428Y-84238094D01*
X150846428Y-84238094D02*
X150941666Y-84285713D01*
X150941666Y-84285713D02*
X151132142Y-84285713D01*
X151132142Y-84285713D02*
X151227380Y-84238094D01*
X151227380Y-84238094D02*
X151275000Y-84190475D01*
X151275000Y-84190475D02*
X151322619Y-84095237D01*
X151322619Y-84095237D02*
X151322619Y-83904761D01*
X151322619Y-83904761D02*
X151275000Y-83809523D01*
X151275000Y-83809523D02*
X151227380Y-83761904D01*
X151227380Y-83761904D02*
X151132142Y-83714285D01*
X151132142Y-83714285D02*
X150941666Y-83714285D01*
X150941666Y-83714285D02*
X150846428Y-83761904D01*
X150846428Y-83761904D02*
X150798809Y-83809523D01*
X150798809Y-83809523D02*
X150751190Y-83904761D01*
%TO.C,VOL1*%
X117232619Y-80053094D02*
X118232619Y-79719761D01*
X118232619Y-79719761D02*
X117232619Y-79386428D01*
X117232619Y-78862618D02*
X117232619Y-78672142D01*
X117232619Y-78672142D02*
X117280238Y-78576904D01*
X117280238Y-78576904D02*
X117375476Y-78481666D01*
X117375476Y-78481666D02*
X117565952Y-78434047D01*
X117565952Y-78434047D02*
X117899285Y-78434047D01*
X117899285Y-78434047D02*
X118089761Y-78481666D01*
X118089761Y-78481666D02*
X118185000Y-78576904D01*
X118185000Y-78576904D02*
X118232619Y-78672142D01*
X118232619Y-78672142D02*
X118232619Y-78862618D01*
X118232619Y-78862618D02*
X118185000Y-78957856D01*
X118185000Y-78957856D02*
X118089761Y-79053094D01*
X118089761Y-79053094D02*
X117899285Y-79100713D01*
X117899285Y-79100713D02*
X117565952Y-79100713D01*
X117565952Y-79100713D02*
X117375476Y-79053094D01*
X117375476Y-79053094D02*
X117280238Y-78957856D01*
X117280238Y-78957856D02*
X117232619Y-78862618D01*
X118232619Y-77529285D02*
X118232619Y-78005475D01*
X118232619Y-78005475D02*
X117232619Y-78005475D01*
X118232619Y-76672142D02*
X118232619Y-77243570D01*
X118232619Y-76957856D02*
X117232619Y-76957856D01*
X117232619Y-76957856D02*
X117375476Y-77053094D01*
X117375476Y-77053094D02*
X117470714Y-77148332D01*
X117470714Y-77148332D02*
X117518333Y-77243570D01*
%TO.C,N1*%
X112178095Y-155621704D02*
X112178095Y-154621704D01*
X112178095Y-154621704D02*
X112749523Y-155621704D01*
X112749523Y-155621704D02*
X112749523Y-154621704D01*
X113749523Y-155621704D02*
X113178095Y-155621704D01*
X113463809Y-155621704D02*
X113463809Y-154621704D01*
X113463809Y-154621704D02*
X113368571Y-154764561D01*
X113368571Y-154764561D02*
X113273333Y-154859799D01*
X113273333Y-154859799D02*
X113178095Y-154907418D01*
%TO.C,R10*%
X152622619Y-87842857D02*
X152146428Y-88176190D01*
X152622619Y-88414285D02*
X151622619Y-88414285D01*
X151622619Y-88414285D02*
X151622619Y-88033333D01*
X151622619Y-88033333D02*
X151670238Y-87938095D01*
X151670238Y-87938095D02*
X151717857Y-87890476D01*
X151717857Y-87890476D02*
X151813095Y-87842857D01*
X151813095Y-87842857D02*
X151955952Y-87842857D01*
X151955952Y-87842857D02*
X152051190Y-87890476D01*
X152051190Y-87890476D02*
X152098809Y-87938095D01*
X152098809Y-87938095D02*
X152146428Y-88033333D01*
X152146428Y-88033333D02*
X152146428Y-88414285D01*
X152622619Y-86890476D02*
X152622619Y-87461904D01*
X152622619Y-87176190D02*
X151622619Y-87176190D01*
X151622619Y-87176190D02*
X151765476Y-87271428D01*
X151765476Y-87271428D02*
X151860714Y-87366666D01*
X151860714Y-87366666D02*
X151908333Y-87461904D01*
X151622619Y-86271428D02*
X151622619Y-86176190D01*
X151622619Y-86176190D02*
X151670238Y-86080952D01*
X151670238Y-86080952D02*
X151717857Y-86033333D01*
X151717857Y-86033333D02*
X151813095Y-85985714D01*
X151813095Y-85985714D02*
X152003571Y-85938095D01*
X152003571Y-85938095D02*
X152241666Y-85938095D01*
X152241666Y-85938095D02*
X152432142Y-85985714D01*
X152432142Y-85985714D02*
X152527380Y-86033333D01*
X152527380Y-86033333D02*
X152575000Y-86080952D01*
X152575000Y-86080952D02*
X152622619Y-86176190D01*
X152622619Y-86176190D02*
X152622619Y-86271428D01*
X152622619Y-86271428D02*
X152575000Y-86366666D01*
X152575000Y-86366666D02*
X152527380Y-86414285D01*
X152527380Y-86414285D02*
X152432142Y-86461904D01*
X152432142Y-86461904D02*
X152241666Y-86509523D01*
X152241666Y-86509523D02*
X152003571Y-86509523D01*
X152003571Y-86509523D02*
X151813095Y-86461904D01*
X151813095Y-86461904D02*
X151717857Y-86414285D01*
X151717857Y-86414285D02*
X151670238Y-86366666D01*
X151670238Y-86366666D02*
X151622619Y-86271428D01*
%TO.C,C7*%
X157497380Y-91966666D02*
X157545000Y-92014285D01*
X157545000Y-92014285D02*
X157592619Y-92157142D01*
X157592619Y-92157142D02*
X157592619Y-92252380D01*
X157592619Y-92252380D02*
X157545000Y-92395237D01*
X157545000Y-92395237D02*
X157449761Y-92490475D01*
X157449761Y-92490475D02*
X157354523Y-92538094D01*
X157354523Y-92538094D02*
X157164047Y-92585713D01*
X157164047Y-92585713D02*
X157021190Y-92585713D01*
X157021190Y-92585713D02*
X156830714Y-92538094D01*
X156830714Y-92538094D02*
X156735476Y-92490475D01*
X156735476Y-92490475D02*
X156640238Y-92395237D01*
X156640238Y-92395237D02*
X156592619Y-92252380D01*
X156592619Y-92252380D02*
X156592619Y-92157142D01*
X156592619Y-92157142D02*
X156640238Y-92014285D01*
X156640238Y-92014285D02*
X156687857Y-91966666D01*
X156592619Y-91633332D02*
X156592619Y-90966666D01*
X156592619Y-90966666D02*
X157592619Y-91395237D01*
%TO.C,C15*%
X134567142Y-103487380D02*
X134519523Y-103535000D01*
X134519523Y-103535000D02*
X134376666Y-103582619D01*
X134376666Y-103582619D02*
X134281428Y-103582619D01*
X134281428Y-103582619D02*
X134138571Y-103535000D01*
X134138571Y-103535000D02*
X134043333Y-103439761D01*
X134043333Y-103439761D02*
X133995714Y-103344523D01*
X133995714Y-103344523D02*
X133948095Y-103154047D01*
X133948095Y-103154047D02*
X133948095Y-103011190D01*
X133948095Y-103011190D02*
X133995714Y-102820714D01*
X133995714Y-102820714D02*
X134043333Y-102725476D01*
X134043333Y-102725476D02*
X134138571Y-102630238D01*
X134138571Y-102630238D02*
X134281428Y-102582619D01*
X134281428Y-102582619D02*
X134376666Y-102582619D01*
X134376666Y-102582619D02*
X134519523Y-102630238D01*
X134519523Y-102630238D02*
X134567142Y-102677857D01*
X135519523Y-103582619D02*
X134948095Y-103582619D01*
X135233809Y-103582619D02*
X135233809Y-102582619D01*
X135233809Y-102582619D02*
X135138571Y-102725476D01*
X135138571Y-102725476D02*
X135043333Y-102820714D01*
X135043333Y-102820714D02*
X134948095Y-102868333D01*
X136424285Y-102582619D02*
X135948095Y-102582619D01*
X135948095Y-102582619D02*
X135900476Y-103058809D01*
X135900476Y-103058809D02*
X135948095Y-103011190D01*
X135948095Y-103011190D02*
X136043333Y-102963571D01*
X136043333Y-102963571D02*
X136281428Y-102963571D01*
X136281428Y-102963571D02*
X136376666Y-103011190D01*
X136376666Y-103011190D02*
X136424285Y-103058809D01*
X136424285Y-103058809D02*
X136471904Y-103154047D01*
X136471904Y-103154047D02*
X136471904Y-103392142D01*
X136471904Y-103392142D02*
X136424285Y-103487380D01*
X136424285Y-103487380D02*
X136376666Y-103535000D01*
X136376666Y-103535000D02*
X136281428Y-103582619D01*
X136281428Y-103582619D02*
X136043333Y-103582619D01*
X136043333Y-103582619D02*
X135948095Y-103535000D01*
X135948095Y-103535000D02*
X135900476Y-103487380D01*
%TO.C,Q2*%
X165817857Y-94432738D02*
X165770238Y-94527976D01*
X165770238Y-94527976D02*
X165675000Y-94623214D01*
X165675000Y-94623214D02*
X165532142Y-94766071D01*
X165532142Y-94766071D02*
X165484523Y-94861309D01*
X165484523Y-94861309D02*
X165484523Y-94956547D01*
X165722619Y-94908928D02*
X165675000Y-95004166D01*
X165675000Y-95004166D02*
X165579761Y-95099404D01*
X165579761Y-95099404D02*
X165389285Y-95147023D01*
X165389285Y-95147023D02*
X165055952Y-95147023D01*
X165055952Y-95147023D02*
X164865476Y-95099404D01*
X164865476Y-95099404D02*
X164770238Y-95004166D01*
X164770238Y-95004166D02*
X164722619Y-94908928D01*
X164722619Y-94908928D02*
X164722619Y-94718452D01*
X164722619Y-94718452D02*
X164770238Y-94623214D01*
X164770238Y-94623214D02*
X164865476Y-94527976D01*
X164865476Y-94527976D02*
X165055952Y-94480357D01*
X165055952Y-94480357D02*
X165389285Y-94480357D01*
X165389285Y-94480357D02*
X165579761Y-94527976D01*
X165579761Y-94527976D02*
X165675000Y-94623214D01*
X165675000Y-94623214D02*
X165722619Y-94718452D01*
X165722619Y-94718452D02*
X165722619Y-94908928D01*
X164817857Y-94099404D02*
X164770238Y-94051785D01*
X164770238Y-94051785D02*
X164722619Y-93956547D01*
X164722619Y-93956547D02*
X164722619Y-93718452D01*
X164722619Y-93718452D02*
X164770238Y-93623214D01*
X164770238Y-93623214D02*
X164817857Y-93575595D01*
X164817857Y-93575595D02*
X164913095Y-93527976D01*
X164913095Y-93527976D02*
X165008333Y-93527976D01*
X165008333Y-93527976D02*
X165151190Y-93575595D01*
X165151190Y-93575595D02*
X165722619Y-94147023D01*
X165722619Y-94147023D02*
X165722619Y-93527976D01*
%TO.C,R17*%
X134772619Y-94242857D02*
X134296428Y-94576190D01*
X134772619Y-94814285D02*
X133772619Y-94814285D01*
X133772619Y-94814285D02*
X133772619Y-94433333D01*
X133772619Y-94433333D02*
X133820238Y-94338095D01*
X133820238Y-94338095D02*
X133867857Y-94290476D01*
X133867857Y-94290476D02*
X133963095Y-94242857D01*
X133963095Y-94242857D02*
X134105952Y-94242857D01*
X134105952Y-94242857D02*
X134201190Y-94290476D01*
X134201190Y-94290476D02*
X134248809Y-94338095D01*
X134248809Y-94338095D02*
X134296428Y-94433333D01*
X134296428Y-94433333D02*
X134296428Y-94814285D01*
X134772619Y-93290476D02*
X134772619Y-93861904D01*
X134772619Y-93576190D02*
X133772619Y-93576190D01*
X133772619Y-93576190D02*
X133915476Y-93671428D01*
X133915476Y-93671428D02*
X134010714Y-93766666D01*
X134010714Y-93766666D02*
X134058333Y-93861904D01*
X133772619Y-92957142D02*
X133772619Y-92290476D01*
X133772619Y-92290476D02*
X134772619Y-92719047D01*
%TO.C,D2*%
X161171905Y-97362619D02*
X161171905Y-96362619D01*
X161171905Y-96362619D02*
X161410000Y-96362619D01*
X161410000Y-96362619D02*
X161552857Y-96410238D01*
X161552857Y-96410238D02*
X161648095Y-96505476D01*
X161648095Y-96505476D02*
X161695714Y-96600714D01*
X161695714Y-96600714D02*
X161743333Y-96791190D01*
X161743333Y-96791190D02*
X161743333Y-96934047D01*
X161743333Y-96934047D02*
X161695714Y-97124523D01*
X161695714Y-97124523D02*
X161648095Y-97219761D01*
X161648095Y-97219761D02*
X161552857Y-97315000D01*
X161552857Y-97315000D02*
X161410000Y-97362619D01*
X161410000Y-97362619D02*
X161171905Y-97362619D01*
X162124286Y-96457857D02*
X162171905Y-96410238D01*
X162171905Y-96410238D02*
X162267143Y-96362619D01*
X162267143Y-96362619D02*
X162505238Y-96362619D01*
X162505238Y-96362619D02*
X162600476Y-96410238D01*
X162600476Y-96410238D02*
X162648095Y-96457857D01*
X162648095Y-96457857D02*
X162695714Y-96553095D01*
X162695714Y-96553095D02*
X162695714Y-96648333D01*
X162695714Y-96648333D02*
X162648095Y-96791190D01*
X162648095Y-96791190D02*
X162076667Y-97362619D01*
X162076667Y-97362619D02*
X162695714Y-97362619D01*
%TO.C,R15*%
X116467142Y-106962619D02*
X116133809Y-106486428D01*
X115895714Y-106962619D02*
X115895714Y-105962619D01*
X115895714Y-105962619D02*
X116276666Y-105962619D01*
X116276666Y-105962619D02*
X116371904Y-106010238D01*
X116371904Y-106010238D02*
X116419523Y-106057857D01*
X116419523Y-106057857D02*
X116467142Y-106153095D01*
X116467142Y-106153095D02*
X116467142Y-106295952D01*
X116467142Y-106295952D02*
X116419523Y-106391190D01*
X116419523Y-106391190D02*
X116371904Y-106438809D01*
X116371904Y-106438809D02*
X116276666Y-106486428D01*
X116276666Y-106486428D02*
X115895714Y-106486428D01*
X117419523Y-106962619D02*
X116848095Y-106962619D01*
X117133809Y-106962619D02*
X117133809Y-105962619D01*
X117133809Y-105962619D02*
X117038571Y-106105476D01*
X117038571Y-106105476D02*
X116943333Y-106200714D01*
X116943333Y-106200714D02*
X116848095Y-106248333D01*
X118324285Y-105962619D02*
X117848095Y-105962619D01*
X117848095Y-105962619D02*
X117800476Y-106438809D01*
X117800476Y-106438809D02*
X117848095Y-106391190D01*
X117848095Y-106391190D02*
X117943333Y-106343571D01*
X117943333Y-106343571D02*
X118181428Y-106343571D01*
X118181428Y-106343571D02*
X118276666Y-106391190D01*
X118276666Y-106391190D02*
X118324285Y-106438809D01*
X118324285Y-106438809D02*
X118371904Y-106534047D01*
X118371904Y-106534047D02*
X118371904Y-106772142D01*
X118371904Y-106772142D02*
X118324285Y-106867380D01*
X118324285Y-106867380D02*
X118276666Y-106915000D01*
X118276666Y-106915000D02*
X118181428Y-106962619D01*
X118181428Y-106962619D02*
X117943333Y-106962619D01*
X117943333Y-106962619D02*
X117848095Y-106915000D01*
X117848095Y-106915000D02*
X117800476Y-106867380D01*
%TO.C,R4*%
X148472619Y-103666666D02*
X147996428Y-103999999D01*
X148472619Y-104238094D02*
X147472619Y-104238094D01*
X147472619Y-104238094D02*
X147472619Y-103857142D01*
X147472619Y-103857142D02*
X147520238Y-103761904D01*
X147520238Y-103761904D02*
X147567857Y-103714285D01*
X147567857Y-103714285D02*
X147663095Y-103666666D01*
X147663095Y-103666666D02*
X147805952Y-103666666D01*
X147805952Y-103666666D02*
X147901190Y-103714285D01*
X147901190Y-103714285D02*
X147948809Y-103761904D01*
X147948809Y-103761904D02*
X147996428Y-103857142D01*
X147996428Y-103857142D02*
X147996428Y-104238094D01*
X147805952Y-102809523D02*
X148472619Y-102809523D01*
X147425000Y-103047618D02*
X148139285Y-103285713D01*
X148139285Y-103285713D02*
X148139285Y-102666666D01*
%TO.C,D7*%
X118702619Y-97138094D02*
X117702619Y-97138094D01*
X117702619Y-97138094D02*
X117702619Y-96899999D01*
X117702619Y-96899999D02*
X117750238Y-96757142D01*
X117750238Y-96757142D02*
X117845476Y-96661904D01*
X117845476Y-96661904D02*
X117940714Y-96614285D01*
X117940714Y-96614285D02*
X118131190Y-96566666D01*
X118131190Y-96566666D02*
X118274047Y-96566666D01*
X118274047Y-96566666D02*
X118464523Y-96614285D01*
X118464523Y-96614285D02*
X118559761Y-96661904D01*
X118559761Y-96661904D02*
X118655000Y-96757142D01*
X118655000Y-96757142D02*
X118702619Y-96899999D01*
X118702619Y-96899999D02*
X118702619Y-97138094D01*
X117702619Y-96233332D02*
X117702619Y-95566666D01*
X117702619Y-95566666D02*
X118702619Y-95995237D01*
X119072619Y-101741904D02*
X118072619Y-101741904D01*
X119072619Y-101170476D02*
X118501190Y-101599047D01*
X118072619Y-101170476D02*
X118644047Y-101741904D01*
%TO.C,G\u002A\u002A\u002A*%
G36*
X146996649Y-65975475D02*
G01*
X147257741Y-66125185D01*
X147262483Y-66646574D01*
X147267225Y-67167962D01*
X147841769Y-67501096D01*
X147970048Y-67575394D01*
X148089425Y-67644383D01*
X148196555Y-67706139D01*
X148288092Y-67758742D01*
X148360688Y-67800268D01*
X148410999Y-67828795D01*
X148435677Y-67842401D01*
X148437257Y-67843169D01*
X148458514Y-67838039D01*
X148503831Y-67818116D01*
X148567758Y-67786091D01*
X148644842Y-67744651D01*
X148700612Y-67713258D01*
X148782487Y-67666641D01*
X148853591Y-67626687D01*
X148908772Y-67596249D01*
X148942879Y-67578177D01*
X148951393Y-67574409D01*
X148967093Y-67582770D01*
X149010132Y-67606950D01*
X149078156Y-67645591D01*
X149168814Y-67697338D01*
X149279752Y-67760834D01*
X149408617Y-67834723D01*
X149553057Y-67917647D01*
X149710718Y-68008251D01*
X149879248Y-68105178D01*
X150056293Y-68207072D01*
X150239502Y-68312575D01*
X150426520Y-68420332D01*
X150614996Y-68528987D01*
X150802576Y-68637182D01*
X150986907Y-68743561D01*
X151165637Y-68846767D01*
X151336412Y-68945445D01*
X151496880Y-69038238D01*
X151644689Y-69123788D01*
X151777484Y-69200741D01*
X151892913Y-69267739D01*
X151988624Y-69323425D01*
X152062263Y-69366444D01*
X152111477Y-69395439D01*
X152133915Y-69409053D01*
X152134988Y-69409817D01*
X152126639Y-69422622D01*
X152093487Y-69448268D01*
X152040785Y-69483064D01*
X151973783Y-69523320D01*
X151972058Y-69524314D01*
X151898878Y-69566473D01*
X151804618Y-69620831D01*
X151697893Y-69682416D01*
X151587318Y-69746258D01*
X151492788Y-69800866D01*
X151400223Y-69853792D01*
X151317070Y-69900269D01*
X151248117Y-69937708D01*
X151198156Y-69963517D01*
X151171976Y-69975105D01*
X151169938Y-69975489D01*
X151152801Y-69967071D01*
X151107748Y-69942491D01*
X151036553Y-69902764D01*
X150940992Y-69848902D01*
X150822839Y-69781920D01*
X150683871Y-69702830D01*
X150525862Y-69612646D01*
X150350586Y-69512381D01*
X150159821Y-69403049D01*
X149955339Y-69285663D01*
X149738918Y-69161236D01*
X149512331Y-69030782D01*
X149277354Y-68895314D01*
X149233976Y-68870287D01*
X148997412Y-68733827D01*
X148768778Y-68602032D01*
X148549860Y-68475928D01*
X148342449Y-68356542D01*
X148148333Y-68244900D01*
X147969301Y-68142029D01*
X147807142Y-68048956D01*
X147663643Y-67966707D01*
X147540595Y-67896308D01*
X147439785Y-67838787D01*
X147363003Y-67795170D01*
X147312038Y-67766482D01*
X147288677Y-67753752D01*
X147287574Y-67753247D01*
X147279043Y-67751416D01*
X147272287Y-67755392D01*
X147267145Y-67768564D01*
X147263457Y-67794319D01*
X147261063Y-67836047D01*
X147259802Y-67897134D01*
X147259514Y-67980970D01*
X147260039Y-68090943D01*
X147261216Y-68230440D01*
X147261848Y-68296768D01*
X147267225Y-68852126D01*
X147312157Y-68947938D01*
X147347802Y-69012226D01*
X147390643Y-69073522D01*
X147416344Y-69103005D01*
X147437703Y-69118235D01*
X147486157Y-69149030D01*
X147559070Y-69193850D01*
X147653804Y-69251155D01*
X147767723Y-69319404D01*
X147898191Y-69397056D01*
X148042572Y-69482570D01*
X148198228Y-69574406D01*
X148362524Y-69671023D01*
X148532822Y-69770881D01*
X148706487Y-69872438D01*
X148880882Y-69974155D01*
X149053370Y-70074491D01*
X149221316Y-70171904D01*
X149382082Y-70264855D01*
X149533032Y-70351802D01*
X149671529Y-70431206D01*
X149794938Y-70501525D01*
X149900621Y-70561218D01*
X149985942Y-70608746D01*
X150048265Y-70642567D01*
X150072228Y-70654991D01*
X150184046Y-70694075D01*
X150304741Y-70707026D01*
X150420839Y-70692427D01*
X150422931Y-70691869D01*
X150457874Y-70677849D01*
X150518896Y-70648226D01*
X150602551Y-70604854D01*
X150705391Y-70549586D01*
X150823969Y-70484276D01*
X150954838Y-70410777D01*
X151094550Y-70330943D01*
X151100379Y-70327584D01*
X151262578Y-70234064D01*
X151443456Y-70129771D01*
X151634232Y-70019769D01*
X151826124Y-69909119D01*
X152010353Y-69802885D01*
X152178137Y-69706131D01*
X152254762Y-69661944D01*
X152817450Y-69337450D01*
X153082277Y-69489202D01*
X153167399Y-69538461D01*
X153241083Y-69582020D01*
X153298597Y-69617009D01*
X153335215Y-69640556D01*
X153346398Y-69649578D01*
X153331872Y-69659705D01*
X153290702Y-69685008D01*
X153226022Y-69723644D01*
X153140968Y-69773768D01*
X153038675Y-69833536D01*
X152922278Y-69901105D01*
X152794912Y-69974629D01*
X152741840Y-70005154D01*
X152592668Y-70090914D01*
X152420838Y-70189784D01*
X152233391Y-70297711D01*
X152037364Y-70410638D01*
X151839798Y-70524510D01*
X151647731Y-70635271D01*
X151468202Y-70738867D01*
X151409089Y-70772995D01*
X151261314Y-70857966D01*
X151119707Y-70938704D01*
X150987606Y-71013354D01*
X150868348Y-71080061D01*
X150765270Y-71136971D01*
X150681709Y-71182227D01*
X150621001Y-71213976D01*
X150586485Y-71230362D01*
X150585861Y-71230608D01*
X150478794Y-71259937D01*
X150354200Y-71274636D01*
X150225229Y-71274462D01*
X150105036Y-71259174D01*
X150037043Y-71240734D01*
X150005402Y-71226269D01*
X149946193Y-71195719D01*
X149861494Y-71150249D01*
X149753385Y-71091021D01*
X149623947Y-71019202D01*
X149475258Y-70935956D01*
X149309398Y-70842446D01*
X149128447Y-70739837D01*
X148934484Y-70629294D01*
X148729589Y-70511980D01*
X148515841Y-70389061D01*
X148512257Y-70386996D01*
X148261872Y-70242628D01*
X148039446Y-70114150D01*
X147843187Y-70000377D01*
X147671304Y-69900125D01*
X147522006Y-69812208D01*
X147393502Y-69735443D01*
X147284000Y-69668645D01*
X147191711Y-69610628D01*
X147114841Y-69560208D01*
X147051601Y-69516202D01*
X147000199Y-69477423D01*
X146958844Y-69442687D01*
X146925746Y-69410811D01*
X146899111Y-69380608D01*
X146877151Y-69350895D01*
X146858073Y-69320487D01*
X146840087Y-69288198D01*
X146834197Y-69277139D01*
X146810128Y-69231092D01*
X146789962Y-69189387D01*
X146773352Y-69148581D01*
X146759953Y-69105230D01*
X146749422Y-69055892D01*
X146741412Y-68997123D01*
X146735578Y-68925482D01*
X146731576Y-68837524D01*
X146729061Y-68729807D01*
X146727687Y-68598888D01*
X146727109Y-68441324D01*
X146726984Y-68253672D01*
X146726982Y-68207235D01*
X146726982Y-67422790D01*
X146287866Y-67169511D01*
X146176472Y-67104779D01*
X146074991Y-67044886D01*
X145987180Y-66992123D01*
X145916796Y-66948780D01*
X145867596Y-66917150D01*
X145843339Y-66899523D01*
X145841497Y-66897332D01*
X145839288Y-66874387D01*
X145837966Y-66823539D01*
X145837588Y-66751178D01*
X145838210Y-66663691D01*
X145838986Y-66612146D01*
X145843728Y-66345859D01*
X146281067Y-66599157D01*
X146718407Y-66852455D01*
X146726982Y-66339110D01*
X146735557Y-65825765D01*
X146996649Y-65975475D01*
G37*
G36*
X147480592Y-63525094D02*
G01*
X147576375Y-63552201D01*
X147623393Y-63571359D01*
X147692353Y-63603829D01*
X147777430Y-63646449D01*
X147872803Y-63696062D01*
X147972650Y-63749508D01*
X148071147Y-63803627D01*
X148162471Y-63855259D01*
X148240801Y-63901246D01*
X148300314Y-63938427D01*
X148335187Y-63963643D01*
X148336062Y-63964427D01*
X148339466Y-63975669D01*
X148326960Y-63992418D01*
X148295221Y-64017160D01*
X148240929Y-64052380D01*
X148160760Y-64100566D01*
X148130255Y-64118455D01*
X148050048Y-64164629D01*
X147979557Y-64203946D01*
X147924379Y-64233381D01*
X147890112Y-64249910D01*
X147882337Y-64252404D01*
X147860934Y-64244388D01*
X147816216Y-64222099D01*
X147754360Y-64188781D01*
X147681540Y-64147677D01*
X147667955Y-64139824D01*
X147556814Y-64078150D01*
X147465273Y-64034868D01*
X147385625Y-64007614D01*
X147310163Y-63994021D01*
X147231180Y-63991726D01*
X147192000Y-63993780D01*
X147057895Y-64019152D01*
X146939012Y-64072457D01*
X146838023Y-64149705D01*
X146757598Y-64246906D01*
X146700409Y-64360071D01*
X146669126Y-64485211D01*
X146666421Y-64618336D01*
X146690835Y-64742360D01*
X146697280Y-64765647D01*
X146702394Y-64786737D01*
X146707275Y-64806316D01*
X146713024Y-64825074D01*
X146720738Y-64843696D01*
X146731517Y-64862871D01*
X146746459Y-64883286D01*
X146766663Y-64905629D01*
X146793227Y-64930587D01*
X146827252Y-64958848D01*
X146869835Y-64991100D01*
X146922075Y-65028029D01*
X146985072Y-65070323D01*
X147059923Y-65118670D01*
X147147728Y-65173758D01*
X147249586Y-65236273D01*
X147366596Y-65306904D01*
X147499855Y-65386338D01*
X147650464Y-65475262D01*
X147819520Y-65574365D01*
X148008124Y-65684333D01*
X148217373Y-65805853D01*
X148448366Y-65939615D01*
X148702202Y-66086304D01*
X148979981Y-66246610D01*
X149282800Y-66421218D01*
X149611759Y-66610817D01*
X149967957Y-66816094D01*
X150352491Y-67037737D01*
X150440081Y-67088233D01*
X153973100Y-69125110D01*
X154111227Y-69263027D01*
X154190436Y-69346885D01*
X154249287Y-69421691D01*
X154295642Y-69497897D01*
X154311701Y-69529574D01*
X154379916Y-69707415D01*
X154416408Y-69891389D01*
X154420846Y-70076871D01*
X154392901Y-70259240D01*
X154369523Y-70339503D01*
X154322948Y-70461308D01*
X154269746Y-70563219D01*
X154202473Y-70657144D01*
X154113681Y-70754989D01*
X154102809Y-70765972D01*
X153958281Y-70889057D01*
X153799937Y-70981263D01*
X153624995Y-71044189D01*
X153613622Y-71047142D01*
X153518509Y-71063432D01*
X153404231Y-71071073D01*
X153283529Y-71070211D01*
X153169140Y-71060990D01*
X153073805Y-71043557D01*
X153064119Y-71040882D01*
X153001440Y-71021198D01*
X152946250Y-71001254D01*
X152918339Y-70989134D01*
X152874021Y-70965517D01*
X152811085Y-70930730D01*
X152734544Y-70887670D01*
X152649410Y-70839232D01*
X152560697Y-70788312D01*
X152473416Y-70737809D01*
X152392579Y-70690617D01*
X152323199Y-70649634D01*
X152270289Y-70617756D01*
X152238860Y-70597879D01*
X152232316Y-70592707D01*
X152246332Y-70581113D01*
X152284270Y-70556592D01*
X152339964Y-70522690D01*
X152407248Y-70482951D01*
X152479958Y-70440922D01*
X152551928Y-70400148D01*
X152616991Y-70364174D01*
X152668984Y-70336546D01*
X152701740Y-70320808D01*
X152709165Y-70318501D01*
X152730932Y-70326781D01*
X152774312Y-70348948D01*
X152831656Y-70380987D01*
X152861183Y-70398270D01*
X152977315Y-70465299D01*
X153071664Y-70514691D01*
X153150313Y-70548805D01*
X153219348Y-70570002D01*
X153284854Y-70580642D01*
X153337870Y-70583134D01*
X153455221Y-70576544D01*
X153554008Y-70552747D01*
X153647160Y-70508123D01*
X153680205Y-70487327D01*
X153785692Y-70398349D01*
X153862682Y-70290825D01*
X153910339Y-70166492D01*
X153927825Y-70027089D01*
X153926676Y-69975283D01*
X153903894Y-69832656D01*
X153853061Y-69709558D01*
X153773949Y-69605460D01*
X153763838Y-69595461D01*
X153737722Y-69576012D01*
X153684319Y-69541083D01*
X153606142Y-69492182D01*
X153505703Y-69430816D01*
X153385513Y-69358493D01*
X153248084Y-69276721D01*
X153095930Y-69187009D01*
X152931561Y-69090863D01*
X152757491Y-68989793D01*
X152686807Y-68948957D01*
X152162515Y-68646472D01*
X151667220Y-68360678D01*
X151200191Y-68091151D01*
X150760699Y-67837468D01*
X150348014Y-67599206D01*
X149961405Y-67375940D01*
X149600143Y-67167249D01*
X149263497Y-66972707D01*
X148950738Y-66791892D01*
X148661135Y-66624381D01*
X148393959Y-66469750D01*
X148148479Y-66327575D01*
X147923966Y-66197433D01*
X147719689Y-66078901D01*
X147534918Y-65971555D01*
X147368924Y-65874972D01*
X147220976Y-65788729D01*
X147090344Y-65712401D01*
X146976299Y-65645566D01*
X146878110Y-65587801D01*
X146795047Y-65538681D01*
X146726381Y-65497783D01*
X146671381Y-65464685D01*
X146629316Y-65438962D01*
X146599459Y-65420191D01*
X146581077Y-65407948D01*
X146578422Y-65406031D01*
X146447852Y-65288553D01*
X146340016Y-65148095D01*
X146257065Y-64989115D01*
X146201150Y-64816073D01*
X146174424Y-64633428D01*
X146172364Y-64564483D01*
X146188230Y-64375412D01*
X146235583Y-64198811D01*
X146314992Y-64033295D01*
X146427025Y-63877477D01*
X146476783Y-63822085D01*
X146614481Y-63701121D01*
X146770037Y-63607267D01*
X146938940Y-63541629D01*
X147116675Y-63505316D01*
X147298730Y-63499435D01*
X147480592Y-63525094D01*
G37*
G36*
X150493119Y-63315031D02*
G01*
X150620162Y-63357452D01*
X150645982Y-63370772D01*
X150699310Y-63399996D01*
X150777952Y-63443875D01*
X150879712Y-63501162D01*
X151002394Y-63570607D01*
X151143802Y-63650964D01*
X151301742Y-63740982D01*
X151474016Y-63839416D01*
X151658430Y-63945015D01*
X151852788Y-64056533D01*
X152054894Y-64172720D01*
X152103661Y-64200788D01*
X152353031Y-64344367D01*
X152574482Y-64472039D01*
X152769812Y-64585028D01*
X152940815Y-64684564D01*
X153089289Y-64771871D01*
X153217029Y-64848176D01*
X153325833Y-64914707D01*
X153417497Y-64972689D01*
X153493816Y-65023349D01*
X153556588Y-65067914D01*
X153607608Y-65107610D01*
X153648674Y-65143663D01*
X153681581Y-65177301D01*
X153708126Y-65209750D01*
X153730105Y-65242236D01*
X153749315Y-65275987D01*
X153767552Y-65312227D01*
X153785004Y-65348800D01*
X153805864Y-65395483D01*
X153823408Y-65442539D01*
X153837919Y-65493321D01*
X153849678Y-65551181D01*
X153858968Y-65619473D01*
X153866070Y-65701547D01*
X153871266Y-65800759D01*
X153874838Y-65920459D01*
X153877069Y-66064002D01*
X153878240Y-66234739D01*
X153878633Y-66436023D01*
X153878641Y-66462106D01*
X153878771Y-67159189D01*
X154320399Y-67413963D01*
X154762026Y-67668737D01*
X154766748Y-67949435D01*
X154768185Y-68053944D01*
X154768186Y-68128690D01*
X154766386Y-68178197D01*
X154762419Y-68206986D01*
X154755920Y-68219581D01*
X154746524Y-68220504D01*
X154744908Y-68219941D01*
X154723474Y-68208930D01*
X154676521Y-68183058D01*
X154608199Y-68144670D01*
X154522662Y-68096114D01*
X154424061Y-68039735D01*
X154316548Y-67977880D01*
X154315178Y-67977089D01*
X154207667Y-67915221D01*
X154109097Y-67858829D01*
X154023602Y-67810252D01*
X153955318Y-67771829D01*
X153908379Y-67745900D01*
X153886919Y-67734803D01*
X153886816Y-67734762D01*
X153879531Y-67735683D01*
X153873771Y-67746923D01*
X153869364Y-67771873D01*
X153866138Y-67813923D01*
X153863923Y-67876463D01*
X153862546Y-67962883D01*
X153861836Y-68076573D01*
X153861622Y-68220923D01*
X153861621Y-68232871D01*
X153861204Y-68360828D01*
X153860026Y-68476899D01*
X153858193Y-68576871D01*
X153855812Y-68656536D01*
X153852989Y-68711682D01*
X153849833Y-68738100D01*
X153848758Y-68739797D01*
X153830381Y-68731293D01*
X153787543Y-68708264D01*
X153725363Y-68673558D01*
X153648956Y-68630025D01*
X153582924Y-68591857D01*
X153329953Y-68444768D01*
X153329953Y-67926293D01*
X153329953Y-67407819D01*
X152730793Y-67062480D01*
X152131633Y-66717141D01*
X151894702Y-66854155D01*
X151812936Y-66900775D01*
X151740903Y-66940597D01*
X151684092Y-66970681D01*
X151647998Y-66988090D01*
X151638499Y-66991230D01*
X151621765Y-66982871D01*
X151577709Y-66958687D01*
X151508692Y-66920037D01*
X151417077Y-66868280D01*
X151305226Y-66804776D01*
X151175504Y-66730884D01*
X151030271Y-66647963D01*
X150871891Y-66557373D01*
X150702727Y-66460473D01*
X150525140Y-66358622D01*
X150341495Y-66253180D01*
X150154153Y-66145506D01*
X149965477Y-66036959D01*
X149777830Y-65928899D01*
X149593575Y-65822685D01*
X149415074Y-65719676D01*
X149244690Y-65621232D01*
X149084785Y-65528712D01*
X148937723Y-65443476D01*
X148805865Y-65366882D01*
X148691575Y-65300290D01*
X148597216Y-65245059D01*
X148525149Y-65202549D01*
X148477738Y-65174119D01*
X148457346Y-65161129D01*
X148456880Y-65160728D01*
X148468536Y-65150095D01*
X148505732Y-65124906D01*
X148564248Y-65087663D01*
X148639867Y-65040871D01*
X148728370Y-64987032D01*
X148825539Y-64928651D01*
X148927155Y-64868230D01*
X149029001Y-64808275D01*
X149126858Y-64751287D01*
X149216508Y-64699772D01*
X149293731Y-64656232D01*
X149354312Y-64623171D01*
X149394029Y-64603093D01*
X149402495Y-64599492D01*
X149420745Y-64606640D01*
X149467349Y-64630345D01*
X149541032Y-64669886D01*
X149640516Y-64724542D01*
X149764525Y-64793592D01*
X149911782Y-64876314D01*
X150081010Y-64971989D01*
X150270932Y-65079895D01*
X150480272Y-65199310D01*
X150707753Y-65329515D01*
X150952098Y-65469787D01*
X151212031Y-65619407D01*
X151374811Y-65713290D01*
X153321378Y-66836769D01*
X153325916Y-66300905D01*
X153327063Y-66132192D01*
X153326909Y-65993794D01*
X153324763Y-65881733D01*
X153319937Y-65792028D01*
X153311741Y-65720699D01*
X153299486Y-65663767D01*
X153282483Y-65617251D01*
X153260041Y-65577172D01*
X153231472Y-65539550D01*
X153196087Y-65500405D01*
X153185295Y-65489080D01*
X153166195Y-65470793D01*
X153140794Y-65449775D01*
X153107191Y-65424874D01*
X153063485Y-65394939D01*
X153007776Y-65358819D01*
X152938162Y-65315362D01*
X152852745Y-65263417D01*
X152749623Y-65201833D01*
X152626895Y-65129458D01*
X152482660Y-65045140D01*
X152315019Y-64947729D01*
X152122071Y-64836073D01*
X151901915Y-64709021D01*
X151813618Y-64658131D01*
X151619270Y-64546323D01*
X151432298Y-64439094D01*
X151254990Y-64337737D01*
X151089637Y-64243546D01*
X150938527Y-64157814D01*
X150803949Y-64081834D01*
X150688193Y-64016900D01*
X150593548Y-63964305D01*
X150522302Y-63925342D01*
X150476746Y-63901304D01*
X150460854Y-63893863D01*
X150358073Y-63872307D01*
X150245505Y-63872642D01*
X150138457Y-63894164D01*
X150095961Y-63910667D01*
X150060451Y-63928837D01*
X149999454Y-63961882D01*
X149917150Y-64007461D01*
X149817719Y-64063232D01*
X149705342Y-64126856D01*
X149584199Y-64195989D01*
X149495691Y-64246829D01*
X149354617Y-64328084D01*
X149191796Y-64421863D01*
X149015206Y-64523570D01*
X148832827Y-64628610D01*
X148652636Y-64732389D01*
X148482610Y-64830311D01*
X148382527Y-64887950D01*
X148251600Y-64962977D01*
X148129669Y-65032126D01*
X148019980Y-65093611D01*
X147925776Y-65145646D01*
X147850301Y-65186445D01*
X147796800Y-65214222D01*
X147768516Y-65227191D01*
X147765107Y-65227883D01*
X147743217Y-65217323D01*
X147699339Y-65193439D01*
X147639207Y-65159578D01*
X147568557Y-65119088D01*
X147493124Y-65075317D01*
X147418643Y-65031611D01*
X147350850Y-64991317D01*
X147295479Y-64957784D01*
X147258266Y-64934358D01*
X147244946Y-64924387D01*
X147244985Y-64924321D01*
X147260423Y-64915020D01*
X147302556Y-64890324D01*
X147368371Y-64851983D01*
X147454855Y-64801746D01*
X147558993Y-64741362D01*
X147677772Y-64672580D01*
X147808179Y-64597150D01*
X147910372Y-64538094D01*
X148081903Y-64438991D01*
X148274594Y-64327642D01*
X148479913Y-64208977D01*
X148689330Y-64087929D01*
X148894314Y-63969427D01*
X149086333Y-63858403D01*
X149239541Y-63769803D01*
X149381746Y-63688050D01*
X149518352Y-63610453D01*
X149645764Y-63538988D01*
X149760386Y-63475630D01*
X149858624Y-63422355D01*
X149936883Y-63381139D01*
X149991568Y-63353957D01*
X150013329Y-63344543D01*
X150172384Y-63303348D01*
X150334371Y-63293554D01*
X150493119Y-63315031D01*
G37*
%TO.C,SW1*%
X152250000Y-151175000D02*
X152250000Y-133875000D01*
X152250000Y-151175000D02*
X134250000Y-151175000D01*
X134250000Y-151175000D02*
X134250000Y-133875000D01*
X134250000Y-133875000D02*
X152150000Y-133875000D01*
D11*
%TO.C,J3*%
X141960000Y-127085000D02*
X139040000Y-127085000D01*
X141960000Y-118185000D02*
X141960000Y-127085000D01*
X141960000Y-118145000D02*
X139040000Y-118145000D01*
X139040000Y-131835000D02*
X136410000Y-131835000D01*
X139040000Y-127085000D02*
X139040000Y-131835000D01*
X139040000Y-113395000D02*
X139040000Y-118145000D01*
X136410000Y-113395000D02*
X139040000Y-113395000D01*
X133610000Y-131835000D02*
X130010000Y-131835000D01*
X130010000Y-113395000D02*
X133610000Y-113395000D01*
X127310000Y-131835000D02*
X123710000Y-131835000D01*
X123710000Y-113395000D02*
X127310000Y-113395000D01*
X118190000Y-131835000D02*
X120910000Y-131835000D01*
X118190000Y-128435000D02*
X118190000Y-131835000D01*
X118190000Y-128435000D02*
X115190000Y-128435000D01*
X118190000Y-116795000D02*
X115190000Y-116795000D01*
X118190000Y-113395000D02*
X120910000Y-113395000D01*
X118190000Y-113395000D02*
X118190000Y-116795000D01*
X115190000Y-116795000D02*
X115190000Y-128435000D01*
%TO.C,J1*%
X133180000Y-53670000D02*
X134510000Y-53670000D01*
X133180000Y-55000000D02*
X133180000Y-53670000D01*
X133180000Y-56270000D02*
X133180000Y-58870000D01*
X133180000Y-56270000D02*
X135840000Y-56270000D01*
X133180000Y-58870000D02*
X135840000Y-58870000D01*
X135840000Y-56270000D02*
X135840000Y-58870000D01*
%TO.C,JOVGI1*%
X148030000Y-110020000D02*
X148030000Y-111350000D01*
X146700000Y-110020000D02*
X148030000Y-110020000D01*
X145430000Y-110020000D02*
X137750000Y-110020000D01*
X145430000Y-110020000D02*
X145430000Y-112680000D01*
X137750000Y-110020000D02*
X137750000Y-112680000D01*
X145430000Y-112680000D02*
X137750000Y-112680000D01*
%TO.C,JOVGI2*%
X148030000Y-104470000D02*
X148030000Y-105800000D01*
X146700000Y-104470000D02*
X148030000Y-104470000D01*
X145430000Y-104470000D02*
X137750000Y-104470000D01*
X145430000Y-104470000D02*
X145430000Y-107130000D01*
X137750000Y-104470000D02*
X137750000Y-107130000D01*
X145430000Y-107130000D02*
X137750000Y-107130000D01*
%TO.C,C2*%
X162000000Y-138000000D02*
X162000000Y-139200000D01*
X162650000Y-138600000D02*
X161350000Y-138600000D01*
X166050000Y-141450000D02*
X157950000Y-141450000D01*
X166050000Y-141490000D02*
X157950000Y-141490000D01*
X166050000Y-141530000D02*
X157950000Y-141530000D01*
X166049000Y-141570000D02*
X157951000Y-141570000D01*
X166047000Y-141610000D02*
X157953000Y-141610000D01*
X166046000Y-141650000D02*
X157954000Y-141650000D01*
X166043000Y-141690000D02*
X157957000Y-141690000D01*
X166041000Y-141730000D02*
X162980000Y-141730000D01*
X161020000Y-141730000D02*
X157959000Y-141730000D01*
X166038000Y-141770000D02*
X162980000Y-141770000D01*
X161020000Y-141770000D02*
X157962000Y-141770000D01*
X166035000Y-141810000D02*
X162980000Y-141810000D01*
X161020000Y-141810000D02*
X157965000Y-141810000D01*
X166031000Y-141850000D02*
X162980000Y-141850000D01*
X161020000Y-141850000D02*
X157969000Y-141850000D01*
X166027000Y-141890000D02*
X162980000Y-141890000D01*
X161020000Y-141890000D02*
X157973000Y-141890000D01*
X166022000Y-141930000D02*
X162980000Y-141930000D01*
X161020000Y-141930000D02*
X157978000Y-141930000D01*
X166017000Y-141970000D02*
X162980000Y-141970000D01*
X161020000Y-141970000D02*
X157983000Y-141970000D01*
X166012000Y-142010000D02*
X162980000Y-142010000D01*
X161020000Y-142010000D02*
X157988000Y-142010000D01*
X166006000Y-142050000D02*
X162980000Y-142050000D01*
X161020000Y-142050000D02*
X157994000Y-142050000D01*
X166000000Y-142090000D02*
X162980000Y-142090000D01*
X161020000Y-142090000D02*
X158000000Y-142090000D01*
X165994000Y-142130000D02*
X162980000Y-142130000D01*
X161020000Y-142130000D02*
X158006000Y-142130000D01*
X165987000Y-142171000D02*
X162980000Y-142171000D01*
X161020000Y-142171000D02*
X158013000Y-142171000D01*
X165979000Y-142211000D02*
X162980000Y-142211000D01*
X161020000Y-142211000D02*
X158021000Y-142211000D01*
X165971000Y-142251000D02*
X162980000Y-142251000D01*
X161020000Y-142251000D02*
X158029000Y-142251000D01*
X165963000Y-142291000D02*
X162980000Y-142291000D01*
X161020000Y-142291000D02*
X158037000Y-142291000D01*
X165955000Y-142331000D02*
X162980000Y-142331000D01*
X161020000Y-142331000D02*
X158045000Y-142331000D01*
X165946000Y-142371000D02*
X162980000Y-142371000D01*
X161020000Y-142371000D02*
X158054000Y-142371000D01*
X165936000Y-142411000D02*
X162980000Y-142411000D01*
X161020000Y-142411000D02*
X158064000Y-142411000D01*
X165926000Y-142451000D02*
X162980000Y-142451000D01*
X161020000Y-142451000D02*
X158074000Y-142451000D01*
X165916000Y-142491000D02*
X162980000Y-142491000D01*
X161020000Y-142491000D02*
X158084000Y-142491000D01*
X165905000Y-142531000D02*
X162980000Y-142531000D01*
X161020000Y-142531000D02*
X158095000Y-142531000D01*
X165894000Y-142571000D02*
X162980000Y-142571000D01*
X161020000Y-142571000D02*
X158106000Y-142571000D01*
X165883000Y-142611000D02*
X162980000Y-142611000D01*
X161020000Y-142611000D02*
X158117000Y-142611000D01*
X165870000Y-142651000D02*
X162980000Y-142651000D01*
X161020000Y-142651000D02*
X158130000Y-142651000D01*
X165858000Y-142691000D02*
X162980000Y-142691000D01*
X161020000Y-142691000D02*
X158142000Y-142691000D01*
X165845000Y-142731000D02*
X162980000Y-142731000D01*
X161020000Y-142731000D02*
X158155000Y-142731000D01*
X165832000Y-142771000D02*
X162980000Y-142771000D01*
X161020000Y-142771000D02*
X158168000Y-142771000D01*
X165818000Y-142811000D02*
X162980000Y-142811000D01*
X161020000Y-142811000D02*
X158182000Y-142811000D01*
X165803000Y-142851000D02*
X162980000Y-142851000D01*
X161020000Y-142851000D02*
X158197000Y-142851000D01*
X165789000Y-142891000D02*
X162980000Y-142891000D01*
X161020000Y-142891000D02*
X158211000Y-142891000D01*
X165773000Y-142931000D02*
X162980000Y-142931000D01*
X161020000Y-142931000D02*
X158227000Y-142931000D01*
X165758000Y-142971000D02*
X162980000Y-142971000D01*
X161020000Y-142971000D02*
X158242000Y-142971000D01*
X165741000Y-143011000D02*
X162980000Y-143011000D01*
X161020000Y-143011000D02*
X158259000Y-143011000D01*
X165725000Y-143051000D02*
X162980000Y-143051000D01*
X161020000Y-143051000D02*
X158275000Y-143051000D01*
X165707000Y-143091000D02*
X162980000Y-143091000D01*
X161020000Y-143091000D02*
X158293000Y-143091000D01*
X165690000Y-143131000D02*
X162980000Y-143131000D01*
X161020000Y-143131000D02*
X158310000Y-143131000D01*
X165671000Y-143171000D02*
X162980000Y-143171000D01*
X161020000Y-143171000D02*
X158329000Y-143171000D01*
X165652000Y-143211000D02*
X162980000Y-143211000D01*
X161020000Y-143211000D02*
X158348000Y-143211000D01*
X165633000Y-143251000D02*
X162980000Y-143251000D01*
X161020000Y-143251000D02*
X158367000Y-143251000D01*
X165613000Y-143291000D02*
X162980000Y-143291000D01*
X161020000Y-143291000D02*
X158387000Y-143291000D01*
X165593000Y-143331000D02*
X162980000Y-143331000D01*
X161020000Y-143331000D02*
X158407000Y-143331000D01*
X165572000Y-143371000D02*
X162980000Y-143371000D01*
X161020000Y-143371000D02*
X158428000Y-143371000D01*
X165550000Y-143411000D02*
X162980000Y-143411000D01*
X161020000Y-143411000D02*
X158450000Y-143411000D01*
X165528000Y-143451000D02*
X162980000Y-143451000D01*
X161020000Y-143451000D02*
X158472000Y-143451000D01*
X165505000Y-143491000D02*
X162980000Y-143491000D01*
X161020000Y-143491000D02*
X158495000Y-143491000D01*
X165482000Y-143531000D02*
X162980000Y-143531000D01*
X161020000Y-143531000D02*
X158518000Y-143531000D01*
X165458000Y-143571000D02*
X162980000Y-143571000D01*
X161020000Y-143571000D02*
X158542000Y-143571000D01*
X165434000Y-143611000D02*
X162980000Y-143611000D01*
X161020000Y-143611000D02*
X158566000Y-143611000D01*
X165408000Y-143651000D02*
X162980000Y-143651000D01*
X161020000Y-143651000D02*
X158592000Y-143651000D01*
X165383000Y-143691000D02*
X158617000Y-143691000D01*
X165356000Y-143731000D02*
X158644000Y-143731000D01*
X165329000Y-143771000D02*
X158671000Y-143771000D01*
X165301000Y-143811000D02*
X158699000Y-143811000D01*
X165272000Y-143851000D02*
X158728000Y-143851000D01*
X165243000Y-143891000D02*
X158757000Y-143891000D01*
X165213000Y-143931000D02*
X158787000Y-143931000D01*
X165182000Y-143971000D02*
X158818000Y-143971000D01*
X165150000Y-144011000D02*
X158850000Y-144011000D01*
X165118000Y-144051000D02*
X158882000Y-144051000D01*
X165084000Y-144091000D02*
X158916000Y-144091000D01*
X165050000Y-144131000D02*
X158950000Y-144131000D01*
X165015000Y-144171000D02*
X158985000Y-144171000D01*
X164979000Y-144211000D02*
X159021000Y-144211000D01*
X164942000Y-144251000D02*
X159058000Y-144251000D01*
X164904000Y-144291000D02*
X159096000Y-144291000D01*
X164865000Y-144331000D02*
X159135000Y-144331000D01*
X164824000Y-144371000D02*
X159176000Y-144371000D01*
X164783000Y-144411000D02*
X159217000Y-144411000D01*
X164740000Y-144451000D02*
X159260000Y-144451000D01*
X164697000Y-144491000D02*
X159303000Y-144491000D01*
X164652000Y-144531000D02*
X159348000Y-144531000D01*
X164605000Y-144571000D02*
X159395000Y-144571000D01*
X164557000Y-144611000D02*
X159443000Y-144611000D01*
X164508000Y-144651000D02*
X159492000Y-144651000D01*
X164457000Y-144691000D02*
X159543000Y-144691000D01*
X164404000Y-144731000D02*
X159596000Y-144731000D01*
X164349000Y-144771000D02*
X159651000Y-144771000D01*
X164293000Y-144811000D02*
X159707000Y-144811000D01*
X164234000Y-144851000D02*
X159766000Y-144851000D01*
X164173000Y-144891000D02*
X159827000Y-144891000D01*
X164109000Y-144931000D02*
X159891000Y-144931000D01*
X164043000Y-144971000D02*
X159957000Y-144971000D01*
X163974000Y-145011000D02*
X160026000Y-145011000D01*
X163902000Y-145051000D02*
X160098000Y-145051000D01*
X163826000Y-145091000D02*
X160174000Y-145091000D01*
X163745000Y-145131000D02*
X160255000Y-145131000D01*
X163660000Y-145171000D02*
X160340000Y-145171000D01*
X163570000Y-145211000D02*
X160430000Y-145211000D01*
X163473000Y-145251000D02*
X160527000Y-145251000D01*
X163369000Y-145291000D02*
X160631000Y-145291000D01*
X163254000Y-145331000D02*
X160746000Y-145331000D01*
X163127000Y-145371000D02*
X160873000Y-145371000D01*
X162983000Y-145411000D02*
X161017000Y-145411000D01*
X162814000Y-145451000D02*
X161186000Y-145451000D01*
X162598000Y-145491000D02*
X161402000Y-145491000D01*
X162246000Y-145531000D02*
X161754000Y-145531000D01*
X166090000Y-141450000D02*
G75*
G03*
X166090000Y-141450000I-4090000J0D01*
G01*
D10*
%TO.C,D1*%
X124000000Y-138770000D02*
X121000000Y-138770000D01*
X124024903Y-138754887D02*
G75*
G03*
X121000000Y-138769999I-1524903J2484887D01*
G01*
X125017936Y-136270000D02*
G75*
G03*
X125017936Y-136270000I-2517936J0D01*
G01*
%TO.C,R1*%
X156770000Y-136270000D02*
X156770000Y-141350000D01*
X154230000Y-136270000D02*
X156770000Y-136270000D01*
X156770000Y-141350000D02*
X154230000Y-141350000D01*
X154230000Y-141350000D02*
X154230000Y-136270000D01*
%TO.C,R2*%
X126490000Y-141330000D02*
X126490000Y-136250000D01*
X129030000Y-141330000D02*
X126490000Y-141330000D01*
X126490000Y-136250000D02*
X129030000Y-136250000D01*
X129030000Y-136250000D02*
X129030000Y-141330000D01*
%TO.C,R3*%
X132280000Y-136270000D02*
X132280000Y-141350000D01*
X129740000Y-136270000D02*
X132280000Y-136270000D01*
X132280000Y-141350000D02*
X129740000Y-141350000D01*
X129740000Y-141350000D02*
X129740000Y-136270000D01*
%TO.C,C1*%
X160050000Y-133250000D02*
X167050000Y-133250000D01*
X160050000Y-136750000D02*
X160050000Y-133250000D01*
X167050000Y-133250000D02*
X167050000Y-136750000D01*
X167050000Y-136750000D02*
X160050000Y-136750000D01*
D11*
%TO.C,J4*%
X145470000Y-115480000D02*
X145470000Y-116810000D01*
X144140000Y-115480000D02*
X145470000Y-115480000D01*
X142870000Y-115480000D02*
X140270000Y-115480000D01*
X142870000Y-115480000D02*
X142870000Y-118140000D01*
X140270000Y-115480000D02*
X140270000Y-118140000D01*
X142870000Y-118140000D02*
X140270000Y-118140000D01*
%TO.C,J2*%
X143625000Y-118145000D02*
X146545000Y-118145000D01*
X143625000Y-127045000D02*
X143625000Y-118145000D01*
X143625000Y-127085000D02*
X146545000Y-127085000D01*
X146545000Y-113395000D02*
X149175000Y-113395000D01*
X146545000Y-118145000D02*
X146545000Y-113395000D01*
X146545000Y-131835000D02*
X146545000Y-127085000D01*
X149175000Y-131835000D02*
X146545000Y-131835000D01*
X151975000Y-113395000D02*
X155575000Y-113395000D01*
X155575000Y-131835000D02*
X151975000Y-131835000D01*
X158275000Y-113395000D02*
X161875000Y-113395000D01*
X161875000Y-131835000D02*
X158275000Y-131835000D01*
X167395000Y-113395000D02*
X164675000Y-113395000D01*
X167395000Y-116795000D02*
X167395000Y-113395000D01*
X167395000Y-116795000D02*
X170395000Y-116795000D01*
X167395000Y-128435000D02*
X170395000Y-128435000D01*
X167395000Y-131835000D02*
X164675000Y-131835000D01*
X167395000Y-131835000D02*
X167395000Y-128435000D01*
X170395000Y-128435000D02*
X170395000Y-116795000D01*
%TO.C,R14*%
X143082936Y-98265000D02*
X143537064Y-98265000D01*
X143082936Y-99735000D02*
X143537064Y-99735000D01*
%TO.C,SW2*%
X138265000Y-84935000D02*
X138265000Y-70965000D01*
X147155000Y-84935000D02*
X138265000Y-84935000D01*
X142710000Y-81125000D02*
X139535000Y-79855000D01*
X139535000Y-79855000D02*
X139535000Y-76045000D01*
X145885000Y-79855000D02*
X142710000Y-81125000D01*
X139535000Y-76045000D02*
X142710000Y-74775000D01*
X145885000Y-76045000D02*
X145885000Y-79855000D01*
X142710000Y-74775000D02*
X145885000Y-76045000D01*
X138265000Y-70965000D02*
X147155000Y-70965000D01*
X147155000Y-70965000D02*
X147155000Y-84935000D01*
X146412654Y-77950000D02*
G75*
G03*
X146412654Y-77950000I-3702654J0D01*
G01*
%TO.C,D6*%
X149274000Y-93265000D02*
X149430000Y-93265000D01*
X151590000Y-93265000D02*
X151746000Y-93265000D01*
X149431392Y-90032666D02*
G75*
G03*
X149274485Y-93264999I1078608J-1672334D01*
G01*
X149430164Y-90663871D02*
G75*
G03*
X149430001Y-92745960I1079836J-1041129D01*
G01*
X151589999Y-92745960D02*
G75*
G03*
X151589836Y-90663871I-1079999J1040960D01*
G01*
X151745515Y-93264999D02*
G75*
G03*
X151588608Y-90032666I-1235515J1559999D01*
G01*
%TO.C,R19*%
X131537064Y-107635000D02*
X131082936Y-107635000D01*
X131537064Y-106165000D02*
X131082936Y-106165000D01*
%TO.C,D3*%
X156346000Y-90135000D02*
X156190000Y-90135000D01*
X154030000Y-90135000D02*
X153874000Y-90135000D01*
X156188608Y-93367334D02*
G75*
G03*
X156345515Y-90135001I-1078608J1672334D01*
G01*
X156189836Y-92736129D02*
G75*
G03*
X156189999Y-90654040I-1079836J1041129D01*
G01*
X154030001Y-90654040D02*
G75*
G03*
X154030164Y-92736129I1079999J-1040960D01*
G01*
X153874485Y-90135001D02*
G75*
G03*
X154031392Y-93367334I1235515J-1559999D01*
G01*
%TO.C,R12*%
X138545000Y-100772936D02*
X138545000Y-101227064D01*
X137075000Y-100772936D02*
X137075000Y-101227064D01*
%TO.C,C8*%
X136348748Y-96565000D02*
X136871252Y-96565000D01*
X136348748Y-98035000D02*
X136871252Y-98035000D01*
%TO.C,R22*%
X134982936Y-106165000D02*
X135437064Y-106165000D01*
X134982936Y-107635000D02*
X135437064Y-107635000D01*
%TO.C,U1*%
X146370000Y-93900000D02*
X146370000Y-90450000D01*
X146370000Y-93900000D02*
X146370000Y-95850000D01*
X141250000Y-93900000D02*
X141250000Y-91950000D01*
X141250000Y-93900000D02*
X141250000Y-95850000D01*
%TO.C,R20*%
X123745000Y-105272936D02*
X123745000Y-105727064D01*
X122275000Y-105272936D02*
X122275000Y-105727064D01*
%TO.C,D5*%
X143700000Y-87800000D02*
X143700000Y-89800000D01*
X143700000Y-87800000D02*
X147560000Y-87800000D01*
X143700000Y-89800000D02*
X147560000Y-89800000D01*
%TO.C,C4*%
X154771252Y-100635000D02*
X154248748Y-100635000D01*
X154771252Y-99165000D02*
X154248748Y-99165000D01*
%TO.C,D4*%
X148120000Y-87400000D02*
X148120000Y-85400000D01*
X148120000Y-87400000D02*
X144260000Y-87400000D01*
X148120000Y-85400000D02*
X144260000Y-85400000D01*
%TO.C,LOW1*%
X155630000Y-84245000D02*
X155630000Y-79525000D01*
X156820000Y-84245000D02*
X155640000Y-84245000D01*
X159720000Y-84245000D02*
X159190000Y-84245000D01*
X162170000Y-84245000D02*
X161340000Y-84245000D01*
X165380000Y-84245000D02*
X163890000Y-84245000D01*
X165380000Y-84245000D02*
X165380000Y-79525000D01*
X155640000Y-75715000D02*
X155640000Y-72655000D01*
X165380000Y-75715000D02*
X165380000Y-72655000D01*
X165380000Y-72655000D02*
X155640000Y-72655000D01*
%TO.C,TONE1*%
X120030000Y-66720000D02*
X120030000Y-62000000D01*
X121220000Y-66720000D02*
X120040000Y-66720000D01*
X124120000Y-66720000D02*
X123590000Y-66720000D01*
X126570000Y-66720000D02*
X125740000Y-66720000D01*
X129780000Y-66720000D02*
X128290000Y-66720000D01*
X129780000Y-66720000D02*
X129780000Y-62000000D01*
X120040000Y-58190000D02*
X120040000Y-55130000D01*
X129780000Y-58190000D02*
X129780000Y-55130000D01*
X129780000Y-55130000D02*
X120040000Y-55130000D01*
%TO.C,C13*%
X124995000Y-96712349D02*
X124995000Y-95912349D01*
X124595000Y-96312349D02*
X125395000Y-96312349D01*
X123230000Y-92302651D02*
X131390000Y-92302651D01*
X123230000Y-92262651D02*
X131390000Y-92262651D01*
X123230000Y-92222651D02*
X131390000Y-92222651D01*
X123231000Y-92182651D02*
X131389000Y-92182651D01*
X123233000Y-92142651D02*
X131387000Y-92142651D01*
X123234000Y-92102651D02*
X131386000Y-92102651D01*
X123236000Y-92062651D02*
X126270000Y-92062651D01*
X128350000Y-92062651D02*
X131384000Y-92062651D01*
X123239000Y-92022651D02*
X126270000Y-92022651D01*
X128350000Y-92022651D02*
X131381000Y-92022651D01*
X123242000Y-91982651D02*
X126270000Y-91982651D01*
X128350000Y-91982651D02*
X131378000Y-91982651D01*
X123245000Y-91942651D02*
X126270000Y-91942651D01*
X128350000Y-91942651D02*
X131375000Y-91942651D01*
X123249000Y-91902651D02*
X126270000Y-91902651D01*
X128350000Y-91902651D02*
X131371000Y-91902651D01*
X123253000Y-91862651D02*
X126270000Y-91862651D01*
X128350000Y-91862651D02*
X131367000Y-91862651D01*
X123258000Y-91822651D02*
X126270000Y-91822651D01*
X128350000Y-91822651D02*
X131362000Y-91822651D01*
X123262000Y-91782651D02*
X126270000Y-91782651D01*
X128350000Y-91782651D02*
X131358000Y-91782651D01*
X123268000Y-91742651D02*
X126270000Y-91742651D01*
X128350000Y-91742651D02*
X131352000Y-91742651D01*
X123273000Y-91702651D02*
X126270000Y-91702651D01*
X128350000Y-91702651D02*
X131347000Y-91702651D01*
X123280000Y-91662651D02*
X126270000Y-91662651D01*
X128350000Y-91662651D02*
X131340000Y-91662651D01*
X123286000Y-91622651D02*
X126270000Y-91622651D01*
X128350000Y-91622651D02*
X131334000Y-91622651D01*
X123293000Y-91581651D02*
X126270000Y-91581651D01*
X128350000Y-91581651D02*
X131327000Y-91581651D01*
X123300000Y-91541651D02*
X126270000Y-91541651D01*
X128350000Y-91541651D02*
X131320000Y-91541651D01*
X123308000Y-91501651D02*
X126270000Y-91501651D01*
X128350000Y-91501651D02*
X131312000Y-91501651D01*
X123316000Y-91461651D02*
X126270000Y-91461651D01*
X128350000Y-91461651D02*
X131304000Y-91461651D01*
X123325000Y-91421651D02*
X126270000Y-91421651D01*
X128350000Y-91421651D02*
X131295000Y-91421651D01*
X123334000Y-91381651D02*
X126270000Y-91381651D01*
X128350000Y-91381651D02*
X131286000Y-91381651D01*
X123343000Y-91341651D02*
X126270000Y-91341651D01*
X128350000Y-91341651D02*
X131277000Y-91341651D01*
X123353000Y-91301651D02*
X126270000Y-91301651D01*
X128350000Y-91301651D02*
X131267000Y-91301651D01*
X123363000Y-91261651D02*
X126270000Y-91261651D01*
X128350000Y-91261651D02*
X131257000Y-91261651D01*
X123374000Y-91221651D02*
X126270000Y-91221651D01*
X128350000Y-91221651D02*
X131246000Y-91221651D01*
X123385000Y-91181651D02*
X126270000Y-91181651D01*
X128350000Y-91181651D02*
X131235000Y-91181651D01*
X123396000Y-91141651D02*
X126270000Y-91141651D01*
X128350000Y-91141651D02*
X131224000Y-91141651D01*
X123408000Y-91101651D02*
X126270000Y-91101651D01*
X128350000Y-91101651D02*
X131212000Y-91101651D01*
X123421000Y-91061651D02*
X126270000Y-91061651D01*
X128350000Y-91061651D02*
X131199000Y-91061651D01*
X123433000Y-91021651D02*
X126270000Y-91021651D01*
X128350000Y-91021651D02*
X131187000Y-91021651D01*
X123447000Y-90981651D02*
X126270000Y-90981651D01*
X128350000Y-90981651D02*
X131173000Y-90981651D01*
X123460000Y-90941651D02*
X126270000Y-90941651D01*
X128350000Y-90941651D02*
X131160000Y-90941651D01*
X123475000Y-90901651D02*
X126270000Y-90901651D01*
X128350000Y-90901651D02*
X131145000Y-90901651D01*
X123489000Y-90861651D02*
X126270000Y-90861651D01*
X128350000Y-90861651D02*
X131131000Y-90861651D01*
X123505000Y-90821651D02*
X126270000Y-90821651D01*
X128350000Y-90821651D02*
X131115000Y-90821651D01*
X123520000Y-90781651D02*
X126270000Y-90781651D01*
X128350000Y-90781651D02*
X131100000Y-90781651D01*
X123536000Y-90741651D02*
X126270000Y-90741651D01*
X128350000Y-90741651D02*
X131084000Y-90741651D01*
X123553000Y-90701651D02*
X126270000Y-90701651D01*
X128350000Y-90701651D02*
X131067000Y-90701651D01*
X123570000Y-90661651D02*
X126270000Y-90661651D01*
X128350000Y-90661651D02*
X131050000Y-90661651D01*
X123588000Y-90621651D02*
X126270000Y-90621651D01*
X128350000Y-90621651D02*
X131032000Y-90621651D01*
X123606000Y-90581651D02*
X126270000Y-90581651D01*
X128350000Y-90581651D02*
X131014000Y-90581651D01*
X123624000Y-90541651D02*
X126270000Y-90541651D01*
X128350000Y-90541651D02*
X130996000Y-90541651D01*
X123644000Y-90501651D02*
X126270000Y-90501651D01*
X128350000Y-90501651D02*
X130976000Y-90501651D01*
X123663000Y-90461651D02*
X126270000Y-90461651D01*
X128350000Y-90461651D02*
X130957000Y-90461651D01*
X123683000Y-90421651D02*
X126270000Y-90421651D01*
X128350000Y-90421651D02*
X130937000Y-90421651D01*
X123704000Y-90381651D02*
X126270000Y-90381651D01*
X128350000Y-90381651D02*
X130916000Y-90381651D01*
X123726000Y-90341651D02*
X126270000Y-90341651D01*
X128350000Y-90341651D02*
X130894000Y-90341651D01*
X123748000Y-90301651D02*
X126270000Y-90301651D01*
X128350000Y-90301651D02*
X130872000Y-90301651D01*
X123770000Y-90261651D02*
X126270000Y-90261651D01*
X128350000Y-90261651D02*
X130850000Y-90261651D01*
X123793000Y-90221651D02*
X126270000Y-90221651D01*
X128350000Y-90221651D02*
X130827000Y-90221651D01*
X123817000Y-90181651D02*
X126270000Y-90181651D01*
X128350000Y-90181651D02*
X130803000Y-90181651D01*
X123841000Y-90141651D02*
X126270000Y-90141651D01*
X128350000Y-90141651D02*
X130779000Y-90141651D01*
X123866000Y-90101651D02*
X126270000Y-90101651D01*
X128350000Y-90101651D02*
X130754000Y-90101651D01*
X123892000Y-90061651D02*
X126270000Y-90061651D01*
X128350000Y-90061651D02*
X130728000Y-90061651D01*
X123918000Y-90021651D02*
X126270000Y-90021651D01*
X128350000Y-90021651D02*
X130702000Y-90021651D01*
X123945000Y-89981651D02*
X130675000Y-89981651D01*
X123972000Y-89941651D02*
X130648000Y-89941651D01*
X124001000Y-89901651D02*
X130619000Y-89901651D01*
X124030000Y-89861651D02*
X130590000Y-89861651D01*
X124060000Y-89821651D02*
X130560000Y-89821651D01*
X124090000Y-89781651D02*
X130530000Y-89781651D01*
X124121000Y-89741651D02*
X130499000Y-89741651D01*
X124154000Y-89701651D02*
X130466000Y-89701651D01*
X124186000Y-89661651D02*
X130434000Y-89661651D01*
X124220000Y-89621651D02*
X130400000Y-89621651D01*
X124255000Y-89581651D02*
X130365000Y-89581651D01*
X124291000Y-89541651D02*
X130329000Y-89541651D01*
X124327000Y-89501651D02*
X130293000Y-89501651D01*
X124365000Y-89461651D02*
X130255000Y-89461651D01*
X124403000Y-89421651D02*
X130217000Y-89421651D01*
X124443000Y-89381651D02*
X130177000Y-89381651D01*
X124484000Y-89341651D02*
X130136000Y-89341651D01*
X124526000Y-89301651D02*
X130094000Y-89301651D01*
X124569000Y-89261651D02*
X130051000Y-89261651D01*
X124613000Y-89221651D02*
X130007000Y-89221651D01*
X124659000Y-89181651D02*
X129961000Y-89181651D01*
X124706000Y-89141651D02*
X129914000Y-89141651D01*
X124754000Y-89101651D02*
X129866000Y-89101651D01*
X124805000Y-89061651D02*
X129815000Y-89061651D01*
X124856000Y-89021651D02*
X129764000Y-89021651D01*
X124910000Y-88981651D02*
X129710000Y-88981651D01*
X124965000Y-88941651D02*
X129655000Y-88941651D01*
X125023000Y-88901651D02*
X129597000Y-88901651D01*
X125082000Y-88861651D02*
X129538000Y-88861651D01*
X125144000Y-88821651D02*
X129476000Y-88821651D01*
X125208000Y-88781651D02*
X129412000Y-88781651D01*
X125276000Y-88741651D02*
X129344000Y-88741651D01*
X125346000Y-88701651D02*
X129274000Y-88701651D01*
X125420000Y-88661651D02*
X129200000Y-88661651D01*
X125497000Y-88621651D02*
X129123000Y-88621651D01*
X125579000Y-88581651D02*
X129041000Y-88581651D01*
X125665000Y-88541651D02*
X128955000Y-88541651D01*
X125758000Y-88501651D02*
X128862000Y-88501651D01*
X125857000Y-88461651D02*
X128763000Y-88461651D01*
X125964000Y-88421651D02*
X128656000Y-88421651D01*
X126081000Y-88381651D02*
X128539000Y-88381651D01*
X126212000Y-88341651D02*
X128408000Y-88341651D01*
X126362000Y-88301651D02*
X128258000Y-88301651D01*
X126542000Y-88261651D02*
X128078000Y-88261651D01*
X126777000Y-88221651D02*
X127843000Y-88221651D01*
X131430000Y-92302651D02*
G75*
G03*
X131430000Y-92302651I-4120000J0D01*
G01*
%TO.C,C6*%
X155571252Y-88235000D02*
X155048748Y-88235000D01*
X155571252Y-86765000D02*
X155048748Y-86765000D01*
%TO.C,R7*%
X156837064Y-102635000D02*
X156382936Y-102635000D01*
X156837064Y-101165000D02*
X156382936Y-101165000D01*
%TO.C,C3*%
X150248748Y-102065000D02*
X150771252Y-102065000D01*
X150248748Y-103535000D02*
X150771252Y-103535000D01*
%TO.C,R11*%
X139345000Y-94172936D02*
X139345000Y-94627064D01*
X137875000Y-94172936D02*
X137875000Y-94627064D01*
%TO.C,DRIVE1*%
X155630000Y-66555000D02*
X155630000Y-61835000D01*
X156820000Y-66555000D02*
X155640000Y-66555000D01*
X159720000Y-66555000D02*
X159190000Y-66555000D01*
X162170000Y-66555000D02*
X161340000Y-66555000D01*
X165380000Y-66555000D02*
X163890000Y-66555000D01*
X165380000Y-66555000D02*
X165380000Y-61835000D01*
X155640000Y-58025000D02*
X155640000Y-54965000D01*
X165380000Y-58025000D02*
X165380000Y-54965000D01*
X165380000Y-54965000D02*
X155640000Y-54965000D01*
%TO.C,R13*%
X134082936Y-64765000D02*
X134537064Y-64765000D01*
X134082936Y-66235000D02*
X134537064Y-66235000D01*
%TO.C,C12*%
X158871252Y-98335000D02*
X158348748Y-98335000D01*
X158871252Y-96865000D02*
X158348748Y-96865000D01*
%TO.C,R5*%
X150875000Y-106027064D02*
X150875000Y-105572936D01*
X152345000Y-106027064D02*
X152345000Y-105572936D01*
%TO.C,C9*%
X134571252Y-68435000D02*
X134048748Y-68435000D01*
X134571252Y-66965000D02*
X134048748Y-66965000D01*
%TO.C,R9*%
X150737064Y-101435000D02*
X150282936Y-101435000D01*
X150737064Y-99965000D02*
X150282936Y-99965000D01*
%TO.C,Q1*%
X157290000Y-103200000D02*
X153690000Y-103200000D01*
X156310000Y-107499999D02*
G75*
G03*
X157301452Y-103207845I-820000J2449999D01*
G01*
X153681555Y-103222316D02*
G75*
G03*
X154710000Y-107500000I1808445J-1827684D01*
G01*
%TO.C,R6*%
X152282936Y-107965000D02*
X152737064Y-107965000D01*
X152282936Y-109435000D02*
X152737064Y-109435000D01*
%TO.C,R16*%
X119882936Y-103765000D02*
X120337064Y-103765000D01*
X119882936Y-105235000D02*
X120337064Y-105235000D01*
%TO.C,C10*%
X160395000Y-109559698D02*
X160395000Y-108759698D01*
X159995000Y-109159698D02*
X160795000Y-109159698D01*
X158630000Y-105150000D02*
X166790000Y-105150000D01*
X158630000Y-105110000D02*
X166790000Y-105110000D01*
X158630000Y-105070000D02*
X166790000Y-105070000D01*
X158631000Y-105030000D02*
X166789000Y-105030000D01*
X158633000Y-104990000D02*
X166787000Y-104990000D01*
X158634000Y-104950000D02*
X166786000Y-104950000D01*
X158636000Y-104910000D02*
X161670000Y-104910000D01*
X163750000Y-104910000D02*
X166784000Y-104910000D01*
X158639000Y-104870000D02*
X161670000Y-104870000D01*
X163750000Y-104870000D02*
X166781000Y-104870000D01*
X158642000Y-104830000D02*
X161670000Y-104830000D01*
X163750000Y-104830000D02*
X166778000Y-104830000D01*
X158645000Y-104790000D02*
X161670000Y-104790000D01*
X163750000Y-104790000D02*
X166775000Y-104790000D01*
X158649000Y-104750000D02*
X161670000Y-104750000D01*
X163750000Y-104750000D02*
X166771000Y-104750000D01*
X158653000Y-104710000D02*
X161670000Y-104710000D01*
X163750000Y-104710000D02*
X166767000Y-104710000D01*
X158658000Y-104670000D02*
X161670000Y-104670000D01*
X163750000Y-104670000D02*
X166762000Y-104670000D01*
X158662000Y-104630000D02*
X161670000Y-104630000D01*
X163750000Y-104630000D02*
X166758000Y-104630000D01*
X158668000Y-104590000D02*
X161670000Y-104590000D01*
X163750000Y-104590000D02*
X166752000Y-104590000D01*
X158673000Y-104550000D02*
X161670000Y-104550000D01*
X163750000Y-104550000D02*
X166747000Y-104550000D01*
X158680000Y-104510000D02*
X161670000Y-104510000D01*
X163750000Y-104510000D02*
X166740000Y-104510000D01*
X158686000Y-104470000D02*
X161670000Y-104470000D01*
X163750000Y-104470000D02*
X166734000Y-104470000D01*
X158693000Y-104429000D02*
X161670000Y-104429000D01*
X163750000Y-104429000D02*
X166727000Y-104429000D01*
X158700000Y-104389000D02*
X161670000Y-104389000D01*
X163750000Y-104389000D02*
X166720000Y-104389000D01*
X158708000Y-104349000D02*
X161670000Y-104349000D01*
X163750000Y-104349000D02*
X166712000Y-104349000D01*
X158716000Y-104309000D02*
X161670000Y-104309000D01*
X163750000Y-104309000D02*
X166704000Y-104309000D01*
X158725000Y-104269000D02*
X161670000Y-104269000D01*
X163750000Y-104269000D02*
X166695000Y-104269000D01*
X158734000Y-104229000D02*
X161670000Y-104229000D01*
X163750000Y-104229000D02*
X166686000Y-104229000D01*
X158743000Y-104189000D02*
X161670000Y-104189000D01*
X163750000Y-104189000D02*
X166677000Y-104189000D01*
X158753000Y-104149000D02*
X161670000Y-104149000D01*
X163750000Y-104149000D02*
X166667000Y-104149000D01*
X158763000Y-104109000D02*
X161670000Y-104109000D01*
X163750000Y-104109000D02*
X166657000Y-104109000D01*
X158774000Y-104069000D02*
X161670000Y-104069000D01*
X163750000Y-104069000D02*
X166646000Y-104069000D01*
X158785000Y-104029000D02*
X161670000Y-104029000D01*
X163750000Y-104029000D02*
X166635000Y-104029000D01*
X158796000Y-103989000D02*
X161670000Y-103989000D01*
X163750000Y-103989000D02*
X166624000Y-103989000D01*
X158808000Y-103949000D02*
X161670000Y-103949000D01*
X163750000Y-103949000D02*
X166612000Y-103949000D01*
X158821000Y-103909000D02*
X161670000Y-103909000D01*
X163750000Y-103909000D02*
X166599000Y-103909000D01*
X158833000Y-103869000D02*
X161670000Y-103869000D01*
X163750000Y-103869000D02*
X166587000Y-103869000D01*
X158847000Y-103829000D02*
X161670000Y-103829000D01*
X163750000Y-103829000D02*
X166573000Y-103829000D01*
X158860000Y-103789000D02*
X161670000Y-103789000D01*
X163750000Y-103789000D02*
X166560000Y-103789000D01*
X158875000Y-103749000D02*
X161670000Y-103749000D01*
X163750000Y-103749000D02*
X166545000Y-103749000D01*
X158889000Y-103709000D02*
X161670000Y-103709000D01*
X163750000Y-103709000D02*
X166531000Y-103709000D01*
X158905000Y-103669000D02*
X161670000Y-103669000D01*
X163750000Y-103669000D02*
X166515000Y-103669000D01*
X158920000Y-103629000D02*
X161670000Y-103629000D01*
X163750000Y-103629000D02*
X166500000Y-103629000D01*
X158936000Y-103589000D02*
X161670000Y-103589000D01*
X163750000Y-103589000D02*
X166484000Y-103589000D01*
X158953000Y-103549000D02*
X161670000Y-103549000D01*
X163750000Y-103549000D02*
X166467000Y-103549000D01*
X158970000Y-103509000D02*
X161670000Y-103509000D01*
X163750000Y-103509000D02*
X166450000Y-103509000D01*
X158988000Y-103469000D02*
X161670000Y-103469000D01*
X163750000Y-103469000D02*
X166432000Y-103469000D01*
X159006000Y-103429000D02*
X161670000Y-103429000D01*
X163750000Y-103429000D02*
X166414000Y-103429000D01*
X159024000Y-103389000D02*
X161670000Y-103389000D01*
X163750000Y-103389000D02*
X166396000Y-103389000D01*
X159044000Y-103349000D02*
X161670000Y-103349000D01*
X163750000Y-103349000D02*
X166376000Y-103349000D01*
X159063000Y-103309000D02*
X161670000Y-103309000D01*
X163750000Y-103309000D02*
X166357000Y-103309000D01*
X159083000Y-103269000D02*
X161670000Y-103269000D01*
X163750000Y-103269000D02*
X166337000Y-103269000D01*
X159104000Y-103229000D02*
X161670000Y-103229000D01*
X163750000Y-103229000D02*
X166316000Y-103229000D01*
X159126000Y-103189000D02*
X161670000Y-103189000D01*
X163750000Y-103189000D02*
X166294000Y-103189000D01*
X159148000Y-103149000D02*
X161670000Y-103149000D01*
X163750000Y-103149000D02*
X166272000Y-103149000D01*
X159170000Y-103109000D02*
X161670000Y-103109000D01*
X163750000Y-103109000D02*
X166250000Y-103109000D01*
X159193000Y-103069000D02*
X161670000Y-103069000D01*
X163750000Y-103069000D02*
X166227000Y-103069000D01*
X159217000Y-103029000D02*
X161670000Y-103029000D01*
X163750000Y-103029000D02*
X166203000Y-103029000D01*
X159241000Y-102989000D02*
X161670000Y-102989000D01*
X163750000Y-102989000D02*
X166179000Y-102989000D01*
X159266000Y-102949000D02*
X161670000Y-102949000D01*
X163750000Y-102949000D02*
X166154000Y-102949000D01*
X159292000Y-102909000D02*
X161670000Y-102909000D01*
X163750000Y-102909000D02*
X166128000Y-102909000D01*
X159318000Y-102869000D02*
X161670000Y-102869000D01*
X163750000Y-102869000D02*
X166102000Y-102869000D01*
X159345000Y-102829000D02*
X166075000Y-102829000D01*
X159372000Y-102789000D02*
X166048000Y-102789000D01*
X159401000Y-102749000D02*
X166019000Y-102749000D01*
X159430000Y-102709000D02*
X165990000Y-102709000D01*
X159460000Y-102669000D02*
X165960000Y-102669000D01*
X159490000Y-102629000D02*
X165930000Y-102629000D01*
X159521000Y-102589000D02*
X165899000Y-102589000D01*
X159554000Y-102549000D02*
X165866000Y-102549000D01*
X159586000Y-102509000D02*
X165834000Y-102509000D01*
X159620000Y-102469000D02*
X165800000Y-102469000D01*
X159655000Y-102429000D02*
X165765000Y-102429000D01*
X159691000Y-102389000D02*
X165729000Y-102389000D01*
X159727000Y-102349000D02*
X165693000Y-102349000D01*
X159765000Y-102309000D02*
X165655000Y-102309000D01*
X159803000Y-102269000D02*
X165617000Y-102269000D01*
X159843000Y-102229000D02*
X165577000Y-102229000D01*
X159884000Y-102189000D02*
X165536000Y-102189000D01*
X159926000Y-102149000D02*
X165494000Y-102149000D01*
X159969000Y-102109000D02*
X165451000Y-102109000D01*
X160013000Y-102069000D02*
X165407000Y-102069000D01*
X160059000Y-102029000D02*
X165361000Y-102029000D01*
X160106000Y-101989000D02*
X165314000Y-101989000D01*
X160154000Y-101949000D02*
X165266000Y-101949000D01*
X160205000Y-101909000D02*
X165215000Y-101909000D01*
X160256000Y-101869000D02*
X165164000Y-101869000D01*
X160310000Y-101829000D02*
X165110000Y-101829000D01*
X160365000Y-101789000D02*
X165055000Y-101789000D01*
X160423000Y-101749000D02*
X164997000Y-101749000D01*
X160482000Y-101709000D02*
X164938000Y-101709000D01*
X160544000Y-101669000D02*
X164876000Y-101669000D01*
X160608000Y-101629000D02*
X164812000Y-101629000D01*
X160676000Y-101589000D02*
X164744000Y-101589000D01*
X160746000Y-101549000D02*
X164674000Y-101549000D01*
X160820000Y-101509000D02*
X164600000Y-101509000D01*
X160897000Y-101469000D02*
X164523000Y-101469000D01*
X160979000Y-101429000D02*
X164441000Y-101429000D01*
X161065000Y-101389000D02*
X164355000Y-101389000D01*
X161158000Y-101349000D02*
X164262000Y-101349000D01*
X161257000Y-101309000D02*
X164163000Y-101309000D01*
X161364000Y-101269000D02*
X164056000Y-101269000D01*
X161481000Y-101229000D02*
X163939000Y-101229000D01*
X161612000Y-101189000D02*
X163808000Y-101189000D01*
X161762000Y-101149000D02*
X163658000Y-101149000D01*
X161942000Y-101109000D02*
X163478000Y-101109000D01*
X162177000Y-101069000D02*
X163243000Y-101069000D01*
X166830000Y-105150000D02*
G75*
G03*
X166830000Y-105150000I-4120000J0D01*
G01*
%TO.C,R18*%
X131082936Y-102065000D02*
X131537064Y-102065000D01*
X131082936Y-103535000D02*
X131537064Y-103535000D01*
%TO.C,C11*%
X132075000Y-97561252D02*
X132075000Y-97038748D01*
X133545000Y-97561252D02*
X133545000Y-97038748D01*
%TO.C,C14*%
X131571252Y-101535000D02*
X131048748Y-101535000D01*
X131571252Y-100065000D02*
X131048748Y-100065000D01*
%TO.C,C5*%
X158986248Y-86765000D02*
X159508752Y-86765000D01*
X158986248Y-88235000D02*
X159508752Y-88235000D01*
%TO.C,R21*%
X131082936Y-104065000D02*
X131537064Y-104065000D01*
X131082936Y-105535000D02*
X131537064Y-105535000D01*
%TO.C,Q4*%
X129130000Y-105100000D02*
X129130000Y-101500000D01*
X124830001Y-104120000D02*
G75*
G03*
X129122155Y-105111452I2449999J820000D01*
G01*
X129107684Y-101491555D02*
G75*
G03*
X124830000Y-102520000I-1827684J-1808445D01*
G01*
%TO.C,Q5*%
X161350000Y-90400000D02*
X161350000Y-92075000D01*
X161350000Y-90400000D02*
X161350000Y-89750000D01*
X164470000Y-90400000D02*
X164470000Y-91050000D01*
X164470000Y-90400000D02*
X164470000Y-89750000D01*
%TO.C,R8*%
X151775000Y-84727064D02*
X151775000Y-84272936D01*
X153245000Y-84727064D02*
X153245000Y-84272936D01*
%TO.C,VOL1*%
X120030000Y-84145000D02*
X120030000Y-79425000D01*
X121220000Y-84145000D02*
X120040000Y-84145000D01*
X124120000Y-84145000D02*
X123590000Y-84145000D01*
X126570000Y-84145000D02*
X125740000Y-84145000D01*
X129780000Y-84145000D02*
X128290000Y-84145000D01*
X129780000Y-84145000D02*
X129780000Y-79425000D01*
X120040000Y-75615000D02*
X120040000Y-72555000D01*
X129780000Y-75615000D02*
X129780000Y-72555000D01*
X129780000Y-72555000D02*
X120040000Y-72555000D01*
%TO.C,R10*%
X151245000Y-86972936D02*
X151245000Y-87427064D01*
X149775000Y-86972936D02*
X149775000Y-87427064D01*
%TO.C,C7*%
X158075000Y-92061252D02*
X158075000Y-91538748D01*
X159545000Y-92061252D02*
X159545000Y-91538748D01*
%TO.C,C15*%
X134948748Y-104065000D02*
X135471252Y-104065000D01*
X134948748Y-105535000D02*
X135471252Y-105535000D01*
%TO.C,Q2*%
X164420000Y-94337500D02*
X164420000Y-92662500D01*
X164420000Y-94337500D02*
X164420000Y-94987500D01*
X161300000Y-94337500D02*
X161300000Y-93687500D01*
X161300000Y-94337500D02*
X161300000Y-94987500D01*
%TO.C,R17*%
X132075000Y-93727064D02*
X132075000Y-93272936D01*
X133545000Y-93727064D02*
X133545000Y-93272936D01*
%TO.C,D2*%
X160920000Y-96300000D02*
X160920000Y-94300000D01*
X160920000Y-96300000D02*
X157060000Y-96300000D01*
X160920000Y-94300000D02*
X157060000Y-94300000D01*
%TO.C,R15*%
X119882936Y-105765000D02*
X120337064Y-105765000D01*
X119882936Y-107235000D02*
X120337064Y-107235000D01*
%TO.C,R4*%
X148875000Y-106027064D02*
X148875000Y-105572936D01*
X150345000Y-106027064D02*
X150345000Y-105572936D01*
%TO.C,D7*%
X120710000Y-100140000D02*
X120710000Y-99120000D01*
X119240000Y-99120000D02*
X122180000Y-99120000D01*
X122180000Y-99120000D02*
X122180000Y-93680000D01*
X119240000Y-98340000D02*
X122180000Y-98340000D01*
X119240000Y-98220000D02*
X122180000Y-98220000D01*
X119240000Y-98100000D02*
X122180000Y-98100000D01*
X119240000Y-93680000D02*
X119240000Y-99120000D01*
X122180000Y-93680000D02*
X119240000Y-93680000D01*
X120710000Y-92660000D02*
X120710000Y-93680000D01*
%TD*%
D12*
%TO.C,SW1*%
X148550000Y-137825000D03*
D13*
X143250000Y-137825000D03*
X137950000Y-137825000D03*
X148550000Y-142525000D03*
X143250000Y-142550000D03*
X137950000Y-142525000D03*
X148550000Y-147225000D03*
X143250000Y-147225000D03*
X137950000Y-147225000D03*
%TD*%
D14*
%TO.C,D1*%
X122500000Y-137540000D03*
D15*
X122500000Y-135000000D03*
%TD*%
D16*
%TO.C,R1*%
X155500000Y-135000000D03*
X155500000Y-142620000D03*
%TD*%
%TO.C,R2*%
X127760000Y-142600000D03*
X127760000Y-134980000D03*
%TD*%
%TO.C,R3*%
X131010000Y-135000000D03*
X131010000Y-142620000D03*
%TD*%
D17*
%TO.C,C1*%
X161050000Y-135000000D03*
D18*
X166050000Y-135000000D03*
%TD*%
%LPC*%
D19*
%TO.C,SW1*%
X148550000Y-137825000D03*
D20*
X143250000Y-137825000D03*
X137950000Y-137825000D03*
X148550000Y-142525000D03*
X143250000Y-142550000D03*
X137950000Y-142525000D03*
X148550000Y-147225000D03*
X143250000Y-147225000D03*
X137950000Y-147225000D03*
%TD*%
D21*
%TO.C,J3*%
X128660000Y-130730000D03*
X128660000Y-114500000D03*
X122310000Y-130730000D03*
X122310000Y-114500000D03*
X135010000Y-130730000D03*
X135010000Y-114500000D03*
%TD*%
D22*
%TO.C,J1*%
X134510000Y-55000000D03*
D23*
X134510000Y-57540000D03*
%TD*%
D24*
%TO.C,JOVGI1*%
X146700000Y-111350000D03*
D23*
X144160000Y-111350000D03*
X141620000Y-111350000D03*
X139080000Y-111350000D03*
%TD*%
D24*
%TO.C,JOVGI2*%
X146700000Y-105800000D03*
D23*
X144160000Y-105800000D03*
X141620000Y-105800000D03*
X139080000Y-105800000D03*
%TD*%
D25*
%TO.C,C2*%
X162000000Y-140200000D03*
D26*
X162000000Y-142700000D03*
%TD*%
D27*
%TO.C,D1*%
X122500000Y-137540000D03*
D28*
X122500000Y-135000000D03*
%TD*%
D29*
%TO.C,R1*%
X155500000Y-135000000D03*
X155500000Y-142620000D03*
%TD*%
%TO.C,R2*%
X127760000Y-142600000D03*
X127760000Y-134980000D03*
%TD*%
%TO.C,R3*%
X131010000Y-135000000D03*
X131010000Y-142620000D03*
%TD*%
D30*
%TO.C,C1*%
X161050000Y-135000000D03*
D31*
X166050000Y-135000000D03*
%TD*%
D24*
%TO.C,J4*%
X144140000Y-116810000D03*
D23*
X141600000Y-116810000D03*
%TD*%
D21*
%TO.C,J2*%
X156925000Y-114500000D03*
X156925000Y-130730000D03*
X163275000Y-114500000D03*
X163275000Y-130730000D03*
X150575000Y-114500000D03*
X150575000Y-130730000D03*
%TD*%
D32*
%TO.C,R14*%
X142310000Y-99000000D03*
X144310000Y-99000000D03*
%TD*%
D33*
%TO.C,D6*%
X150510000Y-92975000D03*
D34*
X150510000Y-90435000D03*
%TD*%
D35*
%TO.C,R19*%
X132310000Y-106900000D03*
X130310000Y-106900000D03*
%TD*%
D36*
%TO.C,D3*%
X155110000Y-90425000D03*
D34*
X155110000Y-92965000D03*
%TD*%
D37*
%TO.C,R12*%
X137810000Y-100000000D03*
X137810000Y-102000000D03*
%TD*%
D38*
%TO.C,C8*%
X135572500Y-97300000D03*
X137647500Y-97300000D03*
%TD*%
D32*
%TO.C,R22*%
X134210000Y-106900000D03*
X136210000Y-106900000D03*
%TD*%
D39*
%TO.C,U1*%
X145715000Y-91325000D03*
X144445000Y-91325000D03*
X143175000Y-91325000D03*
X141905000Y-91325000D03*
X141905000Y-96475000D03*
X143175000Y-96475000D03*
X144445000Y-96475000D03*
X145715000Y-96475000D03*
%TD*%
D37*
%TO.C,R20*%
X123010000Y-104500000D03*
X123010000Y-106500000D03*
%TD*%
D40*
%TO.C,D5*%
X144510000Y-88800000D03*
X147310000Y-88800000D03*
%TD*%
D41*
%TO.C,C4*%
X155547500Y-99900000D03*
X153472500Y-99900000D03*
%TD*%
D42*
%TO.C,D4*%
X147310000Y-86400000D03*
X144510000Y-86400000D03*
%TD*%
D43*
%TO.C,LOW1*%
X155710000Y-77625000D03*
X165310000Y-77625000D03*
D44*
X158010000Y-85125000D03*
D34*
X160510000Y-85125000D03*
X163010000Y-85125000D03*
%TD*%
D43*
%TO.C,TONE1*%
X120110000Y-60100000D03*
X129710000Y-60100000D03*
D44*
X122410000Y-67600000D03*
D34*
X124910000Y-67600000D03*
X127410000Y-67600000D03*
%TD*%
D45*
%TO.C,C13*%
X127310000Y-93552651D03*
D26*
X127310000Y-91052651D03*
%TD*%
D41*
%TO.C,C6*%
X156347500Y-87500000D03*
X154272500Y-87500000D03*
%TD*%
D35*
%TO.C,R7*%
X157610000Y-101900000D03*
X155610000Y-101900000D03*
%TD*%
D38*
%TO.C,C3*%
X149472500Y-102800000D03*
X151547500Y-102800000D03*
%TD*%
D37*
%TO.C,R11*%
X138610000Y-93400000D03*
X138610000Y-95400000D03*
%TD*%
D43*
%TO.C,DRIVE1*%
X155710000Y-59935000D03*
X165310000Y-59935000D03*
D44*
X158010000Y-67435000D03*
D34*
X160510000Y-67435000D03*
X163010000Y-67435000D03*
%TD*%
D32*
%TO.C,R13*%
X133310000Y-65500000D03*
X135310000Y-65500000D03*
%TD*%
D41*
%TO.C,C12*%
X159647500Y-97600000D03*
X157572500Y-97600000D03*
%TD*%
D46*
%TO.C,R5*%
X151610000Y-106800000D03*
X151610000Y-104800000D03*
%TD*%
D41*
%TO.C,C9*%
X135347500Y-67700000D03*
X133272500Y-67700000D03*
%TD*%
D35*
%TO.C,R9*%
X151510000Y-100700000D03*
X149510000Y-100700000D03*
%TD*%
D47*
%TO.C,Q1*%
X156760000Y-104650000D03*
D48*
X155490000Y-106720000D03*
X154220000Y-104650000D03*
%TD*%
D32*
%TO.C,R6*%
X151510000Y-108700000D03*
X153510000Y-108700000D03*
%TD*%
%TO.C,R16*%
X119110000Y-104500000D03*
X121110000Y-104500000D03*
%TD*%
D45*
%TO.C,C10*%
X162710000Y-106400000D03*
D26*
X162710000Y-103900000D03*
%TD*%
D32*
%TO.C,R18*%
X130310000Y-102800000D03*
X132310000Y-102800000D03*
%TD*%
D49*
%TO.C,C11*%
X132810000Y-98337500D03*
X132810000Y-96262500D03*
%TD*%
D41*
%TO.C,C14*%
X132347500Y-100800000D03*
X130272500Y-100800000D03*
%TD*%
D38*
%TO.C,C5*%
X158210000Y-87500000D03*
X160285000Y-87500000D03*
%TD*%
D32*
%TO.C,R21*%
X130310000Y-104800000D03*
X132310000Y-104800000D03*
%TD*%
D50*
%TO.C,Q4*%
X127680000Y-104570000D03*
D51*
X125610000Y-103300000D03*
X127680000Y-102030000D03*
%TD*%
D52*
%TO.C,Q5*%
X161960000Y-91337500D03*
X163860000Y-91337500D03*
X162910000Y-89462500D03*
%TD*%
D46*
%TO.C,R8*%
X152510000Y-85500000D03*
X152510000Y-83500000D03*
%TD*%
D43*
%TO.C,VOL1*%
X120110000Y-77525000D03*
X129710000Y-77525000D03*
D44*
X122410000Y-85025000D03*
D34*
X124910000Y-85025000D03*
X127410000Y-85025000D03*
%TD*%
D37*
%TO.C,R10*%
X150510000Y-86200000D03*
X150510000Y-88200000D03*
%TD*%
D49*
%TO.C,C7*%
X158810000Y-92837500D03*
X158810000Y-90762500D03*
%TD*%
D38*
%TO.C,C15*%
X134172500Y-104800000D03*
X136247500Y-104800000D03*
%TD*%
D53*
%TO.C,Q2*%
X163810000Y-93400000D03*
X161910000Y-93400000D03*
X162860000Y-95275000D03*
%TD*%
D46*
%TO.C,R17*%
X132810000Y-94500000D03*
X132810000Y-92500000D03*
%TD*%
D42*
%TO.C,D2*%
X160110000Y-95300000D03*
X157310000Y-95300000D03*
%TD*%
D32*
%TO.C,R15*%
X119110000Y-106500000D03*
X121110000Y-106500000D03*
%TD*%
D46*
%TO.C,R4*%
X149610000Y-106800000D03*
X149610000Y-104800000D03*
%TD*%
D54*
%TO.C,D7*%
X120710000Y-101480000D03*
D55*
X120710000Y-91320000D03*
%TD*%
%LPD*%
M02*
