%TF.GenerationSoftware,KiCad,Pcbnew,7.0.2-6a45011f42~172~ubuntu22.04.1*%
%TF.CreationDate,2023-05-30T10:17:06+01:00*%
%TF.ProjectId,GreenBean,47726565-6e42-4656-916e-2e6b69636164,rev?*%
%TF.SameCoordinates,Original*%
%TF.FileFunction,Legend,Bot*%
%TF.FilePolarity,Positive*%
%FSLAX46Y46*%
G04 Gerber Fmt 4.6, Leading zero omitted, Abs format (unit mm)*
G04 Created by KiCad (PCBNEW 7.0.2-6a45011f42~172~ubuntu22.04.1) date 2023-05-30 10:17:06*
%MOMM*%
%LPD*%
G01*
G04 APERTURE LIST*
G04 Aperture macros list*
%AMRoundRect*
0 Rectangle with rounded corners*
0 $1 Rounding radius*
0 $2 $3 $4 $5 $6 $7 $8 $9 X,Y pos of 4 corners*
0 Add a 4 corners polygon primitive as box body*
4,1,4,$2,$3,$4,$5,$6,$7,$8,$9,$2,$3,0*
0 Add four circle primitives for the rounded corners*
1,1,$1+$1,$2,$3*
1,1,$1+$1,$4,$5*
1,1,$1+$1,$6,$7*
1,1,$1+$1,$8,$9*
0 Add four rect primitives between the rounded corners*
20,1,$1+$1,$2,$3,$4,$5,0*
20,1,$1+$1,$4,$5,$6,$7,0*
20,1,$1+$1,$6,$7,$8,$9,0*
20,1,$1+$1,$8,$9,$2,$3,0*%
G04 Aperture macros list end*
%ADD10C,1.998980*%
%ADD11RoundRect,0.200000X1.300000X0.750000X-1.300000X0.750000X-1.300000X-0.750000X1.300000X-0.750000X0*%
%ADD12O,3.000000X1.900000*%
%ADD13C,3.400000*%
%ADD14RoundRect,0.200000X-0.850000X-0.850000X0.850000X-0.850000X0.850000X0.850000X-0.850000X0.850000X0*%
%ADD15O,2.100000X2.100000*%
%ADD16RoundRect,0.200000X-0.850000X0.850000X-0.850000X-0.850000X0.850000X-0.850000X0.850000X0.850000X0*%
%ADD17RoundRect,0.200000X-0.800000X0.800000X-0.800000X-0.800000X0.800000X-0.800000X0.800000X0.800000X0*%
%ADD18C,2.000000*%
%ADD19RoundRect,0.200000X1.000000X0.950000X-1.000000X0.950000X-1.000000X-0.950000X1.000000X-0.950000X0*%
%ADD20C,2.300000*%
%ADD21C,2.398980*%
%ADD22RoundRect,0.200000X-0.650000X-0.650000X0.650000X-0.650000X0.650000X0.650000X-0.650000X0.650000X0*%
%ADD23C,1.700000*%
%ADD24RoundRect,0.200000X0.900000X-0.900000X0.900000X0.900000X-0.900000X0.900000X-0.900000X-0.900000X0*%
%ADD25C,2.200000*%
%ADD26RoundRect,0.200000X-0.900000X0.900000X-0.900000X-0.900000X0.900000X-0.900000X0.900000X0.900000X0*%
%ADD27O,3.120000X3.640000*%
%ADD28RoundRect,0.200000X0.900000X0.900000X-0.900000X0.900000X-0.900000X-0.900000X0.900000X-0.900000X0*%
%ADD29RoundRect,0.200000X0.800000X-0.800000X0.800000X0.800000X-0.800000X0.800000X-0.800000X-0.800000X0*%
%ADD30RoundRect,0.200000X0.550000X0.900000X-0.550000X0.900000X-0.550000X-0.900000X0.550000X-0.900000X0*%
%ADD31RoundRect,0.475000X0.275000X0.625000X-0.275000X0.625000X-0.275000X-0.625000X0.275000X-0.625000X0*%
%ADD32RoundRect,0.200000X0.900000X-0.550000X0.900000X0.550000X-0.900000X0.550000X-0.900000X-0.550000X0*%
%ADD33RoundRect,0.475000X0.625000X-0.275000X0.625000X0.275000X-0.625000X0.275000X-0.625000X-0.275000X0*%
%ADD34RoundRect,0.200000X1.100000X-1.100000X1.100000X1.100000X-1.100000X1.100000X-1.100000X-1.100000X0*%
%ADD35O,2.600000X2.600000*%
G04 APERTURE END LIST*
D10*
%TO.C,R1*%
X155500000Y-135000000D03*
X155500000Y-142620000D03*
%TD*%
%TO.C,R2*%
X127760000Y-142600000D03*
X127760000Y-134980000D03*
%TD*%
%TO.C,R3*%
X131010000Y-135000000D03*
X131010000Y-142620000D03*
%TD*%
%LPC*%
D11*
%TO.C,SW1*%
X148550000Y-137825000D03*
D12*
X143250000Y-137825000D03*
X137950000Y-137825000D03*
X148550000Y-142525000D03*
X143250000Y-142550000D03*
X137950000Y-142525000D03*
X148550000Y-147225000D03*
X143250000Y-147225000D03*
X137950000Y-147225000D03*
%TD*%
D13*
%TO.C,J3*%
X128660000Y-130730000D03*
X128660000Y-114500000D03*
X122310000Y-130730000D03*
X122310000Y-114500000D03*
X135010000Y-130730000D03*
X135010000Y-114500000D03*
%TD*%
D14*
%TO.C,J1*%
X134510000Y-55000000D03*
D15*
X134510000Y-57540000D03*
%TD*%
D16*
%TO.C,JOVGI1*%
X146700000Y-111350000D03*
D15*
X144160000Y-111350000D03*
X141620000Y-111350000D03*
X139080000Y-111350000D03*
%TD*%
D16*
%TO.C,JOVGI2*%
X146700000Y-105800000D03*
D15*
X144160000Y-105800000D03*
X141620000Y-105800000D03*
X139080000Y-105800000D03*
%TD*%
D17*
%TO.C,C2*%
X162000000Y-140200000D03*
D18*
X162000000Y-142700000D03*
%TD*%
D19*
%TO.C,D1*%
X122500000Y-137540000D03*
D20*
X122500000Y-135000000D03*
%TD*%
D21*
%TO.C,R1*%
X155500000Y-135000000D03*
X155500000Y-142620000D03*
%TD*%
%TO.C,R2*%
X127760000Y-142600000D03*
X127760000Y-134980000D03*
%TD*%
%TO.C,R3*%
X131010000Y-135000000D03*
X131010000Y-142620000D03*
%TD*%
D22*
%TO.C,C1*%
X161050000Y-135000000D03*
D23*
X166050000Y-135000000D03*
%TD*%
D16*
%TO.C,J4*%
X144140000Y-116810000D03*
D15*
X141600000Y-116810000D03*
%TD*%
D13*
%TO.C,J2*%
X156925000Y-114500000D03*
X156925000Y-130730000D03*
X163275000Y-114500000D03*
X163275000Y-130730000D03*
X150575000Y-114500000D03*
X150575000Y-130730000D03*
%TD*%
D24*
%TO.C,D6*%
X150510000Y-92975000D03*
D25*
X150510000Y-90435000D03*
%TD*%
D26*
%TO.C,D3*%
X155110000Y-90425000D03*
D25*
X155110000Y-92965000D03*
%TD*%
D27*
%TO.C,LOW1*%
X155710000Y-77625000D03*
X165310000Y-77625000D03*
D28*
X158010000Y-85125000D03*
D25*
X160510000Y-85125000D03*
X163010000Y-85125000D03*
%TD*%
D27*
%TO.C,TONE1*%
X120110000Y-60100000D03*
X129710000Y-60100000D03*
D28*
X122410000Y-67600000D03*
D25*
X124910000Y-67600000D03*
X127410000Y-67600000D03*
%TD*%
D29*
%TO.C,C13*%
X127310000Y-93552651D03*
D18*
X127310000Y-91052651D03*
%TD*%
D27*
%TO.C,DRIVE1*%
X155710000Y-59935000D03*
X165310000Y-59935000D03*
D28*
X158010000Y-67435000D03*
D25*
X160510000Y-67435000D03*
X163010000Y-67435000D03*
%TD*%
D30*
%TO.C,Q1*%
X156760000Y-104650000D03*
D31*
X155490000Y-106720000D03*
X154220000Y-104650000D03*
%TD*%
D29*
%TO.C,C10*%
X162710000Y-106400000D03*
D18*
X162710000Y-103900000D03*
%TD*%
D32*
%TO.C,Q4*%
X127680000Y-104570000D03*
D33*
X125610000Y-103300000D03*
X127680000Y-102030000D03*
%TD*%
D27*
%TO.C,VOL1*%
X120110000Y-77525000D03*
X129710000Y-77525000D03*
D28*
X122410000Y-85025000D03*
D25*
X124910000Y-85025000D03*
X127410000Y-85025000D03*
%TD*%
D34*
%TO.C,D7*%
X120710000Y-101480000D03*
D35*
X120710000Y-91320000D03*
%TD*%
%LPD*%
M02*
