%TF.GenerationSoftware,KiCad,Pcbnew,7.0.2-6a45011f42~172~ubuntu22.04.1*%
%TF.CreationDate,2023-05-30T10:17:06+01:00*%
%TF.ProjectId,GreenBean,47726565-6e42-4656-916e-2e6b69636164,rev?*%
%TF.SameCoordinates,Original*%
%TF.FileFunction,Profile,NP*%
%FSLAX46Y46*%
G04 Gerber Fmt 4.6, Leading zero omitted, Abs format (unit mm)*
G04 Created by KiCad (PCBNEW 7.0.2-6a45011f42~172~ubuntu22.04.1) date 2023-05-30 10:17:06*
%MOMM*%
%LPD*%
G01*
G04 APERTURE LIST*
%TA.AperFunction,Profile*%
%ADD10C,0.150000*%
%TD*%
G04 APERTURE END LIST*
D10*
X145400000Y-107750000D02*
X148500000Y-107750000D01*
X137700000Y-109500000D02*
X140600000Y-109500000D01*
X128000000Y-147500000D02*
X127000000Y-146500000D01*
X115000000Y-134500000D02*
X115000000Y-121000000D01*
X135350000Y-109750000D02*
X116500000Y-109750000D01*
X145400000Y-109500000D02*
X148000000Y-109500000D01*
X148750000Y-62500000D02*
X148750000Y-52000000D01*
X127000000Y-146500000D02*
X115000000Y-134500000D01*
X115000000Y-57000000D02*
X115000000Y-108250000D01*
X169000000Y-141000000D02*
X158000000Y-152000000D01*
X133500000Y-151000000D02*
X133500000Y-148500000D01*
X149750000Y-111250000D02*
X164750000Y-111250000D01*
X148500000Y-107750000D02*
X150500000Y-109750000D01*
X165500000Y-52000000D02*
X170500000Y-57000000D01*
X169000000Y-109750000D02*
X170500000Y-108250000D01*
X169000000Y-133500000D02*
X170500000Y-132000000D01*
X116500000Y-109750000D02*
X115000000Y-108250000D01*
X140600000Y-107750000D02*
X140600000Y-109500000D01*
X137350000Y-107750000D02*
X135350000Y-109750000D01*
X115000000Y-57000000D02*
X120000000Y-52000000D01*
X170500000Y-85000000D02*
X170500000Y-57000000D01*
X136750000Y-62500000D02*
X148750000Y-62500000D01*
X136750000Y-52000000D02*
X120000000Y-52000000D01*
X170500000Y-112750000D02*
X169000000Y-111250000D01*
X135950000Y-111250000D02*
X117000000Y-111250000D01*
X134500000Y-152000000D02*
X158000000Y-152000000D01*
X116500000Y-109750000D02*
X116500000Y-109750000D01*
X137700000Y-109500000D02*
X135950000Y-111250000D01*
X169000000Y-133500000D02*
X169000000Y-141000000D01*
X170500000Y-108250000D02*
X170500000Y-85000000D01*
X136750000Y-52000000D02*
X136750000Y-62500000D01*
X134500000Y-152000000D02*
X133500000Y-151000000D01*
X133500000Y-148500000D02*
X132500000Y-147500000D01*
X141670000Y-107760000D02*
X144290000Y-107760000D01*
X144290000Y-109490000D01*
X141670000Y-109490000D01*
X141670000Y-107760000D01*
X115000000Y-112750000D02*
X115000000Y-121000000D01*
X148750000Y-52000000D02*
X165500000Y-52000000D01*
X132500000Y-147500000D02*
X128500000Y-147500000D01*
X145400000Y-107750000D02*
X145400000Y-109500000D01*
X169000000Y-111250000D02*
X164750000Y-111250000D01*
X116500000Y-111250000D02*
X115000000Y-112750000D01*
X148000000Y-109500000D02*
X149750000Y-111250000D01*
X170500000Y-132000000D02*
X170500000Y-112750000D01*
X128500000Y-147500000D02*
X128000000Y-147500000D01*
X137350000Y-107750000D02*
X140600000Y-107750000D01*
X150500000Y-109750000D02*
X169000000Y-109750000D01*
X117000000Y-111250000D02*
X116500000Y-111250000D01*
M02*
