%TF.GenerationSoftware,KiCad,Pcbnew,7.0.2-6a45011f42~172~ubuntu22.04.1*%
%TF.CreationDate,2023-05-30T10:17:06+01:00*%
%TF.ProjectId,GreenBean,47726565-6e42-4656-916e-2e6b69636164,rev?*%
%TF.SameCoordinates,Original*%
%TF.FileFunction,Paste,Top*%
%TF.FilePolarity,Positive*%
%FSLAX46Y46*%
G04 Gerber Fmt 4.6, Leading zero omitted, Abs format (unit mm)*
G04 Created by KiCad (PCBNEW 7.0.2-6a45011f42~172~ubuntu22.04.1) date 2023-05-30 10:17:06*
%MOMM*%
%LPD*%
G01*
G04 APERTURE LIST*
G04 Aperture macros list*
%AMRoundRect*
0 Rectangle with rounded corners*
0 $1 Rounding radius*
0 $2 $3 $4 $5 $6 $7 $8 $9 X,Y pos of 4 corners*
0 Add a 4 corners polygon primitive as box body*
4,1,4,$2,$3,$4,$5,$6,$7,$8,$9,$2,$3,0*
0 Add four circle primitives for the rounded corners*
1,1,$1+$1,$2,$3*
1,1,$1+$1,$4,$5*
1,1,$1+$1,$6,$7*
1,1,$1+$1,$8,$9*
0 Add four rect primitives between the rounded corners*
20,1,$1+$1,$2,$3,$4,$5,0*
20,1,$1+$1,$4,$5,$6,$7,0*
20,1,$1+$1,$6,$7,$8,$9,0*
20,1,$1+$1,$8,$9,$2,$3,0*%
G04 Aperture macros list end*
%ADD10RoundRect,0.250000X-0.350000X-0.450000X0.350000X-0.450000X0.350000X0.450000X-0.350000X0.450000X0*%
%ADD11RoundRect,0.250000X0.350000X0.450000X-0.350000X0.450000X-0.350000X-0.450000X0.350000X-0.450000X0*%
%ADD12RoundRect,0.250000X-0.450000X0.350000X-0.450000X-0.350000X0.450000X-0.350000X0.450000X0.350000X0*%
%ADD13RoundRect,0.250000X-0.337500X-0.475000X0.337500X-0.475000X0.337500X0.475000X-0.337500X0.475000X0*%
%ADD14RoundRect,0.150000X-0.150000X0.725000X-0.150000X-0.725000X0.150000X-0.725000X0.150000X0.725000X0*%
%ADD15RoundRect,0.250000X-0.300000X-0.300000X0.300000X-0.300000X0.300000X0.300000X-0.300000X0.300000X0*%
%ADD16RoundRect,0.250000X0.337500X0.475000X-0.337500X0.475000X-0.337500X-0.475000X0.337500X-0.475000X0*%
%ADD17RoundRect,0.250000X0.300000X0.300000X-0.300000X0.300000X-0.300000X-0.300000X0.300000X-0.300000X0*%
%ADD18RoundRect,0.250000X0.450000X-0.350000X0.450000X0.350000X-0.450000X0.350000X-0.450000X-0.350000X0*%
%ADD19RoundRect,0.250000X0.475000X-0.337500X0.475000X0.337500X-0.475000X0.337500X-0.475000X-0.337500X0*%
%ADD20RoundRect,0.150000X0.150000X-0.587500X0.150000X0.587500X-0.150000X0.587500X-0.150000X-0.587500X0*%
%ADD21RoundRect,0.150000X-0.150000X0.587500X-0.150000X-0.587500X0.150000X-0.587500X0.150000X0.587500X0*%
G04 APERTURE END LIST*
D10*
%TO.C,R14*%
X142310000Y-99000000D03*
X144310000Y-99000000D03*
%TD*%
D11*
%TO.C,R19*%
X132310000Y-106900000D03*
X130310000Y-106900000D03*
%TD*%
D12*
%TO.C,R12*%
X137810000Y-100000000D03*
X137810000Y-102000000D03*
%TD*%
D13*
%TO.C,C8*%
X135572500Y-97300000D03*
X137647500Y-97300000D03*
%TD*%
D10*
%TO.C,R22*%
X134210000Y-106900000D03*
X136210000Y-106900000D03*
%TD*%
D14*
%TO.C,U1*%
X145715000Y-91325000D03*
X144445000Y-91325000D03*
X143175000Y-91325000D03*
X141905000Y-91325000D03*
X141905000Y-96475000D03*
X143175000Y-96475000D03*
X144445000Y-96475000D03*
X145715000Y-96475000D03*
%TD*%
D12*
%TO.C,R20*%
X123010000Y-104500000D03*
X123010000Y-106500000D03*
%TD*%
D15*
%TO.C,D5*%
X144510000Y-88800000D03*
X147310000Y-88800000D03*
%TD*%
D16*
%TO.C,C4*%
X155547500Y-99900000D03*
X153472500Y-99900000D03*
%TD*%
D17*
%TO.C,D4*%
X147310000Y-86400000D03*
X144510000Y-86400000D03*
%TD*%
D16*
%TO.C,C6*%
X156347500Y-87500000D03*
X154272500Y-87500000D03*
%TD*%
D11*
%TO.C,R7*%
X157610000Y-101900000D03*
X155610000Y-101900000D03*
%TD*%
D13*
%TO.C,C3*%
X149472500Y-102800000D03*
X151547500Y-102800000D03*
%TD*%
D12*
%TO.C,R11*%
X138610000Y-93400000D03*
X138610000Y-95400000D03*
%TD*%
D10*
%TO.C,R13*%
X133310000Y-65500000D03*
X135310000Y-65500000D03*
%TD*%
D16*
%TO.C,C12*%
X159647500Y-97600000D03*
X157572500Y-97600000D03*
%TD*%
D18*
%TO.C,R5*%
X151610000Y-106800000D03*
X151610000Y-104800000D03*
%TD*%
D16*
%TO.C,C9*%
X135347500Y-67700000D03*
X133272500Y-67700000D03*
%TD*%
D11*
%TO.C,R9*%
X151510000Y-100700000D03*
X149510000Y-100700000D03*
%TD*%
D10*
%TO.C,R6*%
X151510000Y-108700000D03*
X153510000Y-108700000D03*
%TD*%
%TO.C,R16*%
X119110000Y-104500000D03*
X121110000Y-104500000D03*
%TD*%
%TO.C,R18*%
X130310000Y-102800000D03*
X132310000Y-102800000D03*
%TD*%
D19*
%TO.C,C11*%
X132810000Y-98337500D03*
X132810000Y-96262500D03*
%TD*%
D16*
%TO.C,C14*%
X132347500Y-100800000D03*
X130272500Y-100800000D03*
%TD*%
D13*
%TO.C,C5*%
X158210000Y-87500000D03*
X160285000Y-87500000D03*
%TD*%
D10*
%TO.C,R21*%
X130310000Y-104800000D03*
X132310000Y-104800000D03*
%TD*%
D20*
%TO.C,Q5*%
X161960000Y-91337500D03*
X163860000Y-91337500D03*
X162910000Y-89462500D03*
%TD*%
D18*
%TO.C,R8*%
X152510000Y-85500000D03*
X152510000Y-83500000D03*
%TD*%
D12*
%TO.C,R10*%
X150510000Y-86200000D03*
X150510000Y-88200000D03*
%TD*%
D19*
%TO.C,C7*%
X158810000Y-92837500D03*
X158810000Y-90762500D03*
%TD*%
D13*
%TO.C,C15*%
X134172500Y-104800000D03*
X136247500Y-104800000D03*
%TD*%
D21*
%TO.C,Q2*%
X163810000Y-93400000D03*
X161910000Y-93400000D03*
X162860000Y-95275000D03*
%TD*%
D18*
%TO.C,R17*%
X132810000Y-94500000D03*
X132810000Y-92500000D03*
%TD*%
D17*
%TO.C,D2*%
X160110000Y-95300000D03*
X157310000Y-95300000D03*
%TD*%
D10*
%TO.C,R15*%
X119110000Y-106500000D03*
X121110000Y-106500000D03*
%TD*%
D18*
%TO.C,R4*%
X149610000Y-106800000D03*
X149610000Y-104800000D03*
%TD*%
M02*
