%TF.GenerationSoftware,KiCad,Pcbnew,7.0.2-6a45011f42~172~ubuntu22.04.1*%
%TF.CreationDate,2023-05-30T10:17:06+01:00*%
%TF.ProjectId,GreenBean,47726565-6e42-4656-916e-2e6b69636164,rev?*%
%TF.SameCoordinates,Original*%
%TF.FileFunction,Copper,L2,Bot*%
%TF.FilePolarity,Positive*%
%FSLAX46Y46*%
G04 Gerber Fmt 4.6, Leading zero omitted, Abs format (unit mm)*
G04 Created by KiCad (PCBNEW 7.0.2-6a45011f42~172~ubuntu22.04.1) date 2023-05-30 10:17:06*
%MOMM*%
%LPD*%
G01*
G04 APERTURE LIST*
G04 Aperture macros list*
%AMRoundRect*
0 Rectangle with rounded corners*
0 $1 Rounding radius*
0 $2 $3 $4 $5 $6 $7 $8 $9 X,Y pos of 4 corners*
0 Add a 4 corners polygon primitive as box body*
4,1,4,$2,$3,$4,$5,$6,$7,$8,$9,$2,$3,0*
0 Add four circle primitives for the rounded corners*
1,1,$1+$1,$2,$3*
1,1,$1+$1,$4,$5*
1,1,$1+$1,$6,$7*
1,1,$1+$1,$8,$9*
0 Add four rect primitives between the rounded corners*
20,1,$1+$1,$2,$3,$4,$5,0*
20,1,$1+$1,$4,$5,$6,$7,0*
20,1,$1+$1,$6,$7,$8,$9,0*
20,1,$1+$1,$8,$9,$2,$3,0*%
G04 Aperture macros list end*
%TA.AperFunction,ComponentPad*%
%ADD10R,2.600000X1.500000*%
%TD*%
%TA.AperFunction,ComponentPad*%
%ADD11O,2.600000X1.500000*%
%TD*%
%TA.AperFunction,ComponentPad*%
%ADD12C,3.000000*%
%TD*%
%TA.AperFunction,ComponentPad*%
%ADD13R,1.700000X1.700000*%
%TD*%
%TA.AperFunction,ComponentPad*%
%ADD14O,1.700000X1.700000*%
%TD*%
%TA.AperFunction,ComponentPad*%
%ADD15R,1.600000X1.600000*%
%TD*%
%TA.AperFunction,ComponentPad*%
%ADD16C,1.600000*%
%TD*%
%TA.AperFunction,ComponentPad*%
%ADD17R,2.000000X1.900000*%
%TD*%
%TA.AperFunction,ComponentPad*%
%ADD18C,1.900000*%
%TD*%
%TA.AperFunction,ComponentPad*%
%ADD19C,1.998980*%
%TD*%
%TA.AperFunction,ComponentPad*%
%ADD20R,1.300000X1.300000*%
%TD*%
%TA.AperFunction,ComponentPad*%
%ADD21C,1.300000*%
%TD*%
%TA.AperFunction,ComponentPad*%
%ADD22O,5.000000X3.200000*%
%TD*%
%TA.AperFunction,ComponentPad*%
%ADD23R,1.800000X1.800000*%
%TD*%
%TA.AperFunction,ComponentPad*%
%ADD24C,1.800000*%
%TD*%
%TA.AperFunction,ComponentPad*%
%ADD25O,2.720000X3.240000*%
%TD*%
%TA.AperFunction,ComponentPad*%
%ADD26R,1.100000X1.800000*%
%TD*%
%TA.AperFunction,ComponentPad*%
%ADD27RoundRect,0.275000X0.275000X0.625000X-0.275000X0.625000X-0.275000X-0.625000X0.275000X-0.625000X0*%
%TD*%
%TA.AperFunction,ComponentPad*%
%ADD28R,1.800000X1.100000*%
%TD*%
%TA.AperFunction,ComponentPad*%
%ADD29RoundRect,0.275000X0.625000X-0.275000X0.625000X0.275000X-0.625000X0.275000X-0.625000X-0.275000X0*%
%TD*%
%TA.AperFunction,ComponentPad*%
%ADD30R,2.200000X2.200000*%
%TD*%
%TA.AperFunction,ComponentPad*%
%ADD31O,2.200000X2.200000*%
%TD*%
%TA.AperFunction,ViaPad*%
%ADD32C,0.800000*%
%TD*%
%TA.AperFunction,Conductor*%
%ADD33C,0.400000*%
%TD*%
G04 APERTURE END LIST*
D10*
%TO.P,SW1,1,A*%
%TO.N,Net-(SW1A-A)*%
X148550000Y-137825000D03*
D11*
%TO.P,SW1,2,A*%
X143250000Y-137825000D03*
%TO.P,SW1,3,A*%
%TO.N,I*%
X137950000Y-137825000D03*
%TO.P,SW1,4,B*%
%TO.N,Net-(SW1A-B)*%
X148550000Y-142525000D03*
%TO.P,SW1,5,B*%
%TO.N,Net-(SW1B-B)*%
X143250000Y-142550000D03*
%TO.P,SW1,6,B*%
%TO.N,GND*%
X137950000Y-142525000D03*
%TO.P,SW1,7,C*%
%TO.N,I*%
X148550000Y-147225000D03*
%TO.P,SW1,8,C*%
%TO.N,O*%
X143250000Y-147225000D03*
%TO.P,SW1,9,C*%
%TO.N,Net-(SW1C-C)*%
X137950000Y-147225000D03*
%TD*%
D12*
%TO.P,J3,R*%
%TO.N,unconnected-(J3-PadR)*%
X128660000Y-130730000D03*
%TO.P,J3,RN*%
%TO.N,unconnected-(J3-PadRN)*%
X128660000Y-114500000D03*
%TO.P,J3,S*%
%TO.N,GND*%
X122310000Y-130730000D03*
%TO.P,J3,SN*%
%TO.N,unconnected-(J3-PadSN)*%
X122310000Y-114500000D03*
%TO.P,J3,T*%
%TO.N,Net-(SW1B-B)*%
X135010000Y-130730000D03*
%TO.P,J3,TN*%
%TO.N,unconnected-(J3-PadTN)*%
X135010000Y-114500000D03*
%TD*%
D13*
%TO.P,J1,1,P1*%
%TO.N,+9V*%
X134510000Y-55000000D03*
D14*
%TO.P,J1,2,P2*%
%TO.N,GND*%
X134510000Y-57540000D03*
%TD*%
D13*
%TO.P,JOVGI1,1,P1*%
%TO.N,I*%
X146700000Y-111350000D03*
D14*
%TO.P,JOVGI1,2,P2*%
%TO.N,GND*%
X144160000Y-111350000D03*
%TO.P,JOVGI1,3,P3*%
%TO.N,+9V*%
X141620000Y-111350000D03*
%TO.P,JOVGI1,4,P4*%
%TO.N,O*%
X139080000Y-111350000D03*
%TD*%
D13*
%TO.P,JOVGI2,1,P1*%
%TO.N,I*%
X146700000Y-105800000D03*
D14*
%TO.P,JOVGI2,2,P2*%
%TO.N,GND*%
X144160000Y-105800000D03*
%TO.P,JOVGI2,3,P3*%
%TO.N,+9V*%
X141620000Y-105800000D03*
%TO.P,JOVGI2,4,P4*%
%TO.N,O*%
X139080000Y-105800000D03*
%TD*%
D15*
%TO.P,C2,1*%
%TO.N,+9V*%
X162000000Y-140200000D03*
D16*
%TO.P,C2,2*%
%TO.N,GND*%
X162000000Y-142700000D03*
%TD*%
D17*
%TO.P,D1,1,K*%
%TO.N,Net-(D1-K)*%
X122500000Y-137540000D03*
D18*
%TO.P,D1,2,A*%
%TO.N,+9V*%
X122500000Y-135000000D03*
%TD*%
D19*
%TO.P,R1,1*%
%TO.N,I*%
X155500000Y-135000000D03*
%TO.P,R1,2*%
%TO.N,GND*%
X155500000Y-142620000D03*
%TD*%
%TO.P,R2,1*%
%TO.N,Net-(D1-K)*%
X127760000Y-142600000D03*
%TO.P,R2,2*%
%TO.N,Net-(SW1C-C)*%
X127760000Y-134980000D03*
%TD*%
%TO.P,R3,1*%
%TO.N,O*%
X131010000Y-135000000D03*
%TO.P,R3,2*%
%TO.N,GND*%
X131010000Y-142620000D03*
%TD*%
D20*
%TO.P,C1,1*%
%TO.N,GND*%
X161050000Y-135000000D03*
D21*
%TO.P,C1,2*%
%TO.N,+9V*%
X166050000Y-135000000D03*
%TD*%
D13*
%TO.P,J4,1,P1*%
%TO.N,GND*%
X144140000Y-116810000D03*
D14*
%TO.P,J4,2,P2*%
%TO.N,+9V*%
X141600000Y-116810000D03*
%TD*%
D12*
%TO.P,J2,R*%
%TO.N,unconnected-(J2-PadR)*%
X156925000Y-114500000D03*
%TO.P,J2,RN*%
%TO.N,unconnected-(J2-PadRN)*%
X156925000Y-130730000D03*
%TO.P,J2,S*%
%TO.N,GND*%
X163275000Y-114500000D03*
%TO.P,J2,SN*%
%TO.N,unconnected-(J2-PadSN)*%
X163275000Y-130730000D03*
%TO.P,J2,T*%
%TO.N,Net-(SW1A-B)*%
X150575000Y-114500000D03*
%TO.P,J2,TN*%
%TO.N,GND*%
X150575000Y-130730000D03*
%TD*%
D22*
%TO.P,SW2,1,1*%
%TO.N,Net-(D4-K)*%
X142710000Y-82400000D03*
%TO.P,SW2,2,2*%
%TO.N,B*%
X142710000Y-77950000D03*
%TO.P,SW2,3,3*%
%TO.N,Net-(Q2-D)*%
X142710000Y-73500000D03*
%TD*%
D23*
%TO.P,D6,1,K*%
%TO.N,A*%
X150510000Y-92975000D03*
D24*
%TO.P,D6,2,A*%
%TO.N,B*%
X150510000Y-90435000D03*
%TD*%
D23*
%TO.P,D3,1,K*%
%TO.N,B*%
X155110000Y-90425000D03*
D24*
%TO.P,D3,2,A*%
%TO.N,A*%
X155110000Y-92965000D03*
%TD*%
D25*
%TO.P,LOW1,*%
%TO.N,*%
X155710000Y-77625000D03*
X165310000Y-77625000D03*
D23*
%TO.P,LOW1,1,1*%
%TO.N,unconnected-(LOW1-Pad1)*%
X158010000Y-85125000D03*
D24*
%TO.P,LOW1,2,2*%
%TO.N,Net-(C5-Pad2)*%
X160510000Y-85125000D03*
%TO.P,LOW1,3,3*%
%TO.N,A*%
X163010000Y-85125000D03*
%TD*%
D25*
%TO.P,TONE1,*%
%TO.N,*%
X120110000Y-60100000D03*
X129710000Y-60100000D03*
D23*
%TO.P,TONE1,1,1*%
%TO.N,Net-(U1B-+)*%
X122410000Y-67600000D03*
D24*
%TO.P,TONE1,2,2*%
%TO.N,Net-(C9-Pad2)*%
X124910000Y-67600000D03*
%TO.P,TONE1,3,3*%
%TO.N,Net-(U1B--)*%
X127410000Y-67600000D03*
%TD*%
D15*
%TO.P,C13,1*%
%TO.N,VC*%
X127310000Y-93552651D03*
D16*
%TO.P,C13,2*%
%TO.N,GND*%
X127310000Y-91052651D03*
%TD*%
D25*
%TO.P,DRIVE1,*%
%TO.N,*%
X155710000Y-59935000D03*
X165310000Y-59935000D03*
D23*
%TO.P,DRIVE1,1,1*%
%TO.N,A*%
X158010000Y-67435000D03*
D24*
%TO.P,DRIVE1,2,2*%
%TO.N,Net-(DRIVE1-Pad2)*%
X160510000Y-67435000D03*
%TO.P,DRIVE1,3,3*%
X163010000Y-67435000D03*
%TD*%
D26*
%TO.P,Q1,1,E*%
%TO.N,Net-(Q1-E)*%
X156760000Y-104650000D03*
D27*
%TO.P,Q1,2,C*%
%TO.N,VC*%
X155490000Y-106720000D03*
%TO.P,Q1,3,B*%
%TO.N,Net-(Q1-B)*%
X154220000Y-104650000D03*
%TD*%
D15*
%TO.P,C10,1*%
%TO.N,VB*%
X162710000Y-106400000D03*
D16*
%TO.P,C10,2*%
%TO.N,GND*%
X162710000Y-103900000D03*
%TD*%
D28*
%TO.P,Q4,1,E*%
%TO.N,Net-(Q4-E)*%
X127680000Y-104570000D03*
D29*
%TO.P,Q4,2,C*%
%TO.N,VC*%
X125610000Y-103300000D03*
%TO.P,Q4,3,B*%
%TO.N,Net-(Q4-B)*%
X127680000Y-102030000D03*
%TD*%
D25*
%TO.P,VOL1,*%
%TO.N,*%
X120110000Y-77525000D03*
X129710000Y-77525000D03*
D23*
%TO.P,VOL1,1,1*%
%TO.N,VB*%
X122410000Y-85025000D03*
D24*
%TO.P,VOL1,2,2*%
%TO.N,Net-(C14-Pad1)*%
X124910000Y-85025000D03*
%TO.P,VOL1,3,3*%
%TO.N,Net-(R17-Pad2)*%
X127410000Y-85025000D03*
%TD*%
D30*
%TO.P,D7,1,K*%
%TO.N,VC*%
X120710000Y-101480000D03*
D31*
%TO.P,D7,2,A*%
%TO.N,GND*%
X120710000Y-91320000D03*
%TD*%
D32*
%TO.N,GND*%
X134910000Y-94300000D03*
X140210000Y-86300000D03*
X144510000Y-101500000D03*
X145110000Y-104000000D03*
X149610000Y-107800000D03*
%TO.N,+9V*%
X124710000Y-106700000D03*
%TO.N,VB*%
X148710000Y-100700000D03*
X152110000Y-96900000D03*
X154610000Y-108900000D03*
%TO.N,VC*%
X145710000Y-98400000D03*
X154960000Y-97750000D03*
%TO.N,Net-(U1B--)*%
X140310000Y-91200000D03*
X136210000Y-91200000D03*
%TD*%
D33*
%TO.N,GND*%
X144160000Y-105800000D02*
X144160000Y-106440000D01*
X144750000Y-107030000D02*
X144750000Y-110760000D01*
X144750000Y-110760000D02*
X144160000Y-111350000D01*
X144160000Y-106440000D02*
X144750000Y-107030000D01*
%TO.N,+9V*%
X134510000Y-55000000D02*
X133910000Y-55000000D01*
X125600000Y-131900000D02*
X122500000Y-135000000D01*
X141190000Y-110920000D02*
X141620000Y-111350000D01*
X141650000Y-105770000D02*
X141620000Y-105800000D01*
X140910000Y-103900000D02*
X141620000Y-104610000D01*
X141600000Y-118600000D02*
X142900000Y-119900000D01*
X131900000Y-118600000D02*
X125600000Y-124900000D01*
X141190000Y-106230000D02*
X141190000Y-110920000D01*
X134010000Y-106700000D02*
X136810000Y-103900000D01*
X141620000Y-111350000D02*
X141620000Y-112552081D01*
X141600000Y-112572081D02*
X141600000Y-118100000D01*
X160000000Y-119900000D02*
X166050000Y-125950000D01*
X141600000Y-118100000D02*
X141600000Y-118600000D01*
X125600000Y-124900000D02*
X125600000Y-131900000D01*
X132110000Y-53200000D02*
X121110000Y-53200000D01*
X124710000Y-106700000D02*
X134010000Y-106700000D01*
X121410000Y-106700000D02*
X124710000Y-106700000D01*
X141600000Y-116810000D02*
X141600000Y-118100000D01*
X136810000Y-103900000D02*
X140910000Y-103900000D01*
X121110000Y-53200000D02*
X117110000Y-57200000D01*
X142900000Y-119900000D02*
X160000000Y-119900000D01*
X141620000Y-112552081D02*
X141600000Y-112572081D01*
X166050000Y-125950000D02*
X166050000Y-135000000D01*
X141620000Y-105800000D02*
X141190000Y-106230000D01*
X117110000Y-57200000D02*
X117110000Y-102400000D01*
X133910000Y-55000000D02*
X132110000Y-53200000D01*
X117110000Y-102400000D02*
X121410000Y-106700000D01*
X141600000Y-118600000D02*
X131900000Y-118600000D01*
X141620000Y-104610000D02*
X141620000Y-105800000D01*
%TO.N,Net-(SW1B-B)*%
X143450000Y-142550000D02*
X143250000Y-142550000D01*
X146000000Y-140000000D02*
X143450000Y-142550000D01*
X141500000Y-131400000D02*
X146000000Y-135900000D01*
X146000000Y-135900000D02*
X146000000Y-140000000D01*
X137991320Y-131400000D02*
X141500000Y-131400000D01*
X134950000Y-130480000D02*
X137071320Y-130480000D01*
X137071320Y-130480000D02*
X137991320Y-131400000D01*
%TO.N,A*%
X155110000Y-92965000D02*
X150520000Y-92965000D01*
X163010000Y-79000000D02*
X158010000Y-74000000D01*
X158010000Y-74000000D02*
X158010000Y-67435000D01*
X150520000Y-92965000D02*
X150510000Y-92975000D01*
X163010000Y-85125000D02*
X163010000Y-79000000D01*
%TO.N,B*%
X150510000Y-90435000D02*
X155100000Y-90435000D01*
X155100000Y-90435000D02*
X155110000Y-90425000D01*
%TO.N,VB*%
X152110000Y-96900000D02*
X152110000Y-97300000D01*
X148610000Y-100800000D02*
X148710000Y-100700000D01*
X148610000Y-102900000D02*
X148610000Y-100800000D01*
X152110000Y-97300000D02*
X148710000Y-100700000D01*
X154610000Y-108900000D02*
X148610000Y-102900000D01*
X160210000Y-108900000D02*
X162710000Y-106400000D01*
X154610000Y-108900000D02*
X160210000Y-108900000D01*
%TO.N,VC*%
X127310000Y-94880000D02*
X120710000Y-101480000D01*
X152710000Y-95500000D02*
X154960000Y-97750000D01*
X145710000Y-98400000D02*
X148410000Y-98400000D01*
X145710000Y-98400000D02*
X144610000Y-99500000D01*
X154960000Y-97750000D02*
X155490000Y-98280000D01*
X155490000Y-98280000D02*
X155490000Y-106320000D01*
X142210000Y-99500000D02*
X138410000Y-103300000D01*
X127310000Y-93552651D02*
X127310000Y-94880000D01*
X138410000Y-103300000D02*
X126010000Y-103300000D01*
X151310000Y-95500000D02*
X152710000Y-95500000D01*
X144610000Y-99500000D02*
X142210000Y-99500000D01*
X148410000Y-98400000D02*
X151310000Y-95500000D01*
X124190000Y-101480000D02*
X126010000Y-103300000D01*
X120710000Y-101480000D02*
X124190000Y-101480000D01*
%TO.N,Net-(U1B--)*%
X136210000Y-91200000D02*
X140310000Y-91200000D01*
%TD*%
%TA.AperFunction,Conductor*%
%TO.N,GND*%
G36*
X136616621Y-52095502D02*
G01*
X136663114Y-52149158D01*
X136674500Y-52201500D01*
X136674500Y-62454469D01*
X136672587Y-62476343D01*
X136670876Y-62486048D01*
X136672586Y-62495746D01*
X136674128Y-62513373D01*
X136678707Y-62530467D01*
X136680418Y-62540171D01*
X136683935Y-62546262D01*
X136688452Y-62551645D01*
X136696982Y-62556570D01*
X136714972Y-62569167D01*
X136722518Y-62575499D01*
X136722519Y-62575499D01*
X136722520Y-62575500D01*
X136722521Y-62575500D01*
X136729123Y-62577903D01*
X136736047Y-62579124D01*
X136736047Y-62579123D01*
X136736048Y-62579124D01*
X136745746Y-62577413D01*
X136767625Y-62575500D01*
X148704470Y-62575500D01*
X148726350Y-62577414D01*
X148736047Y-62579124D01*
X148736047Y-62579123D01*
X148736048Y-62579124D01*
X148745746Y-62577413D01*
X148763381Y-62575871D01*
X148780473Y-62571290D01*
X148790172Y-62569581D01*
X148790173Y-62569579D01*
X148796260Y-62566064D01*
X148801641Y-62561549D01*
X148801645Y-62561548D01*
X148806569Y-62553018D01*
X148819165Y-62535028D01*
X148825500Y-62527480D01*
X148825500Y-62527479D01*
X148827902Y-62520879D01*
X148829122Y-62513955D01*
X148829124Y-62513952D01*
X148827414Y-62504253D01*
X148825500Y-62482374D01*
X148825500Y-60263288D01*
X153841500Y-60263288D01*
X153841666Y-60265558D01*
X153841667Y-60265581D01*
X153856466Y-60467781D01*
X153915938Y-60734756D01*
X154013644Y-60990219D01*
X154147507Y-61228738D01*
X154314670Y-61445219D01*
X154511571Y-61635057D01*
X154511574Y-61635059D01*
X154734019Y-61794205D01*
X154977266Y-61919267D01*
X155236130Y-62007579D01*
X155505093Y-62057259D01*
X155778424Y-62067248D01*
X155778424Y-62067247D01*
X155778425Y-62067248D01*
X155846391Y-62059769D01*
X156050296Y-62037334D01*
X156314916Y-61968153D01*
X156566643Y-61861181D01*
X156800112Y-61718697D01*
X157010347Y-61543738D01*
X157192867Y-61340033D01*
X157343783Y-61111923D01*
X157459877Y-60864271D01*
X157538676Y-60602355D01*
X157558482Y-60467781D01*
X157578500Y-60331758D01*
X157578500Y-60263288D01*
X163441500Y-60263288D01*
X163441666Y-60265558D01*
X163441667Y-60265581D01*
X163456466Y-60467781D01*
X163515938Y-60734756D01*
X163613644Y-60990219D01*
X163747507Y-61228738D01*
X163914670Y-61445219D01*
X164111571Y-61635057D01*
X164111574Y-61635059D01*
X164334019Y-61794205D01*
X164577266Y-61919267D01*
X164836130Y-62007579D01*
X165105093Y-62057259D01*
X165378424Y-62067248D01*
X165378424Y-62067247D01*
X165378425Y-62067248D01*
X165446391Y-62059769D01*
X165650296Y-62037334D01*
X165914916Y-61968153D01*
X166166643Y-61861181D01*
X166400112Y-61718697D01*
X166610347Y-61543738D01*
X166792867Y-61340033D01*
X166943783Y-61111923D01*
X167059877Y-60864271D01*
X167138676Y-60602355D01*
X167158482Y-60467781D01*
X167178500Y-60331758D01*
X167178500Y-59609012D01*
X167178500Y-59606712D01*
X167163533Y-59402217D01*
X167104063Y-59135247D01*
X167022917Y-58923083D01*
X167006355Y-58879780D01*
X166872492Y-58641261D01*
X166705329Y-58424780D01*
X166508428Y-58234942D01*
X166456945Y-58198109D01*
X166285981Y-58075795D01*
X166042734Y-57950733D01*
X166042733Y-57950732D01*
X166042730Y-57950731D01*
X165783871Y-57862421D01*
X165514908Y-57812741D01*
X165241574Y-57802751D01*
X164969706Y-57832665D01*
X164705084Y-57901847D01*
X164453358Y-58008818D01*
X164219884Y-58151305D01*
X164009652Y-58326262D01*
X163827136Y-58529962D01*
X163676213Y-58758083D01*
X163560125Y-59005722D01*
X163481322Y-59267649D01*
X163457040Y-59432649D01*
X163441500Y-59538243D01*
X163441500Y-60263288D01*
X157578500Y-60263288D01*
X157578500Y-59609012D01*
X157578500Y-59606712D01*
X157563533Y-59402217D01*
X157504063Y-59135247D01*
X157422917Y-58923083D01*
X157406355Y-58879780D01*
X157272492Y-58641261D01*
X157105329Y-58424780D01*
X156908428Y-58234942D01*
X156856945Y-58198109D01*
X156685981Y-58075795D01*
X156442734Y-57950733D01*
X156442733Y-57950732D01*
X156442730Y-57950731D01*
X156183871Y-57862421D01*
X155914908Y-57812741D01*
X155641574Y-57802751D01*
X155369706Y-57832665D01*
X155105084Y-57901847D01*
X154853358Y-58008818D01*
X154619884Y-58151305D01*
X154409652Y-58326262D01*
X154227136Y-58529962D01*
X154076213Y-58758083D01*
X153960125Y-59005722D01*
X153881322Y-59267649D01*
X153857040Y-59432649D01*
X153841500Y-59538243D01*
X153841500Y-60263288D01*
X148825500Y-60263288D01*
X148825500Y-52201500D01*
X148845502Y-52133379D01*
X148899158Y-52086886D01*
X148951500Y-52075500D01*
X165416537Y-52075500D01*
X165484658Y-52095502D01*
X165505632Y-52112405D01*
X170387595Y-56994368D01*
X170421621Y-57056680D01*
X170424500Y-57083463D01*
X170424500Y-108166535D01*
X170404498Y-108234656D01*
X170387595Y-108255630D01*
X169005631Y-109637595D01*
X168943319Y-109671620D01*
X168916536Y-109674500D01*
X160739507Y-109674500D01*
X160671386Y-109654498D01*
X160624893Y-109600842D01*
X160614789Y-109530568D01*
X160644283Y-109465988D01*
X160667933Y-109444803D01*
X160668678Y-109444289D01*
X160683273Y-109434215D01*
X160723612Y-109388680D01*
X160728795Y-109383173D01*
X162366567Y-107745402D01*
X162428877Y-107711379D01*
X162455660Y-107708500D01*
X163555269Y-107708500D01*
X163558638Y-107708500D01*
X163619201Y-107701989D01*
X163756204Y-107650889D01*
X163873261Y-107563261D01*
X163960889Y-107446204D01*
X164011989Y-107309201D01*
X164018500Y-107248638D01*
X164018500Y-105551362D01*
X164011989Y-105490799D01*
X163960889Y-105353796D01*
X163937471Y-105322513D01*
X163873261Y-105236738D01*
X163756205Y-105149111D01*
X163687702Y-105123561D01*
X163619201Y-105098011D01*
X163611478Y-105097180D01*
X163561993Y-105091860D01*
X163561980Y-105091859D01*
X163558910Y-105091529D01*
X163558720Y-105091508D01*
X163558640Y-105091500D01*
X163558883Y-105091519D01*
X163492515Y-105068097D01*
X163448967Y-105012024D01*
X163446623Y-104995832D01*
X162749518Y-104298727D01*
X162835148Y-104285165D01*
X162948045Y-104227641D01*
X163037641Y-104138045D01*
X163095165Y-104025148D01*
X163108727Y-103939517D01*
X163797097Y-104627888D01*
X163797099Y-104627888D01*
X163847087Y-104556498D01*
X163943813Y-104349070D01*
X164003048Y-104127999D01*
X164022995Y-103899999D01*
X164003048Y-103672000D01*
X163943813Y-103450929D01*
X163847085Y-103243497D01*
X163797100Y-103172110D01*
X163797098Y-103172110D01*
X163108727Y-103860481D01*
X163095165Y-103774852D01*
X163037641Y-103661955D01*
X162948045Y-103572359D01*
X162835148Y-103514835D01*
X162749515Y-103501272D01*
X163437888Y-102812899D01*
X163366497Y-102762912D01*
X163159070Y-102666186D01*
X162937999Y-102606951D01*
X162710000Y-102587004D01*
X162482000Y-102606951D01*
X162260929Y-102666186D01*
X162053499Y-102762913D01*
X161982109Y-102812899D01*
X162670482Y-103501272D01*
X162584852Y-103514835D01*
X162471955Y-103572359D01*
X162382359Y-103661955D01*
X162324835Y-103774852D01*
X162311272Y-103860482D01*
X161622899Y-103172109D01*
X161572913Y-103243499D01*
X161476186Y-103450929D01*
X161416951Y-103672000D01*
X161397004Y-103899999D01*
X161416951Y-104127999D01*
X161476186Y-104349070D01*
X161572912Y-104556497D01*
X161622899Y-104627887D01*
X162311272Y-103939515D01*
X162324835Y-104025148D01*
X162382359Y-104138045D01*
X162471955Y-104227641D01*
X162584852Y-104285165D01*
X162670482Y-104298727D01*
X161970493Y-104998715D01*
X161965304Y-105024533D01*
X161915902Y-105075524D01*
X161861278Y-105091506D01*
X161861360Y-105091500D01*
X161861343Y-105091502D01*
X161861265Y-105091510D01*
X161861262Y-105091510D01*
X161800798Y-105098011D01*
X161800799Y-105098011D01*
X161663794Y-105149111D01*
X161546738Y-105236738D01*
X161459111Y-105353794D01*
X161416066Y-105469202D01*
X161408011Y-105490799D01*
X161401500Y-105551362D01*
X161401500Y-105554730D01*
X161401500Y-106654340D01*
X161381498Y-106722461D01*
X161364595Y-106743435D01*
X159953435Y-108154595D01*
X159891123Y-108188621D01*
X159864340Y-108191500D01*
X156327815Y-108191500D01*
X156259694Y-108171498D01*
X156213201Y-108117842D01*
X156203097Y-108047568D01*
X156232591Y-107982988D01*
X156249867Y-107968170D01*
X156381439Y-107836598D01*
X156381441Y-107836596D01*
X156475376Y-107687099D01*
X156533690Y-107520448D01*
X156548500Y-107389004D01*
X156548500Y-106184499D01*
X156568502Y-106116379D01*
X156622158Y-106069886D01*
X156674500Y-106058500D01*
X157355269Y-106058500D01*
X157358638Y-106058500D01*
X157419201Y-106051989D01*
X157556204Y-106000889D01*
X157673261Y-105913261D01*
X157760889Y-105796204D01*
X157811989Y-105659201D01*
X157818500Y-105598638D01*
X157818500Y-103701362D01*
X157811989Y-103640799D01*
X157760889Y-103503796D01*
X157760888Y-103503794D01*
X157673261Y-103386738D01*
X157556205Y-103299111D01*
X157472916Y-103268046D01*
X157419201Y-103248011D01*
X157358638Y-103241500D01*
X157355269Y-103241500D01*
X156324500Y-103241500D01*
X156256379Y-103221498D01*
X156209886Y-103167842D01*
X156198500Y-103115500D01*
X156198500Y-98305205D01*
X156198730Y-98297597D01*
X156202401Y-98236908D01*
X156197483Y-98210070D01*
X156191435Y-98177068D01*
X156190297Y-98169588D01*
X156182965Y-98109199D01*
X156179348Y-98099662D01*
X156173224Y-98077692D01*
X156171388Y-98067671D01*
X156153733Y-98028444D01*
X156146424Y-98012205D01*
X156143520Y-98005192D01*
X156121953Y-97948323D01*
X156116162Y-97939933D01*
X156104954Y-97920060D01*
X156100775Y-97910774D01*
X156063267Y-97862899D01*
X156058756Y-97856768D01*
X156024215Y-97806727D01*
X155978682Y-97766388D01*
X155973141Y-97761171D01*
X155894664Y-97682694D01*
X155860638Y-97620382D01*
X155858449Y-97606767D01*
X155853542Y-97560071D01*
X155794526Y-97378442D01*
X155699041Y-97213057D01*
X155571252Y-97071133D01*
X155445740Y-96979943D01*
X155416752Y-96958882D01*
X155242288Y-96881206D01*
X155242284Y-96881204D01*
X155089431Y-96848714D01*
X155026957Y-96814986D01*
X155026533Y-96814563D01*
X153228827Y-95016857D01*
X153223610Y-95011316D01*
X153205118Y-94990443D01*
X153183273Y-94965785D01*
X153133224Y-94931238D01*
X153133220Y-94931235D01*
X153127092Y-94926725D01*
X153079224Y-94889223D01*
X153069922Y-94885036D01*
X153050068Y-94873839D01*
X153048781Y-94872951D01*
X153041675Y-94868046D01*
X153041673Y-94868045D01*
X152984822Y-94846483D01*
X152977794Y-94843572D01*
X152922329Y-94818610D01*
X152912289Y-94816770D01*
X152890332Y-94810649D01*
X152880801Y-94807035D01*
X152820432Y-94799704D01*
X152812914Y-94798559D01*
X152805153Y-94797137D01*
X152753093Y-94787597D01*
X152692390Y-94791270D01*
X152684782Y-94791500D01*
X151335206Y-94791500D01*
X151327598Y-94791270D01*
X151266904Y-94787598D01*
X151207097Y-94798558D01*
X151199576Y-94799703D01*
X151139198Y-94807035D01*
X151129663Y-94810651D01*
X151107705Y-94816772D01*
X151097670Y-94818611D01*
X151042221Y-94843566D01*
X151035194Y-94846477D01*
X150978324Y-94868046D01*
X150969927Y-94873842D01*
X150950076Y-94885038D01*
X150940772Y-94889225D01*
X150892898Y-94926731D01*
X150886773Y-94931238D01*
X150836729Y-94965782D01*
X150796388Y-95011317D01*
X150791172Y-95016856D01*
X148153435Y-97654595D01*
X148091123Y-97688620D01*
X148064340Y-97691500D01*
X146321405Y-97691500D01*
X146253284Y-97671498D01*
X146247344Y-97667436D01*
X146209659Y-97640056D01*
X146166752Y-97608882D01*
X145992288Y-97531206D01*
X145805487Y-97491500D01*
X145614513Y-97491500D01*
X145538868Y-97507579D01*
X145427711Y-97531206D01*
X145345567Y-97567779D01*
X145257999Y-97606767D01*
X145253246Y-97608883D01*
X145098747Y-97721133D01*
X144970958Y-97863057D01*
X144875472Y-98028443D01*
X144816458Y-98210070D01*
X144811550Y-98256769D01*
X144784536Y-98322426D01*
X144775336Y-98332692D01*
X144353435Y-98754595D01*
X144291123Y-98788620D01*
X144264339Y-98791500D01*
X142235223Y-98791500D01*
X142227616Y-98791270D01*
X142225540Y-98791144D01*
X142166906Y-98787597D01*
X142107090Y-98798559D01*
X142099569Y-98799704D01*
X142039197Y-98807035D01*
X142029662Y-98810651D01*
X142007711Y-98816770D01*
X142005609Y-98817155D01*
X141997668Y-98818611D01*
X141942213Y-98843569D01*
X141935186Y-98846480D01*
X141878322Y-98868046D01*
X141869926Y-98873842D01*
X141850076Y-98885038D01*
X141840776Y-98889224D01*
X141840774Y-98889225D01*
X141840775Y-98889225D01*
X141792899Y-98926731D01*
X141786785Y-98931230D01*
X141736730Y-98965781D01*
X141696388Y-99011317D01*
X141691172Y-99016856D01*
X138153435Y-102554595D01*
X138091123Y-102588620D01*
X138064340Y-102591500D01*
X129202171Y-102591500D01*
X129134050Y-102571498D01*
X129087557Y-102517842D01*
X129076963Y-102451394D01*
X129088500Y-102349004D01*
X129088500Y-101710996D01*
X129073690Y-101579552D01*
X129015376Y-101412901D01*
X128921441Y-101263404D01*
X128921440Y-101263403D01*
X128921439Y-101263401D01*
X128796598Y-101138560D01*
X128647098Y-101044623D01*
X128480450Y-100986310D01*
X128352513Y-100971895D01*
X128352506Y-100971894D01*
X128349004Y-100971500D01*
X127010996Y-100971500D01*
X127007494Y-100971894D01*
X127007486Y-100971895D01*
X126879549Y-100986310D01*
X126712901Y-101044623D01*
X126563401Y-101138560D01*
X126438560Y-101263401D01*
X126344623Y-101412901D01*
X126286310Y-101579549D01*
X126286310Y-101579552D01*
X126271500Y-101710996D01*
X126271500Y-101714531D01*
X126271500Y-101714532D01*
X126271500Y-102115500D01*
X126251498Y-102183621D01*
X126197842Y-102230114D01*
X126145500Y-102241500D01*
X126005660Y-102241500D01*
X125937539Y-102221498D01*
X125916565Y-102204595D01*
X124708827Y-100996857D01*
X124703610Y-100991316D01*
X124699175Y-100986310D01*
X124663273Y-100945785D01*
X124632743Y-100924711D01*
X124613220Y-100911235D01*
X124607092Y-100906725D01*
X124559224Y-100869223D01*
X124549922Y-100865036D01*
X124530068Y-100853839D01*
X124528781Y-100852951D01*
X124521675Y-100848046D01*
X124521673Y-100848045D01*
X124464822Y-100826483D01*
X124457794Y-100823572D01*
X124402329Y-100798610D01*
X124392289Y-100796770D01*
X124370332Y-100790649D01*
X124360801Y-100787035D01*
X124300432Y-100779704D01*
X124292914Y-100778559D01*
X124285153Y-100777137D01*
X124233093Y-100767597D01*
X124172390Y-100771270D01*
X124164782Y-100771500D01*
X122724660Y-100771500D01*
X122656539Y-100751498D01*
X122610046Y-100697842D01*
X122599942Y-100627568D01*
X122629436Y-100562988D01*
X122635565Y-100556405D01*
X123923177Y-99268793D01*
X127793157Y-95398811D01*
X127798683Y-95393610D01*
X127844215Y-95353273D01*
X127878774Y-95303204D01*
X127883256Y-95297113D01*
X127920775Y-95249225D01*
X127924956Y-95239934D01*
X127936163Y-95220064D01*
X127941955Y-95211673D01*
X127963516Y-95154818D01*
X127966418Y-95147809D01*
X127991389Y-95092329D01*
X127993228Y-95082290D01*
X127999350Y-95060332D01*
X128002965Y-95050801D01*
X128010299Y-94990396D01*
X128011439Y-94982912D01*
X128014826Y-94964434D01*
X128046782Y-94901036D01*
X128107941Y-94864979D01*
X128138761Y-94861151D01*
X128155269Y-94861151D01*
X128158638Y-94861151D01*
X128219201Y-94854640D01*
X128356204Y-94803540D01*
X128473261Y-94715912D01*
X128560889Y-94598855D01*
X128611989Y-94461852D01*
X128618500Y-94401289D01*
X128618500Y-92704013D01*
X128611989Y-92643450D01*
X128560889Y-92506447D01*
X128526525Y-92460542D01*
X128473261Y-92389389D01*
X128356205Y-92301762D01*
X128265892Y-92268077D01*
X128219201Y-92250662D01*
X128211478Y-92249831D01*
X128161993Y-92244511D01*
X128161980Y-92244510D01*
X128158910Y-92244180D01*
X128158720Y-92244159D01*
X128158640Y-92244151D01*
X128158883Y-92244170D01*
X128092515Y-92220748D01*
X128048967Y-92164675D01*
X128046623Y-92148483D01*
X127349518Y-91451378D01*
X127435148Y-91437816D01*
X127548045Y-91380292D01*
X127637641Y-91290696D01*
X127695165Y-91177799D01*
X127708727Y-91092168D01*
X128397097Y-91780539D01*
X128397099Y-91780539D01*
X128447087Y-91709149D01*
X128543813Y-91501721D01*
X128603048Y-91280650D01*
X128610104Y-91200000D01*
X135296496Y-91200000D01*
X135316458Y-91389929D01*
X135375472Y-91571556D01*
X135470958Y-91736942D01*
X135552037Y-91826989D01*
X135598747Y-91878866D01*
X135753248Y-91991118D01*
X135927712Y-92068794D01*
X136114513Y-92108500D01*
X136114515Y-92108500D01*
X136305485Y-92108500D01*
X136305487Y-92108500D01*
X136492288Y-92068794D01*
X136666752Y-91991118D01*
X136747344Y-91932563D01*
X136814212Y-91908706D01*
X136821405Y-91908500D01*
X139698595Y-91908500D01*
X139766716Y-91928502D01*
X139772655Y-91932563D01*
X139853248Y-91991118D01*
X140027712Y-92068794D01*
X140214513Y-92108500D01*
X140214515Y-92108500D01*
X140405485Y-92108500D01*
X140405487Y-92108500D01*
X140592288Y-92068794D01*
X140766752Y-91991118D01*
X140921253Y-91878866D01*
X141049040Y-91736944D01*
X141144527Y-91571556D01*
X141203542Y-91389928D01*
X141223504Y-91200000D01*
X141203542Y-91010072D01*
X141144527Y-90828444D01*
X141144527Y-90828443D01*
X141049041Y-90663057D01*
X140921252Y-90521133D01*
X140802700Y-90435000D01*
X149096673Y-90435000D01*
X149115949Y-90667626D01*
X149115949Y-90667629D01*
X149115950Y-90667630D01*
X149172096Y-90889348D01*
X149173251Y-90893907D01*
X149267016Y-91107669D01*
X149394686Y-91303083D01*
X149479842Y-91395587D01*
X149511263Y-91459251D01*
X149503276Y-91529797D01*
X149458417Y-91584826D01*
X149431174Y-91598980D01*
X149363793Y-91624111D01*
X149246738Y-91711738D01*
X149159111Y-91828794D01*
X149108011Y-91965799D01*
X149101500Y-92026362D01*
X149101500Y-93923638D01*
X149108011Y-93984201D01*
X149115701Y-94004818D01*
X149159111Y-94121205D01*
X149246738Y-94238261D01*
X149363794Y-94325888D01*
X149363795Y-94325888D01*
X149363796Y-94325889D01*
X149500799Y-94376989D01*
X149561362Y-94383500D01*
X149564731Y-94383500D01*
X151455269Y-94383500D01*
X151458638Y-94383500D01*
X151519201Y-94376989D01*
X151656204Y-94325889D01*
X151773261Y-94238261D01*
X151860889Y-94121204D01*
X151911989Y-93984201D01*
X151918500Y-93923638D01*
X151918500Y-93799499D01*
X151938502Y-93731379D01*
X151992158Y-93684886D01*
X152044500Y-93673500D01*
X153822237Y-93673500D01*
X153890358Y-93693502D01*
X153927719Y-93730583D01*
X153994686Y-93833083D01*
X154152780Y-94004818D01*
X154336983Y-94148190D01*
X154542273Y-94259287D01*
X154763049Y-94335080D01*
X154993288Y-94373500D01*
X154993291Y-94373500D01*
X155226709Y-94373500D01*
X155226712Y-94373500D01*
X155456951Y-94335080D01*
X155677727Y-94259287D01*
X155883017Y-94148190D01*
X156067220Y-94004818D01*
X156225314Y-93833083D01*
X156352984Y-93637669D01*
X156446749Y-93423907D01*
X156504051Y-93197626D01*
X156523327Y-92965000D01*
X156504051Y-92732374D01*
X156446749Y-92506093D01*
X156352984Y-92292331D01*
X156225314Y-92096917D01*
X156140156Y-92004411D01*
X156108736Y-91940748D01*
X156116723Y-91870202D01*
X156161582Y-91815173D01*
X156188823Y-91801021D01*
X156229803Y-91785735D01*
X156256205Y-91775889D01*
X156373261Y-91688261D01*
X156440096Y-91598980D01*
X156460889Y-91571204D01*
X156511989Y-91434201D01*
X156518500Y-91373638D01*
X156518500Y-89476362D01*
X156511989Y-89415799D01*
X156460889Y-89278796D01*
X156460888Y-89278794D01*
X156373261Y-89161738D01*
X156256205Y-89074111D01*
X156187702Y-89048561D01*
X156119201Y-89023011D01*
X156058638Y-89016500D01*
X154161362Y-89016500D01*
X154158013Y-89016859D01*
X154158013Y-89016860D01*
X154100799Y-89023011D01*
X153963794Y-89074111D01*
X153846738Y-89161738D01*
X153759111Y-89278794D01*
X153715701Y-89395182D01*
X153708011Y-89415799D01*
X153701500Y-89476362D01*
X153701500Y-89479730D01*
X153701500Y-89600500D01*
X153681498Y-89668621D01*
X153627842Y-89715114D01*
X153575500Y-89726500D01*
X151797763Y-89726500D01*
X151729642Y-89706498D01*
X151692280Y-89669416D01*
X151625313Y-89566916D01*
X151467220Y-89395182D01*
X151317688Y-89278796D01*
X151283017Y-89251810D01*
X151116580Y-89161739D01*
X151077726Y-89140712D01*
X150883723Y-89074111D01*
X150856951Y-89064920D01*
X150626712Y-89026500D01*
X150393288Y-89026500D01*
X150163049Y-89064920D01*
X150163046Y-89064920D01*
X150163046Y-89064921D01*
X149942273Y-89140712D01*
X149736984Y-89251809D01*
X149552779Y-89395182D01*
X149394684Y-89566919D01*
X149267016Y-89762330D01*
X149173250Y-89976094D01*
X149163379Y-90015075D01*
X149115949Y-90202374D01*
X149096673Y-90435000D01*
X140802700Y-90435000D01*
X140766753Y-90408883D01*
X140766752Y-90408882D01*
X140592288Y-90331206D01*
X140405487Y-90291500D01*
X140214513Y-90291500D01*
X140089978Y-90317970D01*
X140027711Y-90331206D01*
X139853246Y-90408883D01*
X139772656Y-90467436D01*
X139705788Y-90491294D01*
X139698595Y-90491500D01*
X136821405Y-90491500D01*
X136753284Y-90471498D01*
X136747344Y-90467436D01*
X136666753Y-90408883D01*
X136666752Y-90408882D01*
X136492288Y-90331206D01*
X136305487Y-90291500D01*
X136114513Y-90291500D01*
X135989979Y-90317970D01*
X135927711Y-90331206D01*
X135753246Y-90408883D01*
X135598747Y-90521133D01*
X135470958Y-90663057D01*
X135375472Y-90828443D01*
X135316458Y-91010070D01*
X135296496Y-91200000D01*
X128610104Y-91200000D01*
X128622995Y-91052651D01*
X128603048Y-90824651D01*
X128543813Y-90603580D01*
X128447085Y-90396148D01*
X128397100Y-90324761D01*
X128397098Y-90324761D01*
X127708727Y-91013132D01*
X127695165Y-90927503D01*
X127637641Y-90814606D01*
X127548045Y-90725010D01*
X127435148Y-90667486D01*
X127349514Y-90653923D01*
X128037888Y-89965550D01*
X127966497Y-89915563D01*
X127759070Y-89818837D01*
X127537999Y-89759602D01*
X127309999Y-89739655D01*
X127082000Y-89759602D01*
X126860929Y-89818837D01*
X126653499Y-89915564D01*
X126582109Y-89965550D01*
X127270483Y-90653923D01*
X127184852Y-90667486D01*
X127071955Y-90725010D01*
X126982359Y-90814606D01*
X126924835Y-90927503D01*
X126911272Y-91013132D01*
X126222900Y-90324760D01*
X126172913Y-90396150D01*
X126076186Y-90603580D01*
X126016951Y-90824651D01*
X125997004Y-91052650D01*
X126016951Y-91280650D01*
X126076186Y-91501721D01*
X126172912Y-91709148D01*
X126222899Y-91780538D01*
X126911272Y-91092167D01*
X126924835Y-91177799D01*
X126982359Y-91290696D01*
X127071955Y-91380292D01*
X127184852Y-91437816D01*
X127270482Y-91451378D01*
X126570493Y-92151366D01*
X126565304Y-92177184D01*
X126515902Y-92228175D01*
X126461278Y-92244157D01*
X126461360Y-92244151D01*
X126461343Y-92244153D01*
X126461265Y-92244161D01*
X126461262Y-92244161D01*
X126448777Y-92245504D01*
X126400799Y-92250662D01*
X126263794Y-92301762D01*
X126146738Y-92389389D01*
X126059111Y-92506445D01*
X126014921Y-92624924D01*
X126008011Y-92643450D01*
X126001500Y-92704013D01*
X126001500Y-94401289D01*
X126001860Y-94404637D01*
X126008011Y-94461851D01*
X126059111Y-94598856D01*
X126146736Y-94715909D01*
X126146737Y-94715910D01*
X126146739Y-94715912D01*
X126216412Y-94768069D01*
X126258957Y-94824903D01*
X126264023Y-94895719D01*
X126229998Y-94958031D01*
X126229997Y-94958031D01*
X121353435Y-99834595D01*
X121291123Y-99868620D01*
X121264340Y-99871500D01*
X119561362Y-99871500D01*
X119558013Y-99871859D01*
X119558013Y-99871860D01*
X119500799Y-99878011D01*
X119363794Y-99929111D01*
X119246738Y-100016738D01*
X119159111Y-100133794D01*
X119108011Y-100270798D01*
X119108011Y-100270799D01*
X119101500Y-100331362D01*
X119101500Y-102628638D01*
X119108011Y-102689201D01*
X119123853Y-102731675D01*
X119159111Y-102826205D01*
X119246738Y-102943261D01*
X119363794Y-103030888D01*
X119363795Y-103030888D01*
X119363796Y-103030889D01*
X119500799Y-103081989D01*
X119561362Y-103088500D01*
X119564731Y-103088500D01*
X121855269Y-103088500D01*
X121858638Y-103088500D01*
X121919201Y-103081989D01*
X122056204Y-103030889D01*
X122173261Y-102943261D01*
X122260889Y-102826204D01*
X122311989Y-102689201D01*
X122318500Y-102628638D01*
X122318500Y-102314499D01*
X122338502Y-102246379D01*
X122392158Y-102199886D01*
X122444500Y-102188500D01*
X123844340Y-102188500D01*
X123912461Y-102208502D01*
X123933435Y-102225405D01*
X124248790Y-102540760D01*
X124282816Y-102603072D01*
X124278624Y-102671470D01*
X124216310Y-102849549D01*
X124205752Y-102943261D01*
X124201500Y-102980996D01*
X124201500Y-103619004D01*
X124201894Y-103622506D01*
X124201895Y-103622513D01*
X124216310Y-103750450D01*
X124274623Y-103917098D01*
X124368560Y-104066598D01*
X124493401Y-104191439D01*
X124493403Y-104191440D01*
X124493404Y-104191441D01*
X124642901Y-104285376D01*
X124809552Y-104343690D01*
X124940996Y-104358500D01*
X126145500Y-104358500D01*
X126213621Y-104378502D01*
X126260114Y-104432158D01*
X126271500Y-104484500D01*
X126271500Y-105168638D01*
X126278011Y-105229201D01*
X126280823Y-105236739D01*
X126329111Y-105366205D01*
X126416738Y-105483261D01*
X126533794Y-105570888D01*
X126533795Y-105570888D01*
X126533796Y-105570889D01*
X126670799Y-105621989D01*
X126731362Y-105628500D01*
X126734731Y-105628500D01*
X128625269Y-105628500D01*
X128628638Y-105628500D01*
X128689201Y-105621989D01*
X128826204Y-105570889D01*
X128943261Y-105483261D01*
X129030889Y-105366204D01*
X129081989Y-105229201D01*
X129088500Y-105168638D01*
X129088500Y-104134500D01*
X129108502Y-104066379D01*
X129162158Y-104019886D01*
X129214500Y-104008500D01*
X135395340Y-104008500D01*
X135463461Y-104028502D01*
X135509954Y-104082158D01*
X135520058Y-104152432D01*
X135490564Y-104217012D01*
X135484435Y-104223595D01*
X133753435Y-105954595D01*
X133691123Y-105988621D01*
X133664340Y-105991500D01*
X125321405Y-105991500D01*
X125253284Y-105971498D01*
X125247344Y-105967436D01*
X125166753Y-105908883D01*
X125166752Y-105908882D01*
X124992288Y-105831206D01*
X124805487Y-105791500D01*
X124614513Y-105791500D01*
X124489979Y-105817970D01*
X124427711Y-105831206D01*
X124253246Y-105908883D01*
X124172656Y-105967436D01*
X124105788Y-105991294D01*
X124098595Y-105991500D01*
X121755660Y-105991500D01*
X121687539Y-105971498D01*
X121666565Y-105954595D01*
X117855404Y-102143434D01*
X117821378Y-102081122D01*
X117818499Y-102054348D01*
X117818499Y-91574000D01*
X119117289Y-91574000D01*
X119175972Y-91818437D01*
X119272832Y-92052277D01*
X119405075Y-92268077D01*
X119569457Y-92460542D01*
X119761922Y-92624924D01*
X119977722Y-92757167D01*
X120211562Y-92854027D01*
X120456000Y-92912710D01*
X120456000Y-91809251D01*
X120488819Y-91829209D01*
X120634404Y-91870000D01*
X120747622Y-91870000D01*
X120859783Y-91854584D01*
X120964000Y-91809316D01*
X120964000Y-92912709D01*
X121208437Y-92854027D01*
X121442277Y-92757167D01*
X121658077Y-92624924D01*
X121850542Y-92460542D01*
X122014924Y-92268077D01*
X122147167Y-92052277D01*
X122244027Y-91818437D01*
X122302711Y-91574000D01*
X121203431Y-91574000D01*
X121253559Y-91432953D01*
X121263877Y-91282114D01*
X121233116Y-91134085D01*
X121197837Y-91066000D01*
X122302711Y-91066000D01*
X122244027Y-90821562D01*
X122147167Y-90587722D01*
X122014924Y-90371922D01*
X121850542Y-90179457D01*
X121658077Y-90015075D01*
X121442277Y-89882832D01*
X121208437Y-89785972D01*
X120963999Y-89727288D01*
X120963999Y-90830748D01*
X120931181Y-90810791D01*
X120785596Y-90770000D01*
X120672378Y-90770000D01*
X120560217Y-90785416D01*
X120456000Y-90830683D01*
X120456000Y-89727288D01*
X120211562Y-89785972D01*
X119977722Y-89882832D01*
X119761922Y-90015075D01*
X119569457Y-90179457D01*
X119405075Y-90371922D01*
X119272832Y-90587722D01*
X119175972Y-90821562D01*
X119117289Y-91066000D01*
X120216569Y-91066000D01*
X120166441Y-91207047D01*
X120156123Y-91357886D01*
X120186884Y-91505915D01*
X120222163Y-91574000D01*
X119117289Y-91574000D01*
X117818499Y-91574000D01*
X117818499Y-85973638D01*
X121001500Y-85973638D01*
X121008011Y-86034201D01*
X121023969Y-86076986D01*
X121059111Y-86171205D01*
X121146738Y-86288261D01*
X121263794Y-86375888D01*
X121263795Y-86375888D01*
X121263796Y-86375889D01*
X121400799Y-86426989D01*
X121461362Y-86433500D01*
X121464731Y-86433500D01*
X123355269Y-86433500D01*
X123358638Y-86433500D01*
X123419201Y-86426989D01*
X123556204Y-86375889D01*
X123673261Y-86288261D01*
X123755477Y-86178434D01*
X123760889Y-86171205D01*
X123772922Y-86138940D01*
X123774827Y-86133834D01*
X123817373Y-86076999D01*
X123883893Y-86052187D01*
X123953267Y-86067278D01*
X123970272Y-86078432D01*
X124136983Y-86208190D01*
X124342273Y-86319287D01*
X124563049Y-86395080D01*
X124793288Y-86433500D01*
X124793291Y-86433500D01*
X125026709Y-86433500D01*
X125026712Y-86433500D01*
X125256951Y-86395080D01*
X125477727Y-86319287D01*
X125683017Y-86208190D01*
X125867220Y-86064818D01*
X126025314Y-85893083D01*
X126054518Y-85848381D01*
X126108518Y-85802296D01*
X126178866Y-85792720D01*
X126243223Y-85822696D01*
X126265481Y-85848382D01*
X126294686Y-85893083D01*
X126452780Y-86064818D01*
X126636983Y-86208190D01*
X126842273Y-86319287D01*
X127063049Y-86395080D01*
X127293288Y-86433500D01*
X127293291Y-86433500D01*
X127526709Y-86433500D01*
X127526712Y-86433500D01*
X127756951Y-86395080D01*
X127977727Y-86319287D01*
X128183017Y-86208190D01*
X128355888Y-86073638D01*
X156601500Y-86073638D01*
X156608011Y-86134201D01*
X156619431Y-86164818D01*
X156659111Y-86271205D01*
X156746738Y-86388261D01*
X156863794Y-86475888D01*
X156863795Y-86475888D01*
X156863796Y-86475889D01*
X157000799Y-86526989D01*
X157061362Y-86533500D01*
X157064731Y-86533500D01*
X158955269Y-86533500D01*
X158958638Y-86533500D01*
X159019201Y-86526989D01*
X159156204Y-86475889D01*
X159273261Y-86388261D01*
X159282523Y-86375888D01*
X159360889Y-86271205D01*
X159374827Y-86233835D01*
X159417373Y-86176999D01*
X159483893Y-86152187D01*
X159553267Y-86167278D01*
X159570272Y-86178432D01*
X159736983Y-86308190D01*
X159942273Y-86419287D01*
X160163049Y-86495080D01*
X160393288Y-86533500D01*
X160393291Y-86533500D01*
X160626709Y-86533500D01*
X160626712Y-86533500D01*
X160856951Y-86495080D01*
X161077727Y-86419287D01*
X161283017Y-86308190D01*
X161467220Y-86164818D01*
X161625314Y-85993083D01*
X161654517Y-85948383D01*
X161708520Y-85902295D01*
X161778868Y-85892720D01*
X161843226Y-85922697D01*
X161865482Y-85948382D01*
X161894686Y-85993083D01*
X162052780Y-86164818D01*
X162236983Y-86308190D01*
X162442273Y-86419287D01*
X162663049Y-86495080D01*
X162893288Y-86533500D01*
X162893291Y-86533500D01*
X163126709Y-86533500D01*
X163126712Y-86533500D01*
X163356951Y-86495080D01*
X163577727Y-86419287D01*
X163783017Y-86308190D01*
X163967220Y-86164818D01*
X164125314Y-85993083D01*
X164252984Y-85797669D01*
X164346749Y-85583907D01*
X164404051Y-85357626D01*
X164423327Y-85125000D01*
X164404051Y-84892374D01*
X164346749Y-84666093D01*
X164252984Y-84452331D01*
X164125314Y-84256917D01*
X163967220Y-84085182D01*
X163783017Y-83941810D01*
X163783014Y-83941808D01*
X163774778Y-83935398D01*
X163775852Y-83934017D01*
X163734136Y-83892607D01*
X163718500Y-83831815D01*
X163718500Y-79242589D01*
X163738502Y-79174468D01*
X163792158Y-79127975D01*
X163862432Y-79117871D01*
X163927012Y-79147365D01*
X163931934Y-79151864D01*
X164007851Y-79225057D01*
X164111571Y-79325057D01*
X164111574Y-79325059D01*
X164334019Y-79484205D01*
X164577266Y-79609267D01*
X164836130Y-79697579D01*
X165105093Y-79747259D01*
X165378424Y-79757248D01*
X165378424Y-79757247D01*
X165378425Y-79757248D01*
X165446391Y-79749769D01*
X165650296Y-79727334D01*
X165914916Y-79658153D01*
X166166643Y-79551181D01*
X166400112Y-79408697D01*
X166610347Y-79233738D01*
X166792867Y-79030033D01*
X166943783Y-78801923D01*
X167059877Y-78554271D01*
X167138676Y-78292355D01*
X167142812Y-78264256D01*
X167178500Y-78021758D01*
X167178500Y-77299012D01*
X167178500Y-77296712D01*
X167163533Y-77092217D01*
X167104063Y-76825247D01*
X167050185Y-76684379D01*
X167006355Y-76569780D01*
X166872492Y-76331261D01*
X166705329Y-76114780D01*
X166508428Y-75924942D01*
X166456945Y-75888109D01*
X166285981Y-75765795D01*
X166042734Y-75640733D01*
X166042733Y-75640732D01*
X166042730Y-75640731D01*
X165783871Y-75552421D01*
X165514908Y-75502741D01*
X165241574Y-75492751D01*
X164969706Y-75522665D01*
X164705084Y-75591847D01*
X164453358Y-75698818D01*
X164219884Y-75841305D01*
X164009652Y-76016262D01*
X163827136Y-76219962D01*
X163676213Y-76448083D01*
X163560125Y-76695722D01*
X163481322Y-76957649D01*
X163446478Y-77194418D01*
X163441500Y-77228243D01*
X163441500Y-77953288D01*
X163441666Y-77955558D01*
X163441667Y-77955581D01*
X163454386Y-78129365D01*
X163439409Y-78198764D01*
X163389290Y-78249050D01*
X163319941Y-78264256D01*
X163253380Y-78239555D01*
X163239627Y-78227657D01*
X161028232Y-76016262D01*
X158755405Y-73743434D01*
X158721379Y-73681122D01*
X158718500Y-73654339D01*
X158718500Y-68969500D01*
X158738502Y-68901379D01*
X158792158Y-68854886D01*
X158844500Y-68843500D01*
X158955269Y-68843500D01*
X158958638Y-68843500D01*
X159019201Y-68836989D01*
X159156204Y-68785889D01*
X159273261Y-68698261D01*
X159306818Y-68653434D01*
X159360889Y-68581205D01*
X159374827Y-68543835D01*
X159417373Y-68486999D01*
X159483893Y-68462187D01*
X159553267Y-68477278D01*
X159570272Y-68488432D01*
X159736983Y-68618190D01*
X159942273Y-68729287D01*
X160163049Y-68805080D01*
X160393288Y-68843500D01*
X160393291Y-68843500D01*
X160626709Y-68843500D01*
X160626712Y-68843500D01*
X160856951Y-68805080D01*
X161077727Y-68729287D01*
X161283017Y-68618190D01*
X161467220Y-68474818D01*
X161625314Y-68303083D01*
X161654517Y-68258383D01*
X161708520Y-68212295D01*
X161778868Y-68202720D01*
X161843226Y-68232697D01*
X161865482Y-68258382D01*
X161894686Y-68303083D01*
X162052780Y-68474818D01*
X162236983Y-68618190D01*
X162442273Y-68729287D01*
X162663049Y-68805080D01*
X162893288Y-68843500D01*
X162893291Y-68843500D01*
X163126709Y-68843500D01*
X163126712Y-68843500D01*
X163356951Y-68805080D01*
X163577727Y-68729287D01*
X163783017Y-68618190D01*
X163967220Y-68474818D01*
X164125314Y-68303083D01*
X164252984Y-68107669D01*
X164346749Y-67893907D01*
X164404051Y-67667626D01*
X164423327Y-67435000D01*
X164404051Y-67202374D01*
X164346749Y-66976093D01*
X164252984Y-66762331D01*
X164125314Y-66566917D01*
X163967220Y-66395182D01*
X163783017Y-66251810D01*
X163672239Y-66191860D01*
X163577726Y-66140712D01*
X163412852Y-66084111D01*
X163356951Y-66064920D01*
X163126712Y-66026500D01*
X162893288Y-66026500D01*
X162663049Y-66064920D01*
X162663046Y-66064920D01*
X162663046Y-66064921D01*
X162442273Y-66140712D01*
X162236984Y-66251809D01*
X162052779Y-66395182D01*
X161894683Y-66566920D01*
X161865482Y-66611616D01*
X161811479Y-66657704D01*
X161741131Y-66667279D01*
X161676774Y-66637301D01*
X161654518Y-66611616D01*
X161625316Y-66566920D01*
X161625315Y-66566919D01*
X161625314Y-66566917D01*
X161467220Y-66395182D01*
X161283017Y-66251810D01*
X161172239Y-66191860D01*
X161077726Y-66140712D01*
X160912852Y-66084111D01*
X160856951Y-66064920D01*
X160626712Y-66026500D01*
X160393288Y-66026500D01*
X160163049Y-66064920D01*
X160163046Y-66064920D01*
X160163046Y-66064921D01*
X159942273Y-66140712D01*
X159736984Y-66251809D01*
X159570274Y-66381565D01*
X159504231Y-66407621D01*
X159434586Y-66393835D01*
X159383449Y-66344585D01*
X159374827Y-66326165D01*
X159360888Y-66288794D01*
X159273261Y-66171738D01*
X159156205Y-66084111D01*
X159087702Y-66058560D01*
X159019201Y-66033011D01*
X158958638Y-66026500D01*
X157061362Y-66026500D01*
X157058013Y-66026859D01*
X157058013Y-66026860D01*
X157000799Y-66033011D01*
X156863794Y-66084111D01*
X156746738Y-66171738D01*
X156659111Y-66288794D01*
X156619933Y-66393835D01*
X156608011Y-66425799D01*
X156601500Y-66486362D01*
X156601500Y-68383638D01*
X156608011Y-68444201D01*
X156619431Y-68474818D01*
X156659111Y-68581205D01*
X156746738Y-68698261D01*
X156863794Y-68785888D01*
X156863795Y-68785888D01*
X156863796Y-68785889D01*
X157000799Y-68836989D01*
X157061362Y-68843500D01*
X157175500Y-68843500D01*
X157243621Y-68863502D01*
X157290114Y-68917158D01*
X157301500Y-68969500D01*
X157301500Y-73974781D01*
X157301270Y-73982389D01*
X157297597Y-74043093D01*
X157308559Y-74102910D01*
X157309704Y-74110432D01*
X157317035Y-74170801D01*
X157320649Y-74180332D01*
X157326770Y-74202289D01*
X157328610Y-74212329D01*
X157353572Y-74267794D01*
X157356483Y-74274822D01*
X157378045Y-74331673D01*
X157383839Y-74340068D01*
X157395036Y-74359922D01*
X157399223Y-74369224D01*
X157436725Y-74417092D01*
X157441235Y-74423220D01*
X157475785Y-74473273D01*
X157521316Y-74513610D01*
X157526857Y-74518827D01*
X162264595Y-79256564D01*
X162298621Y-79318876D01*
X162301500Y-79345659D01*
X162301500Y-83831815D01*
X162281498Y-83899936D01*
X162244402Y-83934345D01*
X162245222Y-83935398D01*
X162236985Y-83941808D01*
X162236983Y-83941810D01*
X162189464Y-83978796D01*
X162052779Y-84085182D01*
X161894683Y-84256920D01*
X161865482Y-84301616D01*
X161811479Y-84347704D01*
X161741131Y-84357279D01*
X161676774Y-84327301D01*
X161654518Y-84301616D01*
X161625316Y-84256920D01*
X161625315Y-84256919D01*
X161625314Y-84256917D01*
X161467220Y-84085182D01*
X161283017Y-83941810D01*
X161218500Y-83906895D01*
X161077726Y-83830712D01*
X160912852Y-83774111D01*
X160856951Y-83754920D01*
X160626712Y-83716500D01*
X160393288Y-83716500D01*
X160163049Y-83754920D01*
X160163046Y-83754920D01*
X160163046Y-83754921D01*
X159942273Y-83830712D01*
X159736984Y-83941809D01*
X159570274Y-84071565D01*
X159504231Y-84097621D01*
X159434586Y-84083835D01*
X159383449Y-84034585D01*
X159374827Y-84016165D01*
X159360889Y-83978796D01*
X159328402Y-83935398D01*
X159273261Y-83861738D01*
X159156205Y-83774111D01*
X159087702Y-83748561D01*
X159019201Y-83723011D01*
X158958638Y-83716500D01*
X157061362Y-83716500D01*
X157058013Y-83716859D01*
X157058013Y-83716860D01*
X157000799Y-83723011D01*
X156863794Y-83774111D01*
X156746738Y-83861738D01*
X156659111Y-83978794D01*
X156622720Y-84076362D01*
X156608011Y-84115799D01*
X156601500Y-84176362D01*
X156601500Y-86073638D01*
X128355888Y-86073638D01*
X128367220Y-86064818D01*
X128525314Y-85893083D01*
X128652984Y-85697669D01*
X128746749Y-85483907D01*
X128804051Y-85257626D01*
X128823327Y-85025000D01*
X128804051Y-84792374D01*
X128746749Y-84566093D01*
X128652984Y-84352331D01*
X128525314Y-84156917D01*
X128367220Y-83985182D01*
X128183017Y-83841810D01*
X128057920Y-83774111D01*
X127977726Y-83730712D01*
X127812852Y-83674111D01*
X127756951Y-83654920D01*
X127526712Y-83616500D01*
X127293288Y-83616500D01*
X127063049Y-83654920D01*
X127063046Y-83654920D01*
X127063046Y-83654921D01*
X126842273Y-83730712D01*
X126636984Y-83841809D01*
X126452779Y-83985182D01*
X126294683Y-84156920D01*
X126265482Y-84201616D01*
X126211479Y-84247704D01*
X126141131Y-84257279D01*
X126076774Y-84227301D01*
X126054518Y-84201616D01*
X126025316Y-84156920D01*
X126025315Y-84156919D01*
X126025314Y-84156917D01*
X125867220Y-83985182D01*
X125683017Y-83841810D01*
X125557920Y-83774111D01*
X125477726Y-83730712D01*
X125312852Y-83674111D01*
X125256951Y-83654920D01*
X125026712Y-83616500D01*
X124793288Y-83616500D01*
X124563049Y-83654920D01*
X124563046Y-83654920D01*
X124563046Y-83654921D01*
X124342273Y-83730712D01*
X124136984Y-83841809D01*
X123970274Y-83971565D01*
X123904231Y-83997621D01*
X123834586Y-83983835D01*
X123783449Y-83934585D01*
X123774827Y-83916165D01*
X123760888Y-83878794D01*
X123673261Y-83761738D01*
X123556205Y-83674111D01*
X123487702Y-83648561D01*
X123419201Y-83623011D01*
X123358638Y-83616500D01*
X121461362Y-83616500D01*
X121458013Y-83616859D01*
X121458013Y-83616860D01*
X121400799Y-83623011D01*
X121263794Y-83674111D01*
X121146738Y-83761738D01*
X121059111Y-83878794D01*
X121019933Y-83983835D01*
X121008011Y-84015799D01*
X121001500Y-84076362D01*
X121001500Y-85973638D01*
X117818499Y-85973638D01*
X117818499Y-82544225D01*
X139701500Y-82544225D01*
X139702085Y-82548484D01*
X139702086Y-82548493D01*
X139740189Y-82825717D01*
X139740191Y-82825728D01*
X139740777Y-82829989D01*
X139741936Y-82834126D01*
X139741938Y-82834135D01*
X139817441Y-83103611D01*
X139817445Y-83103624D01*
X139818600Y-83107744D01*
X139820308Y-83111676D01*
X139820309Y-83111679D01*
X139931804Y-83368367D01*
X139931807Y-83368373D01*
X139933519Y-83372314D01*
X140083394Y-83618772D01*
X140086104Y-83622103D01*
X140086109Y-83622110D01*
X140262710Y-83839181D01*
X140262714Y-83839186D01*
X140265432Y-83842526D01*
X140476242Y-84039409D01*
X140479755Y-84041888D01*
X140479759Y-84041892D01*
X140606064Y-84131048D01*
X140711897Y-84205753D01*
X140968008Y-84338459D01*
X141239804Y-84435055D01*
X141522222Y-84493742D01*
X141737971Y-84508500D01*
X141740112Y-84508500D01*
X143679888Y-84508500D01*
X143682029Y-84508500D01*
X143897778Y-84493742D01*
X144180196Y-84435055D01*
X144451992Y-84338459D01*
X144708103Y-84205753D01*
X144943758Y-84039409D01*
X145154568Y-83842526D01*
X145336606Y-83618772D01*
X145486481Y-83372314D01*
X145601400Y-83107744D01*
X145679223Y-82829989D01*
X145718500Y-82544225D01*
X145718500Y-82255775D01*
X145679223Y-81970011D01*
X145601400Y-81692256D01*
X145486481Y-81427686D01*
X145336606Y-81181228D01*
X145154568Y-80957474D01*
X144943758Y-80760591D01*
X144940246Y-80758112D01*
X144940240Y-80758107D01*
X144711625Y-80596733D01*
X144711623Y-80596732D01*
X144708103Y-80594247D01*
X144704282Y-80592267D01*
X144704277Y-80592264D01*
X144455806Y-80463517D01*
X144455802Y-80463515D01*
X144451992Y-80461541D01*
X144439291Y-80457027D01*
X144184243Y-80366383D01*
X144184239Y-80366381D01*
X144180196Y-80364945D01*
X143897778Y-80306258D01*
X143893484Y-80305964D01*
X143893482Y-80305964D01*
X143834997Y-80301963D01*
X143816611Y-80300705D01*
X143750015Y-80276102D01*
X143707293Y-80219399D01*
X143702008Y-80148599D01*
X143735839Y-80086181D01*
X143798046Y-80051963D01*
X143816611Y-80049294D01*
X143897778Y-80043742D01*
X144180196Y-79985055D01*
X144451992Y-79888459D01*
X144708103Y-79755753D01*
X144943758Y-79589409D01*
X145154568Y-79392526D01*
X145336606Y-79168772D01*
X145486481Y-78922314D01*
X145601400Y-78657744D01*
X145679223Y-78379989D01*
X145718500Y-78094225D01*
X145718500Y-77953288D01*
X153841500Y-77953288D01*
X153841666Y-77955558D01*
X153841667Y-77955581D01*
X153856466Y-78157781D01*
X153880185Y-78264256D01*
X153905965Y-78379989D01*
X153915938Y-78424756D01*
X154013644Y-78680219D01*
X154147507Y-78918738D01*
X154314670Y-79135219D01*
X154511571Y-79325057D01*
X154511574Y-79325059D01*
X154734019Y-79484205D01*
X154977266Y-79609267D01*
X155236130Y-79697579D01*
X155505093Y-79747259D01*
X155778424Y-79757248D01*
X155778424Y-79757247D01*
X155778425Y-79757248D01*
X155846391Y-79749769D01*
X156050296Y-79727334D01*
X156314916Y-79658153D01*
X156566643Y-79551181D01*
X156800112Y-79408697D01*
X157010347Y-79233738D01*
X157192867Y-79030033D01*
X157343783Y-78801923D01*
X157459877Y-78554271D01*
X157538676Y-78292355D01*
X157542812Y-78264256D01*
X157578500Y-78021758D01*
X157578500Y-77299012D01*
X157578500Y-77296712D01*
X157563533Y-77092217D01*
X157504063Y-76825247D01*
X157450185Y-76684379D01*
X157406355Y-76569780D01*
X157272492Y-76331261D01*
X157105329Y-76114780D01*
X156908428Y-75924942D01*
X156856945Y-75888109D01*
X156685981Y-75765795D01*
X156442734Y-75640733D01*
X156442733Y-75640732D01*
X156442730Y-75640731D01*
X156183871Y-75552421D01*
X155914908Y-75502741D01*
X155641574Y-75492751D01*
X155369706Y-75522665D01*
X155105084Y-75591847D01*
X154853358Y-75698818D01*
X154619884Y-75841305D01*
X154409652Y-76016262D01*
X154227136Y-76219962D01*
X154076213Y-76448083D01*
X153960125Y-76695722D01*
X153881322Y-76957649D01*
X153846478Y-77194418D01*
X153841500Y-77228243D01*
X153841500Y-77953288D01*
X145718500Y-77953288D01*
X145718500Y-77805775D01*
X145679223Y-77520011D01*
X145601400Y-77242256D01*
X145486481Y-76977686D01*
X145336606Y-76731228D01*
X145331740Y-76725247D01*
X145157289Y-76510818D01*
X145157285Y-76510814D01*
X145154568Y-76507474D01*
X144943758Y-76310591D01*
X144940246Y-76308112D01*
X144940240Y-76308107D01*
X144711625Y-76146733D01*
X144711623Y-76146732D01*
X144708103Y-76144247D01*
X144704282Y-76142267D01*
X144704277Y-76142264D01*
X144455806Y-76013517D01*
X144455802Y-76013515D01*
X144451992Y-76011541D01*
X144439291Y-76007027D01*
X144184243Y-75916383D01*
X144184239Y-75916381D01*
X144180196Y-75914945D01*
X143897778Y-75856258D01*
X143893484Y-75855964D01*
X143893482Y-75855964D01*
X143834997Y-75851963D01*
X143816611Y-75850705D01*
X143750015Y-75826102D01*
X143707293Y-75769399D01*
X143702008Y-75698599D01*
X143735839Y-75636181D01*
X143798046Y-75601963D01*
X143816611Y-75599294D01*
X143897778Y-75593742D01*
X144180196Y-75535055D01*
X144451992Y-75438459D01*
X144708103Y-75305753D01*
X144943758Y-75139409D01*
X145154568Y-74942526D01*
X145336606Y-74718772D01*
X145486481Y-74472314D01*
X145601400Y-74207744D01*
X145679223Y-73929989D01*
X145718500Y-73644225D01*
X145718500Y-73355775D01*
X145679223Y-73070011D01*
X145601400Y-72792256D01*
X145486481Y-72527686D01*
X145336606Y-72281228D01*
X145154568Y-72057474D01*
X144943758Y-71860591D01*
X144940246Y-71858112D01*
X144940240Y-71858107D01*
X144711625Y-71696733D01*
X144711623Y-71696732D01*
X144708103Y-71694247D01*
X144704282Y-71692267D01*
X144704277Y-71692264D01*
X144455806Y-71563517D01*
X144455802Y-71563515D01*
X144451992Y-71561541D01*
X144439291Y-71557027D01*
X144184243Y-71466383D01*
X144184239Y-71466381D01*
X144180196Y-71464945D01*
X143897778Y-71406258D01*
X143893484Y-71405964D01*
X143893482Y-71405964D01*
X143684168Y-71391646D01*
X143684158Y-71391645D01*
X143682029Y-71391500D01*
X141737971Y-71391500D01*
X141735842Y-71391645D01*
X141735831Y-71391646D01*
X141526517Y-71405964D01*
X141526514Y-71405964D01*
X141522222Y-71406258D01*
X141518013Y-71407132D01*
X141518010Y-71407133D01*
X141244009Y-71464071D01*
X141244006Y-71464071D01*
X141239804Y-71464945D01*
X141235764Y-71466380D01*
X141235756Y-71466383D01*
X140972056Y-71560102D01*
X140972051Y-71560103D01*
X140968008Y-71561541D01*
X140964202Y-71563512D01*
X140964193Y-71563517D01*
X140715722Y-71692264D01*
X140715710Y-71692271D01*
X140711897Y-71694247D01*
X140708382Y-71696727D01*
X140708374Y-71696733D01*
X140479759Y-71858107D01*
X140479745Y-71858117D01*
X140476242Y-71860591D01*
X140473102Y-71863523D01*
X140473094Y-71863530D01*
X140268580Y-72054533D01*
X140268572Y-72054540D01*
X140265432Y-72057474D01*
X140262721Y-72060805D01*
X140262710Y-72060818D01*
X140086109Y-72277889D01*
X140086099Y-72277902D01*
X140083394Y-72281228D01*
X140081165Y-72284892D01*
X140081161Y-72284899D01*
X139935755Y-72524008D01*
X139935751Y-72524015D01*
X139933519Y-72527686D01*
X139931810Y-72531619D01*
X139931804Y-72531632D01*
X139820309Y-72788320D01*
X139820306Y-72788328D01*
X139818600Y-72792256D01*
X139817447Y-72796371D01*
X139817441Y-72796388D01*
X139741938Y-73065864D01*
X139741935Y-73065876D01*
X139740777Y-73070011D01*
X139740191Y-73074268D01*
X139740189Y-73074282D01*
X139702086Y-73351506D01*
X139702085Y-73351516D01*
X139701500Y-73355775D01*
X139701500Y-73644225D01*
X139702085Y-73648484D01*
X139702086Y-73648493D01*
X139740189Y-73925717D01*
X139740191Y-73925728D01*
X139740777Y-73929989D01*
X139741936Y-73934126D01*
X139741938Y-73934135D01*
X139817441Y-74203611D01*
X139817445Y-74203624D01*
X139818600Y-74207744D01*
X139820308Y-74211676D01*
X139820309Y-74211679D01*
X139931804Y-74468367D01*
X139931807Y-74468373D01*
X139933519Y-74472314D01*
X140083394Y-74718772D01*
X140086104Y-74722103D01*
X140086109Y-74722110D01*
X140262710Y-74939181D01*
X140262714Y-74939186D01*
X140265432Y-74942526D01*
X140476242Y-75139409D01*
X140479755Y-75141888D01*
X140479759Y-75141892D01*
X140638203Y-75253734D01*
X140711897Y-75305753D01*
X140968008Y-75438459D01*
X141239804Y-75535055D01*
X141522222Y-75593742D01*
X141601045Y-75599133D01*
X141603387Y-75599294D01*
X141669984Y-75623898D01*
X141712706Y-75680601D01*
X141717991Y-75751401D01*
X141684159Y-75813819D01*
X141621953Y-75848037D01*
X141603387Y-75850706D01*
X141526517Y-75855964D01*
X141526514Y-75855964D01*
X141522222Y-75856258D01*
X141518013Y-75857132D01*
X141518010Y-75857133D01*
X141244009Y-75914071D01*
X141244006Y-75914071D01*
X141239804Y-75914945D01*
X141235764Y-75916380D01*
X141235756Y-75916383D01*
X140972056Y-76010102D01*
X140972051Y-76010103D01*
X140968008Y-76011541D01*
X140964202Y-76013512D01*
X140964193Y-76013517D01*
X140715722Y-76142264D01*
X140715710Y-76142271D01*
X140711897Y-76144247D01*
X140708382Y-76146727D01*
X140708374Y-76146733D01*
X140479759Y-76308107D01*
X140479745Y-76308117D01*
X140476242Y-76310591D01*
X140473102Y-76313523D01*
X140473094Y-76313530D01*
X140268580Y-76504533D01*
X140268572Y-76504540D01*
X140265432Y-76507474D01*
X140262721Y-76510805D01*
X140262710Y-76510818D01*
X140086109Y-76727889D01*
X140086099Y-76727902D01*
X140083394Y-76731228D01*
X140081165Y-76734892D01*
X140081161Y-76734899D01*
X139935755Y-76974008D01*
X139935751Y-76974015D01*
X139933519Y-76977686D01*
X139931810Y-76981619D01*
X139931804Y-76981632D01*
X139820309Y-77238320D01*
X139820306Y-77238328D01*
X139818600Y-77242256D01*
X139817447Y-77246371D01*
X139817441Y-77246388D01*
X139741938Y-77515864D01*
X139741935Y-77515876D01*
X139740777Y-77520011D01*
X139740191Y-77524268D01*
X139740189Y-77524282D01*
X139702086Y-77801506D01*
X139702085Y-77801516D01*
X139701500Y-77805775D01*
X139701500Y-78094225D01*
X139702085Y-78098484D01*
X139702086Y-78098493D01*
X139740189Y-78375717D01*
X139740191Y-78375728D01*
X139740777Y-78379989D01*
X139741936Y-78384126D01*
X139741938Y-78384135D01*
X139817441Y-78653611D01*
X139817445Y-78653624D01*
X139818600Y-78657744D01*
X139820308Y-78661676D01*
X139820309Y-78661679D01*
X139931804Y-78918367D01*
X139931807Y-78918373D01*
X139933519Y-78922314D01*
X140083394Y-79168772D01*
X140086104Y-79172103D01*
X140086109Y-79172110D01*
X140262710Y-79389181D01*
X140262714Y-79389186D01*
X140265432Y-79392526D01*
X140476242Y-79589409D01*
X140479755Y-79591888D01*
X140479759Y-79591892D01*
X140573628Y-79658152D01*
X140711897Y-79755753D01*
X140968008Y-79888459D01*
X141239804Y-79985055D01*
X141522222Y-80043742D01*
X141601045Y-80049133D01*
X141603387Y-80049294D01*
X141669984Y-80073898D01*
X141712706Y-80130601D01*
X141717991Y-80201401D01*
X141684159Y-80263819D01*
X141621953Y-80298037D01*
X141603387Y-80300706D01*
X141526517Y-80305964D01*
X141526514Y-80305964D01*
X141522222Y-80306258D01*
X141518013Y-80307132D01*
X141518010Y-80307133D01*
X141244009Y-80364071D01*
X141244006Y-80364071D01*
X141239804Y-80364945D01*
X141235764Y-80366380D01*
X141235756Y-80366383D01*
X140972056Y-80460102D01*
X140972051Y-80460103D01*
X140968008Y-80461541D01*
X140964202Y-80463512D01*
X140964193Y-80463517D01*
X140715722Y-80592264D01*
X140715710Y-80592271D01*
X140711897Y-80594247D01*
X140708382Y-80596727D01*
X140708374Y-80596733D01*
X140479759Y-80758107D01*
X140479745Y-80758117D01*
X140476242Y-80760591D01*
X140473102Y-80763523D01*
X140473094Y-80763530D01*
X140268580Y-80954533D01*
X140268572Y-80954540D01*
X140265432Y-80957474D01*
X140262721Y-80960805D01*
X140262710Y-80960818D01*
X140086109Y-81177889D01*
X140086099Y-81177902D01*
X140083394Y-81181228D01*
X140081165Y-81184892D01*
X140081161Y-81184899D01*
X139935755Y-81424008D01*
X139935751Y-81424015D01*
X139933519Y-81427686D01*
X139931810Y-81431619D01*
X139931804Y-81431632D01*
X139820309Y-81688320D01*
X139820306Y-81688328D01*
X139818600Y-81692256D01*
X139817447Y-81696371D01*
X139817441Y-81696388D01*
X139741938Y-81965864D01*
X139741935Y-81965876D01*
X139740777Y-81970011D01*
X139740191Y-81974268D01*
X139740189Y-81974282D01*
X139702086Y-82251506D01*
X139702085Y-82251516D01*
X139701500Y-82255775D01*
X139701500Y-82544225D01*
X117818499Y-82544225D01*
X117818499Y-77853288D01*
X118241500Y-77853288D01*
X118241666Y-77855558D01*
X118241667Y-77855581D01*
X118256466Y-78057781D01*
X118278742Y-78157781D01*
X118299073Y-78249050D01*
X118315938Y-78324756D01*
X118413644Y-78580219D01*
X118547507Y-78818738D01*
X118714670Y-79035219D01*
X118911571Y-79225057D01*
X118911574Y-79225059D01*
X119134019Y-79384205D01*
X119377266Y-79509267D01*
X119636130Y-79597579D01*
X119905093Y-79647259D01*
X120178424Y-79657248D01*
X120178424Y-79657247D01*
X120178425Y-79657248D01*
X120246391Y-79649769D01*
X120450296Y-79627334D01*
X120714916Y-79558153D01*
X120966643Y-79451181D01*
X121200112Y-79308697D01*
X121410347Y-79133738D01*
X121592867Y-78930033D01*
X121743783Y-78701923D01*
X121859877Y-78454271D01*
X121938676Y-78192355D01*
X121943765Y-78157781D01*
X121978500Y-77921758D01*
X121978500Y-77853288D01*
X127841500Y-77853288D01*
X127841666Y-77855558D01*
X127841667Y-77855581D01*
X127856466Y-78057781D01*
X127878742Y-78157781D01*
X127899073Y-78249050D01*
X127915938Y-78324756D01*
X128013644Y-78580219D01*
X128147507Y-78818738D01*
X128314670Y-79035219D01*
X128511571Y-79225057D01*
X128511574Y-79225059D01*
X128734019Y-79384205D01*
X128977266Y-79509267D01*
X129236130Y-79597579D01*
X129505093Y-79647259D01*
X129778424Y-79657248D01*
X129778424Y-79657247D01*
X129778425Y-79657248D01*
X129846391Y-79649769D01*
X130050296Y-79627334D01*
X130314916Y-79558153D01*
X130566643Y-79451181D01*
X130800112Y-79308697D01*
X131010347Y-79133738D01*
X131192867Y-78930033D01*
X131343783Y-78701923D01*
X131459877Y-78454271D01*
X131538676Y-78192355D01*
X131543765Y-78157781D01*
X131578500Y-77921758D01*
X131578500Y-77199012D01*
X131578500Y-77196712D01*
X131563533Y-76992217D01*
X131504063Y-76725247D01*
X131444602Y-76569780D01*
X131406355Y-76469780D01*
X131272492Y-76231261D01*
X131105329Y-76014780D01*
X130908428Y-75824942D01*
X130856945Y-75788109D01*
X130685981Y-75665795D01*
X130442734Y-75540733D01*
X130442733Y-75540732D01*
X130442730Y-75540731D01*
X130183871Y-75452421D01*
X129914908Y-75402741D01*
X129641574Y-75392751D01*
X129369706Y-75422665D01*
X129105084Y-75491847D01*
X128853358Y-75598818D01*
X128619884Y-75741305D01*
X128409652Y-75916262D01*
X128227136Y-76119962D01*
X128076213Y-76348083D01*
X127960125Y-76595722D01*
X127881322Y-76857649D01*
X127841500Y-77128241D01*
X127841500Y-77128243D01*
X127841500Y-77853288D01*
X121978500Y-77853288D01*
X121978500Y-77199012D01*
X121978500Y-77196712D01*
X121963533Y-76992217D01*
X121904063Y-76725247D01*
X121844602Y-76569780D01*
X121806355Y-76469780D01*
X121672492Y-76231261D01*
X121505329Y-76014780D01*
X121308428Y-75824942D01*
X121256945Y-75788109D01*
X121085981Y-75665795D01*
X120842734Y-75540733D01*
X120842733Y-75540732D01*
X120842730Y-75540731D01*
X120583871Y-75452421D01*
X120314908Y-75402741D01*
X120041574Y-75392751D01*
X119769706Y-75422665D01*
X119505084Y-75491847D01*
X119253358Y-75598818D01*
X119019884Y-75741305D01*
X118809652Y-75916262D01*
X118627136Y-76119962D01*
X118476213Y-76348083D01*
X118360125Y-76595722D01*
X118281322Y-76857649D01*
X118241500Y-77128241D01*
X118241500Y-77128243D01*
X118241500Y-77853288D01*
X117818499Y-77853288D01*
X117818499Y-68548638D01*
X121001500Y-68548638D01*
X121008011Y-68609201D01*
X121019431Y-68639818D01*
X121059111Y-68746205D01*
X121146738Y-68863261D01*
X121263794Y-68950888D01*
X121263795Y-68950888D01*
X121263796Y-68950889D01*
X121400799Y-69001989D01*
X121461362Y-69008500D01*
X121464731Y-69008500D01*
X123355269Y-69008500D01*
X123358638Y-69008500D01*
X123419201Y-69001989D01*
X123556204Y-68950889D01*
X123673261Y-68863261D01*
X123673261Y-68863260D01*
X123760889Y-68746205D01*
X123774827Y-68708835D01*
X123817373Y-68651999D01*
X123883893Y-68627187D01*
X123953267Y-68642278D01*
X123970272Y-68653432D01*
X124136983Y-68783190D01*
X124342273Y-68894287D01*
X124563049Y-68970080D01*
X124793288Y-69008500D01*
X124793291Y-69008500D01*
X125026709Y-69008500D01*
X125026712Y-69008500D01*
X125256951Y-68970080D01*
X125477727Y-68894287D01*
X125683017Y-68783190D01*
X125867220Y-68639818D01*
X126025314Y-68468083D01*
X126054518Y-68423381D01*
X126108518Y-68377296D01*
X126178866Y-68367720D01*
X126243223Y-68397696D01*
X126265481Y-68423382D01*
X126294686Y-68468083D01*
X126452780Y-68639818D01*
X126636983Y-68783190D01*
X126842273Y-68894287D01*
X127063049Y-68970080D01*
X127293288Y-69008500D01*
X127293291Y-69008500D01*
X127526709Y-69008500D01*
X127526712Y-69008500D01*
X127756951Y-68970080D01*
X127977727Y-68894287D01*
X128183017Y-68783190D01*
X128367220Y-68639818D01*
X128525314Y-68468083D01*
X128652984Y-68272669D01*
X128746749Y-68058907D01*
X128804051Y-67832626D01*
X128823327Y-67600000D01*
X128804051Y-67367374D01*
X128746749Y-67141093D01*
X128652984Y-66927331D01*
X128525314Y-66731917D01*
X128367220Y-66560182D01*
X128183017Y-66416810D01*
X128117890Y-66381565D01*
X127977726Y-66305712D01*
X127812852Y-66249111D01*
X127756951Y-66229920D01*
X127526712Y-66191500D01*
X127293288Y-66191500D01*
X127063049Y-66229920D01*
X127063046Y-66229920D01*
X127063046Y-66229921D01*
X126842273Y-66305712D01*
X126636984Y-66416809D01*
X126452779Y-66560182D01*
X126294683Y-66731920D01*
X126265482Y-66776616D01*
X126211479Y-66822704D01*
X126141131Y-66832279D01*
X126076774Y-66802301D01*
X126054518Y-66776616D01*
X126025316Y-66731920D01*
X126025315Y-66731919D01*
X126025314Y-66731917D01*
X125867220Y-66560182D01*
X125683017Y-66416810D01*
X125617890Y-66381565D01*
X125477726Y-66305712D01*
X125312852Y-66249111D01*
X125256951Y-66229920D01*
X125026712Y-66191500D01*
X124793288Y-66191500D01*
X124563049Y-66229920D01*
X124563046Y-66229920D01*
X124563046Y-66229921D01*
X124342273Y-66305712D01*
X124136984Y-66416809D01*
X123970274Y-66546565D01*
X123904231Y-66572621D01*
X123834586Y-66558835D01*
X123783449Y-66509585D01*
X123774827Y-66491165D01*
X123760888Y-66453794D01*
X123673261Y-66336738D01*
X123556205Y-66249111D01*
X123487702Y-66223560D01*
X123419201Y-66198011D01*
X123358638Y-66191500D01*
X121461362Y-66191500D01*
X121458013Y-66191859D01*
X121458013Y-66191860D01*
X121400799Y-66198011D01*
X121263794Y-66249111D01*
X121146738Y-66336738D01*
X121059111Y-66453794D01*
X121016918Y-66566919D01*
X121008011Y-66590799D01*
X121001500Y-66651362D01*
X121001500Y-68548638D01*
X117818499Y-68548638D01*
X117818499Y-60428288D01*
X118241500Y-60428288D01*
X118241666Y-60430558D01*
X118241667Y-60430581D01*
X118256466Y-60632781D01*
X118279182Y-60734753D01*
X118308034Y-60864277D01*
X118315938Y-60899756D01*
X118413644Y-61155219D01*
X118547507Y-61393738D01*
X118714670Y-61610219D01*
X118911571Y-61800057D01*
X118911574Y-61800059D01*
X119134019Y-61959205D01*
X119377266Y-62084267D01*
X119636130Y-62172579D01*
X119905093Y-62222259D01*
X120178424Y-62232248D01*
X120178424Y-62232247D01*
X120178425Y-62232248D01*
X120246391Y-62224769D01*
X120450296Y-62202334D01*
X120714916Y-62133153D01*
X120966643Y-62026181D01*
X121200112Y-61883697D01*
X121410347Y-61708738D01*
X121592867Y-61505033D01*
X121743783Y-61276923D01*
X121859877Y-61029271D01*
X121938676Y-60767355D01*
X121958482Y-60632781D01*
X121978500Y-60496758D01*
X121978500Y-60428288D01*
X127841500Y-60428288D01*
X127841666Y-60430558D01*
X127841667Y-60430581D01*
X127856466Y-60632781D01*
X127879182Y-60734753D01*
X127908034Y-60864277D01*
X127915938Y-60899756D01*
X128013644Y-61155219D01*
X128147507Y-61393738D01*
X128314670Y-61610219D01*
X128511571Y-61800057D01*
X128511574Y-61800059D01*
X128734019Y-61959205D01*
X128977266Y-62084267D01*
X129236130Y-62172579D01*
X129505093Y-62222259D01*
X129778424Y-62232248D01*
X129778424Y-62232247D01*
X129778425Y-62232248D01*
X129846391Y-62224769D01*
X130050296Y-62202334D01*
X130314916Y-62133153D01*
X130566643Y-62026181D01*
X130800112Y-61883697D01*
X131010347Y-61708738D01*
X131192867Y-61505033D01*
X131343783Y-61276923D01*
X131459877Y-61029271D01*
X131538676Y-60767355D01*
X131558482Y-60632781D01*
X131578500Y-60496758D01*
X131578500Y-59774012D01*
X131578500Y-59771712D01*
X131563533Y-59567217D01*
X131504063Y-59300247D01*
X131406355Y-59044781D01*
X131406355Y-59044780D01*
X131272492Y-58806261D01*
X131105329Y-58589780D01*
X130908428Y-58399942D01*
X130856945Y-58363109D01*
X130685981Y-58240795D01*
X130442734Y-58115733D01*
X130442733Y-58115732D01*
X130442730Y-58115731D01*
X130183871Y-58027421D01*
X129914908Y-57977741D01*
X129641574Y-57967751D01*
X129369706Y-57997665D01*
X129105084Y-58066847D01*
X128853358Y-58173818D01*
X128619884Y-58316305D01*
X128409652Y-58491262D01*
X128227136Y-58694962D01*
X128076213Y-58923083D01*
X127960125Y-59170722D01*
X127881322Y-59432649D01*
X127841500Y-59703241D01*
X127841500Y-59703243D01*
X127841500Y-60428288D01*
X121978500Y-60428288D01*
X121978500Y-59774012D01*
X121978500Y-59771712D01*
X121963533Y-59567217D01*
X121904063Y-59300247D01*
X121806355Y-59044781D01*
X121806355Y-59044780D01*
X121672492Y-58806261D01*
X121505329Y-58589780D01*
X121308428Y-58399942D01*
X121256945Y-58363109D01*
X121085981Y-58240795D01*
X120842734Y-58115733D01*
X120842733Y-58115732D01*
X120842730Y-58115731D01*
X120583871Y-58027421D01*
X120314908Y-57977741D01*
X120041574Y-57967751D01*
X119769706Y-57997665D01*
X119505084Y-58066847D01*
X119253358Y-58173818D01*
X119019884Y-58316305D01*
X118809652Y-58491262D01*
X118627136Y-58694962D01*
X118476213Y-58923083D01*
X118360125Y-59170722D01*
X118281322Y-59432649D01*
X118241500Y-59703241D01*
X118241500Y-59703243D01*
X118241500Y-60428288D01*
X117818499Y-60428288D01*
X117818499Y-57545659D01*
X117838501Y-57477539D01*
X117855404Y-57456565D01*
X121366565Y-53945405D01*
X121428877Y-53911379D01*
X121455660Y-53908500D01*
X131764340Y-53908500D01*
X131832461Y-53928502D01*
X131853435Y-53945405D01*
X133114594Y-55206565D01*
X133148620Y-55268877D01*
X133151499Y-55295660D01*
X133151499Y-55895269D01*
X133151499Y-55895287D01*
X133151500Y-55898638D01*
X133151860Y-55901986D01*
X133158011Y-55959200D01*
X133209111Y-56096205D01*
X133296738Y-56213261D01*
X133413794Y-56300888D01*
X133413795Y-56300888D01*
X133413796Y-56300889D01*
X133529313Y-56343975D01*
X133586148Y-56386521D01*
X133610959Y-56453041D01*
X133595868Y-56522415D01*
X133577982Y-56547367D01*
X133434676Y-56703040D01*
X133311580Y-56891451D01*
X133221177Y-57097548D01*
X133173455Y-57285999D01*
X133173456Y-57286000D01*
X134078884Y-57286000D01*
X134050507Y-57330156D01*
X134010000Y-57468111D01*
X134010000Y-57611889D01*
X134050507Y-57749844D01*
X134078884Y-57794000D01*
X133173455Y-57794000D01*
X133221177Y-57982451D01*
X133311580Y-58188548D01*
X133434678Y-58376962D01*
X133587096Y-58542533D01*
X133764697Y-58680766D01*
X133962631Y-58787883D01*
X134175485Y-58860955D01*
X134256000Y-58874391D01*
X134256000Y-57973674D01*
X134367685Y-58024680D01*
X134474237Y-58040000D01*
X134545763Y-58040000D01*
X134652315Y-58024680D01*
X134764000Y-57973674D01*
X134764000Y-58874390D01*
X134844514Y-58860955D01*
X135057368Y-58787883D01*
X135255302Y-58680766D01*
X135432903Y-58542533D01*
X135585321Y-58376962D01*
X135708419Y-58188548D01*
X135798822Y-57982451D01*
X135846544Y-57794000D01*
X134941116Y-57794000D01*
X134969493Y-57749844D01*
X135010000Y-57611889D01*
X135010000Y-57468111D01*
X134969493Y-57330156D01*
X134941116Y-57286000D01*
X135846544Y-57286000D01*
X135846544Y-57285999D01*
X135798822Y-57097548D01*
X135708419Y-56891451D01*
X135585321Y-56703037D01*
X135442018Y-56547367D01*
X135410597Y-56483702D01*
X135418584Y-56413156D01*
X135463443Y-56358127D01*
X135490679Y-56343977D01*
X135606204Y-56300889D01*
X135723261Y-56213261D01*
X135810889Y-56096204D01*
X135861989Y-55959201D01*
X135868500Y-55898638D01*
X135868500Y-54101362D01*
X135861989Y-54040799D01*
X135810889Y-53903796D01*
X135810888Y-53903794D01*
X135723261Y-53786738D01*
X135606205Y-53699111D01*
X135537702Y-53673561D01*
X135469201Y-53648011D01*
X135408638Y-53641500D01*
X133611362Y-53641500D01*
X133612143Y-53641479D01*
X133543601Y-53625282D01*
X133516856Y-53604885D01*
X132628811Y-52716840D01*
X132623610Y-52711316D01*
X132583273Y-52665785D01*
X132583272Y-52665784D01*
X132533220Y-52631235D01*
X132527092Y-52626725D01*
X132479224Y-52589223D01*
X132469922Y-52585036D01*
X132450068Y-52573839D01*
X132448781Y-52572951D01*
X132441675Y-52568046D01*
X132441673Y-52568045D01*
X132384822Y-52546483D01*
X132377794Y-52543572D01*
X132322329Y-52518610D01*
X132312289Y-52516770D01*
X132290332Y-52510649D01*
X132280801Y-52507035D01*
X132220432Y-52499704D01*
X132212914Y-52498559D01*
X132205153Y-52497137D01*
X132153093Y-52487597D01*
X132092390Y-52491270D01*
X132084782Y-52491500D01*
X121135206Y-52491500D01*
X121127598Y-52491270D01*
X121066907Y-52487598D01*
X121007087Y-52498559D01*
X120999570Y-52499703D01*
X120939195Y-52507035D01*
X120929655Y-52510653D01*
X120907705Y-52516772D01*
X120897675Y-52518610D01*
X120842219Y-52543568D01*
X120835191Y-52546479D01*
X120778323Y-52568046D01*
X120769928Y-52573841D01*
X120750073Y-52585039D01*
X120740775Y-52589224D01*
X120692899Y-52626731D01*
X120686774Y-52631238D01*
X120636729Y-52665783D01*
X120596388Y-52711317D01*
X120591172Y-52716856D01*
X116626856Y-56681172D01*
X116621317Y-56686388D01*
X116575782Y-56726729D01*
X116541238Y-56776773D01*
X116536731Y-56782898D01*
X116499224Y-56830774D01*
X116495036Y-56840078D01*
X116483843Y-56859923D01*
X116478048Y-56868319D01*
X116456482Y-56925183D01*
X116453570Y-56932211D01*
X116428611Y-56987668D01*
X116426771Y-56997710D01*
X116420651Y-57019662D01*
X116417035Y-57029197D01*
X116409705Y-57089554D01*
X116408561Y-57097071D01*
X116397597Y-57156907D01*
X116401269Y-57217607D01*
X116401499Y-57225214D01*
X116401499Y-102374784D01*
X116401269Y-102382391D01*
X116397597Y-102443093D01*
X116408559Y-102502910D01*
X116409704Y-102510432D01*
X116417035Y-102570801D01*
X116420649Y-102580332D01*
X116426770Y-102602289D01*
X116428610Y-102612329D01*
X116453572Y-102667794D01*
X116456483Y-102674822D01*
X116478045Y-102731673D01*
X116483839Y-102740068D01*
X116495036Y-102759922D01*
X116499223Y-102769224D01*
X116536725Y-102817092D01*
X116541235Y-102823220D01*
X116554711Y-102842743D01*
X116575785Y-102873273D01*
X116621316Y-102913610D01*
X116626857Y-102918827D01*
X120891171Y-107183141D01*
X120896388Y-107188682D01*
X120936727Y-107234215D01*
X120986783Y-107268766D01*
X120992891Y-107273260D01*
X121040774Y-107310775D01*
X121050071Y-107314959D01*
X121069931Y-107326161D01*
X121078322Y-107331953D01*
X121135188Y-107353519D01*
X121142220Y-107356432D01*
X121197667Y-107381387D01*
X121197668Y-107381387D01*
X121197670Y-107381388D01*
X121207702Y-107383226D01*
X121229664Y-107389349D01*
X121239199Y-107392965D01*
X121271374Y-107396871D01*
X121299579Y-107400296D01*
X121307081Y-107401437D01*
X121366907Y-107412401D01*
X121366907Y-107412400D01*
X121366908Y-107412401D01*
X121427598Y-107408730D01*
X121435206Y-107408500D01*
X124098595Y-107408500D01*
X124166716Y-107428502D01*
X124172655Y-107432563D01*
X124253248Y-107491118D01*
X124427712Y-107568794D01*
X124614513Y-107608500D01*
X124614515Y-107608500D01*
X124805485Y-107608500D01*
X124805487Y-107608500D01*
X124992288Y-107568794D01*
X125166752Y-107491118D01*
X125247344Y-107432563D01*
X125314212Y-107408706D01*
X125321405Y-107408500D01*
X133984782Y-107408500D01*
X133992390Y-107408730D01*
X134053091Y-107412402D01*
X134053091Y-107412401D01*
X134053093Y-107412402D01*
X134112941Y-107401434D01*
X134120398Y-107400299D01*
X134180801Y-107392965D01*
X134190328Y-107389351D01*
X134212294Y-107383227D01*
X134222329Y-107381389D01*
X134277797Y-107356423D01*
X134284802Y-107353522D01*
X134341675Y-107331954D01*
X134350069Y-107326159D01*
X134369926Y-107314960D01*
X134379226Y-107310775D01*
X134427140Y-107273235D01*
X134433179Y-107268791D01*
X134483273Y-107234215D01*
X134523612Y-107188680D01*
X134528811Y-107183157D01*
X137066564Y-104645405D01*
X137128877Y-104611379D01*
X137155660Y-104608500D01*
X138043122Y-104608500D01*
X138111243Y-104628502D01*
X138157736Y-104682158D01*
X138167840Y-104752432D01*
X138138346Y-104817012D01*
X138135840Y-104819818D01*
X138095272Y-104863887D01*
X138004278Y-104962731D01*
X137881139Y-105151209D01*
X137790702Y-105357388D01*
X137742430Y-105548013D01*
X137735436Y-105575632D01*
X137716844Y-105800000D01*
X137735436Y-106024368D01*
X137735436Y-106024371D01*
X137735437Y-106024372D01*
X137790702Y-106242611D01*
X137881139Y-106448790D01*
X137915183Y-106500898D01*
X138004278Y-106637268D01*
X138156419Y-106802536D01*
X138156762Y-106802908D01*
X138334421Y-106941187D01*
X138334424Y-106941189D01*
X138532426Y-107048342D01*
X138745365Y-107121444D01*
X138967431Y-107158500D01*
X138967434Y-107158500D01*
X139192566Y-107158500D01*
X139192569Y-107158500D01*
X139414635Y-107121444D01*
X139627574Y-107048342D01*
X139825576Y-106941189D01*
X140003240Y-106802906D01*
X140155722Y-106637268D01*
X140244518Y-106501354D01*
X140298521Y-106455268D01*
X140368869Y-106445693D01*
X140433226Y-106475670D01*
X140455479Y-106501351D01*
X140460982Y-106509774D01*
X140481496Y-106577740D01*
X140481500Y-106578690D01*
X140481500Y-107548500D01*
X140461498Y-107616621D01*
X140407842Y-107663114D01*
X140355500Y-107674500D01*
X137395247Y-107674500D01*
X137375873Y-107671948D01*
X137354243Y-107673840D01*
X137352182Y-107674021D01*
X137341204Y-107674500D01*
X137328730Y-107674500D01*
X137317008Y-107677097D01*
X137316047Y-107677181D01*
X137306458Y-107681652D01*
X137298354Y-107688452D01*
X137297876Y-107689281D01*
X137277855Y-107715370D01*
X135355631Y-109637595D01*
X135293319Y-109671620D01*
X135266536Y-109674500D01*
X116583464Y-109674500D01*
X116515343Y-109654498D01*
X116494369Y-109637595D01*
X115112405Y-108255630D01*
X115078379Y-108193318D01*
X115075500Y-108166535D01*
X115075500Y-57083463D01*
X115095502Y-57015342D01*
X115112405Y-56994368D01*
X119994368Y-52112405D01*
X120056680Y-52078379D01*
X120083463Y-52075500D01*
X136548500Y-52075500D01*
X136616621Y-52095502D01*
G37*
%TD.AperFunction*%
%TA.AperFunction,Conductor*%
G36*
X151115770Y-96800364D02*
G01*
X151172606Y-96842911D01*
X151197047Y-96905247D01*
X151216458Y-97089928D01*
X151217525Y-97093212D01*
X151217794Y-97102635D01*
X151217843Y-97103098D01*
X151217807Y-97103101D01*
X151219553Y-97164176D01*
X151186787Y-97221241D01*
X148643466Y-99764563D01*
X148581154Y-99798588D01*
X148580569Y-99798714D01*
X148427714Y-99831205D01*
X148253246Y-99908883D01*
X148098747Y-100021133D01*
X147970958Y-100163057D01*
X147875472Y-100328443D01*
X147816458Y-100510070D01*
X147796496Y-100699999D01*
X147816458Y-100889929D01*
X147875473Y-101071556D01*
X147884619Y-101087397D01*
X147901500Y-101150397D01*
X147901500Y-102874781D01*
X147901270Y-102882389D01*
X147897597Y-102943093D01*
X147908559Y-103002910D01*
X147909704Y-103010432D01*
X147917035Y-103070801D01*
X147920649Y-103080332D01*
X147926770Y-103102289D01*
X147928610Y-103112329D01*
X147953572Y-103167794D01*
X147956483Y-103174822D01*
X147978045Y-103231673D01*
X147983839Y-103240068D01*
X147995036Y-103259922D01*
X147999223Y-103269224D01*
X148036725Y-103317092D01*
X148041235Y-103323220D01*
X148045278Y-103329077D01*
X148075785Y-103373273D01*
X148115615Y-103408559D01*
X148121316Y-103413610D01*
X148126857Y-103418827D01*
X153675335Y-108967306D01*
X153709361Y-109029618D01*
X153711550Y-109043229D01*
X153716458Y-109089929D01*
X153775472Y-109271556D01*
X153870958Y-109436942D01*
X153895492Y-109464190D01*
X153926209Y-109528198D01*
X153917444Y-109598651D01*
X153871981Y-109653182D01*
X153804253Y-109674477D01*
X153801855Y-109674500D01*
X150583463Y-109674500D01*
X150515342Y-109654498D01*
X150494368Y-109637595D01*
X148585384Y-107728610D01*
X148573490Y-107713108D01*
X148555271Y-107697820D01*
X148547170Y-107690395D01*
X148538342Y-107681567D01*
X148528208Y-107675110D01*
X148527481Y-107674500D01*
X148517539Y-107670881D01*
X148507003Y-107669959D01*
X148506341Y-107670137D01*
X148506082Y-107670206D01*
X148473471Y-107674500D01*
X145445530Y-107674500D01*
X145423650Y-107672586D01*
X145413952Y-107670875D01*
X145404254Y-107672586D01*
X145386626Y-107674128D01*
X145369535Y-107678707D01*
X145359827Y-107680419D01*
X145353737Y-107683934D01*
X145348354Y-107688452D01*
X145343426Y-107696987D01*
X145330835Y-107714969D01*
X145324499Y-107722519D01*
X145322097Y-107729119D01*
X145320876Y-107736048D01*
X145322586Y-107745746D01*
X145324500Y-107767624D01*
X145324500Y-109454469D01*
X145322587Y-109476343D01*
X145320876Y-109486048D01*
X145322586Y-109495746D01*
X145324128Y-109513373D01*
X145328707Y-109530467D01*
X145330418Y-109540171D01*
X145333935Y-109546262D01*
X145338452Y-109551645D01*
X145346982Y-109556570D01*
X145364972Y-109569167D01*
X145372518Y-109575499D01*
X145372519Y-109575499D01*
X145372520Y-109575500D01*
X145372521Y-109575500D01*
X145379123Y-109577903D01*
X145386047Y-109579124D01*
X145386047Y-109579123D01*
X145386048Y-109579124D01*
X145395746Y-109577413D01*
X145417625Y-109575500D01*
X147916537Y-109575500D01*
X147984658Y-109595502D01*
X148005632Y-109612405D01*
X149664617Y-111271390D01*
X149676515Y-111286896D01*
X149694734Y-111302184D01*
X149702835Y-111309609D01*
X149711660Y-111318434D01*
X149721789Y-111324887D01*
X149722520Y-111325500D01*
X149722522Y-111325500D01*
X149732462Y-111329118D01*
X149742996Y-111330040D01*
X149742997Y-111330039D01*
X149742998Y-111330040D01*
X149743917Y-111329793D01*
X149776529Y-111325500D01*
X164722520Y-111325500D01*
X168916537Y-111325500D01*
X168984658Y-111345502D01*
X169005632Y-111362405D01*
X170387595Y-112744368D01*
X170421621Y-112806680D01*
X170424500Y-112833463D01*
X170424500Y-131916535D01*
X170404498Y-131984656D01*
X170387595Y-132005630D01*
X168978604Y-133414620D01*
X168963099Y-133426518D01*
X168947820Y-133444726D01*
X168940411Y-133452813D01*
X168931572Y-133461653D01*
X168925122Y-133471777D01*
X168924500Y-133472518D01*
X168920882Y-133482458D01*
X168919960Y-133492997D01*
X168920206Y-133493915D01*
X168924500Y-133526530D01*
X168924500Y-140916536D01*
X168904498Y-140984657D01*
X168887595Y-141005631D01*
X158105631Y-151787595D01*
X158043319Y-151821621D01*
X158016536Y-151824500D01*
X134483464Y-151824500D01*
X134415343Y-151804498D01*
X134394368Y-151787595D01*
X133612404Y-151005630D01*
X133578379Y-150943318D01*
X133575500Y-150916535D01*
X133575500Y-148545248D01*
X133578051Y-148525873D01*
X133575979Y-148502183D01*
X133575500Y-148491204D01*
X133575500Y-148478713D01*
X133572900Y-148466986D01*
X133572818Y-148466045D01*
X133572817Y-148466044D01*
X133568349Y-148456461D01*
X133561546Y-148448353D01*
X133560724Y-148447879D01*
X133534628Y-148427855D01*
X132585382Y-147478608D01*
X132573489Y-147463107D01*
X132555271Y-147447820D01*
X132547170Y-147440395D01*
X132538342Y-147431567D01*
X132528208Y-147425110D01*
X132527481Y-147424500D01*
X132517539Y-147420881D01*
X132507003Y-147419959D01*
X132506341Y-147420137D01*
X132506082Y-147420206D01*
X132473471Y-147424500D01*
X128083463Y-147424500D01*
X128015342Y-147404498D01*
X127994372Y-147387599D01*
X127888461Y-147281688D01*
X136137684Y-147281688D01*
X136151332Y-147382437D01*
X136168094Y-147506175D01*
X136168095Y-147506177D01*
X136238095Y-147721618D01*
X136345445Y-147921107D01*
X136486685Y-148098218D01*
X136576365Y-148176568D01*
X136657282Y-148247263D01*
X136851750Y-148363453D01*
X137063839Y-148443051D01*
X137195733Y-148466986D01*
X137286732Y-148483500D01*
X137286733Y-148483500D01*
X138553700Y-148483500D01*
X138556522Y-148483500D01*
X138725622Y-148468281D01*
X138943993Y-148408014D01*
X139148093Y-148309725D01*
X139331363Y-148176571D01*
X139487912Y-148012834D01*
X139612709Y-147823774D01*
X139701743Y-147615470D01*
X139752151Y-147394615D01*
X139757223Y-147281688D01*
X141437684Y-147281688D01*
X141451332Y-147382437D01*
X141468094Y-147506175D01*
X141468095Y-147506177D01*
X141538095Y-147721618D01*
X141645445Y-147921107D01*
X141786685Y-148098218D01*
X141876365Y-148176568D01*
X141957282Y-148247263D01*
X142151750Y-148363453D01*
X142363839Y-148443051D01*
X142495733Y-148466986D01*
X142586732Y-148483500D01*
X142586733Y-148483500D01*
X143853700Y-148483500D01*
X143856522Y-148483500D01*
X144025622Y-148468281D01*
X144243993Y-148408014D01*
X144448093Y-148309725D01*
X144631363Y-148176571D01*
X144787912Y-148012834D01*
X144912709Y-147823774D01*
X145001743Y-147615470D01*
X145052151Y-147394615D01*
X145057223Y-147281688D01*
X146737684Y-147281688D01*
X146751332Y-147382437D01*
X146768094Y-147506175D01*
X146768095Y-147506177D01*
X146838095Y-147721618D01*
X146945445Y-147921107D01*
X147086685Y-148098218D01*
X147176365Y-148176568D01*
X147257282Y-148247263D01*
X147451750Y-148363453D01*
X147663839Y-148443051D01*
X147795733Y-148466986D01*
X147886732Y-148483500D01*
X147886733Y-148483500D01*
X149153700Y-148483500D01*
X149156522Y-148483500D01*
X149325622Y-148468281D01*
X149543993Y-148408014D01*
X149748093Y-148309725D01*
X149931363Y-148176571D01*
X150087912Y-148012834D01*
X150212709Y-147823774D01*
X150301743Y-147615470D01*
X150352151Y-147394615D01*
X150362315Y-147168309D01*
X150331906Y-146943825D01*
X150261903Y-146728379D01*
X150154556Y-146528894D01*
X150081432Y-146437199D01*
X150013314Y-146351781D01*
X149842718Y-146202737D01*
X149738170Y-146140272D01*
X149648250Y-146086547D01*
X149436161Y-146006949D01*
X149436160Y-146006948D01*
X149436158Y-146006948D01*
X149213268Y-145966500D01*
X149213267Y-145966500D01*
X147943478Y-145966500D01*
X147940684Y-145966751D01*
X147940671Y-145966752D01*
X147774375Y-145981719D01*
X147556006Y-146041986D01*
X147351910Y-146140272D01*
X147265936Y-146202737D01*
X147168637Y-146273429D01*
X147168635Y-146273430D01*
X147168635Y-146273431D01*
X147012087Y-146437166D01*
X146887291Y-146626225D01*
X146798256Y-146834530D01*
X146747849Y-147055384D01*
X146737684Y-147281688D01*
X145057223Y-147281688D01*
X145062315Y-147168309D01*
X145031906Y-146943825D01*
X144961903Y-146728379D01*
X144854556Y-146528894D01*
X144781432Y-146437199D01*
X144713314Y-146351781D01*
X144542718Y-146202737D01*
X144438170Y-146140272D01*
X144348250Y-146086547D01*
X144136161Y-146006949D01*
X144136160Y-146006948D01*
X144136158Y-146006948D01*
X143913268Y-145966500D01*
X143913267Y-145966500D01*
X142643478Y-145966500D01*
X142640684Y-145966751D01*
X142640671Y-145966752D01*
X142474375Y-145981719D01*
X142256006Y-146041986D01*
X142051910Y-146140272D01*
X141965936Y-146202737D01*
X141868637Y-146273429D01*
X141868635Y-146273430D01*
X141868635Y-146273431D01*
X141712087Y-146437166D01*
X141587291Y-146626225D01*
X141498256Y-146834530D01*
X141447849Y-147055384D01*
X141437684Y-147281688D01*
X139757223Y-147281688D01*
X139762315Y-147168309D01*
X139731906Y-146943825D01*
X139661903Y-146728379D01*
X139554556Y-146528894D01*
X139481432Y-146437199D01*
X139413314Y-146351781D01*
X139242718Y-146202737D01*
X139138170Y-146140272D01*
X139048250Y-146086547D01*
X138836161Y-146006949D01*
X138836160Y-146006948D01*
X138836158Y-146006948D01*
X138613268Y-145966500D01*
X138613267Y-145966500D01*
X137343478Y-145966500D01*
X137340684Y-145966751D01*
X137340671Y-145966752D01*
X137174375Y-145981719D01*
X136956006Y-146041986D01*
X136751910Y-146140272D01*
X136665936Y-146202737D01*
X136568637Y-146273429D01*
X136568635Y-146273430D01*
X136568635Y-146273431D01*
X136412087Y-146437166D01*
X136287291Y-146626225D01*
X136198256Y-146834530D01*
X136147849Y-147055384D01*
X136137684Y-147281688D01*
X127888461Y-147281688D01*
X127043974Y-146437200D01*
X127043973Y-146437199D01*
X127029515Y-146422741D01*
X127029514Y-146422741D01*
X127029512Y-146422739D01*
X123206772Y-142599999D01*
X126247347Y-142599999D01*
X126265969Y-142836630D01*
X126321382Y-143067438D01*
X126412217Y-143286733D01*
X126536237Y-143489114D01*
X126690392Y-143669607D01*
X126870885Y-143823762D01*
X127073266Y-143947782D01*
X127073268Y-143947782D01*
X127073270Y-143947784D01*
X127148519Y-143978953D01*
X127292561Y-144038617D01*
X127292564Y-144038617D01*
X127292565Y-144038618D01*
X127523369Y-144094030D01*
X127760000Y-144112653D01*
X127996631Y-144094030D01*
X128227435Y-144038618D01*
X128227436Y-144038617D01*
X128227438Y-144038617D01*
X128289295Y-144012995D01*
X128446730Y-143947784D01*
X128649115Y-143823762D01*
X128829607Y-143669607D01*
X128983762Y-143489115D01*
X129107784Y-143286730D01*
X129190398Y-143087281D01*
X129198617Y-143067438D01*
X129200593Y-143059210D01*
X129254030Y-142836631D01*
X129258852Y-142775359D01*
X129284137Y-142709019D01*
X129341275Y-142666879D01*
X129412125Y-142662320D01*
X129474193Y-142696789D01*
X129507773Y-142759342D01*
X129510076Y-142775360D01*
X129516466Y-142856553D01*
X129571858Y-143087279D01*
X129662666Y-143306505D01*
X129777267Y-143493520D01*
X129777268Y-143493520D01*
X130525332Y-142745456D01*
X130550157Y-142830003D01*
X130627949Y-142951049D01*
X130736692Y-143045276D01*
X130867577Y-143105049D01*
X130882076Y-143107133D01*
X130136478Y-143852730D01*
X130136478Y-143852731D01*
X130323496Y-143967335D01*
X130542718Y-144058140D01*
X130773446Y-144113533D01*
X131010000Y-144132150D01*
X131246553Y-144113533D01*
X131477281Y-144058140D01*
X131696500Y-143967336D01*
X131883520Y-143852731D01*
X131883520Y-143852729D01*
X131137924Y-143107133D01*
X131152423Y-143105049D01*
X131283308Y-143045276D01*
X131392051Y-142951049D01*
X131469843Y-142830003D01*
X131494667Y-142745458D01*
X132242729Y-143493520D01*
X132242731Y-143493520D01*
X132357336Y-143306500D01*
X132448140Y-143087281D01*
X132503533Y-142856553D01*
X132509637Y-142779000D01*
X136164918Y-142779000D01*
X136168584Y-142806065D01*
X136238557Y-143021421D01*
X136345863Y-143220829D01*
X136487051Y-143397873D01*
X136657575Y-143546855D01*
X136851968Y-143662999D01*
X137063975Y-143742567D01*
X137286777Y-143783000D01*
X137696000Y-143783000D01*
X137696000Y-143025000D01*
X138204000Y-143025000D01*
X138204000Y-143783000D01*
X138553678Y-143783000D01*
X138559306Y-143782747D01*
X138725535Y-143767786D01*
X138943815Y-143707543D01*
X139147834Y-143609294D01*
X139331032Y-143476193D01*
X139487520Y-143312520D01*
X139612265Y-143123539D01*
X139701264Y-142915314D01*
X139732377Y-142779000D01*
X138931116Y-142779000D01*
X138959493Y-142734844D01*
X139000000Y-142596889D01*
X139000000Y-142453111D01*
X138959493Y-142315156D01*
X138931116Y-142271000D01*
X139735082Y-142271000D01*
X139731415Y-142243934D01*
X139661442Y-142028578D01*
X139554136Y-141829170D01*
X139412948Y-141652126D01*
X139242424Y-141503144D01*
X139048031Y-141387000D01*
X138836024Y-141307432D01*
X138613223Y-141267000D01*
X138204000Y-141267000D01*
X138204000Y-142025000D01*
X137696000Y-142025000D01*
X137696000Y-141267000D01*
X137346322Y-141267000D01*
X137340693Y-141267252D01*
X137174464Y-141282213D01*
X136956184Y-141342456D01*
X136752165Y-141440705D01*
X136568967Y-141573806D01*
X136412479Y-141737479D01*
X136287734Y-141926460D01*
X136198735Y-142134685D01*
X136167622Y-142270999D01*
X136167623Y-142271000D01*
X136968884Y-142271000D01*
X136940507Y-142315156D01*
X136900000Y-142453111D01*
X136900000Y-142596889D01*
X136940507Y-142734844D01*
X136968884Y-142779000D01*
X136164918Y-142779000D01*
X132509637Y-142779000D01*
X132522150Y-142620000D01*
X132503533Y-142383446D01*
X132448140Y-142152718D01*
X132357335Y-141933496D01*
X132242731Y-141746478D01*
X132242730Y-141746478D01*
X131494667Y-142494541D01*
X131469843Y-142409997D01*
X131392051Y-142288951D01*
X131283308Y-142194724D01*
X131152423Y-142134951D01*
X131137923Y-142132866D01*
X131883520Y-141387268D01*
X131883520Y-141387267D01*
X131696505Y-141272666D01*
X131477279Y-141181858D01*
X131246553Y-141126466D01*
X131009999Y-141107849D01*
X130773446Y-141126466D01*
X130542720Y-141181858D01*
X130323494Y-141272666D01*
X130136478Y-141387267D01*
X130136478Y-141387269D01*
X130882075Y-142132866D01*
X130867577Y-142134951D01*
X130736692Y-142194724D01*
X130627949Y-142288951D01*
X130550157Y-142409997D01*
X130525332Y-142494541D01*
X129777269Y-141746478D01*
X129777267Y-141746478D01*
X129662666Y-141933494D01*
X129571858Y-142152720D01*
X129516465Y-142383446D01*
X129511650Y-142444639D01*
X129486364Y-142510980D01*
X129429226Y-142553120D01*
X129358376Y-142557679D01*
X129296309Y-142523210D01*
X129262729Y-142460656D01*
X129260426Y-142444639D01*
X129254030Y-142363369D01*
X129198617Y-142132561D01*
X129107782Y-141913266D01*
X128983762Y-141710885D01*
X128829607Y-141530392D01*
X128649114Y-141376237D01*
X128446733Y-141252217D01*
X128227438Y-141161382D01*
X127996630Y-141105969D01*
X127778621Y-141088812D01*
X127760000Y-141087347D01*
X127759999Y-141087347D01*
X127523369Y-141105969D01*
X127292561Y-141161382D01*
X127073266Y-141252217D01*
X126870885Y-141376237D01*
X126690392Y-141530392D01*
X126536237Y-141710885D01*
X126412217Y-141913266D01*
X126321382Y-142132561D01*
X126265969Y-142363369D01*
X126247347Y-142599999D01*
X123206772Y-142599999D01*
X115112405Y-134505631D01*
X115078379Y-134443319D01*
X115075500Y-134416536D01*
X115075500Y-130734298D01*
X120297602Y-130734298D01*
X120315760Y-130999769D01*
X120316928Y-131008268D01*
X120371069Y-131268807D01*
X120373384Y-131277072D01*
X120462495Y-131527806D01*
X120465917Y-131535682D01*
X120588333Y-131771934D01*
X120592804Y-131779287D01*
X120720540Y-131960248D01*
X120720541Y-131960248D01*
X121667912Y-131012876D01*
X121729680Y-131130566D01*
X121842405Y-131257806D01*
X121982305Y-131354371D01*
X122027642Y-131371565D01*
X121080715Y-132318492D01*
X121080715Y-132318494D01*
X121145984Y-132371595D01*
X121152995Y-132376543D01*
X121380352Y-132514802D01*
X121387981Y-132518754D01*
X121632039Y-132624764D01*
X121640132Y-132627641D01*
X121896359Y-132699433D01*
X121904777Y-132701182D01*
X122168380Y-132737413D01*
X122176954Y-132738000D01*
X122443046Y-132738000D01*
X122451619Y-132737413D01*
X122715222Y-132701182D01*
X122723640Y-132699433D01*
X122979867Y-132627641D01*
X122987960Y-132624764D01*
X123232018Y-132518754D01*
X123239647Y-132514802D01*
X123467004Y-132376543D01*
X123474016Y-132371594D01*
X123539283Y-132318494D01*
X123539283Y-132318492D01*
X122592356Y-131371565D01*
X122637695Y-131354371D01*
X122777595Y-131257806D01*
X122890320Y-131130566D01*
X122952087Y-131012877D01*
X123899457Y-131960247D01*
X124027199Y-131779280D01*
X124031666Y-131771934D01*
X124154082Y-131535682D01*
X124157504Y-131527806D01*
X124246615Y-131277072D01*
X124248930Y-131268807D01*
X124303071Y-131008268D01*
X124304239Y-130999769D01*
X124322398Y-130734298D01*
X124322398Y-130725701D01*
X124304239Y-130460230D01*
X124303071Y-130451731D01*
X124248930Y-130191192D01*
X124246615Y-130182927D01*
X124157504Y-129932193D01*
X124154082Y-129924317D01*
X124031666Y-129688065D01*
X124027199Y-129680719D01*
X123899457Y-129499750D01*
X122952086Y-130447121D01*
X122890320Y-130329434D01*
X122777595Y-130202194D01*
X122637695Y-130105629D01*
X122592355Y-130088433D01*
X123539283Y-129141505D01*
X123539283Y-129141504D01*
X123474015Y-129088404D01*
X123467004Y-129083456D01*
X123239647Y-128945197D01*
X123232018Y-128941245D01*
X122987960Y-128835235D01*
X122979867Y-128832358D01*
X122723640Y-128760566D01*
X122715222Y-128758817D01*
X122451619Y-128722586D01*
X122443046Y-128722000D01*
X122176954Y-128722000D01*
X122168380Y-128722586D01*
X121904777Y-128758817D01*
X121896359Y-128760566D01*
X121640132Y-128832358D01*
X121632039Y-128835235D01*
X121387981Y-128941245D01*
X121380352Y-128945197D01*
X121152997Y-129083454D01*
X121145983Y-129088405D01*
X121080715Y-129141504D01*
X121080714Y-129141506D01*
X122027642Y-130088434D01*
X121982305Y-130105629D01*
X121842405Y-130202194D01*
X121729680Y-130329434D01*
X121667913Y-130447122D01*
X120720541Y-129499750D01*
X120592796Y-129680724D01*
X120588335Y-129688061D01*
X120465917Y-129924317D01*
X120462495Y-129932193D01*
X120373384Y-130182927D01*
X120371069Y-130191192D01*
X120316928Y-130451731D01*
X120315760Y-130460230D01*
X120297602Y-130725701D01*
X120297602Y-130734298D01*
X115075500Y-130734298D01*
X115075500Y-120986688D01*
X115075500Y-117019844D01*
X115075499Y-114500000D01*
X120296807Y-114500000D01*
X120297101Y-114504298D01*
X120315259Y-114769769D01*
X120315558Y-114774130D01*
X120371462Y-115043153D01*
X120372899Y-115047196D01*
X120372902Y-115047207D01*
X120462037Y-115298008D01*
X120462040Y-115298015D01*
X120463477Y-115302058D01*
X120465451Y-115305869D01*
X120465453Y-115305872D01*
X120587906Y-115542197D01*
X120587909Y-115542202D01*
X120589889Y-115546023D01*
X120748343Y-115770502D01*
X120935889Y-115971314D01*
X121149031Y-116144718D01*
X121383800Y-116287484D01*
X121635823Y-116396953D01*
X121900404Y-116471085D01*
X122172615Y-116508500D01*
X122176920Y-116508500D01*
X122443080Y-116508500D01*
X122447385Y-116508500D01*
X122719596Y-116471085D01*
X122984177Y-116396953D01*
X123236200Y-116287484D01*
X123470969Y-116144718D01*
X123684111Y-115971314D01*
X123871657Y-115770502D01*
X124030111Y-115546023D01*
X124156523Y-115302058D01*
X124248538Y-115043153D01*
X124304442Y-114774130D01*
X124323193Y-114500000D01*
X126646807Y-114500000D01*
X126647101Y-114504298D01*
X126665259Y-114769769D01*
X126665558Y-114774130D01*
X126721462Y-115043153D01*
X126722899Y-115047196D01*
X126722902Y-115047207D01*
X126812037Y-115298008D01*
X126812040Y-115298015D01*
X126813477Y-115302058D01*
X126815451Y-115305869D01*
X126815453Y-115305872D01*
X126937906Y-115542197D01*
X126937909Y-115542202D01*
X126939889Y-115546023D01*
X127098343Y-115770502D01*
X127285889Y-115971314D01*
X127499031Y-116144718D01*
X127733800Y-116287484D01*
X127985823Y-116396953D01*
X128250404Y-116471085D01*
X128522615Y-116508500D01*
X128526920Y-116508500D01*
X128793080Y-116508500D01*
X128797385Y-116508500D01*
X129069596Y-116471085D01*
X129334177Y-116396953D01*
X129586200Y-116287484D01*
X129820969Y-116144718D01*
X130034111Y-115971314D01*
X130221657Y-115770502D01*
X130380111Y-115546023D01*
X130506523Y-115302058D01*
X130598538Y-115043153D01*
X130654442Y-114774130D01*
X130673193Y-114500000D01*
X132996807Y-114500000D01*
X132997101Y-114504298D01*
X133015259Y-114769769D01*
X133015558Y-114774130D01*
X133071462Y-115043153D01*
X133072899Y-115047196D01*
X133072902Y-115047207D01*
X133162037Y-115298008D01*
X133162040Y-115298015D01*
X133163477Y-115302058D01*
X133165451Y-115305869D01*
X133165453Y-115305872D01*
X133287906Y-115542197D01*
X133287909Y-115542202D01*
X133289889Y-115546023D01*
X133448343Y-115770502D01*
X133635889Y-115971314D01*
X133849031Y-116144718D01*
X134083800Y-116287484D01*
X134335823Y-116396953D01*
X134600404Y-116471085D01*
X134872615Y-116508500D01*
X134876920Y-116508500D01*
X135143080Y-116508500D01*
X135147385Y-116508500D01*
X135419596Y-116471085D01*
X135684177Y-116396953D01*
X135936200Y-116287484D01*
X136170969Y-116144718D01*
X136384111Y-115971314D01*
X136571657Y-115770502D01*
X136730111Y-115546023D01*
X136856523Y-115302058D01*
X136948538Y-115043153D01*
X137004442Y-114774130D01*
X137023193Y-114500000D01*
X137004442Y-114225870D01*
X136948538Y-113956847D01*
X136892794Y-113800000D01*
X136857962Y-113701991D01*
X136856523Y-113697942D01*
X136730111Y-113453977D01*
X136571657Y-113229498D01*
X136384111Y-113028686D01*
X136380774Y-113025971D01*
X136174304Y-112857995D01*
X136174301Y-112857993D01*
X136170969Y-112855282D01*
X135936200Y-112712516D01*
X135932259Y-112710804D01*
X135932253Y-112710801D01*
X135688112Y-112604756D01*
X135688109Y-112604755D01*
X135684177Y-112603047D01*
X135680052Y-112601891D01*
X135680043Y-112601888D01*
X135423742Y-112530076D01*
X135423732Y-112530074D01*
X135419596Y-112528915D01*
X135415335Y-112528329D01*
X135415324Y-112528327D01*
X135151653Y-112492086D01*
X135151643Y-112492085D01*
X135147385Y-112491500D01*
X134872615Y-112491500D01*
X134868357Y-112492085D01*
X134868346Y-112492086D01*
X134604675Y-112528327D01*
X134604661Y-112528329D01*
X134600404Y-112528915D01*
X134596269Y-112530073D01*
X134596257Y-112530076D01*
X134339956Y-112601888D01*
X134339942Y-112601892D01*
X134335823Y-112603047D01*
X134331895Y-112604753D01*
X134331887Y-112604756D01*
X134087746Y-112710801D01*
X134087733Y-112710807D01*
X134083800Y-112712516D01*
X134080129Y-112714748D01*
X134080122Y-112714752D01*
X133852704Y-112853048D01*
X133852699Y-112853050D01*
X133849031Y-112855282D01*
X133845704Y-112857988D01*
X133845695Y-112857995D01*
X133639225Y-113025971D01*
X133639217Y-113025978D01*
X133635889Y-113028686D01*
X133632957Y-113031824D01*
X133632952Y-113031830D01*
X133451282Y-113226350D01*
X133451274Y-113226358D01*
X133448343Y-113229498D01*
X133445863Y-113233010D01*
X133445860Y-113233015D01*
X133292375Y-113450454D01*
X133292370Y-113450462D01*
X133289889Y-113453977D01*
X133287913Y-113457790D01*
X133287906Y-113457802D01*
X133165453Y-113694127D01*
X133165449Y-113694136D01*
X133163477Y-113697942D01*
X133162042Y-113701978D01*
X133162037Y-113701991D01*
X133072902Y-113952792D01*
X133072897Y-113952807D01*
X133071462Y-113956847D01*
X133070587Y-113961054D01*
X133070587Y-113961057D01*
X133016432Y-114221661D01*
X133016430Y-114221670D01*
X133015558Y-114225870D01*
X133015264Y-114230157D01*
X133015264Y-114230163D01*
X133002621Y-114415005D01*
X132996807Y-114500000D01*
X130673193Y-114500000D01*
X130654442Y-114225870D01*
X130598538Y-113956847D01*
X130542794Y-113800000D01*
X130507962Y-113701991D01*
X130506523Y-113697942D01*
X130380111Y-113453977D01*
X130221657Y-113229498D01*
X130034111Y-113028686D01*
X130030774Y-113025971D01*
X129824304Y-112857995D01*
X129824301Y-112857993D01*
X129820969Y-112855282D01*
X129586200Y-112712516D01*
X129582259Y-112710804D01*
X129582253Y-112710801D01*
X129338112Y-112604756D01*
X129338109Y-112604755D01*
X129334177Y-112603047D01*
X129330052Y-112601891D01*
X129330043Y-112601888D01*
X129073742Y-112530076D01*
X129073732Y-112530074D01*
X129069596Y-112528915D01*
X129065335Y-112528329D01*
X129065324Y-112528327D01*
X128801653Y-112492086D01*
X128801643Y-112492085D01*
X128797385Y-112491500D01*
X128522615Y-112491500D01*
X128518357Y-112492085D01*
X128518346Y-112492086D01*
X128254675Y-112528327D01*
X128254661Y-112528329D01*
X128250404Y-112528915D01*
X128246269Y-112530073D01*
X128246257Y-112530076D01*
X127989956Y-112601888D01*
X127989942Y-112601892D01*
X127985823Y-112603047D01*
X127981895Y-112604753D01*
X127981887Y-112604756D01*
X127737746Y-112710801D01*
X127737733Y-112710807D01*
X127733800Y-112712516D01*
X127730129Y-112714748D01*
X127730122Y-112714752D01*
X127502704Y-112853048D01*
X127502699Y-112853050D01*
X127499031Y-112855282D01*
X127495704Y-112857988D01*
X127495695Y-112857995D01*
X127289225Y-113025971D01*
X127289217Y-113025978D01*
X127285889Y-113028686D01*
X127282957Y-113031824D01*
X127282952Y-113031830D01*
X127101282Y-113226350D01*
X127101274Y-113226358D01*
X127098343Y-113229498D01*
X127095863Y-113233010D01*
X127095860Y-113233015D01*
X126942375Y-113450454D01*
X126942370Y-113450462D01*
X126939889Y-113453977D01*
X126937913Y-113457790D01*
X126937906Y-113457802D01*
X126815453Y-113694127D01*
X126815449Y-113694136D01*
X126813477Y-113697942D01*
X126812042Y-113701978D01*
X126812037Y-113701991D01*
X126722902Y-113952792D01*
X126722897Y-113952807D01*
X126721462Y-113956847D01*
X126720587Y-113961054D01*
X126720587Y-113961057D01*
X126666432Y-114221661D01*
X126666430Y-114221670D01*
X126665558Y-114225870D01*
X126665264Y-114230157D01*
X126665264Y-114230163D01*
X126652621Y-114415005D01*
X126646807Y-114500000D01*
X124323193Y-114500000D01*
X124304442Y-114225870D01*
X124248538Y-113956847D01*
X124192794Y-113800000D01*
X124157962Y-113701991D01*
X124156523Y-113697942D01*
X124030111Y-113453977D01*
X123871657Y-113229498D01*
X123684111Y-113028686D01*
X123680774Y-113025971D01*
X123474304Y-112857995D01*
X123474301Y-112857993D01*
X123470969Y-112855282D01*
X123236200Y-112712516D01*
X123232259Y-112710804D01*
X123232253Y-112710801D01*
X122988112Y-112604756D01*
X122988109Y-112604755D01*
X122984177Y-112603047D01*
X122980052Y-112601891D01*
X122980043Y-112601888D01*
X122723742Y-112530076D01*
X122723732Y-112530074D01*
X122719596Y-112528915D01*
X122715335Y-112528329D01*
X122715324Y-112528327D01*
X122451653Y-112492086D01*
X122451643Y-112492085D01*
X122447385Y-112491500D01*
X122172615Y-112491500D01*
X122168357Y-112492085D01*
X122168346Y-112492086D01*
X121904675Y-112528327D01*
X121904661Y-112528329D01*
X121900404Y-112528915D01*
X121896269Y-112530073D01*
X121896257Y-112530076D01*
X121639956Y-112601888D01*
X121639942Y-112601892D01*
X121635823Y-112603047D01*
X121631895Y-112604753D01*
X121631887Y-112604756D01*
X121387746Y-112710801D01*
X121387733Y-112710807D01*
X121383800Y-112712516D01*
X121380129Y-112714748D01*
X121380122Y-112714752D01*
X121152704Y-112853048D01*
X121152699Y-112853050D01*
X121149031Y-112855282D01*
X121145704Y-112857988D01*
X121145695Y-112857995D01*
X120939225Y-113025971D01*
X120939217Y-113025978D01*
X120935889Y-113028686D01*
X120932957Y-113031824D01*
X120932952Y-113031830D01*
X120751282Y-113226350D01*
X120751274Y-113226358D01*
X120748343Y-113229498D01*
X120745863Y-113233010D01*
X120745860Y-113233015D01*
X120592375Y-113450454D01*
X120592370Y-113450462D01*
X120589889Y-113453977D01*
X120587913Y-113457790D01*
X120587906Y-113457802D01*
X120465453Y-113694127D01*
X120465449Y-113694136D01*
X120463477Y-113697942D01*
X120462042Y-113701978D01*
X120462037Y-113701991D01*
X120372902Y-113952792D01*
X120372897Y-113952807D01*
X120371462Y-113956847D01*
X120370587Y-113961054D01*
X120370587Y-113961057D01*
X120316432Y-114221661D01*
X120316430Y-114221670D01*
X120315558Y-114225870D01*
X120315264Y-114230157D01*
X120315264Y-114230163D01*
X120302621Y-114415005D01*
X120296807Y-114500000D01*
X115075499Y-114500000D01*
X115075499Y-112833459D01*
X115095501Y-112765342D01*
X115112399Y-112744373D01*
X116494368Y-111362405D01*
X116556680Y-111328379D01*
X116583463Y-111325500D01*
X116972520Y-111325500D01*
X135904753Y-111325500D01*
X135924126Y-111328051D01*
X135929204Y-111327606D01*
X135929205Y-111327607D01*
X135947817Y-111325978D01*
X135958796Y-111325500D01*
X135971296Y-111325500D01*
X135983017Y-111322899D01*
X135983955Y-111322818D01*
X135983956Y-111322816D01*
X135993543Y-111318346D01*
X136001642Y-111311550D01*
X136001642Y-111311548D01*
X136001645Y-111311548D01*
X136002121Y-111310721D01*
X136022140Y-111284631D01*
X137694370Y-109612402D01*
X137756680Y-109578379D01*
X137783463Y-109575500D01*
X140355500Y-109575500D01*
X140423621Y-109595502D01*
X140470114Y-109649158D01*
X140481500Y-109701500D01*
X140481500Y-110571309D01*
X140461498Y-110639430D01*
X140461040Y-110640136D01*
X140455483Y-110648643D01*
X140455482Y-110648645D01*
X140401477Y-110694732D01*
X140331129Y-110704306D01*
X140266772Y-110674327D01*
X140244517Y-110648643D01*
X140155721Y-110512731D01*
X140064728Y-110413887D01*
X140003240Y-110347094D01*
X140003239Y-110347093D01*
X140003237Y-110347091D01*
X139825578Y-110208812D01*
X139627573Y-110101657D01*
X139443586Y-110038495D01*
X139414635Y-110028556D01*
X139192569Y-109991500D01*
X138967431Y-109991500D01*
X138745365Y-110028556D01*
X138745362Y-110028556D01*
X138745362Y-110028557D01*
X138532426Y-110101657D01*
X138334421Y-110208812D01*
X138156762Y-110347091D01*
X138004278Y-110512731D01*
X137881139Y-110701209D01*
X137790702Y-110907388D01*
X137735437Y-111125627D01*
X137735436Y-111125632D01*
X137716844Y-111350000D01*
X137735436Y-111574368D01*
X137735436Y-111574371D01*
X137735437Y-111574372D01*
X137790702Y-111792611D01*
X137881139Y-111998790D01*
X137915183Y-112050898D01*
X138004278Y-112187268D01*
X138156419Y-112352536D01*
X138156762Y-112352908D01*
X138334421Y-112491187D01*
X138334424Y-112491189D01*
X138532426Y-112598342D01*
X138745365Y-112671444D01*
X138967431Y-112708500D01*
X138967434Y-112708500D01*
X139192566Y-112708500D01*
X139192569Y-112708500D01*
X139414635Y-112671444D01*
X139627574Y-112598342D01*
X139825576Y-112491189D01*
X140003240Y-112352906D01*
X140155722Y-112187268D01*
X140244518Y-112051354D01*
X140298521Y-112005268D01*
X140368869Y-111995693D01*
X140433226Y-112025670D01*
X140455480Y-112051353D01*
X140544278Y-112187268D01*
X140696419Y-112352536D01*
X140696762Y-112352908D01*
X140840908Y-112465103D01*
X140882379Y-112522728D01*
X140889287Y-112556922D01*
X140891270Y-112589686D01*
X140891500Y-112597298D01*
X140891500Y-115578356D01*
X140871498Y-115646477D01*
X140842891Y-115677787D01*
X140676762Y-115807091D01*
X140524278Y-115972731D01*
X140401139Y-116161209D01*
X140310702Y-116367388D01*
X140255437Y-116585627D01*
X140255436Y-116585632D01*
X140236844Y-116810000D01*
X140255436Y-117034368D01*
X140255436Y-117034371D01*
X140255437Y-117034372D01*
X140310702Y-117252611D01*
X140401139Y-117458790D01*
X140401140Y-117458791D01*
X140524278Y-117647268D01*
X140554560Y-117680163D01*
X140585981Y-117743827D01*
X140577994Y-117814373D01*
X140533135Y-117869402D01*
X140465647Y-117891443D01*
X140461859Y-117891500D01*
X131925206Y-117891500D01*
X131917598Y-117891270D01*
X131856904Y-117887598D01*
X131797097Y-117898558D01*
X131789576Y-117899703D01*
X131729198Y-117907035D01*
X131719663Y-117910651D01*
X131697705Y-117916772D01*
X131687670Y-117918611D01*
X131632226Y-117943564D01*
X131625199Y-117946475D01*
X131568325Y-117968045D01*
X131559923Y-117973845D01*
X131540071Y-117985041D01*
X131530774Y-117989225D01*
X131482906Y-118026726D01*
X131476781Y-118031233D01*
X131426729Y-118065783D01*
X131386396Y-118111308D01*
X131381180Y-118116847D01*
X125116856Y-124381172D01*
X125111317Y-124386388D01*
X125065782Y-124426729D01*
X125031238Y-124476773D01*
X125026731Y-124482898D01*
X124989224Y-124530774D01*
X124985036Y-124540078D01*
X124973843Y-124559923D01*
X124968048Y-124568319D01*
X124946482Y-124625183D01*
X124943570Y-124632211D01*
X124918611Y-124687668D01*
X124916771Y-124697710D01*
X124910651Y-124719662D01*
X124907035Y-124729197D01*
X124899705Y-124789554D01*
X124898561Y-124797071D01*
X124887597Y-124856906D01*
X124891270Y-124917608D01*
X124891500Y-124925217D01*
X124891500Y-131554339D01*
X124871498Y-131622460D01*
X124854595Y-131643434D01*
X122954386Y-133543642D01*
X122892074Y-133577668D01*
X122844555Y-133578828D01*
X122620855Y-133541500D01*
X122379145Y-133541500D01*
X122140732Y-133581284D01*
X122140729Y-133581284D01*
X122140729Y-133581285D01*
X121912119Y-133659766D01*
X121699543Y-133774806D01*
X121508795Y-133923272D01*
X121345097Y-134101096D01*
X121345095Y-134101098D01*
X121345094Y-134101100D01*
X121338701Y-134110885D01*
X121212889Y-134303453D01*
X121115796Y-134524804D01*
X121059782Y-134746000D01*
X121056461Y-134759116D01*
X121036501Y-135000000D01*
X121056461Y-135240884D01*
X121056461Y-135240887D01*
X121056462Y-135240888D01*
X121115796Y-135475195D01*
X121212889Y-135696546D01*
X121212891Y-135696549D01*
X121345094Y-135898900D01*
X121359428Y-135914471D01*
X121390849Y-135978136D01*
X121382862Y-136048681D01*
X121338003Y-136103710D01*
X121310760Y-136117863D01*
X121253796Y-136139109D01*
X121136738Y-136226738D01*
X121049111Y-136343794D01*
X121013744Y-136438617D01*
X120998011Y-136480799D01*
X120991500Y-136541362D01*
X120991500Y-138538638D01*
X120998011Y-138599201D01*
X121023561Y-138667702D01*
X121049111Y-138736205D01*
X121136738Y-138853261D01*
X121253794Y-138940888D01*
X121253795Y-138940888D01*
X121253796Y-138940889D01*
X121390799Y-138991989D01*
X121451362Y-138998500D01*
X121454731Y-138998500D01*
X123545269Y-138998500D01*
X123548638Y-138998500D01*
X123609201Y-138991989D01*
X123746204Y-138940889D01*
X123863261Y-138853261D01*
X123950889Y-138736204D01*
X124001989Y-138599201D01*
X124008500Y-138538638D01*
X124008500Y-137881688D01*
X136137684Y-137881688D01*
X136145699Y-137940852D01*
X136168094Y-138106175D01*
X136168095Y-138106177D01*
X136238095Y-138321618D01*
X136345445Y-138521107D01*
X136486685Y-138698218D01*
X136576365Y-138776568D01*
X136657282Y-138847263D01*
X136851750Y-138963453D01*
X137063839Y-139043051D01*
X137202863Y-139068280D01*
X137286732Y-139083500D01*
X137286733Y-139083500D01*
X138553700Y-139083500D01*
X138556522Y-139083500D01*
X138725622Y-139068281D01*
X138943993Y-139008014D01*
X139148093Y-138909725D01*
X139331363Y-138776571D01*
X139487912Y-138612834D01*
X139612709Y-138423774D01*
X139701743Y-138215470D01*
X139752151Y-137994615D01*
X139762315Y-137768309D01*
X139731906Y-137543825D01*
X139661903Y-137328379D01*
X139554556Y-137128894D01*
X139506979Y-137069234D01*
X139413314Y-136951781D01*
X139242718Y-136802737D01*
X139138170Y-136740272D01*
X139048250Y-136686547D01*
X138836161Y-136606949D01*
X138836160Y-136606948D01*
X138836158Y-136606948D01*
X138613268Y-136566500D01*
X138613267Y-136566500D01*
X137343478Y-136566500D01*
X137340684Y-136566751D01*
X137340671Y-136566752D01*
X137174375Y-136581719D01*
X136956006Y-136641986D01*
X136751910Y-136740272D01*
X136665936Y-136802737D01*
X136568637Y-136873429D01*
X136568635Y-136873430D01*
X136568635Y-136873431D01*
X136412087Y-137037166D01*
X136287291Y-137226225D01*
X136198256Y-137434530D01*
X136147849Y-137655384D01*
X136137684Y-137881688D01*
X124008500Y-137881688D01*
X124008500Y-136541362D01*
X124001989Y-136480799D01*
X123950889Y-136343796D01*
X123938903Y-136327784D01*
X123863261Y-136226738D01*
X123746206Y-136139111D01*
X123689239Y-136117864D01*
X123632404Y-136075317D01*
X123607593Y-136008796D01*
X123622685Y-135939422D01*
X123640567Y-135914476D01*
X123654906Y-135898900D01*
X123787109Y-135696549D01*
X123884203Y-135475197D01*
X123943539Y-135240884D01*
X123963499Y-135000000D01*
X123961842Y-134980000D01*
X126247347Y-134980000D01*
X126265969Y-135216630D01*
X126321382Y-135447438D01*
X126412217Y-135666733D01*
X126536237Y-135869114D01*
X126690392Y-136049607D01*
X126870885Y-136203762D01*
X127073266Y-136327782D01*
X127073268Y-136327782D01*
X127073270Y-136327784D01*
X127111922Y-136343794D01*
X127292561Y-136418617D01*
X127292564Y-136418617D01*
X127292565Y-136418618D01*
X127523369Y-136474030D01*
X127760000Y-136492653D01*
X127996631Y-136474030D01*
X128227435Y-136418618D01*
X128227436Y-136418617D01*
X128227438Y-136418617D01*
X128280644Y-136396577D01*
X128446730Y-136327784D01*
X128649115Y-136203762D01*
X128829607Y-136049607D01*
X128983762Y-135869115D01*
X129107784Y-135666730D01*
X129198618Y-135447435D01*
X129254030Y-135216631D01*
X129258601Y-135158549D01*
X129283884Y-135092210D01*
X129341022Y-135050070D01*
X129411872Y-135045509D01*
X129473940Y-135079977D01*
X129507520Y-135142531D01*
X129509823Y-135158549D01*
X129515968Y-135236623D01*
X129571382Y-135467438D01*
X129662217Y-135686733D01*
X129786237Y-135889114D01*
X129940392Y-136069607D01*
X130120885Y-136223762D01*
X130323266Y-136347782D01*
X130323268Y-136347782D01*
X130323270Y-136347784D01*
X130398520Y-136378953D01*
X130542561Y-136438617D01*
X130542564Y-136438617D01*
X130542565Y-136438618D01*
X130773369Y-136494030D01*
X131010000Y-136512653D01*
X131246631Y-136494030D01*
X131477435Y-136438618D01*
X131477436Y-136438617D01*
X131477438Y-136438617D01*
X131530645Y-136416577D01*
X131696730Y-136347784D01*
X131899115Y-136223762D01*
X132079607Y-136069607D01*
X132233762Y-135889115D01*
X132357784Y-135686730D01*
X132442212Y-135482901D01*
X132448617Y-135467438D01*
X132453420Y-135447435D01*
X132504030Y-135236631D01*
X132522653Y-135000000D01*
X132504030Y-134763369D01*
X132448618Y-134532565D01*
X132448617Y-134532564D01*
X132448617Y-134532561D01*
X132357782Y-134313266D01*
X132233762Y-134110885D01*
X132079607Y-133930392D01*
X131899114Y-133776237D01*
X131696733Y-133652217D01*
X131477438Y-133561382D01*
X131246630Y-133505969D01*
X131028622Y-133488812D01*
X131010000Y-133487347D01*
X131009999Y-133487347D01*
X130773369Y-133505969D01*
X130542561Y-133561382D01*
X130323266Y-133652217D01*
X130120885Y-133776237D01*
X129940392Y-133930392D01*
X129786237Y-134110885D01*
X129662217Y-134313266D01*
X129571382Y-134532561D01*
X129515969Y-134763369D01*
X129511399Y-134821449D01*
X129486114Y-134887790D01*
X129428976Y-134929930D01*
X129358125Y-134934489D01*
X129296058Y-134900020D01*
X129262478Y-134837467D01*
X129260175Y-134821449D01*
X129254030Y-134743369D01*
X129198617Y-134512561D01*
X129116068Y-134313270D01*
X129107784Y-134293270D01*
X129075695Y-134240906D01*
X128983762Y-134090885D01*
X128829607Y-133910392D01*
X128649114Y-133756237D01*
X128446733Y-133632217D01*
X128227438Y-133541382D01*
X127996630Y-133485969D01*
X127778622Y-133468812D01*
X127760000Y-133467347D01*
X127759999Y-133467347D01*
X127523369Y-133485969D01*
X127292561Y-133541382D01*
X127073266Y-133632217D01*
X126870885Y-133756237D01*
X126690392Y-133910392D01*
X126536237Y-134090885D01*
X126412217Y-134293266D01*
X126321382Y-134512561D01*
X126265969Y-134743369D01*
X126247347Y-134980000D01*
X123961842Y-134980000D01*
X123943539Y-134759116D01*
X123920562Y-134668383D01*
X123923229Y-134597437D01*
X123953609Y-134548359D01*
X126083157Y-132418811D01*
X126088683Y-132413610D01*
X126130063Y-132376951D01*
X126134215Y-132373273D01*
X126168791Y-132323179D01*
X126173235Y-132317140D01*
X126210775Y-132269226D01*
X126214960Y-132259926D01*
X126226159Y-132240069D01*
X126231954Y-132231675D01*
X126253522Y-132174802D01*
X126256423Y-132167797D01*
X126281389Y-132112329D01*
X126283227Y-132102294D01*
X126289352Y-132080327D01*
X126292965Y-132070801D01*
X126300299Y-132010398D01*
X126301434Y-132002941D01*
X126312402Y-131943093D01*
X126310795Y-131916535D01*
X126308730Y-131882390D01*
X126308500Y-131874782D01*
X126308500Y-130730000D01*
X126646807Y-130730000D01*
X126647101Y-130734298D01*
X126665259Y-130999769D01*
X126665558Y-131004130D01*
X126721462Y-131273153D01*
X126722899Y-131277196D01*
X126722902Y-131277207D01*
X126812037Y-131528008D01*
X126812040Y-131528014D01*
X126813477Y-131532058D01*
X126815451Y-131535869D01*
X126815453Y-131535872D01*
X126937906Y-131772197D01*
X126937909Y-131772202D01*
X126939889Y-131776023D01*
X127098343Y-132000502D01*
X127285889Y-132201314D01*
X127499031Y-132374718D01*
X127733800Y-132517484D01*
X127985823Y-132626953D01*
X128250404Y-132701085D01*
X128522615Y-132738500D01*
X128526920Y-132738500D01*
X128793080Y-132738500D01*
X128797385Y-132738500D01*
X129069596Y-132701085D01*
X129334177Y-132626953D01*
X129586200Y-132517484D01*
X129820969Y-132374718D01*
X130034111Y-132201314D01*
X130221657Y-132000502D01*
X130380111Y-131776023D01*
X130506523Y-131532058D01*
X130598538Y-131273153D01*
X130654442Y-131004130D01*
X130673193Y-130730000D01*
X132996807Y-130730000D01*
X132997101Y-130734298D01*
X133015259Y-130999769D01*
X133015558Y-131004130D01*
X133071462Y-131273153D01*
X133072899Y-131277196D01*
X133072902Y-131277207D01*
X133162037Y-131528008D01*
X133162040Y-131528014D01*
X133163477Y-131532058D01*
X133165451Y-131535869D01*
X133165453Y-131535872D01*
X133287906Y-131772197D01*
X133287909Y-131772202D01*
X133289889Y-131776023D01*
X133448343Y-132000502D01*
X133635889Y-132201314D01*
X133849031Y-132374718D01*
X134083800Y-132517484D01*
X134335823Y-132626953D01*
X134600404Y-132701085D01*
X134872615Y-132738500D01*
X134876920Y-132738500D01*
X135143080Y-132738500D01*
X135147385Y-132738500D01*
X135419596Y-132701085D01*
X135684177Y-132626953D01*
X135936200Y-132517484D01*
X136170969Y-132374718D01*
X136384111Y-132201314D01*
X136571657Y-132000502D01*
X136730111Y-131776023D01*
X136856523Y-131532058D01*
X136859185Y-131524566D01*
X136900837Y-131467077D01*
X136966962Y-131441231D01*
X137036563Y-131455237D01*
X137067007Y-131477659D01*
X137472507Y-131883159D01*
X137477724Y-131888700D01*
X137518047Y-131934215D01*
X137568113Y-131968773D01*
X137574215Y-131973263D01*
X137622094Y-132010774D01*
X137626045Y-132012552D01*
X137631387Y-132014957D01*
X137651248Y-132026159D01*
X137659642Y-132031953D01*
X137716513Y-132053521D01*
X137723533Y-132056428D01*
X137778990Y-132081388D01*
X137789019Y-132083225D01*
X137810984Y-132089349D01*
X137820519Y-132092965D01*
X137852694Y-132096871D01*
X137880899Y-132100296D01*
X137888401Y-132101437D01*
X137948227Y-132112401D01*
X137948227Y-132112400D01*
X137948228Y-132112401D01*
X138008918Y-132108730D01*
X138016526Y-132108500D01*
X141154340Y-132108500D01*
X141222461Y-132128502D01*
X141243435Y-132145405D01*
X145254595Y-136156564D01*
X145288621Y-136218876D01*
X145291500Y-136245659D01*
X145291500Y-137591391D01*
X145271498Y-137659512D01*
X145217842Y-137706005D01*
X145147568Y-137716109D01*
X145082988Y-137686615D01*
X145044604Y-137626889D01*
X145040641Y-137608312D01*
X145031906Y-137543825D01*
X144961903Y-137328379D01*
X144854556Y-137128894D01*
X144806979Y-137069234D01*
X144713314Y-136951781D01*
X144542718Y-136802737D01*
X144438170Y-136740272D01*
X144348250Y-136686547D01*
X144136161Y-136606949D01*
X144136160Y-136606948D01*
X144136158Y-136606948D01*
X143913268Y-136566500D01*
X143913267Y-136566500D01*
X142643478Y-136566500D01*
X142640684Y-136566751D01*
X142640671Y-136566752D01*
X142474375Y-136581719D01*
X142256006Y-136641986D01*
X142051910Y-136740272D01*
X141965936Y-136802737D01*
X141868637Y-136873429D01*
X141868635Y-136873430D01*
X141868635Y-136873431D01*
X141712087Y-137037166D01*
X141587291Y-137226225D01*
X141498256Y-137434530D01*
X141447849Y-137655384D01*
X141437684Y-137881688D01*
X141445699Y-137940852D01*
X141468094Y-138106175D01*
X141468095Y-138106177D01*
X141538095Y-138321618D01*
X141645445Y-138521107D01*
X141786685Y-138698218D01*
X141876365Y-138776568D01*
X141957282Y-138847263D01*
X142151750Y-138963453D01*
X142363839Y-139043051D01*
X142502863Y-139068280D01*
X142586732Y-139083500D01*
X142586733Y-139083500D01*
X143853700Y-139083500D01*
X143856522Y-139083500D01*
X144025622Y-139068281D01*
X144243993Y-139008014D01*
X144448093Y-138909725D01*
X144631363Y-138776571D01*
X144787912Y-138612834D01*
X144912709Y-138423774D01*
X145001743Y-138215470D01*
X145042659Y-138036201D01*
X145077317Y-137974240D01*
X145139973Y-137940852D01*
X145210734Y-137946638D01*
X145267133Y-137989762D01*
X145291264Y-138056532D01*
X145291500Y-138064239D01*
X145291500Y-139654339D01*
X145271498Y-139722460D01*
X145254595Y-139743434D01*
X143743435Y-141254595D01*
X143681123Y-141288620D01*
X143654340Y-141291500D01*
X142643478Y-141291500D01*
X142640684Y-141291751D01*
X142640671Y-141291752D01*
X142474375Y-141306719D01*
X142256006Y-141366986D01*
X142051910Y-141465272D01*
X141962280Y-141530393D01*
X141868637Y-141598429D01*
X141868635Y-141598430D01*
X141868635Y-141598431D01*
X141712087Y-141762166D01*
X141587291Y-141951225D01*
X141498256Y-142159530D01*
X141447849Y-142380384D01*
X141437684Y-142606688D01*
X141450325Y-142699999D01*
X141468094Y-142831175D01*
X141469867Y-142836631D01*
X141538095Y-143046618D01*
X141645445Y-143246107D01*
X141786685Y-143423218D01*
X141862110Y-143489114D01*
X141957282Y-143572263D01*
X142151750Y-143688453D01*
X142363839Y-143768051D01*
X142502863Y-143793280D01*
X142586732Y-143808500D01*
X142586733Y-143808500D01*
X143853700Y-143808500D01*
X143856522Y-143808500D01*
X144025622Y-143793281D01*
X144243993Y-143733014D01*
X144448093Y-143634725D01*
X144631363Y-143501571D01*
X144787912Y-143337834D01*
X144912709Y-143148774D01*
X145001743Y-142940470D01*
X145052151Y-142719615D01*
X145058346Y-142581688D01*
X146737684Y-142581688D01*
X146748607Y-142662320D01*
X146768094Y-142806175D01*
X146777990Y-142836631D01*
X146838095Y-143021618D01*
X146945445Y-143221107D01*
X147086685Y-143398218D01*
X147176365Y-143476568D01*
X147257282Y-143547263D01*
X147451750Y-143663453D01*
X147663839Y-143743051D01*
X147802863Y-143768280D01*
X147886732Y-143783500D01*
X147886733Y-143783500D01*
X149153700Y-143783500D01*
X149156522Y-143783500D01*
X149325622Y-143768281D01*
X149543993Y-143708014D01*
X149748093Y-143609725D01*
X149931363Y-143476571D01*
X150087912Y-143312834D01*
X150212709Y-143123774D01*
X150301743Y-142915470D01*
X150352151Y-142694615D01*
X150355502Y-142619999D01*
X153987849Y-142619999D01*
X154006466Y-142856553D01*
X154061858Y-143087279D01*
X154152666Y-143306505D01*
X154267267Y-143493520D01*
X154267268Y-143493520D01*
X155015332Y-142745456D01*
X155040157Y-142830003D01*
X155117949Y-142951049D01*
X155226692Y-143045276D01*
X155357577Y-143105049D01*
X155372076Y-143107133D01*
X154626478Y-143852730D01*
X154626478Y-143852731D01*
X154813496Y-143967335D01*
X155032718Y-144058140D01*
X155263446Y-144113533D01*
X155500000Y-144132150D01*
X155736553Y-144113533D01*
X155967281Y-144058140D01*
X156186500Y-143967336D01*
X156373520Y-143852731D01*
X156373520Y-143852729D01*
X155627924Y-143107133D01*
X155642423Y-143105049D01*
X155773308Y-143045276D01*
X155882051Y-142951049D01*
X155959843Y-142830003D01*
X155984667Y-142745458D01*
X156732729Y-143493520D01*
X156732731Y-143493520D01*
X156847336Y-143306500D01*
X156938140Y-143087281D01*
X156993533Y-142856553D01*
X157005854Y-142699999D01*
X160687004Y-142699999D01*
X160706951Y-142927999D01*
X160766186Y-143149070D01*
X160862912Y-143356497D01*
X160912899Y-143427887D01*
X161601272Y-142739515D01*
X161614835Y-142825148D01*
X161672359Y-142938045D01*
X161761955Y-143027641D01*
X161874852Y-143085165D01*
X161960482Y-143098727D01*
X161272110Y-143787098D01*
X161272110Y-143787100D01*
X161343497Y-143837085D01*
X161550929Y-143933813D01*
X161772000Y-143993048D01*
X161999999Y-144012995D01*
X162227999Y-143993048D01*
X162449070Y-143933813D01*
X162656498Y-143837087D01*
X162727888Y-143787099D01*
X162727888Y-143787097D01*
X162039518Y-143098727D01*
X162125148Y-143085165D01*
X162238045Y-143027641D01*
X162327641Y-142938045D01*
X162385165Y-142825148D01*
X162398727Y-142739516D01*
X163087098Y-143427888D01*
X163087099Y-143427888D01*
X163137087Y-143356498D01*
X163233813Y-143149070D01*
X163293048Y-142927999D01*
X163312995Y-142699999D01*
X163293048Y-142472000D01*
X163233813Y-142250929D01*
X163137085Y-142043497D01*
X163087100Y-141972110D01*
X163087097Y-141972110D01*
X162398726Y-142660480D01*
X162385165Y-142574852D01*
X162327641Y-142461955D01*
X162238045Y-142372359D01*
X162125148Y-142314835D01*
X162039514Y-142301272D01*
X162739504Y-141601283D01*
X162744692Y-141575470D01*
X162794091Y-141524478D01*
X162848737Y-141508491D01*
X162848643Y-141508499D01*
X162909201Y-141501989D01*
X163046204Y-141450889D01*
X163163261Y-141363261D01*
X163250889Y-141246204D01*
X163301989Y-141109201D01*
X163308500Y-141048638D01*
X163308500Y-139351362D01*
X163301989Y-139290799D01*
X163250889Y-139153796D01*
X163250888Y-139153794D01*
X163163261Y-139036738D01*
X163046205Y-138949111D01*
X162940607Y-138909725D01*
X162909201Y-138898011D01*
X162848638Y-138891500D01*
X161151362Y-138891500D01*
X161148013Y-138891859D01*
X161148013Y-138891860D01*
X161090799Y-138898011D01*
X160953794Y-138949111D01*
X160836738Y-139036738D01*
X160749111Y-139153794D01*
X160698011Y-139290799D01*
X160691500Y-139351362D01*
X160691500Y-141048638D01*
X160691860Y-141051986D01*
X160698011Y-141109200D01*
X160749111Y-141246205D01*
X160836738Y-141363261D01*
X160953794Y-141450888D01*
X160953795Y-141450888D01*
X160953796Y-141450889D01*
X161090799Y-141501989D01*
X161151358Y-141508499D01*
X161151096Y-141508478D01*
X161217468Y-141531891D01*
X161261024Y-141587957D01*
X161263369Y-141604159D01*
X161960483Y-142301272D01*
X161874852Y-142314835D01*
X161761955Y-142372359D01*
X161672359Y-142461955D01*
X161614835Y-142574852D01*
X161601272Y-142660482D01*
X160912899Y-141972109D01*
X160862913Y-142043499D01*
X160766186Y-142250929D01*
X160706951Y-142472000D01*
X160687004Y-142699999D01*
X157005854Y-142699999D01*
X157012150Y-142620000D01*
X156993533Y-142383446D01*
X156938140Y-142152718D01*
X156847335Y-141933496D01*
X156732731Y-141746478D01*
X156732730Y-141746478D01*
X155984667Y-142494541D01*
X155959843Y-142409997D01*
X155882051Y-142288951D01*
X155773308Y-142194724D01*
X155642423Y-142134951D01*
X155627923Y-142132866D01*
X156373520Y-141387268D01*
X156373520Y-141387267D01*
X156186505Y-141272666D01*
X155967279Y-141181858D01*
X155736553Y-141126466D01*
X155500000Y-141107849D01*
X155263446Y-141126466D01*
X155032720Y-141181858D01*
X154813494Y-141272666D01*
X154626478Y-141387267D01*
X154626478Y-141387269D01*
X155372075Y-142132866D01*
X155357577Y-142134951D01*
X155226692Y-142194724D01*
X155117949Y-142288951D01*
X155040157Y-142409997D01*
X155015332Y-142494541D01*
X154267269Y-141746478D01*
X154267267Y-141746478D01*
X154152666Y-141933494D01*
X154061858Y-142152720D01*
X154006466Y-142383446D01*
X153987849Y-142619999D01*
X150355502Y-142619999D01*
X150362315Y-142468309D01*
X150331906Y-142243825D01*
X150261903Y-142028379D01*
X150154556Y-141828894D01*
X150101342Y-141762166D01*
X150013314Y-141651781D01*
X149842718Y-141502737D01*
X149841464Y-141501988D01*
X149648250Y-141386547D01*
X149436161Y-141306949D01*
X149436160Y-141306948D01*
X149436158Y-141306948D01*
X149213268Y-141266500D01*
X149213267Y-141266500D01*
X147943478Y-141266500D01*
X147940684Y-141266751D01*
X147940671Y-141266752D01*
X147774375Y-141281719D01*
X147556006Y-141341986D01*
X147351910Y-141440272D01*
X147258016Y-141508491D01*
X147168637Y-141573429D01*
X147168635Y-141573430D01*
X147168635Y-141573431D01*
X147012087Y-141737166D01*
X146887291Y-141926225D01*
X146798256Y-142134530D01*
X146747849Y-142355384D01*
X146737684Y-142581688D01*
X145058346Y-142581688D01*
X145062315Y-142493309D01*
X145031906Y-142268825D01*
X144990108Y-142140185D01*
X144982498Y-142116763D01*
X144980471Y-142045795D01*
X145013234Y-141988734D01*
X146483157Y-140518811D01*
X146488683Y-140513610D01*
X146534215Y-140473273D01*
X146568774Y-140423204D01*
X146573256Y-140417113D01*
X146610775Y-140369225D01*
X146614956Y-140359934D01*
X146626163Y-140340064D01*
X146631955Y-140331673D01*
X146653516Y-140274818D01*
X146656418Y-140267809D01*
X146681389Y-140212329D01*
X146683228Y-140202290D01*
X146689350Y-140180332D01*
X146692965Y-140170801D01*
X146700299Y-140110396D01*
X146701433Y-140102945D01*
X146712402Y-140043092D01*
X146708729Y-139982383D01*
X146708500Y-139974776D01*
X146708500Y-139056549D01*
X146728502Y-138988428D01*
X146782158Y-138941935D01*
X146852432Y-138931831D01*
X146910008Y-138955680D01*
X147003796Y-139025889D01*
X147140799Y-139076989D01*
X147201362Y-139083500D01*
X147204731Y-139083500D01*
X149895269Y-139083500D01*
X149898638Y-139083500D01*
X149959201Y-139076989D01*
X150096204Y-139025889D01*
X150213261Y-138938261D01*
X150300889Y-138821204D01*
X150351989Y-138684201D01*
X150358500Y-138623638D01*
X150358500Y-137026362D01*
X150351989Y-136965799D01*
X150300889Y-136828796D01*
X150300888Y-136828794D01*
X150213261Y-136711738D01*
X150096205Y-136624111D01*
X150027702Y-136598561D01*
X149959201Y-136573011D01*
X149898638Y-136566500D01*
X147201362Y-136566500D01*
X147198013Y-136566859D01*
X147198013Y-136566860D01*
X147140799Y-136573011D01*
X147003794Y-136624111D01*
X146910009Y-136694318D01*
X146843489Y-136719129D01*
X146774115Y-136704038D01*
X146723912Y-136653835D01*
X146708500Y-136593450D01*
X146708500Y-135925217D01*
X146708730Y-135917609D01*
X146712402Y-135856908D01*
X146712402Y-135856907D01*
X146701433Y-135797052D01*
X146700295Y-135789572D01*
X146692965Y-135729199D01*
X146689349Y-135719666D01*
X146683227Y-135697702D01*
X146683015Y-135696546D01*
X146681389Y-135687671D01*
X146656418Y-135632189D01*
X146653524Y-135625203D01*
X146631954Y-135568325D01*
X146631952Y-135568323D01*
X146631952Y-135568321D01*
X146626161Y-135559931D01*
X146614957Y-135540067D01*
X146610775Y-135530774D01*
X146573260Y-135482891D01*
X146568766Y-135476783D01*
X146534215Y-135426727D01*
X146488682Y-135386388D01*
X146483141Y-135381171D01*
X146101970Y-135000000D01*
X153987347Y-135000000D01*
X154005969Y-135236630D01*
X154061382Y-135467438D01*
X154152217Y-135686733D01*
X154276237Y-135889114D01*
X154430392Y-136069607D01*
X154610885Y-136223762D01*
X154813266Y-136347782D01*
X154813268Y-136347782D01*
X154813270Y-136347784D01*
X154888520Y-136378953D01*
X155032561Y-136438617D01*
X155032564Y-136438617D01*
X155032565Y-136438618D01*
X155263369Y-136494030D01*
X155500000Y-136512653D01*
X155736631Y-136494030D01*
X155967435Y-136438618D01*
X155967436Y-136438617D01*
X155967438Y-136438617D01*
X156020644Y-136416577D01*
X156186730Y-136347784D01*
X156389115Y-136223762D01*
X156569607Y-136069607D01*
X156723762Y-135889115D01*
X156842580Y-135695222D01*
X159892000Y-135695222D01*
X159892359Y-135701936D01*
X159898505Y-135759093D01*
X159949554Y-135895962D01*
X160037095Y-136012904D01*
X160154037Y-136100445D01*
X160290906Y-136151494D01*
X160348063Y-136157640D01*
X160354777Y-136158000D01*
X160796000Y-136158000D01*
X160796000Y-135311686D01*
X160811955Y-135327641D01*
X160924852Y-135385165D01*
X161018519Y-135400000D01*
X161081481Y-135400000D01*
X161175148Y-135385165D01*
X161288045Y-135327641D01*
X161304000Y-135311686D01*
X161304000Y-136158000D01*
X161745223Y-136158000D01*
X161751936Y-136157640D01*
X161809093Y-136151494D01*
X161945962Y-136100445D01*
X162062904Y-136012904D01*
X162150445Y-135895962D01*
X162201494Y-135759093D01*
X162207640Y-135701936D01*
X162208000Y-135695222D01*
X162208000Y-135254000D01*
X161361686Y-135254000D01*
X161377641Y-135238045D01*
X161435165Y-135125148D01*
X161454986Y-135000000D01*
X161435165Y-134874852D01*
X161377641Y-134761955D01*
X161361686Y-134746000D01*
X162208000Y-134746000D01*
X162208000Y-134304777D01*
X162207640Y-134298063D01*
X162201494Y-134240906D01*
X162150445Y-134104037D01*
X162062904Y-133987095D01*
X161945962Y-133899554D01*
X161809093Y-133848505D01*
X161751936Y-133842359D01*
X161745223Y-133842000D01*
X161304000Y-133842000D01*
X161304000Y-134688314D01*
X161288045Y-134672359D01*
X161175148Y-134614835D01*
X161081481Y-134600000D01*
X161018519Y-134600000D01*
X160924852Y-134614835D01*
X160811955Y-134672359D01*
X160796000Y-134688314D01*
X160796000Y-133842000D01*
X160354777Y-133842000D01*
X160348063Y-133842359D01*
X160290906Y-133848505D01*
X160154037Y-133899554D01*
X160037095Y-133987095D01*
X159949554Y-134104037D01*
X159898505Y-134240906D01*
X159892359Y-134298063D01*
X159892000Y-134304777D01*
X159892000Y-134746000D01*
X160738314Y-134746000D01*
X160722359Y-134761955D01*
X160664835Y-134874852D01*
X160645014Y-135000000D01*
X160664835Y-135125148D01*
X160722359Y-135238045D01*
X160738314Y-135254000D01*
X159892000Y-135254000D01*
X159892000Y-135695222D01*
X156842580Y-135695222D01*
X156847784Y-135686730D01*
X156932212Y-135482901D01*
X156938617Y-135467438D01*
X156943420Y-135447435D01*
X156994030Y-135236631D01*
X157012653Y-135000000D01*
X156994030Y-134763369D01*
X156938618Y-134532565D01*
X156938617Y-134532564D01*
X156938617Y-134532561D01*
X156847782Y-134313266D01*
X156723762Y-134110885D01*
X156569607Y-133930392D01*
X156389114Y-133776237D01*
X156186733Y-133652217D01*
X155967438Y-133561382D01*
X155736630Y-133505969D01*
X155500000Y-133487347D01*
X155263369Y-133505969D01*
X155032561Y-133561382D01*
X154813266Y-133652217D01*
X154610885Y-133776237D01*
X154430392Y-133930392D01*
X154276237Y-134110885D01*
X154152217Y-134313266D01*
X154061382Y-134532561D01*
X154005969Y-134763369D01*
X153987347Y-135000000D01*
X146101970Y-135000000D01*
X142018827Y-130916857D01*
X142013610Y-130911316D01*
X141973273Y-130865785D01*
X141942743Y-130844711D01*
X141923220Y-130831235D01*
X141917092Y-130826725D01*
X141869224Y-130789223D01*
X141859922Y-130785036D01*
X141840068Y-130773839D01*
X141838781Y-130772951D01*
X141831675Y-130768046D01*
X141831673Y-130768045D01*
X141774822Y-130746483D01*
X141767794Y-130743572D01*
X141747187Y-130734298D01*
X148562602Y-130734298D01*
X148580760Y-130999769D01*
X148581928Y-131008268D01*
X148636069Y-131268807D01*
X148638384Y-131277072D01*
X148727495Y-131527806D01*
X148730917Y-131535682D01*
X148853333Y-131771934D01*
X148857804Y-131779287D01*
X148985540Y-131960248D01*
X148985541Y-131960248D01*
X149932912Y-131012876D01*
X149994680Y-131130566D01*
X150107405Y-131257806D01*
X150247305Y-131354371D01*
X150292642Y-131371565D01*
X149345715Y-132318492D01*
X149345715Y-132318494D01*
X149410984Y-132371595D01*
X149417995Y-132376543D01*
X149645352Y-132514802D01*
X149652981Y-132518754D01*
X149897039Y-132624764D01*
X149905132Y-132627641D01*
X150161359Y-132699433D01*
X150169777Y-132701182D01*
X150433380Y-132737413D01*
X150441954Y-132738000D01*
X150708046Y-132738000D01*
X150716619Y-132737413D01*
X150980222Y-132701182D01*
X150988640Y-132699433D01*
X151244867Y-132627641D01*
X151252960Y-132624764D01*
X151497018Y-132518754D01*
X151504647Y-132514802D01*
X151732004Y-132376543D01*
X151739016Y-132371594D01*
X151804283Y-132318494D01*
X151804283Y-132318492D01*
X150857356Y-131371565D01*
X150902695Y-131354371D01*
X151042595Y-131257806D01*
X151155320Y-131130566D01*
X151217087Y-131012876D01*
X152164458Y-131960247D01*
X152292199Y-131779280D01*
X152296666Y-131771934D01*
X152419082Y-131535682D01*
X152422504Y-131527806D01*
X152511615Y-131277072D01*
X152513930Y-131268807D01*
X152568071Y-131008268D01*
X152569239Y-130999769D01*
X152587398Y-130734298D01*
X152587398Y-130730000D01*
X154911807Y-130730000D01*
X154912101Y-130734298D01*
X154930259Y-130999769D01*
X154930558Y-131004130D01*
X154986462Y-131273153D01*
X154987899Y-131277196D01*
X154987902Y-131277207D01*
X155077037Y-131528008D01*
X155077040Y-131528014D01*
X155078477Y-131532058D01*
X155080451Y-131535869D01*
X155080453Y-131535872D01*
X155202906Y-131772197D01*
X155202909Y-131772202D01*
X155204889Y-131776023D01*
X155363343Y-132000502D01*
X155550889Y-132201314D01*
X155764031Y-132374718D01*
X155998800Y-132517484D01*
X156250823Y-132626953D01*
X156515404Y-132701085D01*
X156787615Y-132738500D01*
X156791920Y-132738500D01*
X157058080Y-132738500D01*
X157062385Y-132738500D01*
X157334596Y-132701085D01*
X157599177Y-132626953D01*
X157851200Y-132517484D01*
X158085969Y-132374718D01*
X158299111Y-132201314D01*
X158486657Y-132000502D01*
X158645111Y-131776023D01*
X158771523Y-131532058D01*
X158863538Y-131273153D01*
X158919442Y-131004130D01*
X158938193Y-130730000D01*
X158919442Y-130455870D01*
X158863538Y-130186847D01*
X158807794Y-130030000D01*
X158772962Y-129931991D01*
X158771523Y-129927942D01*
X158645111Y-129683977D01*
X158486657Y-129459498D01*
X158299111Y-129258686D01*
X158155078Y-129141506D01*
X158089304Y-129087995D01*
X158089301Y-129087993D01*
X158085969Y-129085282D01*
X157851200Y-128942516D01*
X157847259Y-128940804D01*
X157847253Y-128940801D01*
X157603112Y-128834756D01*
X157603109Y-128834755D01*
X157599177Y-128833047D01*
X157595052Y-128831891D01*
X157595043Y-128831888D01*
X157338742Y-128760076D01*
X157338732Y-128760074D01*
X157334596Y-128758915D01*
X157330335Y-128758329D01*
X157330324Y-128758327D01*
X157066653Y-128722086D01*
X157066643Y-128722085D01*
X157062385Y-128721500D01*
X156787615Y-128721500D01*
X156783357Y-128722085D01*
X156783346Y-128722086D01*
X156519675Y-128758327D01*
X156519661Y-128758329D01*
X156515404Y-128758915D01*
X156511269Y-128760073D01*
X156511257Y-128760076D01*
X156254956Y-128831888D01*
X156254942Y-128831892D01*
X156250823Y-128833047D01*
X156246895Y-128834753D01*
X156246887Y-128834756D01*
X156002746Y-128940801D01*
X156002733Y-128940807D01*
X155998800Y-128942516D01*
X155995129Y-128944748D01*
X155995122Y-128944752D01*
X155767704Y-129083048D01*
X155767699Y-129083050D01*
X155764031Y-129085282D01*
X155760704Y-129087988D01*
X155760695Y-129087995D01*
X155554225Y-129255971D01*
X155554217Y-129255978D01*
X155550889Y-129258686D01*
X155547957Y-129261824D01*
X155547952Y-129261830D01*
X155366282Y-129456350D01*
X155366274Y-129456358D01*
X155363343Y-129459498D01*
X155360863Y-129463010D01*
X155360860Y-129463015D01*
X155207375Y-129680454D01*
X155207373Y-129680458D01*
X155204889Y-129683977D01*
X155202913Y-129687790D01*
X155202906Y-129687802D01*
X155080453Y-129924127D01*
X155080449Y-129924136D01*
X155078477Y-129927942D01*
X155077042Y-129931978D01*
X155077037Y-129931991D01*
X154987902Y-130182792D01*
X154987897Y-130182807D01*
X154986462Y-130186847D01*
X154985587Y-130191054D01*
X154985587Y-130191057D01*
X154931432Y-130451661D01*
X154931430Y-130451670D01*
X154930558Y-130455870D01*
X154930264Y-130460157D01*
X154930264Y-130460163D01*
X154917621Y-130645005D01*
X154911807Y-130730000D01*
X152587398Y-130730000D01*
X152587398Y-130725701D01*
X152569239Y-130460230D01*
X152568071Y-130451731D01*
X152513930Y-130191192D01*
X152511615Y-130182927D01*
X152422504Y-129932193D01*
X152419082Y-129924317D01*
X152296666Y-129688065D01*
X152292199Y-129680719D01*
X152164457Y-129499750D01*
X151217086Y-130447121D01*
X151155320Y-130329434D01*
X151042595Y-130202194D01*
X150902695Y-130105629D01*
X150857355Y-130088433D01*
X151804283Y-129141504D01*
X151739015Y-129088404D01*
X151732004Y-129083456D01*
X151504647Y-128945197D01*
X151497018Y-128941245D01*
X151252960Y-128835235D01*
X151244867Y-128832358D01*
X150988640Y-128760566D01*
X150980222Y-128758817D01*
X150716619Y-128722586D01*
X150708046Y-128722000D01*
X150441954Y-128722000D01*
X150433380Y-128722586D01*
X150169777Y-128758817D01*
X150161359Y-128760566D01*
X149905132Y-128832358D01*
X149897039Y-128835235D01*
X149652981Y-128941245D01*
X149645352Y-128945197D01*
X149417997Y-129083454D01*
X149410983Y-129088405D01*
X149345715Y-129141504D01*
X149345714Y-129141505D01*
X150292643Y-130088434D01*
X150247305Y-130105629D01*
X150107405Y-130202194D01*
X149994680Y-130329434D01*
X149932913Y-130447121D01*
X148985541Y-129499750D01*
X148857796Y-129680724D01*
X148853335Y-129688061D01*
X148730917Y-129924317D01*
X148727495Y-129932193D01*
X148638384Y-130182927D01*
X148636069Y-130191192D01*
X148581928Y-130451731D01*
X148580760Y-130460230D01*
X148562602Y-130725701D01*
X148562602Y-130734298D01*
X141747187Y-130734298D01*
X141712329Y-130718610D01*
X141702289Y-130716770D01*
X141680332Y-130710649D01*
X141670801Y-130707035D01*
X141610432Y-130699704D01*
X141602914Y-130698559D01*
X141595153Y-130697137D01*
X141543093Y-130687597D01*
X141482390Y-130691270D01*
X141474782Y-130691500D01*
X138336982Y-130691500D01*
X138268861Y-130671498D01*
X138247887Y-130654596D01*
X137590131Y-129996841D01*
X137584930Y-129991316D01*
X137544593Y-129945785D01*
X137524902Y-129932193D01*
X137494540Y-129911235D01*
X137488412Y-129906725D01*
X137440544Y-129869223D01*
X137431242Y-129865036D01*
X137411388Y-129853839D01*
X137410101Y-129852951D01*
X137402995Y-129848046D01*
X137402993Y-129848045D01*
X137346142Y-129826483D01*
X137339114Y-129823572D01*
X137283649Y-129798610D01*
X137273609Y-129796770D01*
X137251652Y-129790649D01*
X137242121Y-129787035D01*
X137181752Y-129779704D01*
X137174234Y-129778559D01*
X137166473Y-129777137D01*
X137114413Y-129767597D01*
X137053710Y-129771270D01*
X137046102Y-129771500D01*
X136852083Y-129771500D01*
X136783962Y-129751498D01*
X136740211Y-129703469D01*
X136730111Y-129683977D01*
X136571657Y-129459498D01*
X136384111Y-129258686D01*
X136240078Y-129141506D01*
X136174304Y-129087995D01*
X136174301Y-129087993D01*
X136170969Y-129085282D01*
X135936200Y-128942516D01*
X135932259Y-128940804D01*
X135932253Y-128940801D01*
X135688112Y-128834756D01*
X135688109Y-128834755D01*
X135684177Y-128833047D01*
X135680052Y-128831891D01*
X135680043Y-128831888D01*
X135423742Y-128760076D01*
X135423732Y-128760074D01*
X135419596Y-128758915D01*
X135415335Y-128758329D01*
X135415324Y-128758327D01*
X135151653Y-128722086D01*
X135151643Y-128722085D01*
X135147385Y-128721500D01*
X134872615Y-128721500D01*
X134868357Y-128722085D01*
X134868346Y-128722086D01*
X134604675Y-128758327D01*
X134604661Y-128758329D01*
X134600404Y-128758915D01*
X134596269Y-128760073D01*
X134596257Y-128760076D01*
X134339956Y-128831888D01*
X134339942Y-128831892D01*
X134335823Y-128833047D01*
X134331895Y-128834753D01*
X134331887Y-128834756D01*
X134087746Y-128940801D01*
X134087733Y-128940807D01*
X134083800Y-128942516D01*
X134080129Y-128944748D01*
X134080122Y-128944752D01*
X133852704Y-129083048D01*
X133852699Y-129083050D01*
X133849031Y-129085282D01*
X133845704Y-129087988D01*
X133845695Y-129087995D01*
X133639225Y-129255971D01*
X133639217Y-129255978D01*
X133635889Y-129258686D01*
X133632957Y-129261824D01*
X133632952Y-129261830D01*
X133451282Y-129456350D01*
X133451274Y-129456358D01*
X133448343Y-129459498D01*
X133445863Y-129463010D01*
X133445860Y-129463015D01*
X133292375Y-129680454D01*
X133292373Y-129680458D01*
X133289889Y-129683977D01*
X133287913Y-129687790D01*
X133287906Y-129687802D01*
X133165453Y-129924127D01*
X133165449Y-129924136D01*
X133163477Y-129927942D01*
X133162042Y-129931978D01*
X133162037Y-129931991D01*
X133072902Y-130182792D01*
X133072897Y-130182807D01*
X133071462Y-130186847D01*
X133070587Y-130191054D01*
X133070587Y-130191057D01*
X133016432Y-130451661D01*
X133016430Y-130451670D01*
X133015558Y-130455870D01*
X133015264Y-130460157D01*
X133015264Y-130460163D01*
X133002621Y-130645005D01*
X132996807Y-130730000D01*
X130673193Y-130730000D01*
X130654442Y-130455870D01*
X130598538Y-130186847D01*
X130542794Y-130030000D01*
X130507962Y-129931991D01*
X130506523Y-129927942D01*
X130380111Y-129683977D01*
X130221657Y-129459498D01*
X130034111Y-129258686D01*
X129890078Y-129141506D01*
X129824304Y-129087995D01*
X129824301Y-129087993D01*
X129820969Y-129085282D01*
X129586200Y-128942516D01*
X129582259Y-128940804D01*
X129582253Y-128940801D01*
X129338112Y-128834756D01*
X129338109Y-128834755D01*
X129334177Y-128833047D01*
X129330052Y-128831891D01*
X129330043Y-128831888D01*
X129073742Y-128760076D01*
X129073732Y-128760074D01*
X129069596Y-128758915D01*
X129065335Y-128758329D01*
X129065324Y-128758327D01*
X128801653Y-128722086D01*
X128801643Y-128722085D01*
X128797385Y-128721500D01*
X128522615Y-128721500D01*
X128518357Y-128722085D01*
X128518346Y-128722086D01*
X128254675Y-128758327D01*
X128254661Y-128758329D01*
X128250404Y-128758915D01*
X128246269Y-128760073D01*
X128246257Y-128760076D01*
X127989956Y-128831888D01*
X127989942Y-128831892D01*
X127985823Y-128833047D01*
X127981895Y-128834753D01*
X127981887Y-128834756D01*
X127737746Y-128940801D01*
X127737733Y-128940807D01*
X127733800Y-128942516D01*
X127730129Y-128944748D01*
X127730122Y-128944752D01*
X127502704Y-129083048D01*
X127502699Y-129083050D01*
X127499031Y-129085282D01*
X127495704Y-129087988D01*
X127495695Y-129087995D01*
X127289225Y-129255971D01*
X127289217Y-129255978D01*
X127285889Y-129258686D01*
X127282957Y-129261824D01*
X127282952Y-129261830D01*
X127101282Y-129456350D01*
X127101274Y-129456358D01*
X127098343Y-129459498D01*
X127095863Y-129463010D01*
X127095860Y-129463015D01*
X126942375Y-129680454D01*
X126942373Y-129680458D01*
X126939889Y-129683977D01*
X126937913Y-129687790D01*
X126937906Y-129687802D01*
X126815453Y-129924127D01*
X126815449Y-129924136D01*
X126813477Y-129927942D01*
X126812042Y-129931978D01*
X126812037Y-129931991D01*
X126722902Y-130182792D01*
X126722897Y-130182807D01*
X126721462Y-130186847D01*
X126720587Y-130191054D01*
X126720587Y-130191057D01*
X126666432Y-130451661D01*
X126666430Y-130451670D01*
X126665558Y-130455870D01*
X126665264Y-130460157D01*
X126665264Y-130460163D01*
X126652621Y-130645005D01*
X126646807Y-130730000D01*
X126308500Y-130730000D01*
X126308500Y-125245660D01*
X126328502Y-125177539D01*
X126345405Y-125156565D01*
X132156566Y-119345405D01*
X132218878Y-119311379D01*
X132245661Y-119308500D01*
X141254340Y-119308500D01*
X141322461Y-119328502D01*
X141343435Y-119345405D01*
X142381171Y-120383141D01*
X142386388Y-120388682D01*
X142426727Y-120434215D01*
X142457909Y-120455739D01*
X142476790Y-120468772D01*
X142482905Y-120473271D01*
X142530775Y-120510775D01*
X142540071Y-120514959D01*
X142559931Y-120526160D01*
X142568323Y-120531953D01*
X142568324Y-120531953D01*
X142568325Y-120531954D01*
X142625204Y-120553525D01*
X142632193Y-120556420D01*
X142687671Y-120581389D01*
X142697704Y-120583227D01*
X142719666Y-120589349D01*
X142729199Y-120592965D01*
X142789565Y-120600294D01*
X142797064Y-120601435D01*
X142856908Y-120612402D01*
X142917616Y-120608729D01*
X142925223Y-120608500D01*
X159654340Y-120608500D01*
X159722461Y-120628502D01*
X159743435Y-120645405D01*
X165304595Y-126206565D01*
X165338621Y-126268877D01*
X165341500Y-126295660D01*
X165341500Y-129835434D01*
X165321498Y-129903555D01*
X165267842Y-129950048D01*
X165197568Y-129960152D01*
X165132988Y-129930658D01*
X165103626Y-129893402D01*
X164997093Y-129687802D01*
X164997092Y-129687801D01*
X164995111Y-129683977D01*
X164836657Y-129459498D01*
X164649111Y-129258686D01*
X164505078Y-129141506D01*
X164439304Y-129087995D01*
X164439301Y-129087993D01*
X164435969Y-129085282D01*
X164201200Y-128942516D01*
X164197259Y-128940804D01*
X164197253Y-128940801D01*
X163953112Y-128834756D01*
X163953109Y-128834755D01*
X163949177Y-128833047D01*
X163945052Y-128831891D01*
X163945043Y-128831888D01*
X163688742Y-128760076D01*
X163688732Y-128760074D01*
X163684596Y-128758915D01*
X163680335Y-128758329D01*
X163680324Y-128758327D01*
X163416653Y-128722086D01*
X163416643Y-128722085D01*
X163412385Y-128721500D01*
X163137615Y-128721500D01*
X163133357Y-128722085D01*
X163133346Y-128722086D01*
X162869675Y-128758327D01*
X162869661Y-128758329D01*
X162865404Y-128758915D01*
X162861269Y-128760073D01*
X162861257Y-128760076D01*
X162604956Y-128831888D01*
X162604942Y-128831892D01*
X162600823Y-128833047D01*
X162596895Y-128834753D01*
X162596887Y-128834756D01*
X162352746Y-128940801D01*
X162352733Y-128940807D01*
X162348800Y-128942516D01*
X162345129Y-128944748D01*
X162345122Y-128944752D01*
X162117704Y-129083048D01*
X162117699Y-129083050D01*
X162114031Y-129085282D01*
X162110704Y-129087988D01*
X162110695Y-129087995D01*
X161904225Y-129255971D01*
X161904217Y-129255978D01*
X161900889Y-129258686D01*
X161897957Y-129261824D01*
X161897952Y-129261830D01*
X161716282Y-129456350D01*
X161716274Y-129456358D01*
X161713343Y-129459498D01*
X161710863Y-129463010D01*
X161710860Y-129463015D01*
X161557375Y-129680454D01*
X161557373Y-129680458D01*
X161554889Y-129683977D01*
X161552913Y-129687790D01*
X161552906Y-129687802D01*
X161430453Y-129924127D01*
X161430449Y-129924136D01*
X161428477Y-129927942D01*
X161427042Y-129931978D01*
X161427037Y-129931991D01*
X161337902Y-130182792D01*
X161337897Y-130182807D01*
X161336462Y-130186847D01*
X161335587Y-130191054D01*
X161335587Y-130191057D01*
X161281432Y-130451661D01*
X161281430Y-130451670D01*
X161280558Y-130455870D01*
X161280264Y-130460157D01*
X161280264Y-130460163D01*
X161267621Y-130645005D01*
X161261807Y-130730000D01*
X161262101Y-130734298D01*
X161280259Y-130999769D01*
X161280558Y-131004130D01*
X161336462Y-131273153D01*
X161337899Y-131277196D01*
X161337902Y-131277207D01*
X161427037Y-131528008D01*
X161427040Y-131528014D01*
X161428477Y-131532058D01*
X161430451Y-131535869D01*
X161430453Y-131535872D01*
X161552906Y-131772197D01*
X161552909Y-131772202D01*
X161554889Y-131776023D01*
X161713343Y-132000502D01*
X161900889Y-132201314D01*
X162114031Y-132374718D01*
X162348800Y-132517484D01*
X162600823Y-132626953D01*
X162865404Y-132701085D01*
X163137615Y-132738500D01*
X163141920Y-132738500D01*
X163408080Y-132738500D01*
X163412385Y-132738500D01*
X163684596Y-132701085D01*
X163949177Y-132626953D01*
X164201200Y-132517484D01*
X164435969Y-132374718D01*
X164649111Y-132201314D01*
X164836657Y-132000502D01*
X164995111Y-131776023D01*
X165103626Y-131566596D01*
X165152726Y-131515316D01*
X165221755Y-131498720D01*
X165288799Y-131522080D01*
X165332571Y-131577977D01*
X165341500Y-131624565D01*
X165341500Y-134022607D01*
X165321498Y-134090728D01*
X165300386Y-134115721D01*
X165190192Y-134216176D01*
X165060803Y-134387517D01*
X164965102Y-134579709D01*
X164906346Y-134786215D01*
X164886536Y-134999999D01*
X164906346Y-135213784D01*
X164965102Y-135420290D01*
X165029945Y-135550511D01*
X165060804Y-135612484D01*
X165190190Y-135783820D01*
X165348857Y-135928464D01*
X165348859Y-135928465D01*
X165348860Y-135928466D01*
X165478598Y-136008796D01*
X165531400Y-136041489D01*
X165731603Y-136119049D01*
X165942649Y-136158500D01*
X165942650Y-136158500D01*
X166157350Y-136158500D01*
X166157351Y-136158500D01*
X166368397Y-136119049D01*
X166568600Y-136041489D01*
X166751143Y-135928464D01*
X166909810Y-135783820D01*
X167039196Y-135612484D01*
X167134897Y-135420291D01*
X167193653Y-135213786D01*
X167213463Y-135000000D01*
X167193653Y-134786214D01*
X167134897Y-134579709D01*
X167039196Y-134387516D01*
X166909810Y-134216180D01*
X166909807Y-134216176D01*
X166799614Y-134115721D01*
X166762748Y-134055047D01*
X166758500Y-134022607D01*
X166758500Y-125975217D01*
X166758730Y-125967609D01*
X166762402Y-125906908D01*
X166762402Y-125906907D01*
X166751433Y-125847052D01*
X166750295Y-125839572D01*
X166742965Y-125779199D01*
X166739349Y-125769666D01*
X166733227Y-125747702D01*
X166731389Y-125737671D01*
X166706418Y-125682189D01*
X166703524Y-125675203D01*
X166681954Y-125618325D01*
X166681952Y-125618323D01*
X166681952Y-125618321D01*
X166676161Y-125609931D01*
X166664957Y-125590067D01*
X166660775Y-125580774D01*
X166623260Y-125532891D01*
X166618766Y-125526783D01*
X166584215Y-125476727D01*
X166538682Y-125436388D01*
X166533141Y-125431171D01*
X160518827Y-119416857D01*
X160513610Y-119411316D01*
X160473273Y-119365785D01*
X160442743Y-119344711D01*
X160423220Y-119331235D01*
X160417092Y-119326725D01*
X160369224Y-119289223D01*
X160359922Y-119285036D01*
X160340068Y-119273839D01*
X160338781Y-119272951D01*
X160331675Y-119268046D01*
X160331673Y-119268045D01*
X160274822Y-119246483D01*
X160267794Y-119243572D01*
X160212329Y-119218610D01*
X160202289Y-119216770D01*
X160180332Y-119210649D01*
X160170801Y-119207035D01*
X160110432Y-119199704D01*
X160102914Y-119198559D01*
X160095153Y-119197137D01*
X160043093Y-119187597D01*
X159982390Y-119191270D01*
X159974782Y-119191500D01*
X143245660Y-119191500D01*
X143177539Y-119171498D01*
X143156565Y-119154595D01*
X142345405Y-118343435D01*
X142311379Y-118281123D01*
X142308500Y-118254340D01*
X142308500Y-118041643D01*
X142328502Y-117973522D01*
X142357104Y-117942215D01*
X142523240Y-117812906D01*
X142584626Y-117746222D01*
X142645476Y-117709654D01*
X142716440Y-117711787D01*
X142774986Y-117751948D01*
X142795381Y-117787529D01*
X142839554Y-117905963D01*
X142927095Y-118022904D01*
X143044037Y-118110445D01*
X143180906Y-118161494D01*
X143238063Y-118167640D01*
X143244777Y-118168000D01*
X143886000Y-118168000D01*
X143886000Y-117243674D01*
X143997685Y-117294680D01*
X144104237Y-117310000D01*
X144175763Y-117310000D01*
X144282315Y-117294680D01*
X144394000Y-117243674D01*
X144394000Y-118168000D01*
X145035223Y-118168000D01*
X145041936Y-118167640D01*
X145099093Y-118161494D01*
X145235962Y-118110445D01*
X145352904Y-118022904D01*
X145440445Y-117905962D01*
X145491494Y-117769093D01*
X145497640Y-117711936D01*
X145498000Y-117705222D01*
X145498000Y-117064000D01*
X144571116Y-117064000D01*
X144599493Y-117019844D01*
X144640000Y-116881889D01*
X144640000Y-116738111D01*
X144599493Y-116600156D01*
X144571116Y-116556000D01*
X145498000Y-116556000D01*
X145498000Y-115914777D01*
X145497640Y-115908063D01*
X145491494Y-115850906D01*
X145440445Y-115714037D01*
X145352904Y-115597095D01*
X145235962Y-115509554D01*
X145099093Y-115458505D01*
X145041936Y-115452359D01*
X145035223Y-115452000D01*
X144394000Y-115452000D01*
X144394000Y-116376325D01*
X144282315Y-116325320D01*
X144175763Y-116310000D01*
X144104237Y-116310000D01*
X143997685Y-116325320D01*
X143886000Y-116376325D01*
X143886000Y-115452000D01*
X143244777Y-115452000D01*
X143238063Y-115452359D01*
X143180906Y-115458505D01*
X143044037Y-115509554D01*
X142927095Y-115597095D01*
X142839554Y-115714036D01*
X142795381Y-115832470D01*
X142752834Y-115889305D01*
X142686313Y-115914116D01*
X142616939Y-115899024D01*
X142584624Y-115873774D01*
X142523240Y-115807093D01*
X142357109Y-115677787D01*
X142315638Y-115620162D01*
X142308500Y-115578356D01*
X142308500Y-114500000D01*
X148561807Y-114500000D01*
X148562101Y-114504298D01*
X148580259Y-114769769D01*
X148580558Y-114774130D01*
X148636462Y-115043153D01*
X148637899Y-115047196D01*
X148637902Y-115047207D01*
X148727037Y-115298008D01*
X148727040Y-115298015D01*
X148728477Y-115302058D01*
X148730451Y-115305869D01*
X148730453Y-115305872D01*
X148852906Y-115542197D01*
X148852909Y-115542202D01*
X148854889Y-115546023D01*
X149013343Y-115770502D01*
X149200889Y-115971314D01*
X149414031Y-116144718D01*
X149648800Y-116287484D01*
X149900823Y-116396953D01*
X150165404Y-116471085D01*
X150437615Y-116508500D01*
X150441920Y-116508500D01*
X150708080Y-116508500D01*
X150712385Y-116508500D01*
X150984596Y-116471085D01*
X151249177Y-116396953D01*
X151501200Y-116287484D01*
X151735969Y-116144718D01*
X151949111Y-115971314D01*
X152136657Y-115770502D01*
X152295111Y-115546023D01*
X152421523Y-115302058D01*
X152513538Y-115043153D01*
X152569442Y-114774130D01*
X152588193Y-114500000D01*
X154911807Y-114500000D01*
X154912101Y-114504298D01*
X154930259Y-114769769D01*
X154930558Y-114774130D01*
X154986462Y-115043153D01*
X154987899Y-115047196D01*
X154987902Y-115047207D01*
X155077037Y-115298008D01*
X155077040Y-115298015D01*
X155078477Y-115302058D01*
X155080451Y-115305869D01*
X155080453Y-115305872D01*
X155202906Y-115542197D01*
X155202909Y-115542202D01*
X155204889Y-115546023D01*
X155363343Y-115770502D01*
X155550889Y-115971314D01*
X155764031Y-116144718D01*
X155998800Y-116287484D01*
X156250823Y-116396953D01*
X156515404Y-116471085D01*
X156787615Y-116508500D01*
X156791920Y-116508500D01*
X157058080Y-116508500D01*
X157062385Y-116508500D01*
X157334596Y-116471085D01*
X157599177Y-116396953D01*
X157851200Y-116287484D01*
X158085969Y-116144718D01*
X158299111Y-115971314D01*
X158486657Y-115770502D01*
X158645111Y-115546023D01*
X158771523Y-115302058D01*
X158863538Y-115043153D01*
X158919442Y-114774130D01*
X158937899Y-114504298D01*
X161262602Y-114504298D01*
X161280760Y-114769769D01*
X161281928Y-114778268D01*
X161336069Y-115038807D01*
X161338384Y-115047072D01*
X161427495Y-115297806D01*
X161430917Y-115305682D01*
X161553333Y-115541934D01*
X161557804Y-115549287D01*
X161685540Y-115730248D01*
X161685541Y-115730248D01*
X162632912Y-114782876D01*
X162694680Y-114900566D01*
X162807405Y-115027806D01*
X162947305Y-115124371D01*
X162992642Y-115141565D01*
X162045715Y-116088492D01*
X162045715Y-116088494D01*
X162110984Y-116141595D01*
X162117995Y-116146543D01*
X162345352Y-116284802D01*
X162352981Y-116288754D01*
X162597039Y-116394764D01*
X162605132Y-116397641D01*
X162861359Y-116469433D01*
X162869777Y-116471182D01*
X163133380Y-116507413D01*
X163141954Y-116508000D01*
X163408046Y-116508000D01*
X163416619Y-116507413D01*
X163680222Y-116471182D01*
X163688640Y-116469433D01*
X163944867Y-116397641D01*
X163952960Y-116394764D01*
X164197018Y-116288754D01*
X164204647Y-116284802D01*
X164432004Y-116146543D01*
X164439016Y-116141594D01*
X164504283Y-116088494D01*
X164504283Y-116088492D01*
X163557356Y-115141565D01*
X163602695Y-115124371D01*
X163742595Y-115027806D01*
X163855320Y-114900566D01*
X163917087Y-114782877D01*
X164864457Y-115730248D01*
X164992199Y-115549280D01*
X164996666Y-115541934D01*
X165119082Y-115305682D01*
X165122504Y-115297806D01*
X165211615Y-115047072D01*
X165213930Y-115038807D01*
X165268071Y-114778268D01*
X165269239Y-114769769D01*
X165287398Y-114504298D01*
X165287398Y-114495701D01*
X165269239Y-114230230D01*
X165268071Y-114221731D01*
X165213930Y-113961192D01*
X165211615Y-113952927D01*
X165122504Y-113702193D01*
X165119082Y-113694317D01*
X164996666Y-113458065D01*
X164992199Y-113450719D01*
X164864457Y-113269750D01*
X163917086Y-114217120D01*
X163855320Y-114099434D01*
X163742595Y-113972194D01*
X163602695Y-113875629D01*
X163557355Y-113858433D01*
X164504283Y-112911504D01*
X164439015Y-112858404D01*
X164432004Y-112853456D01*
X164204647Y-112715197D01*
X164197018Y-112711245D01*
X163952960Y-112605235D01*
X163944867Y-112602358D01*
X163688640Y-112530566D01*
X163680222Y-112528817D01*
X163416619Y-112492586D01*
X163408046Y-112492000D01*
X163141954Y-112492000D01*
X163133380Y-112492586D01*
X162869777Y-112528817D01*
X162861359Y-112530566D01*
X162605132Y-112602358D01*
X162597039Y-112605235D01*
X162352981Y-112711245D01*
X162345352Y-112715197D01*
X162117997Y-112853454D01*
X162110983Y-112858405D01*
X162045715Y-112911504D01*
X162045714Y-112911505D01*
X162992643Y-113858434D01*
X162947305Y-113875629D01*
X162807405Y-113972194D01*
X162694680Y-114099434D01*
X162632913Y-114217122D01*
X161685541Y-113269750D01*
X161557796Y-113450724D01*
X161553335Y-113458061D01*
X161430917Y-113694317D01*
X161427495Y-113702193D01*
X161338384Y-113952927D01*
X161336069Y-113961192D01*
X161281928Y-114221731D01*
X161280760Y-114230230D01*
X161262602Y-114495701D01*
X161262602Y-114504298D01*
X158937899Y-114504298D01*
X158938193Y-114500000D01*
X158919442Y-114225870D01*
X158863538Y-113956847D01*
X158807794Y-113800000D01*
X158772962Y-113701991D01*
X158771523Y-113697942D01*
X158645111Y-113453977D01*
X158486657Y-113229498D01*
X158299111Y-113028686D01*
X158295774Y-113025971D01*
X158089304Y-112857995D01*
X158089301Y-112857993D01*
X158085969Y-112855282D01*
X157851200Y-112712516D01*
X157847259Y-112710804D01*
X157847253Y-112710801D01*
X157603112Y-112604756D01*
X157603109Y-112604755D01*
X157599177Y-112603047D01*
X157595052Y-112601891D01*
X157595043Y-112601888D01*
X157338742Y-112530076D01*
X157338732Y-112530074D01*
X157334596Y-112528915D01*
X157330335Y-112528329D01*
X157330324Y-112528327D01*
X157066653Y-112492086D01*
X157066643Y-112492085D01*
X157062385Y-112491500D01*
X156787615Y-112491500D01*
X156783357Y-112492085D01*
X156783346Y-112492086D01*
X156519675Y-112528327D01*
X156519661Y-112528329D01*
X156515404Y-112528915D01*
X156511269Y-112530073D01*
X156511257Y-112530076D01*
X156254956Y-112601888D01*
X156254942Y-112601892D01*
X156250823Y-112603047D01*
X156246895Y-112604753D01*
X156246887Y-112604756D01*
X156002746Y-112710801D01*
X156002733Y-112710807D01*
X155998800Y-112712516D01*
X155995129Y-112714748D01*
X155995122Y-112714752D01*
X155767704Y-112853048D01*
X155767699Y-112853050D01*
X155764031Y-112855282D01*
X155760704Y-112857988D01*
X155760695Y-112857995D01*
X155554225Y-113025971D01*
X155554217Y-113025978D01*
X155550889Y-113028686D01*
X155547957Y-113031824D01*
X155547952Y-113031830D01*
X155366282Y-113226350D01*
X155366274Y-113226358D01*
X155363343Y-113229498D01*
X155360863Y-113233010D01*
X155360860Y-113233015D01*
X155207375Y-113450454D01*
X155207370Y-113450462D01*
X155204889Y-113453977D01*
X155202913Y-113457790D01*
X155202906Y-113457802D01*
X155080453Y-113694127D01*
X155080449Y-113694136D01*
X155078477Y-113697942D01*
X155077042Y-113701978D01*
X155077037Y-113701991D01*
X154987902Y-113952792D01*
X154987897Y-113952807D01*
X154986462Y-113956847D01*
X154985587Y-113961054D01*
X154985587Y-113961057D01*
X154931432Y-114221661D01*
X154931430Y-114221670D01*
X154930558Y-114225870D01*
X154930264Y-114230157D01*
X154930264Y-114230163D01*
X154917621Y-114415005D01*
X154911807Y-114500000D01*
X152588193Y-114500000D01*
X152569442Y-114225870D01*
X152513538Y-113956847D01*
X152457794Y-113800000D01*
X152422962Y-113701991D01*
X152421523Y-113697942D01*
X152295111Y-113453977D01*
X152136657Y-113229498D01*
X151949111Y-113028686D01*
X151945774Y-113025971D01*
X151739304Y-112857995D01*
X151739301Y-112857993D01*
X151735969Y-112855282D01*
X151501200Y-112712516D01*
X151497259Y-112710804D01*
X151497253Y-112710801D01*
X151253112Y-112604756D01*
X151253109Y-112604755D01*
X151249177Y-112603047D01*
X151245052Y-112601891D01*
X151245043Y-112601888D01*
X150988742Y-112530076D01*
X150988732Y-112530074D01*
X150984596Y-112528915D01*
X150980335Y-112528329D01*
X150980324Y-112528327D01*
X150716653Y-112492086D01*
X150716643Y-112492085D01*
X150712385Y-112491500D01*
X150437615Y-112491500D01*
X150433357Y-112492085D01*
X150433346Y-112492086D01*
X150169675Y-112528327D01*
X150169661Y-112528329D01*
X150165404Y-112528915D01*
X150161269Y-112530073D01*
X150161257Y-112530076D01*
X149904956Y-112601888D01*
X149904942Y-112601892D01*
X149900823Y-112603047D01*
X149896895Y-112604753D01*
X149896887Y-112604756D01*
X149652746Y-112710801D01*
X149652733Y-112710807D01*
X149648800Y-112712516D01*
X149645129Y-112714748D01*
X149645122Y-112714752D01*
X149417704Y-112853048D01*
X149417699Y-112853050D01*
X149414031Y-112855282D01*
X149410704Y-112857988D01*
X149410695Y-112857995D01*
X149204225Y-113025971D01*
X149204217Y-113025978D01*
X149200889Y-113028686D01*
X149197957Y-113031824D01*
X149197952Y-113031830D01*
X149016282Y-113226350D01*
X149016274Y-113226358D01*
X149013343Y-113229498D01*
X149010863Y-113233010D01*
X149010860Y-113233015D01*
X148857375Y-113450454D01*
X148857370Y-113450462D01*
X148854889Y-113453977D01*
X148852913Y-113457790D01*
X148852906Y-113457802D01*
X148730453Y-113694127D01*
X148730449Y-113694136D01*
X148728477Y-113697942D01*
X148727042Y-113701978D01*
X148727037Y-113701991D01*
X148637902Y-113952792D01*
X148637897Y-113952807D01*
X148636462Y-113956847D01*
X148635587Y-113961054D01*
X148635587Y-113961057D01*
X148581432Y-114221661D01*
X148581430Y-114221670D01*
X148580558Y-114225870D01*
X148580264Y-114230157D01*
X148580264Y-114230163D01*
X148567621Y-114415005D01*
X148561807Y-114500000D01*
X142308500Y-114500000D01*
X142308500Y-112757745D01*
X142312083Y-112738187D01*
X142311120Y-112738071D01*
X142312963Y-112722885D01*
X142312965Y-112722882D01*
X142320298Y-112662473D01*
X142321435Y-112655008D01*
X142332401Y-112595174D01*
X142331893Y-112586789D01*
X142347746Y-112517585D01*
X142380273Y-112479750D01*
X142543237Y-112352908D01*
X142543240Y-112352906D01*
X142695722Y-112187268D01*
X142784817Y-112050896D01*
X142838819Y-112004809D01*
X142909167Y-111995234D01*
X142973524Y-112025211D01*
X142995782Y-112050897D01*
X143084678Y-112186962D01*
X143237096Y-112352533D01*
X143414697Y-112490766D01*
X143612631Y-112597883D01*
X143825485Y-112670955D01*
X143906000Y-112684391D01*
X143906000Y-111783674D01*
X144017685Y-111834680D01*
X144124237Y-111850000D01*
X144195763Y-111850000D01*
X144302315Y-111834680D01*
X144414000Y-111783674D01*
X144414000Y-112684390D01*
X144494514Y-112670955D01*
X144707368Y-112597883D01*
X144905302Y-112490766D01*
X145082899Y-112352536D01*
X145144047Y-112286112D01*
X145204900Y-112249541D01*
X145275864Y-112251674D01*
X145334410Y-112291835D01*
X145354805Y-112327416D01*
X145399111Y-112446206D01*
X145486738Y-112563261D01*
X145603794Y-112650888D01*
X145603795Y-112650888D01*
X145603796Y-112650889D01*
X145740799Y-112701989D01*
X145801362Y-112708500D01*
X145804731Y-112708500D01*
X147595269Y-112708500D01*
X147598638Y-112708500D01*
X147659201Y-112701989D01*
X147796204Y-112650889D01*
X147913261Y-112563261D01*
X148000889Y-112446204D01*
X148051989Y-112309201D01*
X148058500Y-112248638D01*
X148058500Y-110451362D01*
X148051989Y-110390799D01*
X148000889Y-110253796D01*
X148000888Y-110253794D01*
X147913261Y-110136738D01*
X147796205Y-110049111D01*
X147706377Y-110015607D01*
X147659201Y-109998011D01*
X147598638Y-109991500D01*
X145801362Y-109991500D01*
X145798013Y-109991859D01*
X145798013Y-109991860D01*
X145740799Y-109998011D01*
X145603794Y-110049111D01*
X145486738Y-110136738D01*
X145399109Y-110253796D01*
X145354804Y-110372583D01*
X145312257Y-110429419D01*
X145245737Y-110454229D01*
X145176363Y-110439137D01*
X145144048Y-110413887D01*
X145082903Y-110347466D01*
X144905302Y-110209233D01*
X144707368Y-110102116D01*
X144494510Y-110029042D01*
X144414000Y-110015606D01*
X144414000Y-110916325D01*
X144302315Y-110865320D01*
X144195763Y-110850000D01*
X144124237Y-110850000D01*
X144017685Y-110865320D01*
X143906000Y-110916325D01*
X143906000Y-110015607D01*
X143905999Y-110015606D01*
X143825489Y-110029042D01*
X143612631Y-110102116D01*
X143414697Y-110209233D01*
X143237096Y-110347466D01*
X143084678Y-110513037D01*
X142995782Y-110649102D01*
X142941778Y-110695190D01*
X142871430Y-110704765D01*
X142807073Y-110674787D01*
X142784816Y-110649101D01*
X142784517Y-110648643D01*
X142695722Y-110512732D01*
X142543240Y-110347094D01*
X142543239Y-110347093D01*
X142543237Y-110347091D01*
X142365578Y-110208812D01*
X142167573Y-110101657D01*
X141983588Y-110038495D01*
X141925653Y-109997458D01*
X141899101Y-109931613D01*
X141898500Y-109919322D01*
X141898500Y-109691500D01*
X141918502Y-109623379D01*
X141972158Y-109576886D01*
X142024500Y-109565500D01*
X144244470Y-109565500D01*
X144266350Y-109567414D01*
X144276047Y-109569124D01*
X144276047Y-109569123D01*
X144276048Y-109569124D01*
X144285746Y-109567413D01*
X144303381Y-109565871D01*
X144320473Y-109561290D01*
X144330172Y-109559581D01*
X144330173Y-109559579D01*
X144336260Y-109556064D01*
X144341641Y-109551549D01*
X144341645Y-109551548D01*
X144346569Y-109543018D01*
X144359165Y-109525028D01*
X144365500Y-109517480D01*
X144365500Y-109517479D01*
X144367902Y-109510879D01*
X144369122Y-109503955D01*
X144369124Y-109503952D01*
X144367414Y-109494253D01*
X144365500Y-109472374D01*
X144365500Y-107805529D01*
X144367414Y-107783648D01*
X144369122Y-107773955D01*
X144369124Y-107773952D01*
X144367414Y-107764253D01*
X144365871Y-107746620D01*
X144361290Y-107729522D01*
X144361129Y-107728610D01*
X144359581Y-107719828D01*
X144359579Y-107719827D01*
X144356062Y-107713735D01*
X144351549Y-107708355D01*
X144343016Y-107703429D01*
X144325025Y-107690831D01*
X144317479Y-107684499D01*
X144310881Y-107682097D01*
X144303952Y-107680875D01*
X144294254Y-107682586D01*
X144272375Y-107684500D01*
X142024500Y-107684500D01*
X141956379Y-107664498D01*
X141909886Y-107610842D01*
X141898500Y-107558500D01*
X141898500Y-107230677D01*
X141918502Y-107162556D01*
X141972158Y-107116063D01*
X141983580Y-107111507D01*
X142167574Y-107048342D01*
X142365576Y-106941189D01*
X142543240Y-106802906D01*
X142695722Y-106637268D01*
X142784817Y-106500896D01*
X142838819Y-106454809D01*
X142909167Y-106445234D01*
X142973524Y-106475211D01*
X142995782Y-106500897D01*
X143084678Y-106636962D01*
X143237096Y-106802533D01*
X143414697Y-106940766D01*
X143612631Y-107047883D01*
X143825485Y-107120955D01*
X143906000Y-107134391D01*
X143906000Y-106233674D01*
X144017685Y-106284680D01*
X144124237Y-106300000D01*
X144195763Y-106300000D01*
X144302315Y-106284680D01*
X144414000Y-106233674D01*
X144414000Y-107134390D01*
X144494514Y-107120955D01*
X144707368Y-107047883D01*
X144905302Y-106940766D01*
X145082899Y-106802536D01*
X145144047Y-106736112D01*
X145204900Y-106699541D01*
X145275864Y-106701674D01*
X145334410Y-106741835D01*
X145354805Y-106777416D01*
X145399111Y-106896206D01*
X145486738Y-107013261D01*
X145603794Y-107100888D01*
X145603795Y-107100888D01*
X145603796Y-107100889D01*
X145740799Y-107151989D01*
X145801362Y-107158500D01*
X145804731Y-107158500D01*
X147595269Y-107158500D01*
X147598638Y-107158500D01*
X147659201Y-107151989D01*
X147796204Y-107100889D01*
X147913261Y-107013261D01*
X148000889Y-106896204D01*
X148051989Y-106759201D01*
X148058500Y-106698638D01*
X148058500Y-104901362D01*
X148051989Y-104840799D01*
X148000889Y-104703796D01*
X147984691Y-104682158D01*
X147913261Y-104586738D01*
X147796205Y-104499111D01*
X147706377Y-104465607D01*
X147659201Y-104448011D01*
X147598638Y-104441500D01*
X145801362Y-104441500D01*
X145798013Y-104441859D01*
X145798013Y-104441860D01*
X145740799Y-104448011D01*
X145603794Y-104499111D01*
X145486738Y-104586738D01*
X145399109Y-104703796D01*
X145354804Y-104822583D01*
X145312257Y-104879419D01*
X145245737Y-104904229D01*
X145176363Y-104889137D01*
X145144048Y-104863887D01*
X145082903Y-104797466D01*
X144905302Y-104659233D01*
X144707368Y-104552116D01*
X144494510Y-104479042D01*
X144414000Y-104465606D01*
X144414000Y-105366325D01*
X144302315Y-105315320D01*
X144195763Y-105300000D01*
X144124237Y-105300000D01*
X144017685Y-105315320D01*
X143906000Y-105366325D01*
X143906000Y-104465607D01*
X143905999Y-104465606D01*
X143825489Y-104479042D01*
X143612631Y-104552116D01*
X143414697Y-104659233D01*
X143237096Y-104797466D01*
X143084678Y-104963037D01*
X142995782Y-105099102D01*
X142941778Y-105145190D01*
X142871430Y-105154765D01*
X142807073Y-105124787D01*
X142784816Y-105099101D01*
X142779997Y-105091725D01*
X142695722Y-104962732D01*
X142543240Y-104797094D01*
X142543239Y-104797093D01*
X142543237Y-104797091D01*
X142380971Y-104670793D01*
X142339500Y-104613168D01*
X142335068Y-104581457D01*
X142329691Y-104552116D01*
X142321435Y-104507064D01*
X142320293Y-104499555D01*
X142317802Y-104479042D01*
X142312965Y-104439199D01*
X142309349Y-104429666D01*
X142303227Y-104407702D01*
X142301389Y-104397671D01*
X142276420Y-104342193D01*
X142273525Y-104335204D01*
X142251954Y-104278325D01*
X142246160Y-104269931D01*
X142234957Y-104250068D01*
X142230775Y-104240776D01*
X142230775Y-104240775D01*
X142193271Y-104192905D01*
X142188772Y-104186790D01*
X142175739Y-104167909D01*
X142154215Y-104136727D01*
X142108682Y-104096388D01*
X142103141Y-104091171D01*
X141428827Y-103416857D01*
X141423610Y-103411316D01*
X141421168Y-103408560D01*
X141383273Y-103365785D01*
X141352743Y-103344711D01*
X141333220Y-103331235D01*
X141327092Y-103326725D01*
X141279224Y-103289223D01*
X141269922Y-103285036D01*
X141250068Y-103273839D01*
X141248781Y-103272951D01*
X141241675Y-103268046D01*
X141241673Y-103268045D01*
X141184822Y-103246483D01*
X141177794Y-103243572D01*
X141122329Y-103218610D01*
X141112289Y-103216770D01*
X141090332Y-103210649D01*
X141080801Y-103207035D01*
X141020432Y-103199704D01*
X141012914Y-103198559D01*
X141005153Y-103197137D01*
X140953093Y-103187597D01*
X140892390Y-103191270D01*
X140884782Y-103191500D01*
X139824660Y-103191500D01*
X139756539Y-103171498D01*
X139710046Y-103117842D01*
X139699942Y-103047568D01*
X139729436Y-102982988D01*
X139735565Y-102976405D01*
X142466565Y-100245405D01*
X142528877Y-100211379D01*
X142555660Y-100208500D01*
X144584782Y-100208500D01*
X144592390Y-100208730D01*
X144653091Y-100212402D01*
X144653091Y-100212401D01*
X144653093Y-100212402D01*
X144712941Y-100201434D01*
X144720398Y-100200299D01*
X144780801Y-100192965D01*
X144790328Y-100189351D01*
X144812294Y-100183227D01*
X144822329Y-100181389D01*
X144877797Y-100156423D01*
X144884802Y-100153522D01*
X144941675Y-100131954D01*
X144950069Y-100126159D01*
X144969926Y-100114960D01*
X144979226Y-100110775D01*
X145027140Y-100073235D01*
X145033179Y-100068791D01*
X145083273Y-100034215D01*
X145123603Y-99988690D01*
X145128804Y-99983164D01*
X145776536Y-99335433D01*
X145838846Y-99301410D01*
X145839136Y-99301347D01*
X145992288Y-99268794D01*
X146166752Y-99191118D01*
X146247344Y-99132563D01*
X146314212Y-99108706D01*
X146321405Y-99108500D01*
X148384782Y-99108500D01*
X148392390Y-99108730D01*
X148453091Y-99112402D01*
X148453091Y-99112401D01*
X148453093Y-99112402D01*
X148512941Y-99101434D01*
X148520398Y-99100299D01*
X148580801Y-99092965D01*
X148590328Y-99089351D01*
X148612294Y-99083227D01*
X148622329Y-99081389D01*
X148677797Y-99056423D01*
X148684802Y-99053522D01*
X148741675Y-99031954D01*
X148750069Y-99026159D01*
X148769926Y-99014960D01*
X148779226Y-99010775D01*
X148827140Y-98973235D01*
X148833179Y-98968791D01*
X148883273Y-98934215D01*
X148923612Y-98888680D01*
X148928811Y-98883157D01*
X150982645Y-96829323D01*
X151044955Y-96795299D01*
X151115770Y-96800364D01*
G37*
%TD.AperFunction*%
%TD*%
M02*
