M48
; DRILL file {KiCad 7.0.2-6a45011f42~172~ubuntu22.04.1} date Tue 30 May 2023 10:17:06 BST
; FORMAT={-:-/ absolute / inch / decimal}
; #@! TF.CreationDate,2023-05-30T10:17:06+01:00
; #@! TF.GenerationSoftware,Kicad,Pcbnew,7.0.2-6a45011f42~172~ubuntu22.04.1
; #@! TF.FileFunction,Plated,1,2,PTH
FMAT,2
INCH
; #@! TA.AperFunction,Plated,PTH,ViaDrill
T1C0.0157
; #@! TA.AperFunction,Plated,PTH,ComponentDrill
T2C0.0295
; #@! TA.AperFunction,Plated,PTH,ComponentDrill
T3C0.0315
; #@! TA.AperFunction,Plated,PTH,ComponentDrill
T4C0.0354
; #@! TA.AperFunction,Plated,PTH,ComponentDrill
T5C0.0394
; #@! TA.AperFunction,Plated,PTH,ComponentDrill
T6C0.0394
; #@! TA.AperFunction,Plated,PTH,ComponentDrill
T7C0.0433
; #@! TA.AperFunction,Plated,PTH,ComponentDrill
T8C0.0551
%
G90
G05
T1
X4.9098Y-4.2008
X5.3114Y-3.7126
X5.3626Y-3.5906
X5.5201Y-3.3976
X5.524Y-3.5906
X5.6894Y-3.9961
X5.713Y-4.0945
X5.7366Y-3.874
X5.8547Y-3.9646
X5.8902Y-4.2441
X5.9886Y-3.815
X6.087Y-4.2874
X6.1008Y-3.8484
T2
X4.961Y-4.0669
X5.011Y-4.0169
X5.011Y-4.1169
X6.0717Y-4.1358
X6.1217Y-4.1858
X6.1717Y-4.1358
T3
X5.0122Y-3.5848
X5.0122Y-3.6832
X6.3406Y-5.315
X6.378Y-5.5197
X6.378Y-5.6181
X6.4059Y-4.0906
X6.4059Y-4.189
X6.5374Y-5.315
T4
X5.9256Y-3.5604
X5.9256Y-3.6604
X6.1067Y-3.56
X6.1067Y-3.66
T5
X4.8193Y-2.6614
X4.8193Y-3.3474
X4.9177Y-2.6614
X4.9177Y-3.3474
X5.0161Y-2.6614
X5.0161Y-3.3474
X5.2957Y-2.1654
X5.2957Y-2.2654
X5.4756Y-4.1654
X5.4756Y-4.3839
X5.5748Y-4.5988
X5.5756Y-4.1654
X5.5756Y-4.3839
X5.6748Y-4.5988
X5.6756Y-4.1654
X5.6756Y-4.3839
X5.7756Y-4.1654
X5.7756Y-4.3839
X6.2209Y-2.6549
X6.2209Y-3.3514
X6.3193Y-2.6549
X6.3193Y-3.3514
X6.4177Y-2.6549
X6.4177Y-3.3514
T6
X4.8228Y-5.315
X4.8228Y-5.415
X5.0299Y-5.3142
X5.0299Y-5.6142
X5.1579Y-5.315
X5.1579Y-5.615
X6.122Y-5.315
X6.122Y-5.615
T7
X4.7524Y-3.5953
X4.7524Y-3.9953
T8
X4.8154Y-4.5079
X4.8154Y-5.1469
X5.0654Y-4.5079
X5.0654Y-5.1469
X5.3154Y-4.5079
X5.3154Y-5.1469
X5.9281Y-4.5079
X5.9281Y-5.1469
X6.1781Y-4.5079
X6.1781Y-5.1469
X6.4281Y-4.5079
X6.4281Y-5.1469
T5
G00X5.4528Y-5.4262
M15
G01X5.4094Y-5.4262
M16
G05
G00X5.4528Y-5.6112
M15
G01X5.4094Y-5.6112
M16
G05
G00X5.4528Y-5.7963
M15
G01X5.4094Y-5.7963
M16
G05
G00X5.5929Y-2.8937
M15
G01X5.6441Y-2.8937
M16
G05
G00X5.5929Y-3.0689
M15
G01X5.6441Y-3.0689
M16
G05
G00X5.5929Y-3.2441
M15
G01X5.6441Y-3.2441
M16
G05
G00X5.6614Y-5.4262
M15
G01X5.6181Y-5.4262
M16
G05
G00X5.6614Y-5.6122
M15
G01X5.6181Y-5.6122
M16
G05
G00X5.6614Y-5.7963
M15
G01X5.6181Y-5.7963
M16
G05
G00X5.8701Y-5.4262
M15
G01X5.8268Y-5.4262
M16
G05
G00X5.8701Y-5.6112
M15
G01X5.8268Y-5.6112
M16
G05
G00X5.8701Y-5.7963
M15
G01X5.8268Y-5.7963
M16
G05
T7
G00X4.7287Y-2.3799
M15
G01X4.7287Y-2.3524
M16
G05
G00X4.7287Y-3.0659
M15
G01X4.7287Y-3.0384
M16
G05
G00X5.1067Y-2.3799
M15
G01X5.1067Y-2.3524
M16
G05
G00X5.1067Y-3.0659
M15
G01X5.1067Y-3.0384
M16
G05
G00X6.1303Y-2.3734
M15
G01X6.1303Y-2.3459
M16
G05
G00X6.1303Y-3.0699
M15
G01X6.1303Y-3.0423
M16
G05
G00X6.5083Y-2.3734
M15
G01X6.5083Y-2.3459
M16
G05
G00X6.5083Y-3.0699
M15
G01X6.5083Y-3.0423
M16
G05
T0
M30
